<svg width="19" height="18" viewBox="0 0 19 18" fill="none" xmlns="http://www.w3.org/2000/svg">
<g id="&#208;&#151;&#208;&#176;&#209;&#143;&#208;&#178;&#208;&#186;&#208;&#184;">
<path id="application-icon" d="M15.0498 1.5H11.9148C11.5998 0.63 10.7748 0 9.7998 0C8.8248 0 7.9998 0.63 7.6848 1.5H4.5498C3.7248 1.5 3.0498 2.175 3.0498 3V15C3.0498 15.825 3.7248 16.5 4.5498 16.5H15.0498C15.8748 16.5 16.5498 15.825 16.5498 15V3C16.5498 2.175 15.8748 1.5 15.0498 1.5ZM9.7998 1.5C10.2123 1.5 10.5498 1.8375 10.5498 2.25C10.5498 2.6625 10.2123 3 9.7998 3C9.3873 3 9.0498 2.6625 9.0498 2.25C9.0498 1.8375 9.3873 1.5 9.7998 1.5ZM15.0498 15H4.5498V3H6.0498V5.25H13.5498V3H15.0498V15Z" fill="#7A91A9"/>
</g>
</svg>
