<svg width="19" height="18" viewBox="0 0 19 18" fill="none" xmlns="http://www.w3.org/2000/svg">
<g id="&#208;&#148;&#208;&#190;&#208;&#179;&#208;&#190;&#208;&#178;&#208;&#190;&#209;&#128;">
<path id="contract-icon" d="M5.44091 9H11.4243V10.5H5.44091V9ZM6.93675 15H3.94506V3H9.18052V6.75H12.9201V9.075L14.416 7.575V6L9.92844 1.5H3.94506C3.54834 1.5 3.16787 1.65804 2.88734 1.93934C2.60682 2.22064 2.44922 2.60218 2.44922 3V15C2.44922 15.3978 2.60682 15.7794 2.88734 16.0607C3.16787 16.342 3.54834 16.5 3.94506 16.5H6.93675V15ZM5.44091 13.5H8.50739L9.18052 12.825V12H5.44091V13.5ZM14.5656 9.75C14.6404 9.75 14.7899 9.825 14.8647 9.9L15.837 10.875C15.9866 11.025 15.9866 11.325 15.837 11.475L15.0891 12.225L13.5185 10.65L14.2664 9.9C14.3412 9.825 14.416 9.75 14.5656 9.75ZM14.5656 12.675L10.0032 17.25H8.4326V15.675L12.9949 11.1L14.5656 12.675Z" fill="#7A91A9"/>
</g>
</svg>
