<svg width="18" height="18" viewBox="0 0 18 18" fill="none" xmlns="http://www.w3.org/2000/svg">
<g id="&#208;&#161;&#209;&#135;&#209;&#145;&#209;&#130;">
<g id="payment-invoice-icon">
<path d="M10.2273 5.93182H5.31818C5.15544 5.93182 4.99935 5.99647 4.88428 6.11155C4.7692 6.22663 4.70455 6.38271 4.70455 6.54545C4.70455 6.7082 4.7692 6.86428 4.88428 6.97936C4.99935 7.09444 5.15544 7.15909 5.31818 7.15909H10.2273C10.39 7.15909 10.5461 7.09444 10.6612 6.97936C10.7763 6.86428 10.8409 6.7082 10.8409 6.54545C10.8409 6.38271 10.7763 6.22663 10.6612 6.11155C10.5461 5.99647 10.39 5.93182 10.2273 5.93182Z" fill="#0082DE"/>
<path d="M10.2273 8.38636H5.31818C5.15544 8.38636 4.99935 8.45101 4.88428 8.56609C4.7692 8.68117 4.70455 8.83725 4.70455 9C4.70455 9.16275 4.7692 9.31883 4.88428 9.43391C4.99935 9.54899 5.15544 9.61364 5.31818 9.61364H10.2273C10.39 9.61364 10.5461 9.54899 10.6612 9.43391C10.7763 9.31883 10.8409 9.16275 10.8409 9C10.8409 8.83725 10.7763 8.68117 10.6612 8.56609C10.5461 8.45101 10.39 8.38636 10.2273 8.38636Z" fill="#0082DE"/>
<path d="M7.77273 10.8409H5.31818C5.15544 10.8409 4.99935 10.9056 4.88428 11.0206C4.7692 11.1357 4.70455 11.2918 4.70455 11.4545C4.70455 11.6173 4.7692 11.7734 4.88428 11.8885C4.99935 12.0035 5.15544 12.0682 5.31818 12.0682H7.77273C7.93547 12.0682 8.09155 12.0035 8.20663 11.8885C8.32171 11.7734 8.38636 11.6173 8.38636 11.4545C8.38636 11.2918 8.32171 11.1357 8.20663 11.0206C8.09155 10.9056 7.93547 10.8409 7.77273 10.8409Z" fill="#0082DE"/>
<path d="M15.1364 8.38636H13.2955V4.09091C13.2955 3.60267 13.1015 3.13443 12.7563 2.78919C12.411 2.44395 11.9428 2.25 11.4545 2.25H4.09091C3.60267 2.25 3.13443 2.44395 2.78919 2.78919C2.44395 3.13443 2.25 3.60267 2.25 4.09091V13.9091C2.25 14.3973 2.44395 14.8656 2.78919 15.2108C3.13443 15.556 3.60267 15.75 4.09091 15.75H13.9091C14.3973 15.75 14.8656 15.556 15.2108 15.2108C15.556 14.8656 15.75 14.3973 15.75 13.9091V9C15.75 8.83725 15.6853 8.68117 15.5703 8.56609C15.4552 8.45101 15.2991 8.38636 15.1364 8.38636ZM12.0682 14.5227H4.09091C3.92816 14.5227 3.77208 14.4581 3.657 14.343C3.54192 14.2279 3.47727 14.0718 3.47727 13.9091V4.09091C3.47727 3.92816 3.54192 3.77208 3.657 3.657C3.77208 3.54192 3.92816 3.47727 4.09091 3.47727H11.4545C11.6173 3.47727 11.7734 3.54192 11.8885 3.657C12.0035 3.77208 12.0682 3.92816 12.0682 4.09091V14.5227ZM14.5227 13.9091C14.5227 14.0718 14.4581 14.2279 14.343 14.343C14.2279 14.4581 14.0718 14.5227 13.9091 14.5227H13.2955V9.61364H14.5227V13.9091Z" fill="#0082DE"/>
</g>
</g>
</svg>
