<svg width="18" height="18" viewBox="0 0 18 18" fill="none" xmlns="http://www.w3.org/2000/svg">
<g id="&#208;&#154;&#209;&#128;&#208;&#181;&#208;&#180;&#208;&#184;&#209;&#130;&#208;&#189;&#208;&#176;&#209;&#143; &#208;&#186;&#208;&#176;&#209;&#128;&#209;&#130;&#208;&#176;">
<g id="creditcard-icon">
<path d="M1.5 5.625C1.5 5.12772 1.69754 4.65081 2.04917 4.29917C2.40081 3.94754 2.87772 3.75 3.375 3.75H14.625C15.1223 3.75 15.5992 3.94754 15.9508 4.29917C16.3025 4.65081 16.5 5.12772 16.5 5.625V13.125C16.5 13.6223 16.3025 14.0992 15.9508 14.4508C15.5992 14.8025 15.1223 15 14.625 15H3.375C2.87772 15 2.40081 14.8025 2.04917 14.4508C1.69754 14.0992 1.5 13.6223 1.5 13.125V5.625ZM3.375 4.6875C3.12636 4.6875 2.8879 4.78627 2.71209 4.96209C2.53627 5.1379 2.4375 5.37636 2.4375 5.625V6.5625H15.5625V5.625C15.5625 5.37636 15.4637 5.1379 15.2879 4.96209C15.1121 4.78627 14.8736 4.6875 14.625 4.6875H3.375ZM15.5625 8.4375H2.4375V13.125C2.4375 13.3736 2.53627 13.6121 2.71209 13.7879C2.8879 13.9637 3.12636 14.0625 3.375 14.0625H14.625C14.8736 14.0625 15.1121 13.9637 15.2879 13.7879C15.4637 13.6121 15.5625 13.3736 15.5625 13.125V8.4375Z" fill="#0082DE"/>
<path d="M10.125 12.1875C10.125 11.9389 10.2238 11.7004 10.3996 11.5246C10.5754 11.3488 10.8139 11.25 11.0625 11.25H13.5C13.7486 11.25 13.9871 11.3488 14.1629 11.5246C14.3387 11.7004 14.4375 11.9389 14.4375 12.1875V12.375C14.4375 12.6236 14.3387 12.8621 14.1629 13.0379C13.9871 13.2137 13.7486 13.3125 13.5 13.3125H11.0625C10.8139 13.3125 10.5754 13.2137 10.3996 13.0379C10.2238 12.8621 10.125 12.6236 10.125 12.375V12.1875Z" fill="#0082DE"/>
</g>
</g>
</svg>
