<svg width="18" height="18" viewBox="0 0 18 18" fill="none" xmlns="http://www.w3.org/2000/svg">
<g id="&#208;&#157;&#208;&#176;&#208;&#187;&#208;&#184;&#209;&#135;&#208;&#186;&#208;&#176;">
<g id="Vector">
<path d="M15.15 4.76613C15.8956 4.76613 16.5 5.37054 16.5 6.11613V12.25C16.5 13.3546 15.6046 14.25 14.5 14.25H3.82984C3.08158 14.25 2.475 13.6434 2.475 12.8952C1.93652 12.8952 1.5 12.4586 1.5 11.9202V5.75C1.5 4.64543 2.39543 3.75 3.5 3.75H14.1339C14.6951 3.75 15.15 4.20494 15.15 4.76613ZM13.2 4.76613C13.2 4.90902 13.2254 5.04133 13.2762 5.16305C13.327 5.28478 13.3955 5.39062 13.4818 5.48059C13.5682 5.57056 13.6723 5.64466 13.7941 5.70287C13.916 5.76109 14.043 5.78755 14.175 5.78226V5.74113C14.175 5.20265 13.7385 4.76613 13.2 4.76613ZM2.475 5.78226C2.61211 5.78226 2.73906 5.7558 2.85586 5.70287C2.97266 5.64995 3.07422 5.5785 3.16055 5.48853C3.24688 5.39856 3.31797 5.29007 3.37383 5.16305C3.42969 5.03604 3.45508 4.90373 3.45 4.76613C2.91152 4.76613 2.475 5.20265 2.475 5.74113V5.78226ZM2.475 9.84677C2.74414 9.84677 2.99551 9.8997 3.2291 10.0055C3.4627 10.1114 3.6709 10.2569 3.85371 10.4422C4.03652 10.6274 4.17617 10.8417 4.27266 11.0852C4.36914 11.3286 4.41992 11.5932 4.425 11.879H12.225C12.225 11.5985 12.2758 11.3366 12.3773 11.0931C12.4789 10.8497 12.6186 10.6327 12.7963 10.4422C12.974 10.2516 13.1797 10.1061 13.4133 10.0055C13.6469 9.90499 13.9008 9.85207 14.175 9.84677V6.79839C13.9059 6.79839 13.6545 6.74546 13.4209 6.63962C13.1873 6.53377 12.9791 6.38823 12.7963 6.203C12.6135 6.01777 12.4738 5.80343 12.3773 5.55998C12.2809 5.31653 12.2301 5.05192 12.225 4.76613H4.425C4.425 5.04662 4.37422 5.30859 4.27266 5.55204C4.17109 5.79549 4.03145 6.01247 3.85371 6.203C3.67598 6.39352 3.47031 6.53906 3.23672 6.63962C3.00313 6.74017 2.74922 6.79309 2.475 6.79839V9.84677ZM14.175 10.8629C14.0379 10.8629 13.9109 10.8894 13.7941 10.9423C13.6773 10.9952 13.5758 11.0667 13.4895 11.1566C13.4031 11.2466 13.332 11.3551 13.2762 11.4821C13.2203 11.6091 13.1949 11.7414 13.2 11.879C13.7385 11.879 14.175 11.4425 14.175 10.904V10.8629ZM2.475 10.904C2.475 11.4425 2.91152 11.879 3.45 11.879C3.45 11.7361 3.42461 11.6038 3.37383 11.4821C3.32305 11.3604 3.25449 11.2545 3.16816 11.1646C3.08184 11.0746 2.97773 11.0005 2.85586 10.9423C2.73398 10.8841 2.60703 10.8576 2.475 10.8629V10.904ZM15.525 6.15726C15.525 5.95015 15.3571 5.78226 15.15 5.78226V10.7285C15.15 11.9251 14.18 12.8952 12.9833 12.8952H3.45C3.45 13.0822 3.60165 13.2339 3.78871 13.2339H14.525C15.0773 13.2339 15.525 12.7862 15.525 12.2339V6.15726ZM4.9125 8.83064C4.78047 8.83064 4.66621 8.78037 4.56973 8.67981C4.47324 8.57926 4.425 8.46018 4.425 8.32258C4.425 8.18498 4.47324 8.0659 4.56973 7.96535C4.66621 7.86479 4.78047 7.81452 4.9125 7.81452C5.04453 7.81452 5.15879 7.86479 5.25527 7.96535C5.35176 8.0659 5.4 8.18498 5.4 8.32258C5.4 8.46018 5.35176 8.57926 5.25527 8.67981C5.15879 8.78037 5.04453 8.83064 4.9125 8.83064ZM11.7375 8.83064C11.6055 8.83064 11.4912 8.78037 11.3947 8.67981C11.2982 8.57926 11.25 8.46018 11.25 8.32258C11.25 8.18498 11.2982 8.0659 11.3947 7.96535C11.4912 7.86479 11.6055 7.81452 11.7375 7.81452C11.8695 7.81452 11.9838 7.86479 12.0803 7.96535C12.1768 8.0659 12.225 8.18498 12.225 8.32258C12.225 8.46018 12.1768 8.57926 12.0803 8.67981C11.9838 8.78037 11.8695 8.83064 11.7375 8.83064Z" fill="#0082DE"/>
<path d="M7.52957 10.1857V9.37616H7.025V8.95863L7.52957 8.92135V8.51127H7.025V8.09375L7.52957 8.05647V5.78242H8.60548C8.91712 5.78242 9.19909 5.82964 9.45137 5.92409C9.70365 6.01356 9.904 6.1577 10.0524 6.35653C10.2008 6.55535 10.275 6.81382 10.275 7.13194C10.275 7.45503 10.1983 7.71847 10.045 7.92226C9.89163 8.12605 9.68881 8.27517 9.43653 8.36961C9.18425 8.46405 8.90723 8.51127 8.60548 8.51127H8.33836V8.91389H9.3V9.37616H8.33836V10.1857H7.52957ZM8.33836 8.04901H8.55354C8.8454 8.04901 9.07047 7.97445 9.22877 7.82533C9.39201 7.67125 9.47363 7.45503 9.47363 7.17667C9.47363 6.87347 9.39201 6.65725 9.22877 6.52801C9.07047 6.39878 8.8454 6.33416 8.55354 6.33416H8.33836V8.04901Z" fill="#0082DE"/>
</g>
</g>
</svg>
