<svg width="18" height="18" viewBox="0 0 18 18" fill="none" xmlns="http://www.w3.org/2000/svg">
<g id="&#209;&#128;&#208;&#181;&#209;&#132;&#209;&#132;&#208;&#181;&#209;&#128;&#208;&#176;&#208;&#187;&#209;&#140;&#208;&#189;&#208;&#178;&#209;&#143; &#208;&#190;&#208;&#191;&#208;&#187;&#208;&#176;&#209;&#130;&#208;&#176;">
<g id="Union">
<path d="M12 3C10.755 3 9.75 4.005 9.75 5.25C9.75 6.495 10.755 7.5 12 7.5C13.245 7.5 14.25 6.495 14.25 5.25C14.25 4.005 13.245 3 12 3Z" fill="#0082DE"/>
<path d="M0.75 13.2857C0.75 13.2857 0.75 9.85714 6 9.85714C11.25 9.85714 11.25 13.2857 11.25 13.2857V15.75H0.75V13.2857Z" fill="#0082DE"/>
<path d="M6 3.75C4.5475 3.75 3.375 4.89857 3.375 6.32143C3.375 7.74429 4.5475 8.89286 6 8.89286C7.4525 8.89286 8.625 7.74429 8.625 6.32143C8.625 4.89857 7.4525 3.75 6 3.75Z" fill="#0082DE"/>
<path d="M12.0255 12.75C12.0139 12.6907 12 12.6277 11.9836 12.5614C11.8829 12.1546 11.6825 11.6158 11.2831 11.0778C10.6982 10.2903 9.74814 9.58361 8.25 9.23942C9.02138 8.68017 10.2081 8.25 12.0336 8.25C17.25 8.25 17.25 11.7622 17.25 11.7622V12.75H12.0255Z" fill="#0082DE"/>
</g>
</g>
</svg>
