<svg width="20" height="20" viewBox="0 0 20 20" fill="none" xmlns="http://www.w3.org/2000/svg">
<path d="M10.115 6.37081C9.77464 6.3933 9.48468 6.64118 9.40355 6.97258C9.39042 7.02595 9.38301 7.08057 9.38147 7.13551C9.37762 7.27665 9.46574 7.40255 9.60027 7.44542C9.78401 7.50385 9.97567 7.53352 10.1685 7.53339C10.3704 7.53339 10.5647 7.50128 10.7469 7.44213C10.8694 7.40237 10.9553 7.28738 10.9558 7.1586V7.15632C10.9558 6.70385 10.574 6.3405 10.115 6.37081Z" stroke="#BEBEBE" stroke-miterlimit="10" stroke-linecap="round" stroke-linejoin="round"/>
<path d="M9.39333 7.02151L1.17041 7.77123V14.5192" stroke="#BEBEBE" stroke-miterlimit="10" stroke-linecap="round" stroke-linejoin="round"/>
<path d="M1.53417 14.5197H0.806427C0.750281 14.5197 0.696434 14.542 0.656732 14.5817C0.617031 14.6214 0.594727 14.6753 0.594727 14.7314V16.6103C0.594727 16.6664 0.617031 16.7203 0.656732 16.76C0.696434 16.7997 0.750281 16.822 0.806427 16.822H1.53417C1.59032 16.822 1.64416 16.7997 1.68386 16.76C1.72357 16.7203 1.74587 16.6664 1.74587 16.6103V14.7314C1.74587 14.6753 1.72357 14.6214 1.68386 14.5817C1.64416 14.542 1.59032 14.5197 1.53417 14.5197Z" stroke="#BEBEBE" stroke-miterlimit="10" stroke-linecap="round" stroke-linejoin="round"/>
<path d="M9.45897 4.36009L1.30287 7.57715C1.12626 7.64681 1.12626 7.89678 1.30287 7.96643L9.73939 11.2941C10.0151 11.4029 10.3218 11.4029 10.5975 11.2941L19.0341 7.96643C19.2107 7.89678 19.2107 7.64681 19.0341 7.57715L10.7669 4.31629" stroke="#BEBEBE" stroke-miterlimit="10" stroke-linecap="round" stroke-linejoin="round"/>
<path d="M9.45897 11.1823L1.30287 7.96521C1.12626 7.89555 1.12626 7.64558 1.30287 7.57593L9.73939 4.24825C10.0151 4.1395 10.3218 4.1395 10.5975 4.24825L19.0341 7.57593C19.2107 7.64558 19.2107 7.89555 19.0341 7.96521L10.7669 11.2261M10.1685 11.3755C10.0229 11.3755 9.87728 11.3484 9.73943 11.294L4.38966 9.18386V13.5944C4.38966 13.7416 4.43393 13.8854 4.51671 14.007C4.5995 14.1287 4.71698 14.2226 4.85387 14.2766L9.71936 16.1957C9.86239 16.2521 10.0148 16.2811 10.1685 16.2811V11.3755Z" stroke="#BEBEBE" stroke-miterlimit="10" stroke-linecap="round" stroke-linejoin="round"/>
<path d="M15.9474 11.0673V9.18419L10.5975 11.2944C10.3218 11.4031 10.0151 11.4031 9.73938 11.2944L4.38965 9.18426V13.5949C4.38964 13.742 4.43391 13.8858 4.5167 14.0074C4.59949 14.1291 4.71697 14.223 4.85386 14.277L9.71931 16.1961C10.0079 16.31 10.329 16.31 10.6176 16.1961L15.4832 14.2769C15.6201 14.2229 15.7376 14.129 15.8204 14.0074C15.9031 13.8857 15.9474 13.742 15.9474 13.5948V11.0673Z" stroke="#BEBEBE" stroke-miterlimit="10" stroke-linecap="round" stroke-linejoin="round"/>
</svg>
