<svg width="24" height="24" viewBox="0 0 24 24" fill="none" xmlns="http://www.w3.org/2000/svg">
<path d="M18.879 7.5L15 3.621V7.5H18.879ZM19.5 9H13.5V3H4.5V21H19.5V9ZM3.75 1.5H15L21 7.5V21.75C21 21.9489 20.921 22.1397 20.7803 22.2803C20.6397 22.421 20.4489 22.5 20.25 22.5H3.75C3.55109 22.5 3.36032 22.421 3.21967 22.2803C3.07902 22.1397 3 21.9489 3 21.75V2.25C3 2.05109 3.07902 1.86032 3.21967 1.71967C3.36032 1.57902 3.55109 1.5 3.75 1.5ZM10.992 14.304L8.871 12.18L9.9315 11.1195L12.054 13.2405L14.175 11.121L15.2355 12.1815L13.1145 14.304L15.2355 16.425L14.175 17.4855L12.054 15.3645L9.9315 17.4855L8.871 16.425L10.992 14.304Z" fill="#F4D150"/>
</svg>
