<svg width="27" height="18" viewBox="0 0 27 18" fill="none" xmlns="http://www.w3.org/2000/svg">
<path d="M1.79113 1.83751H13.5036V6.71781L15.2946 4.90916V0.918757C15.2946 0.430748 14.8966 0 14.3848 0L0.909807 0.000200251C0.426551 0.000200251 0 0.402101 0 0.918957V14.5839C0 15.0719 0.397986 15.5027 0.909807 15.5027H8.61387L9.01186 13.694H1.79107L1.79113 1.83751Z" fill="#F4D150"/>
<path d="M26.3816 3.87579L24.1642 1.63657C23.3399 0.804144 21.9185 0.804144 21.1223 1.63657L11.4851 11.3111C11.3715 11.4259 11.286 11.5983 11.2293 11.7705L10.149 16.9092C10.092 17.225 10.1773 17.5122 10.4048 17.7417C10.5753 17.9139 10.8028 18 11.0302 18C11.0871 18 11.1438 18 11.2293 17.9714L16.3179 16.8804C16.4885 16.8518 16.6307 16.7657 16.7728 16.6221L26.3816 6.9188C27.2061 6.08637 27.2061 4.70822 26.3816 3.87579ZM14.0153 11.3399L20.2127 5.08152L22.9419 7.83759L16.7445 14.0959L14.0153 11.3399ZM12.8783 12.7466L15.3515 15.2441L12.2243 15.9332L12.8783 12.7466ZM25.1024 5.65574L24.2212 6.54563L21.492 3.78957L22.3732 2.89967C22.5438 2.72745 22.6859 2.72745 22.8848 2.89967L25.1022 5.13889C25.2446 5.28247 25.2446 5.51215 25.1024 5.65574Z" fill="#F4D150"/>
</svg>
