<svg width="27" height="18" viewBox="0 0 27 18" fill="none" xmlns="http://www.w3.org/2000/svg">
<path d="M9.86471 5.22522L6.76609 8.35455L5.45829 7.00527C5.11721 6.66084 4.54849 6.66084 4.17907 7.00527C3.838 7.34971 3.838 7.92403 4.17907 8.29708L6.14067 10.278C6.31121 10.4502 6.53865 10.5363 6.76609 10.5363C6.99352 10.5363 7.22098 10.4502 7.39151 10.278L11.1155 6.51729C11.4566 6.17285 11.4566 5.59853 11.1155 5.22548C10.8028 4.85221 10.2344 4.85216 9.86471 5.22522Z" fill="#71D472"/>
<path d="M1.79113 1.83752H13.5035V6.71783L15.2946 4.90918V0.91876C15.2946 0.430749 14.8966 0 14.3848 0L0.909803 0.000200251C0.426549 0.000200251 0 0.402103 0 0.91896V14.584C0 15.072 0.397984 15.5027 0.909803 15.5027H8.61384L9.01182 13.6941H1.79107L1.79113 1.83752Z" fill="#71D472"/>
<path d="M26.3816 3.87575L24.1642 1.63653C23.3399 0.804096 21.9185 0.804096 21.1223 1.63653L11.4852 11.3111C11.3715 11.4259 11.2861 11.5983 11.2293 11.7705L10.149 16.9092C10.0921 17.225 10.1774 17.5122 10.4048 17.7417C10.5754 17.9139 10.8028 18 11.0302 18C11.0872 18 11.1439 18 11.2293 17.9714L16.318 16.8804C16.4885 16.8518 16.6307 16.7657 16.7729 16.6221L26.3816 6.91877C27.2061 6.08634 27.2061 4.70818 26.3816 3.87575ZM14.0154 11.3398L20.2127 5.08149L22.9419 7.83756L16.7446 14.0959L14.0154 11.3398ZM12.8783 12.7466L15.3515 15.2441L12.2243 15.9332L12.8783 12.7466ZM25.1025 5.6557L24.2212 6.5456L21.492 3.78953L22.3732 2.89963C22.5438 2.72741 22.686 2.72741 22.8848 2.89963L25.1023 5.13885C25.2446 5.28243 25.2446 5.51212 25.1025 5.6557Z" fill="#71D472"/>
</svg>
