<svg width="24" height="24" viewBox="0 0 24 24" fill="none" xmlns="http://www.w3.org/2000/svg">
<path d="M18.879 7.5L15 3.621V7.5H18.879ZM19.5 9H13.5V3H4.5V21H19.5V9ZM3.75 1.5H15L21 7.5V21.75C21 21.9489 20.921 22.1397 20.7803 22.2803C20.6397 22.421 20.4489 22.5 20.25 22.5H3.75C3.55109 22.5 3.36032 22.421 3.21967 22.2803C3.07902 22.1397 3 21.9489 3 21.75V2.25C3 2.05109 3.07902 1.86032 3.21967 1.71967C3.36032 1.57902 3.55109 1.5 3.75 1.5ZM11.2125 15.144L15.4545 10.902L16.515 11.9625L11.2125 17.265L7.5 13.554L8.5605 12.492L11.2125 15.144Z" fill="#71D472"/>
</svg>
