<svg width="60" height="60" viewBox="0 0 60 60" fill="none" xmlns="http://www.w3.org/2000/svg">
<path fill-rule="evenodd" clip-rule="evenodd" d="M31 9.125C18.9188 9.125 9.125 18.9188 9.125 31C9.125 43.0812 18.9188 52.875 31 52.875C43.0812 52.875 52.875 43.0812 52.875 31C52.875 18.9188 43.0812 9.125 31 9.125ZM6 31C6 17.1929 17.1929 6 31 6C44.8071 6 56 17.1929 56 31C56 44.8071 44.8071 56 31 56C17.1929 56 6 44.8071 6 31Z" fill="#F4D150"/>
<path fill-rule="evenodd" clip-rule="evenodd" d="M29.3078 39.9842C29.3078 39.1213 30.0074 38.4217 30.8703 38.4217H31.1307C31.9937 38.4217 32.6932 39.1213 32.6932 39.9842V40.2447C32.6932 41.1076 31.9937 41.8072 31.1307 41.8072H30.8703C30.0074 41.8072 29.3078 41.1076 29.3078 40.2447V39.9842Z" fill="#F4D150"/>
<path fill-rule="evenodd" clip-rule="evenodd" d="M31 20.1926C31.8629 20.1926 32.5625 20.8921 32.5625 21.7551V32.1717C32.5625 33.0347 31.8629 33.7342 31 33.7342C30.1371 33.7342 29.4375 33.0347 29.4375 32.1717V21.7551C29.4375 20.8921 30.1371 20.1926 31 20.1926Z" fill="#F4D150"/>
</svg>
