<svg width="16" height="16" viewBox="0 0 16 16" fill="none" xmlns="http://www.w3.org/2000/svg">
<path d="M7.25 11.25C7.25 11.4489 7.32902 11.6397 7.46967 11.7803C7.61032 11.921 7.80109 12 8 12C8.19891 12 8.38968 11.921 8.53033 11.7803C8.67098 11.6397 8.75 11.4489 8.75 11.25C8.75 11.0511 8.67098 10.8603 8.53033 10.7197C8.38968 10.579 8.19891 10.5 8 10.5C7.80109 10.5 7.61032 10.579 7.46967 10.7197C7.32902 10.8603 7.25 11.0511 7.25 11.25ZM7.5 6.5V9.375C7.5 9.44375 7.55625 9.5 7.625 9.5H8.375C8.44375 9.5 8.5 9.44375 8.5 9.375V6.5C8.5 6.43125 8.44375 6.375 8.375 6.375H7.625C7.55625 6.375 7.5 6.43125 7.5 6.5ZM14.9328 13.375L8.43281 2.125C8.33594 1.95781 8.16875 1.875 8 1.875C7.83125 1.875 7.6625 1.95781 7.56719 2.125L1.06719 13.375C0.874999 13.7094 1.11562 14.125 1.5 14.125H14.5C14.8844 14.125 15.125 13.7094 14.9328 13.375ZM2.69062 12.9391L8 3.74844L13.3094 12.9391H2.69062Z" fill="#EB4D3D"/>
</svg>
