<svg width="25" height="24" viewBox="0 0 25 24" fill="none" xmlns="http://www.w3.org/2000/svg">
<path d="M18.7129 12.9998H18.0329L16.0329 14.9998H17.9429L19.7129 16.9998H5.71289L7.49289 14.9998H9.54289L7.54289 12.9998H6.71289L3.71289 15.9998V19.9998C3.71289 21.0998 4.60289 21.9998 5.70289 21.9998H19.7129C20.8129 21.9998 21.7129 21.1098 21.7129 19.9998V15.9998L18.7129 12.9998ZM19.7129 19.9998H5.71289V18.9998H19.7129V19.9998ZM12.0529 15.0198C12.4429 15.4098 13.0729 15.4098 13.4629 15.0198L19.8229 8.6598C20.2129 8.2698 20.2129 7.6398 19.8229 7.2498L14.8729 2.2998C14.4929 1.8998 13.8629 1.8998 13.4729 2.2898L7.10289 8.6598C6.71289 9.0498 6.71289 9.6798 7.10289 10.0698L12.0529 15.0198ZM14.1729 4.4098L17.7129 7.9498L12.7629 12.8998L9.22289 9.3598L14.1729 4.4098Z" fill="black"/>
</svg>
