<svg width="32" height="32" viewBox="0 0 32 32" fill="none" xmlns="http://www.w3.org/2000/svg">
<g clip-path="url(#clip0_18250_57858)">
<path fill-rule="evenodd" clip-rule="evenodd" d="M16 2C8.26801 2 2 8.26801 2 16C2 23.732 8.26801 30 16 30C23.732 30 30 23.732 30 16C30 8.26801 23.732 2 16 2ZM0 16C0 7.16344 7.16344 0 16 0C24.8366 0 32 7.16344 32 16C32 24.8366 24.8366 32 16 32C7.16344 32 0 24.8366 0 16Z" fill="#7A91A9"/>
<path fill-rule="evenodd" clip-rule="evenodd" d="M10.3515 13.3515C10.8201 12.8828 11.5799 12.8828 12.0485 13.3515L16 17.3029L19.9515 13.3515C20.4201 12.8828 21.1799 12.8828 21.6485 13.3515C22.1172 13.8201 22.1172 14.5799 21.6485 15.0485L16.8485 19.8485C16.3799 20.3172 15.6201 20.3172 15.1515 19.8485L10.3515 15.0485C9.88284 14.5799 9.88284 13.8201 10.3515 13.3515Z" fill="#7A91A9"/>
</g>
<defs>
<clipPath id="clip0_18250_57858">
<rect width="32" height="32" fill="white"/>
</clipPath>
</defs>
</svg>
