<svg width="12" height="12" viewBox="0 0 12 12" fill="none" xmlns="http://www.w3.org/2000/svg">
<path d="M9.55078 3.80078L6.65078 1.25078C6.25078 0.900781 5.70078 0.900781 5.30078 1.25078L2.55078 3.80078C2.15078 4.15078 2.10078 4.80078 2.50078 5.20078C2.90078 5.60078 3.50078 5.65078 3.90078 5.25078L5.00078 4.25078V10.0008C5.00078 10.5508 5.45078 11.0008 6.00078 11.0008C6.55078 11.0008 7.00078 10.5508 7.00078 10.0008V4.20078L8.25078 5.30078C8.45078 5.45078 8.70078 5.55078 8.90078 5.55078C9.20078 5.55078 9.45078 5.45078 9.65078 5.20078C10.0008 4.80078 9.95078 4.20078 9.55078 3.80078Z" fill="#71D472"/>
</svg>
