<svg width="18" height="18" viewBox="0 0 18 18" fill="none" xmlns="http://www.w3.org/2000/svg">
<path fill-rule="evenodd" clip-rule="evenodd" d="M16.875 9C16.875 13.3492 13.3492 16.875 9 16.875C4.65076 16.875 1.125 13.3492 1.125 9C1.125 4.65076 4.65076 1.125 9 1.125C13.3492 1.125 16.875 4.65076 16.875 9ZM9 18C13.9706 18 18 13.9706 18 9C18 4.02944 13.9706 -4.80506e-08 9 -1.07324e-07C4.02944 -1.66597e-07 1.66597e-07 4.02944 1.07324e-07 9C4.80506e-08 13.9706 4.02944 18 9 18Z" fill="#7A91A9"/>
<path fill-rule="evenodd" clip-rule="evenodd" d="M10.4898 12.1773C10.7534 11.9137 10.7534 11.4863 10.4898 11.2227L8.26709 9L10.4898 6.7773C10.7534 6.51369 10.7534 6.08631 10.4898 5.8227C10.2262 5.5591 9.79881 5.5591 9.5352 5.8227L6.8352 8.5227C6.5716 8.78631 6.5716 9.21369 6.8352 9.4773L9.5352 12.1773C9.79881 12.4409 10.2262 12.4409 10.4898 12.1773Z" fill="#7A91A9"/>
</svg>
