<svg width="12" height="12" viewBox="0 0 12 12" fill="none" xmlns="http://www.w3.org/2000/svg">
<path d="M9.55078 8.19922L6.65078 10.7492C6.25078 11.0992 5.70078 11.0992 5.30078 10.7492L2.55078 8.19922C2.15078 7.84922 2.10078 7.19922 2.50078 6.79922C2.90078 6.39922 3.50078 6.34922 3.90078 6.74922L5.00078 7.74922V1.99922C5.00078 1.44922 5.45078 0.999219 6.00078 0.999219C6.55078 0.999219 7.00078 1.44922 7.00078 1.99922V7.79922L8.25078 6.69922C8.45078 6.54922 8.70078 6.44922 8.90078 6.44922C9.20078 6.44922 9.45078 6.54922 9.65078 6.79922C10.0008 7.19922 9.95078 7.79922 9.55078 8.19922Z" fill="#EB4D3D"/>
</svg>
