<svg width="15" height="12" viewBox="0 0 15 12" fill="none" xmlns="http://www.w3.org/2000/svg">
<path d="M3.49966 0.5C3.49966 0.367392 3.44698 0.240215 3.35321 0.146447C3.25944 0.0526785 3.13226 0 2.99966 0C2.86705 0 2.73987 0.0526785 2.6461 0.146447C2.55233 0.240215 2.49966 0.367392 2.49966 0.5V9.293L1.35365 8.146C1.25977 8.05211 1.13243 7.99937 0.999655 7.99937C0.866879 7.99937 0.739542 8.05211 0.645655 8.146C0.551768 8.23989 0.499023 8.36722 0.499023 8.5C0.499023 8.63278 0.551768 8.76011 0.645655 8.854L2.64565 10.853L2.65266 10.86C2.74653 10.9515 2.87278 11.0023 3.00389 11.0011C3.135 11 3.26036 10.9471 3.35265 10.854L5.35266 8.854C5.39914 8.80758 5.43603 8.75245 5.46122 8.69177C5.4864 8.6311 5.49939 8.56605 5.49943 8.50035C5.49948 8.43466 5.48659 8.36959 5.46149 8.30888C5.43639 8.24816 5.39958 8.19299 5.35316 8.1465C5.30673 8.10001 5.25161 8.06312 5.19093 8.03794C5.13025 8.01275 5.06521 7.99977 4.99951 7.99972C4.93381 7.99968 4.86875 8.01257 4.80803 8.03767C4.74732 8.06277 4.69214 8.09958 4.64565 8.146L3.49966 9.293V0.5ZM6.99965 1.5C6.99965 1.36739 7.05233 1.24021 7.1461 1.14645C7.23987 1.05268 7.36705 1 7.49965 1H14.4997C14.6323 1 14.7594 1.05268 14.8532 1.14645C14.947 1.24021 14.9997 1.36739 14.9997 1.5C14.9997 1.63261 14.947 1.75979 14.8532 1.85355C14.7594 1.94732 14.6323 2 14.4997 2H7.49965C7.36705 2 7.23987 1.94732 7.1461 1.85355C7.05233 1.75979 6.99965 1.63261 6.99965 1.5ZM7.49965 4C7.36705 4 7.23987 4.05268 7.1461 4.14645C7.05233 4.24021 6.99965 4.36739 6.99965 4.5C6.99965 4.63261 7.05233 4.75979 7.1461 4.85355C7.23987 4.94732 7.36705 5 7.49965 5H12.4997C12.6323 5 12.7594 4.94732 12.8532 4.85355C12.947 4.75979 12.9997 4.63261 12.9997 4.5C12.9997 4.36739 12.947 4.24021 12.8532 4.14645C12.7594 4.05268 12.6323 4 12.4997 4H7.49965ZM7.49965 7C7.36705 7 7.23987 7.05268 7.1461 7.14645C7.05233 7.24021 6.99965 7.36739 6.99965 7.5C6.99965 7.63261 7.05233 7.75979 7.1461 7.85355C7.23987 7.94732 7.36705 8 7.49965 8H10.4997C10.6323 8 10.7594 7.94732 10.8532 7.85355C10.947 7.75979 10.9997 7.63261 10.9997 7.5C10.9997 7.36739 10.947 7.24021 10.8532 7.14645C10.7594 7.05268 10.6323 7 10.4997 7H7.49965ZM7.49965 10C7.36705 10 7.23987 10.0527 7.1461 10.1464C7.05233 10.2402 6.99965 10.3674 6.99965 10.5C6.99965 10.6326 7.05233 10.7598 7.1461 10.8536C7.23987 10.9473 7.36705 11 7.49965 11H8.49965C8.63226 11 8.75944 10.9473 8.85321 10.8536C8.94698 10.7598 8.99965 10.6326 8.99965 10.5C8.99965 10.3674 8.94698 10.2402 8.85321 10.1464C8.75944 10.0527 8.63226 10 8.49965 10H7.49965Z" fill="#7A91A9"/>
</svg>
