<svg width="18" height="19" viewBox="0 0 18 19" fill="none" xmlns="http://www.w3.org/2000/svg">
<path fill-rule="evenodd" clip-rule="evenodd" d="M1.125 9.375C1.125 13.7242 4.65076 17.25 9 17.25C13.3492 17.25 16.875 13.7242 16.875 9.375C16.875 5.02576 13.3492 1.5 9 1.5C4.65076 1.5 1.125 5.02576 1.125 9.375ZM9 18.375C4.02944 18.375 -4.80506e-08 14.3456 -1.07324e-07 9.375C-1.66597e-07 4.40444 4.02944 0.375 9 0.375C13.9706 0.375 18 4.40444 18 9.375C18 14.3456 13.9706 18.375 9 18.375Z" fill="#7A91A9"/>
<path fill-rule="evenodd" clip-rule="evenodd" d="M7.5102 12.5523C7.2466 12.2887 7.2466 11.8613 7.5102 11.5977L9.73291 9.375L7.5102 7.1523C7.2466 6.88869 7.2466 6.46131 7.5102 6.1977C7.77381 5.9341 8.20119 5.9341 8.4648 6.1977L11.1648 8.8977C11.4284 9.16131 11.4284 9.58869 11.1648 9.8523L8.4648 12.5523C8.20119 12.8159 7.77381 12.8159 7.5102 12.5523Z" fill="#7A91A9"/>
</svg>
