<svg width="40" height="40" viewBox="0 0 40 40" fill="none" xmlns="http://www.w3.org/2000/svg">
<circle cx="20" cy="20" r="20" fill="#EB4D3D"/>
<path d="M24.6625 8.75H15.3375L8.75 15.3375V24.6625L15.3375 31.25H24.6625L31.25 24.6625V15.3375L24.6625 8.75ZM28.75 23.625L23.625 28.75H16.375L11.25 23.625V16.375L16.375 11.25H23.625L28.75 16.375V23.625Z" fill="white"/>
<path d="M20 26.25C20.6904 26.25 21.25 25.6904 21.25 25C21.25 24.3096 20.6904 23.75 20 23.75C19.3096 23.75 18.75 24.3096 18.75 25C18.75 25.6904 19.3096 26.25 20 26.25Z" fill="white"/>
<path d="M18.75 13.75H21.25V22.5H18.75V13.75Z" fill="white"/>
</svg>
