<svg width="16" height="17" viewBox="0 0 16 17" fill="none" xmlns="http://www.w3.org/2000/svg">
<g id="&#208;&#161;&#209;&#135;&#209;&#145;&#209;&#130;">
<g id="payment-invoice-icon">
<path d="M8.8545 5.77273H4.6051C4.46422 5.77273 4.32911 5.83019 4.2295 5.93249C4.12988 6.03478 4.07392 6.17352 4.07392 6.31818C4.07392 6.46285 4.12988 6.60158 4.2295 6.70388C4.32911 6.80617 4.46422 6.86364 4.6051 6.86364H8.8545C8.99538 6.86364 9.13048 6.80617 9.2301 6.70388C9.32971 6.60158 9.38568 6.46285 9.38568 6.31818C9.38568 6.17352 9.32971 6.03478 9.2301 5.93249C9.13048 5.83019 8.99538 5.77273 8.8545 5.77273Z" fill="#0082DE"/>
<path d="M8.8545 7.95455H4.6051C4.46422 7.95455 4.32911 8.01201 4.2295 8.11431C4.12988 8.2166 4.07392 8.35534 4.07392 8.5C4.07392 8.64466 4.12988 8.7834 4.2295 8.88569C4.32911 8.98799 4.46422 9.04545 4.6051 9.04545H8.8545C8.99538 9.04545 9.13048 8.98799 9.2301 8.88569C9.32971 8.7834 9.38568 8.64466 9.38568 8.5C9.38568 8.35534 9.32971 8.2166 9.2301 8.11431C9.13048 8.01201 8.99538 7.95455 8.8545 7.95455Z" fill="#0082DE"/>
<path d="M6.7298 10.1364H4.6051C4.46422 10.1364 4.32911 10.1938 4.2295 10.2961C4.12988 10.3984 4.07392 10.5372 4.07392 10.6818C4.07392 10.8265 4.12988 10.9652 4.2295 11.0675C4.32911 11.1698 4.46422 11.2273 4.6051 11.2273H6.7298C6.87068 11.2273 7.00578 11.1698 7.1054 11.0675C7.20501 10.9652 7.26097 10.8265 7.26097 10.6818C7.26097 10.5372 7.20501 10.3984 7.1054 10.2961C7.00578 10.1938 6.87068 10.1364 6.7298 10.1364Z" fill="#0082DE"/>
<path d="M13.1039 7.95455H11.5104V4.13636C11.5104 3.70237 11.3425 3.28616 11.0436 2.97928C10.7448 2.6724 10.3395 2.5 9.91685 2.5H3.54275C3.12012 2.5 2.7148 2.6724 2.41595 2.97928C2.11711 3.28616 1.94922 3.70237 1.94922 4.13636V12.8636C1.94922 13.2976 2.11711 13.7138 2.41595 14.0207C2.7148 14.3276 3.12012 14.5 3.54275 14.5H12.0416C12.4642 14.5 12.8695 14.3276 13.1683 14.0207C13.4672 13.7138 13.6351 13.2976 13.6351 12.8636V8.5C13.6351 8.35534 13.5791 8.2166 13.4795 8.11431C13.3799 8.01201 13.2448 7.95455 13.1039 7.95455ZM10.448 13.4091H3.54275C3.40187 13.4091 3.26676 13.3516 3.16715 13.2493C3.06753 13.147 3.01157 13.0083 3.01157 12.8636V4.13636C3.01157 3.9917 3.06753 3.85296 3.16715 3.75067C3.26676 3.64838 3.40187 3.59091 3.54275 3.59091H9.91685C10.0577 3.59091 10.1928 3.64838 10.2925 3.75067C10.3921 3.85296 10.448 3.9917 10.448 4.13636V13.4091ZM12.5727 12.8636C12.5727 13.0083 12.5168 13.147 12.4172 13.2493C12.3175 13.3516 12.1824 13.4091 12.0416 13.4091H11.5104V9.04545H12.5727V12.8636Z" fill="#0082DE"/>
</g>
</g>
</svg>
