<svg width="20" height="15" viewBox="0 0 20 15" fill="none" xmlns="http://www.w3.org/2000/svg">
<path d="M0 2.5C0 1.83696 0.263392 1.20107 0.732233 0.732233C1.20107 0.263392 1.83696 0 2.5 0H17.5C18.163 0 18.7989 0.263392 19.2678 0.732233C19.7366 1.20107 20 1.83696 20 2.5V12.5C20 13.163 19.7366 13.7989 19.2678 14.2678C18.7989 14.7366 18.163 15 17.5 15H2.5C1.83696 15 1.20107 14.7366 0.732233 14.2678C0.263392 13.7989 0 13.163 0 12.5V2.5ZM2.5 1.25C2.16848 1.25 1.85054 1.3817 1.61612 1.61612C1.3817 1.85054 1.25 2.16848 1.25 2.5V3.75H18.75V2.5C18.75 2.16848 18.6183 1.85054 18.3839 1.61612C18.1495 1.3817 17.8315 1.25 17.5 1.25H2.5ZM18.75 6.25H1.25V12.5C1.25 12.8315 1.3817 13.1495 1.61612 13.3839C1.85054 13.6183 2.16848 13.75 2.5 13.75H17.5C17.8315 13.75 18.1495 13.6183 18.3839 13.3839C18.6183 13.1495 18.75 12.8315 18.75 12.5V6.25Z" fill="#7A91A9"/>
<path d="M11.5 11.25C11.5 10.9185 11.6317 10.6005 11.8661 10.3661C12.1005 10.1317 12.4185 10 12.75 10H16C16.3315 10 16.6495 10.1317 16.8839 10.3661C17.1183 10.6005 17.25 10.9185 17.25 11.25V11.5C17.25 11.8315 17.1183 12.1495 16.8839 12.3839C16.6495 12.6183 16.3315 12.75 16 12.75H12.75C12.4185 12.75 12.1005 12.6183 11.8661 12.3839C11.6317 12.1495 11.5 11.8315 11.5 11.5V11.25Z" fill="#7A91A9"/>
</svg>
