<svg width="18" height="18" viewBox="0 0 18 18" fill="none" xmlns="http://www.w3.org/2000/svg">
<path d="M10.6364 4.90909H4.09091C3.87391 4.90909 3.66581 4.99529 3.51237 5.14873C3.35893 5.30217 3.27273 5.51028 3.27273 5.72727C3.27273 5.94427 3.35893 6.15238 3.51237 6.30581C3.66581 6.45925 3.87391 6.54545 4.09091 6.54545H10.6364C10.8534 6.54545 11.0615 6.45925 11.2149 6.30581C11.3683 6.15238 11.4545 5.94427 11.4545 5.72727C11.4545 5.51028 11.3683 5.30217 11.2149 5.14873C11.0615 4.99529 10.8534 4.90909 10.6364 4.90909Z" fill="#7A91A9"/>
<path d="M10.6364 8.18182H4.09091C3.87391 8.18182 3.66581 8.26802 3.51237 8.42146C3.35893 8.5749 3.27273 8.783 3.27273 9C3.27273 9.217 3.35893 9.4251 3.51237 9.57854C3.66581 9.73198 3.87391 9.81818 4.09091 9.81818H10.6364C10.8534 9.81818 11.0615 9.73198 11.2149 9.57854C11.3683 9.4251 11.4545 9.217 11.4545 9C11.4545 8.783 11.3683 8.5749 11.2149 8.42146C11.0615 8.26802 10.8534 8.18182 10.6364 8.18182Z" fill="#7A91A9"/>
<path d="M7.36364 11.4545H4.09091C3.87391 11.4545 3.66581 11.5407 3.51237 11.6942C3.35893 11.8476 3.27273 12.0557 3.27273 12.2727C3.27273 12.4897 3.35893 12.6978 3.51237 12.8513C3.66581 13.0047 3.87391 13.0909 4.09091 13.0909H7.36364C7.58063 13.0909 7.78874 13.0047 7.94218 12.8513C8.09562 12.6978 8.18182 12.4897 8.18182 12.2727C8.18182 12.0557 8.09562 11.8476 7.94218 11.6942C7.78874 11.5407 7.58063 11.4545 7.36364 11.4545Z" fill="#7A91A9"/>
<path d="M17.1818 8.18182H14.7273V2.45455C14.7273 1.80356 14.4687 1.17924 14.0084 0.71892C13.548 0.258603 12.9237 0 12.2727 0H2.45455C1.80356 0 1.17924 0.258603 0.71892 0.71892C0.258603 1.17924 0 1.80356 0 2.45455V15.5455C0 16.1964 0.258603 16.8208 0.71892 17.2811C1.17924 17.7414 1.80356 18 2.45455 18H15.5455C16.1964 18 16.8208 17.7414 17.2811 17.2811C17.7414 16.8208 18 16.1964 18 15.5455V9C18 8.783 17.9138 8.5749 17.7604 8.42146C17.6069 8.26802 17.3988 8.18182 17.1818 8.18182ZM13.0909 16.3636H2.45455C2.23755 16.3636 2.02944 16.2774 1.876 16.124C1.72256 15.9706 1.63636 15.7625 1.63636 15.5455V2.45455C1.63636 2.23755 1.72256 2.02944 1.876 1.876C2.02944 1.72256 2.23755 1.63636 2.45455 1.63636H12.2727C12.4897 1.63636 12.6978 1.72256 12.8513 1.876C13.0047 2.02944 13.0909 2.23755 13.0909 2.45455V16.3636ZM16.3636 15.5455C16.3636 15.7625 16.2774 15.9706 16.124 16.124C15.9706 16.2774 15.7625 16.3636 15.5455 16.3636H14.7273V9.81818H16.3636V15.5455Z" fill="#7A91A9"/>
</svg>
