<svg width="24" height="24" viewBox="0 0 24 24" fill="none" xmlns="http://www.w3.org/2000/svg">
<path d="M8.06774 10.1523H15.9323V11.4729C15.9323 13.5633 14.1717 15.258 12 15.258C9.82827 15.258 8.06774 13.5633 8.06774 11.4729V10.1523Z" fill="#0082DE"/>
<path d="M10.9372 4.30453C9.07805 4.6204 7.66575 6.18309 7.66575 8.06329H16.3347C16.3347 6.18309 14.9224 4.6204 13.0632 4.30453V5.75823H10.9372V4.30453Z" fill="#0082DE"/>
<path d="M11.3102 3.5H12.6891V5.19144H11.3102V3.5Z" fill="#0082DE"/>
<path d="M6.95635 9.10608C6.95635 8.84323 7.17771 8.63014 7.45079 8.63014H16.5488C16.8218 8.63014 17.0432 8.84323 17.0432 9.10608C17.0432 9.36893 16.8218 9.58202 16.5488 9.58202H7.45079C7.17771 9.58202 6.95635 9.36893 6.95635 9.10608Z" fill="#0082DE"/>
<path d="M9.71965 15.6537V14.9253C10.3628 15.3667 11.1499 15.6264 12 15.6264C12.8265 15.6264 13.5934 15.3809 14.2264 14.9617V15.6797L13.2826 16.4628C13.038 16.6678 12.7967 16.8692 12.5984 17.0347C12.3702 17.2252 12.1983 17.3687 12.1432 17.416L12.004 17.53L11.994 17.5219L11.9783 17.5089L11.684 17.266C11.4909 17.1065 11.2261 16.8876 10.9369 16.6474C10.6466 16.4063 10.3737 16.1808 10.1685 16.0115L9.84283 15.7428L9.82041 15.7242L9.81368 15.7186L9.80771 15.7136C9.78549 15.6951 9.75622 15.6736 9.71965 15.6537Z" fill="#0082DE"/>
<path d="M7.90483 17.1094H6.21731C4.71658 17.1094 3.5 18.2804 3.5 19.725V20.5H20.5V19.725C20.5 18.2804 19.2834 17.1094 17.7827 17.1094H16.0952L14.5399 18.6187C14.1601 18.9872 13.8111 19.3187 13.5535 19.5566C13.4252 19.6751 13.3167 19.773 13.2373 19.8414C13.1987 19.8746 13.1608 19.9062 13.1284 19.9307C13.1144 19.9413 13.0884 19.9605 13.0578 19.9782C13.0457 19.9852 13.0088 20.0063 12.9584 20.0221C12.9342 20.0298 12.8804 20.0449 12.8104 20.0441C12.7379 20.0434 12.6048 20.0238 12.4924 19.9148C12.4528 19.8763 12.4297 19.8392 12.4232 19.8288C12.4132 19.8127 12.406 19.7988 12.4016 19.7902C12.3928 19.7728 12.3859 19.7566 12.3812 19.7454C12.3715 19.7221 12.3616 19.6955 12.3523 19.6694C12.3332 19.6158 12.3096 19.5448 12.2835 19.463C12.2311 19.2988 12.1649 19.0794 12.0977 18.843L12 18.5101C11.9692 18.6165 11.9358 18.7305 11.902 18.8443C11.8374 19.0615 11.7709 19.2806 11.718 19.4484C11.6917 19.5318 11.668 19.6052 11.6492 19.66C11.64 19.6868 11.6306 19.7133 11.6218 19.7359C11.6176 19.7466 11.6113 19.7621 11.6037 19.7786C11.6 19.7865 11.5933 19.8004 11.584 19.8164L11.5835 19.8173C11.5783 19.8265 11.553 19.8707 11.5076 19.9148C11.3952 20.0238 11.2621 20.0434 11.1896 20.0441C11.1196 20.0449 11.0658 20.0298 11.0416 20.0221C10.9912 20.0063 10.9543 19.9852 10.9422 19.9782C10.9116 19.9605 10.8856 19.9413 10.8716 19.9307C10.8392 19.9062 10.8013 19.8746 10.7627 19.8414C10.6833 19.773 10.5748 19.6751 10.4465 19.5566C10.1889 19.3187 9.8399 18.9872 9.46013 18.6187L7.90483 17.1094Z" fill="#0082DE"/>
<path d="M10.689 16.9695C11.2684 17.4508 11.7496 17.8463 11.7545 17.8511C11.7742 17.8606 11.2684 19.5665 11.234 19.5999C11.2144 19.6189 10.5859 19.0376 9.82966 18.3037L8.45476 16.9695L8.97035 16.4692C9.41228 16.0403 9.49084 15.9784 9.55959 16.0355C9.59887 16.0689 10.1095 16.4882 10.689 16.9695Z" fill="#0082DE"/>
<path d="M12.862 19.5999C12.8817 19.6189 13.5102 19.0376 14.2664 18.3037L15.6413 16.9695L14.6101 15.9688L13.628 16.7837C13.0879 17.2364 12.5772 17.6604 12.4888 17.7367L12.3317 17.8653L12.5821 18.7183C12.7147 19.1853 12.8424 19.5808 12.862 19.5999Z" fill="#0082DE"/>
</svg>
