<svg width="20" height="20" viewBox="0 0 20 20" fill="none" xmlns="http://www.w3.org/2000/svg">
<g opacity="0.7">
<path d="M6.72295 8.46021H13.2767V9.56067C13.2767 11.3027 11.8096 12.7149 9.99984 12.7149C8.19006 12.7149 6.72295 11.3027 6.72295 9.56067V8.46021Z" fill="#BEBEBE"/>
<path d="M9.11419 3.58707C7.56488 3.85029 6.38796 5.15253 6.38796 6.71937H13.6121C13.6121 5.15253 12.4352 3.85029 10.8859 3.58707V4.79849H9.11419V3.58707Z" fill="#BEBEBE"/>
<path d="M9.42503 2.91663H10.5741V4.32616H9.42503V2.91663Z" fill="#BEBEBE"/>
<path d="M5.79679 7.58836C5.79679 7.36931 5.98127 7.19174 6.20883 7.19174H13.7905C14.018 7.19174 14.2025 7.36931 14.2025 7.58836C14.2025 7.8074 14.018 7.98497 13.7905 7.98497H6.20883C5.98127 7.98497 5.79679 7.8074 5.79679 7.58836Z" fill="#BEBEBE"/>
<path d="M8.09955 13.0447V12.4377C8.63552 12.8055 9.29144 13.0219 9.99986 13.0219C10.6886 13.0219 11.3277 12.8174 11.8552 12.468V13.0664L11.0687 13.719C10.8648 13.8898 10.6638 14.0576 10.4985 14.1955C10.3084 14.3543 10.1651 14.4738 10.1191 14.5133L10.0031 14.6083L9.99486 14.6015L9.98174 14.5907L9.73654 14.3883C9.57557 14.2554 9.35491 14.073 9.11388 13.8728C8.87201 13.6719 8.64456 13.484 8.47358 13.3429L8.20219 13.119L8.18351 13.1035L8.1779 13.0988L8.17293 13.0946C8.15441 13.0792 8.13002 13.0613 8.09955 13.0447Z" fill="#BEBEBE"/>
<path d="M6.58719 14.2578H5.18093C3.93032 14.2578 2.9165 15.2336 2.9165 16.4374V17.0833H17.0832V16.4374C17.0832 15.2336 16.0694 14.2578 14.8187 14.2578H13.4125L12.1164 15.5155C11.7999 15.8226 11.5091 16.0989 11.2944 16.2971C11.1875 16.3958 11.0971 16.4775 11.0309 16.5345C10.9988 16.5621 10.9672 16.5885 10.9402 16.6089C10.9285 16.6177 10.9069 16.6337 10.8813 16.6484C10.8712 16.6543 10.8405 16.6718 10.7985 16.6851C10.7783 16.6914 10.7335 16.704 10.6751 16.7034C10.6148 16.7028 10.5038 16.6865 10.4102 16.5956C10.3772 16.5635 10.3579 16.5327 10.3525 16.5239C10.3442 16.5106 10.3381 16.499 10.3345 16.4918C10.3272 16.4773 10.3214 16.4638 10.3175 16.4545C10.3095 16.435 10.3012 16.4129 10.2934 16.3911C10.2775 16.3465 10.2578 16.2873 10.2361 16.2191C10.1924 16.0823 10.1372 15.8995 10.0813 15.7024L9.99985 15.4251C9.97419 15.5137 9.94632 15.6087 9.91814 15.7035C9.86437 15.8845 9.80891 16.0671 9.76483 16.2069C9.74291 16.2765 9.72313 16.3376 9.70748 16.3833C9.69983 16.4056 9.69197 16.4277 9.68463 16.4466C9.68117 16.4555 9.67596 16.4684 9.66956 16.4821C9.66647 16.4887 9.66092 16.5003 9.6532 16.5137L9.65278 16.5144C9.64842 16.522 9.62734 16.5589 9.58947 16.5956C9.49584 16.6865 9.38489 16.7028 9.32453 16.7034C9.26616 16.704 9.22136 16.6914 9.20113 16.6851C9.15914 16.6718 9.12846 16.6543 9.11837 16.6484C9.0928 16.6337 9.07116 16.6177 9.05951 16.6089C9.0325 16.5885 9.00089 16.5621 8.96877 16.5345C8.90257 16.4775 8.81213 16.3958 8.70526 16.2971C8.49057 16.0989 8.19976 15.8226 7.88328 15.5155L6.58719 14.2578Z" fill="#BEBEBE"/>
<path d="M8.90731 14.1412C9.39016 14.5423 9.79117 14.8719 9.79527 14.8758C9.81163 14.8838 9.39016 16.3054 9.36152 16.3332C9.34515 16.3491 8.82138 15.8646 8.19122 15.2531L7.04547 14.1412L7.47512 13.7243C7.8434 13.3669 7.90887 13.3153 7.96616 13.3629C7.9989 13.3907 8.42446 13.7401 8.90731 14.1412Z" fill="#BEBEBE"/>
<path d="M10.7182 16.3332C10.7346 16.3491 11.2583 15.8646 11.8885 15.2531L13.0342 14.1412L12.1749 13.3073L11.3565 13.9863C10.9064 14.3636 10.4809 14.717 10.4072 14.7805L10.2763 14.8877L10.4849 15.5985C10.5954 15.9877 10.7018 16.3173 10.7182 16.3332Z" fill="#BEBEBE"/>
</g>
</svg>
