<svg width="18" height="18" viewBox="0 0 18 18" fill="none" xmlns="http://www.w3.org/2000/svg">
<path d="M15.2992 15.2106V12.9606C15.2992 12.3306 15.2092 11.7006 14.8492 11.0706C14.4892 10.4406 14.0392 9.90063 13.4092 9.54062C12.7792 9.09062 11.4292 9.00063 10.7992 9.00063L9.35922 10.5306L9.89922 11.7006V14.4006L8.99922 15.3906L8.09922 14.4006V11.7006L8.72922 10.5306L7.19922 9.00063C6.47922 9.00063 5.12922 9.09062 4.49922 9.54062C3.86922 9.90063 3.50922 10.4406 3.14922 11.0706C2.78922 11.7006 2.69922 12.2406 2.69922 12.9606V15.2106C2.69922 15.2106 5.03922 16.2006 8.99922 16.2006C12.9592 16.2006 15.2992 15.2106 15.2992 15.2106ZM8.99922 1.89062C7.28922 1.89062 6.29922 3.51063 6.56922 5.31063C6.83922 7.11063 7.73922 8.37063 8.99922 8.37063C10.2592 8.37063 11.1592 7.11063 11.4292 5.31063C11.6992 3.42063 10.7092 1.89062 8.99922 1.89062Z" fill="#7A91A9"/>
</svg>
