<svg width="20" height="20" viewBox="0 0 20 20" fill="none" xmlns="http://www.w3.org/2000/svg">
<g id="&#208;&#154;&#208;&#176;&#208;&#187;&#208;&#181;&#208;&#189;&#208;&#180;&#208;&#176;&#209;&#128;&#209;&#140;">
<path id="calendar" d="M3.33398 2.50065L4.16732 2.50065L4.16732 0.833986L5.83398 0.833985L5.83398 2.50065L14.1673 2.50065L14.1673 0.833985L15.834 0.833985L15.834 2.50065L16.6673 2.50065C17.584 2.50065 18.334 3.25065 18.334 4.16732L18.334 17.5006C18.334 18.4173 17.584 19.1673 16.6673 19.1673L3.33399 19.1673C2.41732 19.1673 1.66732 18.4173 1.66732 17.5006L1.66732 4.16732C1.66732 3.25065 2.41732 2.50065 3.33398 2.50065ZM3.33399 17.5006L16.6673 17.5006L16.6673 8.33398L3.33399 8.33398L3.33399 17.5006ZM3.33398 6.66732L16.6673 6.66732L16.6673 4.16732L3.33398 4.16732L3.33398 6.66732Z" fill="black"/>
</g>
</svg>
