<svg width="24" height="24" viewBox="0 0 24 24" fill="none" xmlns="http://www.w3.org/2000/svg">
<g opacity="0.5">
<path d="M18 1.5V0.75C18 0.3 17.7 0 17.25 0C16.8 0 16.5 0.3 16.5 0.75V1.5H7.5V0.75C7.5 0.3 7.2 0 6.75 0C6.3 0 6 0.3 6 0.75V1.5C3.525 1.5 1.5 3.525 1.5 6V18C1.5 20.475 3.525 22.5 6 22.5H18C20.475 22.5 22.5 20.475 22.5 18V6C22.5 3.525 20.475 1.5 18 1.5ZM21 18C21 19.65 19.65 21 18 21H6C4.35 21 3 19.65 3 18V6C3 4.35 4.35 3 6 3V3.75C6 4.2 6.3 4.5 6.75 4.5C7.2 4.5 7.5 4.2 7.5 3.75V3H16.5V3.75C16.5 4.2 16.8 4.5 17.25 4.5C17.7 4.5 18 4.2 18 3.75V3C19.65 3 21 4.35 21 6V18Z" fill="#7A91A9"/>
</g>
</svg>
