<svg width="24" height="24" viewBox="0 0 24 24" fill="none" xmlns="http://www.w3.org/2000/svg">
<g clip-path="url(#clip0_5111_17304)">
<path fill-rule="evenodd" clip-rule="evenodd" d="M5.2036 1.55111C6.03589 1.00397 7.09182 1.31947 7.56905 2.11485L9.70201 5.66978C10.1827 6.47101 9.94923 7.50859 9.17157 8.0266L7.67517 9.02339C7.55732 9.10189 7.53898 9.24525 7.60631 9.34175C8.3172 10.3606 9.54981 12.047 10.5985 13.0956C11.6472 14.1444 13.3338 15.3771 14.3526 16.088C14.4491 16.1553 14.5924 16.137 14.671 16.0192L15.6686 14.5228C16.1867 13.7456 17.224 13.5123 18.025 13.9929L21.58 16.1259C22.3756 16.6032 22.691 17.6595 22.1435 18.4918C21.7713 19.0576 21.2115 19.8326 20.5327 20.5271C19.867 21.2083 19.017 21.8849 18.0546 22.1428C16.7028 22.505 15.1024 22.0442 13.9504 21.5855C12.7549 21.1094 11.8341 20.5484 11.7567 20.5009L11.7523 20.4982L11.7411 20.4911L11.7316 20.4849L11.73 20.4839C11.6237 20.4137 8.60592 18.4194 6.94022 16.7536C5.27455 15.0879 3.28077 12.071 3.21073 11.9649L3.20916 11.9625L3.20298 11.953L3.19595 11.9418L3.19323 11.9374C3.14574 11.8602 2.58467 10.9394 2.10857 9.74376C1.64984 8.59176 1.18888 6.99131 1.55134 5.63937C1.80939 4.67689 2.48629 3.82697 3.16767 3.16136C3.86241 2.48269 4.63768 1.92314 5.2036 1.55111ZM6.1511 2.7836C6.10812 2.77271 6.06732 2.77841 6.02757 2.80453C5.50431 3.14852 4.8157 3.64838 4.21584 4.23436C3.60261 4.8334 3.15418 5.45337 3.00017 6.02781C2.77441 6.86987 3.0543 8.06418 3.50214 9.18882C3.91875 10.235 4.41098 11.0533 4.46697 11.1451C4.5995 11.3454 6.48183 14.1739 8.00089 15.693C9.51995 17.2121 12.3484 19.0944 12.5489 19.2271C12.6408 19.2831 13.4591 19.7753 14.5053 20.1919C15.6299 20.6397 16.8243 20.9196 17.6664 20.6939C18.2408 20.54 18.8609 20.0917 19.46 19.4787C20.0461 18.879 20.5462 18.1906 20.8903 17.6674C20.9165 17.6277 20.9222 17.5869 20.9113 17.5439C20.8997 17.498 20.8675 17.4477 20.8083 17.4122L17.2533 15.2792C17.1388 15.2105 16.9907 15.2438 16.9166 15.3549L15.919 16.8513C15.3874 17.6487 14.2999 17.8803 13.4943 17.3181C12.4767 16.6082 10.6904 15.3089 9.5378 14.1563C8.38535 13.0039 7.0862 11.2177 6.37616 10.2001C5.8139 9.39425 6.04572 8.30648 6.84359 7.775L8.33999 6.77821C8.45108 6.70421 8.48444 6.55599 8.41577 6.44152L6.28281 2.88659C6.24728 2.82738 6.19698 2.79523 6.1511 2.7836Z" fill="#0082DE"/>
</g>
<defs>
<clipPath id="clip0_5111_17304">
<rect width="24" height="24" fill="white"/>
</clipPath>
</defs>
</svg>
