<svg width="20" height="20" viewBox="0 0 20 20" fill="none" xmlns="http://www.w3.org/2000/svg">
<path d="M15.7667 4.17498C15.6 3.68331 15.1333 3.33331 14.5833 3.33331H5.41667C4.86667 3.33331 4.40833 3.68331 4.23333 4.17498L2.5 9.16665V15.8333C2.5 16.2916 2.875 16.6666 3.33333 16.6666H4.16667C4.625 16.6666 5 16.2916 5 15.8333V15H15V15.8333C15 16.2916 15.375 16.6666 15.8333 16.6666H16.6667C17.125 16.6666 17.5 16.2916 17.5 15.8333V9.16665L15.7667 4.17498ZM5.70833 4.99998H14.2833L15.15 7.49998H4.84167L5.70833 4.99998ZM15.8333 13.3333H4.16667V9.16665H15.8333V13.3333Z" fill="#71D472"/>
<path d="M6.25 12.5C6.94036 12.5 7.5 11.9403 7.5 11.25C7.5 10.5596 6.94036 9.99998 6.25 9.99998C5.55964 9.99998 5 10.5596 5 11.25C5 11.9403 5.55964 12.5 6.25 12.5Z" fill="#71D472"/>
<path d="M13.75 12.5C14.4404 12.5 15 11.9403 15 11.25C15 10.5596 14.4404 9.99998 13.75 9.99998C13.0596 9.99998 12.5 10.5596 12.5 11.25C12.5 11.9403 13.0596 12.5 13.75 12.5Z" fill="#71D472"/>
</svg>
