<svg width="24" height="24" viewBox="0 0 24 24" fill="none" xmlns="http://www.w3.org/2000/svg">
<path d="M1.32227 21.2638L2.73648 22.678L22.6783 2.73624L21.264 1.32202L1.32227 21.2638Z" fill="#EB4D3D"/>
<path d="M8.82873 18H18V19C18 19.55 18.45 20 19 20H20C20.55 20 21 19.55 21 19V11L19.6671 7.1616L18.0896 8.73915L18.18 9H17.8287L15.8287 11H19V16H10.8287L8.82873 18Z" fill="#EB4D3D"/>
<path d="M8.64313 12.5287L6.52874 14.6431C6.20523 14.368 6 13.958 6 13.5C6 12.6716 6.67157 12 7.5 12C7.95796 12 8.36799 12.2052 8.64313 12.5287Z" fill="#EB4D3D"/>
<path d="M10.1719 11H5V16H5.17188L3 18.1719V11L5.08 5.01C5.29 4.42 5.84 4 6.5 4H17.1719L15.1719 6H6.85L5.81 9H12.1719L10.1719 11Z" fill="#EB4D3D"/>
<path d="M18 13.5C18 14.3284 17.3284 15 16.5 15C15.6716 15 15 14.3284 15 13.5C15 12.6716 15.6716 12 16.5 12C17.3284 12 18 12.6716 18 13.5Z" fill="#EB4D3D"/>
</svg>
