<svg width="11" height="8" viewBox="0 0 11 8" fill="none" xmlns="http://www.w3.org/2000/svg">
<path d="M9.73549 0.207011C9.80374 0.141469 9.88519 0.0894006 9.97508 0.0538547C10.065 0.0183089 10.1615 0 10.259 0C10.3565 0 10.453 0.0183089 10.5429 0.0538547C10.6328 0.0894006 10.7142 0.141469 10.7825 0.207011C11.0685 0.47903 11.0725 0.918591 10.7925 1.19532L4.87949 7.7746C4.81236 7.84399 4.73089 7.89976 4.64007 7.93849C4.54925 7.97723 4.45099 7.99812 4.3513 7.99988C4.25161 8.00164 4.15258 7.98424 4.06028 7.94874C3.96798 7.91324 3.88435 7.86039 3.81449 7.79343L0.216492 4.36166C0.077729 4.22846 0 4.04935 0 3.8628C0 3.67625 0.077729 3.49714 0.216492 3.36394C0.284738 3.2984 0.36619 3.24633 0.45608 3.21078C0.54597 3.17524 0.642491 3.15693 0.739992 3.15693C0.837493 3.15693 0.934014 3.17524 1.0239 3.21078C1.11379 3.24633 1.19525 3.2984 1.26349 3.36394L4.31549 6.2752L9.71549 0.227719C9.72171 0.220444 9.72839 0.213529 9.73549 0.207011Z" fill="white"/>
</svg>
