<svg width="48" height="48" viewBox="0 0 48 48" fill="none" xmlns="http://www.w3.org/2000/svg">
<rect x="0.5" y="0.5" width="47" height="47" rx="7.5" fill="white"/>
<path fill-rule="evenodd" clip-rule="evenodd" d="M34.9999 11.1667H12.9999C11.9874 11.1667 11.1666 11.9875 11.1666 13V35C11.1666 36.0125 11.9874 36.8333 12.9999 36.8333H34.9999C36.0124 36.8333 36.8333 36.0125 36.8333 35V13C36.8333 11.9875 36.0124 11.1667 34.9999 11.1667ZM12.9999 9.33334C10.9749 9.33334 9.33325 10.975 9.33325 13V35C9.33325 37.025 10.9749 38.6667 12.9999 38.6667H34.9999C37.025 38.6667 38.6666 37.025 38.6666 35V13C38.6666 10.975 37.025 9.33334 34.9999 9.33334H12.9999Z" fill="#0082DE"/>
<path fill-rule="evenodd" clip-rule="evenodd" d="M30.841 18.8473C31.4464 19.3518 31.5009 20.2209 30.9628 20.7885L23.1406 29.0385C22.8622 29.3321 22.4633 29.5 22.0444 29.5C21.6254 29.5 21.2265 29.3321 20.9482 29.0385L17.0371 24.9135C16.4989 24.3459 16.5535 23.4768 17.1589 22.9723C17.7643 22.4678 18.6913 22.5189 19.2295 23.0865L22.0444 26.0554L28.7704 18.9615C29.3085 18.3939 30.2356 18.3428 30.841 18.8473Z" fill="#0082DE"/>
<rect x="0.5" y="0.5" width="47" height="47" rx="7.5" stroke="#0082DE"/>
</svg>
