<svg width="430" height="20" viewBox="0 0 430 20" fill="none" xmlns="http://www.w3.org/2000/svg">
<path d="M430 9.471C422.324 9.471 422.039 20 414.363 20C406.688 20 406.688 9.471 399.012 9.471C391.337 9.471 391.337 20 383.661 20C375.986 20 375.986 9.471 368.31 9.471C360.635 9.471 360.635 20 352.959 20C345.283 20 345.283 9.471 337.608 9.471C329.932 9.471 329.932 20 322.257 20C314.581 20 314.581 9.471 306.919 9.471C299.256 9.471 299.243 20 291.568 20C283.892 20 283.892 9.471 276.216 9.471C268.541 9.471 268.541 20 260.865 20C253.19 20 253.19 9.471 245.514 9.471C237.839 9.471 237.839 20 230.163 20C222.488 20 222.488 9.471 214.812 9.471C207.136 9.471 207.136 20 199.461 20C191.785 20 191.785 9.471 184.11 9.471C176.434 9.471 176.434 20 168.759 20C161.083 20 161.083 9.471 153.408 9.471C145.732 9.471 145.784 20 138.108 20C130.433 20 130.433 9.471 122.757 9.471C115.082 9.471 115.094 20 107.419 20C99.7434 20 99.7434 9.471 92.0678 9.471C84.3923 9.471 84.3923 20 76.7297 20C69.067 20 69.0541 9.471 61.3786 9.471C53.703 9.471 53.703 20 46.0275 20C38.3519 20 38.3519 9.471 30.6764 9.471C23.0008 9.471 23.0137 20 15.3382 20C7.66263 20 7.66263 9.471 0 9.471L0 0H430V9.471Z" fill="white"/>
</svg>
