<svg width="18" height="22" viewBox="0 0 18 22" fill="none" xmlns="http://www.w3.org/2000/svg">
<path fill-rule="evenodd" clip-rule="evenodd" d="M17.4728 10.963C16.7698 11.679 15.6302 11.679 14.9272 10.963L9 4.92606L3.07279 10.963C2.36985 11.679 1.23015 11.679 0.527208 10.963C-0.175735 10.2471 -0.175735 9.08626 0.527209 8.3703L7.72721 1.03697C8.43015 0.321009 9.56985 0.321009 10.2728 1.03697L17.4728 8.3703C18.1757 9.08627 18.1757 10.2471 17.4728 10.963Z" fill="white"/>
<path fill-rule="evenodd" clip-rule="evenodd" d="M17.4728 20.963C16.7698 21.679 15.6302 21.679 14.9272 20.963L9 14.9261L3.07279 20.963C2.36985 21.679 1.23015 21.679 0.527208 20.963C-0.175735 20.2471 -0.175735 19.0863 0.527209 18.3703L7.72721 11.037C8.43015 10.321 9.56985 10.321 10.2728 11.037L17.4728 18.3703C18.1757 19.0863 18.1757 20.2471 17.4728 20.963Z" fill="white"/>
</svg>
