<svg width="21" height="21" viewBox="0 0 21 21" fill="none" xmlns="http://www.w3.org/2000/svg">
<path fill-rule="evenodd" clip-rule="evenodd" d="M10.4004 1.65039C5.5679 1.65039 1.65039 5.5679 1.65039 10.4004C1.65039 15.2329 5.5679 19.1504 10.4004 19.1504C15.2329 19.1504 19.1504 15.2329 19.1504 10.4004C19.1504 5.5679 15.2329 1.65039 10.4004 1.65039ZM0.400391 10.4004C0.400391 4.87754 4.87754 0.400391 10.4004 0.400391C15.9232 0.400391 20.4004 4.87754 20.4004 10.4004C20.4004 15.9232 15.9232 20.4004 10.4004 20.4004C4.87754 20.4004 0.400391 15.9232 0.400391 10.4004Z" fill="#EB4D3D"/>
<path fill-rule="evenodd" clip-rule="evenodd" d="M3.44803 3.44803C3.69211 3.20395 4.08784 3.20395 4.33192 3.44803L17.3528 16.4689C17.5968 16.7129 17.5968 17.1087 17.3528 17.3528C17.1087 17.5968 16.7129 17.5968 16.4689 17.3528L3.44803 4.33192C3.20395 4.08784 3.20395 3.69211 3.44803 3.44803Z" fill="#EB4D3D"/>
</svg>
