<svg width="21" height="21" viewBox="0 0 21 21" fill="none" xmlns="http://www.w3.org/2000/svg">
<path fill-rule="evenodd" clip-rule="evenodd" d="M10.4004 1.65039C5.5679 1.65039 1.65039 5.5679 1.65039 10.4004C1.65039 15.2329 5.5679 19.1504 10.4004 19.1504C15.2329 19.1504 19.1504 15.2329 19.1504 10.4004C19.1504 5.5679 15.2329 1.65039 10.4004 1.65039ZM0.400391 10.4004C0.400391 4.87754 4.87754 0.400391 10.4004 0.400391C15.9232 0.400391 20.4004 4.87754 20.4004 10.4004C20.4004 15.9232 15.9232 20.4004 10.4004 20.4004C4.87754 20.4004 0.400391 15.9232 0.400391 10.4004Z" fill="#F4D150"/>
<path fill-rule="evenodd" clip-rule="evenodd" d="M9.72351 13.9941C9.72351 13.6489 10.0033 13.3691 10.3485 13.3691H10.4527C10.7979 13.3691 11.0777 13.6489 11.0777 13.9941V14.0983C11.0777 14.4434 10.7979 14.7233 10.4527 14.7233H10.3485C10.0033 14.7233 9.72351 14.4434 9.72351 14.0983V13.9941Z" fill="#F4D150"/>
<path fill-rule="evenodd" clip-rule="evenodd" d="M10.4004 6.07742C10.7456 6.07742 11.0254 6.35724 11.0254 6.70242V10.8691C11.0254 11.2143 10.7456 11.4941 10.4004 11.4941C10.0552 11.4941 9.77539 11.2143 9.77539 10.8691V6.70242C9.77539 6.35724 10.0552 6.07742 10.4004 6.07742Z" fill="#F4D150"/>
</svg>
