<svg width="18" height="18" viewBox="0 0 18 18" fill="none" xmlns="http://www.w3.org/2000/svg">
<g id="&#208;&#154;&#209;&#128;&#208;&#181;&#209;&#129;&#209;&#130;&#208;&#184;&#208;&#186;">
<path id="X" d="M7.58472 9L4.77855 6.20141C4.59779 6.01477 4.49778 5.76479 4.50004 5.50532C4.5023 5.24585 4.60666 4.99765 4.79063 4.81417C4.97461 4.63069 5.22349 4.52661 5.48366 4.52436C5.74383 4.5221 5.99449 4.62185 6.18163 4.80211L8.9878 7.60071L11.794 4.80211C11.8855 4.7076 11.995 4.63221 12.1161 4.58034C12.2371 4.52848 12.3673 4.50118 12.4991 4.50004C12.6308 4.4989 12.7615 4.52394 12.8835 4.57369C13.0054 4.62345 13.1162 4.69693 13.2094 4.78985C13.3025 4.88276 13.3762 4.99326 13.4261 5.11487C13.476 5.23649 13.5011 5.3668 13.5 5.4982C13.4988 5.6296 13.4714 5.75945 13.4194 5.88019C13.3674 6.00093 13.2918 6.11012 13.1971 6.20141L10.3909 9L13.1971 11.7986C13.2918 11.8899 13.3674 11.9991 13.4194 12.1198C13.4714 12.2405 13.4988 12.3704 13.5 12.5018C13.5011 12.6332 13.476 12.7635 13.4261 12.8851C13.3762 13.0067 13.3025 13.1172 13.2094 13.2102C13.1162 13.3031 13.0054 13.3766 12.8835 13.4263C12.7615 13.4761 12.6308 13.5011 12.4991 13.5C12.3673 13.4988 12.2371 13.4715 12.1161 13.4197C11.995 13.3678 11.8855 13.2924 11.794 13.1979L8.9878 10.3993L6.18163 13.1979C5.99449 13.3782 5.74383 13.4779 5.48366 13.4756C5.22349 13.4734 4.97461 13.3693 4.79063 13.1858C4.60666 13.0024 4.5023 12.7541 4.50004 12.4947C4.49778 12.2352 4.59779 11.9852 4.77855 11.7986L7.58472 9Z" fill="#EB4D3D"/>
</g>
</svg>
