<svg width="48" height="48" viewBox="0 0 48 48" fill="none" xmlns="http://www.w3.org/2000/svg">
<g clip-path="url(#clip0_1003_2)">
<path d="M8 0.5H40C44.1421 0.5 47.5 3.85786 47.5 8V40C47.5 44.1421 44.1421 47.5 40 47.5H8C3.85786 47.5 0.5 44.1421 0.5 40V8C0.5 3.85786 3.85786 0.5 8 0.5Z" stroke="#7A91A9"/>
<path d="M34.3156 12.5041C33.7074 11.8897 33.0973 11.2772 32.4852 10.6666H12.8419C12.5748 10.7257 12.3128 10.8059 12.0583 10.9065C11.6923 11.0723 11.3748 11.3289 11.1358 11.6521C10.8968 11.9752 10.7443 12.3541 10.6928 12.7528C10.6928 12.7821 10.6928 12.8142 10.6665 12.8435V35.1652C10.687 35.2647 10.7074 35.3671 10.7308 35.4578C10.8448 35.9374 11.1014 36.3712 11.4668 36.7019C11.8322 37.0325 12.2893 37.2445 12.7776 37.3099L12.8536 37.3333H35.149C35.3864 37.2839 35.6199 37.2174 35.8478 37.1343C36.2379 36.9752 36.5788 36.7152 36.8356 36.3811C37.0925 36.047 37.2561 35.6506 37.3098 35.2325C37.3145 35.2063 37.3223 35.1807 37.3332 35.1564V15.5119L34.3156 12.5041ZM35.2601 35.803C35.225 35.803 35.1139 35.844 35.032 35.8645H33.6957V25.3283C33.7127 25.0222 33.6216 24.7198 33.4384 24.474C33.3298 24.3309 33.1903 24.2143 33.0303 24.1327C32.8703 24.0511 32.694 24.0068 32.5145 24.0029H15.5934C15.3185 23.9865 15.0463 24.0646 14.8219 24.2243C14.5975 24.3839 14.4343 24.6155 14.3595 24.8807C14.3217 25.0298 14.304 25.1833 14.3069 25.3371V35.8791H12.9677C12.7737 35.8512 12.5926 35.7658 12.4477 35.6338C12.3028 35.5019 12.2008 35.3295 12.1548 35.1389L12.1285 35.016V12.9869C12.1411 12.8217 12.1991 12.6632 12.2961 12.5289C12.3931 12.3947 12.5254 12.2899 12.6782 12.2261C12.7221 12.2086 12.8566 12.1735 12.9531 12.1471L13.0349 12.1296H16.7279V19.0844C16.7081 19.3564 16.7812 19.627 16.9353 19.8519C17.0894 20.0767 17.3152 20.2426 17.5759 20.3221C17.7108 20.3611 17.8507 20.3798 17.9911 20.3777H30.0028C30.1712 20.3862 30.3396 20.3591 30.497 20.2982C30.6543 20.2372 30.797 20.1438 30.9159 20.024C31.0348 19.9043 31.1271 19.7608 31.1869 19.6029C31.2467 19.4451 31.2727 19.2764 31.263 19.1079V12.1296H31.88C32.3478 12.5977 32.8127 13.0659 33.2805 13.5399L35.8653 16.1205V35.0101C35.8508 35.1864 35.786 35.3548 35.6788 35.4953C35.5715 35.6358 35.4262 35.7426 35.2601 35.803ZM32.4735 35.8791H15.5145V25.2259H32.4735V35.8791ZM17.9443 12.1296H30.0525V19.1517H17.9443V12.1296Z" fill="#7A91A9"/>
<path d="M28.8332 13.0981H26.4267V17.9316H28.8332V13.0981Z" fill="#7A91A9"/>
</g>
<defs>
<clipPath id="clip0_1003_2">
<rect width="48" height="48" fill="white"/>
</clipPath>
</defs>
</svg>
