<svg width="24" height="25" viewBox="0 0 24 25" fill="none" xmlns="http://www.w3.org/2000/svg">
<mask id="mask0_13851_49738" style="mask-type:alpha" maskUnits="userSpaceOnUse" x="0" y="0" width="24" height="25">
<rect width="24" height="24" transform="matrix(1 0 0 -1 0 24.5)" fill="#D9D9D9"/>
</mask>
<g mask="url(#mask0_13851_49738)">
<path d="M9 6.5C8.45 6.5 7.97917 6.69583 7.5875 7.0875C7.19583 7.47917 7 7.95 7 8.5V20.5C7 21.05 7.19583 21.5208 7.5875 21.9125C7.97917 22.3042 8.45 22.5 9 22.5H18C18.55 22.5 19.0208 22.3042 19.4125 21.9125C19.8042 21.5208 20 21.05 20 20.5V8.5C20 7.95 19.8042 7.47917 19.4125 7.0875C19.0208 6.69583 18.55 6.5 18 6.5H9ZM9 8.5H18V20.5H9V8.5ZM5 2.5C4.45 2.5 3.97917 2.69583 3.5875 3.0875C3.19583 3.47917 3 3.95 3 4.5V18.5H5V4.5H16V2.5H5Z" fill="#7A91A9"/>
</g>
</svg>
