<svg width="48" height="48" viewBox="0 0 48 48" fill="none" xmlns="http://www.w3.org/2000/svg">
<rect width="48" height="48" rx="8" fill="#004781"/>
<path d="M34.3159 12.5041C33.7077 11.8897 33.0975 11.2772 32.4855 10.6667H12.8422C12.575 10.7257 12.313 10.806 12.0586 10.9066C11.6926 11.0724 11.375 11.329 11.136 11.6521C10.897 11.9753 10.7445 12.3542 10.6931 12.7528C10.6931 12.7821 10.6931 12.8143 10.6667 12.8435V35.1652C10.6872 35.2647 10.7077 35.3671 10.7311 35.4578C10.845 35.9375 11.1016 36.3713 11.4671 36.7019C11.8325 37.0326 12.2895 37.2446 12.7779 37.3099L12.8539 37.3333H35.1492C35.3866 37.2839 35.6202 37.2174 35.848 37.1344C36.2381 36.9752 36.579 36.7153 36.8359 36.3811C37.0927 36.047 37.2563 35.6507 37.31 35.2325C37.3147 35.2063 37.3226 35.1808 37.3334 35.1565V15.512L34.3159 12.5041ZM35.2603 35.8031C35.2252 35.8031 35.1141 35.8441 35.0322 35.8645H33.696V25.3284C33.713 25.0222 33.6219 24.7198 33.4387 24.474C33.33 24.331 33.1905 24.2143 33.0305 24.1328C32.8705 24.0512 32.6942 24.0068 32.5147 24.0029H15.5936C15.3188 23.9866 15.0466 24.0647 14.8222 24.2243C14.5977 24.3839 14.4346 24.6155 14.3597 24.8807C14.3219 25.0298 14.3042 25.1833 14.3071 25.3371V35.8792H12.9679C12.774 35.8513 12.5929 35.7658 12.448 35.6339C12.303 35.5019 12.201 35.3295 12.1551 35.1389L12.1287 35.016V12.9869C12.1413 12.8217 12.1994 12.6632 12.2964 12.529C12.3934 12.3947 12.5256 12.2899 12.6784 12.2262C12.7223 12.2086 12.8568 12.1735 12.9533 12.1472L13.0352 12.1296H16.7282V19.0845C16.7083 19.3564 16.7815 19.627 16.9355 19.8519C17.0896 20.0768 17.3155 20.2426 17.5761 20.3221C17.711 20.3611 17.8509 20.3798 17.9913 20.3777H30.003C30.1715 20.3862 30.3399 20.3591 30.4972 20.2982C30.6545 20.2373 30.7973 20.1439 30.9162 20.0241C31.035 19.9043 31.1274 19.7608 31.1872 19.603C31.247 19.4451 31.2729 19.2764 31.2632 19.1079V12.1296H31.8802C32.348 12.5978 32.8129 13.0659 33.2808 13.5399L35.8656 16.1206V35.0102C35.851 35.1864 35.7863 35.3548 35.679 35.4953C35.5717 35.6359 35.4264 35.7427 35.2603 35.8031ZM32.4738 35.8792H15.5147V25.226H32.4738V35.8792ZM17.9445 12.1296H30.0527V19.1518H17.9445V12.1296Z" fill="white"/>
<path d="M28.8334 13.0981H26.427V17.9317H28.8334V13.0981Z" fill="white"/>
</svg>
