<svg width="24" height="24" viewBox="0 0 24 24" fill="none" xmlns="http://www.w3.org/2000/svg">
<g clip-path="url(#clip0_9_43)">
<path fill-rule="evenodd" clip-rule="evenodd" d="M7.5 3C7.36739 3 7.24021 3.05268 7.14645 3.14645C7.05268 3.24021 7 3.36739 7 3.5V4.9635H5V3.5C5 2.83696 5.26339 2.20107 5.73223 1.73223C6.20107 1.26339 6.83696 1 7.5 1H20.5C21.163 1 21.7989 1.26339 22.2678 1.73223C22.7366 2.20107 23 2.83696 23 3.5V16.5C23 17.163 22.7366 17.7989 22.2678 18.2678C21.7989 18.7366 21.163 19 20.5 19H19.0085V17H20.5C20.6326 17 20.7598 16.9473 20.8536 16.8536C20.9473 16.7598 21 16.6326 21 16.5V3.5C21 3.36739 20.9473 3.24022 20.8536 3.14645C20.7598 3.05268 20.6326 3 20.5 3H7.5Z" fill="#7A91A9"/>
<path fill-rule="evenodd" clip-rule="evenodd" d="M3.5 6C3.22386 6 3 6.22386 3 6.5V20.5C3 20.7761 3.22386 21 3.5 21H17.5C17.7761 21 18 20.7761 18 20.5V6.5C18 6.22386 17.7761 6 17.5 6H3.5ZM1 6.5C1 5.11929 2.11929 4 3.5 4H17.5C18.8807 4 20 5.11929 20 6.5V20.5C20 21.8807 18.8807 23 17.5 23H3.5C2.11929 23 1 21.8807 1 20.5V6.5Z" fill="#7A91A9"/>
<path fill-rule="evenodd" clip-rule="evenodd" d="M12.5788 9.50134L9.9412 12.2476C9.55864 12.6459 8.9256 12.6587 8.52728 12.2761C8.12895 11.8936 8.11618 11.2605 8.49874 10.8622L11.1447 8.10721C11.1494 8.10236 11.1541 8.09756 11.1589 8.0928C12.2924 6.95922 14.119 7.00999 15.2373 8.12904C16.3513 9.24329 16.4065 11.0612 15.2843 12.1957L14.3381 13.1979C13.9589 13.5995 13.326 13.6177 12.9245 13.2385C12.5229 12.8594 12.5047 12.2265 12.8838 11.8249L13.8388 10.8134C13.8454 10.8064 13.8521 10.7996 13.8589 10.7928C14.176 10.4757 14.1959 9.91609 13.8229 9.54301C13.4524 9.17229 12.8972 9.18937 12.5788 9.50134ZM7.44008 13.6663C7.8306 14.0568 7.8306 14.69 7.44008 15.0805C7.30722 15.2134 7.10713 15.409 6.94356 15.5681C6.86108 15.6484 6.78667 15.7206 6.73288 15.7728L6.65278 15.8504C6.31567 16.193 6.31008 16.8488 6.65758 17.1963C7.03015 17.5689 7.58974 17.5494 7.90736 17.2318C7.91874 17.2204 7.9304 17.2093 7.94231 17.1985L10.5243 14.8545C10.9332 14.4833 11.5657 14.5138 11.9369 14.9227C12.3081 15.3317 12.2775 15.9641 11.8686 16.3353L9.30262 18.6648C8.16695 19.7798 6.35459 19.7217 5.24336 18.6105C4.10042 17.4676 4.13321 15.5407 5.24361 14.4311L5.25539 14.4195L5.34088 14.3367C5.39396 14.2852 5.46736 14.214 5.54863 14.1349C5.71256 13.9754 5.90372 13.7884 6.02586 13.6663C6.41639 13.2758 7.04955 13.2758 7.44008 13.6663Z" fill="#7A91A9"/>
<path fill-rule="evenodd" clip-rule="evenodd" d="M10.0022 10.7919C10.3933 11.1818 10.3942 11.815 10.0042 12.2061C9.91995 12.2906 9.85483 12.3923 9.81329 12.5042C9.77174 12.616 9.75475 12.7356 9.76345 12.8546L9.76372 12.8583H9.76371C9.77934 13.0836 9.87625 13.2955 10.0364 13.4546C10.4282 13.8439 10.4303 14.477 10.041 14.8688C9.65172 15.2606 9.01856 15.2626 8.62678 14.8734C8.12312 14.373 7.81821 13.7068 7.76863 12.9986C7.73934 12.5941 7.79721 12.1882 7.93834 11.808C8.07969 11.4273 8.30125 11.0815 8.58799 10.7939C8.97795 10.4028 9.61112 10.4019 10.0022 10.7919ZM10.4535 12.2234C10.844 11.8329 11.4772 11.8329 11.8677 12.2234C12.9858 13.3415 13.0374 15.1677 11.904 16.3019C11.5136 16.6925 10.8804 16.6927 10.4897 16.3024C10.0991 15.912 10.0989 15.2788 10.4893 14.8881C10.8068 14.5703 10.8264 14.0105 10.4535 13.6376C10.063 13.2471 10.063 12.6139 10.4535 12.2234Z" fill="#7A91A9"/>
</g>
<defs>
<clipPath id="clip0_9_43">
<rect width="24" height="24" fill="white"/>
</clipPath>
</defs>
</svg>
