<svg width="18" height="18" viewBox="0 0 18 18" fill="none" xmlns="http://www.w3.org/2000/svg">
<path d="M17.5342 10.926V15.7408C17.5342 16.2516 17.3321 16.7414 16.9723 17.1026C16.6126 17.4638 16.1247 17.6667 15.616 17.6667H2.18912C1.68041 17.6667 1.19252 17.4638 0.832803 17.1026C0.473084 16.7414 0.270996 16.2516 0.270996 15.7408V2.2593C0.270996 1.74851 0.473084 1.25865 0.832803 0.897465C1.19252 0.536283 1.68041 0.333374 2.18912 0.333374H6.98445V2.2593H2.18912V15.7408H15.616V10.926H17.5342Z" fill="#7A91A9"/>
<path d="M17.5342 4.18523H13.6979V0.333374H11.7798V4.18523H7.94351V6.11115H11.7798V9.963H13.6979V6.11115H17.5342V4.18523Z" fill="#7A91A9"/>
</svg>
