<svg width="18" height="18" viewBox="0 0 18 18" fill="none" xmlns="http://www.w3.org/2000/svg">
<path d="M7.74197 9L5.2476 6.51236C5.08693 6.34646 4.99802 6.12426 5.00003 5.89362C5.00204 5.66298 5.0948 5.44235 5.25834 5.27926C5.42188 5.11617 5.6431 5.02366 5.87436 5.02165C6.10563 5.01965 6.32843 5.10831 6.49478 5.26855L8.98916 7.75618L11.4835 5.26855C11.5649 5.18453 11.6622 5.11752 11.7698 5.07142C11.8775 5.02531 11.9932 5.00105 12.1103 5.00003C12.2274 4.99902 12.3436 5.02128 12.452 5.06551C12.5604 5.10973 12.6588 5.17505 12.7417 5.25764C12.8245 5.34024 12.89 5.43845 12.9343 5.54655C12.9787 5.65466 13.001 5.77049 13 5.88729C12.9989 6.00409 12.9746 6.11952 12.9284 6.22684C12.8822 6.33416 12.815 6.43122 12.7307 6.51236L10.2363 9L12.7307 11.4876C12.815 11.5688 12.8822 11.6658 12.9284 11.7732C12.9746 11.8805 12.9989 11.9959 13 12.1127C13.001 12.2295 12.9787 12.3453 12.9343 12.4534C12.89 12.5616 12.8245 12.6598 12.7417 12.7424C12.6588 12.8249 12.5604 12.8903 12.452 12.9345C12.3436 12.9787 12.2274 13.001 12.1103 13C11.9932 12.999 11.8775 12.9747 11.7698 12.9286C11.6622 12.8825 11.5649 12.8155 11.4835 12.7315L8.98916 10.2438L6.49478 12.7315C6.32843 12.8917 6.10563 12.9804 5.87436 12.9783C5.6431 12.9763 5.42188 12.8838 5.25834 12.7207C5.0948 12.5576 5.00204 12.337 5.00003 12.1064C4.99802 11.8757 5.08693 11.6535 5.2476 11.4876L7.74197 9Z" fill="#DADADA"/>
<rect x="0.5" y="0.5" width="17" height="17" rx="8.5" stroke="#DADADA"/>
</svg>
