<svg width="16" height="16" viewBox="0 0 16 16" fill="none" xmlns="http://www.w3.org/2000/svg">
<g clip-path="url(#clip0_16183_19253)">
<path fill-rule="evenodd" clip-rule="evenodd" d="M8 1C4.13401 1 1 4.13401 1 8C1 11.866 4.13401 15 8 15C11.866 15 15 11.866 15 8C15 4.13401 11.866 1 8 1ZM0 8C0 3.58172 3.58172 0 8 0C12.4183 0 16 3.58172 16 8C16 12.4183 12.4183 16 8 16C3.58172 16 0 12.4183 0 8Z" fill="#7A91A9"/>
<path d="M7.21373 8L5.65475 6.44523C5.55433 6.34154 5.49876 6.20266 5.50002 6.05851C5.50128 5.91436 5.55925 5.77647 5.66146 5.67454C5.76367 5.5726 5.90194 5.51479 6.04648 5.51353C6.19102 5.51228 6.33027 5.56769 6.43424 5.66784L7.99322 7.22261L9.55221 5.66784C9.60306 5.61533 9.66389 5.57345 9.73115 5.54463C9.79841 5.51582 9.87074 5.50066 9.94394 5.50002C10.0171 5.49939 10.0897 5.5133 10.1575 5.54094C10.2252 5.56858 10.2868 5.60941 10.3385 5.66103C10.3903 5.71265 10.4312 5.77403 10.4589 5.8416C10.4867 5.90916 10.5006 5.98156 10.5 6.05456C10.4993 6.12755 10.4841 6.1997 10.4552 6.26677C10.4264 6.33385 10.3844 6.39451 10.3317 6.44523L8.77272 8L10.3317 9.55477C10.3844 9.60549 10.4264 9.66615 10.4552 9.73323C10.4841 9.8003 10.4993 9.87245 10.5 9.94544C10.5006 10.0184 10.4867 10.0908 10.4589 10.1584C10.4312 10.226 10.3903 10.2874 10.3385 10.339C10.2868 10.3906 10.2252 10.4314 10.1575 10.4591C10.0897 10.4867 10.0171 10.5006 9.94394 10.5C9.87074 10.4993 9.79841 10.4842 9.73115 10.4554C9.66389 10.4266 9.60306 10.3847 9.55221 10.3322L7.99322 8.77739L6.43424 10.3322C6.33027 10.4323 6.19102 10.4877 6.04648 10.4865C5.90194 10.4852 5.76367 10.4274 5.66146 10.3255C5.55925 10.2235 5.50128 10.0856 5.50002 9.94149C5.49876 9.79734 5.55433 9.65846 5.65475 9.55477L7.21373 8Z" fill="#7A91A9"/>
</g>
<defs>
<clipPath id="clip0_16183_19253">
<rect width="16" height="16" fill="white"/>
</clipPath>
</defs>
</svg>
