<svg width="12" height="12" viewBox="0 0 12 12" fill="none" xmlns="http://www.w3.org/2000/svg">
<path d="M4.11296 6L0.371395 2.26855C0.130392 2.01969 -0.00296443 1.68639 5.00142e-05 1.34043C0.00306446 0.99447 0.142207 0.663532 0.38751 0.418892C0.632813 0.174252 0.964648 0.0354851 1.31155 0.0324788C1.65844 0.0294725 1.99265 0.162467 2.24218 0.402819L5.98374 4.13427L9.72531 0.402819C9.84735 0.276796 9.99334 0.176276 10.1548 0.107124C10.3162 0.0379718 10.4898 0.00157224 10.6655 4.9816e-05C10.8411 -0.00147261 11.0154 0.0319142 11.1779 0.0982582C11.3405 0.164602 11.4883 0.262576 11.6125 0.386465C11.7367 0.510353 11.835 0.657675 11.9015 0.819832C11.968 0.98199 12.0015 1.15574 11.9999 1.33093C11.9984 1.50613 11.9619 1.67927 11.8926 1.84025C11.8232 2.00123 11.7225 2.14683 11.5961 2.26855L7.85452 6L11.5961 9.73145C11.7225 9.85317 11.8232 9.99877 11.8926 10.1597C11.9619 10.3207 11.9984 10.4939 11.9999 10.6691C12.0015 10.8443 11.968 11.018 11.9015 11.1802C11.835 11.3423 11.7367 11.4896 11.6125 11.6135C11.4883 11.7374 11.3405 11.8354 11.1779 11.9017C11.0154 11.9681 10.8411 12.0015 10.6655 12C10.4898 11.9984 10.3162 11.962 10.1548 11.8929C9.99334 11.8237 9.84735 11.7232 9.72531 11.5972L5.98374 7.86573L2.24218 11.5972C1.99265 11.8375 1.65844 11.9705 1.31155 11.9675C0.964648 11.9645 0.632813 11.8257 0.38751 11.5811C0.142207 11.3365 0.00306446 11.0055 5.00142e-05 10.6596C-0.00296443 10.3136 0.130392 9.98031 0.371395 9.73145L4.11296 6Z" fill="#0082DE"/>
</svg>
