<svg width="24" height="24" viewBox="0 0 24 24" fill="none" xmlns="http://www.w3.org/2000/svg">
<path fill-rule="evenodd" clip-rule="evenodd" d="M12 4C7.58172 4 4 7.58172 4 12C4 16.4183 7.58172 20 12 20C16.4183 20 20 16.4183 20 12C20 7.58172 16.4183 4 12 4ZM2 12C2 6.47715 6.47715 2 12 2C17.5228 2 22 6.47715 22 12C22 17.5228 17.5228 22 12 22C6.47715 22 2 17.5228 2 12Z" fill="#EB4D3D"/>
<path d="M10.5847 12L7.77855 9.20141C7.59779 9.01477 7.49778 8.76479 7.50004 8.50532C7.5023 8.24585 7.60666 7.99765 7.79063 7.81417C7.97461 7.63069 8.22349 7.52661 8.48366 7.52436C8.74383 7.5221 8.99449 7.62185 9.18163 7.80211L11.9878 10.6007L14.794 7.80211C14.8855 7.7076 14.995 7.63221 15.1161 7.58034C15.2371 7.52848 15.3673 7.50118 15.4991 7.50004C15.6308 7.4989 15.7615 7.52394 15.8835 7.57369C16.0054 7.62345 16.1162 7.69693 16.2094 7.78985C16.3025 7.88276 16.3762 7.99326 16.4261 8.11487C16.476 8.23649 16.5011 8.3668 16.5 8.4982C16.4988 8.6296 16.4714 8.75945 16.4194 8.88019C16.3674 9.00093 16.2918 9.11012 16.1971 9.20141L13.3909 12L16.1971 14.7986C16.2918 14.8899 16.3674 14.9991 16.4194 15.1198C16.4714 15.2405 16.4988 15.3704 16.5 15.5018C16.5011 15.6332 16.476 15.7635 16.4261 15.8851C16.3762 16.0067 16.3025 16.1172 16.2094 16.2102C16.1162 16.3031 16.0054 16.3766 15.8835 16.4263C15.7615 16.4761 15.6308 16.5011 15.4991 16.5C15.3673 16.4988 15.2371 16.4715 15.1161 16.4197C14.995 16.3678 14.8855 16.2924 14.794 16.1979L11.9878 13.3993L9.18163 16.1979C8.99449 16.3782 8.74383 16.4779 8.48366 16.4756C8.22349 16.4734 7.97461 16.3693 7.79063 16.1858C7.60666 16.0024 7.5023 15.7541 7.50004 15.4947C7.49778 15.2352 7.59779 14.9852 7.77855 14.7986L10.5847 12Z" fill="#EB4D3D"/>
</svg>
