<svg width="32" height="32" viewBox="0 0 32 32" fill="none" xmlns="http://www.w3.org/2000/svg">
<g clip-path="url(#clip0_18250_57856)">
<path fill-rule="evenodd" clip-rule="evenodd" d="M16 2C8.26801 2 2 8.26801 2 16C2 23.732 8.26801 30 16 30C23.732 30 30 23.732 30 16C30 8.26801 23.732 2 16 2ZM0 16C0 7.16344 7.16344 0 16 0C24.8366 0 32 7.16344 32 16C32 24.8366 24.8366 32 16 32C7.16344 32 0 24.8366 0 16Z" fill="#EB4D3D"/>
<path d="M14.4275 16L11.3095 12.8905C11.1087 12.6831 10.9975 12.4053 11 12.117C11.0026 11.8287 11.1185 11.5529 11.3229 11.3491C11.5273 11.1452 11.8039 11.0296 12.093 11.0271C12.382 11.0246 12.6605 11.1354 12.8685 11.3357L15.9864 14.4452L19.1044 11.3357C19.2061 11.2307 19.3278 11.1469 19.4623 11.0893C19.5968 11.0316 19.7415 11.0013 19.8879 11C20.0343 10.9988 20.1795 11.0266 20.315 11.0819C20.4505 11.1372 20.5736 11.2188 20.6771 11.3221C20.7806 11.4253 20.8625 11.5481 20.9179 11.6832C20.9733 11.8183 21.0012 11.9631 21 12.1091C20.9987 12.2551 20.9683 12.3994 20.9105 12.5335C20.8527 12.6677 20.7687 12.789 20.6634 12.8905L17.5454 16L20.6634 19.1095C20.7687 19.211 20.8527 19.3323 20.9105 19.4665C20.9683 19.6006 20.9987 19.7449 21 19.8909C21.0012 20.0369 20.9733 20.1817 20.9179 20.3168C20.8625 20.4519 20.7806 20.5747 20.6771 20.6779C20.5736 20.7812 20.4505 20.8628 20.315 20.9181C20.1795 20.9734 20.0343 21.0012 19.8879 21C19.7415 20.9987 19.5968 20.9684 19.4623 20.9107C19.3278 20.8531 19.2061 20.7693 19.1044 20.6643L15.9864 17.5548L12.8685 20.6643C12.6605 20.8646 12.382 20.9754 12.093 20.9729C11.8039 20.9704 11.5273 20.8548 11.3229 20.6509C11.1185 20.4471 11.0026 20.1713 11 19.883C10.9975 19.5947 11.1087 19.3169 11.3095 19.1095L14.4275 16Z" fill="#EB4D3D"/>
</g>
<defs>
<clipPath id="clip0_18250_57856">
<rect width="32" height="32" fill="white"/>
</clipPath>
</defs>
</svg>
