<svg width="10" height="10" viewBox="0 0 10 10" fill="none" xmlns="http://www.w3.org/2000/svg">
<path d="M3.58472 5L0.778546 2.20141C0.597794 2.01477 0.497777 1.76479 0.500038 1.50532C0.502298 1.24585 0.606655 0.997649 0.790632 0.814169C0.97461 0.630689 1.22349 0.526614 1.48366 0.524359C1.74383 0.522104 1.99449 0.621851 2.18163 0.802114L4.9878 3.60071L7.79398 0.802114C7.88551 0.707597 7.99501 0.632207 8.11607 0.580343C8.23713 0.528479 8.36734 0.501179 8.49909 0.500037C8.63085 0.498896 8.76151 0.523936 8.88346 0.573694C9.00541 0.623452 9.1162 0.696932 9.20937 0.789848C9.30253 0.882765 9.37621 0.993256 9.42611 1.11487C9.476 1.23649 9.50111 1.3668 9.49996 1.4982C9.49882 1.6296 9.47144 1.75945 9.41944 1.88019C9.36743 2.00093 9.29184 2.11012 9.19707 2.20141L6.39089 5L9.19707 7.79859C9.29184 7.88988 9.36743 7.99908 9.41944 8.11981C9.47144 8.24055 9.49882 8.3704 9.49996 8.5018C9.50111 8.6332 9.476 8.76351 9.42611 8.88513C9.37621 9.00675 9.30253 9.11724 9.20937 9.21015C9.1162 9.30307 9.00541 9.37655 8.88346 9.42631C8.76151 9.47607 8.63085 9.5011 8.49909 9.49996C8.36734 9.49882 8.23713 9.47152 8.11607 9.41966C7.99501 9.36779 7.88551 9.29241 7.79398 9.19789L4.9878 6.3993L2.18163 9.19789C1.99449 9.37815 1.74383 9.4779 1.48366 9.47564C1.22349 9.47339 0.97461 9.36931 0.790632 9.18583C0.606655 9.00235 0.502298 8.75415 0.500038 8.49468C0.497777 8.23521 0.597794 7.98523 0.778546 7.79859L3.58472 5Z" fill="#EB4D3D"/>
</svg>
