<svg width="32" height="32" viewBox="0 0 32 32" fill="none" xmlns="http://www.w3.org/2000/svg">
<g clip-path="url(#clip0_18250_57859)">
<circle cx="16" cy="16" r="16" fill="#EB4D3D"/>
<path d="M16 14.3193L19.2953 11.0151C19.515 10.8023 19.8094 10.6845 20.1149 10.6871C20.4204 10.6898 20.7127 10.8127 20.9287 11.0293C21.1448 11.2459 21.2673 11.539 21.27 11.8453C21.2726 12.1517 21.1552 12.4468 20.9429 12.6672L17.6476 15.9714L20.9429 19.2756C21.0542 19.3834 21.143 19.5123 21.2041 19.6549C21.2651 19.7974 21.2973 19.9507 21.2986 20.1059C21.3 20.261 21.2705 20.4149 21.2119 20.5585C21.1533 20.7021 21.0668 20.8325 20.9574 20.9422C20.848 21.0519 20.7179 21.1387 20.5747 21.1974C20.4315 21.2562 20.278 21.2857 20.1233 21.2844C19.9686 21.283 19.8157 21.2508 19.6735 21.1896C19.5314 21.1283 19.4028 21.0393 19.2953 20.9277L16 17.6235L12.7047 20.9277C12.5972 21.0393 12.4686 21.1283 12.3265 21.1896C12.1843 21.2508 12.0314 21.283 11.8767 21.2844C11.722 21.2857 11.5685 21.2562 11.4253 21.1974C11.2821 21.1387 11.152 21.0519 11.0426 20.9422C10.9332 20.8325 10.8467 20.7021 10.7881 20.5585C10.7295 20.4149 10.7 20.261 10.7014 20.1059C10.7027 19.9507 10.7349 19.7974 10.7959 19.6549C10.857 19.5123 10.9458 19.3834 11.0571 19.2756L14.3524 15.9714L11.0571 12.6672C10.8448 12.4468 10.7274 12.1517 10.73 11.8453C10.7327 11.539 10.8552 11.2459 11.0713 11.0293C11.2873 10.8127 11.5796 10.6898 11.8851 10.6871C12.1906 10.6845 12.485 10.8023 12.7047 11.0151L16 14.3193Z" fill="white"/>
</g>
<defs>
<clipPath id="clip0_18250_57859">
<rect width="32" height="32" fill="white"/>
</clipPath>
</defs>
</svg>
