<svg width="32" height="32" viewBox="0 0 32 32" fill="none" xmlns="http://www.w3.org/2000/svg">
<path d="M19.414 30H15V25.586L20.034 20.552C20.0116 20.3689 20.0003 20.1845 20 20C19.9993 18.9874 20.3061 17.9984 20.8798 17.164C21.4534 16.3295 22.2669 15.6889 23.2126 15.327C24.1584 14.965 25.1917 14.8987 26.1759 15.1368C27.1601 15.375 28.0488 15.9063 28.7244 16.6606C29.4 17.4149 29.8307 18.3566 29.9594 19.361C30.0882 20.3654 29.9089 21.3852 29.4453 22.2855C28.9818 23.1858 28.2558 23.9241 27.3634 24.4027C26.4711 24.8814 25.4544 25.0778 24.448 24.966L19.414 30ZM17 28H18.586L23.792 22.794L24.332 22.918C24.9748 23.071 25.65 23.01 26.255 22.7442C26.86 22.4785 27.3618 22.0226 27.6841 21.4458C28.0064 20.8689 28.1316 20.2026 28.0407 19.5481C27.9499 18.8936 27.6479 18.2866 27.1806 17.8194C26.7134 17.3521 26.1064 17.0502 25.4519 16.9593C24.7974 16.8684 24.1311 16.9936 23.5543 17.3159C22.9774 17.6382 22.5215 18.14 22.2558 18.745C21.9901 19.35 21.929 20.0252 22.082 20.668L22.206 21.208L17 26.414V28Z" fill="white"/>
<path d="M25 21C25.5523 21 26 20.5523 26 20C26 19.4477 25.5523 19 25 19C24.4477 19 24 19.4477 24 20C24 20.5523 24.4477 21 25 21Z" fill="white"/>
<path d="M8 6H20V8H8V6ZM8 10H20V12H8V10ZM8 14H14V16H8V14ZM8 24H12V26H8V24Z" fill="white"/>
<path d="M12 30H6C5.46973 29.9995 4.96133 29.7886 4.58637 29.4136C4.21141 29.0387 4.00053 28.5303 4 28V4C4.00053 3.46973 4.21141 2.96133 4.58637 2.58637C4.96133 2.21141 5.46973 2.00053 6 2H22C22.5303 2.00053 23.0387 2.21141 23.4136 2.58637C23.7886 2.96133 23.9995 3.46973 24 4V13H22V4H6V28H12V30Z" fill="white"/>
</svg>
