<svg width="18" height="18" viewBox="0 0 18 18" fill="none" xmlns="http://www.w3.org/2000/svg">
<path d="M9.5 8.33L9.5 17.5L8.5 17.5L8.5 8.33L8.5 7.12619L7.64713 7.97576L5.41068 10.2036L4.70711 9.5L9 5.20711L13.2929 9.5L12.5893 10.2036L10.3529 7.97576L9.5 7.12619L9.5 8.33ZM1.5 16L1.5 16.5L2 16.5L5.5 16.5L5.5 17.5L2 17.5C1.17451 17.5 0.5 16.8322 0.5 16L0.499999 2C0.499999 1.17614 1.17614 0.5 2 0.5L16 0.499999C16.8239 0.499999 17.5 1.17614 17.5 2L17.5 16C17.5 16.8322 16.8255 17.5 16 17.5L12.5 17.5L12.5 16.5L16 16.5L16.5 16.5L16.5 16L16.5 2L16.5 1.5L16 1.5L2 1.5L1.5 1.5L1.5 2L1.5 16Z" stroke="#7A91A9"/>
</svg>
