<svg width="18" height="18" viewBox="0 0 18 18" fill="none" xmlns="http://www.w3.org/2000/svg">
<g clip-path="url(#clip0_6_10)">
<path d="M9.5 8.33V17.5H8.5V8.33V7.12619L7.64713 7.97576L5.41068 10.2036L4.70711 9.5L9 5.20711L13.2929 9.5L12.5893 10.2036L10.3529 7.97576L9.5 7.12619V8.33ZM1.5 16V16.5H2H5.5V17.5H2C1.17451 17.5 0.500001 16.8322 0.500001 16L0.5 2C0.5 1.17614 1.17614 0.499999 2 0.499999L16 0.499998C16.8239 0.499998 17.5 1.17614 17.5 2V16C17.5 16.8322 16.8255 17.5 16 17.5H12.5V16.5H16H16.5V16V2V1.5H16H2H1.5V2V16Z" stroke="#004781"/>
</g>
<defs>
<clipPath id="clip0_6_10">
<rect width="18" height="18" fill="white"/>
</clipPath>
</defs>
</svg>
