<svg width="192" height="126" viewBox="0 0 192 126" fill="none" xmlns="http://www.w3.org/2000/svg">
<path d="M175.51 119.55H15.8944C9.59225 119.55 4.4873 114.465 4.4873 108.188V16.9875C4.4873 10.71 9.59225 5.625 15.8944 5.625H175.51C181.812 5.625 186.917 10.71 186.917 16.9875V108.188C186.917 114.465 181.812 119.55 175.51 119.55Z" fill="#F9EAF5"/>
<path d="M56.0561 18.1499H53.8198V13.6124H55.8904C56.3045 13.6124 56.6283 13.7099 56.8692 13.9124C57.1102 14.1149 57.2307 14.3849 57.2307 14.7299C57.2307 14.9549 57.1779 15.1499 57.065 15.3149C56.9521 15.4799 56.809 15.5999 56.6283 15.6674C56.9144 15.7199 57.1478 15.8549 57.3285 16.0724C57.5092 16.2899 57.5996 16.5599 57.5996 16.8824C57.5996 17.2649 57.4641 17.5799 57.1855 17.8124C56.9069 18.0299 56.5304 18.1499 56.0561 18.1499ZM54.5351 14.2649V15.4424H55.7624C56.0034 15.4424 56.1841 15.3899 56.3196 15.2924C56.4551 15.1949 56.5154 15.0449 56.5154 14.8574C56.5154 14.6699 56.4476 14.5199 56.3196 14.4224C56.1916 14.3249 56.0034 14.2724 55.7624 14.2724H54.5351V14.2649ZM54.5351 16.0649V17.4899H55.9281C56.2066 17.4899 56.425 17.4299 56.5831 17.3024C56.7412 17.1749 56.8165 16.9949 56.8165 16.7699C56.8165 16.5449 56.7412 16.3724 56.5831 16.2524C56.425 16.1324 56.2066 16.0724 55.9281 16.0724H54.5351V16.0649Z" fill="#C62658"/>
<path d="M62.4035 17.5575C61.9592 18.0075 61.4021 18.2325 60.7395 18.2325C60.0694 18.2325 59.5197 18.0075 59.0755 17.5575C58.6388 17.1 58.4204 16.5375 58.4204 15.8775C58.4204 15.21 58.6388 14.655 59.0755 14.205C59.5197 13.7475 60.0769 13.5225 60.7395 13.5225C61.4096 13.5225 61.9668 13.7475 62.4035 14.205C62.8477 14.655 63.0661 15.21 63.0661 15.8775C63.0736 16.545 62.8477 17.1075 62.4035 17.5575ZM59.6101 17.085C59.9188 17.4075 60.2952 17.565 60.7395 17.565C61.1837 17.565 61.5677 17.4075 61.8764 17.085C62.1851 16.755 62.3357 16.3575 62.3357 15.8775C62.3357 15.3975 62.1851 15 61.8764 14.6775C61.5677 14.355 61.1912 14.19 60.7395 14.19C60.2952 14.19 59.9112 14.355 59.6101 14.6775C59.3089 14.9925 59.1508 15.39 59.1508 15.8775C59.1508 16.365 59.3014 16.77 59.6101 17.085Z" fill="#C62658"/>
<path d="M64.1503 19.125H63.4727V17.4975H63.9094C64.1503 17.1375 64.3235 16.7175 64.4364 16.23C64.5494 15.735 64.6021 15.0675 64.6021 14.235V13.605H67.6138V17.49H68.2689V19.1175H67.5912V18.1425H64.1503V19.125ZM64.6924 17.4975H66.9061V14.265H65.3023C65.3023 15.0225 65.2571 15.66 65.1668 16.17C65.0764 16.6875 64.9183 17.13 64.6924 17.4975Z" fill="#C62658"/>
<path d="M69.8272 18.1499H69.2173V13.6124H69.9326V16.9499L72.4399 13.6124H73.0648V18.1499H72.3495V14.8049L69.8272 18.1499Z" fill="#C62658"/>
<path d="M74.0063 14.2649V13.6124H77.7409V14.2649H76.2275V18.1499H75.5122V14.2649H74.0063Z" fill="#C62658"/>
<path d="M82.0101 18.1499H78.6821V13.6124H81.9273V14.2649H79.3974V15.3974H81.4529V16.0499H79.3974V17.4899H82.0101V18.1499Z" fill="#C62658"/>
<path d="M82.5146 18.1349V17.4824C82.5749 17.4974 82.6502 17.5124 82.7556 17.5124C83.0794 17.5124 83.2902 17.3099 83.3956 16.9124C83.501 16.5674 83.5612 15.9899 83.5763 15.1574L83.5989 13.5974H86.6332V18.1349H85.9179V14.2499H84.2916L84.269 15.2249C84.2539 16.2074 84.1485 16.9349 83.9528 17.4149C83.7495 17.9099 83.3655 18.1574 82.8008 18.1574C82.6878 18.1724 82.5899 18.1574 82.5146 18.1349Z" fill="#C62658"/>
<path d="M89.8256 18.1499H87.9282V13.6124H88.6435V15.1799H89.8181C90.3452 15.1799 90.7668 15.3149 91.068 15.5924C91.3692 15.8699 91.5273 16.2299 91.5273 16.6724C91.5273 17.1074 91.3767 17.4599 91.068 17.7449C90.7593 18.0149 90.3452 18.1499 89.8256 18.1499ZM88.6435 15.8324V17.4899H89.7805C90.1042 17.4899 90.3527 17.4149 90.5259 17.2724C90.7066 17.1299 90.7894 16.9274 90.7894 16.6649C90.7894 16.4024 90.699 16.1999 90.5183 16.0499C90.3376 15.8999 90.0892 15.8324 89.7729 15.8324H88.6435Z" fill="#C62658"/>
<path d="M94.7647 18.2325C94.087 18.2325 93.5073 18.015 93.048 17.5725C92.5887 17.13 92.3628 16.56 92.3628 15.8775C92.3628 15.195 92.5887 14.6325 93.048 14.19C93.4997 13.7475 94.072 13.5225 94.7647 13.5225C95.2315 13.5225 95.6456 13.62 95.9995 13.83V14.55C95.6306 14.31 95.2164 14.19 94.7722 14.19C94.2979 14.19 93.8913 14.3475 93.575 14.67C93.2588 14.985 93.1007 15.39 93.1007 15.8775C93.1007 16.365 93.2588 16.77 93.5826 17.0925C93.9063 17.4075 94.3129 17.565 94.8023 17.565C95.3219 17.565 95.7586 17.43 96.1049 17.1525V17.8725C95.7134 18.1125 95.2691 18.2325 94.7647 18.2325Z" fill="#C62658"/>
<path d="M97.852 18.1499H97.1367V13.6124H97.852V15.4649L99.7193 13.6124H100.638L98.5297 15.6899L100.977 18.1574H99.9979L97.852 15.9749V18.1499Z" fill="#C62658"/>
<path d="M105.163 17.5575C104.719 18.0075 104.161 18.2325 103.499 18.2325C102.829 18.2325 102.271 18.0075 101.835 17.5575C101.398 17.1 101.18 16.5375 101.18 15.8775C101.18 15.21 101.398 14.655 101.835 14.205C102.279 13.7475 102.836 13.5225 103.499 13.5225C104.169 13.5225 104.726 13.7475 105.163 14.205C105.607 14.655 105.825 15.21 105.825 15.8775C105.825 16.545 105.607 17.1075 105.163 17.5575ZM102.362 17.085C102.671 17.4075 103.047 17.565 103.499 17.565C103.951 17.565 104.327 17.4075 104.628 17.085C104.937 16.755 105.087 16.3575 105.087 15.8775C105.087 15.3975 104.929 15 104.628 14.6775C104.319 14.355 103.943 14.19 103.499 14.19C103.055 14.19 102.671 14.355 102.362 14.6775C102.061 14.9925 101.903 15.39 101.903 15.8775C101.903 16.365 102.061 16.77 102.362 17.085Z" fill="#C62658"/>
<path d="M110.29 18.1499H106.962V13.6124H110.208V14.2649H107.678V15.3974H109.733V16.0499H107.678V17.4899H110.29V18.1499Z" fill="#C62658"/>
<path d="M113.769 18.2325C113.483 18.2325 113.264 18.195 113.121 18.1275V17.4525C113.295 17.5275 113.468 17.565 113.641 17.565C113.822 17.565 113.972 17.52 114.1 17.4225C114.221 17.325 114.349 17.13 114.499 16.8225L112.715 13.605H113.52L114.868 16.065L115.99 13.605H116.758L115.079 17.175C114.748 17.88 114.311 18.2325 113.769 18.2325Z" fill="#C62658"/>
<path d="M117.33 19.125H116.653V17.4975H117.09C117.33 17.1375 117.504 16.7175 117.617 16.23C117.73 15.735 117.782 15.0675 117.782 14.235V13.605H120.794V17.49H121.449V19.1175H120.771V18.1425H117.323V19.125H117.33ZM117.873 17.4975H120.086V14.265H118.482C118.482 15.0225 118.437 15.66 118.347 16.17C118.257 16.6875 118.098 17.13 117.873 17.4975Z" fill="#C62658"/>
<path d="M126.223 17.5575C125.779 18.0075 125.221 18.2325 124.559 18.2325C123.889 18.2325 123.332 18.0075 122.895 17.5575C122.458 17.1 122.24 16.5375 122.24 15.8775C122.24 15.21 122.458 14.655 122.895 14.205C123.339 13.7475 123.896 13.5225 124.559 13.5225C125.229 13.5225 125.786 13.7475 126.223 14.205C126.667 14.655 126.885 15.21 126.885 15.8775C126.885 16.545 126.667 17.1075 126.223 17.5575ZM123.422 17.085C123.731 17.4075 124.107 17.565 124.559 17.565C125.011 17.565 125.387 17.4075 125.688 17.085C125.997 16.755 126.148 16.3575 126.148 15.8775C126.148 15.3975 125.989 15 125.688 14.6775C125.38 14.355 125.003 14.19 124.559 14.19C124.115 14.19 123.731 14.355 123.422 14.6775C123.121 14.9925 122.963 15.39 122.963 15.8775C122.97 16.365 123.121 16.77 123.422 17.085Z" fill="#C62658"/>
<path d="M130.258 18.2325C129.581 18.2325 129.001 18.015 128.542 17.5725C128.082 17.13 127.856 16.56 127.856 15.8775C127.856 15.195 128.082 14.6325 128.542 14.19C128.993 13.7475 129.566 13.5225 130.258 13.5225C130.725 13.5225 131.139 13.62 131.493 13.83V14.55C131.124 14.31 130.71 14.19 130.266 14.19C129.792 14.19 129.385 14.3475 129.069 14.67C128.752 14.985 128.594 15.39 128.594 15.8775C128.594 16.365 128.752 16.77 129.076 17.0925C129.4 17.4075 129.807 17.565 130.296 17.565C130.816 17.565 131.252 17.43 131.599 17.1525V17.8725C131.215 18.1125 130.77 18.2325 130.258 18.2325Z" fill="#C62658"/>
<path d="M132.284 14.2649V13.6124H136.018V14.2649H134.505V18.1499H133.79V14.2649H132.284Z" fill="#C62658"/>
<path d="M140.438 17.5575C139.994 18.0075 139.437 18.2325 138.774 18.2325C138.104 18.2325 137.554 18.0075 137.11 17.5575C136.673 17.1 136.455 16.5375 136.455 15.8775C136.455 15.21 136.673 14.655 137.11 14.205C137.554 13.7475 138.112 13.5225 138.774 13.5225C139.444 13.5225 140.001 13.7475 140.438 14.205C140.882 14.655 141.101 15.21 141.101 15.8775C141.108 16.545 140.882 17.1075 140.438 17.5575ZM137.637 17.085C137.946 17.4075 138.322 17.565 138.767 17.565C139.211 17.565 139.595 17.4075 139.904 17.085C140.212 16.755 140.363 16.3575 140.363 15.8775C140.363 15.3975 140.212 15 139.904 14.6775C139.595 14.355 139.218 14.19 138.767 14.19C138.322 14.19 137.938 14.355 137.637 14.6775C137.336 14.9925 137.178 15.39 137.178 15.8775C137.185 16.365 137.336 16.77 137.637 17.085Z" fill="#C62658"/>
<path d="M144.482 18.1499H142.238V13.6124H144.308C144.722 13.6124 145.046 13.7099 145.287 13.9124C145.528 14.1149 145.649 14.3849 145.649 14.7299C145.649 14.9549 145.588 15.1499 145.483 15.3149C145.37 15.4799 145.227 15.5999 145.046 15.6674C145.332 15.7199 145.566 15.8549 145.747 16.0724C145.927 16.2899 146.018 16.5599 146.018 16.8824C146.018 17.2649 145.874 17.5799 145.603 17.8124C145.325 18.0299 144.948 18.1499 144.482 18.1499ZM142.953 14.2649V15.4424H144.18C144.421 15.4424 144.602 15.3899 144.738 15.2924C144.873 15.1949 144.933 15.0449 144.933 14.8574C144.933 14.6699 144.866 14.5199 144.738 14.4224C144.61 14.3249 144.421 14.2724 144.18 14.2724H142.953V14.2649ZM142.953 16.0649V17.4899H144.346C144.625 17.4899 144.843 17.4299 145.001 17.3024C145.159 17.1749 145.242 16.9949 145.242 16.7699C145.242 16.5449 145.167 16.3724 145.009 16.2524C144.85 16.1324 144.632 16.0724 144.354 16.0724H142.953V16.0649Z" fill="#C62658"/>
<path d="M150.422 18.1499H147.094V13.6124H150.339V14.2649H147.81V15.3974H149.865V16.0499H147.81V17.4899H150.422V18.1499Z" fill="#C62658"/>
<path d="M152.154 18.1499H151.438V13.6124H153.396C153.87 13.6124 154.247 13.7324 154.51 13.9799C154.782 14.2199 154.917 14.5349 154.917 14.9249C154.917 15.3149 154.782 15.6449 154.51 15.8999C154.247 16.1474 153.878 16.2749 153.396 16.2749H152.154V18.1499ZM152.154 14.2649V15.6224H153.336C153.607 15.6224 153.818 15.5624 153.968 15.4424C154.119 15.3224 154.194 15.1574 154.194 14.9399C154.194 14.7224 154.119 14.5574 153.968 14.4374C153.818 14.3174 153.607 14.2649 153.336 14.2649H152.154Z" fill="#C62658"/>
<path d="M159.239 18.1499H155.911V13.6124H159.156V14.2649H156.626V15.3974H158.682V16.0499H156.626V17.4899H159.239V18.1499Z" fill="#C62658"/>
<path d="M160.963 18.1499H160.248V13.6124H160.963V15.4049H163.343V13.6124H164.058V18.1499H163.343V16.0574H160.963V18.1499Z" fill="#C62658"/>
<path d="M165.963 18.1499H165.353V13.6124H166.068V16.9499L168.576 13.6124H169.201V18.1499H168.485V14.8049L165.963 18.1499Z" fill="#C62658"/>
<path d="M173.824 18.1499H170.496V13.6124H173.741V14.2649H171.211V15.3974H173.266V16.0499H171.211V17.4899H173.824V18.1499Z" fill="#C62658"/>
<path d="M68.9317 27.9225H68.367V24.9L67.5688 25.3275V24.7725L68.4272 24.2925H68.9317V27.9225Z" fill="#C62658"/>
<path d="M70.0838 27.9675C69.9784 27.9675 69.888 27.93 69.8203 27.8625C69.745 27.795 69.7148 27.705 69.7148 27.6C69.7148 27.5025 69.7525 27.4125 69.8203 27.345C69.888 27.2775 69.9784 27.24 70.0838 27.24C70.1817 27.24 70.2645 27.2775 70.3398 27.345C70.4151 27.4125 70.4527 27.5025 70.4527 27.6C70.4527 27.705 70.4151 27.795 70.3473 27.8625C70.272 27.93 70.1817 27.9675 70.0838 27.9675Z" fill="#C62658"/>
<path d="M70.1817 36.24H67.6367V35.8275L68.7812 34.755C69.0221 34.53 69.2028 34.335 69.3158 34.17C69.4212 34.0125 69.4739 33.8475 69.4739 33.6675C69.4739 33.4875 69.4061 33.3375 69.2706 33.225C69.1351 33.1125 68.9619 33.0525 68.7435 33.0525C68.3821 33.0525 68.0433 33.2025 67.7195 33.5025V32.9025C68.0207 32.6475 68.3821 32.52 68.7963 32.52C69.1426 32.52 69.4287 32.6175 69.6697 32.82C69.9106 33.015 70.0386 33.2775 70.0386 33.5925C70.0386 33.84 69.9784 34.065 69.8579 34.26C69.7299 34.4625 69.5266 34.7025 69.2405 34.965L68.4499 35.715H70.1591V36.24H70.1817Z" fill="#C62658"/>
<path d="M71.1004 36.285C70.995 36.285 70.9046 36.2475 70.8369 36.18C70.7616 36.1125 70.7314 36.0225 70.7314 35.9175C70.7314 35.82 70.7691 35.73 70.8369 35.6625C70.9046 35.595 70.995 35.5575 71.1004 35.5575C71.1983 35.5575 71.2811 35.595 71.3564 35.6625C71.4317 35.73 71.4693 35.82 71.4693 35.9175C71.4693 36.0225 71.4317 36.1125 71.3639 36.18C71.2886 36.2475 71.2058 36.285 71.1004 36.285Z" fill="#C62658"/>
<path d="M68.7358 44.6249C68.3066 44.6249 67.9377 44.5349 67.644 44.3474V43.7924C67.9452 44.0099 68.2991 44.1149 68.7057 44.1149C68.9466 44.1149 69.1499 44.0474 69.3231 43.9199C69.4963 43.7849 69.5866 43.6049 69.5866 43.3799C69.5866 43.1699 69.5113 42.9974 69.3608 42.8699C69.2102 42.7424 68.9993 42.6749 68.7433 42.6749C68.5777 42.6749 68.4196 42.7049 68.2765 42.7574V42.3674L69.2553 41.4224H67.7796V40.9199H70.0158V41.3549L69.0822 42.2474C69.3758 42.2774 69.6243 42.3974 69.8426 42.5999C70.0535 42.8024 70.1589 43.0574 70.1589 43.3799C70.1589 43.7549 70.0233 44.0549 69.7448 44.2874C69.4812 44.5124 69.1424 44.6249 68.7358 44.6249Z" fill="#C62658"/>
<path d="M71.0398 44.5949C70.9344 44.5949 70.8441 44.5574 70.7763 44.4899C70.701 44.4224 70.6709 44.3324 70.6709 44.2274C70.6709 44.1299 70.7085 44.0399 70.7763 43.9724C70.8441 43.9049 70.9344 43.8674 71.0398 43.8674C71.1377 43.8674 71.2206 43.9049 71.2958 43.9724C71.3711 44.0399 71.4088 44.1299 71.4088 44.2274C71.4088 44.3324 71.3711 44.4224 71.3034 44.4899C71.2281 44.5649 71.1377 44.5949 71.0398 44.5949Z" fill="#C62658"/>
<path d="M70.0383 61.185H69.4736V60.2325H67.5762V59.7975L69.4736 57.5475H70.0383V59.745H70.6105V60.2325H70.0383V61.185ZM69.4811 58.2825L68.2388 59.745H69.4811V58.2825Z" fill="#C62658"/>
<path d="M71.3714 61.2299C71.266 61.2299 71.1756 61.1924 71.1079 61.1249C71.0326 61.0574 71.0024 60.9674 71.0024 60.8624C71.0024 60.7649 71.0401 60.6749 71.1079 60.6074C71.1756 60.5399 71.266 60.5024 71.3714 60.5024C71.4693 60.5024 71.5521 60.5399 71.6274 60.6074C71.7027 60.6749 71.7403 60.7649 71.7403 60.8624C71.7403 60.9674 71.7027 61.0574 71.6349 61.1249C71.5521 61.1924 71.4693 61.2299 71.3714 61.2299Z" fill="#C62658"/>
<path d="M74.8195 60.75C74.8722 60.75 74.9249 60.735 74.97 60.7125V61.14C74.8948 61.1925 74.7818 61.2225 74.6388 61.2225C74.3451 61.2225 74.1644 61.1025 74.1042 60.8625C73.8707 61.125 73.5545 61.26 73.163 61.26C72.8844 61.26 72.6585 61.185 72.4703 61.035C72.2896 60.885 72.1992 60.675 72.1992 60.405C72.1992 60.135 72.2971 59.925 72.5004 59.7825C72.6962 59.6325 72.9371 59.5575 73.2308 59.5575C73.5395 59.5575 73.8105 59.625 74.0515 59.7525V59.61C74.0515 59.2425 73.803 59.055 73.2985 59.055C73.0049 59.055 72.7338 59.13 72.4929 59.28V58.785C72.7489 58.6425 73.0576 58.5675 73.4265 58.5675C73.7879 58.5675 74.074 58.65 74.2924 58.8225C74.5032 58.995 74.6162 59.235 74.6162 59.5425V60.495C74.6162 60.5775 74.6388 60.6375 74.6764 60.6825C74.7065 60.7275 74.7592 60.75 74.8195 60.75ZM74.0515 60.465V60.15C73.8331 60.03 73.6072 59.97 73.3663 59.97C73.178 59.97 73.0275 60.0075 72.922 60.075C72.8166 60.1425 72.7639 60.24 72.7639 60.3675C72.7639 60.5025 72.8166 60.6 72.9145 60.6675C73.0124 60.735 73.1479 60.7725 73.3211 60.7725C73.4566 60.7725 73.5922 60.7425 73.7277 60.69C73.8557 60.63 73.9686 60.555 74.0515 60.465Z" fill="#C62658"/>
<path d="M75.6857 62.2575H75.106C75.6556 61.5675 75.9267 60.7725 75.9267 59.8875C75.9267 59.01 75.6481 58.2225 75.106 57.5175H75.6857C76.1977 58.155 76.4537 58.9425 76.4537 59.8875C76.4537 60.8325 76.1977 61.62 75.6857 62.2575Z" fill="#C62658"/>
<path d="M70.0383 69.5025H69.4736V68.55H67.5762V68.115L69.4736 65.865H70.0383V68.0625H70.6105V68.55H70.0383V69.5025ZM69.4811 66.6L68.2388 68.0625H69.4811V66.6Z" fill="#C62658"/>
<path d="M71.3714 69.5475C71.266 69.5475 71.1756 69.5099 71.1079 69.4424C71.0326 69.3749 71.0024 69.2849 71.0024 69.1799C71.0024 69.0824 71.0401 68.9924 71.1079 68.9249C71.1756 68.8574 71.266 68.8199 71.3714 68.8199C71.4693 68.8199 71.5521 68.8574 71.6274 68.9249C71.7027 68.9924 71.7403 69.0824 71.7403 69.1799C71.7403 69.2849 71.7027 69.3749 71.6349 69.4424C71.5521 69.5099 71.4693 69.5475 71.3714 69.5475Z" fill="#C62658"/>
<path d="M73.457 69.5699C73.073 69.5699 72.7417 69.4424 72.4782 69.1874C72.2071 68.9324 72.0791 68.6099 72.0791 68.2124C72.0791 67.8224 72.2146 67.4999 72.4782 67.2524C72.7492 67.0049 73.0805 66.8774 73.4645 66.8774C73.7582 66.8774 74.0142 66.9374 74.24 67.0574V67.5374C74.0066 67.4249 73.7732 67.3724 73.5473 67.3724C73.2913 67.3724 73.073 67.4549 72.8998 67.6124C72.7266 67.7774 72.6363 67.9799 72.6363 68.2199C72.6363 68.4674 72.7266 68.6699 72.8998 68.8349C73.073 68.9924 73.2913 69.0749 73.5473 69.0749C73.8259 69.0749 74.0669 69.0074 74.2777 68.8799V69.3599C74.0367 69.5024 73.7657 69.5699 73.457 69.5699Z" fill="#C62658"/>
<path d="M75.279 70.575H74.6992C75.2489 69.885 75.5199 69.09 75.5199 68.205C75.5199 67.3275 75.2489 66.54 74.6992 65.835H75.279C75.791 66.4725 76.047 67.26 76.047 68.205C76.047 69.15 75.791 69.9375 75.279 70.575Z" fill="#C62658"/>
<path d="M68.7434 86.205C68.3519 86.205 68.0056 86.1225 67.7119 85.9575V85.425C68.0131 85.6125 68.3444 85.7025 68.7133 85.7025C68.9769 85.7025 69.1952 85.635 69.3759 85.5075C69.5566 85.3725 69.647 85.1925 69.647 84.975C69.647 84.765 69.5641 84.5925 69.391 84.4575C69.2253 84.3225 68.9994 84.255 68.7284 84.255C68.4498 84.255 68.1562 84.3075 67.855 84.4125L68.0959 82.515H69.9783V83.0175H68.5176L68.4121 83.8575C68.5552 83.82 68.7058 83.7975 68.8714 83.7975C69.263 83.7975 69.5867 83.91 69.8503 84.1275C70.1138 84.345 70.2343 84.63 70.2343 84.9825C70.2343 85.365 70.0912 85.665 69.8051 85.89C69.519 86.0925 69.1651 86.205 68.7434 86.205Z" fill="#C62658"/>
<path d="M71.1302 86.175C71.0248 86.175 70.9419 86.1375 70.8666 86.07C70.7989 86.0025 70.7612 85.9125 70.7612 85.8075C70.7612 85.71 70.7989 85.62 70.8666 85.5525C70.9344 85.485 71.0248 85.4475 71.1302 85.4475C71.2281 85.4475 71.3109 85.485 71.3862 85.5525C71.4615 85.62 71.4991 85.71 71.4991 85.8075C71.4991 85.9125 71.4615 86.0025 71.3937 86.07C71.3184 86.145 71.2356 86.175 71.1302 86.175Z" fill="#C62658"/>
<path d="M69.8125 92.52C70.0383 92.595 70.2115 92.7075 70.3395 92.8725C70.4675 93.0375 70.5353 93.225 70.5353 93.4425C70.5353 93.78 70.3998 94.0425 70.1212 94.23C69.8426 94.425 69.5113 94.5225 69.1122 94.5225C68.7132 94.5225 68.3743 94.425 68.0958 94.23C67.8247 94.0425 67.6816 93.7725 67.6816 93.4425C67.6816 93.225 67.7494 93.0375 67.8774 92.8725C68.0054 92.7075 68.1861 92.595 68.412 92.52C68.2388 92.445 68.1033 92.34 68.0054 92.205C67.9075 92.0625 67.8548 91.905 67.8548 91.7325C67.8548 91.4475 67.9753 91.2075 68.2087 91.0275C68.4421 90.8475 68.7433 90.75 69.1047 90.75C69.4661 90.75 69.7598 90.84 70.0007 91.0275C70.2341 91.215 70.3546 91.4475 70.3546 91.7325C70.3546 91.9125 70.3094 92.07 70.2115 92.205C70.1136 92.34 69.9856 92.445 69.8125 92.52ZM69.948 93.405C69.948 93.225 69.8652 93.0675 69.7071 92.955C69.5565 92.835 69.3532 92.775 69.1122 92.775C68.8713 92.775 68.6755 92.835 68.5099 92.955C68.3518 93.075 68.2689 93.225 68.2689 93.405C68.2689 93.5925 68.3518 93.7425 68.5099 93.855C68.6755 93.975 68.8713 94.035 69.1122 94.035C69.3456 94.035 69.5414 93.975 69.7071 93.855C69.8652 93.735 69.948 93.585 69.948 93.405ZM68.6078 92.175C68.7433 92.28 68.9089 92.3325 69.1122 92.3325C69.3155 92.3325 69.4812 92.28 69.6167 92.175C69.7522 92.07 69.8125 91.935 69.8125 91.7775C69.8125 91.62 69.7447 91.4775 69.6167 91.38C69.4887 91.275 69.3155 91.2225 69.1122 91.2225C68.9089 91.2225 68.7433 91.275 68.6078 91.38C68.4722 91.485 68.4045 91.62 68.4045 91.7775C68.4045 91.935 68.4722 92.07 68.6078 92.175Z" fill="#C62658"/>
<path d="M71.4466 94.4925C71.3412 94.4925 71.2508 94.455 71.183 94.3875C71.1078 94.32 71.0776 94.23 71.0776 94.125C71.0776 94.0275 71.1153 93.9375 71.183 93.87C71.2508 93.8025 71.3412 93.765 71.4466 93.765C71.5445 93.765 71.6273 93.8025 71.7026 93.87C71.7779 93.9375 71.8155 94.0275 71.8155 94.125C71.8155 94.23 71.7779 94.32 71.7101 94.3875C71.6348 94.455 71.5445 94.4925 71.4466 94.4925Z" fill="#C62658"/>
<path d="M69.0295 99.0599C69.4737 99.0599 69.8201 99.2099 70.0761 99.5099C70.3321 99.8099 70.4601 100.222 70.4601 100.762C70.4601 101.347 70.317 101.835 70.0234 102.24C69.7373 102.637 69.3382 102.832 68.8262 102.832C68.525 102.832 68.254 102.757 68.0206 102.607V102.09C68.2464 102.24 68.4949 102.315 68.7585 102.315C69.1123 102.315 69.3834 102.195 69.5641 101.955C69.7523 101.715 69.8502 101.415 69.8653 101.07C69.6545 101.347 69.3382 101.482 68.9241 101.482C68.5853 101.482 68.3067 101.377 68.0808 101.167C67.8549 100.957 67.7495 100.672 67.7495 100.327C67.7495 99.9599 67.87 99.6524 68.1185 99.4199C68.3594 99.1799 68.6681 99.0599 69.0295 99.0599ZM69.0672 99.5624C68.8488 99.5624 68.6756 99.6299 68.5326 99.7724C68.3895 99.9149 68.3217 100.095 68.3217 100.305C68.3217 100.515 68.3895 100.687 68.5326 100.822C68.6756 100.95 68.8563 101.017 69.0747 101.017C69.2554 101.017 69.421 100.965 69.5792 100.852C69.7373 100.74 69.8352 100.605 69.8879 100.44C69.8653 100.17 69.7825 99.9524 69.6394 99.7949C69.4963 99.6374 69.3006 99.5624 69.0672 99.5624Z" fill="#C62658"/>
<path d="M71.115 102.81C71.0096 102.81 70.9268 102.773 70.8515 102.705C70.7837 102.638 70.7461 102.548 70.7461 102.443C70.7461 102.345 70.7837 102.255 70.8515 102.188C70.9193 102.12 71.0096 102.083 71.115 102.083C71.2129 102.083 71.2957 102.12 71.371 102.188C71.4463 102.255 71.484 102.345 71.484 102.443C71.484 102.548 71.4463 102.638 71.3786 102.705C71.3033 102.773 71.2204 102.81 71.115 102.81Z" fill="#C62658"/>
<path d="M16.218 97.7325C15.7737 97.7325 15.4274 97.5825 15.1714 97.2825C14.9229 96.9825 14.7949 96.5625 14.7949 96.03C14.7949 95.445 14.938 94.9575 15.2316 94.56C15.5177 94.1625 15.9168 93.96 16.4288 93.96C16.73 93.96 17.001 94.035 17.2345 94.185V94.7025C17.0086 94.5525 16.7601 94.47 16.4966 94.47C16.1427 94.47 15.8792 94.59 15.6909 94.8375C15.5102 95.085 15.4048 95.3775 15.3973 95.7225C15.6081 95.4525 15.9243 95.31 16.3385 95.31C16.6697 95.31 16.9483 95.415 17.1742 95.6325C17.4001 95.85 17.513 96.1275 17.513 96.4725C17.513 96.84 17.3926 97.1475 17.1441 97.38C16.8881 97.62 16.5869 97.7325 16.218 97.7325ZM16.1803 97.23C16.3987 97.23 16.5794 97.1625 16.7149 97.02C16.858 96.8775 16.9257 96.6975 16.9257 96.4875C16.9257 96.2775 16.8505 96.105 16.7074 95.9775C16.5643 95.8425 16.3836 95.7825 16.1728 95.7825C15.9921 95.7825 15.8265 95.835 15.6683 95.9475C15.5177 96.06 15.4123 96.195 15.3672 96.36C15.3897 96.63 15.4726 96.8475 15.6156 97.005C15.7587 97.1625 15.9469 97.23 16.1803 97.23Z" fill="#C62658"/>
<path d="M18.3714 97.7099C18.266 97.7099 18.1756 97.6724 18.1079 97.6049C18.0326 97.5374 18.0024 97.4474 18.0024 97.3424C18.0024 97.2449 18.0401 97.1549 18.1079 97.0874C18.1756 97.0199 18.266 96.9824 18.3714 96.9824C18.4693 96.9824 18.5521 97.0199 18.6274 97.0874C18.7027 97.1549 18.7403 97.2449 18.7403 97.3424C18.7403 97.4474 18.7027 97.5374 18.6349 97.6049C18.5596 97.6724 18.4768 97.7099 18.3714 97.7099Z" fill="#C62658"/>
<path d="M15.5704 105.982H14.953L16.5342 102.855H14.6895V102.337H17.1817V102.78L15.5704 105.982Z" fill="#C62658"/>
<path d="M17.3851 106.027C17.2796 106.027 17.1893 105.99 17.1215 105.922C17.0462 105.855 17.0161 105.765 17.0161 105.66C17.0161 105.562 17.0538 105.472 17.1215 105.405C17.1893 105.337 17.2796 105.3 17.3851 105.3C17.4829 105.3 17.5658 105.337 17.6411 105.405C17.7163 105.472 17.754 105.562 17.754 105.66C17.754 105.765 17.7163 105.855 17.6486 105.922C17.5733 105.99 17.4905 106.027 17.3851 106.027Z" fill="#C62658"/>
<path d="M55.0624 89.865H19.2073C16.4214 89.865 14.1626 87.615 14.1626 84.84V31.3125C14.1626 28.5375 16.4214 26.2875 19.2073 26.2875H55.0624C57.8482 26.2875 60.1071 28.5375 60.1071 31.3125V84.84C60.1071 87.615 57.8482 89.865 55.0624 89.865Z" fill="white"/>
<path d="M29.3948 104.7C28.9957 103.215 28.6795 101.708 28.431 100.185C27.9792 97.35 27.7985 94.5 27.8286 91.635C27.8512 88.83 28.0545 85.995 29.0484 83.34C29.583 81.9 30.1854 80.0925 31.3599 79.035C31.5482 78.87 31.8795 78.6825 32.0301 78.525C32.0301 78.525 32.0301 78.525 32.0301 78.5175C32.0903 78.4725 32.143 78.4275 32.1957 78.3825C32.2333 78.12 32.2861 77.865 32.3237 77.6025C32.3237 77.58 32.3312 77.565 32.3312 77.5425C31.7213 77.49 31.0512 77.9325 30.5166 78.165C29.2442 78.72 27.9341 79.185 26.6616 79.755C26.0743 80.0175 25.487 80.2875 24.9148 80.565C24.0865 80.9625 23.5595 81.4125 23.3637 81.5625C21.6846 82.7925 19.5689 84.0525 18.5524 84.765C16.0526 86.52 12.4611 90.3825 9.999 95.3925C8.28229 98.88 7.48418 102.173 7.11523 104.775" fill="#0082DE"/>
<path d="M37.933 74.88V74.8425C39.6346 74.79 41.6299 73.8 43.0906 72.66L43.1208 72.6975C43.0605 73.185 43.0906 73.725 43.053 74.1675C42.9777 75.03 42.9325 75.9225 43.0003 76.7925C41.9914 76.8525 41.0125 77.115 39.9584 77.025C38.7914 76.935 37.5415 76.6275 36.4422 76.2075C35.4784 75.8325 34.6201 75.2175 33.8069 74.6025C33.2497 74.1825 32.8055 73.68 32.3311 73.1775C32.2483 73.0875 32.1579 72.9675 32.0601 72.8475C32.6172 73.155 33.1819 73.455 33.7617 73.755C34.4695 74.1225 35.2224 74.37 35.9979 74.58C36.6154 74.7525 37.293 74.865 37.933 74.88Z" fill="#E39476"/>
<path d="M46.1777 106.11C46.6069 104.565 47.0511 103.027 47.3598 101.445C47.6384 100.005 47.8116 98.5575 48.1052 97.125C48.7753 93.8775 48.7904 90.5925 48.2633 87.3225C48.1052 86.37 48.045 85.4175 47.804 84.4725C47.3372 82.6275 46.4939 80.8275 45.0483 79.545C44.5137 79.0725 43.7833 78.84 43.2563 78.3975C43.2111 78.1425 43.1508 77.88 43.1057 77.625C43.0981 77.6025 43.0981 77.5875 43.0981 77.565C43.7005 77.4975 44.3857 77.91 44.9278 78.1275C46.2153 78.6375 47.5405 79.0725 48.828 79.59C49.4228 79.83 50.0252 80.085 50.5974 80.34C51.1621 80.595 51.6139 81.03 52.1861 81.285C52.8186 81.57 53.4586 81.8475 54.0986 82.11C55.469 82.6725 56.8544 83.2125 58.1419 83.955C59.8511 84.9375 61.4473 85.9275 62.8101 87.39C64.0751 88.755 65.0916 90.555 65.965 92.19C66.9363 93.9975 67.6741 96.015 68.3292 97.95C68.4873 98.4225 68.7207 98.895 68.8111 99.3825C68.9843 100.297 69.0445 101.257 69.1876 102.18C69.3457 103.23 69.4887 104.28 69.6167 105.33" fill="#0082DE"/>
<path d="M23.0024 59.4525C22.9346 58.9875 22.8819 58.5225 22.8292 58.065C22.769 57.5625 22.7238 57.045 22.5732 56.5575C22.257 55.575 21.6471 54.72 21.3083 53.745C21.1502 53.2875 21.0598 52.8675 21.0673 52.38C21.0749 51.855 21.1426 51.3225 21.1878 50.7975C21.2631 49.92 21.4513 49.05 21.6546 48.1875C21.9257 47.055 22.3323 45.8925 22.2118 44.715C22.1967 44.58 22.1817 44.445 22.1591 44.31C22.0462 43.425 22.3473 42.765 22.7539 42.0075C23.3789 40.83 24.32 39.7425 25.5172 39.1125C26.8349 38.4225 28.4462 38.19 29.824 37.5975C30.4189 37.3425 30.9836 37.035 31.5257 36.6825C31.7516 36.54 31.9172 36.3525 32.1506 36.2325C32.5045 36.0525 32.881 35.9025 33.2424 35.745C33.6791 35.5575 34.1384 35.415 34.6052 35.3325C36.0283 35.0775 37.5643 35.1675 38.9497 35.565C40.3125 35.955 41.7205 36.78 42.0593 38.2575C42.1422 38.64 42.4283 38.6025 42.7746 38.6025C43.7986 38.37 44.8904 38.6025 45.8015 39.0975C47.1266 39.8175 47.5709 41.07 48.2786 42.2925C48.9111 43.38 49.792 44.2875 50.5676 45.2625C51.5539 46.515 52.2993 47.925 52.0584 49.56C51.9455 50.325 51.825 51.0375 51.8476 51.8025C51.8702 52.5825 51.5012 53.46 51.3055 54.21C51.1775 54.69 51.1323 55.215 50.944 55.6725C50.4923 56.76 50.417 57.9075 50.4697 59.07C50.4697 59.1525 50.4772 59.235 50.4847 59.325C50.4998 59.6025 50.4772 59.9775 50.4622 60.255C50.4471 60.48 50.4245 60.69 50.3492 60.9C50.2815 61.08 50.1309 61.365 49.905 61.395C49.1746 61.5 49.3177 59.3925 49.3026 59.0025C49.265 57.72 49.0391 56.2875 48.3012 55.2C47.9172 54.6375 47.6838 53.925 47.5257 53.265C47.3525 52.53 47.3073 51.84 47.3073 51.0975C47.3073 49.935 47.3902 48.7575 46.7652 47.7C46.193 46.7325 45.0184 46.305 43.9492 46.2225C43.6932 46.2 43.5276 46.2225 43.2791 46.2075C41.5473 46.1025 39.8382 46.2225 38.2269 46.8975C37.7149 47.1075 37.1652 47.1975 36.6156 47.19C35.2 47.1675 33.8673 46.605 32.497 46.3125C31.8193 46.17 31.1869 46.14 30.5017 46.185C29.7939 46.23 29.0862 46.275 28.4989 46.725C27.9718 47.13 27.6104 47.715 27.4071 48.3375C27.264 48.7725 27.1887 49.2225 27.1436 49.6725C27.0833 50.2425 27.249 50.7825 27.2038 51.345C27.121 52.3275 26.9403 53.265 26.4659 54.135C26.3455 54.36 26.2551 54.6075 26.1572 54.84C26.0593 55.05 25.9238 55.2075 25.7958 55.4025C25.5172 55.8225 25.2085 56.235 25.0127 56.7075C24.5685 57.78 24.8471 58.965 24.8622 60.0825C24.8697 60.54 24.8622 61.035 24.561 61.4175C24.2523 61.8075 23.8306 61.695 23.537 61.35C23.2283 60.99 23.1906 60.525 23.1153 60.075C23.0626 59.8725 23.0325 59.6625 23.0024 59.4525Z" fill="#994E17"/>
<path d="M43.0915 77.5651C43.0915 77.5879 43.0991 77.6032 43.0991 77.626C43.0762 77.6108 43.0609 77.6184 43.0532 77.5727C43.0685 77.5651 43.0838 77.5651 43.0915 77.5651Z" fill="#8CC295"/>
<path d="M43.6329 57.825C43.7158 58.23 43.5802 58.665 43.3543 59.01C43.1059 59.385 42.5487 59.4375 42.1346 59.325C41.216 59.0775 40.9449 57.9825 41.5849 57.3075C41.9313 56.94 42.511 56.685 42.9929 56.94C43.2866 57.09 43.5652 57.495 43.6329 57.825Z" fill="#2B1A0F"/>
<path d="M32.0149 77.655C32.0149 77.6175 32.0149 77.5725 32.0149 77.535C32.0525 76.71 32.0676 75.8925 32.0149 75.0675C31.9923 74.655 31.9471 74.25 31.8869 73.8375C31.8643 73.665 31.8041 73.4925 31.7739 73.3275C31.7438 73.1775 31.789 72.9375 31.6836 72.81L31.7589 72.675C31.8568 72.735 31.9547 72.7875 32.0525 72.8475C32.1504 72.9675 32.2408 73.0875 32.3236 73.1775C32.8055 73.68 33.2422 74.1825 33.7994 74.6025C34.6201 75.2175 35.4784 75.84 36.4347 76.2075C37.5264 76.635 38.7763 76.935 39.9509 77.025C40.9975 77.1075 41.9763 76.8525 42.9928 76.7925C43.0003 76.9425 43.0154 77.0925 43.0379 77.2425C43.053 77.3475 43.0681 77.4526 43.0831 77.5576C43.0681 77.5576 43.0605 77.5575 43.0455 77.565C43.053 77.61 43.0681 77.61 43.0907 77.6175C43.1358 77.88 43.1961 78.135 43.2412 78.39C43.309 78.7425 43.3542 79.095 43.3391 79.47C43.3015 80.1525 43.1132 80.8275 42.8045 81.4351C42.2022 82.6501 41.1405 83.6551 39.8681 84.1426C39.6196 84.2401 39.3711 84.3525 39.1151 84.4425C38.6634 84.6 38.1363 84.66 37.6619 84.6375C37.1725 84.615 36.6605 84.5175 36.1937 84.39C35.4107 84.18 34.7556 83.97 34.093 83.4825C33.0916 82.7475 32.3161 81.6826 31.9998 80.4751C31.8794 80.0026 31.8718 79.6425 31.9622 79.1775C32.0074 78.96 32.0149 78.7426 32.0149 78.5176C32.0299 78.2401 32.0074 77.9475 32.0149 77.655Z" fill="#F5B49B"/>
<path d="M44.7171 53.235C44.9128 53.55 44.7321 53.895 44.3783 53.9475C44.047 54 43.7307 53.8575 43.4295 53.7525C43.294 53.7075 43.1434 53.6475 43.0004 53.61C42.8272 53.565 42.654 53.625 42.4808 53.6175C41.9764 53.6025 41.5321 53.7975 41.0653 53.94C40.9373 53.9775 40.7792 53.9925 40.6512 53.925C40.222 53.6775 40.5608 53.2575 40.8168 53.0325C40.9975 52.875 41.1557 52.77 41.3891 52.6875C41.6827 52.575 42.014 52.455 42.3227 52.41C42.5862 52.3725 42.8648 52.35 43.1359 52.38C43.6855 52.4325 44.4159 52.7475 44.7171 53.235Z" fill="#1E244A"/>
<path d="M33.6036 53.235C33.7993 53.55 33.6186 53.895 33.2648 53.9475C32.9335 54 32.6172 53.8575 32.3161 53.7525C32.1805 53.7075 32.0299 53.6475 31.8869 53.61C31.7137 53.565 31.5405 53.625 31.3673 53.6175C30.8629 53.6025 30.4186 53.7975 29.9518 53.94C29.8313 53.9775 29.6657 53.9925 29.5452 53.925C29.1161 53.6775 29.4549 53.2575 29.7109 53.0325C29.8916 52.875 30.0497 52.77 30.2831 52.6875C30.5768 52.575 30.9081 52.455 31.2168 52.41C31.4803 52.3725 31.7589 52.35 32.0299 52.38C32.5721 52.4325 33.3024 52.7475 33.6036 53.235Z" fill="#1E244A"/>
<path d="M32.6852 57.825C32.768 58.23 32.6325 58.665 32.4066 59.01C32.1581 59.385 31.6009 59.4375 31.1868 59.325C30.2682 59.0775 29.9972 57.9825 30.6372 57.3075C30.9835 56.94 31.5633 56.685 32.0452 56.94C32.3464 57.09 32.6249 57.495 32.6852 57.825Z" fill="#2B1A0F"/>
<path d="M32.0601 72.855C31.9622 72.8025 31.8644 72.7425 31.7665 72.6825C31.1942 72.36 30.6371 72.0075 30.0874 71.625C29.0107 70.8675 27.8512 69.99 27.0531 68.9325C26.5787 68.3025 26.0968 67.7025 25.5999 67.0875C25.1632 66.54 24.8771 65.8875 24.4554 65.3325C24.0036 64.74 23.4916 64.6425 22.8667 64.29C22.2267 63.93 21.6244 63.435 21.1952 62.835C21.0295 62.6025 20.8488 62.43 20.7359 62.16C20.6079 61.875 20.4799 61.5975 20.4046 61.29C20.2465 60.6825 20.2389 60.03 20.4799 59.4375C20.6832 58.9575 21.1801 58.59 21.6996 58.5375C22.3999 58.47 22.6333 58.9725 22.9947 59.445C23.0248 59.655 23.0549 59.865 23.0926 60.0675C23.1679 60.5175 23.2055 60.975 23.5142 61.3425C23.8154 61.695 24.2295 61.8 24.5382 61.41C24.8394 61.035 24.8469 60.5325 24.8394 60.075C24.8244 58.9575 24.5458 57.78 24.99 56.7C25.1858 56.2275 25.4945 55.815 25.7731 55.395C25.9011 55.2 26.0441 55.0425 26.1345 54.8325C26.2399 54.6 26.3227 54.3525 26.4432 54.1275C26.9175 53.2575 27.0982 52.32 27.1811 51.3375C27.2262 50.775 27.0606 50.235 27.1208 49.665C27.166 49.215 27.2488 48.7575 27.3844 48.33C27.5876 47.7075 27.9491 47.1225 28.4761 46.7175C29.0634 46.2675 29.7712 46.2225 30.4789 46.1775C31.1566 46.1325 31.7966 46.1625 32.4742 46.305C33.8446 46.59 35.1773 47.1525 36.5928 47.1825C37.1425 47.19 37.6997 47.1075 38.2041 46.89C39.8154 46.215 41.5246 46.095 43.2564 46.2C43.5048 46.215 43.6705 46.2 43.9265 46.215C44.9957 46.2975 46.1702 46.725 46.7425 47.6925C47.3674 48.75 47.2846 49.9275 47.2846 51.09C47.2846 51.84 47.3298 52.53 47.5029 53.2575C47.6611 53.9175 47.8945 54.63 48.2785 55.1925C49.0164 56.28 49.2498 57.7125 49.2799 58.995C49.2874 59.385 49.1519 61.4925 49.8822 61.3875C50.1081 61.3575 50.2587 61.0725 50.3265 60.8925C50.4018 60.6825 50.4244 60.4725 50.4394 60.2475C50.462 59.97 50.4846 59.595 50.462 59.3175C50.4545 59.235 50.4545 59.145 50.4469 59.0625H50.4846C51.102 58.14 52.4347 58.62 52.8037 59.4975C53.0597 60.105 53.0446 60.78 52.879 61.4025C52.7961 61.7175 52.6681 62.0025 52.5326 62.3025C52.4121 62.58 52.2314 62.7525 52.0582 63C51.614 63.615 50.9966 64.125 50.334 64.5C49.8446 64.7775 49.3326 64.995 48.8357 65.25L48.798 65.235C48.1655 66.6675 47.39 68.16 46.4187 69.3225C45.6582 70.23 44.7397 71.13 43.8813 71.955C43.6328 72.195 43.3542 72.435 43.0531 72.6675C41.5848 73.8 39.5971 74.79 37.8954 74.85V74.8875C37.2554 74.8725 36.5778 74.76 35.9604 74.5875C35.1924 74.3775 34.4319 74.1375 33.7241 73.7625C33.1895 73.4625 32.6173 73.1625 32.0601 72.855Z" fill="#F5B49B"/>
<path d="M46.1777 106.11C46.6069 104.565 47.0511 103.027 47.3598 101.445C47.6384 100.005 47.8116 98.5575 48.1052 97.125C48.7754 93.8775 48.7904 90.5925 48.2634 87.3225C48.1052 86.37 48.045 85.4175 47.8041 84.4725C47.3372 82.6275 46.4939 80.8275 45.0483 79.545C44.5137 79.0725 43.7834 78.84 43.2563 78.3975C43.3241 78.75 43.3692 79.1025 43.3542 79.4775C43.3165 80.16 43.1283 80.835 42.8196 81.4425C42.2172 82.6575 41.1556 83.6625 39.8831 84.15C39.6347 84.2475 39.3862 84.36 39.1302 84.45C38.6784 84.6075 38.1514 84.6675 37.677 84.645C37.1876 84.6225 36.6756 84.525 36.2088 84.3975C35.4257 84.1875 34.7706 83.9775 34.1081 83.49C33.1066 82.755 32.3311 81.69 32.0149 80.4825C31.8944 80.01 31.8869 79.65 31.9772 79.185C32.0224 78.9675 32.0299 78.75 32.0299 78.525C31.8794 78.6825 31.5481 78.8625 31.3598 79.035C30.1852 80.0925 29.5904 81.9 29.0483 83.34C28.0619 85.995 27.8586 88.8225 27.8285 91.635C27.8059 94.5 27.9866 97.35 28.4309 100.185C28.6718 101.707 28.9881 103.215 29.3947 104.7" fill="#F7FCFF"/>
<path d="M39.2961 45.5475C39.2509 45.5475 39.2133 45.5325 39.1831 45.5025C39.1154 45.4425 39.1154 45.3375 39.1831 45.27C40.3728 44.0625 40.9224 42.48 41.3064 41.0925C41.329 41.0025 41.4194 40.9575 41.5097 40.98C41.6001 41.0025 41.6453 41.0925 41.6227 41.1825C40.9224 43.7325 40.1168 44.7975 39.4166 45.5025C39.3864 45.5325 39.3413 45.5475 39.2961 45.5475Z" fill="black"/>
<path d="M41.9312 45.615C41.8634 45.615 41.8032 45.57 41.773 45.5025C41.7429 45.42 41.7881 45.3225 41.8709 45.2925C42.7443 44.985 43.5274 44.535 44.1975 43.95C44.2653 43.89 44.3707 43.8975 44.4309 43.965C44.4912 44.0325 44.4836 44.1375 44.4159 44.1975C43.7156 44.8125 42.8949 45.285 41.9839 45.6C41.9688 45.6075 41.9537 45.615 41.9312 45.615Z" fill="black"/>
<path d="M34.4095 44.0326C34.3342 44.0326 34.2664 43.9801 34.2514 43.9051C33.8824 42.2026 32.9262 40.9201 31.6236 40.3726C31.5408 40.3351 31.5031 40.2451 31.5333 40.1551C31.5709 40.0726 31.6612 40.0351 31.7516 40.0651C33.1521 40.6501 34.1836 42.0226 34.5751 43.8301C34.5977 43.9201 34.5375 44.0026 34.4471 44.0251C34.4321 44.0251 34.417 44.0326 34.4095 44.0326Z" fill="black"/>
<path d="M28.8828 43.9501C28.8527 43.9501 28.8301 43.9426 28.8 43.9276C27.8136 43.3801 26.8574 43.1626 25.9765 43.2901C25.8861 43.3051 25.8033 43.2376 25.7882 43.1476C25.7732 43.0576 25.8409 42.9751 25.9313 42.9601C26.8875 42.8251 27.904 43.0576 28.9581 43.6351C29.0409 43.6801 29.0635 43.7776 29.0184 43.8601C28.9958 43.9201 28.9431 43.9501 28.8828 43.9501Z" fill="black"/>
<path d="M23.4991 63.3825C23.4389 63.3825 23.3787 63.3525 23.3561 63.2925C23.2732 63.1275 23.1076 63.015 22.942 62.9025C22.7462 62.7675 22.5203 62.6175 22.4149 62.355C22.302 62.085 22.3772 61.8375 22.445 61.6275C22.4751 61.5375 22.4977 61.4475 22.5128 61.3575C22.5278 61.2675 22.4977 61.1925 22.4601 61.095C22.445 61.05 22.4224 60.9975 22.4074 60.945C22.3622 60.7725 22.317 60.6675 22.2116 60.585C21.9481 60.375 21.7147 60.27 21.5565 60.285C21.4737 60.3 21.3984 60.345 21.3382 60.435C21.2855 60.51 21.1801 60.525 21.1123 60.4725C21.037 60.42 21.022 60.315 21.0747 60.2475C21.1876 60.0825 21.3382 59.985 21.5189 59.9625C21.7824 59.925 22.0836 60.0525 22.43 60.33C22.6182 60.48 22.6784 60.675 22.7311 60.855C22.7462 60.9 22.7612 60.9375 22.7763 60.9825C22.8215 61.1025 22.8667 61.2375 22.8441 61.41C22.829 61.5225 22.7989 61.6275 22.7612 61.725C22.701 61.92 22.6558 62.07 22.7236 62.235C22.7914 62.4075 22.9495 62.5125 23.1302 62.6325C23.3184 62.76 23.5368 62.9025 23.6572 63.15C23.6949 63.2325 23.6648 63.33 23.582 63.3675C23.5443 63.375 23.5217 63.3825 23.4991 63.3825Z" fill="#AB684D"/>
<path d="M49.9952 63.5776C49.9726 63.5776 49.9425 63.5701 49.9199 63.5626C49.8371 63.5251 49.807 63.4276 49.8446 63.3451C49.9726 63.0901 50.191 62.9476 50.3868 62.8126C50.575 62.6851 50.7406 62.5726 50.8084 62.4001C50.8762 62.2276 50.8235 62.0626 50.7632 61.8676C50.7331 61.7626 50.6955 61.6576 50.6804 61.5451C50.6578 61.3726 50.703 61.2301 50.7482 61.1101C50.7632 61.0651 50.7783 61.0201 50.7933 60.9826C50.8461 60.7951 50.9138 60.5926 51.1021 60.4426C51.4559 60.1576 51.7722 60.0301 52.0357 60.0676C52.2164 60.0901 52.3745 60.1876 52.4875 60.3601C52.5402 60.4351 52.5251 60.5326 52.4498 60.5851C52.3745 60.6376 52.2766 60.6226 52.2239 60.5476C52.1562 60.4576 52.0809 60.4051 51.9905 60.3901C51.8249 60.3676 51.5764 60.4801 51.3053 60.6976C51.1999 60.7876 51.1548 60.8926 51.1021 61.0726C51.087 61.1251 51.0644 61.1776 51.0493 61.2301C51.0117 61.3351 50.9816 61.4176 50.9966 61.5076C51.0117 61.5976 51.0418 61.6876 51.0644 61.7851C51.1322 62.0026 51.2075 62.2501 51.0945 62.5351C50.9891 62.8051 50.7632 62.9551 50.5524 63.0976C50.3792 63.2176 50.2061 63.3301 50.1232 63.5026C50.1157 63.5476 50.0555 63.5776 49.9952 63.5776Z" fill="#AB684D"/>
<path d="M60.8455 91.9125C60.8229 91.9125 60.8003 91.905 60.7852 91.8975C60.7024 91.86 60.6648 91.77 60.6949 91.6875C60.9584 91.035 61.3424 90.4425 61.7038 89.8725C61.9523 89.4825 62.2083 89.085 62.4191 88.6725C62.4643 88.59 62.5622 88.56 62.6375 88.605C62.7203 88.65 62.7504 88.7475 62.7052 88.8225C62.4869 89.2425 62.2233 89.6475 61.9749 90.045C61.6135 90.6075 61.2445 91.185 60.9885 91.8075C60.9659 91.875 60.9057 91.9125 60.8455 91.9125Z" fill="#2E5378"/>
<path d="M58.5488 113.325C58.1648 109.455 57.8335 105.667 58.0669 101.902C58.2401 99.1725 58.8425 96.2625 59.9116 93C59.9417 92.9175 60.0321 92.865 60.1149 92.895C60.1977 92.925 60.2505 93.015 60.2203 93.0975C59.1587 96.33 58.5639 99.2175 58.3907 101.918C58.1573 105.66 58.481 109.433 58.8726 113.288" fill="#2E5378"/>
<path d="M20.5176 101.783C23.326 101.13 26.142 100.088 28.559 98.5275C32.1355 96.1875 32.7152 91.2225 30.8931 87.6C30.6973 87.3075 30.6296 87.6825 30.4639 87.87C28.318 91.4625 27.5802 95.7 26.9628 99.7875C26.3905 103.958 26.2324 108.63 25.9463 112.853C25.871 113.603 26.0065 114.683 25.103 114.998C24.2597 115.283 23.4691 115.013 22.7764 114.758C22.0912 114.488 21.3082 114.015 21.0446 113.168C20.7886 112.343 21.0446 111.533 21.3082 110.85C21.8653 109.478 22.543 108.173 23.2733 106.905C24.7868 104.288 26.6691 101.633 29.5378 100.35C29.5755 100.538 29.839 101.813 29.8842 102.03L29.5604 101.888C32.911 100.095 37.1124 99.18 40.7792 99.8175C36.879 99.555 32.8809 100.41 29.5228 102.413C29.4851 102.248 29.1839 100.95 29.1388 100.748L29.4776 100.905C26.9176 102.24 25.231 104.715 23.7853 107.19C23.0625 108.443 22.4225 109.748 21.8578 111.068C21.2103 112.463 21.4286 113.7 22.9872 114.255C23.6272 114.518 24.35 114.713 24.9223 114.518C25.5698 114.27 25.3665 113.385 25.487 112.815L25.8635 108.465C26.5712 101.633 26.895 94.4625 29.8465 88.14C30.1251 87.75 30.3133 86.895 30.9609 87.09C31.3072 87.225 31.4202 87.615 31.5406 87.87C32.5571 90.2625 32.8056 93.0825 31.6762 95.49C30.4865 98.3475 27.5425 99.765 24.7943 100.733C23.4239 101.16 21.8503 101.738 20.5176 101.783Z" fill="#00186F"/>
<path d="M81.9125 28.0425C81.3327 28.0425 80.8433 27.855 80.4442 27.48C80.0527 27.0975 79.8569 26.6175 79.8569 26.0325C79.8569 25.4475 80.0527 24.9675 80.4442 24.5925C80.8282 24.21 81.3176 24.0225 81.9125 24.0225C82.3115 24.0225 82.6654 24.1125 82.9666 24.285V24.9C82.6503 24.6975 82.304 24.5925 81.9125 24.5925C81.5059 24.5925 81.1595 24.7275 80.8885 25.005C80.6174 25.275 80.4819 25.62 80.4819 26.04C80.4819 26.46 80.6174 26.805 80.896 27.075C81.1746 27.345 81.5209 27.48 81.9351 27.48C82.3793 27.48 82.7482 27.36 83.0494 27.1275V27.7425C82.7332 27.9375 82.3492 28.0425 81.9125 28.0425Z" fill="black"/>
<path d="M84.3296 27.9675H83.8101V24.09H84.4199V26.94L86.5658 24.09H87.1004V27.9675H86.4905V25.11L84.3296 27.9675Z" fill="black"/>
<path d="M88.237 28.8H87.6572V27.405H88.0337C88.237 27.0975 88.3876 26.7375 88.4855 26.325C88.5833 25.8975 88.6285 25.335 88.6285 24.6225V24.0825H91.2036V27.405H91.7683V28.8H91.1885V27.9675H88.237V28.8ZM88.7038 27.405H90.5937V24.645H89.2233C89.2233 25.29 89.1857 25.8375 89.1029 26.2725C89.0276 26.7225 88.892 27.0975 88.7038 27.405Z" fill="black"/>
<path d="M95.6989 27.465C95.3224 27.8475 94.8481 28.0425 94.2758 28.0425C93.7036 28.0425 93.2293 27.8475 92.8528 27.465C92.4763 27.075 92.2881 26.595 92.2881 26.0325C92.2881 25.4625 92.4763 24.99 92.8528 24.6C93.2293 24.21 93.7036 24.015 94.2758 24.015C94.8481 24.015 95.3224 24.21 95.6989 24.6C96.0754 24.9825 96.2636 25.4625 96.2636 26.0325C96.2636 26.6025 96.0754 27.075 95.6989 27.465ZM93.3046 27.06C93.5681 27.33 93.8918 27.4725 94.2758 27.4725C94.6598 27.4725 94.9836 27.3375 95.2471 27.06C95.5107 26.7825 95.6387 26.4375 95.6387 26.0325C95.6387 25.62 95.5107 25.2825 95.2471 25.005C94.9836 24.7275 94.6598 24.5925 94.2758 24.5925C93.8918 24.5925 93.5681 24.7275 93.3046 25.005C93.041 25.275 92.913 25.62 92.913 26.0325C92.913 26.4375 93.041 26.7825 93.3046 27.06Z" fill="black"/>
<path d="M97.7017 27.9675H97.0918V24.09H98.7633C99.1699 24.09 99.4861 24.195 99.712 24.405C99.9454 24.6075 100.066 24.8775 100.066 25.215C100.066 25.5525 99.9454 25.83 99.712 26.0475C99.4861 26.265 99.1699 26.37 98.7633 26.37H97.7017V27.9675ZM97.7017 24.645V25.8H98.7182C98.9516 25.8 99.1247 25.7475 99.2603 25.65C99.3883 25.545 99.456 25.4025 99.456 25.2225C99.456 25.035 99.3958 24.8925 99.2678 24.795C99.1398 24.6975 98.9591 24.645 98.7257 24.645H97.7017Z" fill="black"/>
<path d="M104.049 27.465C103.673 27.8475 103.198 28.0425 102.626 28.0425C102.054 28.0425 101.579 27.8475 101.203 27.465C100.826 27.075 100.638 26.595 100.638 26.0325C100.638 25.4625 100.826 24.99 101.203 24.6C101.579 24.21 102.054 24.015 102.626 24.015C103.198 24.015 103.673 24.21 104.049 24.6C104.425 24.9825 104.614 25.4625 104.614 26.0325C104.614 26.6025 104.425 27.075 104.049 27.465ZM101.655 27.06C101.918 27.33 102.242 27.4725 102.626 27.4725C103.01 27.4725 103.334 27.3375 103.597 27.06C103.861 26.7825 103.989 26.4375 103.989 26.0325C103.989 25.62 103.861 25.2825 103.597 25.005C103.334 24.7275 103.01 24.5925 102.626 24.5925C102.242 24.5925 101.918 24.7275 101.655 25.005C101.391 25.275 101.263 25.62 101.263 26.0325C101.271 26.4375 101.399 26.7825 101.655 27.06Z" fill="black"/>
<path d="M107.362 27.9675H105.449V24.09H107.219C107.573 24.09 107.851 24.1725 108.054 24.345C108.258 24.5175 108.363 24.75 108.363 25.0425C108.363 25.2375 108.318 25.4025 108.22 25.545C108.122 25.6875 108.002 25.785 107.844 25.845C108.092 25.89 108.288 26.0025 108.438 26.19C108.597 26.3775 108.672 26.6025 108.672 26.88C108.672 27.21 108.551 27.4725 108.318 27.675C108.085 27.87 107.768 27.9675 107.362 27.9675ZM106.059 24.645V25.65H107.113C107.317 25.65 107.475 25.605 107.588 25.5225C107.701 25.4325 107.753 25.3125 107.753 25.1475C107.753 24.9825 107.693 24.8625 107.588 24.7725C107.475 24.69 107.317 24.645 107.113 24.645H106.059ZM106.059 26.19V27.4125H107.249C107.49 27.4125 107.67 27.36 107.806 27.2475C107.941 27.135 108.009 26.985 108.009 26.79C108.009 26.595 107.941 26.4525 107.806 26.3475C107.67 26.2425 107.482 26.19 107.241 26.19H106.059Z" fill="black"/>
<path d="M80.5271 36.2849H80V32.3999H80.6099V35.2499L82.7558 32.3999H83.2904V36.2774H82.6805V33.4199L80.5271 36.2849Z" fill="black"/>
<path d="M86.1742 36.2849H84.2617V32.3999H86.0311C86.385 32.3999 86.6636 32.4824 86.8669 32.6549C87.0702 32.8274 87.1756 33.0599 87.1756 33.3524C87.1756 33.5474 87.1304 33.7124 87.0325 33.8549C86.9347 33.9974 86.8142 34.0949 86.6561 34.1549C86.9045 34.1999 87.1003 34.3124 87.2509 34.4999C87.4015 34.6874 87.4843 34.9124 87.4843 35.1899C87.4843 35.5199 87.3638 35.7824 87.1304 35.9849C86.897 36.1799 86.5808 36.2849 86.1742 36.2849ZM84.8716 32.9624V33.9674H85.9257C86.129 33.9674 86.2871 33.9224 86.4001 33.8399C86.513 33.7499 86.5732 33.6299 86.5732 33.4649C86.5732 33.2999 86.513 33.1799 86.4001 33.0899C86.2871 33.0074 86.129 32.9624 85.9257 32.9624H84.8716ZM84.8716 34.4999V35.7224H86.0612C86.3022 35.7224 86.4829 35.6699 86.6184 35.5574C86.754 35.4449 86.8217 35.2949 86.8217 35.0999C86.8217 34.9049 86.754 34.7624 86.6184 34.6574C86.4829 34.5524 86.2947 34.4999 86.0537 34.4999H84.8716Z" fill="black"/>
<path d="M88.5608 36.285H87.9058L89.6074 32.385H90.1947L91.8964 36.285H91.2413L90.8197 35.3175H88.9749L88.5608 36.285ZM89.9011 33.15L89.1858 34.7775H90.6088L89.9011 33.15Z" fill="black"/>
<path d="M93.1236 36.2849H92.5137V32.3999H93.1236V33.9299H95.1565V32.3999H95.7664V36.2774H95.1565V34.4849H93.1236V36.2849Z" fill="black"/>
<path d="M98.4773 36.285H97.8223L99.5239 32.385H100.111L101.813 36.285H101.158L100.736 35.3175H98.8914L98.4773 36.285ZM99.8176 33.15L99.1023 34.7775H100.525L99.8176 33.15Z" fill="black"/>
<path d="M101.994 36.2699V35.7149C102.039 35.7299 102.114 35.7374 102.197 35.7374C102.468 35.7374 102.656 35.5649 102.739 35.2274C102.829 34.9349 102.882 34.4399 102.897 33.7274L102.912 32.3999H105.502V36.2774H104.892V32.9549H103.5L103.484 33.7874C103.469 34.6274 103.379 35.2499 103.213 35.6549C103.04 36.0824 102.709 36.2924 102.227 36.2924C102.137 36.2999 102.061 36.2924 101.994 36.2699Z" fill="black"/>
<path d="M109.327 36.2849H106.481V32.3999H109.252V32.9624H107.091V33.9299H108.853V34.4924H107.091V35.7224H109.32V36.2849H109.327Z" fill="black"/>
<path d="M110.66 36.2849H110.05V32.3999H110.66V33.9824L112.256 32.3999H113.039L111.239 34.1774L113.333 36.2849H112.497L110.66 34.4249V36.2849Z" fill="black"/>
<path d="M115.411 36.3524C114.831 36.3524 114.342 36.1649 113.943 35.7899C113.551 35.4074 113.355 34.9274 113.355 34.3424C113.355 33.7574 113.551 33.2774 113.943 32.9024C114.327 32.5199 114.816 32.3324 115.411 32.3324C115.81 32.3324 116.164 32.4224 116.465 32.5949V33.2099C116.149 33.0074 115.803 32.9024 115.411 32.9024C115.004 32.9024 114.658 33.0374 114.387 33.3149C114.116 33.5849 113.98 33.9299 113.98 34.3499C113.98 34.7699 114.116 35.1149 114.395 35.3849C114.673 35.6549 115.019 35.7899 115.434 35.7899C115.878 35.7899 116.247 35.6699 116.548 35.4374V36.0524C116.224 36.2474 115.84 36.3524 115.411 36.3524Z" fill="black"/>
<path d="M117.595 36.285H116.939L118.641 32.385H119.228L120.93 36.285H120.275L119.853 35.3175H118.009L117.595 36.285ZM118.935 33.15L118.219 34.7775H119.643L118.935 33.15Z" fill="black"/>
<path d="M122.157 36.2849H121.547V32.3999H122.157V33.9299H124.19V32.3999H124.8V36.2774H124.19V34.4849H122.157V36.2849Z" fill="black"/>
<path d="M125.937 37.1174H125.357V35.7224H125.734C125.937 35.4149 126.088 35.0549 126.186 34.6424C126.284 34.2149 126.329 33.6524 126.329 32.9399V32.3999H128.904V35.7224H129.468V37.1174H128.889V36.2849H125.937V37.1174ZM126.404 35.7224H128.294V32.9624H126.924C126.924 33.6074 126.886 34.1549 126.803 34.5899C126.728 35.0324 126.592 35.4149 126.404 35.7224Z" fill="black"/>
<path d="M130.733 36.2849H130.124V32.3999H131.795C132.202 32.3999 132.518 32.5049 132.744 32.7149C132.977 32.9174 133.098 33.1874 133.098 33.5249C133.098 33.8624 132.977 34.1399 132.744 34.3574C132.518 34.5749 132.202 34.6799 131.795 34.6799H130.733V36.2849ZM130.733 32.9624V34.1174H131.75C131.983 34.1174 132.156 34.0649 132.292 33.9674C132.42 33.8624 132.488 33.7199 132.488 33.5399C132.488 33.3524 132.428 33.2099 132.3 33.1124C132.172 33.0149 131.991 32.9624 131.757 32.9624H130.733Z" fill="black"/>
<path d="M137.08 35.775C136.704 36.1575 136.229 36.3525 135.657 36.3525C135.085 36.3525 134.611 36.1575 134.234 35.775C133.858 35.385 133.669 34.905 133.669 34.3425C133.669 33.7725 133.858 33.3 134.234 32.91C134.611 32.52 135.085 32.325 135.657 32.325C136.229 32.325 136.704 32.52 137.08 32.91C137.457 33.2925 137.645 33.7725 137.645 34.3425C137.645 34.9125 137.457 35.3925 137.08 35.775ZM134.686 35.37C134.949 35.64 135.273 35.7825 135.657 35.7825C136.041 35.7825 136.365 35.6475 136.628 35.37C136.892 35.0925 137.028 34.7475 137.028 34.3425C137.028 33.93 136.9 33.5925 136.628 33.315C136.365 33.0375 136.041 32.9025 135.657 32.9025C135.273 32.9025 134.949 33.0375 134.686 33.315C134.43 33.585 134.294 33.93 134.294 34.3425C134.302 34.755 134.43 35.1 134.686 35.37Z" fill="black"/>
<path d="M140.393 36.2849H138.481V32.3999H140.25C140.604 32.3999 140.883 32.4824 141.086 32.6549C141.289 32.8274 141.395 33.0599 141.395 33.3524C141.395 33.5474 141.35 33.7124 141.252 33.8549C141.154 33.9974 141.033 34.0949 140.875 34.1549C141.124 34.1999 141.32 34.3124 141.47 34.4999C141.621 34.6874 141.704 34.9124 141.704 35.1899C141.704 35.5199 141.583 35.7824 141.35 35.9849C141.116 36.1799 140.8 36.2849 140.393 36.2849ZM139.091 32.9624V33.9674H140.145C140.348 33.9674 140.506 33.9224 140.619 33.8399C140.732 33.7499 140.792 33.6299 140.792 33.4649C140.792 33.2999 140.732 33.1799 140.619 33.0899C140.506 33.0074 140.348 32.9624 140.145 32.9624H139.091ZM139.091 34.4999V35.7224H140.28C140.521 35.7224 140.702 35.6699 140.838 35.5574C140.973 35.4449 141.041 35.2949 141.041 35.0999C141.041 34.9049 140.973 34.7624 140.838 34.6574C140.702 34.5524 140.514 34.4999 140.273 34.4999H139.091Z" fill="black"/>
<path d="M143.014 36.2849H142.487V32.3999H143.097V35.2499L145.243 32.3999H145.777V36.2774H145.167V33.4199L143.014 36.2849Z" fill="black"/>
<path d="M149.625 36.2849H149.015V34.6574C148.706 34.7699 148.367 34.8299 148.013 34.8299C147.08 34.8299 146.613 34.4174 146.613 33.5999V32.3999H147.223V33.4724C147.223 33.7574 147.29 33.9599 147.434 34.0799C147.577 34.1999 147.802 34.2599 148.104 34.2599C148.427 34.2599 148.729 34.1924 149.015 34.0649V32.3999H149.625V36.2849Z" fill="black"/>
<path d="M80.6324 44.6249H80.03V41.3999L79.1792 41.8574V41.2649L80.0978 40.7474H80.6324V44.6249Z" fill="black"/>
<path d="M84.0885 44.625H81.3779V44.1825L82.6052 43.0425C82.8612 42.8025 83.057 42.5925 83.1775 42.42C83.2904 42.255 83.3431 42.075 83.3431 41.8875C83.3431 41.6925 83.2753 41.535 83.1323 41.415C82.9892 41.295 82.801 41.235 82.5751 41.235C82.1911 41.235 81.8222 41.3925 81.4833 41.715V41.0775C81.7996 40.8075 82.1836 40.6725 82.6353 40.6725C83.0043 40.6725 83.313 40.7775 83.569 40.9875C83.825 41.1975 83.9605 41.475 83.9605 41.8125C83.9605 42.075 83.8927 42.315 83.7647 42.525C83.6292 42.7425 83.4109 42.9975 83.1097 43.2825L82.2664 44.0775H84.0885V44.625Z" fill="black"/>
<path d="M85.0746 44.67C84.9617 44.67 84.8713 44.6325 84.796 44.5575C84.7208 44.4825 84.6831 44.385 84.6831 44.28C84.6831 44.175 84.7208 44.085 84.796 44.0025C84.8713 43.9275 84.9692 43.89 85.0746 43.89C85.18 43.89 85.2704 43.9275 85.3457 44.0025C85.421 44.0775 85.4662 44.1675 85.4662 44.28C85.4662 44.3925 85.4285 44.4825 85.3532 44.5575C85.2704 44.6325 85.18 44.67 85.0746 44.67Z" fill="black"/>
<path d="M87.5069 44.7C87.01 44.7 86.6185 44.505 86.3173 44.115C86.0236 43.7175 85.873 43.245 85.873 42.6825C85.873 42.1275 86.0236 41.655 86.3173 41.2575C86.6185 40.8675 87.0175 40.6725 87.5069 40.6725C88.0114 40.6725 88.4029 40.8675 88.6966 41.2575C88.9978 41.6475 89.1483 42.1275 89.1483 42.6825C89.1483 43.245 88.9978 43.7175 88.6966 44.115C88.4029 44.505 88.0039 44.7 87.5069 44.7ZM87.5069 44.1225C87.8156 44.1225 88.0641 43.98 88.2523 43.71C88.4406 43.4325 88.5385 43.0875 88.5385 42.6825C88.5385 42.2775 88.4481 41.9325 88.2523 41.655C88.0641 41.3775 87.8156 41.2425 87.5069 41.2425C87.2058 41.2425 86.9573 41.385 86.769 41.6625C86.5808 41.94 86.4829 42.2775 86.4829 42.6825C86.4829 43.08 86.5808 43.425 86.769 43.71C86.9497 43.9875 87.1982 44.1225 87.5069 44.1225Z" fill="black"/>
<path d="M92.401 44.625H89.6904V44.1825L90.9177 43.0425C91.1737 42.8025 91.3695 42.5925 91.49 42.42C91.6029 42.255 91.6556 42.075 91.6556 41.8875C91.6556 41.6925 91.5878 41.535 91.4448 41.415C91.3017 41.295 91.1135 41.235 90.8876 41.235C90.5036 41.235 90.1347 41.3925 89.7958 41.715V41.0775C90.1121 40.8075 90.4961 40.6725 90.9478 40.6725C91.3168 40.6725 91.6255 40.7775 91.8815 40.9875C92.1375 41.1975 92.273 41.475 92.273 41.8125C92.273 42.075 92.2053 42.315 92.0773 42.525C91.9417 42.7425 91.7234 42.9975 91.4222 43.2825L90.5789 44.0775H92.401V44.625Z" fill="black"/>
<path d="M93.3798 44.67C93.2669 44.67 93.1765 44.6325 93.1012 44.5575C93.0259 44.4825 92.9883 44.385 92.9883 44.28C92.9883 44.175 93.0259 44.085 93.1012 44.0025C93.1765 43.9275 93.2744 43.89 93.3798 43.89C93.4852 43.89 93.5756 43.9275 93.6509 44.0025C93.7262 44.0775 93.7713 44.1675 93.7713 44.28C93.7713 44.3925 93.7337 44.4825 93.6584 44.5575C93.5831 44.6325 93.4852 44.67 93.3798 44.67Z" fill="black"/>
<path d="M95.3902 44.6249H94.7878V41.3999L93.937 41.8574V41.2649L94.8556 40.7474H95.3902V44.6249Z" fill="black"/>
<path d="M97.6187 40.6725C98.093 40.6725 98.462 40.83 98.733 41.1525C99.0041 41.4675 99.1396 41.9175 99.1396 42.4875C99.1396 43.11 98.9815 43.635 98.6803 44.0625C98.3792 44.4825 97.95 44.6925 97.4003 44.6925C97.0766 44.6925 96.7905 44.61 96.542 44.445V43.89C96.7829 44.055 97.0465 44.1375 97.3326 44.1375C97.709 44.1375 97.9952 44.01 98.1909 43.7475C98.3942 43.4925 98.4996 43.1775 98.5147 42.8025C98.2888 43.095 97.95 43.2375 97.5057 43.2375C97.1443 43.2375 96.8507 43.125 96.6097 42.9C96.3688 42.675 96.2559 42.375 96.2559 42C96.2559 41.6025 96.3839 41.28 96.6474 41.0325C96.9034 40.8 97.2347 40.6725 97.6187 40.6725ZM97.6639 41.2125C97.4305 41.2125 97.2422 41.2875 97.0916 41.4375C96.941 41.5875 96.8657 41.775 96.8657 42C96.8657 42.225 96.941 42.405 97.0916 42.5475C97.2422 42.6825 97.438 42.75 97.6714 42.75C97.8672 42.75 98.0403 42.69 98.206 42.57C98.3716 42.45 98.4846 42.3075 98.5373 42.135C98.5147 41.8425 98.4243 41.6175 98.2737 41.4525C98.1156 41.295 97.9123 41.2125 97.6639 41.2125Z" fill="black"/>
<path d="M102.016 42.5624C102.257 42.6374 102.445 42.7649 102.58 42.9374C102.716 43.1099 102.791 43.3124 102.791 43.5449C102.791 43.9049 102.648 44.1824 102.354 44.3849C102.061 44.5949 101.699 44.6924 101.278 44.6924C100.849 44.6924 100.487 44.5874 100.194 44.3849C99.8999 44.1824 99.7568 43.8974 99.7568 43.5449C99.7568 43.3124 99.8246 43.1174 99.9677 42.9374C100.111 42.7574 100.299 42.6374 100.532 42.5624C100.352 42.4874 100.209 42.3749 100.103 42.2249C99.9978 42.0749 99.9451 41.9099 99.9451 41.7224C99.9451 41.4149 100.073 41.1674 100.322 40.9724C100.57 40.7774 100.894 40.6799 101.278 40.6799C101.662 40.6799 101.978 40.7774 102.226 40.9724C102.475 41.1674 102.603 41.4224 102.603 41.7224C102.603 41.9099 102.55 42.0824 102.445 42.2249C102.339 42.3749 102.196 42.4874 102.016 42.5624ZM102.159 43.5074C102.159 43.3124 102.076 43.1474 101.903 43.0274C101.737 42.8999 101.526 42.8399 101.27 42.8399C101.014 42.8399 100.803 42.8999 100.63 43.0274C100.457 43.1549 100.374 43.3124 100.374 43.5074C100.374 43.7024 100.457 43.8674 100.63 43.9874C100.803 44.1149 101.014 44.1824 101.27 44.1824C101.519 44.1824 101.73 44.1149 101.903 43.9874C102.068 43.8599 102.159 43.7024 102.159 43.5074ZM100.728 42.1949C100.871 42.3074 101.052 42.3599 101.263 42.3599C101.481 42.3599 101.654 42.3074 101.797 42.1949C101.94 42.0824 102.008 41.9399 102.008 41.7674C102.008 41.5949 101.94 41.4524 101.797 41.3399C101.654 41.2274 101.481 41.1749 101.263 41.1749C101.044 41.1749 100.871 41.2274 100.728 41.3399C100.585 41.4524 100.517 41.5949 100.517 41.7674C100.517 41.9399 100.585 42.0824 100.728 42.1949Z" fill="black"/>
<path d="M105.984 44.625H103.273V44.1825L104.501 43.0425C104.757 42.8025 104.952 42.5925 105.073 42.42C105.186 42.255 105.239 42.075 105.239 41.8875C105.239 41.6925 105.171 41.535 105.028 41.415C104.885 41.295 104.696 41.235 104.471 41.235C104.087 41.235 103.718 41.3925 103.379 41.715V41.0775C103.695 40.8075 104.079 40.6725 104.531 40.6725C104.9 40.6725 105.208 40.7775 105.464 40.9875C105.72 41.1975 105.856 41.475 105.856 41.8125C105.856 42.075 105.788 42.315 105.66 42.525C105.525 42.7425 105.306 42.9975 105.005 43.2825L104.162 44.0775H105.984V44.625Z" fill="black"/>
<path d="M80.4815 53.205H80.0674V49.3275H82.6801V49.7025H80.4815V53.205Z" fill="black"/>
<path d="M82.9287 53.2425C82.8459 53.2425 82.7781 53.2125 82.7254 53.16C82.6727 53.1075 82.6426 53.0325 82.6426 52.9575C82.6426 52.8825 82.6727 52.8075 82.7254 52.755C82.7781 52.7025 82.8534 52.6725 82.9287 52.6725C83.004 52.6725 83.0793 52.7025 83.132 52.755C83.1847 52.8075 83.2148 52.8825 83.2148 52.9575C83.2148 53.0325 83.1847 53.1075 83.132 53.16C83.0793 53.2125 83.0115 53.2425 82.9287 53.2425Z" fill="black"/>
<path d="M86.0155 53.205H85.6089V49.3275H86.0155L87.4235 51.21L88.8315 49.3275H89.2305V53.205H88.8239V49.9425L87.5515 51.6375H87.303L86.0155 49.9425V53.205Z" fill="black"/>
<path d="M90.7217 49.8375C91.0982 49.455 91.565 49.26 92.1222 49.26C92.6794 49.26 93.1462 49.455 93.5227 49.8375C93.8991 50.22 94.0874 50.7 94.0874 51.27C94.0874 51.84 93.8991 52.32 93.5227 52.7025C93.1537 53.085 92.6869 53.2725 92.1222 53.2725C91.5575 53.2725 91.0907 53.085 90.7217 52.7025C90.3528 52.32 90.1646 51.84 90.1646 51.27C90.1646 50.6925 90.3528 50.2125 90.7217 49.8375ZM91.0304 52.425C91.3241 52.7325 91.6855 52.89 92.1297 52.89C92.5664 52.89 92.9354 52.7325 93.229 52.425C93.5227 52.11 93.6733 51.7275 93.6733 51.27C93.6733 50.8125 93.5227 50.4225 93.229 50.115C92.9354 49.8075 92.5664 49.65 92.1297 49.65C91.693 49.65 91.3241 49.8075 91.0304 50.115C90.7368 50.43 90.5862 50.8125 90.5862 51.27C90.5787 51.72 90.7293 52.11 91.0304 52.425Z" fill="black"/>
<path d="M96.8654 53.2725C96.3007 53.2725 95.8188 53.085 95.4348 52.71C95.0584 52.335 94.8701 51.855 94.8701 51.27C94.8701 50.6925 95.0584 50.2125 95.4348 49.8375C95.8188 49.455 96.2932 49.2675 96.8654 49.2675C97.2871 49.2675 97.6485 49.365 97.9572 49.5525V49.9725C97.6184 49.755 97.2569 49.6425 96.8729 49.6425C96.4287 49.6425 96.0522 49.8 95.7435 50.1075C95.4424 50.4075 95.2842 50.7975 95.2842 51.2625C95.2842 51.735 95.4348 52.125 95.7435 52.425C96.0522 52.7325 96.4287 52.8825 96.888 52.8825C97.3473 52.8825 97.7238 52.755 98.0475 52.4925V52.92C97.7162 53.16 97.3247 53.2725 96.8654 53.2725Z" fill="black"/>
<path d="M98.8684 49.3275H99.2825V51.015L101.082 49.3275H101.624L99.7117 51.105L101.918 53.2125H101.338L99.275 51.24V53.2125H98.8608V49.3275H98.8684Z" fill="black"/>
<path d="M104.41 53.205H102.55V49.3275H104.237C104.583 49.3275 104.854 49.41 105.058 49.5825C105.261 49.7475 105.359 49.98 105.359 50.2725C105.359 50.475 105.314 50.6475 105.223 50.79C105.133 50.9325 105.005 51.0375 104.847 51.0975C105.103 51.135 105.314 51.2475 105.464 51.435C105.615 51.6225 105.69 51.855 105.69 52.1325C105.69 52.4625 105.577 52.725 105.344 52.92C105.11 53.115 104.802 53.205 104.41 53.205ZM102.957 49.695V50.9625H104.162C104.41 50.9625 104.598 50.91 104.741 50.805C104.877 50.7 104.945 50.5425 104.945 50.34C104.945 50.13 104.877 49.9725 104.741 49.86C104.606 49.7475 104.41 49.695 104.162 49.695H102.957ZM102.957 51.33V52.8375H104.335C104.621 52.8375 104.847 52.77 105.005 52.635C105.163 52.5 105.246 52.3125 105.246 52.0725C105.246 51.8325 105.163 51.6525 105.005 51.5175C104.847 51.3825 104.621 51.3225 104.335 51.3225H102.957V51.33Z" fill="black"/>
<path d="M106.631 53.2051H106.202L107.941 49.3051H108.325L110.065 53.2051H109.628L109.146 52.1326H107.106L106.631 53.2051ZM108.13 49.8151L107.241 51.7726H109.011L108.13 49.8151Z" fill="black"/>
<path d="M80.6172 69.885H80.0073V66H82.733V66.5625H80.6172V69.885Z" fill="black"/>
<path d="M83.9377 69.885H83.4106V66H84.0205V68.85L86.1664 66H86.701V69.8775H86.0911V67.02L83.9377 69.885Z" fill="black"/>
<path d="M89.3213 69.885H87.6724V66H90.4206V66.5625H88.2822V67.38H89.3213C89.7655 67.38 90.1119 67.5 90.3679 67.7325C90.6239 67.965 90.7519 68.265 90.7519 68.64C90.7519 69.015 90.6239 69.315 90.3679 69.54C90.1119 69.765 89.7655 69.885 89.3213 69.885ZM88.2822 67.9425V69.3225H89.2611C89.5321 69.3225 89.7505 69.2625 89.9011 69.1425C90.0517 69.0225 90.1269 68.85 90.1269 68.6325C90.1269 68.415 90.0517 68.2425 89.9011 68.1225C89.7505 68.0025 89.5397 67.9425 89.2686 67.9425H88.2822Z" fill="black"/>
<path d="M91.693 70.71H91.1133V69.315H91.4898C91.693 69.0075 91.8436 68.6475 91.9415 68.235C92.0394 67.8075 92.0846 67.245 92.0846 66.5325V66H94.6596V69.3225H95.2243V70.7175H94.6446V69.885H91.693V70.71ZM92.1599 69.3225H94.0498V66.5625H92.6794C92.6794 67.2075 92.6418 67.755 92.5589 68.19C92.4836 68.6325 92.3481 69.0075 92.1599 69.3225Z" fill="black"/>
<path d="M96.0524 70.71H95.4727V69.315H95.8491C96.0524 69.0075 96.203 68.6475 96.3009 68.235C96.3988 67.8075 96.4439 67.245 96.4439 66.5325V66H99.019V69.3225H99.5837V70.7175H99.0039V69.885H96.0524V70.71ZM96.5117 69.3225H98.4016V66.5625H97.0312C97.0312 67.2075 96.9936 67.755 96.9108 68.19C96.843 68.6325 96.7075 69.0075 96.5117 69.3225Z" fill="black"/>
<path d="M100.909 69.885H100.254L101.94 66.555H99.9751V66H102.633V66.4725L100.909 69.885Z" fill="black"/>
<path d="M104.034 69.885H103.379L105.065 66.555H103.1V66H105.758V66.4725L104.034 69.885Z" fill="black"/>
<path d="M107.874 69.9525C107.377 69.9525 106.985 69.7575 106.684 69.3675C106.39 68.97 106.24 68.4975 106.24 67.935C106.24 67.38 106.39 66.9075 106.684 66.51C106.985 66.12 107.384 65.925 107.874 65.925C108.378 65.925 108.77 66.12 109.063 66.51C109.364 66.9 109.515 67.38 109.515 67.935C109.515 68.4975 109.364 68.97 109.063 69.3675C108.77 69.7575 108.371 69.9525 107.874 69.9525ZM107.874 69.3825C108.182 69.3825 108.431 69.24 108.619 68.97C108.807 68.6925 108.905 68.3475 108.905 67.9425C108.905 67.5375 108.815 67.1925 108.619 66.915C108.431 66.6375 108.182 66.5025 107.874 66.5025C107.572 66.5025 107.324 66.6451 107.136 66.9226C106.948 67.2001 106.85 67.5375 106.85 67.9425C106.85 68.34 106.948 68.685 107.136 68.97C107.324 69.2475 107.572 69.3825 107.874 69.3825Z" fill="black"/>
<path d="M111.435 69.8851H110.833V66.6601L109.982 67.1176V66.5251L110.901 66.0076H111.435V69.8851Z" fill="black"/>
<path d="M116.171 62.2575H115.606V61.305H113.709V60.87L115.606 58.62H116.171V60.8175H116.743V61.305H116.171V62.2575ZM115.606 59.355L114.364 60.8175H115.606V59.355Z" fill="#C62658"/>
<path d="M117.496 62.3025C117.391 62.3025 117.301 62.265 117.233 62.1975C117.158 62.13 117.127 62.04 117.127 61.935C117.127 61.8375 117.165 61.7475 117.233 61.68C117.301 61.6125 117.391 61.575 117.496 61.575C117.594 61.575 117.677 61.6125 117.752 61.68C117.828 61.7475 117.865 61.8375 117.865 61.935C117.865 62.04 117.828 62.13 117.76 62.1975C117.685 62.265 117.594 62.3025 117.496 62.3025Z" fill="#C62658"/>
<path d="M120.019 62.325C119.627 62.325 119.318 62.19 119.108 61.9125V62.2575H118.543V58.62H119.108V60.0525C119.326 59.775 119.627 59.64 120.019 59.64C120.38 59.64 120.681 59.7675 120.915 60.03C121.148 60.285 121.261 60.6 121.261 60.9825C121.261 61.365 121.148 61.68 120.915 61.935C120.681 62.1975 120.38 62.325 120.019 62.325ZM119.868 61.83C120.102 61.83 120.305 61.7475 120.455 61.5825C120.614 61.4175 120.689 61.215 120.689 60.975C120.689 60.7425 120.614 60.54 120.455 60.375C120.297 60.21 120.102 60.1275 119.868 60.1275C119.71 60.1275 119.559 60.1725 119.424 60.255C119.288 60.3375 119.183 60.45 119.108 60.5775V61.365C119.183 61.5 119.288 61.6125 119.424 61.695C119.559 61.7925 119.71 61.83 119.868 61.83Z" fill="#C62658"/>
<path d="M121.931 63.33H121.352C121.901 62.64 122.172 61.845 122.172 60.96C122.172 60.0825 121.894 59.295 121.352 58.59H121.931C122.443 59.2275 122.699 60.015 122.699 60.96C122.699 61.905 122.443 62.6925 121.931 63.33Z" fill="#C62658"/>
<path d="M81.0011 62.0924C80.5041 62.0924 80.1126 61.8974 79.8114 61.5074C79.5178 61.1099 79.3672 60.6374 79.3672 60.0749C79.3672 59.5199 79.5178 59.0474 79.8114 58.6499C80.1126 58.2599 80.5117 58.0649 81.0011 58.0649C81.5055 58.0649 81.8971 58.2599 82.1907 58.6499C82.4919 59.0399 82.6425 59.5199 82.6425 60.0749C82.6425 60.6374 82.4919 61.1099 82.1907 61.5074C81.8971 61.8974 81.498 62.0924 81.0011 62.0924ZM81.0011 61.5224C81.3098 61.5224 81.5582 61.3799 81.7465 61.1099C81.9347 60.8399 82.0326 60.4874 82.0326 60.0824C82.0326 59.6774 81.9347 59.3324 81.7465 59.0549C81.5582 58.7774 81.3098 58.6424 81.0011 58.6424C80.6999 58.6424 80.4514 58.7849 80.2632 59.0624C80.0749 59.3399 79.9771 59.6774 79.9771 60.0824C79.9771 60.4799 80.0749 60.8249 80.2632 61.1099C80.4439 61.3874 80.6924 61.5224 81.0011 61.5224Z" fill="black"/>
<path d="M84.5626 62.0249H83.9602V58.7999L83.1094 59.2499V58.6574L84.028 58.1399H84.5626V62.0249Z" fill="black"/>
<path d="M85.79 62.0699C85.677 62.0699 85.5867 62.0324 85.5114 61.9574C85.4361 61.8824 85.3984 61.7849 85.3984 61.6799C85.3984 61.5749 85.4361 61.4849 85.5114 61.4024C85.5867 61.3274 85.6846 61.2899 85.79 61.2899C85.8954 61.2899 85.9857 61.3274 86.061 61.4024C86.1363 61.4774 86.1815 61.5674 86.1815 61.6799C86.1815 61.7924 86.1438 61.8824 86.0685 61.9574C85.9857 62.0324 85.8954 62.0699 85.79 62.0699Z" fill="black"/>
<path d="M87.8003 62.0249H87.198V58.7999L86.3472 59.2499V58.6574L87.2658 58.1399H87.8003V62.0249Z" fill="black"/>
<path d="M90.2926 62.0924C89.7956 62.0924 89.4041 61.8974 89.1029 61.5074C88.8093 61.1099 88.6587 60.6374 88.6587 60.0749C88.6587 59.5199 88.8093 59.0474 89.1029 58.6499C89.4041 58.2599 89.8032 58.0649 90.2926 58.0649C90.797 58.0649 91.1886 58.2599 91.4822 58.6499C91.7834 59.0399 91.934 59.5199 91.934 60.0749C91.934 60.6374 91.7834 61.1099 91.4822 61.5074C91.1886 61.8974 90.7895 62.0924 90.2926 62.0924ZM90.2926 61.5224C90.6013 61.5224 90.8498 61.3799 91.038 61.1099C91.2262 60.8324 91.3241 60.4874 91.3241 60.0824C91.3241 59.6774 91.2338 59.3324 91.038 59.0549C90.8498 58.7774 90.6013 58.6424 90.2926 58.6424C89.9914 58.6424 89.7429 58.7849 89.5547 59.0624C89.3665 59.3399 89.2686 59.6774 89.2686 60.0824C89.2686 60.4799 89.3665 60.8249 89.5547 61.1099C89.7429 61.3874 89.9839 61.5224 90.2926 61.5224Z" fill="black"/>
<path d="M92.7319 62.0699C92.6189 62.0699 92.5286 62.0324 92.4533 61.9574C92.378 61.8824 92.3403 61.7849 92.3403 61.6799C92.3403 61.5749 92.378 61.4849 92.4533 61.4024C92.5286 61.3274 92.6264 61.2899 92.7319 61.2899C92.8373 61.2899 92.9276 61.3274 93.0029 61.4024C93.0782 61.4774 93.1234 61.5674 93.1234 61.6799C93.1234 61.7924 93.0857 61.8824 93.0104 61.9574C92.9276 62.0324 92.8373 62.0699 92.7319 62.0699Z" fill="black"/>
<path d="M96.4064 62.0249H93.6958V61.5824L94.9231 60.4424C95.1791 60.2024 95.3749 59.9924 95.4953 59.8199C95.6083 59.6549 95.661 59.4749 95.661 59.2874C95.661 59.0924 95.5932 58.9349 95.4502 58.8149C95.3071 58.6949 95.1189 58.6349 94.893 58.6349C94.509 58.6349 94.14 58.7924 93.8012 59.1149V58.4774C94.1174 58.2074 94.5014 58.0724 94.9532 58.0724C95.3222 58.0724 95.6309 58.1774 95.8869 58.3874C96.1429 58.5974 96.2784 58.8749 96.2784 59.2124C96.2784 59.4749 96.2106 59.7149 96.0826 59.9249C95.9471 60.1424 95.7287 60.3974 95.4276 60.6824L94.5843 61.4774H96.4064V62.0249Z" fill="black"/>
<path d="M98.65 62.0924C98.1531 62.0924 97.7615 61.8974 97.4603 61.5074C97.1667 61.1099 97.0161 60.6374 97.0161 60.0749C97.0161 59.5199 97.1667 59.0474 97.4603 58.6499C97.7615 58.2599 98.1606 58.0649 98.65 58.0649C99.1545 58.0649 99.546 58.2599 99.8396 58.6499C100.141 59.0399 100.291 59.5199 100.291 60.0749C100.291 60.6374 100.141 61.1099 99.8396 61.5074C99.546 61.8974 99.1545 62.0924 98.65 62.0924ZM98.65 61.5224C98.9587 61.5224 99.2072 61.3799 99.3954 61.1099C99.5836 60.8324 99.6815 60.4874 99.6815 60.0824C99.6815 59.6774 99.5912 59.3324 99.3954 59.0549C99.2072 58.7774 98.9587 58.6424 98.65 58.6424C98.3488 58.6424 98.1003 58.7849 97.9121 59.0624C97.7239 59.3399 97.626 59.6774 97.626 60.0824C97.626 60.4799 97.7239 60.8249 97.9121 61.1099C98.1003 61.3874 98.3488 61.5224 98.65 61.5224Z" fill="black"/>
<path d="M102.211 62.0249H101.609V58.7999L100.758 59.2499V58.6574L101.677 58.1399H102.211V62.0249Z" fill="black"/>
<path d="M105.283 59.9625C105.524 60.0375 105.712 60.165 105.848 60.3375C105.983 60.51 106.059 60.7125 106.059 60.945C106.059 61.305 105.916 61.5825 105.622 61.785C105.328 61.995 104.967 62.0925 104.545 62.0925C104.116 62.0925 103.755 61.9875 103.461 61.785C103.167 61.5825 103.024 61.2975 103.024 60.945C103.024 60.7125 103.092 60.5175 103.235 60.3375C103.378 60.1575 103.567 60.0375 103.8 59.9625C103.619 59.8875 103.476 59.775 103.371 59.625C103.265 59.475 103.213 59.31 103.213 59.1225C103.213 58.815 103.341 58.5675 103.589 58.3725C103.838 58.1775 104.161 58.08 104.545 58.08C104.929 58.08 105.246 58.1775 105.494 58.3725C105.743 58.5675 105.871 58.8225 105.871 59.1225C105.871 59.31 105.818 59.4825 105.712 59.625C105.607 59.7675 105.464 59.88 105.283 59.9625ZM105.426 60.9C105.426 60.705 105.343 60.54 105.17 60.42C105.005 60.2925 104.794 60.2325 104.538 60.2325C104.282 60.2325 104.071 60.2925 103.898 60.42C103.725 60.5475 103.642 60.705 103.642 60.9C103.642 61.095 103.725 61.2599 103.898 61.3799C104.071 61.5074 104.282 61.575 104.538 61.575C104.786 61.575 104.997 61.5074 105.17 61.3799C105.336 61.2599 105.426 61.095 105.426 60.9ZM103.996 59.595C104.139 59.7075 104.319 59.76 104.53 59.76C104.749 59.76 104.922 59.7075 105.065 59.595C105.208 59.4825 105.276 59.34 105.276 59.1675C105.276 58.995 105.208 58.8525 105.065 58.74C104.922 58.6275 104.749 58.575 104.53 58.575C104.312 58.575 104.139 58.6275 103.996 58.74C103.853 58.8525 103.785 58.995 103.785 59.1675C103.785 59.34 103.853 59.4825 103.996 59.595Z" fill="black"/>
<path d="M126.848 62.1675C126.351 62.1675 125.959 61.9725 125.658 61.5825C125.364 61.185 125.214 60.7125 125.214 60.15C125.214 59.595 125.364 59.1225 125.658 58.725C125.959 58.335 126.358 58.14 126.848 58.14C127.352 58.14 127.744 58.335 128.037 58.725C128.339 59.115 128.489 59.595 128.489 60.15C128.489 60.7125 128.339 61.185 128.037 61.5825C127.751 61.9725 127.352 62.1675 126.848 62.1675ZM126.848 61.5975C127.156 61.5975 127.405 61.455 127.593 61.185C127.781 60.9075 127.879 60.5625 127.879 60.1575C127.879 59.7525 127.789 59.4075 127.593 59.13C127.405 58.8525 127.156 58.7175 126.848 58.7175C126.547 58.7175 126.298 58.86 126.11 59.1375C125.922 59.415 125.824 59.7525 125.824 60.1575C125.824 60.555 125.922 60.9 126.11 61.185C126.298 61.455 126.547 61.5975 126.848 61.5975Z" fill="black"/>
<path d="M130.417 62.0925H129.814V58.8675L128.963 59.325V58.7325L129.882 58.215H130.417V62.0925Z" fill="black"/>
<path d="M131.644 62.1375C131.531 62.1375 131.441 62.1 131.365 62.025C131.29 61.95 131.252 61.8525 131.252 61.7475C131.252 61.6425 131.29 61.5525 131.365 61.47C131.441 61.395 131.539 61.3575 131.644 61.3575C131.749 61.3575 131.84 61.395 131.915 61.47C131.99 61.545 132.035 61.635 132.035 61.7475C132.035 61.86 131.998 61.95 131.923 62.025C131.84 62.1 131.749 62.1375 131.644 62.1375Z" fill="black"/>
<path d="M133.654 62.0925H133.052V58.8675L132.201 59.325V58.7325L133.12 58.215H133.654V62.0925Z" fill="black"/>
<path d="M136.147 62.1675C135.65 62.1675 135.258 61.9725 134.957 61.5825C134.663 61.185 134.513 60.7125 134.513 60.15C134.513 59.595 134.663 59.1225 134.957 58.725C135.258 58.335 135.657 58.14 136.147 58.14C136.651 58.14 137.043 58.335 137.336 58.725C137.637 59.115 137.788 59.595 137.788 60.15C137.788 60.7125 137.637 61.185 137.336 61.5825C137.043 61.9725 136.644 62.1675 136.147 62.1675ZM136.147 61.5975C136.455 61.5975 136.704 61.455 136.892 61.185C137.08 60.915 137.178 60.5625 137.178 60.1575C137.178 59.7525 137.08 59.4075 136.892 59.13C136.704 58.8525 136.455 58.7175 136.147 58.7175C135.845 58.7175 135.597 58.86 135.409 59.1375C135.22 59.415 135.123 59.7525 135.123 60.1575C135.123 60.555 135.22 60.9 135.409 61.185C135.597 61.455 135.845 61.5975 136.147 61.5975Z" fill="black"/>
<path d="M138.586 62.1375C138.473 62.1375 138.383 62.1 138.307 62.025C138.232 61.95 138.194 61.8525 138.194 61.7475C138.194 61.6425 138.232 61.5525 138.307 61.47C138.383 61.395 138.48 61.3575 138.586 61.3575C138.691 61.3575 138.782 61.395 138.857 61.47C138.932 61.545 138.977 61.635 138.977 61.7475C138.977 61.86 138.94 61.95 138.864 62.025C138.782 62.1 138.691 62.1375 138.586 62.1375Z" fill="black"/>
<path d="M142.26 62.0925H139.55V61.65L140.777 60.51C141.033 60.27 141.229 60.06 141.349 59.8875C141.462 59.7225 141.515 59.5425 141.515 59.355C141.515 59.16 141.447 59.0025 141.304 58.8825C141.161 58.7625 140.973 58.7025 140.747 58.7025C140.363 58.7025 139.994 58.86 139.655 59.1825V58.545C139.971 58.275 140.355 58.14 140.807 58.14C141.176 58.14 141.485 58.245 141.741 58.455C141.997 58.665 142.132 58.9425 142.132 59.28C142.132 59.5425 142.065 59.7825 141.937 59.9925C141.801 60.21 141.583 60.465 141.282 60.75L140.438 61.545H142.26V62.0925Z" fill="black"/>
<path d="M144.504 62.1675C144.007 62.1675 143.616 61.9725 143.314 61.5825C143.021 61.185 142.87 60.7125 142.87 60.15C142.87 59.595 143.021 59.1225 143.314 58.725C143.616 58.335 144.015 58.14 144.504 58.14C145.008 58.14 145.4 58.335 145.694 58.725C145.995 59.115 146.145 59.595 146.145 60.15C146.145 60.7125 145.995 61.185 145.694 61.5825C145.4 61.9725 145.008 62.1675 144.504 62.1675ZM144.504 61.5975C144.813 61.5975 145.061 61.455 145.249 61.185C145.438 60.915 145.536 60.5625 145.536 60.1575C145.536 59.7525 145.438 59.4075 145.249 59.13C145.061 58.8525 144.813 58.7175 144.504 58.7175C144.203 58.7175 143.954 58.86 143.766 59.1375C143.578 59.415 143.48 59.7525 143.48 60.1575C143.48 60.555 143.578 60.9 143.766 61.185C143.954 61.455 144.203 61.5975 144.504 61.5975Z" fill="black"/>
<path d="M149.406 62.0925H146.695V61.65L147.923 60.51C148.179 60.27 148.374 60.06 148.495 59.8875C148.608 59.7225 148.66 59.5425 148.66 59.355C148.66 59.16 148.593 59.0025 148.45 58.8825C148.307 58.7625 148.118 58.7025 147.892 58.7025C147.508 58.7025 147.14 58.86 146.801 59.1825V58.545C147.117 58.275 147.501 58.14 147.953 58.14C148.322 58.14 148.63 58.245 148.886 58.455C149.142 58.665 149.278 58.9425 149.278 59.28C149.278 59.5425 149.21 59.7825 149.082 59.9925C148.947 60.21 148.728 60.465 148.427 60.75L147.576 61.5525H149.398V62.0925H149.406Z" fill="black"/>
<path d="M151.07 62.1675C150.61 62.1675 150.219 62.07 149.91 61.875V61.2825C150.226 61.515 150.603 61.6275 151.04 61.6275C151.296 61.6275 151.514 61.56 151.702 61.4175C151.89 61.275 151.981 61.08 151.981 60.84C151.981 60.615 151.898 60.435 151.732 60.2925C151.567 60.1575 151.348 60.0825 151.077 60.0825C150.897 60.0825 150.731 60.1125 150.58 60.1725V59.76L151.627 58.7475H150.053V58.215H152.44V58.6725L151.446 59.625C151.755 59.655 152.026 59.7825 152.259 60C152.485 60.2175 152.598 60.495 152.598 60.8325C152.598 61.23 152.455 61.5525 152.161 61.8C151.86 62.0475 151.499 62.1675 151.07 62.1675Z" fill="black"/>
<path d="M80.6172 93.9H80.0073V90.0225H82.733V90.585H80.6172V93.9Z" fill="black"/>
<path d="M83.019 93.945C82.906 93.945 82.8157 93.9075 82.7404 93.8325C82.6651 93.7575 82.6274 93.66 82.6274 93.555C82.6274 93.45 82.6651 93.36 82.7404 93.2775C82.8157 93.2025 82.9136 93.165 83.019 93.165C83.1244 93.165 83.2147 93.2025 83.29 93.2775C83.3653 93.3525 83.4105 93.4425 83.4105 93.555C83.4105 93.6675 83.3729 93.7575 83.2976 93.8325C83.2147 93.9075 83.1244 93.945 83.019 93.945Z" fill="black"/>
<path d="M86.249 93.9H85.6392V90.0225H86.2641L87.529 91.77L88.7789 90.0225H89.3888V93.9H88.7789V90.9525L87.6947 92.415H87.3408L86.2566 90.9525V93.9H86.249Z" fill="black"/>
<path d="M93.6281 93.3975C93.2516 93.78 92.7773 93.975 92.2051 93.975C91.6328 93.975 91.1585 93.78 90.782 93.3975C90.4055 93.0075 90.2173 92.5275 90.2173 91.965C90.2173 91.395 90.4055 90.9225 90.782 90.5325C91.1585 90.1425 91.6328 89.9475 92.2051 89.9475C92.7773 89.9475 93.2516 90.1425 93.6281 90.5325C94.0046 90.915 94.1928 91.395 94.1928 91.965C94.1928 92.535 94.0121 93.0075 93.6281 93.3975ZM91.2413 92.9925C91.5048 93.2625 91.8286 93.405 92.2126 93.405C92.5966 93.405 92.9203 93.27 93.1839 92.9925C93.4474 92.715 93.5829 92.37 93.5829 91.965C93.5829 91.5525 93.4549 91.215 93.1839 90.9375C92.9203 90.66 92.5966 90.525 92.2126 90.525C91.8286 90.525 91.5048 90.66 91.2413 90.9375C90.9853 91.2075 90.8498 91.5525 90.8498 91.965C90.8498 92.3775 90.9778 92.7225 91.2413 92.9925Z" fill="black"/>
<path d="M96.9408 93.975C96.361 93.975 95.8716 93.7875 95.4726 93.4125C95.081 93.03 94.8853 92.55 94.8853 91.965C94.8853 91.38 95.081 90.9 95.4726 90.525C95.8566 90.1425 96.346 89.955 96.9408 89.955C97.3398 89.955 97.6937 90.045 97.9949 90.2175V90.8325C97.6787 90.63 97.3323 90.525 96.9408 90.525C96.5342 90.525 96.1878 90.66 95.9168 90.9375C95.6457 91.2075 95.5102 91.5525 95.5102 91.9725C95.5102 92.3924 95.6457 92.7375 95.9243 93.0075C96.1954 93.2775 96.5493 93.4125 96.9634 93.4125C97.4076 93.4125 97.7765 93.2925 98.0777 93.06V93.675C97.754 93.87 97.3775 93.975 96.9408 93.975Z" fill="black"/>
<path d="M99.4483 93.9H98.8384V90.0225H99.4483V91.605L101.044 90.0225H101.828L100.028 91.8L102.121 93.9075H101.285L99.4483 92.0475V93.9Z" fill="black"/>
<path d="M104.546 93.9H102.633V90.0225H104.403C104.757 90.0225 105.035 90.105 105.238 90.2775C105.442 90.45 105.547 90.6825 105.547 90.975C105.547 91.17 105.502 91.335 105.404 91.4775C105.306 91.62 105.186 91.7175 105.028 91.7775C105.276 91.8225 105.472 91.935 105.622 92.1225C105.781 92.31 105.856 92.535 105.856 92.8125C105.856 93.1425 105.735 93.405 105.502 93.6075C105.269 93.8025 104.952 93.9 104.546 93.9ZM103.243 90.585V91.59H104.297C104.501 91.59 104.659 91.545 104.772 91.4625C104.885 91.3725 104.937 91.2525 104.937 91.0875C104.937 90.9225 104.877 90.8025 104.772 90.7125C104.659 90.63 104.501 90.585 104.297 90.585H103.243ZM103.243 92.1225V93.345H104.433C104.674 93.345 104.854 93.2925 104.99 93.18C105.126 93.0675 105.193 92.9175 105.193 92.7225C105.193 92.5275 105.126 92.385 104.99 92.28C104.854 92.175 104.666 92.1225 104.425 92.1225H103.243Z" fill="black"/>
<path d="M106.933 93.9H106.285L107.987 90H108.574L110.276 93.9H109.621L109.199 92.9325H107.354L106.933 93.9ZM108.273 90.7725L107.558 92.4H108.981L108.273 90.7725Z" fill="black"/>
<path d="M81.483 86.1451C80.9861 86.1451 80.5945 85.9501 80.2934 85.5601C79.9997 85.1626 79.8491 84.6901 79.8491 84.1276C79.8491 83.5726 79.9997 83.1001 80.2934 82.7026C80.5945 82.3126 80.9936 82.1176 81.483 82.1176C81.9875 82.1176 82.379 82.3126 82.6726 82.7026C82.9738 83.0926 83.1244 83.5726 83.1244 84.1276C83.1244 84.6901 82.9738 85.1626 82.6726 85.5601C82.379 85.9501 81.9799 86.1451 81.483 86.1451ZM81.483 85.5751C81.7917 85.5751 82.0402 85.4326 82.2284 85.1626C82.4166 84.8851 82.5145 84.5401 82.5145 84.1351C82.5145 83.7301 82.4242 83.3851 82.2284 83.1076C82.0402 82.8301 81.7917 82.6951 81.483 82.6951C81.1818 82.6951 80.9333 82.8376 80.7451 83.1151C80.5569 83.3926 80.459 83.7301 80.459 84.1351C80.459 84.5326 80.5569 84.8776 80.7451 85.1626C80.9333 85.4326 81.1743 85.5751 81.483 85.5751Z" fill="black"/>
<path d="M85.4132 86.1451C84.9162 86.1451 84.5247 85.9501 84.2235 85.5601C83.9299 85.1626 83.7793 84.6901 83.7793 84.1276C83.7793 83.5726 83.9299 83.1001 84.2235 82.7026C84.5247 82.3126 84.9238 82.1176 85.4132 82.1176C85.9177 82.1176 86.3092 82.3126 86.6028 82.7026C86.904 83.0926 87.0546 83.5726 87.0546 84.1276C87.0546 84.6901 86.904 85.1626 86.6028 85.5601C86.3092 85.9501 85.9101 86.1451 85.4132 86.1451ZM85.4132 85.5751C85.7219 85.5751 85.9704 85.4326 86.1586 85.1626C86.3468 84.8851 86.4447 84.5401 86.4447 84.1351C86.4447 83.7301 86.3544 83.3851 86.1586 83.1076C85.9704 82.8301 85.7219 82.6951 85.4132 82.6951C85.112 82.6951 84.8635 82.8376 84.6753 83.1151C84.4871 83.3926 84.3892 83.7301 84.3892 84.1351C84.3892 84.5326 84.4871 84.8776 84.6753 85.1626C84.8635 85.4326 85.1045 85.5751 85.4132 85.5751Z" fill="black"/>
<path d="M90.7892 86.1451C90.2922 86.1451 89.9007 85.9501 89.5995 85.5601C89.3059 85.1626 89.1553 84.6901 89.1553 84.1276C89.1553 83.5726 89.3059 83.1001 89.5995 82.7026C89.9007 82.3126 90.2997 82.1176 90.7892 82.1176C91.2936 82.1176 91.6852 82.3126 91.9788 82.7026C92.28 83.0926 92.4306 83.5726 92.4306 84.1276C92.4306 84.6901 92.28 85.1626 91.9788 85.5601C91.6852 85.9501 91.2861 86.1451 90.7892 86.1451ZM90.7892 85.5751C91.0979 85.5751 91.3463 85.4326 91.5346 85.1626C91.7228 84.8926 91.8207 84.5401 91.8207 84.1351C91.8207 83.7301 91.7228 83.3851 91.5346 83.1076C91.3463 82.8301 91.0979 82.6951 90.7892 82.6951C90.488 82.6951 90.2395 82.8376 90.0513 83.1151C89.863 83.3926 89.7652 83.7301 89.7652 84.1351C89.7652 84.5326 89.863 84.8776 90.0513 85.1626C90.232 85.4326 90.4804 85.5751 90.7892 85.5751Z" fill="black"/>
<path d="M94.7198 86.1451C94.2229 86.1451 93.8314 85.9501 93.5302 85.5601C93.2365 85.1626 93.0859 84.6901 93.0859 84.1276C93.0859 83.5726 93.2365 83.1001 93.5302 82.7026C93.8314 82.3126 94.2304 82.1176 94.7198 82.1176C95.2243 82.1176 95.6158 82.3126 95.9095 82.7026C96.2106 83.0926 96.3612 83.5726 96.3612 84.1276C96.3612 84.6901 96.2106 85.1626 95.9095 85.5601C95.6158 85.9501 95.2168 86.1451 94.7198 86.1451ZM94.7198 85.5751C95.0285 85.5751 95.277 85.4326 95.4652 85.1626C95.6535 84.8926 95.7514 84.5401 95.7514 84.1351C95.7514 83.7301 95.6535 83.3851 95.4652 83.1076C95.277 82.8301 95.0285 82.6951 94.7198 82.6951C94.4186 82.6951 94.1702 82.8376 93.9819 83.1151C93.7937 83.3926 93.6958 83.7301 93.6958 84.1351C93.6958 84.5326 93.7937 84.8776 93.9819 85.1626C94.1626 85.4326 94.4111 85.5751 94.7198 85.5751Z" fill="black"/>
<path d="M100.096 86.1451C99.5989 86.1451 99.2073 85.9501 98.9061 85.5601C98.6125 85.1626 98.4619 84.6901 98.4619 84.1276C98.4619 83.5726 98.6125 83.1001 98.9061 82.7026C99.2073 82.3126 99.6064 82.1176 100.096 82.1176C100.6 82.1176 100.992 82.3126 101.285 82.7026C101.587 83.0926 101.737 83.5726 101.737 84.1276C101.737 84.6901 101.587 85.1626 101.285 85.5601C100.992 85.9501 100.593 86.1451 100.096 86.1451ZM100.096 85.5751C100.405 85.5751 100.653 85.4326 100.841 85.1626C101.029 84.8851 101.127 84.5401 101.127 84.1351C101.127 83.7301 101.037 83.3851 100.841 83.1076C100.653 82.8301 100.405 82.6951 100.096 82.6951C99.7946 82.6951 99.5462 82.8376 99.3579 83.1151C99.1697 83.3926 99.0718 83.7301 99.0718 84.1351C99.0718 84.5326 99.1697 84.8776 99.3579 85.1626C99.5386 85.4326 99.7871 85.5751 100.096 85.5751Z" fill="black"/>
<path d="M104.019 86.1451C103.522 86.1451 103.13 85.9501 102.829 85.5601C102.535 85.1626 102.385 84.6901 102.385 84.1276C102.385 83.5726 102.535 83.1001 102.829 82.7026C103.13 82.3126 103.529 82.1176 104.019 82.1176C104.523 82.1176 104.915 82.3126 105.208 82.7026C105.509 83.0926 105.66 83.5726 105.66 84.1276C105.66 84.6901 105.509 85.1626 105.208 85.5601C104.922 85.9501 104.523 86.1451 104.019 86.1451ZM104.019 85.5751C104.327 85.5751 104.576 85.4326 104.764 85.1626C104.952 84.8851 105.05 84.5401 105.05 84.1351C105.05 83.7301 104.96 83.3851 104.764 83.1076C104.576 82.8301 104.327 82.6951 104.019 82.6951C103.717 82.6951 103.469 82.8376 103.281 83.1151C103.093 83.3926 102.995 83.7301 102.995 84.1351C102.995 84.5326 103.093 84.8776 103.281 85.1626C103.469 85.4326 103.717 85.5751 104.019 85.5751Z" fill="black"/>
<path d="M107.949 86.1451C107.452 86.1451 107.06 85.9501 106.759 85.5601C106.466 85.1626 106.315 84.6901 106.315 84.1276C106.315 83.5726 106.466 83.1001 106.759 82.7026C107.06 82.3126 107.459 82.1176 107.949 82.1176C108.453 82.1176 108.845 82.3126 109.138 82.7026C109.44 83.0926 109.59 83.5726 109.59 84.1276C109.59 84.6901 109.44 85.1626 109.138 85.5601C108.852 85.9501 108.453 86.1451 107.949 86.1451ZM107.949 85.5751C108.258 85.5751 108.506 85.4326 108.694 85.1626C108.882 84.8926 108.98 84.5401 108.98 84.1351C108.98 83.7301 108.882 83.3851 108.694 83.1076C108.506 82.8301 108.258 82.6951 107.949 82.6951C107.648 82.6951 107.399 82.8376 107.211 83.1151C107.023 83.3926 106.925 83.7301 106.925 84.1351C106.925 84.5326 107.023 84.8776 107.211 85.1626C107.399 85.4326 107.648 85.5751 107.949 85.5751Z" fill="black"/>
<path d="M111.879 86.1451C111.382 86.1451 110.991 85.9501 110.689 85.5601C110.396 85.1626 110.245 84.6901 110.245 84.1276C110.245 83.5726 110.396 83.1001 110.689 82.7026C110.991 82.3126 111.39 82.1176 111.879 82.1176C112.383 82.1176 112.775 82.3126 113.069 82.7026C113.37 83.0926 113.52 83.5726 113.52 84.1276C113.52 84.6901 113.37 85.1626 113.069 85.5601C112.775 85.9501 112.383 86.1451 111.879 86.1451ZM111.879 85.5751C112.188 85.5751 112.436 85.4326 112.624 85.1626C112.813 84.8926 112.911 84.5401 112.911 84.1351C112.911 83.7301 112.813 83.3851 112.624 83.1076C112.436 82.8301 112.188 82.6951 111.879 82.6951C111.578 82.6951 111.329 82.8376 111.141 83.1151C110.953 83.3926 110.855 83.7301 110.855 84.1351C110.855 84.5326 110.953 84.8776 111.141 85.1626C111.329 85.4326 111.578 85.5751 111.879 85.5751Z" fill="black"/>
<path d="M115.81 86.1451C115.313 86.1451 114.921 85.9501 114.62 85.5601C114.326 85.1626 114.176 84.6901 114.176 84.1276C114.176 83.5726 114.326 83.1001 114.62 82.7026C114.921 82.3126 115.32 82.1176 115.81 82.1176C116.314 82.1176 116.706 82.3126 116.999 82.7026C117.3 83.0926 117.451 83.5726 117.451 84.1276C117.451 84.6901 117.3 85.1626 116.999 85.5601C116.706 85.9501 116.307 86.1451 115.81 86.1451ZM115.81 85.5751C116.118 85.5751 116.367 85.4326 116.555 85.1626C116.743 84.8851 116.841 84.5401 116.841 84.1351C116.841 83.7301 116.751 83.3851 116.555 83.1076C116.367 82.8301 116.118 82.6951 115.81 82.6951C115.508 82.6951 115.26 82.8376 115.072 83.1151C114.884 83.3926 114.786 83.7301 114.786 84.1351C114.786 84.5326 114.884 84.8776 115.072 85.1626C115.26 85.4326 115.508 85.5751 115.81 85.5751Z" fill="black"/>
<path d="M119.74 86.1451C119.243 86.1451 118.851 85.9501 118.55 85.5601C118.257 85.1626 118.106 84.6901 118.106 84.1276C118.106 83.5726 118.257 83.1001 118.55 82.7026C118.851 82.3126 119.25 82.1176 119.74 82.1176C120.244 82.1176 120.636 82.3126 120.929 82.7026C121.231 83.0926 121.381 83.5726 121.381 84.1276C121.381 84.6901 121.231 85.1626 120.929 85.5601C120.636 85.9501 120.237 86.1451 119.74 86.1451ZM119.74 85.5751C120.049 85.5751 120.297 85.4326 120.485 85.1626C120.673 84.8851 120.771 84.5401 120.771 84.1351C120.771 83.7301 120.681 83.3851 120.485 83.1076C120.297 82.8301 120.049 82.6951 119.74 82.6951C119.439 82.6951 119.19 82.8376 119.002 83.1151C118.814 83.3926 118.716 83.7301 118.716 84.1351C118.716 84.5326 118.814 84.8776 119.002 85.1626C119.19 85.4326 119.431 85.5751 119.74 85.5751Z" fill="black"/>
<path d="M81.8972 78.1425C81.34 78.1425 80.8657 77.955 80.4817 77.58C80.1052 77.205 79.917 76.725 79.917 76.14C79.917 75.5625 80.1052 75.0825 80.4817 74.7075C80.8657 74.325 81.3401 74.1375 81.9123 74.1375C82.4092 74.1375 82.8158 74.265 83.1471 74.5125V74.925C82.7857 74.655 82.3866 74.52 81.9349 74.52C81.4756 74.52 81.0991 74.67 80.7904 74.9775C80.4892 75.2775 80.3311 75.6675 80.3311 76.1475C80.3311 76.62 80.4817 77.0025 80.7829 77.31C81.0841 77.61 81.4605 77.7675 81.9048 77.7675C82.3716 77.7675 82.7405 77.6325 83.0116 77.3625V75.855H83.4182V77.5275C83.245 77.7225 83.0266 77.8725 82.7631 77.985C82.4996 78.0975 82.1984 78.1425 81.8972 78.1425Z" fill="black"/>
<path d="M84.8487 78.0825H84.4346V74.205H84.8487V78.0825Z" fill="black"/>
<path d="M87.8305 78.0825H85.9707V74.205H87.6573C88.0036 74.205 88.2747 74.2875 88.478 74.46C88.6813 74.625 88.7792 74.8575 88.7792 75.15C88.7792 75.3525 88.734 75.525 88.6437 75.6675C88.5533 75.81 88.4253 75.915 88.2672 75.975C88.5232 76.0125 88.734 76.125 88.8846 76.3125C89.0352 76.5 89.1105 76.7325 89.1105 77.01C89.1105 77.34 88.9975 77.6025 88.7641 77.7975C88.5307 77.9925 88.222 78.0825 87.8305 78.0825ZM86.3848 74.5725V75.84H87.5895C87.838 75.84 88.0262 75.7875 88.1618 75.6825C88.2973 75.5775 88.3651 75.42 88.3651 75.2175C88.3651 75.0075 88.2973 74.85 88.1618 74.7375C88.0262 74.625 87.838 74.5725 87.5895 74.5725H86.3848ZM86.3848 76.2V77.7075H87.7627C88.0488 77.7075 88.2747 77.64 88.4328 77.505C88.5909 77.37 88.6738 77.1825 88.6738 76.9425C88.6738 76.7025 88.5909 76.5225 88.4328 76.3875C88.2747 76.2525 88.0488 76.1925 87.7627 76.1925H86.3848V76.2Z" fill="black"/>
<path d="M91.2866 78.0825H90.0142V74.205H91.2866C91.9191 74.205 92.4236 74.385 92.8151 74.745C93.2066 75.105 93.4024 75.5775 93.4024 76.1475C93.4024 76.725 93.2066 77.19 92.8151 77.55C92.4311 77.9025 91.9191 78.0825 91.2866 78.0825ZM90.4283 74.5725V77.7075H91.2415C91.776 77.7075 92.1977 77.565 92.5139 77.28C92.8226 77.0025 92.9807 76.62 92.9807 76.14C92.9807 75.66 92.8226 75.2775 92.5139 75C92.1977 74.715 91.776 74.5725 91.2415 74.5725H90.4283Z" fill="black"/>
<path d="M95.6157 78.0825H94.3433V74.205H95.6157C96.2482 74.205 96.7527 74.385 97.1442 74.745C97.5357 75.105 97.7315 75.5775 97.7315 76.1475C97.7315 76.725 97.5357 77.19 97.1442 77.55C96.7602 77.9025 96.2482 78.0825 95.6157 78.0825ZM94.7574 74.5725V77.7075H95.5706C96.1051 77.7075 96.5268 77.565 96.843 77.28C97.1517 77.0025 97.3099 76.62 97.3099 76.14C97.3099 75.66 97.1517 75.2775 96.843 75C96.5268 74.715 96.1051 74.5725 95.5706 74.5725H94.7574Z" fill="black"/>
<path d="M100.593 78.0825H100.156L101.941 74.5725H99.8398V74.1975H102.415V74.505L100.593 78.0825Z" fill="black"/>
<path d="M103.672 78.0825H103.236L105.02 74.5725H102.919V74.1975H105.494V74.505L103.672 78.0825Z" fill="black"/>
<path d="M106.052 76.14C106.052 75.57 106.195 75.0975 106.488 74.715C106.782 74.325 107.174 74.13 107.648 74.13C108.122 74.13 108.506 74.325 108.8 74.7075C109.094 75.09 109.237 75.5625 109.237 76.14C109.237 76.71 109.094 77.19 108.8 77.5725C108.506 77.955 108.122 78.15 107.648 78.15C107.174 78.15 106.79 77.955 106.488 77.5725C106.195 77.19 106.052 76.71 106.052 76.14ZM108.83 76.14C108.83 75.675 108.717 75.2925 108.499 74.985C108.28 74.6775 107.994 74.52 107.648 74.52C107.302 74.52 107.023 74.6775 106.797 74.985C106.571 75.2925 106.466 75.6825 106.466 76.14C106.466 76.605 106.579 76.9875 106.797 77.3025C107.016 77.61 107.302 77.76 107.656 77.76C108.009 77.76 108.288 77.61 108.506 77.3025C108.717 76.995 108.83 76.605 108.83 76.14Z" fill="black"/>
<path d="M111.089 78.0825H110.682V74.6475L109.809 75.15V74.76L110.727 74.2125H111.089V78.0825Z" fill="black"/>
<path d="M86.8215 97.47H80.2559V104.01H86.8215V97.47Z" stroke="#C62658" stroke-width="0.5" stroke-miterlimit="10"/>
<path d="M83.8926 102.54H82.1006V98.9025H83.7571C84.0884 98.9025 84.3519 98.985 84.5401 99.1425C84.7359 99.3 84.8262 99.5175 84.8262 99.795C84.8262 99.975 84.7811 100.132 84.6907 100.26C84.6004 100.395 84.4874 100.485 84.3444 100.537C84.5702 100.582 84.7585 100.687 84.9091 100.86C85.0597 101.032 85.1274 101.25 85.1274 101.512C85.1274 101.82 85.0145 102.067 84.7961 102.255C84.5778 102.45 84.2766 102.54 83.8926 102.54ZM82.6728 99.4275V100.365H83.6592C83.8474 100.365 83.998 100.327 84.1034 100.245C84.2088 100.162 84.2615 100.05 84.2615 99.8925C84.2615 99.7425 84.2088 99.6225 84.1034 99.5475C83.998 99.465 83.8474 99.4275 83.6592 99.4275H82.6728ZM82.6728 100.875V102.015H83.7872C84.0055 102.015 84.1862 101.962 84.3142 101.865C84.4422 101.767 84.5025 101.617 84.5025 101.437C84.5025 101.257 84.4422 101.122 84.3142 101.025C84.1862 100.927 84.0131 100.882 83.7872 100.882H82.6728V100.875Z" fill="#C62658"/>
<path d="M33.3549 21.765C39.7255 21.765 44.8899 18.9544 44.8899 15.4875C44.8899 12.0205 39.7255 9.20996 33.3549 9.20996C26.9842 9.20996 21.8198 12.0205 21.8198 15.4875C21.8198 18.9544 26.9842 21.765 33.3549 21.765Z" fill="#C62658"/>
<path d="M33.3552 20.58C38.524 20.58 42.7142 18.3 42.7142 15.4875C42.7142 12.675 38.524 10.395 33.3552 10.395C28.1863 10.395 23.9961 12.675 23.9961 15.4875C23.9961 18.3 28.1863 20.58 33.3552 20.58Z" stroke="white" stroke-width="0.5" stroke-miterlimit="10"/>
<path d="M28.3407 17.2125H27.7534V13.5H29.4475C29.8315 13.5 30.1327 13.5975 30.3435 13.7925C30.5619 13.9875 30.6748 14.2425 30.6748 14.5575C30.6748 14.8125 30.6071 15.0375 30.4565 15.2175C30.3134 15.3975 30.1177 15.5175 29.8617 15.5775L31.0362 17.2125H30.3285L29.2066 15.645H28.3332V17.2125H28.3407ZM28.3407 14.04V15.135H29.4174C29.6282 15.135 29.7939 15.09 29.9144 14.9925C30.0348 14.895 30.0951 14.76 30.0951 14.5875C30.0951 14.415 30.0348 14.2875 29.9144 14.19C29.7939 14.0925 29.6282 14.0475 29.4174 14.0475H28.3407V14.04Z" fill="white"/>
<path d="M31.7441 15.645V13.5H32.3314V15.66C32.3314 16.005 32.4218 16.2675 32.595 16.455C32.7681 16.6425 33.0091 16.7325 33.3103 16.7325C33.6114 16.7325 33.8524 16.6425 34.0256 16.455C34.1987 16.2675 34.2891 16.005 34.2891 15.66V13.5H34.8764V15.6375C34.8764 16.155 34.7333 16.56 34.4397 16.845C34.146 17.13 33.7696 17.2725 33.3103 17.2725C32.851 17.2725 32.4745 17.13 32.1808 16.845C31.8872 16.5675 31.7441 16.1625 31.7441 15.645Z" fill="white"/>
<path d="M37.0523 17.28C36.4876 17.28 36.0208 17.145 35.6519 16.8825V16.2525C35.7949 16.38 35.9982 16.4925 36.2542 16.59C36.5102 16.6875 36.7662 16.7325 37.0222 16.7325C37.2707 16.7325 37.4815 16.68 37.6396 16.5825C37.7977 16.485 37.8806 16.35 37.8806 16.1775C37.8806 16.0425 37.8279 15.93 37.7149 15.8325C37.6697 15.795 37.6095 15.7575 37.5267 15.72C37.4213 15.6675 37.2556 15.615 37.0147 15.5475L36.9394 15.525C36.7361 15.465 36.578 15.42 36.4575 15.3675C36.3596 15.33 36.2391 15.27 36.081 15.18C35.825 15.0225 35.697 14.775 35.697 14.43C35.697 14.1225 35.8175 13.875 36.0584 13.695C36.2994 13.515 36.6307 13.4175 37.0448 13.4175C37.4966 13.4175 37.8881 13.5225 38.2344 13.725V14.31C37.858 14.0775 37.4589 13.965 37.0523 13.965C36.8039 13.965 36.6156 14.01 36.4876 14.0925C36.3596 14.175 36.2919 14.295 36.2919 14.4375C36.2919 14.5575 36.3672 14.67 36.5102 14.775C36.5328 14.79 36.5629 14.805 36.6006 14.82C36.6382 14.835 36.6834 14.85 36.7361 14.8725C36.7888 14.8875 36.8189 14.9025 36.8415 14.91L37.2707 15.03C37.5267 15.105 37.7526 15.2025 37.9483 15.3075C38.2796 15.4875 38.4528 15.7725 38.4754 16.1625C38.4754 16.5075 38.3399 16.7775 38.0688 16.9725C37.7977 17.1825 37.4589 17.28 37.0523 17.28Z" fill="white"/>
</svg>
