<svg width="192" height="127" viewBox="0 0 192 127" fill="none" xmlns="http://www.w3.org/2000/svg">
<path d="M175.804 120.44H16.1956C9.89352 120.44 4.78857 115.336 4.78857 109.033V17.4682C4.78857 11.1661 9.89352 6.06116 16.1956 6.06116H175.812C182.114 6.06116 187.219 11.1661 187.219 17.4682V109.026C187.219 115.328 182.106 120.44 175.804 120.44Z" fill="#F9EAF5"/>
<path d="M47.7818 103.838H47.2171V100.804L46.4189 101.233V100.676L47.2773 100.194H47.7818V103.838Z" fill="#C62658"/>
<path d="M50.8838 103.838H50.3191V102.882H48.4292V102.445L50.3191 100.186H50.8838V102.392H51.4485V102.882H50.8838V103.838ZM50.3191 100.917L49.0767 102.385H50.3191V100.917Z" fill="#C62658"/>
<path d="M52.2093 103.876C52.1039 103.876 52.0135 103.838 51.9457 103.77C51.8704 103.703 51.8403 103.612 51.8403 103.507C51.8403 103.409 51.878 103.319 51.9457 103.251C52.0135 103.183 52.1039 103.145 52.2093 103.145C52.3072 103.145 52.39 103.183 52.4653 103.251C52.5406 103.319 52.5782 103.409 52.5782 103.507C52.5782 103.612 52.5406 103.695 52.4728 103.77C52.3975 103.838 52.3147 103.876 52.2093 103.876Z" fill="#C62658"/>
<path d="M36.6835 15.9247H15.0967V109.064H36.6835V15.9247Z" fill="#0A0907"/>
<path d="M51.3131 88.7341H7.58984V91.8137H51.3131V88.7341Z" fill="white"/>
<path d="M49.7321 96.0903H6.00879V96.7604H49.7321V96.0903Z" fill="white"/>
<path d="M49.7321 98.7783H6.00879V99.4484H49.7321V98.7783Z" fill="white"/>
<path d="M47.7516 101.474H4.02832V102.144H47.7516V101.474Z" fill="white"/>
<path d="M46.7125 29.8917H46.0649L47.7666 25.9764H48.3539L50.0555 29.8917H49.4005L48.9788 28.9204H47.1341L46.7125 29.8917ZM48.0527 26.752L47.3374 28.3859H48.7605L48.0527 26.752Z" fill="black"/>
<path d="M48.3387 38.1741H46.4263V34.2814H48.1882C48.542 34.2814 48.8206 34.3642 49.0239 34.5374C49.2272 34.7105 49.3326 34.944 49.3326 35.2376C49.3326 35.4334 49.2875 35.599 49.1896 35.7421C49.0917 35.8851 48.9712 35.983 48.8131 36.0433C49.0616 36.0884 49.2573 36.2014 49.4079 36.3896C49.5585 36.5778 49.6413 36.8037 49.6413 37.0823C49.6413 37.4136 49.5209 37.6771 49.2875 37.8804C49.0616 38.0762 48.7378 38.1741 48.3387 38.1741ZM47.0362 34.8461V35.855H48.0903C48.2936 35.855 48.4517 35.8098 48.5646 35.727C48.6776 35.6367 48.7378 35.5162 48.7378 35.3506C48.7378 35.1849 48.6776 35.0644 48.5646 34.9741C48.4517 34.8913 48.2936 34.8461 48.0903 34.8461H47.0362ZM47.0362 36.3896V37.6169H48.2258C48.4667 37.6169 48.6475 37.5642 48.783 37.4513C48.9185 37.3383 48.9863 37.1877 48.9863 36.992C48.9863 36.7962 48.9185 36.6531 48.783 36.5477C48.6475 36.4423 48.4592 36.3896 48.2183 36.3896H47.0362Z" fill="black"/>
<path d="M48.3387 46.5317C47.759 46.5317 47.2696 46.3435 46.8705 45.967C46.479 45.583 46.2832 45.1011 46.2832 44.5139C46.2832 43.9266 46.479 43.4447 46.8705 43.0682C47.2545 42.6842 47.7439 42.496 48.3387 42.496C48.7378 42.496 49.0917 42.5863 49.3928 42.7595V43.3769C49.0766 43.1736 48.7303 43.0682 48.3387 43.0682C47.9321 43.0682 47.5858 43.2037 47.3147 43.4823C47.0437 43.7534 46.9081 44.0997 46.9081 44.5214C46.9081 44.943 47.0437 45.2894 47.3223 45.5604C47.5933 45.8315 47.9472 45.967 48.3613 45.967C48.8056 45.967 49.1745 45.8466 49.4757 45.6131V46.2306C49.1519 46.4263 48.7679 46.5317 48.3387 46.5317Z" fill="black"/>
<path d="M83.9834 15.9247C83.9834 42.6315 83.9834 69.3383 83.9834 96.0452" stroke="#161616" stroke-width="0.5" stroke-miterlimit="10"/>
<path d="M110.05 15.9247C110.05 42.6315 110.05 69.3383 110.05 96.0452" stroke="#161616" stroke-width="0.5" stroke-miterlimit="10"/>
<path d="M135.439 15.9247C135.439 42.6315 135.439 69.3383 135.439 96.0452" stroke="#161616" stroke-width="0.5" stroke-miterlimit="10"/>
<path d="M43.7612 23.6649C87.7405 23.6649 131.622 23.6649 175.601 23.6649" stroke="#161616" stroke-width="0.5" stroke-miterlimit="10"/>
<path d="M43.7612 31.759C87.7405 31.759 131.622 31.759 175.601 31.759" stroke="#161616" stroke-width="0.5" stroke-miterlimit="10"/>
<path d="M43.7612 39.8607C87.7405 39.8607 131.622 39.8607 175.601 39.8607" stroke="#161616" stroke-width="0.5" stroke-miterlimit="10"/>
<path d="M43.7612 47.9548C87.7405 47.9548 131.622 47.9548 175.601 47.9548" stroke="#161616" stroke-width="0.5" stroke-miterlimit="10"/>
<path d="M43.7612 56.0564C87.7405 56.0564 131.622 56.0564 175.601 56.0564" stroke="#161616" stroke-width="0.5" stroke-miterlimit="10"/>
<path d="M43.7612 64.1505C87.7405 64.1505 131.622 64.1505 175.601 64.1505" stroke="#161616" stroke-width="0.5" stroke-miterlimit="10"/>
<path d="M43.7612 72.2522C87.7405 72.2522 131.622 72.2522 175.601 72.2522" stroke="#161616" stroke-width="0.5" stroke-miterlimit="10"/>
<path d="M43.7612 80.3463C87.7405 80.3463 131.622 80.3463 175.601 80.3463" stroke="#161616" stroke-width="0.5" stroke-miterlimit="10"/>
<path d="M43.7612 88.448C87.7405 88.448 131.622 88.448 175.601 88.448" stroke="#161616" stroke-width="0.5" stroke-miterlimit="10"/>
<path d="M173.109 96.0376H46.261C44.8831 96.0376 43.7612 94.9232 43.7612 93.5378V18.4169C43.7612 17.039 44.8756 15.9171 46.261 15.9171H173.109C174.487 15.9171 175.609 17.0315 175.609 18.4169V93.5378C175.601 94.9232 174.487 96.0376 173.109 96.0376Z" stroke="#161616" stroke-width="0.5" stroke-miterlimit="10"/>
<path d="M48.2786 54.8367H46.9082V50.944H48.2861C48.911 50.944 49.4155 51.1247 49.8146 51.4861C50.2136 51.8475 50.4094 52.3143 50.4094 52.8866C50.4094 53.4588 50.2136 53.9331 49.8146 54.2946C49.4155 54.656 48.911 54.8367 48.2786 54.8367ZM47.5181 51.5011V54.272H48.2259C48.7153 54.272 49.0993 54.144 49.3703 53.8955C49.6414 53.647 49.7844 53.3082 49.7844 52.879C49.7844 52.4574 49.6489 52.1186 49.3703 51.8626C49.0993 51.6141 48.7153 51.4861 48.2259 51.4861H47.5181V51.5011Z" fill="black"/>
<path d="M48.0605 86.0988H47.4582L47.8045 83.8927H46.8784L46.9612 83.3656H49.4083L49.3255 83.8927H48.4069L48.0605 86.0988Z" fill="black"/>
<path d="M50.1914 85.6848L49.9505 87.2132H49.3481L49.958 83.3657H50.5604L50.5077 83.7196C50.7787 83.4335 51.11 83.2904 51.494 83.2904C51.8479 83.2904 52.134 83.4184 52.3449 83.6669C52.5632 83.9153 52.6686 84.2165 52.6686 84.5779C52.6686 85.0071 52.5331 85.3836 52.262 85.6998C51.991 86.0161 51.6371 86.1742 51.2004 86.1742C50.7637 86.1742 50.4324 86.0085 50.1914 85.6848ZM51.2681 83.825C51.1025 83.825 50.9444 83.8702 50.7787 83.968C50.6131 84.0659 50.4926 84.1789 50.4023 84.3144L50.2667 85.1803C50.327 85.3083 50.4399 85.4137 50.5905 85.5116C50.7486 85.6095 50.9218 85.6546 51.1025 85.6546C51.3585 85.6546 51.5844 85.5568 51.7651 85.3685C51.9533 85.1728 52.0437 84.9318 52.0437 84.6532C52.0437 84.4123 51.9759 84.2165 51.8329 84.0659C51.6898 83.9003 51.5016 83.825 51.2681 83.825Z" fill="black"/>
<path d="M55.7931 85.632C55.8458 85.632 55.891 85.6245 55.9211 85.6094L55.8534 86.0687C55.7705 86.1214 55.6576 86.144 55.5221 86.144C55.2134 86.144 55.0327 86.016 54.98 85.7675C54.6938 86.0311 54.3625 86.1666 53.9785 86.1666C53.6849 86.1666 53.444 86.0838 53.2632 85.9257C53.0825 85.7675 52.9922 85.5642 52.9922 85.3158C52.9922 85.0146 53.1051 84.7737 53.3235 84.6005C53.5418 84.4273 53.8129 84.3445 54.1442 84.3445C54.5056 84.3445 54.8218 84.4273 55.108 84.5854C55.1305 84.4725 55.1381 84.3821 55.1381 84.3219C55.1381 83.9831 54.8896 83.8174 54.3851 83.8174C54.0538 83.8174 53.7602 83.8852 53.5117 84.0207L53.6021 83.4937C53.8505 83.3657 54.1743 83.3054 54.5734 83.3054C54.9122 83.3054 55.1983 83.3807 55.4167 83.5313C55.635 83.6819 55.748 83.9153 55.748 84.2315C55.748 84.2692 55.7404 84.3746 55.7178 84.5402L55.6049 85.248C55.5898 85.3082 55.5898 85.3685 55.5898 85.4287C55.5672 85.5642 55.6425 85.632 55.7931 85.632ZM54.9724 85.3233L55.0251 85.0146C54.7917 84.8715 54.5357 84.8038 54.2496 84.8038C54.0388 84.8038 53.8807 84.8414 53.7602 84.9242C53.6397 84.9995 53.5795 85.1125 53.5795 85.2631C53.5795 85.3911 53.6322 85.4889 53.7376 85.5567C53.843 85.6245 53.9785 85.6621 54.1367 85.6621C54.3023 85.6621 54.4604 85.632 54.6185 85.5642C54.7691 85.4889 54.8896 85.4137 54.9724 85.3233Z" fill="black"/>
<path d="M56.9977 86.0988H56.418L56.8471 83.3656H57.4269L58.1874 84.5025L59.3093 83.3656H59.9116L59.4824 86.0988H58.9027L59.2038 84.1863L58.21 85.1952H57.9766L57.3064 84.1863L56.9977 86.0988Z" fill="black"/>
<path d="M62.5549 84.6832C62.841 84.7811 62.9841 84.9769 62.9841 85.2705C62.9841 85.5341 62.8862 85.7449 62.6904 85.888C62.4946 86.031 62.2311 86.0988 61.8998 86.0988H60.3262L60.7553 83.3656H62.2537C62.4871 83.3656 62.6753 83.4258 62.8109 83.5388C62.9389 83.6517 63.0066 83.8023 63.0066 83.9905C63.0066 84.1562 62.969 84.2992 62.8786 84.4197C62.7958 84.5402 62.6829 84.6305 62.5549 84.6832ZM61.0038 85.6169H61.9299C62.0655 85.6169 62.1709 85.5792 62.2537 85.5115C62.3365 85.4437 62.3817 85.3458 62.3817 85.2329C62.3817 85.1501 62.3516 85.0823 62.2838 85.0296C62.2236 84.9769 62.1332 84.9543 62.0278 84.9543H61.1092L61.0038 85.6169ZM61.1845 84.4574H61.9826C62.1031 84.4574 62.201 84.4272 62.2763 84.3595C62.3516 84.2917 62.3892 84.2089 62.3892 84.096C62.3892 83.9303 62.2763 83.8475 62.0579 83.8475H61.2749L61.1845 84.4574Z" fill="black"/>
<path d="M66.2668 85.632C66.3195 85.632 66.3646 85.6245 66.3948 85.6094L66.327 86.0687C66.2442 86.1214 66.1312 86.144 65.9957 86.144C65.687 86.144 65.5063 86.016 65.4536 85.7675C65.1675 86.0311 64.8362 86.1666 64.4522 86.1666C64.1585 86.1666 63.9176 86.0838 63.7369 85.9257C63.5562 85.7675 63.4658 85.5642 63.4658 85.3158C63.4658 85.0146 63.5788 84.7737 63.7971 84.6005C64.0155 84.4273 64.2865 84.3445 64.6178 84.3445C64.9792 84.3445 65.2955 84.4273 65.5816 84.5854C65.6042 84.4725 65.6117 84.3821 65.6117 84.3219C65.6117 83.9831 65.3632 83.8174 64.8588 83.8174C64.5275 83.8174 64.2338 83.8852 63.9854 84.0207L64.0757 83.4937C64.3242 83.3657 64.6479 83.3054 65.047 83.3054C65.3858 83.3054 65.6719 83.3807 65.8903 83.5313C66.1086 83.6819 66.2216 83.9153 66.2216 84.2315C66.2216 84.2692 66.214 84.3746 66.1915 84.5402L66.071 85.248C66.0635 85.3082 66.0559 85.3685 66.0559 85.4287C66.0333 85.5642 66.1086 85.632 66.2668 85.632ZM65.446 85.3233L65.4988 85.0146C65.2653 84.8715 65.0093 84.8038 64.7232 84.8038C64.5124 84.8038 64.3543 84.8414 64.2338 84.9242C64.1133 84.9995 64.0531 85.1125 64.0531 85.2631C64.0531 85.3911 64.1058 85.4889 64.2112 85.5567C64.3166 85.6245 64.4446 85.6621 64.6103 85.6621C64.7759 85.6621 64.934 85.632 65.0922 85.5642C65.2428 85.4889 65.3632 85.4137 65.446 85.3233Z" fill="black"/>
<path d="M67.449 86.0988H66.8843L67.3135 83.3657H67.9158L67.6297 85.2104L69.3916 83.3657H69.9563L69.5271 86.0988H68.9247L69.2109 84.2466L67.449 86.0988ZM67.848 82.0781H68.3525C68.3525 82.0932 68.345 82.1233 68.345 82.1534C68.345 82.2664 68.3826 82.3567 68.4504 82.432C68.5182 82.4998 68.6236 82.5374 68.7516 82.5374C68.8871 82.5374 69 82.4922 69.0904 82.4094C69.1807 82.3266 69.241 82.2137 69.2636 82.0781H69.7756C69.7304 82.3567 69.6099 82.5826 69.4142 82.7482C69.2184 82.9139 68.985 82.9967 68.7139 82.9967C68.4579 82.9967 68.2471 82.9289 68.0814 82.7934C67.9158 82.6579 67.833 82.4697 67.833 82.2438C67.8405 82.2212 67.8405 82.1685 67.848 82.0781Z" fill="black"/>
<path d="M48.0605 93.6282H47.4582L47.8045 91.4221H46.8784L46.9612 90.895H49.4083L49.3255 91.4221H48.4069L48.0605 93.6282Z" fill="black"/>
<path d="M50.1914 93.2142L49.9505 94.7426H49.3481L49.958 90.8951H50.5604L50.5077 91.249C50.7787 90.9629 51.11 90.8198 51.494 90.8198C51.8479 90.8198 52.134 90.9478 52.3449 91.1963C52.5632 91.4448 52.6686 91.7459 52.6686 92.1073C52.6686 92.5365 52.5331 92.913 52.262 93.2292C51.991 93.5455 51.6371 93.7036 51.2004 93.7036C50.7637 93.7036 50.4324 93.5379 50.1914 93.2142ZM51.2681 91.3544C51.1025 91.3544 50.9444 91.3996 50.7787 91.4975C50.6131 91.5953 50.4926 91.7083 50.4023 91.8438L50.2667 92.7097C50.327 92.8377 50.4399 92.9431 50.5905 93.041C50.7486 93.1389 50.9218 93.1841 51.1025 93.1841C51.3585 93.1841 51.5844 93.0862 51.7651 92.8979C51.9533 92.7022 52.0437 92.4612 52.0437 92.1826C52.0437 91.9417 51.9759 91.7459 51.8329 91.5954C51.6898 91.4297 51.5016 91.3544 51.2681 91.3544Z" fill="black"/>
<path d="M54.6339 90.8273C55.0556 90.8273 55.4019 90.9553 55.6579 91.2188C55.9215 91.4748 56.057 91.7986 56.057 92.1901C56.057 92.6042 55.9064 92.9581 55.6203 93.2593C55.3266 93.5529 54.9577 93.7035 54.521 93.7035C54.0994 93.7035 53.7605 93.5755 53.5045 93.312C53.241 93.0484 53.1055 92.7247 53.1055 92.3407C53.1055 91.9266 53.2485 91.5727 53.5422 91.279C53.8434 90.9779 54.2048 90.8273 54.6339 90.8273ZM54.5285 93.1764C54.7921 93.1764 55.0104 93.0786 55.1911 92.8903C55.3718 92.6946 55.4622 92.4612 55.4622 92.175C55.4622 91.9341 55.3869 91.7383 55.2363 91.5877C55.0857 91.4372 54.8824 91.3619 54.6415 91.3619C54.3779 91.3619 54.1596 91.4597 53.9789 91.648C53.7982 91.8437 53.7078 92.0772 53.7078 92.3557C53.7078 92.6042 53.7831 92.8 53.9412 92.9506C54.0843 93.0936 54.2876 93.1764 54.5285 93.1764Z" fill="black"/>
<path d="M58.7371 91.4221H57.7055C57.698 91.4899 57.6754 91.5727 57.6604 91.6706C57.6453 91.7685 57.6302 91.8212 57.6302 91.8212C57.6001 91.9868 57.5775 92.1148 57.5549 92.1976C57.5173 92.3708 57.4797 92.4988 57.4495 92.5816C57.4194 92.672 57.3742 92.7849 57.314 92.9129C57.2688 93.0259 57.2161 93.1238 57.1559 93.1915C57.0957 93.2593 57.0204 93.3421 56.9225 93.4249C56.7644 93.5605 56.5535 93.6282 56.2825 93.6282C56.2072 93.6282 56.1394 93.6207 56.0942 93.6056L56.1771 93.0861C56.2072 93.0936 56.2448 93.1012 56.2975 93.1012C56.4933 93.1012 56.6514 92.9958 56.7644 92.7925C56.8773 92.5892 56.9752 92.2504 57.058 91.7685L57.2086 90.88H59.4147L58.978 93.6132H58.3756L58.7371 91.4221Z" fill="black"/>
<path d="M62.178 91.4221H61.1464C61.1389 91.4899 61.1163 91.5727 61.1013 91.6706C61.0862 91.7685 61.0712 91.8212 61.0712 91.8212C61.041 91.9868 61.0185 92.1148 60.9959 92.1976C60.9582 92.3708 60.9206 92.4988 60.8905 92.5816C60.8603 92.672 60.8152 92.7849 60.7549 92.9129C60.7097 93.0259 60.657 93.1238 60.5968 93.1915C60.5366 93.2593 60.4613 93.3421 60.3634 93.4249C60.2053 93.5605 59.9944 93.6282 59.7234 93.6282C59.6481 93.6282 59.5803 93.6207 59.5352 93.6056L59.618 93.0861C59.6481 93.0936 59.6857 93.1012 59.7384 93.1012C59.9342 93.1012 60.0923 92.9958 60.2053 92.7925C60.3182 92.5892 60.4161 92.2504 60.4989 91.7685L60.6495 90.88H62.8556L62.4189 93.6132H61.8166L62.178 91.4221Z" fill="black"/>
<path d="M64.836 93.1764C65.1372 93.1764 65.4308 93.1012 65.7019 92.9506L65.6266 93.4701C65.4082 93.6282 65.1071 93.7035 64.708 93.7035C64.2939 93.7035 63.9551 93.583 63.6915 93.3496C63.428 93.1087 63.2925 92.7924 63.2925 92.3934C63.2925 91.9642 63.4355 91.5953 63.7217 91.2866C64.0002 90.9854 64.3617 90.8273 64.8059 90.8273C65.1824 90.8273 65.476 90.9402 65.6944 91.1736C65.9127 91.3995 66.0181 91.6781 66.0181 92.0094C66.0181 92.175 66.0106 92.3181 65.988 92.4461H63.8798C63.8798 92.6795 63.9701 92.8527 64.1508 92.9882C64.3315 93.1237 64.5574 93.1764 64.836 93.1764ZM64.7833 91.3317C64.5725 91.3317 64.3842 91.392 64.2261 91.5124C64.068 91.6329 63.9701 91.791 63.925 91.9868H65.4459V91.9266C65.4459 91.7534 65.3857 91.6179 65.2652 91.5049C65.1447 91.392 64.9866 91.3317 64.7833 91.3317Z" fill="black"/>
<path d="M67.012 93.6283H66.4473L66.8764 90.8951H67.4788L67.1927 92.7398L68.9546 90.8951H69.5193L69.0901 93.6283H68.4877L68.7738 91.776L67.012 93.6283ZM67.4186 89.6075H67.923C67.923 89.6226 67.9155 89.6527 67.9155 89.6828C67.9155 89.7958 67.9531 89.8861 68.0209 89.9614C68.0887 90.0292 68.1941 90.0668 68.3221 90.0668C68.4576 90.0668 68.5706 90.0217 68.6609 89.9388C68.7513 89.856 68.8115 89.7431 68.8341 89.6075H69.3461C69.3009 89.8861 69.1804 90.112 68.9847 90.2777C68.7889 90.4433 68.5555 90.5261 68.2844 90.5261C68.0284 90.5261 67.8176 90.4584 67.652 90.3228C67.4863 90.1873 67.4035 89.9991 67.4035 89.7732C67.4035 89.7506 67.411 89.6979 67.4186 89.6075Z" fill="black"/>
<path d="M72.004 90.3981C71.5898 90.4583 71.2736 90.5863 71.0477 90.7821C70.8218 90.9778 70.6863 91.2414 70.6261 91.5877C70.7541 91.4296 70.9122 91.3016 71.1155 91.1962C71.3188 91.0983 71.5221 91.0456 71.748 91.0456C72.0717 91.0456 72.3428 91.1585 72.5687 91.3769C72.787 91.6028 72.9 91.8814 72.9 92.2127C72.9 92.6192 72.7569 92.9731 72.4708 93.2668C72.1847 93.5529 71.8232 93.7035 71.3865 93.7035C70.9574 93.7035 70.6261 93.5604 70.3927 93.2894C70.1517 93.0108 70.0312 92.6494 70.0312 92.2127C70.0312 90.9176 70.6185 90.1496 71.7856 89.9162C71.8985 89.8936 72.019 89.871 72.1621 89.8484C72.275 89.8334 72.4256 89.8108 72.5988 89.7807L72.9903 89.7129L72.9 90.2776C72.5385 90.3152 72.2449 90.3529 72.004 90.3981ZM70.6261 92.1901V92.2654C70.6261 92.5364 70.6938 92.7623 70.8294 92.9279C70.9649 93.0936 71.1682 93.1764 71.4242 93.1764C71.6651 93.1764 71.8684 93.0861 72.0341 92.9129C72.2072 92.7397 72.2901 92.5214 72.2901 92.2654C72.2901 92.0545 72.2223 91.8889 72.0793 91.7609C71.9437 91.6329 71.763 91.5727 71.5447 91.5727C71.3338 91.5727 71.1381 91.6329 70.9649 91.7609C70.7992 91.8814 70.6863 92.0244 70.6261 92.1901Z" fill="black"/>
<path d="M75.5955 90.8951H76.243L74.5037 93.9746C74.3456 94.2457 74.1724 94.449 73.9842 94.577C73.796 94.705 73.5776 94.7652 73.3216 94.7652C73.1409 94.7652 72.9903 94.7351 72.8623 94.6673L72.9451 94.1327C73.0656 94.2005 73.1861 94.2382 73.3216 94.2382C73.4797 94.2382 73.6228 94.1779 73.7508 94.065C73.8788 93.952 74.0143 93.7713 74.1574 93.5229L73.3141 90.8876H73.939L74.5263 92.8829L75.5955 90.8951Z" fill="black"/>
<path d="M77.7264 93.7035C77.3122 93.7035 76.9734 93.583 76.7099 93.3346C76.4464 93.0786 76.3184 92.7623 76.3184 92.3708C76.3184 91.9341 76.4689 91.5652 76.7777 91.2715C77.0939 90.9779 77.4779 90.8273 77.9221 90.8273C78.2534 90.8273 78.5546 90.9026 78.8181 91.0532L78.7353 91.5652C78.4944 91.4221 78.2459 91.3543 77.9748 91.3543C77.6737 91.3543 77.4252 91.4522 77.2219 91.6404C77.0186 91.8287 76.9207 92.0621 76.9207 92.3482C76.9207 92.6042 77.0111 92.8075 77.1918 92.9581C77.3725 93.1087 77.5984 93.184 77.8694 93.184C78.1179 93.184 78.3513 93.1237 78.5772 93.0108L78.4944 93.5454C78.2609 93.6433 78.0049 93.7035 77.7264 93.7035Z" fill="black"/>
<path d="M48.934 61.952H47.0215V58.0518H48.7909C49.1448 58.0518 49.4234 58.1346 49.6267 58.3078C49.83 58.4809 49.9354 58.7143 49.9354 59.008C49.9354 59.2038 49.8902 59.3694 49.7923 59.5125C49.6944 59.6555 49.574 59.7534 49.4158 59.8136C49.6643 59.8588 49.8601 59.9718 50.0107 60.16C50.1612 60.3482 50.2441 60.5741 50.2441 60.8527C50.2441 61.184 50.1236 61.4475 49.8902 61.6508C49.6568 61.8466 49.3405 61.952 48.934 61.952ZM47.6314 58.6165V59.6254H48.6855C48.8888 59.6254 49.0469 59.5802 49.1598 59.4974C49.2728 59.4071 49.333 59.2866 49.333 59.1209C49.333 58.9553 49.2728 58.8348 49.1598 58.7445C49.0469 58.6616 48.8888 58.6165 48.6855 58.6165H47.6314ZM47.6314 60.16V61.3873H48.821C49.0619 61.3873 49.2427 61.3346 49.3782 61.2216C49.5137 61.1087 49.5815 60.9581 49.5815 60.7623C49.5815 60.5666 49.5137 60.4235 49.3782 60.3181C49.2427 60.2127 49.0544 60.16 48.8135 60.16H47.6314Z" fill="black"/>
<path d="M53.8735 61.952H51.0273V58.0518H53.7982V58.6165H51.6372V59.5878H53.3991V60.1525H51.6372V61.3873H53.8659V61.952H53.8735Z" fill="black"/>
<path d="M48.9339 70.3021C48.3542 70.3021 47.8648 70.1139 47.4657 69.7374C47.0742 69.3534 46.8784 68.8715 46.8784 68.2842C46.8784 67.6969 47.0742 67.2151 47.4657 66.8386C47.8497 66.4546 48.3391 66.2664 48.9339 66.2664C49.333 66.2664 49.6869 66.3567 49.9881 66.5299V67.1473C49.6718 66.944 49.3255 66.8386 48.9339 66.8386C48.5274 66.8386 48.181 66.9741 47.91 67.2527C47.6389 67.5238 47.5034 67.8701 47.5034 68.2918C47.5034 68.7134 47.6389 69.0598 47.9175 69.3308C48.1885 69.6019 48.5424 69.7374 48.9565 69.7374C49.4008 69.7374 49.7697 69.6169 50.0709 69.3835V70.0009C49.7471 70.1967 49.3631 70.3021 48.9339 70.3021Z" fill="black"/>
<path d="M53.6698 70.2343H50.8237V66.3341H53.5945V66.8988H51.4336V67.8701H53.1955V68.4348H51.4336V69.6696H53.6623V70.2343H53.6698Z" fill="black"/>
<path d="M48.392 78.5167H47.0142V74.6165H48.392C49.017 74.6165 49.529 74.7972 49.9205 75.1586C50.312 75.52 50.5153 75.9868 50.5153 76.559C50.5153 77.1313 50.3196 77.6056 49.9205 77.967C49.529 78.336 49.017 78.5167 48.392 78.5167ZM47.6316 75.1812V77.952H48.3393C48.8287 77.952 49.2128 77.824 49.4763 77.5755C49.7549 77.327 49.8904 76.9882 49.8904 76.559C49.8904 76.1374 49.7549 75.7986 49.4763 75.5426C49.2052 75.2941 48.8287 75.1661 48.3393 75.1661H47.6316V75.1812Z" fill="black"/>
<path d="M54.1897 78.5167H51.3511V74.6165H54.1219V75.1812H51.961V76.1525H53.7228V76.7172H51.961V77.952H54.1897V78.5167Z" fill="black"/>
<path d="M94.6446 21.5869H94.0799V18.5525L93.2817 18.9817V18.4245L94.1401 17.9426H94.6446V21.5869Z" fill="#C62658"/>
<path d="M96.9787 21.6546C96.5194 21.6546 96.1429 21.4739 95.8643 21.105C95.5857 20.736 95.4502 20.2843 95.4502 19.7572C95.4502 19.2377 95.5857 18.7859 95.8643 18.417C96.1429 18.048 96.5194 17.8673 96.9787 17.8673C97.4455 17.8673 97.822 18.0555 98.093 18.417C98.3716 18.7859 98.5147 19.2301 98.5147 19.7572C98.5147 20.2843 98.3716 20.736 98.093 21.105C97.822 21.4739 97.453 21.6546 96.9787 21.6546ZM96.9787 21.12C97.2648 21.12 97.4982 20.992 97.6789 20.7285C97.8596 20.465 97.9424 20.1487 97.9424 19.7647C97.9424 19.3807 97.8521 19.057 97.6789 18.801C97.4982 18.5374 97.2723 18.4094 96.9787 18.4094C96.6926 18.4094 96.4591 18.545 96.286 18.8085C96.1053 19.072 96.0224 19.3883 96.0224 19.7723C96.0224 20.1487 96.1128 20.4725 96.286 20.736C96.4667 20.9845 96.6926 21.12 96.9787 21.12Z" fill="#C62658"/>
<path d="M99.2679 21.632C99.1624 21.632 99.0796 21.5943 99.0043 21.5266C98.9366 21.4588 98.8989 21.3684 98.8989 21.263C98.8989 21.1651 98.9366 21.0748 99.0043 21.007C99.0721 20.9393 99.1624 20.9016 99.2679 20.9016C99.3657 20.9016 99.4486 20.9393 99.5239 21.007C99.5992 21.0748 99.6368 21.1651 99.6368 21.263C99.6368 21.3684 99.5992 21.4588 99.5314 21.5266C99.4561 21.5943 99.3657 21.632 99.2679 21.632Z" fill="#C62658"/>
<path d="M121.532 21.6546H120.968V18.6203L120.169 19.0494V18.4923L121.028 18.0104H121.532V21.6546Z" fill="#C62658"/>
<path d="M123.527 21.6546H122.963V18.6203L122.165 19.0494V18.4923L123.023 18.0104H123.52V21.6546H123.527Z" fill="#C62658"/>
<path d="M124.679 21.6998C124.574 21.6998 124.491 21.6622 124.416 21.5944C124.348 21.5267 124.311 21.4363 124.311 21.3309C124.311 21.233 124.348 21.1427 124.416 21.0749C124.484 21.0071 124.574 20.9695 124.679 20.9695C124.777 20.9695 124.86 21.0071 124.935 21.0749C125.011 21.1427 125.048 21.233 125.048 21.3309C125.048 21.4363 125.011 21.5267 124.943 21.5944C124.868 21.6622 124.777 21.6998 124.679 21.6998Z" fill="#C62658"/>
<path d="M153.66 21.6545H153.095V18.6201L152.297 19.0493V18.4921L153.156 18.0103H153.66V21.6545Z" fill="#C62658"/>
<path d="M156.905 21.6545H154.36V21.2404L155.505 20.1637C155.746 19.9378 155.926 19.742 156.039 19.5764C156.145 19.4183 156.198 19.2526 156.198 19.0719C156.198 18.8912 156.13 18.7406 155.994 18.6277C155.859 18.5147 155.686 18.4545 155.467 18.4545C155.106 18.4545 154.767 18.6051 154.443 18.9063V18.3039C154.744 18.0479 155.106 17.9199 155.52 17.9199C155.866 17.9199 156.152 18.0178 156.393 18.2211C156.634 18.4169 156.762 18.6804 156.762 18.9966C156.762 19.2451 156.702 19.471 156.582 19.6667C156.454 19.87 156.25 20.111 155.964 20.3745L155.174 21.1275H156.883V21.6545H156.905Z" fill="#C62658"/>
<path d="M157.824 21.6997C157.719 21.6997 157.628 21.6621 157.56 21.5943C157.485 21.5265 157.455 21.4362 157.455 21.3308C157.455 21.2329 157.493 21.1425 157.56 21.0748C157.628 21.007 157.719 20.9694 157.824 20.9694C157.922 20.9694 158.005 21.007 158.08 21.0748C158.155 21.1425 158.193 21.2329 158.193 21.3308C158.193 21.4362 158.155 21.5265 158.088 21.5943C158.012 21.6621 157.929 21.6997 157.824 21.6997Z" fill="#C62658"/>
<path d="M87.0176 37.4814C86.6185 37.4814 86.2947 37.3233 86.0538 37.0071C85.8129 36.6833 85.6924 36.2993 85.6924 35.84C85.6924 35.3883 85.8129 35.0043 86.0538 34.6805C86.2947 34.3643 86.6185 34.1986 87.0176 34.1986C87.4241 34.1986 87.7479 34.3567 87.9813 34.6805C88.2223 34.9967 88.3503 35.3883 88.3503 35.84C88.3503 36.2993 88.2298 36.6833 87.9813 37.0071C87.7479 37.3233 87.4241 37.4814 87.0176 37.4814ZM87.0176 37.0146C87.266 37.0146 87.4693 36.9017 87.6199 36.6758C87.7705 36.4499 87.8533 36.1713 87.8533 35.84C87.8533 35.5087 87.778 35.2301 87.6199 35.0043C87.4618 34.7784 87.266 34.6654 87.0176 34.6654C86.7691 34.6654 86.5733 34.7784 86.4152 35.0118C86.2646 35.2377 86.1818 35.5163 86.1818 35.84C86.1818 36.1638 86.2571 36.4424 86.4152 36.6758C86.5733 36.9017 86.7766 37.0146 87.0176 37.0146Z" fill="black"/>
<path d="M89.9087 37.4211H89.4193V34.7934L88.7266 35.1623V34.6804L89.472 34.2588H89.9087V37.4211Z" fill="black"/>
<path d="M90.9105 37.4588C90.8201 37.4588 90.7448 37.4286 90.6846 37.3684C90.6244 37.3082 90.5942 37.2329 90.5942 37.1425C90.5942 37.0522 90.6244 36.9844 90.6846 36.9166C90.7448 36.8489 90.8201 36.8263 90.9105 36.8263C90.9933 36.8263 91.0686 36.8564 91.1288 36.9166C91.1891 36.9769 91.2267 37.0522 91.2267 37.1425C91.2267 37.2329 91.1966 37.3082 91.1364 37.3684C91.0761 37.4286 91.0008 37.4588 90.9105 37.4588Z" fill="black"/>
<path d="M92.5439 37.4211H92.0545V34.7934L91.3618 35.1623V34.6804L92.1072 34.2588H92.5439V37.4211Z" fill="black"/>
<path d="M94.562 37.4814C94.1629 37.4814 93.8392 37.3233 93.5982 37.0071C93.3573 36.6833 93.2368 36.2993 93.2368 35.84C93.2368 35.3883 93.3573 35.0043 93.5982 34.6805C93.8392 34.3643 94.1629 34.1986 94.562 34.1986C94.9686 34.1986 95.2923 34.3567 95.5258 34.6805C95.7667 34.9967 95.8947 35.3883 95.8947 35.84C95.8947 36.2993 95.7742 36.6833 95.5258 37.0071C95.2923 37.3233 94.9686 37.4814 94.562 37.4814ZM94.562 37.0146C94.8105 37.0146 95.0138 36.9017 95.1643 36.6758C95.3149 36.4499 95.3978 36.1713 95.3978 35.84C95.3978 35.5087 95.3225 35.2301 95.1643 35.0043C95.0062 34.7784 94.8105 34.6654 94.562 34.6654C94.3135 34.6654 94.1178 34.7784 93.9596 35.0118C93.8091 35.2377 93.7262 35.5163 93.7262 35.84C93.7262 36.1638 93.8015 36.4424 93.9596 36.6758C94.1178 36.9017 94.321 37.0146 94.562 37.0146Z" fill="black"/>
<path d="M96.5423 37.4588C96.452 37.4588 96.3767 37.4286 96.3164 37.3684C96.2562 37.3082 96.2261 37.2329 96.2261 37.1425C96.2261 37.0522 96.2562 36.9844 96.3164 36.9166C96.3767 36.8489 96.452 36.8263 96.5423 36.8263C96.6251 36.8263 96.7004 36.8564 96.7607 36.9166C96.8209 36.9769 96.8585 37.0522 96.8585 37.1425C96.8585 37.2329 96.8284 37.3082 96.7682 37.3684C96.708 37.4286 96.6327 37.4588 96.5423 37.4588Z" fill="black"/>
<path d="M99.5316 37.4212H97.333V37.0598L98.3269 36.1261C98.5377 35.9304 98.6958 35.7647 98.7937 35.6217C98.8841 35.4861 98.9292 35.3431 98.9292 35.185C98.9292 35.0268 98.869 34.8988 98.7561 34.801C98.6431 34.7031 98.485 34.6579 98.3043 34.6579C97.9881 34.6579 97.6944 34.7859 97.4158 35.0494V34.5299C97.6718 34.3116 97.9881 34.1986 98.3495 34.1986C98.6506 34.1986 98.8991 34.2814 99.1099 34.4546C99.3208 34.6278 99.4262 34.8537 99.4262 35.1247C99.4262 35.3356 99.3735 35.5313 99.2681 35.7045C99.1551 35.8852 98.9819 36.0885 98.7335 36.3219L98.0483 36.9694H99.5316V37.4212Z" fill="black"/>
<path d="M101.353 37.4814C100.954 37.4814 100.631 37.3233 100.39 37.0071C100.149 36.6833 100.028 36.2993 100.028 35.84C100.028 35.3883 100.149 35.0043 100.39 34.6805C100.631 34.3643 100.954 34.1986 101.353 34.1986C101.76 34.1986 102.084 34.3567 102.317 34.6805C102.558 34.9967 102.686 35.3883 102.686 35.84C102.686 36.2993 102.566 36.6833 102.317 37.0071C102.076 37.3233 101.76 37.4814 101.353 37.4814ZM101.353 37.0146C101.602 37.0146 101.805 36.9017 101.956 36.6758C102.106 36.4499 102.189 36.1713 102.189 35.84C102.189 35.5087 102.114 35.2301 101.956 35.0043C101.798 34.7784 101.602 34.6654 101.353 34.6654C101.105 34.6654 100.909 34.7784 100.751 35.0118C100.601 35.2377 100.518 35.5163 100.518 35.84C100.518 36.1638 100.593 36.4424 100.751 36.6758C100.902 36.9017 101.105 37.0146 101.353 37.0146Z" fill="black"/>
<path d="M104.245 37.4211H103.755V34.7934L103.062 35.1623V34.6804L103.808 34.2588H104.245V37.4211Z" fill="black"/>
<path d="M106.73 35.7421C106.926 35.8023 107.076 35.9077 107.189 36.0508C107.302 36.1939 107.355 36.3595 107.355 36.5402C107.355 36.8339 107.234 37.0597 107.001 37.2254C106.76 37.391 106.474 37.4814 106.127 37.4814C105.781 37.4814 105.487 37.3986 105.246 37.2254C105.006 37.0597 104.893 36.8339 104.893 36.5402C104.893 36.352 104.953 36.1863 105.066 36.0508C105.179 35.9077 105.337 35.8099 105.525 35.7421C105.374 35.6819 105.262 35.584 105.179 35.4635C105.096 35.343 105.051 35.2075 105.051 35.0494C105.051 34.8009 105.156 34.5976 105.359 34.432C105.563 34.2739 105.826 34.191 106.135 34.191C106.444 34.191 106.7 34.2739 106.91 34.432C107.114 34.5901 107.219 34.7934 107.219 35.0494C107.219 35.2 107.174 35.343 107.091 35.4635C106.993 35.5915 106.88 35.6819 106.73 35.7421ZM106.85 36.5101C106.85 36.352 106.782 36.2165 106.639 36.1186C106.504 36.0132 106.338 35.968 106.127 35.968C105.917 35.968 105.743 36.0207 105.608 36.1186C105.472 36.224 105.397 36.352 105.397 36.5101C105.397 36.6682 105.465 36.8037 105.608 36.9016C105.751 37.007 105.924 37.0597 106.127 37.0597C106.331 37.0597 106.504 37.007 106.639 36.9016C106.782 36.8037 106.85 36.6682 106.85 36.5101ZM105.691 35.4485C105.804 35.5388 105.954 35.584 106.127 35.584C106.301 35.584 106.444 35.5388 106.564 35.4485C106.677 35.3581 106.737 35.2452 106.737 35.1021C106.737 34.959 106.677 34.8461 106.564 34.7557C106.451 34.6654 106.308 34.6202 106.127 34.6202C105.954 34.6202 105.804 34.6654 105.691 34.7557C105.578 34.8461 105.518 34.959 105.518 35.1021C105.518 35.2452 105.57 35.3581 105.691 35.4485Z" fill="black"/>
<path d="M112.979 37.5416C112.58 37.5416 112.256 37.3835 112.015 37.0673C111.774 36.7435 111.654 36.3595 111.654 35.9002C111.654 35.4484 111.774 35.0644 112.015 34.7407C112.256 34.4244 112.58 34.2588 112.979 34.2588C113.386 34.2588 113.709 34.4169 113.943 34.7407C114.184 35.0569 114.312 35.4484 114.312 35.9002C114.312 36.3595 114.191 36.7435 113.943 37.0673C113.709 37.3835 113.386 37.5416 112.979 37.5416ZM112.979 37.0748C113.227 37.0748 113.431 36.9618 113.581 36.736C113.732 36.5101 113.815 36.2315 113.815 35.9002C113.815 35.5689 113.739 35.2903 113.581 35.0644C113.423 34.8386 113.227 34.7256 112.979 34.7256C112.731 34.7256 112.535 34.8386 112.377 35.072C112.226 35.2978 112.143 35.5764 112.143 35.9002C112.143 36.224 112.219 36.5026 112.377 36.736C112.535 36.9618 112.731 37.0748 112.979 37.0748Z" fill="black"/>
<path d="M115.87 37.4813H115.381V34.8536L114.688 35.2225V34.7406L115.433 34.319H115.87V37.4813Z" fill="black"/>
<path d="M116.864 37.5191C116.774 37.5191 116.698 37.4889 116.638 37.4287C116.578 37.3685 116.548 37.2932 116.548 37.2028C116.548 37.1125 116.578 37.0447 116.638 36.9769C116.698 36.9092 116.774 36.8866 116.864 36.8866C116.947 36.8866 117.022 36.9167 117.082 36.9769C117.143 37.0372 117.18 37.1125 117.18 37.2028C117.18 37.2932 117.15 37.3685 117.09 37.4287C117.03 37.4889 116.954 37.5191 116.864 37.5191Z" fill="black"/>
<path d="M118.498 37.4813H118.009V34.8536L117.316 35.2225V34.7406L118.061 34.319H118.498V37.4813Z" fill="black"/>
<path d="M120.523 37.5416C120.124 37.5416 119.801 37.3835 119.56 37.0673C119.319 36.7435 119.198 36.3595 119.198 35.9002C119.198 35.4484 119.319 35.0644 119.56 34.7407C119.801 34.4244 120.124 34.2588 120.523 34.2588C120.93 34.2588 121.254 34.4169 121.487 34.7407C121.728 35.0569 121.856 35.4484 121.856 35.9002C121.856 36.3595 121.736 36.7435 121.487 37.0673C121.254 37.3835 120.93 37.5416 120.523 37.5416ZM120.523 37.0748C120.772 37.0748 120.975 36.9618 121.126 36.736C121.276 36.5101 121.359 36.2315 121.359 35.9002C121.359 35.5689 121.284 35.2903 121.126 35.0644C120.968 34.8386 120.772 34.7256 120.523 34.7256C120.275 34.7256 120.079 34.8386 119.921 35.072C119.77 35.2978 119.688 35.5764 119.688 35.9002C119.688 36.224 119.763 36.5026 119.921 36.736C120.079 36.9618 120.275 37.0748 120.523 37.0748Z" fill="black"/>
<path d="M122.504 37.5191C122.413 37.5191 122.338 37.4889 122.278 37.4287C122.218 37.3685 122.188 37.2932 122.188 37.2028C122.188 37.1125 122.218 37.0447 122.278 36.9769C122.338 36.9092 122.413 36.8866 122.504 36.8866C122.587 36.8866 122.662 36.9167 122.722 36.9769C122.782 37.0372 122.82 37.1125 122.82 37.2028C122.82 37.2932 122.79 37.3685 122.73 37.4287C122.662 37.4889 122.587 37.5191 122.504 37.5191Z" fill="black"/>
<path d="M125.485 37.4814H123.287V37.12L124.28 36.1863C124.491 35.9906 124.649 35.8249 124.747 35.6818C124.838 35.5463 124.883 35.4033 124.883 35.2451C124.883 35.087 124.823 34.959 124.71 34.8611C124.597 34.7633 124.446 34.7181 124.258 34.7181C123.942 34.7181 123.648 34.8461 123.369 35.1096V34.5901C123.625 34.3717 123.942 34.2588 124.303 34.2588C124.604 34.2588 124.853 34.3416 125.064 34.5148C125.274 34.688 125.38 34.9138 125.38 35.1849C125.38 35.3957 125.327 35.5915 125.222 35.7647C125.109 35.9454 124.936 36.1487 124.687 36.3821L124.002 37.0296H125.485V37.4814Z" fill="black"/>
<path d="M127.308 37.5416C126.909 37.5416 126.585 37.3835 126.344 37.0673C126.103 36.7435 125.982 36.3595 125.982 35.9002C125.982 35.4484 126.103 35.0644 126.344 34.7407C126.585 34.4244 126.909 34.2588 127.308 34.2588C127.714 34.2588 128.038 34.4169 128.271 34.7407C128.512 35.0569 128.64 35.4484 128.64 35.9002C128.64 36.3595 128.52 36.7435 128.271 37.0673C128.038 37.3835 127.714 37.5416 127.308 37.5416ZM127.308 37.0748C127.556 37.0748 127.759 36.9618 127.91 36.736C128.061 36.5101 128.143 36.2315 128.143 35.9002C128.143 35.5689 128.068 35.2903 127.91 35.0644C127.752 34.8386 127.556 34.7256 127.308 34.7256C127.059 34.7256 126.863 34.8386 126.705 35.072C126.555 35.2978 126.472 35.5764 126.472 35.9002C126.472 36.224 126.547 36.5026 126.705 36.736C126.863 36.9618 127.059 37.0748 127.308 37.0748Z" fill="black"/>
<path d="M131.283 37.4814H129.084V37.12L130.078 36.1863C130.289 35.9906 130.447 35.8249 130.545 35.6818C130.636 35.5463 130.681 35.4033 130.681 35.2451C130.681 35.087 130.62 34.959 130.508 34.8611C130.395 34.7633 130.244 34.7181 130.056 34.7181C129.74 34.7181 129.446 34.8461 129.167 35.1096V34.5901C129.423 34.3717 129.74 34.2588 130.101 34.2588C130.402 34.2588 130.651 34.3416 130.861 34.5148C131.072 34.688 131.178 34.9138 131.178 35.1849C131.178 35.3957 131.125 35.5915 131.02 35.7647C130.907 35.9454 130.733 36.1487 130.485 36.3821L129.8 37.0296H131.283V37.4814Z" fill="black"/>
<path d="M132.638 37.5416C132.262 37.5416 131.953 37.4587 131.697 37.3006V36.8187C131.953 37.007 132.262 37.0973 132.616 37.0973C132.827 37.0973 133 37.0371 133.15 36.9241C133.301 36.8037 133.376 36.6531 133.376 36.4573C133.376 36.2766 133.309 36.126 133.181 36.0131C133.053 35.9001 132.872 35.8399 132.646 35.8399C132.503 35.8399 132.367 35.8625 132.247 35.9152V35.5764L133.098 34.7557H131.818V34.319H133.753V34.6954L132.947 35.471C133.203 35.5011 133.421 35.599 133.61 35.7797C133.79 35.9529 133.888 36.1787 133.888 36.4573C133.888 36.7811 133.768 37.0446 133.534 37.2404C133.278 37.4437 132.985 37.5416 132.638 37.5416Z" fill="black"/>
<path d="M130.643 106.323C130.063 106.323 129.604 106.097 129.25 105.638C128.904 105.171 128.73 104.614 128.73 103.959C128.73 103.311 128.904 102.746 129.25 102.287C129.604 101.828 130.063 101.594 130.643 101.594C131.23 101.594 131.697 101.828 132.036 102.287C132.39 102.746 132.563 103.304 132.563 103.959C132.563 104.621 132.39 105.178 132.036 105.638C131.69 106.097 131.23 106.323 130.643 106.323ZM130.643 105.653C131.004 105.653 131.298 105.487 131.516 105.163C131.735 104.84 131.848 104.433 131.848 103.959C131.848 103.484 131.735 103.078 131.516 102.754C131.298 102.43 131.004 102.264 130.643 102.264C130.289 102.264 129.995 102.43 129.777 102.761C129.559 103.085 129.446 103.484 129.446 103.959C129.446 104.425 129.559 104.832 129.777 105.163C129.995 105.495 130.282 105.653 130.643 105.653Z" fill="#C62658"/>
<path d="M134.972 106.24H134.272V102.453L133.278 102.987V102.287L134.355 101.685H134.98V106.24H134.972Z" fill="#C62658"/>
<path d="M139.911 106.323C139.332 106.323 138.872 106.097 138.519 105.638C138.172 105.171 137.999 104.614 137.999 103.959C137.999 103.311 138.172 102.746 138.519 102.287C138.872 101.828 139.332 101.594 139.911 101.594C140.499 101.594 140.966 101.828 141.304 102.287C141.658 102.746 141.831 103.304 141.831 103.959C141.831 104.621 141.658 105.178 141.304 105.638C140.958 106.097 140.491 106.323 139.911 106.323ZM139.911 105.653C140.273 105.653 140.567 105.487 140.785 105.163C141.003 104.84 141.116 104.433 141.116 103.959C141.116 103.484 141.003 103.078 140.785 102.754C140.567 102.43 140.273 102.264 139.911 102.264C139.558 102.264 139.264 102.43 139.046 102.761C138.827 103.085 138.714 103.484 138.714 103.959C138.714 104.425 138.827 104.832 139.046 105.163C139.264 105.495 139.55 105.653 139.911 105.653Z" fill="#C62658"/>
<path d="M144.241 106.24H143.541V102.453L142.547 102.987V102.287L143.624 101.685H144.249V106.24H144.241Z" fill="#C62658"/>
<path d="M149.173 106.323C148.593 106.323 148.134 106.097 147.78 105.638C147.433 105.171 147.26 104.614 147.26 103.959C147.26 103.311 147.433 102.746 147.78 102.287C148.134 101.828 148.593 101.594 149.173 101.594C149.76 101.594 150.227 101.828 150.566 102.287C150.92 102.746 151.093 103.304 151.093 103.959C151.093 104.621 150.92 105.178 150.566 105.638C150.227 106.097 149.76 106.323 149.173 106.323ZM149.173 105.653C149.534 105.653 149.828 105.487 150.046 105.163C150.264 104.84 150.377 104.433 150.377 103.959C150.377 103.484 150.264 103.078 150.046 102.754C149.828 102.43 149.534 102.264 149.173 102.264C148.819 102.264 148.525 102.43 148.307 102.761C148.088 103.085 147.976 103.484 147.976 103.959C147.976 104.425 148.088 104.832 148.307 105.163C148.533 105.495 148.819 105.653 149.173 105.653Z" fill="#C62658"/>
<path d="M153.939 106.323C153.359 106.323 152.9 106.097 152.546 105.638C152.2 105.171 152.026 104.614 152.026 103.959C152.026 103.311 152.2 102.746 152.546 102.287C152.9 101.828 153.359 101.594 153.939 101.594C154.526 101.594 154.993 101.828 155.332 102.287C155.686 102.746 155.859 103.304 155.859 103.959C155.859 104.621 155.686 105.178 155.332 105.638C154.985 106.097 154.519 106.323 153.939 106.323ZM153.939 105.653C154.3 105.653 154.594 105.487 154.812 105.163C155.031 104.84 155.144 104.433 155.144 103.959C155.144 103.484 155.031 103.078 154.812 102.754C154.594 102.43 154.3 102.264 153.939 102.264C153.585 102.264 153.291 102.43 153.073 102.761C152.855 103.085 152.742 103.484 152.742 103.959C152.742 104.425 152.855 104.832 153.073 105.163C153.291 105.495 153.577 105.653 153.939 105.653Z" fill="#C62658"/>
<path d="M158.698 106.323C158.118 106.323 157.659 106.097 157.305 105.638C156.958 105.171 156.785 104.614 156.785 103.959C156.785 103.311 156.958 102.746 157.305 102.287C157.659 101.828 158.118 101.594 158.698 101.594C159.285 101.594 159.752 101.828 160.091 102.287C160.444 102.746 160.618 103.304 160.618 103.959C160.618 104.621 160.444 105.178 160.091 105.638C159.744 106.097 159.285 106.323 158.698 106.323ZM158.698 105.653C159.059 105.653 159.353 105.487 159.571 105.163C159.789 104.84 159.902 104.433 159.902 103.959C159.902 103.484 159.789 103.078 159.571 102.754C159.353 102.43 159.059 102.264 158.698 102.264C158.344 102.264 158.05 102.43 157.832 102.761C157.613 103.085 157.5 103.484 157.5 103.959C157.5 104.425 157.613 104.832 157.832 105.163C158.05 105.495 158.344 105.653 158.698 105.653Z" fill="#C62658"/>
<path d="M163.456 106.323C162.876 106.323 162.417 106.097 162.063 105.638C161.717 105.171 161.543 104.614 161.543 103.959C161.543 103.311 161.717 102.746 162.063 102.287C162.417 101.828 162.876 101.594 163.456 101.594C164.043 101.594 164.51 101.828 164.849 102.287C165.203 102.746 165.376 103.304 165.376 103.959C165.376 104.621 165.203 105.178 164.849 105.638C164.51 106.097 164.043 106.323 163.456 106.323ZM163.456 105.653C163.817 105.653 164.111 105.487 164.329 105.163C164.548 104.84 164.661 104.433 164.661 103.959C164.661 103.484 164.548 103.078 164.329 102.754C164.111 102.43 163.817 102.264 163.456 102.264C163.102 102.264 162.808 102.43 162.59 102.761C162.372 103.085 162.259 103.484 162.259 103.959C162.259 104.425 162.372 104.832 162.59 105.163C162.816 105.495 163.102 105.653 163.456 105.653Z" fill="#C62658"/>
<path d="M168.222 106.323C167.642 106.323 167.183 106.097 166.829 105.638C166.483 105.171 166.31 104.614 166.31 103.959C166.31 103.311 166.483 102.746 166.829 102.287C167.183 101.828 167.642 101.594 168.222 101.594C168.809 101.594 169.276 101.828 169.615 102.287C169.969 102.746 170.142 103.304 170.142 103.959C170.142 104.621 169.969 105.178 169.615 105.638C169.269 106.097 168.802 106.323 168.222 106.323ZM168.222 105.653C168.583 105.653 168.877 105.487 169.095 105.163C169.314 104.84 169.427 104.433 169.427 103.959C169.427 103.484 169.314 103.078 169.095 102.754C168.877 102.43 168.583 102.264 168.222 102.264C167.868 102.264 167.575 102.43 167.356 102.761C167.138 103.085 167.025 103.484 167.025 103.959C167.025 104.425 167.138 104.832 167.356 105.163C167.575 105.495 167.861 105.653 168.222 105.653Z" fill="#C62658"/>
<path d="M172.981 106.323C172.401 106.323 171.942 106.097 171.588 105.638C171.242 105.171 171.068 104.614 171.068 103.959C171.068 103.311 171.242 102.746 171.588 102.287C171.942 101.828 172.401 101.594 172.981 101.594C173.568 101.594 174.035 101.828 174.374 102.287C174.728 102.746 174.901 103.304 174.901 103.959C174.901 104.621 174.728 105.178 174.374 105.638C174.027 106.097 173.568 106.323 172.981 106.323ZM172.981 105.653C173.342 105.653 173.636 105.487 173.854 105.163C174.073 104.84 174.186 104.433 174.186 103.959C174.186 103.484 174.073 103.078 173.854 102.754C173.636 102.43 173.342 102.264 172.981 102.264C172.627 102.264 172.333 102.43 172.115 102.761C171.897 103.085 171.784 103.484 171.784 103.959C171.784 104.425 171.897 104.832 172.115 105.163C172.333 105.495 172.619 105.653 172.981 105.653Z" fill="#C62658"/>
<path d="M36.8944 22.8818H14.8784V25.9614H36.8944V22.8818Z" fill="white"/>
<path d="M36.8944 30.238H14.8784V30.9082H36.8944V30.238Z" fill="white"/>
<path d="M36.8944 32.9261H14.8784V33.5963H36.8944V32.9261Z" fill="white"/>
<path d="M36.8944 35.6216H14.8784V36.2917H36.8944V35.6216Z" fill="white"/>
</svg>
