<svg width="24" height="24" viewBox="0 0 24 24" fill="none" xmlns="http://www.w3.org/2000/svg">
<g id="&#208;&#152;&#208;&#183;&#208;&#188;&#208;&#181;&#208;&#189;&#208;&#184;&#209;&#130;&#209;&#140;">
<path id="Vector" d="M16.5721 14.7789L17.5722 13.779C17.7284 13.6228 18.0003 13.7322 18.0003 13.9571V18.5002C18.0003 19.3282 17.3284 20 16.5003 20H5.50003C4.67189 20 4 19.3282 4 18.5002V7.50183C4 6.67383 4.67189 6.00205 5.50003 6.00205H14.0471C14.269 6.00205 14.3815 6.27076 14.2252 6.43011L13.2252 7.42997C13.1783 7.47683 13.1158 7.50183 13.0471 7.50183H5.50003V18.5002H16.5003V14.9539C16.5003 14.8882 16.5253 14.8258 16.5721 14.7789ZM21.466 8.47356L13.2596 16.6786L10.4345 16.9911C9.61575 17.0817 8.91886 16.3912 9.00948 15.5663L9.32199 12.7417L17.5284 4.53664C18.2441 3.82112 19.4003 3.82112 20.1128 4.53664L21.4629 5.88644C22.1785 6.60196 22.1785 7.76117 21.466 8.47356ZM18.3784 9.43905L16.5628 7.62369L10.7564 13.4322L10.5283 15.4725L12.5689 15.2444L18.3784 9.43905ZM20.4035 6.94879L19.0535 5.59898C18.9253 5.47088 18.7159 5.47088 18.5909 5.59898L17.6253 6.56447L19.441 8.37983L20.4066 7.41434C20.5316 7.28311 20.5316 7.07689 20.4035 6.94879Z" fill="#7A91A9"/>
</g>
</svg>
