<svg width="18" height="18" viewBox="0 0 18 18" fill="none" xmlns="http://www.w3.org/2000/svg">
<path d="M11.7012 3.6H6.30122V5.4H11.7012V3.6Z" fill="black"/>
<path d="M11.7012 7.2H6.30122V9H11.7012V7.2Z" fill="black"/>
<path fill-rule="evenodd" clip-rule="evenodd" d="M14.4098 0H7.2C6.24522 0 5.32955 0.379285 4.65442 1.05442C3.97928 1.72955 3.6 2.64522 3.6 3.6V12.6H0V14.4098C0.0025864 15.3629 0.383013 16.276 1.05786 16.949C1.73271 17.6221 2.64691 18 3.6 18H10.8C11.2728 18.0013 11.7411 17.9094 12.1784 17.7297C12.6157 17.55 13.0133 17.2859 13.3484 16.9525C13.6836 16.6191 13.9499 16.223 14.132 15.7867C14.3141 15.3504 14.4085 14.8825 14.4098 14.4098V5.4H18V3.6C18 2.64691 17.6221 1.73271 16.949 1.05786C16.276 0.383013 15.3629 0.0025864 14.4098 0ZM9 16.2H3.6C3.12449 16.1994 2.6685 16.0109 2.33135 15.6755C1.99421 15.3402 1.80322 14.8853 1.8 14.4098H9V16.2ZM12.6 14.4098C12.5994 14.887 12.4095 15.3444 12.0721 15.6819C11.7347 16.0193 11.2772 16.2091 10.8 16.2098V12.6H5.4V3.6C5.4 3.12261 5.58964 2.66477 5.92721 2.32721C6.26477 1.98964 6.72261 1.8 7.2 1.8H12.6V14.4098ZM14.4098 3.6V1.8C14.8872 1.8 15.345 1.98964 15.6826 2.32721C16.0201 2.66477 16.2098 3.12261 16.2098 3.6H14.4098Z" fill="black"/>
</svg>
