<svg width="20" height="20" viewBox="0 0 20 20" fill="none" xmlns="http://www.w3.org/2000/svg">
<path d="M20 10C20 15.5228 15.5228 20 10 20C4.47715 20 0 15.5228 0 10C0 4.47715 4.47715 0 10 0C15.5228 0 20 4.47715 20 10Z" fill="#004781"/>
<path d="M9.392 14.864C8.8 14.864 8.236 14.772 7.7 14.588C7.172 14.404 6.708 14.124 6.308 13.748C5.908 13.38 5.588 12.924 5.348 12.38C5.116 11.828 5 11.184 5 10.448C5 9.624 5.14 8.88 5.42 8.216C5.7 7.544 6.076 6.972 6.548 6.5C7.02 6.02 7.572 5.652 8.204 5.396C8.836 5.132 9.504 5 10.208 5C10.832 5 11.396 5.1 11.9 5.3C12.412 5.5 12.844 5.784 13.196 6.152C13.556 6.512 13.832 6.948 14.024 7.46C14.216 7.964 14.312 8.52 14.312 9.128C14.312 9.664 14.232 10.136 14.072 10.544C13.92 10.944 13.72 11.28 13.472 11.552C13.224 11.824 12.948 12.028 12.644 12.164C12.34 12.3 12.04 12.368 11.744 12.368C11.4 12.368 11.108 12.292 10.868 12.14C10.628 11.988 10.48 11.76 10.424 11.456H10.4C10.216 11.696 9.992 11.892 9.728 12.044C9.464 12.196 9.204 12.272 8.948 12.272C8.508 12.272 8.144 12.12 7.856 11.816C7.576 11.504 7.436 11.072 7.436 10.52C7.436 10.176 7.492 9.836 7.604 9.5C7.724 9.156 7.888 8.848 8.096 8.576C8.304 8.304 8.552 8.084 8.84 7.916C9.128 7.74 9.448 7.652 9.8 7.652C10.216 7.652 10.528 7.848 10.736 8.24H10.76L10.916 7.748H11.792L11.276 10.28C11.076 11.088 11.276 11.492 11.876 11.492C12.06 11.492 12.244 11.44 12.428 11.336C12.612 11.224 12.776 11.068 12.92 10.868C13.064 10.668 13.18 10.428 13.268 10.148C13.356 9.86 13.4 9.536 13.4 9.176C13.4 8.72 13.332 8.292 13.196 7.892C13.068 7.492 12.868 7.144 12.596 6.848C12.332 6.544 11.992 6.304 11.576 6.128C11.16 5.952 10.668 5.864 10.1 5.864C9.572 5.864 9.06 5.972 8.564 6.188C8.068 6.404 7.628 6.712 7.244 7.112C6.86 7.504 6.548 7.98 6.308 8.54C6.076 9.092 5.96 9.712 5.96 10.4C5.96 10.992 6.052 11.512 6.236 11.96C6.42 12.408 6.672 12.78 6.992 13.076C7.312 13.38 7.688 13.608 8.12 13.76C8.552 13.912 9.012 13.988 9.5 13.988C9.836 13.988 10.168 13.94 10.496 13.844C10.824 13.756 11.12 13.64 11.384 13.496L11.708 14.264C11.004 14.664 10.232 14.864 9.392 14.864ZM9.236 11.372C9.38 11.372 9.528 11.324 9.68 11.228C9.832 11.132 10 10.972 10.184 10.748L10.496 8.984C10.32 8.704 10.1 8.564 9.836 8.564C9.628 8.564 9.44 8.624 9.272 8.744C9.112 8.864 8.972 9.016 8.852 9.2C8.74 9.384 8.652 9.588 8.588 9.812C8.532 10.028 8.504 10.236 8.504 10.436C8.504 10.764 8.568 11.004 8.696 11.156C8.832 11.3 9.012 11.372 9.236 11.372Z" fill="white"/>
</svg>
