<svg width="24" height="24" viewBox="0 0 24 24" fill="none" xmlns="http://www.w3.org/2000/svg">
<path fill-rule="evenodd" clip-rule="evenodd" d="M4 5.75C3.30964 5.75 2.75 6.30964 2.75 7V18C2.75 18.6904 3.30964 19.25 4 19.25H20C20.6904 19.25 21.25 18.6904 21.25 18V7C21.25 6.30964 20.6904 5.75 20 5.75H4ZM1.25 7C1.25 5.48122 2.48122 4.25 4 4.25H20C21.5188 4.25 22.75 5.48122 22.75 7V18C22.75 19.5188 21.5188 20.75 20 20.75H4C2.48122 20.75 1.25 19.5188 1.25 18V7Z" fill="#0082DE"/>
<path fill-rule="evenodd" clip-rule="evenodd" d="M1.827 8.2243C2.00963 7.85252 2.45907 7.69918 2.83085 7.88181L11.8899 12.3319C11.9595 12.366 12.0409 12.366 12.1104 12.3319L21.1695 7.88181C21.5413 7.69918 21.9907 7.85252 22.1733 8.2243C22.356 8.59608 22.2026 9.04552 21.8308 9.22814L12.7717 13.6782C12.2851 13.9173 11.7152 13.9173 11.2286 13.6782L2.16949 9.22814C1.79771 9.04552 1.64437 8.59608 1.827 8.2243Z" fill="#0082DE"/>
<path fill-rule="evenodd" clip-rule="evenodd" d="M15.6179 12.6272C15.543 12.5728 15.4442 12.5642 15.3611 12.605L12.7701 13.8746C12.2843 14.1126 11.7158 14.1126 11.23 13.8746L8.63905 12.605C8.55593 12.5642 8.4571 12.5728 8.38218 12.6272L2.44065 16.9403C2.10544 17.1836 1.63645 17.1091 1.39311 16.7739C1.14978 16.4387 1.22426 15.9697 1.55946 15.7264L7.501 11.4133C8.02538 11.0326 8.71719 10.9729 9.29908 11.258L11.89 12.5276C11.9594 12.5616 12.0407 12.5616 12.1101 12.5276L14.701 11.258C15.2829 10.9729 15.9747 11.0326 16.4991 11.4133L22.4406 15.7264C22.7759 15.9697 22.8503 16.4387 22.607 16.7739C22.3637 17.1091 21.8947 17.1836 21.5595 16.9403L15.6179 12.6272Z" fill="#0082DE"/>
</svg>
