<svg width="22" height="19" viewBox="0 0 22 19" fill="none" xmlns="http://www.w3.org/2000/svg">
<path d="M21.3988 17.7105L11.6488 1.17985C11.5035 0.934184 11.2527 0.8125 10.9996 0.8125C10.7465 0.8125 10.4934 0.934184 10.3504 1.17985L0.600399 17.7105C0.312117 18.2018 0.673055 18.8125 1.24962 18.8125H20.7496C21.3262 18.8125 21.6871 18.2018 21.3988 17.7105ZM10.2496 7.60842C10.2496 7.5074 10.334 7.42475 10.4371 7.42475H11.5621C11.6652 7.42475 11.7496 7.5074 11.7496 7.60842V11.8329C11.7496 11.9339 11.6652 12.0166 11.5621 12.0166H10.4371C10.334 12.0166 10.2496 11.9339 10.2496 11.8329V7.60842ZM10.9996 15.6901C10.7052 15.6842 10.4249 15.5655 10.2188 15.3594C10.0128 15.1534 9.89735 14.8765 9.89735 14.588C9.89735 14.2996 10.0128 14.0226 10.2188 13.8166C10.4249 13.6106 10.7052 13.4919 10.9996 13.486C11.294 13.4919 11.5743 13.6106 11.7804 13.8166C11.9865 14.0226 12.1019 14.2996 12.1019 14.588C12.1019 14.8765 11.9865 15.1534 11.7804 15.3594C11.5743 15.5655 11.294 15.6842 10.9996 15.6901Z" fill="#EB4D3D"/>
</svg>
