<svg width="17" height="17" viewBox="0 0 17 17" fill="none" xmlns="http://www.w3.org/2000/svg">
<path fill-rule="evenodd" clip-rule="evenodd" d="M0 3C0 1.89543 0.89543 1 2 1H6C6.55228 1 7 1.44772 7 2C7 2.55228 6.55228 3 6 3L2 3V15H14V11C14 10.4477 14.4477 10 15 10C15.5523 10 16 10.4477 16 11V15C16 16.1046 15.1046 17 14 17H2C0.895431 17 0 16.1046 0 15V3Z" fill="black"/>
<path fill-rule="evenodd" clip-rule="evenodd" d="M10 1C10 0.447715 10.4477 2.98023e-08 11 2.98023e-08H16C16.2652 2.98023e-08 16.5196 0.105357 16.7071 0.292893C16.8946 0.48043 17 0.734784 17 1V6C17 6.55228 16.5523 7 16 7C15.4477 7 15 6.55228 15 6V2H11C10.4477 2 10 1.55228 10 1Z" fill="black"/>
<path fill-rule="evenodd" clip-rule="evenodd" d="M16.7071 0.292893C17.0976 0.683417 17.0976 1.31658 16.7071 1.70711L9.70711 8.70711C9.31658 9.09763 8.68342 9.09763 8.29289 8.70711C7.90237 8.31658 7.90237 7.68342 8.29289 7.29289L15.2929 0.292893C15.6834 -0.0976311 16.3166 -0.0976311 16.7071 0.292893Z" fill="black"/>
</svg>
