<svg width="24" height="24" viewBox="0 0 24 24" fill="none" xmlns="http://www.w3.org/2000/svg">
<g clip-path="url(#clip0_9001_85377)">
<path d="M3.62359 9.8513V5.26225H6.90351V6.26652H4.89065V7.05559H6.70242V8.05796H4.89065V9.8513H3.62359ZM3.4186 1.27539H16.4016C17.2643 1.27689 18.0912 1.60891 18.7012 2.19873C19.3112 2.78855 19.6546 3.58809 19.6561 4.42222V10.9707C19.653 11.8039 19.309 12.6019 18.6991 13.1905C18.0893 13.7791 17.2633 14.1104 16.4016 14.1119H9.03936L4.09996 18.2233C4.018 18.2904 3.9175 18.3327 3.81091 18.345C3.70432 18.3574 3.59632 18.3392 3.5003 18.2928C3.40428 18.2464 3.32446 18.1737 3.27072 18.0839C3.21698 17.994 3.19169 17.8909 3.19798 17.7873L3.46155 14.1119H3.4186C2.55693 14.1104 1.73091 13.7791 1.12107 13.1905C0.511224 12.6019 0.167157 11.8039 0.164063 10.9707L0.164062 4.42222C0.165611 3.58809 0.508996 2.78855 1.119 2.19873C1.72901 1.60891 2.55592 1.27689 3.4186 1.27539ZM21.5753 5.92862C22.3008 6.06618 22.9549 6.44201 23.4267 6.99245C23.8985 7.54289 24.159 8.23409 24.1641 8.94897V15.9713C24.1615 16.7879 23.8247 17.5703 23.2273 18.1476C22.6299 18.7249 21.8205 19.05 20.9759 19.052H20.8588L21.1204 22.7954C21.1235 22.8842 21.1001 22.9721 21.0531 23.0485C21.0061 23.1249 20.9374 23.1866 20.8552 23.2264C20.7729 23.2661 20.6806 23.2822 20.5892 23.2727C20.4978 23.2633 20.4111 23.2286 20.3394 23.1729L15.3708 18.9312H7.63368L10.8511 15.7674H18.8713C19.588 15.7649 20.2745 15.4884 20.7811 14.9982C21.2877 14.508 21.5732 13.844 21.5753 13.151V6.13627C21.5753 6.06642 21.5753 5.99658 21.5753 5.92862ZM16.4094 2.34195H3.4186C2.84893 2.34691 2.30419 2.56856 1.90227 2.95895C1.50035 3.34933 1.27358 3.87705 1.27103 4.42788V10.9707C1.27616 11.5215 1.5054 12.0482 1.90915 12.4369C2.3129 12.8255 2.85867 13.0447 3.42836 13.0472H4.09606C4.16791 13.052 4.23807 13.0705 4.30252 13.1015C4.36697 13.1326 4.42443 13.1757 4.4716 13.2283C4.51877 13.281 4.55472 13.3421 4.57738 13.4082C4.60005 13.4743 4.60898 13.5441 4.60366 13.6135L4.3811 16.598L8.45561 13.2001C8.50694 13.1508 8.5679 13.1119 8.63494 13.0857C8.70198 13.0594 8.77375 13.0463 8.84608 13.0472H16.3996C16.9676 13.0423 17.5109 12.8219 17.9126 12.4336C18.3142 12.0452 18.5421 11.5199 18.5472 10.9707V4.42222C18.5421 3.87302 18.3142 3.34772 17.9126 2.95936C17.5109 2.57101 16.9676 2.35065 16.3996 2.34573L16.4094 2.34195ZM8.01438 9.85696H6.64775L8.16862 5.26225H9.90034L11.4388 9.8513H10.0721L9.05302 6.52702H9.01593L7.99681 9.8513L8.01438 9.85696ZM7.75863 8.04664H10.3162V8.97917H7.74106V8.04097L7.75863 8.04664ZM13.4887 8.15424H14.4649L14.8065 8.58841L15.4079 9.25855L16.1888 10.2024H15.074L14.5195 9.56625L14.1447 9.0358L13.4711 8.15801L13.4887 8.15424ZM16.2044 7.56338C16.2193 8.01193 16.1144 8.45662 15.8998 8.85458C15.7132 9.19101 15.4289 9.46728 15.0818 9.64931C14.7268 9.82737 14.3328 9.92031 13.9329 9.92031C13.533 9.92031 13.1389 9.82737 12.7839 9.64931C12.4377 9.46518 12.1542 9.18778 11.9679 8.85081C11.7556 8.45421 11.6521 8.01159 11.6672 7.56527C11.6516 7.11709 11.7551 6.67253 11.9679 6.27407C12.1542 5.9376 12.4377 5.66081 12.7839 5.47745C13.1391 5.3 13.5331 5.2074 13.9329 5.2074C14.3327 5.2074 14.7266 5.3 15.0818 5.47745C15.4285 5.66079 15.7127 5.93753 15.8998 6.27407C16.1149 6.67186 16.2198 7.11667 16.2044 7.56527V7.56338ZM14.9003 7.56338C14.9069 7.32722 14.8692 7.09185 14.789 6.8687C14.7288 6.69613 14.6158 6.54535 14.4649 6.43641C14.3056 6.34135 14.122 6.29101 13.9348 6.29101C13.7476 6.29101 13.5641 6.34135 13.4048 6.43641C13.2538 6.54574 13.1403 6.69632 13.0787 6.8687C13.0002 7.0922 12.9631 7.3274 12.9694 7.56338C12.9574 7.79898 12.9885 8.03478 13.0612 8.25995C13.1227 8.4318 13.2363 8.58177 13.3872 8.69035C13.5461 8.78646 13.7298 8.83743 13.9173 8.83743C14.1047 8.83743 14.2884 8.78646 14.4473 8.69035C14.5982 8.58217 14.7113 8.432 14.7714 8.25995C14.8515 8.03677 14.8892 7.80142 14.8827 7.56527L14.9003 7.56338Z" fill="white"/>
</g>
<defs>
<clipPath id="clip0_9001_85377">
<rect width="24" height="24" fill="white"/>
</clipPath>
</defs>
</svg>
