<svg width="20" height="20" viewBox="0 0 20 20" fill="none" xmlns="http://www.w3.org/2000/svg">
<path fill-rule="evenodd" clip-rule="evenodd" d="M19.714 6.148L14.259 0.363C14.07 0.164 13.803 0 13.529 0H1.979C0.874 0 0 1 0 2.104V9.104C0 9.656 0.437 10 0.989 10H0.994C1.547 10 2 9.656 2 9.104V3.104C2 2.552 2.427 2 2.979 2H12V6.104C12 7.209 12.874 8 13.979 8H18V9.104C18 9.656 18.437 10 18.989 10H18.994C19.547 10 20 9.656 20 9.104V6.837C20 6.58 19.891 6.334 19.714 6.148ZM3.979 15.104C3.979 14.552 3.531 14.104 2.979 14.104H1.979V16.104H2.979C3.531 16.104 3.979 15.656 3.979 15.104ZM5.975 14.838C6.065 16.568 4.689 18 2.979 18H2V19.104C2 19.656 1.547 20 0.994 20H0.989C0.437 20 0 19.656 0 19.104V13.104C0 12.552 0.427 12 0.979 12H2.809C4.434 12 5.89 13.216 5.975 14.838ZM11 15.104C11 14.552 10.531 14 9.979 14H9V18H9.979C10.531 18 11 17.656 11 17.104V15.104ZM13 15V17C13 18.65 11.65 20 10 20H7.895C7.4 20 7 19.599 7 19.104V12.979C7 12.438 7.438 12 7.979 12H10C11.65 12 13 13.35 13 15ZM20 13.026V13.052C20 13.604 19.531 14 18.979 14H16V16H18.979C19.531 16 20 16.473 20 17.026V17.052C20 17.604 19.531 18 18.979 18H16V19.104C16 19.656 15.547 20 14.994 20H14.989C14.437 20 14 19.656 14 19.104V13.104C14 12.552 14.427 12 14.979 12H18.979C19.531 12 20 12.473 20 13.026Z" fill="#0082DE"/>
</svg>
