<svg width="24" height="24" viewBox="0 0 24 24" fill="none" xmlns="http://www.w3.org/2000/svg">
<path fill-rule="evenodd" clip-rule="evenodd" d="M6 2L13.5631 2C14.1202 2 14.6521 2.23239 15.0306 2.64119L19.4675 7.43305C19.8098 7.80275 20 8.28803 20 8.79187V20C20 21.1046 19.1046 22 18 22H6C4.89543 22 4 21.1046 4 20L4 4C4 2.89543 4.89543 2 6 2ZM13.5631 4L6 4L6 20H18L18 8.79187L13.5631 4Z" fill="#7A91A9"/>
<path fill-rule="evenodd" clip-rule="evenodd" d="M13 2C13.5523 2 14 2.44772 14 3L14 8L19 8C19.5523 8 20 8.44771 20 9C20 9.55228 19.5523 10 19 10L14 10C12.8954 10 12 9.10457 12 8V3C12 2.44772 12.4477 2 13 2Z" fill="#7A91A9"/>
</svg>
