<svg width="24" height="24" viewBox="0 0 24 24" fill="none" xmlns="http://www.w3.org/2000/svg">
<path d="M20 3H4C3.73478 3 3.48043 3.09981 3.29289 3.27748C3.10536 3.45515 3 3.69612 3 3.94738V6.40108C3 6.89656 3.213 7.38351 3.583 7.73404L9 12.866V20.0528C9.0002 20.2142 9.04387 20.3729 9.1269 20.5138C9.20992 20.6548 9.32955 20.7733 9.47444 20.8582C9.61934 20.9431 9.78471 20.9916 9.9549 20.999C10.1251 21.0064 10.2945 20.9726 10.447 20.9007L14.447 19.0059C14.786 18.8449 15 18.5171 15 18.158V12.866L20.417 7.73404C20.787 7.38351 21 6.89656 21 6.40108V3.94738C21 3.69612 20.8946 3.45515 20.7071 3.27748C20.5196 3.09981 20.2652 3 20 3ZM13.293 11.804C13.2 11.8918 13.1262 11.9962 13.0759 12.1111C13.0256 12.2261 12.9998 12.3493 13 12.4738V17.5725L11 18.5199V12.4738C11.0002 12.3493 10.9744 12.2261 10.9241 12.1111C10.8738 11.9962 10.8 11.8918 10.707 11.804L5 6.40108V4.89475H19.001L19.003 6.39445L13.293 11.804Z" fill="#7A91A9"/>
</svg>
