<svg width="16" height="15" viewBox="0 0 16 15" fill="none" xmlns="http://www.w3.org/2000/svg">
<path d="M14.9643 8.89883C14.5435 9.35419 13.9649 9.60716 13.3863 9.60716H9.96752V12.6429C9.96752 13.756 9.02077 14.6667 7.86363 14.6667C7.02207 14.6667 6.23311 14.1607 5.91752 13.4018L3.81363 8.59526H2.07792C1.18377 8.59526 0.5 7.93752 0.5 7.0774V2.01788C0.5 1.15776 1.18377 0.500019 2.07792 0.500019H12.5448C13.5967 0.500019 14.4383 1.20835 14.6487 2.22026L15.4902 7.27978C15.5428 7.83633 15.385 8.44347 14.9643 8.89883ZM3.65584 1.51192H2.07792C1.76234 1.51192 1.55195 1.71431 1.55195 2.01788V7.0774C1.55195 7.38097 1.76234 7.58335 2.07792 7.58335H3.65584V1.51192ZM14.4383 7.43157L13.5967 2.37204C13.4915 1.86609 13.0708 1.51192 12.5448 1.51192H4.70779V7.98812L6.91687 13.0476C7.07467 13.4018 7.44285 13.6548 7.86363 13.6548C8.4422 13.6548 8.91557 13.1994 8.91557 12.6429V8.59526H13.3863C13.7019 8.59526 13.9649 8.44347 14.1753 8.24109C14.3857 8.03871 14.4909 7.73514 14.4383 7.43157Z" fill="#EB4D3D"/>
</svg>
