<svg width="18" height="19" viewBox="0 0 18 19" fill="none" xmlns="http://www.w3.org/2000/svg">
<path d="M1.02822 9.5956C0.952504 9.97901 1.03054 10.3767 1.24559 10.7034L4.07143 15.0263C5.88287 17.8079 7.25956 19 10.7254 19C11.6795 19 16.4375 18.7351 16.4375 13.7138V3.75549C16.4367 3.47721 16.3286 3.20989 16.1356 3.00892C15.9411 2.81699 15.6786 2.70933 15.405 2.70933C15.1314 2.70933 14.8688 2.81699 14.6744 3.00892C14.481 3.21067 14.3692 3.47654 14.3604 3.75549V8.30717C14.3601 8.43579 14.3129 8.5599 14.2275 8.65637C14.1339 8.74785 14.0084 8.79963 13.8773 8.80087C13.812 8.80304 13.747 8.79127 13.6866 8.76635C13.6262 8.74143 13.5718 8.70393 13.5271 8.65637C13.4806 8.61091 13.4438 8.55654 13.4189 8.49653C13.394 8.43652 13.3815 8.37211 13.3822 8.30717V1.80477C13.3808 1.53017 13.2726 1.26683 13.0803 1.07024C12.9834 0.974215 12.8685 0.898199 12.7421 0.846542C12.6157 0.794885 12.4803 0.768602 12.3437 0.7692C12.0683 0.77058 11.8042 0.878507 11.607 1.07024C11.5107 1.16686 11.4345 1.28147 11.3827 1.40751C11.3309 1.53355 11.3045 1.66855 11.3051 1.80477V7.52447C11.3051 7.62214 11.2761 7.71764 11.2217 7.79886C11.1673 7.88009 11.09 7.9434 10.9995 7.98079C10.909 8.01817 10.8094 8.02795 10.7133 8.00888C10.6173 7.98981 10.529 7.94276 10.4598 7.87367C10.371 7.77838 10.3196 7.65444 10.3148 7.52447V1.08228C10.3192 0.93836 10.2947 0.79502 10.2429 0.660633C10.1911 0.526246 10.1129 0.403506 10.0129 0.299583C9.81849 0.107658 9.55593 0 9.28233 0C9.00872 0 8.74617 0.107658 8.55172 0.299583C8.35532 0.499353 8.24298 0.766457 8.23773 1.04615V7.52447C8.23843 7.58941 8.22596 7.65382 8.20106 7.71383C8.17615 7.77385 8.13934 7.82821 8.09282 7.87367C8.0495 7.91971 7.9971 7.95632 7.93891 7.98119C7.88071 8.00605 7.81799 8.01865 7.75468 8.01817C7.68936 8.02034 7.62432 8.00858 7.56392 7.98366C7.50352 7.95874 7.44916 7.92124 7.40447 7.87367C7.35795 7.82821 7.32114 7.77385 7.29623 7.71383C7.27133 7.65382 7.25885 7.58941 7.25956 7.52447V2.62359C7.25878 2.34531 7.15068 2.07799 6.95765 1.87702C6.76115 1.68434 6.49659 1.57637 6.221 1.57637C5.94541 1.57637 5.68085 1.68434 5.48435 1.87702C5.29132 2.07799 5.18322 2.34531 5.18244 2.62359V11.7631L3.43139 9.35477C3.2493 9.04479 2.95353 8.8175 2.60653 8.72088C2.25952 8.62427 1.88844 8.6659 1.57165 8.83699C1.43525 8.92712 1.31656 9.04139 1.22144 9.17415C1.12737 9.30805 1.06163 9.45964 1.02822 9.61969" fill="#0082DE"/>
</svg>
