<svg width="16" height="19" viewBox="0 0 16 19" fill="none" xmlns="http://www.w3.org/2000/svg">
<path d="M0.0282201 9.5956C-0.0474959 9.97901 0.03054 10.3767 0.24559 10.7034L3.07143 15.0263C4.88287 17.8079 6.25956 19 9.7254 19C10.6795 19 15.4375 18.7351 15.4375 13.7138V3.75549C15.4367 3.47721 15.3286 3.20989 15.1356 3.00892C14.9411 2.81699 14.6786 2.70933 14.405 2.70933C14.1314 2.70933 13.8688 2.81699 13.6744 3.00892C13.481 3.21067 13.3692 3.47654 13.3604 3.75549V8.30717C13.3601 8.43579 13.3129 8.5599 13.2275 8.65637C13.1339 8.74785 13.0084 8.79963 12.8773 8.80087C12.812 8.80304 12.747 8.79127 12.6866 8.76635C12.6262 8.74143 12.5718 8.70393 12.5271 8.65637C12.4806 8.61091 12.4438 8.55654 12.4189 8.49653C12.394 8.43652 12.3815 8.37211 12.3822 8.30717V1.80477C12.3808 1.53017 12.2726 1.26683 12.0803 1.07024C11.9834 0.974215 11.8685 0.898199 11.7421 0.846542C11.6157 0.794885 11.4803 0.768602 11.3437 0.7692C11.0683 0.77058 10.8042 0.878507 10.607 1.07024C10.5107 1.16686 10.4345 1.28147 10.3827 1.40751C10.3309 1.53355 10.3045 1.66855 10.3051 1.80477V7.52447C10.3051 7.62214 10.2761 7.71764 10.2217 7.79886C10.1673 7.88009 10.09 7.9434 9.9995 7.98079C9.909 8.01817 9.8094 8.02795 9.7133 8.00888C9.6173 7.98981 9.529 7.94276 9.4598 7.87367C9.371 7.77838 9.3196 7.65444 9.3148 7.52447V1.08228C9.3192 0.93836 9.2947 0.79502 9.2429 0.660633C9.1911 0.526246 9.1129 0.403506 9.0129 0.299583C8.81849 0.107658 8.55593 0 8.28233 0C8.00872 0 7.74617 0.107658 7.55172 0.299583C7.35532 0.499353 7.24298 0.766457 7.23773 1.04615V7.52447C7.23843 7.58941 7.22596 7.65382 7.20106 7.71383C7.17615 7.77385 7.13934 7.82821 7.09282 7.87367C7.0495 7.91971 6.9971 7.95632 6.93891 7.98119C6.88071 8.00605 6.81799 8.01865 6.75468 8.01817C6.68936 8.02034 6.62432 8.00858 6.56392 7.98366C6.50352 7.95874 6.44916 7.92124 6.40447 7.87367C6.35795 7.82821 6.32114 7.77385 6.29623 7.71383C6.27133 7.65382 6.25885 7.58941 6.25956 7.52447V2.62359C6.25878 2.34531 6.15068 2.07799 5.95765 1.87702C5.76115 1.68434 5.49659 1.57637 5.221 1.57637C4.94541 1.57637 4.68085 1.68434 4.48435 1.87702C4.29132 2.07799 4.18322 2.34531 4.18244 2.62359V11.7631L2.43139 9.35477C2.2493 9.04479 1.95353 8.8175 1.60653 8.72088C1.25952 8.62427 0.88844 8.6659 0.57165 8.83699C0.43525 8.92712 0.31656 9.04139 0.22144 9.17415C0.12737 9.30805 0.0616301 9.45964 0.0282201 9.61969" fill="#7A91A9"/>
</svg>
