<svg width="16" height="15" viewBox="0 0 16 15" fill="none" xmlns="http://www.w3.org/2000/svg">
<path d="M14.9643 6.10117C14.5435 5.64581 13.9649 5.39284 13.3863 5.39284H9.96752V2.35712C9.96752 1.24403 9.02077 0.333313 7.86363 0.333313C7.02207 0.333313 6.23311 0.839265 5.91752 1.59819L3.81363 6.40474H2.07792C1.18377 6.40474 0.5 7.06248 0.5 7.9226V12.9821C0.5 13.8422 1.18377 14.5 2.07792 14.5H12.5448C13.5967 14.5 14.4383 13.7916 14.6487 12.7797L15.4902 7.72022C15.5428 7.16367 15.385 6.55653 14.9643 6.10117ZM3.65584 13.4881H2.07792C1.76234 13.4881 1.55195 13.2857 1.55195 12.9821V7.9226C1.55195 7.61903 1.76234 7.41665 2.07792 7.41665H3.65584V13.4881ZM14.4383 7.56843L13.5967 12.628C13.4915 13.1339 13.0708 13.4881 12.5448 13.4881H4.70779V7.01188L6.91687 1.95236C7.07467 1.59819 7.44285 1.34522 7.86363 1.34522C8.4422 1.34522 8.91557 1.80058 8.91557 2.35712V6.40474H13.3863C13.7019 6.40474 13.9649 6.55653 14.1753 6.75891C14.3857 6.96129 14.4909 7.26486 14.4383 7.56843Z" fill="#7A91A9"/>
</svg>
