<svg width="24" height="24" viewBox="0 0 24 24" fill="none" xmlns="http://www.w3.org/2000/svg">
<path fill-rule="evenodd" clip-rule="evenodd" d="M12 4C7.58172 4 4 7.58172 4 12C4 16.4183 7.58172 20 12 20C16.4183 20 20 16.4183 20 12C20 7.58172 16.4183 4 12 4ZM2 12C2 6.47715 6.47715 2 12 2C17.5228 2 22 6.47715 22 12C22 17.5228 17.5228 22 12 22C6.47715 22 2 17.5228 2 12Z" fill="#F4D150"/>
<path d="M10 7C9.45 7 9 7.45 9 8L9.005 9.59C9.005 9.855 9.11 10.105 9.295 10.295L11 12L9.295 13.715C9.11 13.9 9.005 14.155 9.005 14.42L9 16C9 16.55 9.45 17 10 17L14 17C14.55 17 15 16.55 15 16L15 14.42C15 14.155 14.895 13.9 14.71 13.71L13 12L14.705 10.3C14.895 10.11 15 9.855 15 9.59L15 8C15 7.45 14.55 7 14 7L10 7ZM14 14.455L14 15.5C14 15.775 13.775 16 13.5 16L10.5 16C10.225 16 10 15.775 10 15.5L10 14.455C10 14.32 10.055 14.195 10.145 14.1L12 12.25L13.855 14.105C13.945 14.195 14 14.325 14 14.455Z" fill="#F4D150"/>
</svg>
