<svg width="18" height="18" viewBox="0 0 18 18" fill="none" xmlns="http://www.w3.org/2000/svg">
<path d="M4 3.16675C4 1.78604 5.11929 0.666748 6.5 0.666748H14.8333C16.214 0.666748 17.3333 1.78604 17.3333 3.16675V7.33342C17.3333 8.71413 16.214 9.83342 14.8333 9.83342H14.4167C14.1865 9.83342 14 9.64687 14 9.41675V6.08342C14 4.93282 13.0673 4.00008 11.9167 4.00008H4.83333C4.3731 4.00008 4 3.62699 4 3.16675Z" fill="white"/>
<path fill-rule="evenodd" clip-rule="evenodd" d="M3.375 3.16675C3.375 1.44086 4.77411 0.041748 6.5 0.041748H14.8333C16.5592 0.041748 17.9583 1.44086 17.9583 3.16675V7.33342C17.9583 9.05931 16.5592 10.4584 14.8333 10.4584H14.4167C13.8414 10.4584 13.375 9.99205 13.375 9.41675V6.08342C13.375 5.278 12.7221 4.62508 11.9167 4.62508H4.83333C4.02792 4.62508 3.375 3.97216 3.375 3.16675ZM6.5 1.29175C5.46447 1.29175 4.625 2.13121 4.625 3.16675C4.625 3.28181 4.71827 3.37508 4.83333 3.37508H11.9167C13.4124 3.37508 14.625 4.58764 14.625 6.08342V9.20842H14.8333C15.8689 9.20842 16.7083 8.36895 16.7083 7.33342V3.16675C16.7083 2.13121 15.8689 1.29175 14.8333 1.29175H6.5Z" fill="#7A91A9"/>
<path d="M0.666016 6.5C0.666016 5.11929 1.7853 4 3.16602 4H11.4993C12.8801 4 13.9993 5.11929 13.9993 6.5V10.9444C13.9993 12.3252 12.8801 13.4444 11.4993 13.4444H8.46959C8.35208 13.4444 8.24003 13.4941 8.16105 13.5811L4.84936 17.2301C4.57925 17.5277 4.08592 17.3081 4.12625 16.9083L4.42931 13.9029C4.45405 13.6575 4.26139 13.4444 4.01474 13.4444H3.16602C1.7853 13.4444 0.666016 12.3252 0.666016 10.9444V6.5Z" fill="white"/>
<path fill-rule="evenodd" clip-rule="evenodd" d="M0.0410156 6.5C0.0410156 4.77411 1.44013 3.375 3.16602 3.375H11.4993C13.2252 3.375 14.6243 4.77411 14.6243 6.5V10.9444C14.6243 12.6703 13.2252 14.0694 11.4993 14.0694H8.56186L5.31217 17.6501C4.63692 18.3941 3.40359 17.8453 3.5044 16.8456L3.78434 14.0694H3.16602C1.44013 14.0694 0.0410156 12.6703 0.0410156 10.9444V6.5ZM3.16602 4.625C2.13048 4.625 1.29102 5.46446 1.29102 6.5V10.9444C1.29102 11.98 2.13048 12.8194 3.16602 12.8194H4.01474C4.63136 12.8194 5.11302 13.3521 5.05115 13.9656L4.81154 16.3418L7.69824 13.1611C7.89568 12.9435 8.1758 12.8194 8.46959 12.8194H11.4993C12.5349 12.8194 13.3743 11.98 13.3743 10.9444V6.5C13.3743 5.46447 12.5349 4.625 11.4993 4.625H3.16602Z" fill="#7A91A9"/>
</svg>
