<svg width="26" height="26" viewBox="0 0 26 26" fill="none" xmlns="http://www.w3.org/2000/svg">
<g clip-path="url(#clip0_17701_46579)">
<path fill-rule="evenodd" clip-rule="evenodd" d="M13 1.625C6.71776 1.625 1.625 6.71776 1.625 13C1.625 19.2822 6.71776 24.375 13 24.375C19.2822 24.375 24.375 19.2822 24.375 13C24.375 6.71776 19.2822 1.625 13 1.625ZM0 13C0 5.8203 5.8203 0 13 0C20.1797 0 26 5.8203 26 13C26 20.1797 20.1797 26 13 26C5.8203 26 0 20.1797 0 13Z" fill="#0082DE"/>
<path fill-rule="evenodd" clip-rule="evenodd" d="M8.41057 10.8481C8.79133 10.4673 9.40867 10.4673 9.78943 10.8481L13 14.0586L16.2106 10.8481C16.5913 10.4673 17.2087 10.4673 17.5894 10.8481C17.9702 11.2288 17.9702 11.8462 17.5894 12.2269L13.6894 16.1269C13.3087 16.5077 12.6913 16.5077 12.3106 16.1269L8.41057 12.2269C8.02981 11.8462 8.02981 11.2288 8.41057 10.8481Z" fill="#0082DE"/>
</g>
<defs>
<clipPath id="clip0_17701_46579">
<rect width="26" height="26" fill="white"/>
</clipPath>
</defs>
</svg>
