<svg width="16" height="16" viewBox="0 0 16 16" fill="none" xmlns="http://www.w3.org/2000/svg">
<g clip-path="url(#clip0_14799_42871)">
<path d="M15.3333 8.00008C15.3333 12.0667 12.0666 15.3334 7.99996 15.3334C3.93329 15.3334 0.666626 12.0667 0.666626 8.00008C0.666626 3.93341 3.93329 0.666748 7.99996 0.666748C12.0666 0.666748 15.3333 3.93341 15.3333 8.00008Z" stroke="#7A91A9" stroke-miterlimit="10"/>
<path d="M8.93333 8L11.8 5.13333C12.0667 4.86667 12.0667 4.46667 11.8 4.2C11.5333 3.93333 11.1333 3.93333 10.8667 4.2L8 7.06667L5.13333 4.2C4.86667 3.93333 4.46667 3.93333 4.2 4.2C3.93333 4.46667 3.93333 4.86667 4.2 5.13333L7.06667 8L4.2 10.8667C3.93333 11.1333 3.93333 11.5333 4.2 11.8C4.33333 11.9333 4.46667 12 4.66667 12C4.86667 12 5 11.9333 5.13333 11.8L8 8.93333L10.8667 11.8C11 11.9333 11.2 12 11.3333 12C11.4667 12 11.6667 11.9333 11.8 11.8C12.0667 11.5333 12.0667 11.1333 11.8 10.8667L8.93333 8Z" fill="#7A91A9"/>
</g>
<defs>
<clipPath id="clip0_14799_42871">
<rect width="16" height="16" fill="white"/>
</clipPath>
</defs>
</svg>
