<svg width="24" height="24" viewBox="0 0 24 24" fill="none" xmlns="http://www.w3.org/2000/svg">
<path d="M17 2H7C5.35 2 4 3.35 4 5V19C4 20.65 5.35 22 7 22H17C18.65 22 20 20.65 20 19V5C20 3.35 18.65 2 17 2ZM18 19C18 19.55 17.55 20 17 20H7C6.45 20 6 19.55 6 19V5C6 4.45 6.45 4 7 4H17C17.55 4 18 4.45 18 5V19Z" fill="#71D472"/>
<path d="M12 6C9.79 6 8 7.79 8 10C8 12.21 9.79 14 12 14C14.21 14 16 12.21 16 10C16 7.79 14.21 6 12 6ZM12 12C10.9 12 10 11.1 10 10C10 8.9 10.9 8 12 8C13.1 8 14 8.9 14 10C14 11.1 13.1 12 12 12ZM15 16H9C8.45 16 8 16.45 8 17C8 17.55 8.45 18 9 18H15C15.55 18 16 17.55 16 17C16 16.45 15.55 16 15 16Z" fill="#71D472"/>
</svg>
