<svg width="22" height="22" viewBox="0 0 22 22" fill="none" xmlns="http://www.w3.org/2000/svg">
<path fill-rule="evenodd" clip-rule="evenodd" d="M4.25 4C4.25 1.92893 5.92893 0.25 8 0.25H18C20.0711 0.25 21.75 1.92893 21.75 4V9C21.75 11.0711 20.0711 12.75 18 12.75H17.5C16.8096 12.75 16.25 12.1904 16.25 11.5V7.5C16.25 6.5335 15.4665 5.75 14.5 5.75H6C5.0335 5.75 4.25 4.9665 4.25 4ZM8 1.75C6.75736 1.75 5.75 2.75736 5.75 4C5.75 4.13807 5.86193 4.25 6 4.25H14.5C16.2949 4.25 17.75 5.70507 17.75 7.5V11.25H18C19.2426 11.25 20.25 10.2426 20.25 9V4C20.25 2.75736 19.2426 1.75 18 1.75H8Z" fill="#0082DE"/>
<path fill-rule="evenodd" clip-rule="evenodd" d="M0.25 8C0.25 5.92893 1.92893 4.25 4 4.25H14C16.0711 4.25 17.75 5.92893 17.75 8V13.3333C17.75 15.4044 16.0711 17.0833 14 17.0833H10.475L6.57538 21.3801C5.76508 22.273 4.28509 21.6143 4.40606 20.4147L4.74199 17.0833H4C1.92893 17.0833 0.25 15.4044 0.25 13.3333V8ZM4 5.75C2.75736 5.75 1.75 6.75736 1.75 8V13.3333C1.75 14.576 2.75736 15.5833 4 15.5833H5.01847C5.75842 15.5833 6.3364 16.2225 6.26217 16.9587L5.97463 19.8101L9.43866 15.9933C9.67559 15.7322 10.0117 15.5833 10.3643 15.5833H14C15.2426 15.5833 16.25 14.576 16.25 13.3333V8C16.25 6.75736 15.2426 5.75 14 5.75H4Z" fill="#0082DE"/>
</svg>
