<svg width="22" height="17" viewBox="0 0 22 17" fill="none" xmlns="http://www.w3.org/2000/svg">
<path fill-rule="evenodd" clip-rule="evenodd" d="M3 1.75C2.30964 1.75 1.75 2.30964 1.75 3V14C1.75 14.6904 2.30964 15.25 3 15.25H19C19.6904 15.25 20.25 14.6904 20.25 14V3C20.25 2.30964 19.6904 1.75 19 1.75H3ZM0.25 3C0.25 1.48122 1.48122 0.25 3 0.25H19C20.5188 0.25 21.75 1.48122 21.75 3V14C21.75 15.5188 20.5188 16.75 19 16.75H3C1.48122 16.75 0.25 15.5188 0.25 14V3Z" fill="#0082DE"/>
<path fill-rule="evenodd" clip-rule="evenodd" d="M0.827003 4.2243C1.00963 3.85252 1.45907 3.69918 1.83085 3.88181L10.8899 8.33189C10.9595 8.36604 11.0409 8.36604 11.1104 8.33189L20.1695 3.88181C20.5413 3.69918 20.9907 3.85252 21.1733 4.2243C21.356 4.59608 21.2026 5.04552 20.8308 5.22814L11.7717 9.67823C11.2851 9.91727 10.7152 9.91727 10.2286 9.67823L1.16949 5.22814C0.797711 5.04552 0.644374 4.59608 0.827003 4.2243Z" fill="#0082DE"/>
<path fill-rule="evenodd" clip-rule="evenodd" d="M14.6179 8.62716C14.543 8.57278 14.4442 8.56425 14.3611 8.60498L11.7701 9.87456C11.2843 10.1126 10.7158 10.1126 10.23 9.87456L7.63905 8.60498C7.55593 8.56425 7.4571 8.57278 7.38218 8.62716L1.44065 12.9403C1.10544 13.1836 0.636446 13.1091 0.393113 12.7739C0.149779 12.4387 0.224255 11.9697 0.55946 11.7264L6.501 7.41328C7.02538 7.03262 7.71719 6.97287 8.29908 7.25799L10.89 8.52757C10.9594 8.56157 11.0407 8.56157 11.1101 8.52757L13.701 7.25799C14.2829 6.97287 14.9747 7.03262 15.4991 7.41328L21.4406 11.7264C21.7759 11.9697 21.8503 12.4387 21.607 12.7739C21.3637 13.1091 20.8947 13.1836 20.5595 12.9403L14.6179 8.62716Z" fill="#0082DE"/>
</svg>
