<svg width="21" height="19" viewBox="0 0 21 19" fill="none" xmlns="http://www.w3.org/2000/svg">
<path d="M20.6498 8.47381C18.4753 3.76339 15.1884 1.39285 10.7822 1.39285C6.37371 1.39285 3.08912 3.76339 0.914678 8.47617C0.82746 8.66609 0.782227 8.87352 0.782227 9.08355C0.782227 9.29358 0.82746 9.50101 0.914678 9.69093C3.08912 14.4014 6.376 16.7719 10.7822 16.7719C15.1907 16.7719 18.4753 14.4014 20.6498 9.68857C20.8264 9.30645 20.8264 8.86301 20.6498 8.47381ZM10.7822 15.0736C7.08247 15.0736 4.37359 13.1441 2.46293 9.08237C4.37359 5.0206 7.08247 3.09115 10.7822 3.09115C14.482 3.09115 17.1908 5.0206 19.1015 9.08237C17.1931 13.1441 14.4843 15.0736 10.7822 15.0736ZM10.6905 4.93097C8.46099 4.93097 6.65354 6.78967 6.65354 9.08237C6.65354 11.3751 8.46099 13.2338 10.6905 13.2338C12.92 13.2338 14.7274 11.3751 14.7274 9.08237C14.7274 6.78967 12.92 4.93097 10.6905 4.93097ZM10.6905 11.7242C9.27067 11.7242 8.12152 10.5424 8.12152 9.08237C8.12152 7.6223 9.27067 6.44057 10.6905 6.44057C12.1103 6.44057 13.2594 7.6223 13.2594 9.08237C13.2594 10.5424 12.1103 11.7242 10.6905 11.7242Z" fill="#0082DE"/>
<path fill-rule="evenodd" clip-rule="evenodd" d="M2.29318 17.729C1.90265 17.3286 1.90265 16.6794 2.29318 16.2791L17.8495 0.329591C18.2401 -0.0708011 18.8732 -0.0708015 19.2637 0.329591C19.6543 0.729984 19.6543 1.37915 19.2637 1.77954L3.70739 17.729C3.31687 18.1294 2.6837 18.1294 2.29318 17.729Z" fill="#0082DE"/>
</svg>
