<svg width="18" height="18" viewBox="0 0 18 18" fill="none" xmlns="http://www.w3.org/2000/svg">
<g clip-path="url(#clip0_4_27)">
<path d="M10.6891 18H7.31239C7.10081 18 6.89559 17.9299 6.73074 17.8012C6.56589 17.6726 6.45133 17.4931 6.40605 17.2926L6.02849 15.597C5.52482 15.3829 5.04723 15.1151 4.60452 14.7987L2.90038 15.3252C2.69867 15.3876 2.48103 15.3812 2.28359 15.307C2.08616 15.2329 1.92081 15.0954 1.81501 14.9175L0.122936 12.0816C0.018244 11.9035 -0.0210548 11.6962 0.0114692 11.4937C0.0439932 11.2911 0.146414 11.1052 0.301976 10.9665L1.62391 9.7965C1.56379 9.2665 1.56379 8.7317 1.62391 8.2017L0.301976 7.0344C0.146194 6.8956 0.0436336 6.70957 0.0111043 6.5068C-0.0214251 6.30404 0.0180064 6.09657 0.122936 5.9184L1.8113 3.0807C1.9171 2.90278 2.08245 2.76533 2.27988 2.69117C2.47732 2.61701 2.69496 2.61059 2.89667 2.673L4.6008 3.1995C4.82716 3.0375 5.06278 2.8863 5.30583 2.7495C5.54053 2.6217 5.78173 2.5056 6.02849 2.4021L6.40698 0.7083C6.45204 0.507778 6.56638 0.328219 6.73106 0.199394C6.89573 0.0705689 7.10085 0.000215969 7.31239 0H10.6891C10.9007 0.000215969 11.1058 0.0705689 11.2704 0.199394C11.4351 0.328219 11.5495 0.507778 11.5945 0.7083L11.9767 2.403C12.4801 2.61711 12.9574 2.88485 13.3998 3.2013L15.1048 2.6748C15.3064 2.61262 15.5238 2.61915 15.7211 2.6933C15.9183 2.76746 16.0835 2.90478 16.1893 3.0825L17.8776 5.9202C18.0929 6.2865 18.0186 6.75 17.6986 7.0353L16.3767 8.2053C16.4368 8.7353 16.4368 9.2701 16.3767 9.8001L17.6986 10.9701C18.0186 11.2563 18.0929 11.7189 17.8776 12.0852L16.1893 14.9229C16.0835 15.1008 15.9181 15.2383 15.7207 15.3124C15.5232 15.3866 15.3056 15.393 15.1039 15.3306L13.3998 14.8041C12.9574 15.1203 12.4801 15.3878 11.9767 15.6015L11.5945 17.2926C11.5493 17.493 11.4348 17.6723 11.2702 17.801C11.1055 17.9296 10.9005 17.9998 10.6891 18ZM4.93755 12.8061L5.69824 13.3461C5.86986 13.4685 6.04797 13.581 6.23351 13.6836C6.40791 13.7817 6.58602 13.8699 6.77063 13.95L7.63614 14.3181L8.06009 16.2H9.94326L10.3672 14.3172L11.2327 13.9491C11.6103 13.7871 11.9693 13.5864 12.3023 13.3497L13.063 12.8097L14.9573 13.3947L15.8989 11.8125L14.4304 10.5138L14.5343 9.603C14.5807 9.2043 14.5807 8.802 14.5343 8.4042L14.4304 7.4934L15.8998 6.192L14.9573 4.6089L13.0639 5.1939L12.3023 4.6539C11.9691 4.41602 11.6105 4.21356 11.2327 4.05L10.3672 3.6819L9.94326 1.8H8.06009L7.63336 3.6828L6.77063 4.05C6.39231 4.21075 6.03357 4.41178 5.70102 4.6494L4.9394 5.1894L3.04696 4.6044L2.10351 6.192L3.57202 7.4889L3.46812 8.4006C3.42173 8.7993 3.42173 9.2016 3.46812 9.5994L3.57202 10.5102L2.10351 11.8089L3.0451 13.3911L4.93755 12.8061ZM8.99704 12.6C8.0129 12.6 7.06908 12.2207 6.37319 11.5456C5.6773 10.8705 5.28635 9.95478 5.28635 9C5.28635 8.04522 5.6773 7.12955 6.37319 6.45442C7.06908 5.77928 8.0129 5.4 8.99704 5.4C9.98117 5.4 10.925 5.77928 11.6209 6.45442C12.3168 7.12955 12.7077 8.04522 12.7077 9C12.7077 9.95478 12.3168 10.8705 11.6209 11.5456C10.925 12.2207 9.98117 12.6 8.99704 12.6ZM8.99704 7.2C8.63372 7.20036 8.27851 7.30419 7.97547 7.49863C7.67243 7.69307 7.4349 7.96954 7.29235 8.29376C7.1498 8.61797 7.1085 8.97565 7.17358 9.32243C7.23867 9.66921 7.40726 9.98982 7.65845 10.2445C7.90964 10.4991 8.23237 10.6767 8.5866 10.755C8.94083 10.8333 9.31097 10.809 9.6511 10.6851C9.99123 10.5612 10.2864 10.3432 10.4999 10.058C10.7135 9.77284 10.836 9.43312 10.8524 9.081V9.441V9C10.8524 8.52261 10.6569 8.06477 10.309 7.72721C9.96102 7.38964 9.48911 7.2 8.99704 7.2Z" fill="#004781"/>
</g>
<defs>
<clipPath id="clip0_4_27">
<rect width="18" height="18" fill="white"/>
</clipPath>
</defs>
</svg>
