<svg width="20" height="20" viewBox="0 0 20 20" fill="none" xmlns="http://www.w3.org/2000/svg">
<rect width="20" height="20" transform="translate(-0.000976562)" fill="white"/>
<path fill-rule="evenodd" clip-rule="evenodd" d="M15.999 9H17.199C18.189 9 18.999 9.90909 18.999 10.9091V18.1818C18.999 19.1818 18.189 20 17.199 20H2.79902C1.80902 20 0.999023 19.1818 0.999023 18.1818V10.9091C0.999023 9.90909 1.80902 9 2.79902 9H4.59902V5.45455C4.59902 2.45455 7.02902 0 9.99902 0C12.969 0 15.399 2.45455 15.399 5.45455V6H12.699V5.45455C12.699 3.90909 11.529 2.72727 9.99902 2.72727C8.46902 2.72727 7.29902 3.90909 7.29902 5.45455V9H11.999H12.699H15.399H15.999Z" fill="#0082DE"/>
</svg>
