<svg width="26" height="26" viewBox="0 0 26 26" fill="none" xmlns="http://www.w3.org/2000/svg">
<g clip-path="url(#clip0_17564_44720)">
<path fill-rule="evenodd" clip-rule="evenodd" d="M13 24.375C6.71776 24.375 1.625 19.2822 1.625 13C1.625 6.71776 6.71776 1.625 13 1.625C19.2822 1.625 24.375 6.71776 24.375 13C24.375 19.2822 19.2822 24.375 13 24.375ZM0 13C0 20.1797 5.8203 26 13 26C20.1797 26 26 20.1797 26 13C26 5.8203 20.1797 0 13 0C5.8203 0 0 5.8203 0 13Z" fill="#0082DE"/>
<path fill-rule="evenodd" clip-rule="evenodd" d="M8.41057 15.1519C8.79133 15.5327 9.40867 15.5327 9.78943 15.1519L13 11.9414L16.2106 15.1519C16.5913 15.5327 17.2087 15.5327 17.5894 15.1519C17.9702 14.7712 17.9702 14.1538 17.5894 13.7731L13.6894 9.87307C13.3087 9.49231 12.6913 9.49231 12.3106 9.87307L8.41057 13.7731C8.02981 14.1538 8.02981 14.7712 8.41057 15.1519Z" fill="#0082DE"/>
</g>
<defs>
<clipPath id="clip0_17564_44720">
<rect width="26" height="26" fill="white" transform="matrix(1 0 0 -1 0 26)"/>
</clipPath>
</defs>
</svg>
