<svg width="20" height="20" viewBox="0 0 20 20" fill="none" xmlns="http://www.w3.org/2000/svg">
<path d="M10 10.2V10.4831L10.2428 10.6287L14.3092 13.0686L14.0362 13.5121L9.5 10.7206V5.5H10V10.2ZM0.5 10C0.5 4.77614 4.77614 0.5 10 0.5C15.2239 0.5 19.5 4.77614 19.5 10C19.5 15.2239 15.2239 19.5 10 19.5C4.77614 19.5 0.5 15.2239 0.5 10ZM1.5 10C1.5 14.6861 5.31386 18.5 10 18.5C14.6861 18.5 18.5 14.6861 18.5 10C18.5 5.31386 14.6861 1.5 10 1.5C5.31386 1.5 1.5 5.31386 1.5 10Z" fill="#F4D150" stroke="#F4D150"/>
</svg>
