<svg width="20" height="20" viewBox="0 0 20 20" fill="none" xmlns="http://www.w3.org/2000/svg">
<rect width="20" height="20" transform="translate(-0.000976562)" fill="white"/>
<path d="M17.199 9H15.399V5.45455C15.399 2.45455 12.969 0 9.99902 0C7.02902 0 4.59902 2.45455 4.59902 5.45455V9H2.79902C1.80902 9 0.999023 9.90909 0.999023 10.9091V18.1818C0.999023 19.1818 1.80902 20 2.79902 20H17.199C18.189 20 18.999 19.1818 18.999 18.1818V10.9091C18.999 9.90909 18.189 9 17.199 9ZM7.29902 5.45455C7.29902 3.90909 8.46902 2.72727 9.99902 2.72727C11.529 2.72727 12.699 3.90909 12.699 5.45455V9H7.29902V5.45455Z" fill="#0082DE"/>
</svg>
