<svg width="18" height="22" viewBox="0 0 18 22" fill="none" xmlns="http://www.w3.org/2000/svg">
<path d="M11.3499 2.17022L11.4693 2.5H11.82H16C16.8239 2.5 17.5 3.17614 17.5 4V20C17.5 20.8239 16.8239 21.5 16 21.5H2C1.17614 21.5 0.5 20.8239 0.5 20V4C0.5 3.17614 1.17614 2.5 2 2.5H6.18H6.53073L6.65013 2.17022C7.00275 1.19634 7.9228 0.5 9 0.5C10.0772 0.5 10.9973 1.19634 11.3499 2.17022ZM16 20.5H16.5V20V4V3.5H16H14H13.5V4V6.5H4.5V4V3.5H4H2H1.5V4V20V20.5H2H16ZM10.5 3C10.5 2.17386 9.82614 1.5 9 1.5C8.17386 1.5 7.5 2.17386 7.5 3C7.5 3.82614 8.17386 4.5 9 4.5C9.82614 4.5 10.5 3.82614 10.5 3Z" fill="#7A91A9" stroke="#7A91A9"/>
</svg>
