<svg width="21" height="16" viewBox="0 0 21 16" fill="none" xmlns="http://www.w3.org/2000/svg">
<path d="M20.6498 7.26582C18.4753 2.67149 15.1884 0.359375 10.7822 0.359375C6.37371 0.359375 3.08912 2.67149 0.914678 7.26812C0.82746 7.45336 0.782227 7.65567 0.782227 7.86053C0.782227 8.06538 0.82746 8.26769 0.914678 8.45293C3.08912 13.0473 6.376 15.3594 10.7822 15.3594C15.1907 15.3594 18.4753 13.0473 20.6498 8.45063C20.8264 8.07793 20.8264 7.64542 20.6498 7.26582ZM10.7822 13.7029C7.08247 13.7029 4.37359 11.821 2.46293 7.85938C4.37359 3.89772 7.08247 2.01582 10.7822 2.01582C14.482 2.01582 17.1908 3.89772 19.1015 7.85938C17.1931 11.821 14.4843 13.7029 10.7822 13.7029ZM10.6905 3.8103C8.46099 3.8103 6.65354 5.62318 6.65354 7.85938C6.65354 10.0956 8.46099 11.9085 10.6905 11.9085C12.92 11.9085 14.7274 10.0956 14.7274 7.85938C14.7274 5.62318 12.92 3.8103 10.6905 3.8103ZM10.6905 10.4361C9.27067 10.4361 8.12152 9.28345 8.12152 7.85938C8.12152 6.4353 9.27067 5.28269 10.6905 5.28269C12.1103 5.28269 13.2594 6.4353 13.2594 7.85938C13.2594 9.28345 12.1103 10.4361 10.6905 10.4361Z" fill="#0082DE"/>
</svg>
