<svg width="24" height="24" viewBox="0 0 24 24" fill="none" xmlns="http://www.w3.org/2000/svg">
<mask id="path-1-inside-1_106_14" fill="white">
<path fill-rule="evenodd" clip-rule="evenodd" d="M12 4C7.58172 4 4 7.58172 4 12C4 16.4183 7.58172 20 12 20C16.4183 20 20 16.4183 20 12C20 7.58172 16.4183 4 12 4ZM2 12C2 6.47715 6.47715 2 12 2C17.5228 2 22 6.47715 22 12C22 17.5228 17.5228 22 12 22C6.47715 22 2 17.5228 2 12Z"/>
<path d="M15.59 17L17 15.59L13.41 12L17 8.41L15.59 7L12 10.59L8.41 7L7 8.41L10.59 12L7 15.59L8.41 17L12 13.41L15.59 17Z"/>
</mask>
<path fill-rule="evenodd" clip-rule="evenodd" d="M12 4C7.58172 4 4 7.58172 4 12C4 16.4183 7.58172 20 12 20C16.4183 20 20 16.4183 20 12C20 7.58172 16.4183 4 12 4ZM2 12C2 6.47715 6.47715 2 12 2C17.5228 2 22 6.47715 22 12C22 17.5228 17.5228 22 12 22C6.47715 22 2 17.5228 2 12Z" fill="#BEBEBE"/>
<path d="M15.59 17L17 15.59L13.41 12L17 8.41L15.59 7L12 10.59L8.41 7L7 8.41L10.59 12L7 15.59L8.41 17L12 13.41L15.59 17Z" fill="#BEBEBE"/>
<path d="M15.59 17L14.8829 17.7071L15.59 18.4142L16.2971 17.7071L15.59 17ZM17 15.59L17.7071 16.2971L18.4142 15.59L17.7071 14.8829L17 15.59ZM13.41 12L12.7029 11.2929L11.9958 12L12.7029 12.7071L13.41 12ZM17 8.41L17.7071 9.11711L18.4142 8.41L17.7071 7.70289L17 8.41ZM15.59 7L16.2971 6.29289L15.59 5.58579L14.8829 6.29289L15.59 7ZM12 10.59L11.2929 11.2971L12 12.0042L12.7071 11.2971L12 10.59ZM8.41 7L9.11711 6.29289L8.41 5.58579L7.70289 6.29289L8.41 7ZM7 8.41L6.29289 7.70289L5.58579 8.41L6.29289 9.11711L7 8.41ZM10.59 12L11.2971 12.7071L12.0042 12L11.2971 11.2929L10.59 12ZM7 15.59L6.29289 14.8829L5.58579 15.59L6.29289 16.2971L7 15.59ZM8.41 17L7.70289 17.7071L8.41 18.4142L9.11711 17.7071L8.41 17ZM12 13.41L12.7071 12.7029L12 11.9958L11.2929 12.7029L12 13.41ZM12 3C7.02944 3 3 7.02944 3 12H5C5 8.13401 8.13401 5 12 5V3ZM3 12C3 16.9706 7.02944 21 12 21V19C8.13401 19 5 15.866 5 12H3ZM12 21C16.9706 21 21 16.9706 21 12H19C19 15.866 15.866 19 12 19V21ZM21 12C21 7.02944 16.9706 3 12 3V5C15.866 5 19 8.13401 19 12H21ZM3 12C3 7.02944 7.02944 3 12 3V1C5.92487 1 1 5.92487 1 12H3ZM12 3C16.9706 3 21 7.02944 21 12H23C23 5.92487 18.0751 1 12 1V3ZM21 12C21 16.9706 16.9706 21 12 21V23C18.0751 23 23 18.0751 23 12H21ZM12 21C7.02944 21 3 16.9706 3 12H1C1 18.0751 5.92487 23 12 23V21ZM16.2971 17.7071L17.7071 16.2971L16.2929 14.8829L14.8829 16.2929L16.2971 17.7071ZM17.7071 14.8829L14.1171 11.2929L12.7029 12.7071L16.2929 16.2971L17.7071 14.8829ZM14.1171 12.7071L17.7071 9.11711L16.2929 7.70289L12.7029 11.2929L14.1171 12.7071ZM17.7071 7.70289L16.2971 6.29289L14.8829 7.70711L16.2929 9.11711L17.7071 7.70289ZM14.8829 6.29289L11.2929 9.88289L12.7071 11.2971L16.2971 7.70711L14.8829 6.29289ZM12.7071 9.88289L9.11711 6.29289L7.70289 7.70711L11.2929 11.2971L12.7071 9.88289ZM7.70289 6.29289L6.29289 7.70289L7.70711 9.11711L9.11711 7.70711L7.70289 6.29289ZM6.29289 9.11711L9.88289 12.7071L11.2971 11.2929L7.70711 7.70289L6.29289 9.11711ZM9.88289 11.2929L6.29289 14.8829L7.70711 16.2971L11.2971 12.7071L9.88289 11.2929ZM6.29289 16.2971L7.70289 17.7071L9.11711 16.2929L7.70711 14.8829L6.29289 16.2971ZM9.11711 17.7071L12.7071 14.1171L11.2929 12.7029L7.70289 16.2929L9.11711 17.7071ZM11.2929 14.1171L14.8829 17.7071L16.2971 16.2929L12.7071 12.7029L11.2929 14.1171Z" fill="#BEBEBE" mask="url(#path-1-inside-1_106_14)"/>
</svg>
