<svg width="16" height="16" viewBox="0 0 16 16" fill="none" xmlns="http://www.w3.org/2000/svg">
<path d="M5.48394 8L0.495193 3.02473C0.173856 2.69292 -0.00395258 2.24852 6.66856e-05 1.78724C0.00408595 1.32596 0.189609 0.884709 0.51668 0.558522C0.84375 0.232336 1.2862 0.0473135 1.74873 0.0433051C2.21126 0.0392967 2.65686 0.216623 2.98957 0.537092L7.97832 5.51236L12.9671 0.537092C13.1298 0.369062 13.3245 0.235034 13.5397 0.142832C13.7549 0.0506291 13.9864 0.00209632 14.2206 6.64214e-05C14.4548 -0.00196348 14.6871 0.0425522 14.9039 0.131011C15.1207 0.21947 15.3177 0.350102 15.4833 0.515286C15.6489 0.680471 15.7799 0.876899 15.8686 1.09311C15.9573 1.30932 16.002 1.54098 15.9999 1.77458C15.9979 2.00818 15.9492 2.23903 15.8568 2.45367C15.7643 2.66831 15.6299 2.86244 15.4615 3.02473L10.4727 8L15.4615 12.9753C15.6299 13.1376 15.7643 13.3317 15.8568 13.5463C15.9492 13.761 15.9979 13.9918 15.9999 14.2254C16.002 14.459 15.9573 14.6907 15.8686 14.9069C15.7799 15.1231 15.6489 15.3195 15.4833 15.4847C15.3177 15.6499 15.1207 15.7805 14.9039 15.869C14.6871 15.9575 14.4548 16.002 14.2206 15.9999C13.9864 15.9979 13.7549 15.9494 13.5397 15.8572C13.3245 15.765 13.1298 15.6309 12.9671 15.4629L7.97832 10.4876L2.98957 15.4629C2.65686 15.7834 2.21126 15.9607 1.74873 15.9567C1.2862 15.9527 0.84375 15.7677 0.51668 15.4415C0.189609 15.1153 0.00408595 14.674 6.66856e-05 14.2128C-0.00395258 13.7515 0.173856 13.3071 0.495193 12.9753L5.48394 8Z" fill="black"/>
</svg>
