<svg width="22" height="22" viewBox="0 0 22 22" fill="none" xmlns="http://www.w3.org/2000/svg">
<path fill-rule="evenodd" clip-rule="evenodd" d="M4.2036 0.551175C5.03589 0.00403597 6.09182 0.319536 6.56905 1.11491L8.70201 4.66984C9.18275 5.47108 8.94923 6.50865 8.17157 7.02666L6.67517 8.02345C6.55732 8.10195 6.53898 8.24531 6.60631 8.34181C7.3172 9.36065 8.54981 11.047 9.59846 12.0957C10.6472 13.1445 12.3338 14.3772 13.3526 15.0881C13.4491 15.1554 13.5924 15.1371 13.671 15.0193L14.6686 13.5229C15.1867 12.7456 16.224 12.5124 17.025 12.993L20.58 15.126C21.3756 15.6033 21.691 16.6596 21.1435 17.4919C20.7713 18.0577 20.2115 18.8327 19.5327 19.5272C18.867 20.2083 18.017 20.8849 17.0546 21.1428C15.7028 21.5051 14.1024 21.0442 12.9504 20.5855C11.7549 20.1095 10.8341 19.5485 10.7567 19.5009L10.7523 19.4982L10.7411 19.4912L10.7316 19.485L10.73 19.4839C10.6237 19.4137 7.60592 17.4194 5.94022 15.7537C4.27455 14.088 2.28077 11.071 2.21073 10.9649L2.20916 10.9625L2.20298 10.953L2.19595 10.9419L2.19323 10.9375C2.14574 10.8602 1.58467 9.93942 1.10857 8.74382C0.649837 7.59182 0.188879 5.99137 0.551341 4.63943C0.809389 3.67695 1.48629 2.82703 2.16767 2.16142C2.86241 1.48275 3.63768 0.923197 4.2036 0.551175ZM5.1511 1.78366C5.10812 1.77277 5.06732 1.77847 5.02757 1.80459C4.50431 2.14858 3.8157 2.64844 3.21584 3.23442C2.60261 3.83347 2.15418 4.45343 2.00017 5.02787C1.77441 5.86993 2.0543 7.06424 2.50214 8.18888C2.91875 9.23507 3.41098 10.0534 3.46697 10.1452C3.5995 10.3455 5.48183 13.174 7.00089 14.693C8.51995 16.2121 11.3484 18.0945 11.5489 18.2272C11.6408 18.2832 12.4591 18.7754 13.5053 19.1919C14.6299 19.6397 15.8243 19.9196 16.6664 19.694C17.2408 19.54 17.8609 19.0917 18.46 18.4787C19.0461 17.8791 19.5462 17.1907 19.8903 16.6675C19.9165 16.6278 19.9222 16.5869 19.9113 16.544C19.8997 16.4981 19.8675 16.4478 19.8083 16.4122L16.2533 14.2792C16.1388 14.2106 15.9907 14.2439 15.9166 14.3549L14.919 15.8513C14.3874 16.6488 13.2999 16.8803 12.4943 16.3182C11.4767 15.6082 9.69035 14.3089 8.5378 13.1564C7.38535 12.0039 6.0862 10.2178 5.37616 9.20014C4.8139 8.39431 5.04572 7.30654 5.84359 6.77507L7.33999 5.77827C7.45108 5.70427 7.48444 5.55605 7.41577 5.44159L5.28281 1.88665C5.24728 1.82744 5.19698 1.79529 5.1511 1.78366Z" fill="#0082DE"/>
</svg>
