<svg width="24" height="24" viewBox="0 0 24 24" fill="none" xmlns="http://www.w3.org/2000/svg">
<path d="M13.4727 10.5271C12.7163 9.77081 11.6982 9.33416 10.6288 9.30747C9.55946 9.28077 8.52076 9.66608 7.72756 10.3837L7.57663 10.5271L5.21852 12.8859C4.45052 13.6552 4.01339 14.694 4.0003 15.7809C3.98721 16.8678 4.3992 17.9169 5.14844 18.7044C5.89769 19.492 6.92494 19.9558 8.01124 19.997C9.09753 20.0382 10.157 19.6535 10.9637 18.9249L11.1138 18.7815L12.8832 17.0122C13.0328 16.8622 13.1196 16.6609 13.126 16.4491C13.1325 16.2374 13.0581 16.0311 12.918 15.8722C12.7779 15.7133 12.5826 15.6137 12.3717 15.5936C12.1608 15.5736 11.9501 15.6345 11.7825 15.7641L11.7042 15.8333L9.93474 17.6026C9.47606 18.0639 8.8557 18.3284 8.20525 18.3399C7.55479 18.3515 6.92541 18.1092 6.45062 17.6645C5.97583 17.2198 5.69297 16.6076 5.66205 15.9579C5.63113 15.3081 5.85459 14.6718 6.28501 14.1841L6.39758 14.0648L8.75568 11.7069C8.98798 11.4746 9.26376 11.2903 9.56729 11.1646C9.87082 11.0388 10.1961 10.9741 10.5247 10.9741C10.8532 10.9741 11.1785 11.0388 11.4821 11.1646C11.7856 11.2903 12.0614 11.4746 12.2937 11.7069C12.4501 11.8632 12.6623 11.951 12.8835 11.951C13.1047 11.9509 13.3168 11.8629 13.4732 11.7065C13.6295 11.55 13.7173 11.3379 13.7172 11.1167C13.7171 10.8955 13.6292 10.6834 13.4727 10.5271ZM18.7793 5.22094C18.0229 4.46465 17.0047 4.02799 15.9354 4.0013C14.866 3.97461 13.8273 4.35992 13.0341 5.07753L12.8832 5.22094L11.1146 6.99105C10.9651 7.1411 10.8783 7.34243 10.8718 7.55417C10.8653 7.76591 10.9397 7.97217 11.0798 8.13106C11.2199 8.28995 11.4153 8.38955 11.6262 8.40964C11.8371 8.42973 12.0477 8.3688 12.2153 8.23922L12.2937 8.17001L14.0623 6.40157C14.5217 5.94512 15.1403 5.68467 15.788 5.67499C16.4356 5.66532 17.0617 5.90718 17.5346 6.3497C18.0075 6.79221 18.2903 7.40089 18.3236 8.04766C18.3568 8.69444 18.1379 9.3289 17.7128 9.81756L17.6003 9.93762L15.2413 12.2964C14.7722 12.7653 14.136 13.0287 13.4727 13.0287C12.8094 13.0287 12.1733 12.7653 11.7042 12.2964C11.6267 12.2189 11.5348 12.1575 11.4336 12.1155C11.3325 12.0736 11.224 12.052 11.1145 12.0519C11.005 12.0519 10.8965 12.0734 10.7953 12.1153C10.6941 12.1572 10.6022 12.2186 10.5247 12.296C10.4472 12.3734 10.3857 12.4653 10.3438 12.5665C10.3018 12.6676 10.2802 12.7761 10.2802 12.8856C10.2802 12.9951 10.3017 13.1035 10.3436 13.2047C10.3854 13.3059 10.4468 13.3979 10.5243 13.4753C11.2807 14.2316 12.2988 14.6683 13.3682 14.695C14.4375 14.7217 15.4762 14.3364 16.2694 13.6188L16.4212 13.4753L18.7793 11.1166C19.5609 10.3348 20 9.27462 20 8.16918C20 7.06374 19.5609 6.00272 18.7793 5.22094Z" fill="#7A91A9"/>
</svg>
