<svg width="20" height="20" viewBox="0 0 20 20" fill="none" xmlns="http://www.w3.org/2000/svg">
<path d="M17.8571 15.5357C17.8571 16.1514 17.6125 16.7418 17.1772 17.1772C16.7418 17.6125 16.1514 17.8571 15.5357 17.8571H4.46425C3.84857 17.8571 3.25811 17.6125 2.82275 17.1772C2.3874 16.7418 2.14282 16.1514 2.14282 15.5357V4.46425C2.14282 3.84857 2.3874 3.25811 2.82275 2.82275C3.25811 2.3874 3.84857 2.14282 4.46425 2.14282H15.5357C16.1514 2.14282 16.7418 2.3874 17.1772 2.82275C17.6125 3.25811 17.8571 3.84857 17.8571 4.46425V15.5357ZM16.7857 15.5357V4.46425C16.7857 4.13273 16.654 3.81479 16.4196 3.58037C16.1851 3.34595 15.8672 3.21425 15.5357 3.21425H4.46425C4.13273 3.21425 3.81479 3.34595 3.58037 3.58037C3.34595 3.81479 3.21425 4.13273 3.21425 4.46425V15.5357C3.21425 16.2257 3.77425 16.7857 4.46425 16.7857H15.5357C15.8672 16.7857 16.1851 16.654 16.4196 16.4196C16.654 16.1851 16.7857 15.8672 16.7857 15.5357ZM14.1071 9.99997C14.1071 10.1294 14.0602 10.2545 13.9751 10.3521C13.89 10.4496 13.7725 10.5131 13.6443 10.5307L13.5714 10.5357H6.42854C6.29281 10.5356 6.16215 10.4841 6.06297 10.3914C5.96379 10.2987 5.90348 10.1719 5.89423 10.0365C5.88498 9.90106 5.92748 9.76719 6.01313 9.66189C6.09879 9.5566 6.22122 9.48775 6.35568 9.46925L6.42854 9.46425H13.5714C13.7135 9.46425 13.8497 9.52069 13.9502 9.62116C14.0507 9.72162 14.1071 9.85788 14.1071 9.99997ZM14.1071 13.75C14.1071 13.8794 14.0602 14.0045 13.9751 14.1021C13.89 14.1996 13.7725 14.2631 13.6443 14.2807L13.5714 14.2857H6.42854C6.29281 14.2856 6.16215 14.2341 6.06297 14.1414C5.96379 14.0487 5.90348 13.9219 5.89423 13.7865C5.88498 13.6511 5.92748 13.5172 6.01313 13.4119C6.09879 13.3066 6.22122 13.2378 6.35568 13.2193L6.42854 13.2143H13.5714C13.7135 13.2143 13.8497 13.2707 13.9502 13.3712C14.0507 13.4716 14.1071 13.6079 14.1071 13.75ZM14.1071 6.24997C14.1071 6.37942 14.0602 6.5045 13.9751 6.60206C13.89 6.69962 13.7725 6.76307 13.6443 6.78068L13.5714 6.78568H6.42854C6.29281 6.78564 6.16215 6.73408 6.06297 6.64141C5.96379 6.54875 5.90348 6.42189 5.89423 6.28648C5.88498 6.15106 5.92748 6.01719 6.01313 5.91189C6.09879 5.8066 6.22122 5.73775 6.35568 5.71925L6.42854 5.71425H13.5714C13.7135 5.71425 13.8497 5.77069 13.9502 5.87116C14.0507 5.97162 14.1071 6.10788 14.1071 6.24997Z" fill="#7A91A9"/>
</svg>
