<svg width="140" height="48" viewBox="0 0 140 48" fill="none" xmlns="http://www.w3.org/2000/svg">
<g clip-path="url(#clip0_10659_61876)">
<path d="M85.1351 30.0852C85.1271 29.4582 85.2456 28.8361 85.4834 28.2565C85.7212 27.6768 86.0734 27.1515 86.5188 26.7125C86.9543 26.2549 87.4793 25.893 88.0609 25.6496C88.6425 25.4062 89.268 25.2866 89.8978 25.2984C90.524 25.2916 91.145 25.4135 91.7225 25.6567C92.3001 25.8999 92.8221 26.2591 93.2565 26.7125C93.7074 27.1484 94.0646 27.6726 94.306 28.2527C94.5475 28.8328 94.6681 29.4565 94.6605 30.0852C94.6633 30.7098 94.5403 31.3285 94.299 31.9041C94.0577 32.4797 93.7031 33.0003 93.2565 33.4345C92.8254 33.8938 92.3046 34.2586 91.7266 34.5059C91.1486 34.7533 90.526 34.8779 89.8978 34.872C89.2701 34.8783 88.6478 34.7537 88.0703 34.5063C87.4927 34.2589 86.9724 33.894 86.5421 33.4345C86.0945 33.0008 85.7391 32.4804 85.4973 31.9047C85.2555 31.3291 85.1323 30.7101 85.1351 30.0852Z" fill="white"/>
<path d="M105.775 10.7125V16.6382C106.092 15.3226 106.62 14.0678 107.339 12.9229C107.99 11.9334 108.685 11.2571 109.425 10.894C110.169 10.5281 110.978 10.3113 111.805 10.2558C112.647 10.1933 113.491 10.3506 114.254 10.7125V17.5487C111.837 16.606 109.819 16.5084 108.201 17.256C106.584 18.0035 105.775 19.3327 105.775 21.2435V34.4183H98.5156V10.7037L105.775 10.7125Z" fill="white"/>
<path d="M116.752 24.2944V10.7126H124.008V24.2944C123.984 24.8208 124.071 25.3465 124.262 25.8372C124.453 26.3279 124.745 26.7728 125.118 27.143C125.858 27.8574 126.848 28.2146 128.089 28.2146C129.161 28.2501 130.206 27.8659 131.002 27.143C131.389 26.781 131.694 26.3389 131.895 25.8471C132.097 25.3553 132.189 24.8256 132.167 24.2944V10.7126H139.426V24.2944C139.426 27.4173 138.358 29.9624 136.222 31.9299C134.086 33.8973 131.367 34.8781 128.066 34.8722C124.71 34.8722 121.982 33.8914 119.88 31.9299C117.779 29.9683 116.729 27.4231 116.729 24.2944" fill="white"/>
<path d="M31.285 6.76882C31.2348 7.01351 31.283 7.26822 31.419 7.47733L33.2425 10.2557C34.4077 12.0475 35.2991 12.8087 37.5304 12.8087C38.145 12.8087 41.2095 12.6448 41.2095 9.41255V3.00669C41.2087 2.82912 41.1382 2.65903 41.0133 2.53347C40.8883 2.4079 40.7191 2.33702 40.5424 2.33625C40.3652 2.33625 40.1952 2.40679 40.0697 2.53244C39.9441 2.65809 39.8732 2.82861 39.8724 3.00669V5.93442C39.8724 6.01905 39.839 6.10022 39.7795 6.16007C39.7199 6.21992 39.6391 6.25354 39.5549 6.25354C39.4707 6.25354 39.39 6.21992 39.3304 6.16007C39.2709 6.10022 39.2374 6.01905 39.2374 5.93442V1.75949C39.2366 1.58191 39.1661 1.41183 39.0412 1.28626C38.9162 1.16069 38.747 1.08981 38.5703 1.08904C38.3934 1.08904 38.2238 1.15967 38.0987 1.28541C37.9736 1.41114 37.9033 1.58167 37.9033 1.75949V5.43963C37.9025 5.52453 37.8684 5.6057 37.8084 5.66546C37.7484 5.72523 37.6673 5.75876 37.5829 5.75876C37.4986 5.75876 37.4179 5.72513 37.3583 5.66529C37.2988 5.60544 37.2653 5.52427 37.2653 5.43963V1.28812C37.2646 1.11055 37.194 0.940463 37.0691 0.814896C36.9442 0.689329 36.7749 0.618446 36.5983 0.617676C36.4211 0.617674 36.2511 0.688214 36.1256 0.813864C36 0.939514 35.929 1.11004 35.9283 1.28812V5.46305C35.9283 5.54769 35.8948 5.62886 35.8353 5.68871C35.7757 5.74855 35.695 5.78218 35.6108 5.78218C35.5266 5.78218 35.4458 5.74855 35.3863 5.68871C35.3267 5.62886 35.2933 5.54769 35.2933 5.46305V2.28062C35.2933 2.10254 35.2231 1.9317 35.098 1.8055C34.973 1.67931 34.8034 1.60802 34.6262 1.60724C34.4485 1.60724 34.2781 1.67819 34.1524 1.80447C34.0268 1.93075 33.9562 2.10203 33.9562 2.28062V8.16241L32.8318 6.61072C32.7121 6.41064 32.5203 6.26462 32.2962 6.20301C32.0722 6.1414 31.8331 6.16893 31.6287 6.27989C31.541 6.3366 31.4654 6.41035 31.4063 6.49682C31.3473 6.5833 31.3061 6.68075 31.285 6.78346" fill="white"/>
<path d="M3.19262 40.4846C3.51958 40.4796 3.84346 40.5488 4.14006 40.6872C4.43666 40.8256 4.6983 41.0296 4.90544 41.2839C5.36738 41.8346 5.61109 42.5372 5.58998 43.2572C5.61037 43.9762 5.3667 44.6776 4.90544 45.2275C4.69702 45.4798 4.43491 45.6817 4.13846 45.8186C3.84201 45.9554 3.51878 46.0235 3.19262 46.018C2.72176 46.0259 2.2627 45.8697 1.89343 45.5759C1.51245 45.264 1.23255 44.8451 1.08945 44.3727V47.9972H0V40.59H1.08945V42.1329C1.23255 41.6605 1.51245 41.2416 1.89343 40.9297C2.26231 40.6349 2.7214 40.4776 3.19262 40.4846ZM2.83141 45.008C3.05047 45.0129 3.26799 44.9702 3.4691 44.8828C3.67021 44.7954 3.85016 44.6653 3.9966 44.5015C4.31027 44.165 4.47976 43.7181 4.4685 43.2572C4.48286 42.7922 4.31315 42.3405 3.9966 42.0012C3.84965 41.8382 3.66954 41.7089 3.4685 41.622C3.26746 41.5351 3.05019 41.4927 2.83141 41.4976C2.60008 41.4904 2.36975 41.5312 2.15477 41.6173C1.93978 41.7034 1.74471 41.8331 1.58174 41.9983C1.41894 42.1635 1.29134 42.3604 1.2067 42.5768C1.12206 42.7933 1.08217 43.0247 1.08945 43.2572C1.08268 43.4883 1.12284 43.7183 1.20748 43.9332C1.29212 44.1482 1.41947 44.3435 1.58174 44.5073C1.74471 44.6725 1.93978 44.8022 2.15477 44.8883C2.36975 44.9744 2.60008 45.0152 2.83141 45.008Z" fill="white"/>
<path d="M8.7833 40.4846C9.34437 40.4616 9.89542 40.6389 10.3388 40.9852C10.5422 41.1623 10.7021 41.3841 10.8062 41.6334C10.9103 41.8828 10.9557 42.1529 10.9389 42.4228V45.9155H9.84944V44.4985C9.52707 45.5115 8.87457 46.018 7.89193 46.018C7.47323 46.0327 7.06475 45.8861 6.75004 45.6081C6.60041 45.4723 6.4822 45.3052 6.4037 45.1186C6.32519 44.9319 6.28829 44.7303 6.29562 44.5278C6.28146 44.302 6.32423 44.0763 6.41997 43.8716C6.5157 43.6669 6.66129 43.4898 6.84326 43.3567C7.25754 43.0767 7.7355 42.9065 8.23275 42.8619L9.25812 42.7594C9.64554 42.7243 9.84071 42.5516 9.84071 42.2383C9.84487 42.1198 9.82056 42.0021 9.76986 41.8951C9.71915 41.7881 9.64354 41.6949 9.54941 41.6235C9.32468 41.4629 9.05293 41.3825 8.77747 41.3951C8.48296 41.3849 8.19327 41.4724 7.9531 41.644C7.72205 41.8227 7.56781 42.0836 7.52198 42.373L6.44418 42.1124C6.48761 41.8715 6.57887 41.6418 6.71249 41.4371C6.84611 41.2324 7.01938 41.0568 7.22196 40.9208C7.6816 40.6131 8.22547 40.4575 8.77747 40.4758L8.7833 40.4846ZM8.23275 45.1338C8.44745 45.1417 8.66149 45.1055 8.86181 45.0275C9.06214 44.9495 9.24456 44.8312 9.39793 44.68C9.54488 44.5464 9.6623 44.3834 9.74258 44.2013C9.82287 44.0192 9.86423 43.8223 9.864 43.6231V43.3303C9.78244 43.468 9.5727 43.5558 9.26393 43.5909L8.25897 43.7168C8.03227 43.7373 7.81508 43.8182 7.62976 43.951C7.55375 44.0082 7.4928 44.0831 7.45218 44.1694C7.41157 44.2556 7.39252 44.3505 7.39673 44.4458C7.39399 44.5418 7.41365 44.637 7.45412 44.7239C7.49458 44.8109 7.55473 44.8871 7.62976 44.9465C7.81252 45.0783 8.03423 45.1443 8.25897 45.1338" fill="white"/>
<path d="M15.0953 40.6953C15.4147 40.69 15.7313 40.7548 16.0232 40.8853C16.315 41.0157 16.5749 41.2087 16.7848 41.4506C17.2423 41.9542 17.4876 42.6164 17.4694 43.298C17.4792 43.6594 17.414 44.0188 17.2781 44.3535C17.1422 44.6882 16.9385 44.9907 16.68 45.242C16.4209 45.4983 16.1128 45.6992 15.7744 45.8325C15.436 45.9658 15.0742 46.0289 14.7108 46.0179C14.3404 46.0277 13.9719 45.9605 13.6285 45.8205C13.2851 45.6804 12.9743 45.4705 12.7154 45.204C12.4456 44.9159 12.2364 44.576 12.1002 44.2048C11.9641 43.8335 11.9038 43.4385 11.9231 43.0433C11.8883 42.1114 12.0307 41.1813 12.3426 40.303C12.5813 39.6632 13.0545 39.1395 13.6651 38.8391C14.2082 38.6094 14.7827 38.4633 15.3691 38.4058C15.9511 38.3379 16.5281 38.2323 17.0965 38.0896V39.088C16.6042 39.2221 16.1028 39.3199 15.5964 39.3807C15.0981 39.4253 14.6081 39.5376 14.1399 39.7145C13.4563 40.0346 13.0941 40.8719 13.0533 42.2265C13.1872 41.8097 13.4405 41.4421 13.7816 41.1696C14.143 40.8563 14.6065 40.6875 15.0837 40.6953H15.0953ZM13.5282 44.5335C13.6798 44.6884 13.8614 44.8104 14.0618 44.892C14.2623 44.9736 14.4772 45.013 14.6933 45.0078C14.9096 45.0135 15.1246 44.9743 15.3251 44.8927C15.5256 44.8111 15.7072 44.6888 15.8585 44.5335C16.0117 44.3805 16.1323 44.1978 16.2129 43.9965C16.2935 43.7951 16.3325 43.5794 16.3275 43.3624C16.3335 43.1432 16.2956 42.925 16.216 42.7208C16.1364 42.5166 16.0169 42.3306 15.8644 42.1738C15.7208 42.0191 15.5466 41.8964 15.3529 41.8137C15.1592 41.731 14.9504 41.6901 14.74 41.6936C14.5165 41.6862 14.294 41.7243 14.0857 41.8059C13.8774 41.8874 13.6877 42.0106 13.5282 42.1679C13.3706 42.323 13.2468 42.5092 13.1646 42.7148C13.0824 42.9204 13.0435 43.1409 13.0504 43.3624C13.0448 43.5792 13.0833 43.7949 13.1634 43.9962C13.2436 44.1976 13.3637 44.3804 13.5165 44.5335" fill="white"/>
<path d="M19.0977 45.2274C18.8336 44.9738 18.6251 44.6676 18.4857 44.3283C18.3462 43.9889 18.2789 43.6241 18.2879 43.2571C18.2795 42.8897 18.3472 42.5246 18.4866 42.185C18.626 41.8453 18.8341 41.5384 19.0977 41.2838C19.3603 41.0217 19.673 40.8157 20.017 40.6784C20.3609 40.541 20.7289 40.4751 21.0989 40.4845C21.4684 40.4753 21.836 40.5414 22.1794 40.6787C22.5228 40.8161 22.8351 41.0219 23.0972 41.2838C23.3617 41.5377 23.5704 41.8445 23.7098 42.1843C23.8493 42.5242 23.9165 42.8896 23.907 43.2571C23.9149 43.6247 23.8462 43.99 23.7052 44.3293C23.5642 44.6687 23.3542 44.9746 23.0885 45.2274C22.825 45.4869 22.5123 45.6906 22.1691 45.8264C21.8258 45.9622 21.459 46.0273 21.0902 46.0179C20.7209 46.0275 20.3535 45.9625 20.0098 45.8267C19.666 45.6909 19.3529 45.4871 19.089 45.2274H19.0977ZM19.8871 42.007C19.7264 42.1728 19.6005 42.3695 19.517 42.5853C19.4334 42.8011 19.3939 43.0315 19.4007 43.2629C19.3941 43.4923 19.4335 43.7207 19.5165 43.9345C19.5996 44.1483 19.7246 44.3431 19.8842 44.5072C20.0391 44.6701 20.2261 44.7987 20.4333 44.8849C20.6404 44.9711 20.8631 45.013 21.0873 45.0079C21.312 45.0139 21.5354 44.9725 21.7431 44.8863C21.9509 44.8 22.1383 44.6709 22.2932 44.5072C22.4531 44.3421 22.5783 44.1463 22.6614 43.9315C22.7444 43.7168 22.7837 43.4874 22.7768 43.2571C22.7842 43.0254 22.7452 42.7946 22.6622 42.5783C22.5791 42.362 22.4536 42.1648 22.2932 41.9982C22.1383 41.8345 21.9509 41.7054 21.7431 41.6191C21.5354 41.5329 21.312 41.4915 21.0873 41.4975C20.8629 41.4922 20.6398 41.5343 20.4326 41.6211C20.2254 41.7078 20.0386 41.8373 19.8842 42.0011" fill="white"/>
<path d="M27.1512 45.9154H26.0647V41.5589H24.2383V40.5928H28.966V41.5589H27.1512V45.9154Z" fill="white"/>
<path d="M31.7345 40.4845C32.2957 40.4607 32.847 40.6382 33.2901 40.9852C33.4939 41.1619 33.6544 41.3836 33.759 41.633C33.8636 41.8823 33.9095 42.1526 33.893 42.4227V45.9155H32.8036V44.4984C32.4773 45.5114 31.8239 46.0179 30.8432 46.0179C30.4254 46.0325 30.0179 45.8858 29.7042 45.6081C29.5536 45.4729 29.4345 45.306 29.3554 45.1193C29.2764 44.9325 29.2393 44.7305 29.2469 44.5277C29.2325 44.3016 29.2754 44.0756 29.3717 43.8708C29.468 43.6659 29.6145 43.489 29.7974 43.3566C30.2151 43.0784 30.6961 42.9112 31.1956 42.8706L32.2239 42.7682C32.6113 42.733 32.8065 42.5603 32.8065 42.247C32.8109 42.1285 32.7867 42.0107 32.736 41.9037C32.6853 41.7966 32.6095 41.7035 32.5152 41.6322C32.2909 41.4708 32.0188 41.3903 31.7432 41.4038C31.4497 41.3941 31.1611 41.4815 30.9218 41.6527C30.6889 41.8298 30.5342 42.0915 30.4907 42.3817L29.4129 42.1211C29.4563 41.8806 29.5472 41.6512 29.6803 41.4465C29.8134 41.2418 29.9859 41.0661 30.1877 40.9296C30.6475 40.6222 31.1913 40.4666 31.7432 40.4845H31.7345ZM31.2044 45.1338C31.4152 45.1384 31.6248 45.1007 31.8209 45.0228C32.017 44.9448 32.1956 44.8283 32.3463 44.68C32.4926 44.5459 32.6097 44.3827 32.6899 44.2008C32.7701 44.0188 32.8118 43.8221 32.8123 43.6231V43.3303C32.7369 43.4154 32.6438 43.4829 32.5396 43.5279C32.4354 43.5729 32.3227 43.5944 32.2094 43.5909L31.2044 43.7167C30.9784 43.7368 30.7621 43.8177 30.5781 43.951C30.5021 44.0081 30.4411 44.0831 30.4005 44.1693C30.3599 44.2555 30.3408 44.3504 30.345 44.4458C30.3423 44.5417 30.362 44.6369 30.4024 44.7239C30.4429 44.8108 30.503 44.887 30.5781 44.9464C30.7595 45.0787 30.9805 45.1448 31.2044 45.1338Z" fill="white"/>
<path d="M43.1578 40.5898V44.9463H43.8832V47.4261H42.8491V45.9154H38.6923V47.4261H37.6523V44.9463H38.2349C38.4608 44.6829 38.6268 44.3732 38.7214 44.0387C38.829 43.5319 38.874 43.0137 38.8554 42.4958V40.5898H43.1578ZM39.371 44.9463H42.0567V41.5589H39.8779V42.4958C39.8905 43.0194 39.8525 43.543 39.7642 44.0592C39.7044 44.3792 39.5696 44.6803 39.371 44.9375" fill="white"/>
<path d="M44.3208 45.9973H44.2363V45.0195H44.3732C44.5736 45.0312 44.7737 44.993 44.9558 44.9082C45.1187 44.7898 45.2294 44.6124 45.2646 44.4134C45.3577 44.0305 45.397 43.6363 45.3811 43.2423V40.5752H49.7768V45.9007H48.6873V41.5443H46.3919V43.2423C46.3919 44.2183 46.2366 44.918 45.9259 45.3415C45.6151 45.7651 45.0762 45.9788 44.3092 45.9827" fill="white"/>
<path d="M52.801 40.5898H55.5305V45.9154H54.441V44.0065H53.4972L52.067 45.9154H50.8027L52.2825 43.945C51.9058 43.8636 51.5673 43.6574 51.3213 43.3595C51.077 43.0629 50.9476 42.6875 50.9571 42.3026C50.9496 42.0721 50.9921 41.8427 51.0817 41.6304C51.1712 41.418 51.3056 41.2278 51.4756 41.0729C51.839 40.7467 52.3141 40.5746 52.801 40.5928V40.5898ZM52.8535 43.0403H54.441V41.5765H52.8535C52.7508 41.5732 52.6485 41.5904 52.5525 41.6271C52.4565 41.6638 52.3687 41.7192 52.2942 41.7902C52.2229 41.8595 52.1666 41.9428 52.129 42.0351C52.0914 42.1273 52.0732 42.2263 52.0757 42.326C52.0733 42.4234 52.0916 42.5203 52.1292 42.6102C52.1669 42.7 52.2231 42.7808 52.2942 42.8471C52.369 42.9173 52.457 42.9718 52.553 43.0075C52.6491 43.0432 52.7512 43.0593 52.8535 43.055" fill="white"/>
<path d="M75.2296 45.1601C74.9661 44.9062 74.7582 44.5999 74.6192 44.2606C74.4803 43.9213 74.4133 43.5565 74.4227 43.1897C74.4138 42.8226 74.4809 42.4576 74.6198 42.1179C74.7588 41.7782 74.9664 41.4712 75.2296 41.2165C75.4926 40.955 75.8054 40.7497 76.1493 40.6129C76.4932 40.476 76.8611 40.4105 77.2309 40.4201C77.7761 40.4123 78.3113 40.5671 78.7689 40.8651C79.2214 41.1623 79.5713 41.5929 79.771 42.0977L78.766 42.4403C78.6365 42.1398 78.4242 41.8828 78.1543 41.6995C77.8801 41.5192 77.5585 41.4254 77.2309 41.4302C77.0065 41.4251 76.7835 41.4673 76.5763 41.554C76.3691 41.6407 76.1823 41.7701 76.0278 41.9338C75.8676 42.1 75.7421 42.2968 75.6586 42.5125C75.5751 42.7281 75.5352 42.9584 75.5413 43.1897C75.535 43.4203 75.5748 43.6497 75.6583 43.8644C75.7419 44.0792 75.8675 44.2749 76.0278 44.4399C76.1828 44.6026 76.3699 44.7311 76.577 44.8173C76.7841 44.9035 77.0067 44.9455 77.2309 44.9405C77.56 44.9459 77.8833 44.8532 78.1601 44.6741C78.434 44.4954 78.6457 44.2355 78.766 43.9305L79.771 44.273C79.5708 44.7768 79.2209 45.2062 78.7689 45.5026C78.3122 45.8028 77.7765 45.9588 77.2309 45.9506C76.8616 45.96 76.4943 45.8949 76.1505 45.7592C75.8068 45.6234 75.4937 45.4197 75.2296 45.1601Z" fill="white"/>
<path d="M82.9201 40.4171C83.4812 40.3936 84.0324 40.571 84.4756 40.9178C84.6794 41.0951 84.8396 41.3174 84.9437 41.5673C85.0478 41.8172 85.0929 42.0878 85.0757 42.3582V45.848H83.9891V44.431C83.6629 45.444 83.0094 45.9505 82.0287 45.9505C81.6109 45.9651 81.2034 45.8184 80.8898 45.5406C80.7391 45.4055 80.62 45.2386 80.541 45.0518C80.4619 44.8651 80.4248 44.6631 80.4324 44.4603C80.418 44.2342 80.461 44.0082 80.5573 43.8033C80.6536 43.5985 80.8 43.4216 80.983 43.2892C81.3999 43.01 81.8815 42.8436 82.3812 42.8061L83.4065 42.7007C83.7939 42.6656 83.9891 42.4929 83.9891 42.1796C83.9935 42.0611 83.9693 41.9433 83.9186 41.8362C83.8679 41.7292 83.7921 41.636 83.6978 41.5648C83.4733 41.4038 83.2014 41.3233 82.9259 41.3364C82.6315 41.3266 82.3419 41.4141 82.1015 41.5853C81.8705 41.764 81.7162 42.0249 81.6704 42.3143L80.5955 42.0537C80.6394 41.8133 80.7305 41.5841 80.8635 41.3795C80.9966 41.1749 81.1689 40.999 81.3704 40.8621C81.8302 40.5547 82.374 40.3992 82.9259 40.4171H82.9201ZM82.387 45.0663C82.5978 45.0707 82.8073 45.0328 83.0034 44.9549C83.1994 44.877 83.3781 44.7606 83.5289 44.6125C83.6755 44.4787 83.7928 44.3156 83.873 44.1336C83.9533 43.9516 83.9948 43.7547 83.9949 43.5556V43.2629C83.9193 43.3477 83.8262 43.4149 83.722 43.4599C83.6179 43.5049 83.5053 43.5266 83.392 43.5234L82.387 43.6493C82.1611 43.6694 81.9447 43.7503 81.7607 43.8835C81.6847 43.9407 81.6237 44.0156 81.5831 44.1019C81.5425 44.1881 81.5235 44.283 81.5277 44.3783C81.5249 44.4743 81.5446 44.5695 81.5851 44.6564C81.6255 44.7434 81.6857 44.8196 81.7607 44.879C81.9422 45.0113 82.1631 45.0774 82.387 45.0663Z" fill="white"/>
<path d="M92.4701 40.5256V45.8482H91.4943V40.7335L90.2505 45.8482H88.4677L87.2239 40.7335V45.8482H86.248V40.5256H88.1357L89.3591 45.5672L90.5825 40.5256H92.4701Z" fill="white"/>
<path d="M94.2921 45.1602C94.0285 44.9063 93.8206 44.5999 93.6817 44.2606C93.5427 43.9213 93.4758 43.5566 93.4852 43.1898C93.4763 42.8227 93.5434 42.4576 93.6823 42.1179C93.8213 41.7782 94.0289 41.4713 94.2921 41.2165C94.5549 40.9548 94.8677 40.7493 95.2116 40.6124C95.5556 40.4756 95.9236 40.4102 96.2933 40.4202C96.6631 40.4102 97.0311 40.4756 97.375 40.6124C97.719 40.7493 98.0318 40.9548 98.2946 41.2165C98.5582 41.4711 98.7663 41.778 98.9057 42.1177C99.0451 42.4574 99.1127 42.8225 99.1043 43.1898C99.1134 43.5568 99.046 43.9217 98.9066 44.261C98.7671 44.6003 98.5587 44.9066 98.2946 45.1602C98.0306 45.4199 97.7175 45.6237 97.3737 45.7595C97.03 45.8952 96.6626 45.9603 96.2933 45.9507C95.9241 45.9603 95.5567 45.8952 95.2129 45.7595C94.8692 45.6237 94.556 45.4199 94.2921 45.1602ZM95.0903 41.9397C94.9301 42.106 94.8046 42.3027 94.7211 42.5184C94.6375 42.7341 94.5977 42.9643 94.6038 43.1957C94.5975 43.4262 94.6372 43.6556 94.7208 43.8704C94.8044 44.0851 94.93 44.2808 95.0903 44.4458C95.2453 44.6085 95.4323 44.7371 95.6394 44.8232C95.8465 44.9094 96.0692 44.9514 96.2933 44.9464C96.5185 44.9524 96.7423 44.9109 96.9505 44.8247C97.1587 44.7385 97.3466 44.6094 97.5022 44.4458C97.6611 44.2801 97.7856 44.0842 97.8681 43.8695C97.9506 43.6548 97.9896 43.4257 97.9828 43.1957C97.9902 42.9642 97.9514 42.7337 97.8689 42.5175C97.7863 42.3013 97.6617 42.1039 97.5022 41.9367C97.3466 41.7731 97.1587 41.6441 96.9505 41.5579C96.7423 41.4716 96.5185 41.4302 96.2933 41.4361C96.069 41.431 95.846 41.4732 95.6388 41.5599C95.4316 41.6466 95.2447 41.776 95.0903 41.9397Z" fill="white"/>
<path d="M102.613 43.1809C103.038 43.2055 103.445 43.362 103.778 43.6288C103.9 43.7308 103.998 43.8583 104.065 44.0025C104.133 44.1466 104.168 44.3039 104.168 44.4632C104.168 44.6837 104.11 44.9002 103.999 45.0902C103.888 45.2802 103.728 45.4368 103.536 45.5436C103.061 45.8297 102.514 45.9711 101.96 45.9505C101.509 45.9526 101.062 45.8753 100.638 45.7222C100.248 45.5867 99.895 45.3622 99.6064 45.0664L100.206 44.3256C100.447 44.5511 100.732 44.7236 101.043 44.8321C101.336 44.9419 101.647 45.0003 101.96 45.0049C102.237 45.0206 102.513 44.9534 102.752 44.8116C102.84 44.7611 102.912 44.6886 102.963 44.6014C103.014 44.5142 103.042 44.4151 103.044 44.3139C103.044 43.8631 102.612 43.6376 101.747 43.6376H101.01V42.733H101.739C102.605 42.733 103.037 42.5065 103.035 42.0537C103.032 41.954 103.003 41.8568 102.952 41.7712C102.902 41.6857 102.83 41.6146 102.744 41.5648C102.507 41.4206 102.233 41.3513 101.957 41.3657C101.642 41.3708 101.33 41.4292 101.034 41.5385C100.724 41.6449 100.441 41.8177 100.204 42.0449L99.6035 41.3042C99.897 41.0088 100.254 40.7845 100.646 40.6484C101.067 40.4955 101.51 40.4182 101.957 40.4201C102.512 40.3989 103.061 40.5391 103.539 40.8241C103.73 40.9331 103.888 41.0911 103.998 41.282C104.108 41.4728 104.166 41.6897 104.165 41.9103C104.163 42.0676 104.127 42.2227 104.06 42.3648C103.993 42.5068 103.895 42.6324 103.775 42.733C103.441 42.9974 103.034 43.1536 102.61 43.1809" fill="white"/>
<path d="M107.418 40.4173C107.979 40.3942 108.53 40.5716 108.974 40.9179C109.177 41.0953 109.338 41.3175 109.442 41.5674C109.546 41.8173 109.591 42.088 109.574 42.3584V45.8482H108.484V44.4312C108.16 45.4442 107.507 45.9507 106.527 45.9507C106.108 45.9654 105.7 45.8188 105.385 45.5408C105.235 45.405 105.117 45.2379 105.038 45.0512C104.96 44.8646 104.923 44.663 104.93 44.4605C104.916 44.2347 104.959 44.009 105.055 43.8043C105.15 43.5996 105.296 43.4225 105.478 43.2894C105.896 43.0104 106.379 42.8441 106.879 42.8063L107.905 42.7009C108.292 42.6658 108.487 42.493 108.487 42.1798C108.491 42.0613 108.467 41.9436 108.416 41.8366C108.366 41.7295 108.29 41.6364 108.196 41.5649C107.971 41.4043 107.699 41.324 107.424 41.3366C107.129 41.3264 106.84 41.4138 106.6 41.5854C106.368 41.7642 106.214 42.025 106.168 42.3144L105.091 42.0539C105.134 41.8131 105.226 41.5835 105.359 41.3789C105.493 41.1742 105.666 40.9985 105.868 40.8623C106.328 40.5549 106.872 40.3993 107.424 40.4173H107.418ZM106.885 45.0665C107.095 45.0708 107.304 45.0329 107.5 44.9549C107.696 44.877 107.874 44.7607 108.024 44.6127C108.171 44.4792 108.289 44.3162 108.369 44.1341C108.449 43.952 108.49 43.755 108.49 43.5558V43.263C108.408 43.4006 108.199 43.4885 107.89 43.5236L106.885 43.6495C106.658 43.67 106.441 43.7509 106.256 43.8837C106.18 43.9408 106.119 44.0158 106.078 44.102C106.038 44.1883 106.019 44.2832 106.023 44.3785C106.02 44.4744 106.04 44.5697 106.08 44.6566C106.121 44.7435 106.181 44.8197 106.256 44.8791C106.439 45.011 106.66 45.077 106.885 45.0665Z" fill="white"/>
<path d="M111.836 45.8482H110.746V40.5256H111.836V42.7009H114.684V40.5256H115.774V45.8482H114.684V43.67H111.836V45.8482Z" fill="white"/>
<path d="M118.799 40.5195H121.529V45.848H120.439V43.9391H119.507L118.077 45.848H116.812L118.292 43.8776C117.916 43.7963 117.577 43.59 117.331 43.2921C117.087 42.9955 116.957 42.6201 116.967 42.2352C116.959 42.0047 117.002 41.7753 117.091 41.563C117.181 41.3506 117.315 41.1604 117.485 41.0055C117.849 40.6788 118.324 40.5066 118.811 40.5254L118.799 40.5195ZM118.863 42.973H120.451V41.4945H118.863C118.761 41.4912 118.658 41.5084 118.562 41.5451C118.466 41.5818 118.379 41.6372 118.304 41.7082C118.233 41.7774 118.176 41.8608 118.139 41.953C118.101 42.0453 118.083 42.1443 118.085 42.244C118.083 42.3415 118.101 42.4385 118.138 42.5284C118.176 42.6183 118.233 42.699 118.304 42.7651C118.379 42.8353 118.467 42.8898 118.563 42.9255C118.659 42.9612 118.761 42.9773 118.863 42.973Z" fill="white"/>
<path d="M125.278 45.8482H124.192V41.4918H122.365V40.5256H127.093V41.4918H125.278V45.8482Z" fill="white"/>
<path d="M130.41 45.848H127.934V40.5195H129.02V42.1971H130.41C130.937 42.1718 131.452 42.3558 131.846 42.7095C132.025 42.8759 132.166 43.0792 132.26 43.3056C132.354 43.5319 132.399 43.776 132.39 44.0211C132.399 44.2662 132.354 44.5103 132.26 44.7366C132.166 44.9629 132.025 45.1663 131.846 45.3327C131.452 45.6863 130.937 45.8704 130.41 45.8451V45.848ZM129.02 43.1662V44.876H130.284C130.541 44.8881 130.793 44.8024 130.989 44.6359C131.077 44.56 131.147 44.4655 131.194 44.3591C131.24 44.2528 131.263 44.1373 131.26 44.0211C131.263 43.9048 131.24 43.7894 131.194 43.683C131.147 43.5767 131.077 43.4822 130.989 43.4063C130.793 43.2398 130.541 43.1541 130.284 43.1662H129.02ZM133.972 45.8451H132.906V40.5195H133.995L133.972 45.8451Z" fill="white"/>
<path d="M138.724 40.5256H140L138.04 43.1723L140 45.8482H138.663L137.355 43.9423L136.03 45.8482H134.754L136.714 43.2133L134.754 40.5256H136.103L137.399 42.4316L138.724 40.5256Z" fill="white"/>
<path d="M62.2362 17.3203V10.7125H69.4924V45.9154H62.2362V27.8045C61.6012 29.9632 60.573 31.6808 59.1514 32.9573C57.777 34.2158 55.9769 34.9005 54.1178 34.872C51.3058 34.872 48.9755 33.6941 47.1267 31.3383C45.2779 28.9824 44.3555 26.0547 44.3594 22.5551C44.3594 19.0594 45.2818 16.1317 47.1267 13.7719C48.9716 11.4122 51.302 10.2352 54.1178 10.2411C55.9769 10.2126 57.777 10.8973 59.1514 12.1558C60.573 13.4323 61.6012 15.1489 62.2362 17.3057V17.3203ZM56.8385 28.2232C57.5601 28.2466 58.2785 28.1165 58.9467 27.8416C59.6148 27.5666 60.2176 27.1529 60.7157 26.6276C61.2233 26.0863 61.6191 25.4492 61.8801 24.7532C62.1411 24.0572 62.2622 23.316 62.2362 22.5727C62.2626 21.8288 62.1417 21.0871 61.8807 20.3905C61.6197 19.694 61.2237 19.0564 60.7157 18.5148C60.2173 17.9899 59.6144 17.5765 58.9464 17.3016C58.2783 17.0266 57.5601 16.8964 56.8385 16.9192C56.1734 16.915 55.5155 17.0578 54.9114 17.3376C54.3073 17.6174 53.7718 18.0273 53.343 18.5383C52.3623 19.6466 51.8411 21.0902 51.8865 22.5727C51.8414 24.0551 52.3626 25.4986 53.343 26.6071C53.7724 27.1172 54.308 27.5263 54.912 27.8056C55.516 28.0848 56.1737 28.2274 56.8385 28.2232Z" fill="#7FFF5D"/>
<path d="M37.5188 14.8873C36.2547 14.9001 35.0124 14.5562 33.933 13.8948V24.2941C33.955 24.8253 33.8623 25.3551 33.6611 25.8469C33.46 26.3386 33.1552 26.7807 32.7678 27.1428C31.9712 27.8651 30.9271 28.2492 29.8548 28.2143C28.6139 28.2143 27.6235 27.8571 26.8836 27.1428C26.5104 26.7726 26.2187 26.3277 26.0276 25.8369C25.8364 25.3462 25.7499 24.8206 25.7737 24.2941V10.7095H18.5117V24.2941C18.5117 27.417 19.5633 29.9622 21.6665 31.9296C23.7696 33.897 26.4981 34.8778 29.8519 34.872C33.1532 34.872 35.872 33.8912 38.0082 31.9296C40.1444 29.968 41.2124 27.4229 41.2124 24.2941V13.8392C40.1152 14.537 38.8405 14.901 37.5421 14.8873" fill="#7FFF5D"/>
<path d="M7.5384 10.7125V16.6382C7.85523 15.322 8.38464 14.067 9.10558 12.9229C9.75614 11.9334 10.4514 11.2571 11.1913 10.894C11.9358 10.5281 12.7442 10.3113 13.5712 10.2558C14.4133 10.1933 15.2572 10.3506 16.021 10.7125V17.5487C13.6032 16.606 11.5855 16.5084 9.96782 17.256C8.35015 18.0035 7.54132 19.3327 7.54132 21.2435V34.4183H0.279297V10.7037L7.5384 10.7125Z" fill="#7FFF5D"/>
<path d="M73.3712 4.32999C73.3667 3.76236 73.4774 3.19977 73.6968 2.6767C73.9162 2.15364 74.2396 1.68111 74.6471 1.28808C75.0401 0.878517 75.5125 0.554217 76.035 0.33518C76.5576 0.116144 77.1192 0.00701383 77.6853 0.014523C78.2514 0.0075326 78.8129 0.116898 79.3353 0.335904C79.8578 0.55491 80.3302 0.878935 80.7235 1.28808C81.1312 1.68373 81.4542 2.15894 81.6726 2.68455C81.891 3.21015 82.0002 3.77506 81.9936 4.34462C81.9956 4.90961 81.8842 5.4692 81.666 5.98988C81.4477 6.51056 81.1272 6.98161 80.7235 7.37481C80.3339 7.7907 79.8628 8.12092 79.3399 8.34466C78.817 8.56839 78.2536 8.68077 77.6853 8.67472C77.117 8.68131 76.5534 8.56916 76.0304 8.3454C75.5074 8.12163 75.0364 7.79112 74.6471 7.37481C74.2429 6.98202 73.922 6.51105 73.7037 5.99028C73.4854 5.46951 73.3743 4.90971 73.3771 4.34462L73.3712 4.32999ZM81.312 34.4299H74.0645V10.7153H81.3207L81.312 34.4299Z" fill="#7FFF5D"/>
</g>
<defs>
<clipPath id="clip0_10659_61876">
<rect width="140" height="48" fill="white"/>
</clipPath>
</defs>
</svg>
