<svg width="98" height="45" viewBox="0 0 98 45" fill="none" xmlns="http://www.w3.org/2000/svg">
<path d="M62.9927 4.38327C63.5135 4.38327 63.9358 3.96103 63.9358 3.44017C63.9358 2.91931 63.5135 2.49707 62.9927 2.49707C62.4718 2.49707 62.0496 2.91931 62.0496 3.44017C62.0496 3.96103 62.4718 4.38327 62.9927 4.38327Z" fill="white"/>
<path d="M60.4851 2.50778C61.006 2.50778 61.4282 2.08554 61.4282 1.56468C61.4282 1.04382 61.006 0.621582 60.4851 0.621582C59.9642 0.621582 59.542 1.04382 59.542 1.56468C59.542 2.08554 59.9642 2.50778 60.4851 2.50778Z" fill="white"/>
<path d="M57.977 1.8862C58.4979 1.8862 58.9201 1.46396 58.9201 0.943101C58.9201 0.422241 58.4979 0 57.977 0C57.4562 0 57.0339 0.422241 57.0339 0.943101C57.0339 1.46396 57.4562 1.8862 57.977 1.8862Z" fill="white"/>
<path d="M55.469 3.14011C55.9898 3.14011 56.4121 2.71787 56.4121 2.19701C56.4121 1.67615 55.9898 1.25391 55.469 1.25391C54.9481 1.25391 54.5259 1.67615 54.5259 2.19701C54.5259 2.71787 54.9481 3.14011 55.469 3.14011Z" fill="white"/>
<path d="M62.0498 3.43995V7.51243C62.0498 7.6839 61.9105 7.82322 61.739 7.82322C61.5675 7.82322 61.4282 7.6839 61.4282 7.51243V1.56446H59.5527V6.89084C59.5527 7.06231 59.4134 7.20163 59.2419 7.20163C59.0705 7.20163 58.9311 7.06231 58.9311 6.89084V0.942871H57.0342V6.89084C57.0342 7.06231 56.8949 7.20163 56.7234 7.20163C56.5519 7.20163 56.4126 7.06231 56.4126 6.89084V2.19677H54.5371V10.0202L53.2725 8.28406C52.8974 7.70533 52.1687 7.51243 51.6221 7.84466C51.0862 8.1876 50.9576 8.92708 51.322 9.5058C51.322 9.5058 53.369 12.603 54.2371 13.9212C55.1051 15.2394 56.5198 16.279 59.1669 16.279C63.5395 16.279 63.936 12.9031 63.936 11.8957C63.936 10.8883 63.936 3.43995 63.936 3.43995H62.0498Z" fill="white"/>
<path d="M59.1455 18.8187C57.4629 18.8187 55.9518 18.39 54.5908 17.5648V30.7146C54.5908 32.215 54.0978 33.4153 53.1225 34.3155C52.1473 35.2158 50.9041 35.6659 49.4037 35.6659C47.8283 35.6659 46.5744 35.2158 45.6313 34.3155C44.6882 33.4153 44.2167 32.215 44.2167 30.7146V13.5352H35V30.7039C35 34.6585 36.3396 37.8736 39.0082 40.3599C41.6767 42.8356 45.1491 44.0788 49.4037 44.0788C53.5941 44.0788 57.0343 42.8356 59.7457 40.3599C62.4571 37.8843 63.8074 34.6692 63.8074 30.7039V17.4897C62.4249 18.3685 60.871 18.8187 59.1455 18.8187Z" fill="#9DFF1E"/>
</svg>
