<svg width="180" height="62" viewBox="0 0 180 62" fill="none" xmlns="http://www.w3.org/2000/svg">
<g clip-path="url(#clip0_11328_76592)">
<path d="M109.458 38.8603C109.448 38.0504 109.6 37.2469 109.906 36.4981C110.212 35.7494 110.665 35.0709 111.237 34.5038C111.797 33.9128 112.472 33.4453 113.22 33.131C113.968 32.8166 114.772 32.6621 115.582 32.6773C116.387 32.6685 117.185 32.826 117.928 33.1401C118.67 33.4542 119.342 33.9183 119.9 34.5038C120.48 35.0669 120.939 35.744 121.25 36.4933C121.56 37.2426 121.715 38.0481 121.705 38.8603C121.709 39.667 121.551 40.4662 121.241 41.2096C120.93 41.9531 120.474 42.6255 119.9 43.1865C119.346 43.7797 118.676 44.2508 117.933 44.5703C117.19 44.8899 116.389 45.0509 115.582 45.0433C114.775 45.0513 113.975 44.8904 113.232 44.5709C112.49 44.2513 111.821 43.7799 111.267 43.1865C110.692 42.6262 110.235 41.954 109.924 41.2105C109.613 40.4669 109.455 39.6674 109.458 38.8603Z" fill="white"/>
<path d="M135.997 13.8372V21.4912C136.405 19.7919 137.084 18.1711 138.008 16.6923C138.845 15.4141 139.739 14.5406 140.69 14.0716C141.647 13.5989 142.687 13.3189 143.75 13.2472C144.833 13.1665 145.918 13.3698 146.9 13.8372V22.6673C143.791 21.4496 141.197 21.3236 139.117 22.2891C137.037 23.2547 135.997 24.9716 135.997 27.4397V44.4571H126.664V13.8258L135.997 13.8372Z" fill="white"/>
<path d="M150.109 31.3799V13.8369H159.439V31.3799C159.408 32.06 159.519 32.7389 159.765 33.3728C160.011 34.0066 160.386 34.5813 160.866 35.0595C161.817 35.9822 163.09 36.4436 164.686 36.4436C166.065 36.4894 167.407 35.9932 168.431 35.0595C168.929 34.5918 169.321 34.0208 169.58 33.3856C169.838 32.7504 169.957 32.0661 169.929 31.3799V13.8369H179.262V31.3799C179.262 35.4137 177.889 38.7012 175.142 41.2425C172.396 43.7837 168.9 45.0506 164.656 45.043C160.341 45.043 156.833 43.7762 154.132 41.2425C151.43 38.7088 150.079 35.4213 150.079 31.3799" fill="white"/>
<path d="M40.2239 8.74308C40.1593 9.05913 40.2213 9.38814 40.3962 9.65824L42.7407 13.247C44.2388 15.5614 45.3848 16.5446 48.2537 16.5446C49.0439 16.5446 52.9839 16.3328 52.9839 12.1579V3.88367C52.9829 3.6543 52.8923 3.43461 52.7316 3.27242C52.571 3.11023 52.3534 3.01867 52.1263 3.01767C51.8985 3.01767 51.6799 3.10879 51.5184 3.27109C51.357 3.43339 51.2658 3.65364 51.2648 3.88367V7.66531C51.2648 7.77463 51.2218 7.87948 51.1453 7.95678C51.0687 8.03408 50.9649 8.07751 50.8566 8.07751C50.7484 8.07751 50.6445 8.03408 50.568 7.95678C50.4914 7.87948 50.4484 7.77463 50.4484 7.66531V2.27269C50.4474 2.04332 50.3567 1.82363 50.1961 1.66144C50.0355 1.49925 49.8179 1.40769 49.5907 1.4067C49.3633 1.4067 49.1451 1.49793 48.9843 1.66034C48.8234 1.82274 48.7331 2.04301 48.7331 2.27269V7.02621C48.7321 7.13588 48.6882 7.24072 48.6111 7.31791C48.5339 7.39511 48.4297 7.43842 48.3211 7.43841C48.2128 7.43841 48.109 7.39498 48.0324 7.31768C47.9559 7.24038 47.9129 7.13553 47.9129 7.02621V1.66385C47.9119 1.43448 47.8212 1.21478 47.6606 1.05259C47.4999 0.890404 47.2824 0.798847 47.0552 0.797852C46.8274 0.797849 46.6089 0.888963 46.4474 1.05126C46.286 1.21356 46.1948 1.43382 46.1938 1.66385V7.05646C46.1938 7.16579 46.1508 7.27063 46.0742 7.34793C45.9977 7.42524 45.8938 7.46867 45.7856 7.46867C45.6773 7.46867 45.5734 7.42524 45.4969 7.34793C45.4203 7.27063 45.3773 7.16579 45.3773 7.05646V2.94582C45.3773 2.7158 45.2871 2.49514 45.1263 2.33213C44.9656 2.16912 44.7475 2.07704 44.5197 2.07604C44.2912 2.07604 44.0721 2.16768 43.9106 2.3308C43.749 2.49391 43.6583 2.71514 43.6583 2.94582V10.5431L42.2126 8.53887C42.0587 8.28043 41.8121 8.09183 41.524 8.01224C41.236 7.93266 40.9286 7.96823 40.6658 8.11155C40.553 8.18479 40.4558 8.28006 40.3799 8.39175C40.304 8.50345 40.251 8.62932 40.2239 8.76199" fill="white"/>
<path d="M4.10479 52.2923C4.52518 52.2858 4.94159 52.3752 5.32293 52.554C5.70427 52.7327 6.04067 52.9962 6.30699 53.3247C6.90091 54.0361 7.21426 54.9435 7.18712 55.8735C7.21333 56.8023 6.90004 57.7082 6.30699 58.4186C6.03903 58.7444 5.70203 59.0053 5.32087 59.182C4.93972 59.3587 4.52415 59.4467 4.10479 59.4396C3.4994 59.4498 2.90919 59.248 2.43441 58.8686C1.94457 58.4657 1.5847 57.9246 1.40072 57.3143V61.996H0V52.4285H1.40072V54.4214C1.5847 53.8111 1.94457 53.27 2.43441 52.8671C2.90868 52.4864 3.49894 52.2833 4.10479 52.2923ZM3.64039 58.135C3.92203 58.1413 4.2017 58.0862 4.46027 57.9733C4.71884 57.8603 4.9502 57.6923 5.13848 57.4807C5.54178 57.0462 5.7597 56.4689 5.74521 55.8735C5.76368 55.273 5.54548 54.6895 5.13848 54.2512C4.94955 54.0407 4.71797 53.8737 4.4595 53.7614C4.20102 53.6492 3.92168 53.5944 3.64039 53.6008C3.34296 53.5915 3.04683 53.6441 2.77041 53.7554C2.494 53.8666 2.2432 54.0341 2.03366 54.2474C1.82435 54.4609 1.66029 54.7152 1.55147 54.9947C1.44265 55.2743 1.39136 55.5733 1.40072 55.8735C1.39202 56.172 1.44365 56.4691 1.55248 56.7467C1.6613 57.0244 1.82503 57.2767 2.03366 57.4883C2.2432 57.7016 2.494 57.8691 2.77041 57.9804C3.04683 58.0916 3.34296 58.1443 3.64039 58.135Z" fill="white"/>
<path d="M11.292 52.2925C12.0134 52.2628 12.7219 52.4919 13.292 52.9392C13.5534 53.1678 13.7591 53.4544 13.8929 53.7764C14.0267 54.0985 14.0851 54.4474 14.0635 54.796V59.3075H12.6628V57.4771C12.2483 58.7856 11.4094 59.4398 10.146 59.4398C9.60763 59.4588 9.08243 59.2694 8.67781 58.9104C8.48543 58.735 8.33345 58.5191 8.23251 58.2781C8.13158 58.037 8.08414 57.7765 8.09355 57.515C8.07535 57.2234 8.13035 56.9319 8.25343 56.6674C8.37651 56.403 8.5637 56.1742 8.79766 56.0023C9.33031 55.6407 9.94484 55.4209 10.5841 55.3632L11.9025 55.2309C12.4006 55.1855 12.6515 54.9624 12.6515 54.5577C12.6569 54.4047 12.6256 54.2526 12.5604 54.1144C12.4952 53.9762 12.398 53.8558 12.277 53.7636C11.9881 53.5561 11.6387 53.4523 11.2845 53.4686C10.9058 53.4554 10.5334 53.5684 10.2246 53.79C9.92755 54.021 9.72923 54.3579 9.67031 54.7317L8.28457 54.3951C8.34041 54.0839 8.45773 53.7873 8.62953 53.5229C8.80133 53.2584 9.02411 53.0316 9.28456 52.856C9.87553 52.4585 10.5748 52.2575 11.2845 52.2812L11.292 52.2925ZM10.5841 58.2978C10.8602 58.3079 11.1354 58.2612 11.393 58.1604C11.6505 58.0596 11.8851 57.9069 12.0822 57.7116C12.2712 57.5391 12.4221 57.3284 12.5254 57.0932C12.6286 56.8581 12.6818 56.6037 12.6815 56.3464V55.9683C12.5766 56.146 12.307 56.2595 11.91 56.3048L10.6179 56.4675C10.3264 56.494 10.0471 56.5984 9.80888 56.77C9.71115 56.8438 9.63278 56.9406 9.58056 57.052C9.52835 57.1634 9.50386 57.286 9.50927 57.4091C9.50575 57.533 9.53103 57.656 9.58306 57.7683C9.63508 57.8806 9.71242 57.979 9.80888 58.0557C10.0439 58.2261 10.3289 58.3114 10.6179 58.2978" fill="white"/>
<path d="M19.4079 52.5649C19.8185 52.558 20.2257 52.6418 20.6009 52.8103C20.9761 52.9788 21.3103 53.228 21.5802 53.5405C22.1683 54.191 22.4838 55.0463 22.4603 55.9268C22.4729 56.3935 22.3891 56.8578 22.2144 57.2901C22.0397 57.7223 21.7778 58.1132 21.4453 58.4378C21.1122 58.7688 20.7161 59.0282 20.281 59.2005C19.8459 59.3727 19.3807 59.4541 18.9136 59.4399C18.4373 59.4526 17.9635 59.3658 17.522 59.1849C17.0805 59.004 16.6809 58.7329 16.3481 58.3886C16.0012 58.0165 15.7321 57.5775 15.5571 57.098C15.3821 56.6185 15.3046 56.1082 15.3294 55.5978C15.2846 54.394 15.4676 53.1927 15.8687 52.0581C16.1756 51.2318 16.784 50.5553 17.569 50.1673C18.2673 49.8706 19.0059 49.6819 19.76 49.6076C20.5082 49.52 21.2501 49.3836 21.9809 49.1992V50.4888C21.3479 50.662 20.7033 50.7884 20.0521 50.8669C19.4115 50.9245 18.7815 51.0695 18.1795 51.298C17.3006 51.7115 16.8349 52.793 16.7825 54.5427C16.9546 54.0044 17.2803 53.5295 17.7188 53.1775C18.1836 52.7729 18.7794 52.5549 19.393 52.5649H19.4079ZM17.393 57.5226C17.588 57.7227 17.8215 57.8803 18.0792 57.9857C18.3368 58.091 18.6132 58.1419 18.8911 58.1352C19.1691 58.1426 19.4456 58.092 19.7034 57.9866C19.9611 57.8812 20.1946 57.7232 20.3892 57.5226C20.5861 57.325 20.7412 57.089 20.8448 56.8289C20.9485 56.5689 20.9986 56.2902 20.9922 56.01C20.9998 55.7268 20.9511 55.445 20.8488 55.1812C20.7465 54.9175 20.5927 54.6772 20.3967 54.4746C20.2121 54.2748 19.9881 54.1164 19.7391 54.0095C19.49 53.9027 19.2216 53.8498 18.951 53.8544C18.6638 53.8448 18.3776 53.8941 18.1098 53.9994C17.842 54.1047 17.5981 54.2638 17.393 54.467C17.1905 54.6673 17.0313 54.9079 16.9256 55.1734C16.8198 55.439 16.7699 55.7239 16.7788 56.01C16.7716 56.29 16.821 56.5685 16.9241 56.8286C17.0271 57.0887 17.1816 57.3248 17.378 57.5226" fill="white"/>
<path d="M24.5539 58.4189C24.2143 58.0913 23.9463 57.6957 23.767 57.2575C23.5877 56.8192 23.5011 56.3479 23.5127 55.8739C23.5019 55.3994 23.5889 54.9278 23.7681 54.489C23.9474 54.0503 24.2149 53.6539 24.5539 53.325C24.8915 52.9865 25.2935 52.7205 25.7357 52.543C26.1779 52.3656 26.6511 52.2804 27.1268 52.2927C27.6019 52.2807 28.0745 52.3661 28.5161 52.5435C28.9576 52.7209 29.359 52.9868 29.6961 53.325C30.0361 53.6531 30.3044 54.0493 30.4837 54.4882C30.663 54.9272 30.7494 55.3992 30.7373 55.8739C30.7474 56.3488 30.6591 56.8205 30.4778 57.2589C30.2965 57.6972 30.0264 58.0923 29.6848 58.4189C29.3461 58.7541 28.9441 59.0172 28.5028 59.1925C28.0614 59.3679 27.5897 59.4521 27.1156 59.44C26.6409 59.4524 26.1685 59.3684 25.7265 59.193C25.2845 59.0176 24.882 58.7544 24.5426 58.4189H24.5539ZM25.5688 54.2591C25.3622 54.4734 25.2004 54.7274 25.0929 55.0061C24.9855 55.2848 24.9346 55.5825 24.9434 55.8814C24.9349 56.1777 24.9855 56.4728 25.0923 56.7489C25.1992 57.025 25.3599 57.2766 25.5651 57.4886C25.7643 57.699 26.0047 57.8651 26.271 57.9765C26.5373 58.0878 26.8237 58.1419 27.1119 58.1353C27.4007 58.1431 27.688 58.0896 27.9551 57.9782C28.2222 57.8668 28.4632 57.7 28.6624 57.4886C28.8679 57.2753 29.0289 57.0224 29.1357 56.745C29.2425 56.4676 29.293 56.1714 29.2841 55.8739C29.2936 55.5746 29.2435 55.2764 29.1367 54.9971C29.0299 54.7178 28.8686 54.4629 28.6624 54.2478C28.4632 54.0364 28.2222 53.8696 27.9551 53.7582C27.688 53.6468 27.4007 53.5933 27.1119 53.6011C26.8233 53.5943 26.5366 53.6486 26.2701 53.7607C26.0037 53.8727 25.7635 54.0399 25.5651 54.2515" fill="white"/>
<path d="M34.9094 59.3072H33.5124V53.6801H31.1641V52.4321H37.2427V53.6801H34.9094V59.3072Z" fill="white"/>
<path d="M40.8008 52.2928C41.5223 52.262 42.2311 52.4912 42.8007 52.9394C43.0628 53.1677 43.2692 53.4541 43.4037 53.7762C43.5382 54.0982 43.5971 54.4473 43.5759 54.7962V59.3077H42.1752V57.4774C41.7558 58.7859 40.9156 59.4401 39.6547 59.4401C39.1175 59.4589 38.5936 59.2694 38.1903 58.9106C37.9966 58.7361 37.8435 58.5205 37.7419 58.2793C37.6402 58.0381 37.5926 57.7772 37.6023 57.5152C37.5838 57.2232 37.6391 56.9312 37.7629 56.6666C37.8867 56.4021 38.075 56.1736 38.3102 56.0026C38.8472 55.6432 39.4657 55.4272 40.1078 55.3748L41.4299 55.2425C41.928 55.1971 42.179 54.974 42.179 54.5693C42.1846 54.4163 42.1535 54.2641 42.0883 54.1258C42.0231 53.9875 41.9257 53.8672 41.8045 53.7752C41.516 53.5667 41.1663 53.4627 40.812 53.4802C40.4345 53.4676 40.0635 53.5805 39.7558 53.8017C39.4564 54.0304 39.2575 54.3684 39.2015 54.7433L37.8158 54.4067C37.8716 54.096 37.9885 53.7997 38.1596 53.5353C38.3307 53.271 38.5525 53.0439 38.812 52.8676C39.4032 52.4705 40.1023 52.2696 40.812 52.2928H40.8008ZM40.1191 58.298C40.3902 58.3041 40.6597 58.2553 40.9118 58.1547C41.1639 58.054 41.3936 57.9035 41.5872 57.7119C41.7755 57.5387 41.9259 57.328 42.0291 57.0929C42.1322 56.8579 42.1858 56.6038 42.1865 56.3467V55.9685C42.0895 56.0785 41.9698 56.1656 41.8359 56.2238C41.7019 56.2819 41.557 56.3097 41.4112 56.3051L40.1191 56.4677C39.8286 56.4936 39.5504 56.5981 39.3139 56.7702C39.2161 56.8441 39.1378 56.9409 39.0855 57.0523C39.0333 57.1636 39.0088 57.2862 39.0142 57.4093C39.0107 57.5333 39.036 57.6563 39.0881 57.7686C39.1401 57.8809 39.2174 57.9793 39.3139 58.056C39.5472 58.2269 39.8312 58.3123 40.1191 58.298Z" fill="white"/>
<path d="M55.4896 52.4287V58.0558H56.4221V61.2588H55.0926V59.3075H49.7481V61.2588H48.4111V58.0558H49.1601C49.4505 57.7156 49.664 57.3155 49.7856 56.8835C49.9239 56.2288 49.9817 55.5595 49.9579 54.8906V52.4287H55.4896ZM50.6208 58.0558H54.0739V53.6804H51.2724V54.8906C51.2887 55.5669 51.2398 56.2432 51.1264 56.91C51.0495 57.3233 50.8762 57.7122 50.6208 58.0444" fill="white"/>
<path d="M56.9837 59.4133H56.8751V58.1502H57.0511C57.3087 58.1654 57.566 58.116 57.8001 58.0065C58.0096 57.8535 58.1519 57.6244 58.1971 57.3674C58.3169 56.8727 58.3673 56.3636 58.347 55.8547V52.4097H63.9985V59.2885H62.5978V53.6614H59.6465V55.8547C59.6465 57.1153 59.4468 58.0191 59.0473 58.5662C58.6478 59.1132 57.9549 59.3893 56.9687 59.3944" fill="white"/>
<path d="M67.8862 52.4287H71.3955V59.3075H69.9948V56.8419H68.7813L66.9424 59.3075H65.317L67.2196 56.7625C66.7353 56.6574 66.3 56.391 65.9837 56.0061C65.6696 55.623 65.5033 55.1382 65.5155 54.641C65.5059 54.3432 65.5605 54.047 65.6756 53.7727C65.7907 53.4984 65.9636 53.2528 66.1821 53.0527C66.6494 52.6313 67.2601 52.409 67.8862 52.4325V52.4287ZM67.9537 55.5939H69.9948V53.7031H67.9537C67.8217 53.6989 67.6902 53.7212 67.5667 53.7685C67.4433 53.8159 67.3304 53.8875 67.2345 53.9792C67.1429 54.0686 67.0705 54.1763 67.0222 54.2954C66.9738 54.4146 66.9505 54.5425 66.9537 54.6712C66.9506 54.7971 66.974 54.9222 67.0225 55.0383C67.0709 55.1543 67.1432 55.2587 67.2345 55.3444C67.3308 55.435 67.4439 55.5054 67.5674 55.5515C67.6908 55.5976 67.8221 55.6185 67.9537 55.6129" fill="white"/>
<path d="M96.7245 58.3317C96.3856 58.0038 96.1183 57.608 95.9396 57.1698C95.761 56.7315 95.6749 56.2604 95.687 55.7866C95.6756 55.3124 95.7619 54.8409 95.9404 54.4021C96.119 53.9634 96.386 53.5669 96.7245 53.2378C97.0626 52.9001 97.4648 52.6349 97.9069 52.4582C98.3491 52.2814 98.8221 52.1967 99.2975 52.2092C99.9984 52.1991 100.687 52.3991 101.275 52.784C101.857 53.1679 102.307 53.724 102.563 54.3761L101.271 54.8185C101.105 54.4305 100.832 54.0985 100.485 53.8618C100.132 53.6289 99.7187 53.5077 99.2975 53.5139C99.009 53.5073 98.7223 53.5618 98.4559 53.6738C98.1895 53.7858 97.9493 53.9529 97.7507 54.1643C97.5447 54.3791 97.3834 54.6332 97.276 54.9118C97.1686 55.1904 97.1173 55.4878 97.1252 55.7866C97.117 56.0844 97.1682 56.3807 97.2757 56.6581C97.3831 56.9355 97.5446 57.1883 97.7507 57.4014C97.95 57.6116 98.1905 57.7776 98.4567 57.8889C98.723 58.0002 99.0093 58.0544 99.2975 58.0481C99.7206 58.055 100.136 57.9353 100.492 57.7039C100.844 57.4732 101.117 57.1375 101.271 56.7434L102.563 57.1859C102.306 57.8366 101.856 58.3912 101.275 58.7741C100.688 59.1619 99.999 59.3634 99.2975 59.3527C98.8228 59.3649 98.3504 59.2808 97.9085 59.1055C97.4665 58.9301 97.0639 58.667 96.7245 58.3317Z" fill="white"/>
<path d="M106.612 52.2053C107.333 52.1749 108.042 52.4041 108.612 52.852C108.874 53.081 109.08 53.3682 109.214 53.6909C109.348 54.0137 109.406 54.3633 109.384 54.7125V59.2203H107.987V57.3899C107.567 58.6984 106.727 59.3526 105.466 59.3526C104.929 59.3714 104.405 59.182 104.002 58.8232C103.808 58.6486 103.655 58.433 103.553 58.1918C103.452 57.9506 103.404 57.6897 103.414 57.4278C103.395 57.1357 103.45 56.8438 103.574 56.5792C103.698 56.3146 103.886 56.0861 104.121 55.9151C104.658 55.5545 105.277 55.3396 105.919 55.2911L107.237 55.155C107.736 55.1096 107.987 54.8865 107.987 54.4819C107.992 54.3288 107.961 54.1766 107.896 54.0383C107.831 53.9001 107.733 53.7798 107.612 53.6877C107.323 53.4798 106.974 53.3759 106.62 53.3928C106.241 53.3801 105.869 53.493 105.56 53.7142C105.263 53.9451 105.064 54.282 105.005 54.6558L103.623 54.3193C103.68 54.0087 103.797 53.7127 103.968 53.4484C104.139 53.1841 104.36 52.9569 104.62 52.7801C105.211 52.3831 105.91 52.1821 106.62 52.2053H106.612ZM105.927 58.2106C106.198 58.2162 106.467 58.1672 106.719 58.0666C106.971 57.966 107.201 57.8156 107.395 57.6244C107.583 57.4516 107.734 57.2408 107.837 57.0058C107.94 56.7707 107.994 56.5164 107.994 56.2592V55.8811C107.897 55.9906 107.777 56.0775 107.643 56.1356C107.509 56.1937 107.364 56.2217 107.219 56.2176L105.927 56.3802C105.636 56.4062 105.358 56.5107 105.121 56.6828C105.024 56.7566 104.945 56.8534 104.893 56.9648C104.841 57.0762 104.816 57.1988 104.822 57.3219C104.818 57.4458 104.844 57.5688 104.896 57.6811C104.948 57.7934 105.025 57.8918 105.121 57.9685C105.355 58.1394 105.639 58.2248 105.927 58.2106Z" fill="white"/>
<path d="M118.889 52.3457V59.2207H117.634V52.6142L116.035 59.2207H113.743L112.144 52.6142V59.2207H110.889V52.3457H113.316L114.889 58.8577L116.462 52.3457H118.889Z" fill="white"/>
<path d="M121.233 58.3318C120.895 58.0039 120.627 57.6081 120.449 57.1699C120.27 56.7316 120.184 56.2605 120.196 55.7867C120.185 55.3125 120.271 54.841 120.449 54.4022C120.628 53.9634 120.895 53.5669 121.233 53.2379C121.571 52.8998 121.973 52.6344 122.416 52.4576C122.858 52.2808 123.331 52.1964 123.806 52.2093C124.282 52.1964 124.755 52.2808 125.197 52.4576C125.639 52.6344 126.042 52.8998 126.379 53.2379C126.718 53.5668 126.986 53.9631 127.165 54.4019C127.344 54.8407 127.431 55.3122 127.421 55.7867C127.432 56.2608 127.346 56.732 127.166 57.1703C126.987 57.6086 126.719 58.0042 126.379 58.3318C126.04 58.6672 125.638 58.9305 125.196 59.1058C124.754 59.2812 124.281 59.3652 123.806 59.3528C123.332 59.3652 122.859 59.2812 122.417 59.1058C121.975 58.9305 121.573 58.6672 121.233 58.3318ZM122.26 54.172C122.054 54.3868 121.892 54.6409 121.785 54.9195C121.678 55.198 121.626 55.4955 121.634 55.7943C121.626 56.092 121.677 56.3884 121.785 56.6658C121.892 56.9432 122.054 57.1959 122.26 57.4091C122.459 57.6192 122.699 57.7852 122.966 57.8966C123.232 58.0079 123.518 58.0621 123.806 58.0557C124.096 58.0634 124.384 58.0098 124.651 57.8984C124.919 57.7871 125.161 57.6204 125.361 57.4091C125.565 57.195 125.725 56.942 125.831 56.6647C125.937 56.3874 125.987 56.0914 125.979 55.7943C125.988 55.4954 125.938 55.1975 125.832 54.9183C125.726 54.6391 125.566 54.384 125.361 54.1682C125.161 53.9569 124.919 53.7902 124.651 53.6788C124.384 53.5674 124.096 53.5139 123.806 53.5215C123.518 53.5149 123.231 53.5694 122.965 53.6814C122.699 53.7935 122.458 53.9605 122.26 54.172Z" fill="white"/>
<path d="M131.93 55.7753C132.476 55.8072 133 56.0093 133.428 56.3539C133.585 56.4856 133.711 56.6503 133.797 56.8365C133.884 57.0228 133.929 57.2259 133.93 57.4317C133.93 57.7164 133.855 57.9961 133.712 58.2415C133.569 58.4869 133.364 58.6892 133.117 58.8271C132.506 59.1967 131.802 59.3793 131.091 59.3528C130.511 59.3554 129.936 59.2556 129.391 59.0578C128.89 58.8829 128.436 58.5929 128.065 58.2107L128.836 57.254C129.146 57.5452 129.512 57.768 129.911 57.9082C130.289 58.0499 130.688 58.1254 131.091 58.1313C131.447 58.1517 131.802 58.0648 132.11 57.8817C132.222 57.8164 132.315 57.7228 132.381 57.6101C132.446 57.4975 132.482 57.3695 132.484 57.2388C132.484 56.6565 131.929 56.3653 130.818 56.3653H129.87V55.1967H130.806C131.92 55.1967 132.475 54.9043 132.473 54.3194C132.469 54.1906 132.432 54.065 132.367 53.9545C132.301 53.844 132.209 53.7522 132.098 53.6879C131.794 53.5016 131.442 53.412 131.087 53.4307C130.682 53.4373 130.28 53.5127 129.9 53.6538C129.501 53.7914 129.137 54.0146 128.833 54.3081L128.061 53.3513C128.438 52.9697 128.897 52.68 129.402 52.5042C129.942 52.3067 130.513 52.2069 131.087 52.2092C131.801 52.1819 132.507 52.3631 133.121 52.7311C133.366 52.8719 133.57 53.076 133.712 53.3226C133.853 53.5691 133.927 53.8492 133.926 54.1341C133.924 54.3374 133.878 54.5377 133.791 54.7211C133.704 54.9046 133.579 55.0669 133.424 55.1967C132.994 55.5384 132.472 55.7401 131.926 55.7753" fill="white"/>
<path d="M138.11 52.2057C138.831 52.176 139.539 52.405 140.11 52.8524C140.372 53.0814 140.577 53.3686 140.711 53.6913C140.845 54.0141 140.903 54.3637 140.881 54.7129V59.2206H139.48V57.3903C139.063 58.6988 138.224 59.353 136.964 59.353C136.425 59.372 135.9 59.1826 135.495 58.8236C135.303 58.6482 135.151 58.4323 135.05 58.1912C134.949 57.9502 134.902 57.6897 134.911 57.4281C134.893 57.1365 134.948 56.845 135.071 56.5806C135.194 56.3162 135.381 56.0874 135.615 55.9155C136.153 55.5552 136.773 55.3403 137.417 55.2915L138.735 55.1554C139.233 55.11 139.484 54.8869 139.484 54.4822C139.489 54.3292 139.458 54.1772 139.393 54.0389C139.328 53.9007 139.231 53.7804 139.11 53.6881C138.821 53.4807 138.471 53.3768 138.117 53.3931C137.738 53.3799 137.366 53.4929 137.057 53.7146C136.76 53.9455 136.562 54.2824 136.503 54.6562L135.117 54.3196C135.173 54.0086 135.291 53.7121 135.463 53.4477C135.634 53.1834 135.857 52.9565 136.117 52.7805C136.708 52.3835 137.407 52.1825 138.117 52.2057H138.11ZM137.424 58.2109C137.695 58.2165 137.963 58.1675 138.215 58.0668C138.466 57.9662 138.695 57.8159 138.889 57.6248C139.078 57.4524 139.229 57.2418 139.332 57.0066C139.435 56.7714 139.488 56.5169 139.488 56.2596V55.8815C139.383 56.0592 139.113 56.1726 138.716 56.218L137.424 56.3806C137.133 56.4072 136.853 56.5116 136.615 56.6832C136.517 56.757 136.439 56.8538 136.387 56.9652C136.335 57.0766 136.31 57.1991 136.316 57.3223C136.312 57.4462 136.337 57.5692 136.389 57.6815C136.441 57.7938 136.519 57.8922 136.615 57.9689C136.85 58.1393 137.135 58.2245 137.424 58.2109Z" fill="white"/>
<path d="M143.787 59.2207H142.387V52.3457H143.787V55.1555H147.45V52.3457H148.851V59.2207H147.45V56.4072H143.787V59.2207Z" fill="white"/>
<path d="M152.742 52.3379H156.251V59.2205H154.851V56.7549H153.652L151.813 59.2205H150.188L152.09 56.6754C151.606 56.5703 151.171 56.304 150.855 55.9191C150.54 55.536 150.374 55.0511 150.386 54.5539C150.377 54.2562 150.431 53.9599 150.547 53.6857C150.662 53.4114 150.835 53.1657 151.053 52.9656C151.52 52.5436 152.131 52.3212 152.757 52.3455L152.742 52.3379ZM152.825 55.5069H154.866V53.5972H152.825C152.693 53.593 152.561 53.6152 152.438 53.6626C152.314 53.71 152.201 53.7816 152.105 53.8732C152.014 53.9627 151.941 54.0704 151.893 54.1895C151.845 54.3086 151.821 54.4366 151.825 54.5653C151.821 54.6912 151.844 54.8165 151.893 54.9326C151.941 55.0487 152.014 55.153 152.105 55.2384C152.202 55.3291 152.315 55.3995 152.438 55.4456C152.562 55.4917 152.693 55.5125 152.825 55.5069Z" fill="white"/>
<path d="M161.072 59.2207H159.675V53.5936H157.326V52.3457H163.405V53.5936H161.072V59.2207Z" fill="white"/>
<path d="M167.671 59.2205H164.487V52.3379H165.884V54.5048H167.671C168.348 54.4721 169.011 54.7098 169.517 55.1666C169.747 55.3816 169.929 55.6442 170.05 55.9365C170.171 56.2289 170.228 56.5441 170.217 56.8607C170.228 57.1774 170.171 57.4926 170.05 57.7849C169.929 58.0773 169.747 58.3399 169.517 58.5549C169.011 59.0117 168.348 59.2494 167.671 59.2167V59.2205ZM165.884 55.7565V57.965H167.51C167.84 57.9806 168.163 57.8699 168.416 57.6549C168.529 57.5568 168.618 57.4347 168.679 57.2974C168.739 57.16 168.768 57.0109 168.764 56.8607C168.768 56.7106 168.739 56.5614 168.679 56.4241C168.618 56.2867 168.529 56.1646 168.416 56.0666C168.163 55.8516 167.84 55.7408 167.51 55.7565H165.884ZM172.251 59.2167H170.88V52.3379H172.281L172.251 59.2167Z" fill="white"/>
<path d="M178.36 52.3457H180L177.479 55.7643L180 59.2207H178.281L176.599 56.7589L174.895 59.2207H173.255L175.775 55.8173L173.255 52.3457H174.989L176.656 54.8076L178.36 52.3457Z" fill="white"/>
<path d="M80.017 22.3722V13.837H89.3465V59.3074H80.017V35.9142C79.2006 38.7026 77.8785 40.9211 76.0509 42.5699C74.2837 44.1955 71.9694 45.0799 69.5791 45.0431C65.9637 45.0431 62.9675 43.5216 60.5905 40.4787C58.2135 37.4357 57.0275 33.6541 57.0325 29.1337C57.0325 24.6185 58.2185 20.8368 60.5905 17.7888C62.9625 14.7408 65.9587 13.2206 69.5791 13.2282C71.9694 13.1913 74.2837 14.0757 76.0509 15.7013C77.8785 17.3501 79.2006 19.5674 80.017 22.3533V22.3722ZM73.0771 36.455C74.0049 36.4852 74.9286 36.3173 75.7876 35.9621C76.6466 35.6069 77.4217 35.0726 78.062 34.394C78.7147 33.6949 79.2236 32.872 79.5592 31.973C79.8948 31.0739 80.0504 30.1166 80.017 29.1564C80.0509 28.1956 79.8955 27.2376 79.5599 26.3379C79.2243 25.4381 78.7152 24.6146 78.062 23.9151C77.4213 23.2371 76.6461 22.7031 75.7872 22.348C74.9283 21.9928 74.0048 21.8245 73.0771 21.8541C72.2219 21.8486 71.376 22.0331 70.5994 22.3945C69.8227 22.7559 69.1343 23.2853 68.5828 23.9453C67.322 25.3769 66.6519 27.2416 66.7102 29.1564C66.6523 31.0712 67.3223 32.9358 68.5828 34.3675C69.1349 35.0264 69.8236 35.5549 70.6002 35.9156C71.3768 36.2763 72.2223 36.4604 73.0771 36.455Z" fill="#7FFF5D"/>
<path d="M48.2386 19.2294C46.6133 19.2459 45.016 18.8018 43.6282 17.9474V31.3798C43.6566 32.066 43.5374 32.7503 43.2788 33.3855C43.0201 34.0207 42.6283 34.5917 42.1301 35.0594C41.106 35.9924 39.7636 36.4885 38.3849 36.4434C36.7894 36.4434 35.5161 35.9821 34.5648 35.0594C34.0849 34.5812 33.71 34.0065 33.4642 33.3727C33.2183 32.7388 33.1072 32.0599 33.1378 31.3798V13.833H23.8009V31.3798C23.8009 35.4136 25.153 38.7011 27.857 41.2423C30.5611 43.7836 34.0691 45.0505 38.3811 45.0429C42.6258 45.0429 46.1213 43.776 48.8678 41.2423C51.6143 38.7086 52.9876 35.4211 52.9876 31.3798V17.8756C51.5768 18.777 49.938 19.2471 48.2686 19.2294" fill="#7FFF5D"/>
<path d="M9.69266 13.8372V21.4912C10.1 19.7911 10.7807 18.17 11.7076 16.6923C12.544 15.4141 13.4379 14.5406 14.3892 14.0716C15.3465 13.5989 16.3858 13.3189 17.4491 13.2472C18.5318 13.1665 19.6168 13.3698 20.5988 13.8372V22.6673C17.4902 21.4496 14.8961 21.3236 12.8162 22.2891C10.7363 23.2547 9.69641 24.9716 9.69641 27.4397V44.4571H0.359528V13.8258L9.69266 13.8372Z" fill="#7FFF5D"/>
<path d="M94.335 5.59316C94.3292 4.85998 94.4716 4.1333 94.7537 3.45767C95.0358 2.78205 95.4515 2.1717 95.9755 1.66404C96.4808 1.13502 97.0881 0.716128 97.7599 0.433206C98.4318 0.150284 99.1539 0.00932402 99.8818 0.0190233C100.61 0.00999409 101.331 0.151258 102.003 0.43414C102.675 0.717023 103.282 1.13556 103.788 1.66404C104.312 2.17509 104.727 2.7889 105.008 3.4678C105.289 4.14671 105.429 4.87639 105.421 5.61207C105.424 6.34185 105.28 7.06465 105 7.7372C104.719 8.40974 104.307 9.01818 103.788 9.52607C103.287 10.0632 102.681 10.4898 102.009 10.7788C101.337 11.0678 100.612 11.2129 99.8818 11.2051C99.151 11.2136 98.4264 11.0688 97.754 10.7797C97.0816 10.4907 96.4759 10.0638 95.9755 9.52607C95.4558 9.01871 95.0431 8.41037 94.7625 7.73771C94.4819 7.06504 94.339 6.34198 94.3425 5.61207L94.335 5.59316ZM104.545 44.4722H95.2264V13.8409H104.556L104.545 44.4722Z" fill="#7FFF5D"/>
</g>
<defs>
<clipPath id="clip0_11328_76592">
<rect width="180" height="62" fill="white"/>
</clipPath>
</defs>
</svg>
