<svg width="25" height="24" viewBox="0 0 25 24" fill="none" xmlns="http://www.w3.org/2000/svg">
<path d="M16.5 9C22.5 9 22.5 13 22.5 13V15H16.5V13C16.5 13 16.5 11.31 15.35 9.8C15.18 9.57 14.97 9.35 14.75 9.14C15.27 9.06 15.84 9 16.5 9ZM2.5 13C2.5 13 2.5 9 8.5 9C14.5 9 14.5 13 14.5 13V15H2.5V13ZM9.5 17V19H15.5V17L18.5 20L15.5 23V21H9.5V23L6.5 20L9.5 17ZM8.5 1C6.84 1 5.5 2.34 5.5 4C5.5 5.66 6.84 7 8.5 7C10.16 7 11.5 5.66 11.5 4C11.5 2.34 10.16 1 8.5 1ZM16.5 1C14.84 1 13.5 2.34 13.5 4C13.5 5.66 14.84 7 16.5 7C18.16 7 19.5 5.66 19.5 4C19.5 2.34 18.16 1 16.5 1Z" fill="#0082DE"/>
</svg>
