<svg width="27" height="21" viewBox="0 0 27 21" fill="none" xmlns="http://www.w3.org/2000/svg">
<g opacity="0.4">
<path fill-rule="evenodd" clip-rule="evenodd" d="M21.8885 0.22818C19.0918 0.22818 16.8453 2.50931 16.8453 5.34907C16.8453 8.18884 19.0918 10.47 21.8885 10.47C24.6852 10.47 26.9318 8.18884 26.9318 5.34907C26.9318 2.50931 24.6852 0.22818 21.8885 0.22818ZM24.0786 2.81247H22.9254C22.8031 2.81247 22.6857 2.85701 22.5992 2.9363C22.5127 3.01558 22.4641 3.12311 22.4641 3.23524V7.4629C22.4641 7.57503 22.5127 7.68256 22.5992 7.76184C22.6857 7.84113 22.8031 7.88567 22.9254 7.88567H24.0786C24.201 7.88567 24.3183 7.84113 24.4048 7.76184C24.4913 7.68256 24.5399 7.57503 24.5399 7.4629V3.23524C24.5399 3.12311 24.4913 3.01558 24.4048 2.9363C24.3183 2.85701 24.201 2.81247 24.0786 2.81247ZM20.8516 2.81247H19.6984C19.5761 2.81247 19.4588 2.85701 19.3722 2.9363C19.2857 3.01558 19.2371 3.12311 19.2371 3.23524V7.4629C19.2371 7.57503 19.2857 7.68256 19.3722 7.76184C19.4588 7.84113 19.5761 7.88567 19.6984 7.88567H20.8516C20.974 7.88567 21.0913 7.84113 21.1778 7.76184C21.2643 7.68256 21.3129 7.57503 21.3129 7.4629V3.23524C21.3129 3.12311 21.2643 3.01558 21.1778 2.9363C21.0913 2.85701 20.974 2.81247 20.8516 2.81247Z" fill="#7A91A9"/>
<path d="M20.771 11.3284V17.7376C20.771 17.9662 20.5809 18.1597 20.3555 18.1597L3.38458 18.1599C3.15939 18.1599 2.96903 17.9664 2.96903 17.7378L2.96923 10.0652H17.9032C17.2043 9.50934 16.6266 8.80411 16.2156 7.99679H2.96903V6.57285C2.96903 6.3442 3.15918 6.15091 3.38457 6.15091H15.6115C15.5566 5.81433 15.5266 5.46904 15.5266 5.11658C15.5266 4.76435 15.5564 4.41904 15.6115 4.08245H3.38457C2.03224 4.08266 0.931763 5.19993 0.931763 6.57304V17.7374C0.931763 19.1109 2.03229 20.228 3.38457 20.228L20.356 20.2282C21.7085 20.2282 22.8088 19.1111 22.8088 17.7376L22.809 11.3018C22.4543 11.3659 22.0896 11.4014 21.7165 11.4014C21.395 11.401 21.079 11.3765 20.771 11.3284Z" fill="#7A91A9"/>
<path d="M5.08257 13.9426H8.52543V16.0111H5.08257V13.9426Z" fill="#7A91A9"/>
</g>
</svg>
