<svg width="26" height="20" viewBox="0 0 26 20" fill="none" xmlns="http://www.w3.org/2000/svg">
<path d="M19.9731 11.2017V17.5378C19.9731 17.7639 19.7816 17.9551 19.5547 17.9551L2.46936 17.9553C2.24266 17.9553 2.05101 17.7641 2.05101 17.538L2.05121 9.953H17.086C16.3823 9.40344 15.8007 8.70626 15.387 7.90815H2.05101V6.50045C2.05101 6.27441 2.24245 6.08333 2.46936 6.08333H14.7787C14.7235 5.75059 14.6933 5.40923 14.6933 5.0608C14.6933 4.71259 14.7233 4.37122 14.7787 4.03847H2.46936C1.1079 4.03867 0 5.1432 0 6.50064V17.5376C0 18.8955 1.10795 19.9998 2.46936 19.9998L19.5552 20C20.9169 20 22.0246 18.8957 22.0246 17.5378L22.0248 11.1755C21.6677 11.2388 21.3006 11.274 20.9249 11.274C20.6013 11.2736 20.2832 11.2493 19.9731 11.2017Z" fill="#EB4D3D"/>
<path d="M4.1788 13.7861H7.64489V15.831H4.1788V13.7861Z" fill="#EB4D3D"/>
<path d="M20.9242 0C18.1254 0 15.8484 2.27051 15.8484 5.06101C15.8484 7.85171 18.1256 10.1218 20.9242 10.1218C23.7231 10.1218 26 7.8513 26 5.06101C26 2.27051 23.7229 0 20.9242 0ZM23.3918 5.8549H18.4565V4.26717H23.392L23.3918 5.8549Z" fill="#EB4D3D"/>
</svg>
