<svg width="26" height="20" viewBox="0 0 26 20" fill="none" xmlns="http://www.w3.org/2000/svg">
<path d="M19.947 11.2017V17.5378C19.947 17.7639 19.7558 17.9551 19.5292 17.9551L2.46614 17.9553C2.23973 17.9553 2.04834 17.7641 2.04834 17.538L2.04854 9.953H17.0637C16.3609 9.40344 15.7801 8.70626 15.3669 7.90815H2.04833V6.50045C2.04833 6.27441 2.23952 6.08333 2.46613 6.08333H14.7595C14.7043 5.75059 14.6741 5.40923 14.6741 5.0608C14.6741 4.71259 14.7041 4.37122 14.7595 4.03847H2.46613C1.10646 4.03867 0 5.1432 0 6.50064V17.5376C0 18.8955 1.10651 19.9998 2.46613 19.9998L19.5297 20C20.8896 20 21.9959 18.8957 21.9959 17.5378L21.9961 11.1755C21.6395 11.2388 21.2728 11.274 20.8977 11.274C20.5744 11.2736 20.2567 11.2493 19.947 11.2017Z" fill="#71D472"/>
<path d="M4.17336 13.7861H7.63492V15.831H4.17336V13.7861Z" fill="#71D472"/>
<path d="M20.9294 0C18.1405 0 15.8587 2.27811 15.8587 5.06247C15.8587 7.84683 18.1405 10.1249 20.9294 10.1249C23.7182 10.1249 26 7.84683 26 5.06247C26 2.27811 23.7182 0 20.9294 0ZM23.2428 4.20818L20.2955 7.15074C20.2005 7.24566 20.0737 7.2773 19.9469 7.2773C19.8202 7.2773 19.6934 7.24566 19.5983 7.15074L18.3941 5.9484C18.2039 5.75856 18.2039 5.4738 18.3941 5.28396C18.5842 5.09411 18.8694 5.09411 19.0596 5.28396L19.9469 6.16989L22.5773 3.54373C22.7675 3.35389 23.0527 3.35389 23.2428 3.54373C23.433 3.73357 23.433 4.01834 23.2428 4.20818Z" fill="#71D472"/>
</svg>
