<svg width="26" height="20" viewBox="0 0 26 20" fill="none" xmlns="http://www.w3.org/2000/svg">
<path d="M7.26579 12.0245C6.99147 11.7851 6.63708 11.658 6.27333 11.6687H4.74175V14.1227H6.24882C6.61957 14.1482 6.98649 14.0344 7.27804 13.8037C7.39921 13.6819 7.49345 13.5359 7.55467 13.3752C7.61588 13.2146 7.64269 13.0429 7.63336 12.8712C7.63362 12.7123 7.6011 12.5551 7.53785 12.4094C7.4746 12.2637 7.38198 12.1327 7.26579 12.0245ZM7.26579 12.0245C6.99147 11.7851 6.63708 11.658 6.27333 11.6687H4.74175V14.1227H6.24882C6.61957 14.1482 6.98649 14.0344 7.27804 13.8037C7.39921 13.6819 7.49345 13.5359 7.55467 13.3752C7.61588 13.2146 7.64269 13.0429 7.63336 12.8712C7.63362 12.7123 7.6011 12.5551 7.53785 12.4094C7.4746 12.2637 7.38198 12.1327 7.26579 12.0245ZM21.1357 11.3988C20.9072 11.4113 20.6781 11.4113 20.4496 11.3988C20.278 11.3988 20.1188 11.3988 19.9595 11.3252C18.5685 11.0747 17.3007 10.3666 16.3572 9.31288C15.9689 8.92146 15.6462 8.46985 15.4015 7.97546H2.04618V6.51534C2.05766 6.41425 2.10461 6.32052 2.17866 6.25086C2.25271 6.1812 2.34905 6.14013 2.45052 6.13497H14.7031C14.7031 6.13497 14.7031 6.13497 14.7031 6.06135C14.6829 5.73446 14.6829 5.40664 14.7031 5.07975C14.7063 4.73455 14.735 4.39005 14.7889 4.04908H2.45052C1.8006 4.04908 1.1773 4.30762 0.71774 4.76784C0.258179 5.22805 0 5.85223 0 6.50307V17.546C0 18.1969 0.258179 18.821 0.71774 19.2812C1.1773 19.7415 1.8006 20 2.45052 20H19.5306C20.1805 20 20.8038 19.7415 21.2634 19.2812C21.723 18.821 21.9811 18.1969 21.9811 17.546V11.3374C21.7009 11.376 21.4186 11.3965 21.1357 11.3988ZM7.89067 14.3436C7.42682 14.7056 6.84842 14.8885 6.26107 14.8589H4.74175V15.4479H6.19981V16.135H4.74175V17.362H3.90858V16.135H3.00189V15.4479H3.90858V14.8589H3.00189V14.1718H3.90858V11.0429H6.24882C6.83447 11.013 7.41049 11.2009 7.86616 11.5706C8.06614 11.7424 8.2242 11.9578 8.32826 12.2002C8.43233 12.4427 8.47962 12.7058 8.46654 12.9693C8.47387 13.2263 8.42629 13.4818 8.32697 13.7188C8.22765 13.9558 8.07889 14.1688 7.89067 14.3436ZM15.2422 14.3436C14.7784 14.7056 14.2 14.8885 13.6126 14.8589H12.1423V15.4479H13.6004V16.135H12.1423V17.362H11.3091V16.135H10.4025V15.4479H11.3091V14.8589H10.4025V14.1718H11.3091V11.0429H13.6494C14.2341 11.0198 14.8078 11.2069 15.2667 11.5706C15.4624 11.7453 15.6167 11.9615 15.7184 12.2035C15.8201 12.4454 15.8668 12.7071 15.8549 12.9693C15.8637 13.2253 15.8181 13.4803 15.7209 13.7173C15.6237 13.9542 15.4772 14.1677 15.2912 14.3436H15.2422ZM13.6739 11.6687H12.1423V14.1227H13.6494C14.0196 14.1436 14.3849 14.0303 14.6786 13.8037C14.7976 13.6808 14.8896 13.5344 14.9486 13.3738C15.0077 13.2132 15.0326 13.042 15.0217 12.8712C15.0283 12.7158 15.0035 12.5608 14.9488 12.4153C14.894 12.2698 14.8105 12.1369 14.7031 12.0245C14.4194 11.7762 14.0502 11.6485 13.6739 11.6687ZM6.32234 11.6687H4.74175V14.1227H6.24882C6.61957 14.1482 6.98649 14.0344 7.27804 13.8037C7.39921 13.6819 7.49345 13.5359 7.55467 13.3752C7.61588 13.2146 7.64269 13.0429 7.63336 12.8712C7.6406 12.7041 7.61147 12.5375 7.548 12.3828C7.48452 12.2281 7.38823 12.0892 7.26579 11.9755C6.98433 11.7536 6.63067 11.6443 6.27333 11.6687H6.32234Z" fill="#71D472"/>
<path d="M20.9274 0C19.9242 0 18.9434 0.297922 18.1093 0.856093C17.2751 1.41426 16.6249 2.20761 16.241 3.13582C15.857 4.06402 15.7566 5.08539 15.9523 6.07077C16.148 7.05614 16.6312 7.96127 17.3406 8.67168C18.05 9.3821 18.9538 9.8659 19.9378 10.0619C20.9218 10.2579 21.9417 10.1573 22.8686 9.77284C23.7955 9.38836 24.5877 8.73728 25.1451 7.90192C25.7025 7.06655 26 6.08444 26 5.07975C25.9936 3.73451 25.4571 2.4462 24.5072 1.49495C23.5573 0.543711 22.2708 0.00645213 20.9274 0ZM23.2799 4.23313L20.3393 7.17791C20.2924 7.22355 20.2367 7.25908 20.1756 7.28229C20.1145 7.30551 20.0493 7.31592 19.984 7.31288C19.9148 7.31787 19.8453 7.30845 19.78 7.28522C19.7146 7.26199 19.6547 7.22545 19.6041 7.17791L18.3789 5.95092C18.3003 5.85942 18.2591 5.74153 18.2636 5.62089C18.2681 5.50026 18.318 5.38578 18.4032 5.30042C18.4884 5.21506 18.6028 5.16511 18.7232 5.1606C18.8437 5.15608 18.9614 5.19733 19.0528 5.27607L19.935 6.17178L22.5815 3.55828C22.6229 3.51128 22.6738 3.47364 22.7309 3.44785C22.7879 3.42207 22.8498 3.40873 22.9123 3.40873C22.9749 3.40873 23.0368 3.42207 23.0938 3.44785C23.1509 3.47364 23.2018 3.51128 23.2432 3.55828C23.2912 3.59928 23.3304 3.64963 23.3585 3.70628C23.3865 3.76293 23.4027 3.82469 23.4061 3.88781C23.4096 3.95093 23.4002 4.01409 23.3785 4.07345C23.3568 4.13282 23.3232 4.18714 23.2799 4.23313Z" fill="#71D472"/>
</svg>
