<svg width="26" height="20" viewBox="0 0 26 20" fill="none" xmlns="http://www.w3.org/2000/svg">
<g id="&#208;&#144;&#209;&#130;&#208;&#190;&#208;&#190;&#208;&#191;&#208;&#187;&#208;&#176;&#209;&#130;&#208;&#178;=on, &#208;&#146;&#209;&#128;&#209;&#131;&#209;&#135;&#208;&#189;&#209;&#131;&#209;&#142;=off, &#208;&#157;&#208;&#176;&#208;&#187;&#208;&#184;&#209;&#135;&#208;&#189;&#209;&#139;&#208;&#181;=off, &#208;&#160;&#208;&#181;&#209;&#132;. &#208;&#176;&#208;&#186;&#208;&#186;&#208;&#176;&#209;&#131;&#208;&#189;&#209;&#130;=on, &#208;&#167;&#208;&#181;&#209;&#128;&#208;&#189;&#208;&#190;&#208;&#178;&#208;&#184;&#208;&#186;=off, &#208;&#147;&#208;&#190;&#209;&#130;&#208;&#190;&#208;&#178; &#208;&#186; &#208;&#190;&#208;&#191;&#208;&#187;&#208;&#176;&#209;&#130;&#208;&#181;=off, &#208;&#178; &#208;&#190;&#208;&#191;&#208;&#187;&#208;&#176;&#209;&#130;&#208;&#181;=on, &#208;&#190;&#209;&#136;&#208;&#184;&#208;&#177;&#208;&#186;&#208;&#176;=off, &#208;&#190;&#208;&#191;&#208;&#187;&#208;&#176;&#209;&#135;&#208;&#181;&#208;&#189;&#208;&#190;=off">
<g id="Subtract">
<path fill-rule="evenodd" clip-rule="evenodd" d="M17.3333 4.42318C17.3333 1.97032 19.2636 5.80561e-08 21.6667 5.80561e-08C24.0697 5.80561e-08 26 1.97032 26 4.42318C26 6.87603 24.0697 8.84636 21.6667 8.84636C19.2636 8.84636 17.3333 6.87603 17.3333 4.42318ZM21.2998 2.675C21.2998 2.46789 21.4677 2.3 21.6748 2.3C21.8819 2.3 22.0498 2.46789 22.0498 2.675V4.55H22.9873H23.9248C24.1319 4.55 24.2998 4.71789 24.2998 4.925C24.2998 5.13211 24.1319 5.3 23.9248 5.3H21.6748C21.4677 5.3 21.2998 5.13211 21.2998 4.925V2.675Z" fill="#F4D150"/>
<path d="M16.3572 3.31743H2.97917C2.18904 3.31743 1.43128 3.6374 0.872578 4.20694C0.313876 4.77648 0 5.54895 0 6.35441V16.963C0 17.7685 0.313876 18.5409 0.872578 19.1105C1.43128 19.68 2.18904 20 2.97917 20H20.8542C21.6443 20 22.4021 19.68 22.9608 19.1105C23.5195 18.5409 23.8333 17.7685 23.8333 16.963V9.4963C23.1707 9.78973 22.4382 9.9522 21.6667 9.9522C21.6441 9.9522 21.6215 9.95206 21.599 9.95178V16.963C21.599 17.1644 21.5205 17.3575 21.3808 17.4999C21.2411 17.6423 21.0517 17.7223 20.8542 17.7223H2.97917C2.78164 17.7223 2.5922 17.6423 2.45252 17.4999C2.31284 17.3575 2.23438 17.1644 2.23438 16.963V9.13831H18.8262C17.9557 8.59291 17.2499 7.80307 16.7986 6.86057H2.23438V6.35441C2.23438 6.15305 2.31284 5.95993 2.45252 5.81754C2.5922 5.67516 2.78164 5.59517 2.97917 5.59517H16.3706C16.2916 5.21771 16.25 4.82566 16.25 4.42322C16.25 4.04424 16.2869 3.67447 16.3572 3.31743Z" fill="#F4D150"/>
<path d="M3.80291 14.7888C4.01242 14.5752 4.29659 14.4552 4.59288 14.4552H7.82031C8.11661 14.4552 8.40077 14.5752 8.61028 14.7888C8.8198 15.0024 8.9375 15.292 8.9375 15.5941C8.9375 15.8961 8.8198 16.1858 8.61028 16.3994C8.40077 16.613 8.11661 16.7329 7.82031 16.7329H4.59288C4.29659 16.7329 4.01242 16.613 3.80291 16.3994C3.5934 16.1858 3.47569 15.8961 3.47569 15.5941C3.47569 15.292 3.5934 15.0024 3.80291 14.7888Z" fill="#F4D150"/>
<path d="M16.3572 3.31743H2.97917C2.18904 3.31743 1.43128 3.6374 0.872578 4.20694C0.313876 4.77648 0 5.54895 0 6.35441V16.963C0 17.7685 0.313876 18.5409 0.872578 19.1105C1.43128 19.68 2.18904 20 2.97917 20L11.9167 19.9995L20.8542 20C21.6443 20 22.4021 19.68 22.9608 19.1105C23.5195 18.5409 23.8333 17.7685 23.8333 16.963V9.4963C23.1707 9.78973 22.4382 9.9522 21.6667 9.9522C21.6441 9.9522 21.6215 9.95206 21.599 9.95178V16.963C21.599 17.1644 21.5205 17.3575 21.3808 17.4999C21.2411 17.6423 21.0517 17.7223 20.8542 17.7223H2.97917C2.78164 17.7223 2.5922 17.6423 2.45252 17.4999C2.31284 17.3575 2.23438 17.1644 2.23438 16.963V9.13831H18.8262C17.9557 8.59291 17.2499 7.80307 16.7986 6.86057H2.23438V6.35441C2.23438 6.15305 2.31284 5.95993 2.45252 5.81754C2.5922 5.67516 2.78164 5.59517 2.97917 5.59517H16.3706C16.2916 5.21771 16.25 4.82566 16.25 4.42322C16.25 4.04424 16.2869 3.67447 16.3572 3.31743Z" fill="#F4D150"/>
<path d="M3.80291 14.7888C4.01242 14.5752 4.29659 14.4552 4.59288 14.4552H7.82031C8.11661 14.4552 8.40077 14.5752 8.61028 14.7888C8.8198 15.0024 8.9375 15.292 8.9375 15.5941C8.9375 15.8961 8.8198 16.1858 8.61028 16.3994C8.40077 16.613 8.11661 16.7329 7.82031 16.7329H4.59288C4.29659 16.7329 4.01242 16.613 3.80291 16.3994C3.5934 16.1858 3.47569 15.8961 3.47569 15.5941C3.47569 15.292 3.5934 15.0024 3.80291 14.7888Z" fill="#F4D150"/>
<path d="M18.2597 10.5995C17.6777 10.5995 17.2078 11.0724 17.2078 11.6583C17.2078 12.2442 17.6777 12.7171 18.2597 12.7171C18.8418 12.7171 19.3117 12.2442 19.3117 11.6583C19.3117 11.0724 18.8418 10.5995 18.2597 10.5995Z" fill="#F4D150"/>
<path d="M13 15.4398C13 15.4398 13 13.8264 15.4545 13.8264C17.9091 13.8264 17.9091 15.4398 17.9091 15.4398V16.5995H13V15.4398Z" fill="#F4D150"/>
<path d="M15.4545 10.9524C14.7755 10.9524 14.2273 11.4929 14.2273 12.1625C14.2273 12.8321 14.7755 13.3726 15.4545 13.3726C16.1336 13.3726 16.6818 12.8321 16.6818 12.1625C16.6818 11.4929 16.1336 10.9524 15.4545 10.9524Z" fill="#F4D150"/>
<path d="M18.2717 15.1877C18.2662 15.1598 18.2598 15.1301 18.2521 15.0989C18.205 14.9075 18.1113 14.6539 17.9245 14.4008C17.6511 14.0302 17.2069 13.6976 16.5065 13.5357C16.8671 13.2725 17.4219 13.0701 18.2755 13.0701C20.7143 13.0701 20.7143 14.7229 20.7143 14.7229V15.1877H18.2717Z" fill="#F4D150"/>
</g>
</g>
</svg>
