<svg width="24" height="20" viewBox="0 0 24 20" fill="none" xmlns="http://www.w3.org/2000/svg">
<g id="Group 2988">
<path id="Subtract" fill-rule="evenodd" clip-rule="evenodd" d="M18.9976 10C16.2262 10 14 12.2273 14 15C14 17.7727 16.2262 20 18.9976 20C21.7689 20 23.9951 17.7727 23.9951 15C23.9951 12.2273 21.7689 10 18.9976 10ZM22.0612 13.1796C22.0612 13.4925 21.9357 13.7925 21.7122 14.0137L21.4434 14.2798C21.0512 14.15 20.6952 13.9312 20.4036 13.6409C20.1189 13.3606 19.9021 13.0201 19.7696 12.6449L19.7581 12.6116L20.0269 12.3455C20.2504 12.1243 20.5535 12 20.8696 12C21.1856 12 21.4887 12.1243 21.7122 12.3455C21.9357 12.5667 22.0612 12.8668 22.0612 13.1796ZM21.0903 14.6293L18.849 16.848C18.6741 17.0211 18.5865 17.1078 18.4902 17.1822C18.3765 17.2701 18.2535 17.3454 18.1232 17.4069C18.0129 17.4588 17.8956 17.4975 17.6607 17.5749L16.4234 17.9835C16.3667 18.0023 16.3059 18.0051 16.2477 17.9916C16.1895 17.978 16.1363 17.9487 16.0941 17.9069C16.0518 17.865 16.0222 17.8124 16.0085 17.7548C15.9949 17.6972 15.9977 17.637 16.0167 17.5809L16.4309 16.3516C16.5081 16.1224 16.547 16.0068 16.5991 15.8983C16.6612 15.7694 16.7374 15.6476 16.8261 15.535C16.9013 15.4396 16.9889 15.3529 17.1637 15.1798L17.1637 15.1798L19.4051 12.9611C19.5626 13.3345 19.7927 13.6736 20.0824 13.9591C20.3708 14.2458 20.7132 14.4735 21.0903 14.6293Z" fill="#7A91A9"/>
<path id="Subtract_2" fill-rule="evenodd" clip-rule="evenodd" d="M12 3C12 1.34 13.34 0 15 0C16.66 0 18 1.34 18 3C18 4.66 16.66 6 15 6C13.34 6 12 4.66 12 3ZM7 9.14286C0 9.14286 0 13.7143 0 13.7143V17H13.3414C13.1203 16.3744 13 15.7013 13 15C13 14.0267 13.2317 13.1075 13.6431 12.2947C13.0375 10.9525 11.4043 9.14286 7 9.14286ZM21.1791 9.40795C20.5036 9.14455 19.7687 9 19 9C17.1207 9 15.4432 9.86399 14.3431 11.2164C14.2541 11.0688 14.1548 10.9196 14.0441 10.7705C13.2643 9.72042 11.9975 8.77815 10 8.31922C11.0285 7.57356 12.6107 7 15.0448 7C18.5883 7 20.3264 8.21548 21.1791 9.40795ZM7 1C5.06333 1 3.5 2.53143 3.5 4.42857C3.5 6.32571 5.06333 7.85714 7 7.85714C8.93667 7.85714 10.5 6.32571 10.5 4.42857C10.5 2.53143 8.93667 1 7 1Z" fill="#7A91A9"/>
</g>
</svg>
