<svg width="26" height="20" viewBox="0 0 26 20" fill="none" xmlns="http://www.w3.org/2000/svg">
<g id="&#208;&#144;&#209;&#130;&#208;&#190;&#208;&#190;&#208;&#191;&#208;&#187;&#208;&#176;&#209;&#130;&#208;&#178;=on, &#208;&#146;&#209;&#128;&#209;&#131;&#209;&#135;&#208;&#189;&#209;&#131;&#209;&#142;=off, &#208;&#157;&#208;&#176;&#208;&#187;&#208;&#184;&#209;&#135;&#208;&#189;&#209;&#139;&#208;&#181;=off, &#208;&#160;&#208;&#181;&#209;&#132;. &#208;&#176;&#208;&#186;&#208;&#186;&#208;&#176;&#209;&#131;&#208;&#189;&#209;&#130;=off, &#208;&#167;&#208;&#181;&#209;&#128;&#208;&#189;&#208;&#190;&#208;&#178;&#208;&#184;&#208;&#186;=off, &#208;&#147;&#208;&#190;&#209;&#130;&#208;&#190;&#208;&#178; &#208;&#186; &#208;&#190;&#208;&#191;&#208;&#187;&#208;&#176;&#209;&#130;&#208;&#181;=off, &#208;&#178; &#208;&#190;&#208;&#191;&#208;&#187;&#208;&#176;&#209;&#130;&#208;&#181;=off, &#208;&#190;&#209;&#136;&#208;&#184;&#208;&#177;&#208;&#186;&#208;&#176;=off, &#208;&#190;&#208;&#191;&#208;&#187;&#208;&#176;&#209;&#135;&#208;&#181;&#208;&#189;&#208;&#190;=on">
<g id="Vector">
<path d="M16.3572 3.31743H2.97917C2.18904 3.31743 1.43128 3.6374 0.872578 4.20694C0.313876 4.77648 0 5.54895 0 6.35441V16.963C0 17.7685 0.313876 18.5409 0.872578 19.1105C1.43128 19.68 2.18904 20 2.97917 20H11.9167H20.8542C21.6443 20 22.4021 19.68 22.9608 19.1105C23.5195 18.5409 23.8333 17.7685 23.8333 16.963V9.4963C23.1707 9.78973 22.4382 9.9522 21.6667 9.9522C21.6441 9.9522 21.6215 9.95206 21.599 9.95178V16.963C21.599 17.1644 21.5205 17.3575 21.3808 17.4999C21.2411 17.6423 21.0517 17.7223 20.8542 17.7223H2.97917C2.78164 17.7223 2.5922 17.6423 2.45252 17.4999C2.31284 17.3575 2.23438 17.1644 2.23438 16.963V9.13831H18.8262C17.9557 8.59291 17.2499 7.80307 16.7986 6.86057H2.23438V6.35441C2.23438 6.15305 2.31284 5.95993 2.45252 5.81754C2.5922 5.67516 2.78164 5.59517 2.97917 5.59517H16.3706C16.2916 5.21771 16.25 4.82566 16.25 4.42322C16.25 4.04424 16.2869 3.67447 16.3572 3.31743Z" fill="#71D472"/>
<path d="M3.80291 14.7888C4.01242 14.5752 4.29659 14.4552 4.59288 14.4552H7.82031C8.11661 14.4552 8.40077 14.5752 8.61028 14.7888C8.8198 15.0024 8.9375 15.292 8.9375 15.5941C8.9375 15.8961 8.8198 16.1858 8.61028 16.3994C8.40077 16.613 8.11661 16.7329 7.82031 16.7329H4.59288C4.29659 16.7329 4.01242 16.613 3.80291 16.3994C3.5934 16.1858 3.47569 15.8961 3.47569 15.5941C3.47569 15.292 3.5934 15.0024 3.80291 14.7888Z" fill="#71D472"/>
<path d="M19.3622 10.1528C19.3622 9.87327 19.5845 9.64665 19.8587 9.64665C20.1329 9.64665 20.3552 9.87327 20.3552 10.1528V11.84C20.3552 12.1196 20.1329 12.3462 19.8587 12.3462H18.1375C17.8633 12.3462 17.641 12.1196 17.641 11.84C17.641 11.5605 17.8633 11.3339 18.1375 11.3339H18.6519C18.6059 11.3057 18.5588 11.2791 18.5105 11.2541C18.1357 11.06 17.7113 10.9722 17.2861 11.002C16.861 11.0319 16.4545 11.178 16.1129 11.4218C15.7714 11.6654 15.5091 11.9962 15.3532 12.3745C15.247 12.6323 14.9559 12.7534 14.7031 12.6451C14.4503 12.5369 14.3314 12.2402 14.4377 11.9824C14.6677 11.4242 15.0518 10.9432 15.5435 10.5924C16.035 10.2417 16.6152 10.0344 17.2179 9.9921C17.8206 9.94976 18.4241 10.0739 18.9604 10.3516C19.1006 10.4243 19.2348 10.5067 19.3622 10.5981V10.1528Z" fill="#71D472"/>
<path d="M19.5448 14.005C19.6511 13.7473 19.9422 13.6262 20.195 13.7345C20.4478 13.8428 20.5666 14.1395 20.4603 14.3972C20.2302 14.9554 19.8461 15.4362 19.3545 15.787C18.863 16.1376 18.2829 16.3448 17.6803 16.3872C17.0777 16.4295 16.4742 16.3054 15.938 16.0277C15.7976 15.955 15.6633 15.8725 15.5358 15.781V16.2268C15.5358 16.5063 15.3135 16.7329 15.0393 16.7329C14.7651 16.7329 14.5428 16.5063 14.5428 16.2268V14.5396C14.5428 14.26 14.7651 14.0334 15.0393 14.0334H16.7605C17.0347 14.0334 17.257 14.26 17.257 14.5396C17.257 14.8191 17.0347 15.0457 16.7605 15.0457H16.2468C16.2927 15.0738 16.3397 15.1003 16.3878 15.1252C16.7626 15.3193 17.1869 15.4071 17.612 15.3772C18.0371 15.3474 18.4435 15.2013 18.7851 14.9576C19.1266 14.714 19.3889 14.3833 19.5448 14.005Z" fill="#71D472"/>
<path fill-rule="evenodd" clip-rule="evenodd" d="M21.6667 0C19.2636 0 17.3333 1.97032 17.3333 4.42318C17.3333 6.87603 19.2636 8.84636 21.6667 8.84636C24.0697 8.84636 26 6.87603 26 4.42318C26 1.97032 24.0697 0 21.6667 0Z" fill="#71D472"/>
<path d="M21.4015 6.37344L24.3488 3.43088C24.5389 3.24103 24.5389 2.95627 24.3488 2.76643C24.1586 2.57658 23.8734 2.57658 23.6833 2.76643L21.0529 5.39258L20.1655 4.50665C19.9754 4.31681 19.6901 4.31681 19.5 4.50665C19.3099 4.69649 19.3099 4.98126 19.5 5.1711L20.7043 6.37344C20.7993 6.46836 20.9261 6.5 21.0529 6.5C21.1796 6.5 21.3064 6.46836 21.4015 6.37344Z" fill="#71D472"/>
</g>
</g>
</svg>
