<svg width="24" height="20" viewBox="0 0 24 20" fill="none" xmlns="http://www.w3.org/2000/svg">
<g id="Group 2986">
<path id="Union" fill-rule="evenodd" clip-rule="evenodd" d="M14 15.0001C14 12.2432 16.2429 10 19 10C21.7569 10 24 12.2432 24 15.0001C24 17.7568 21.7571 20 19 20C16.2431 20 14 17.7572 14 15.0001ZM16.5691 15.7844H21.4307L21.4309 14.2158H16.5691V15.7844Z" fill="#EB4D3D"/>
<path id="Subtract" fill-rule="evenodd" clip-rule="evenodd" d="M12 3C12 1.34 13.34 0 15 0C16.66 0 18 1.34 18 3C18 4.66 16.66 6 15 6C13.34 6 12 4.66 12 3ZM7 9.14286C0 9.14286 0 13.7143 0 13.7143V17H13.3414C13.1203 16.3744 13 15.7013 13 15C13 14.0267 13.2317 13.1075 13.6431 12.2947C13.0375 10.9525 11.4043 9.14286 7 9.14286ZM21.1791 9.40795C20.5036 9.14455 19.7687 9 19 9C17.1207 9 15.4432 9.86399 14.3431 11.2164C14.2541 11.0688 14.1548 10.9196 14.0441 10.7705C13.2643 9.72042 11.9975 8.77815 10 8.31922C11.0285 7.57356 12.6107 7 15.0448 7C18.5883 7 20.3264 8.21548 21.1791 9.40795ZM7 1C5.06333 1 3.5 2.53143 3.5 4.42857C3.5 6.32571 5.06333 7.85714 7 7.85714C8.93667 7.85714 10.5 6.32571 10.5 4.42857C10.5 2.53143 8.93667 1 7 1Z" fill="#EB4D3D"/>
</g>
</svg>
