<svg width="24" height="20" viewBox="0 0 24 20" fill="none" xmlns="http://www.w3.org/2000/svg">
<g id="Group 2987">
<path id="Union" fill-rule="evenodd" clip-rule="evenodd" d="M16.2222 10.8427C17.0444 10.2932 18.0111 10 19 10C20.3241 10.0064 21.5922 10.5352 22.5285 11.4715C23.4648 12.4078 23.9937 13.6759 24 15C24 15.9889 23.7068 16.9556 23.1573 17.7778C22.6079 18.6001 21.827 19.241 20.9134 19.6194C19.9998 19.9978 18.9945 20.0969 18.0245 19.9039C17.0546 19.711 16.1637 19.2348 15.4645 18.5355C14.7652 17.8363 14.289 16.9454 14.0961 15.9755C13.9031 15.0055 14.0022 14.0002 14.3806 13.0866C14.759 12.173 15.3999 11.3921 16.2222 10.8427ZM18.4203 17.0652L21.3188 14.1667C21.3615 14.1214 21.3946 14.0679 21.416 14.0095C21.4374 13.9511 21.4466 13.8889 21.4432 13.8268C21.4399 13.7646 21.4239 13.7038 21.3963 13.6481C21.3686 13.5923 21.33 13.5428 21.2826 13.5024C21.2418 13.4562 21.1916 13.4191 21.1354 13.3937C21.0792 13.3683 21.0182 13.3552 20.9565 13.3552C20.8948 13.3552 20.8339 13.3683 20.7776 13.3937C20.7214 13.4191 20.6712 13.4562 20.6304 13.5024L18.0217 16.0749L17.1522 15.1932C17.0621 15.1157 16.9461 15.0751 16.8273 15.0796C16.7086 15.084 16.5959 15.1332 16.5119 15.2172C16.4279 15.3012 16.3787 15.4139 16.3743 15.5326C16.3698 15.6514 16.4104 15.7674 16.4879 15.8575L17.6957 17.0652C17.7455 17.112 17.8045 17.148 17.8689 17.1708C17.9334 17.1937 18.0019 17.203 18.07 17.1981C18.1344 17.2011 18.1987 17.1908 18.2589 17.168C18.3192 17.1451 18.3741 17.1101 18.4203 17.0652Z" fill="#71D472"/>
<path id="Subtract" fill-rule="evenodd" clip-rule="evenodd" d="M12 3C12 1.34 13.34 0 15 0C16.66 0 18 1.34 18 3C18 4.66 16.66 6 15 6C13.34 6 12 4.66 12 3ZM7 9.14286C0 9.14286 0 13.7143 0 13.7143V17H13.3414C13.1203 16.3744 13 15.7013 13 15C13 14.0267 13.2317 13.1075 13.6431 12.2947C13.0375 10.9525 11.4043 9.14286 7 9.14286ZM21.1791 9.40795C20.5036 9.14455 19.7687 9 19 9C17.1207 9 15.4432 9.86399 14.3431 11.2164C14.2541 11.0688 14.1548 10.9196 14.0441 10.7705C13.2643 9.72042 11.9975 8.77815 10 8.31922C11.0285 7.57356 12.6107 7 15.0448 7C18.5883 7 20.3264 8.21548 21.1791 9.40795ZM7 1C5.06333 1 3.5 2.53143 3.5 4.42857C3.5 6.32571 5.06333 7.85714 7 7.85714C8.93667 7.85714 10.5 6.32571 10.5 4.42857C10.5 2.53143 8.93667 1 7 1Z" fill="#71D472"/>
</g>
</svg>
