<svg width="26" height="20" viewBox="0 0 26 20" fill="none" xmlns="http://www.w3.org/2000/svg">
<path d="M19.947 11.2017V17.5378C19.947 17.7639 19.7558 17.9551 19.5292 17.9551L2.46614 17.9553C2.23973 17.9553 2.04834 17.7641 2.04834 17.538L2.04854 9.953H17.0637C16.3609 9.40344 15.7801 8.70626 15.3669 7.90815H2.04833V6.50045C2.04833 6.27441 2.23952 6.08333 2.46613 6.08333H14.7595C14.7043 5.75059 14.6741 5.40923 14.6741 5.0608C14.6741 4.71259 14.7041 4.37122 14.7595 4.03847H2.46613C1.10646 4.03867 0 5.1432 0 6.50064V17.5376C0 18.8955 1.10651 19.9998 2.46613 19.9998L19.5297 20C20.8896 20 21.9959 18.8957 21.9959 17.5378L21.9961 11.1755C21.6395 11.2388 21.2728 11.274 20.8977 11.274C20.5745 11.2736 20.2567 11.2493 19.947 11.2017Z" fill="#F4D150"/>
<path d="M4.17336 13.7861H7.63492V15.831H4.17336V13.7861Z" fill="#F4D150"/>
<path d="M20.9294 0C18.1175 0 15.8587 2.2551 15.8587 5.06247C15.8587 7.86984 18.1175 10.1249 20.9294 10.1249C23.7413 10.1249 26 7.86984 26 5.06247C26 2.2551 23.7413 0 20.9294 0ZM23.2342 5.98292H20.4684C20.1918 5.98292 20.0074 5.79883 20.0074 5.5227V2.76135C20.0074 2.48521 20.1918 2.30112 20.4684 2.30112C20.745 2.30112 20.9294 2.48521 20.9294 2.76135V5.06247H23.2342C23.5108 5.06247 23.6952 5.24656 23.6952 5.5227C23.6952 5.79883 23.5108 5.98292 23.2342 5.98292Z" fill="#F4D150"/>
</svg>
