<svg width="26" height="15" viewBox="0 0 26 15" fill="none" xmlns="http://www.w3.org/2000/svg">
<g id="svg102" clip-path="url(#clip0_5964_128963)">
<path id="path60" d="M25.9572 5.81592V9.48317H24.6414V6.91067H23.3744V9.48317H22.0586V5.81567H25.9572V5.81592Z" fill="#71D472"/>
<path id="path62" fill-rule="evenodd" clip-rule="evenodd" d="M19.3569 9.61413C20.5348 9.61413 21.4095 8.89537 21.4095 7.80575C21.4095 6.75112 20.7641 6.06638 19.6856 6.06638C19.1878 6.06638 18.7771 6.24075 18.4677 6.54163C18.5416 5.91975 19.07 5.46575 19.6518 5.46575C19.786 5.46575 20.7969 5.46362 20.7969 5.46362L21.3685 4.375C21.3685 4.375 20.0994 4.40375 19.5095 4.40375C18.1615 4.42712 17.251 5.6465 17.251 7.1275C17.251 8.85288 18.139 9.61413 19.3569 9.61413ZM19.364 7.03062C19.8014 7.03062 20.1046 7.31662 20.1046 7.80562C20.1046 8.24575 19.8352 8.60838 19.364 8.60938C18.9133 8.60938 18.6101 8.27338 18.6101 7.81313C18.6101 7.324 18.9133 7.03062 19.364 7.03062Z" fill="#71D472"/>
<path id="path64" d="M16.1803 8.2553C16.1803 8.2553 15.8695 8.43355 15.4054 8.4673C14.8718 8.48305 14.3964 8.14767 14.3964 7.5518C14.3964 6.97055 14.8159 6.63742 15.392 6.63742C15.7452 6.63742 16.2124 6.88105 16.2124 6.88105C16.2124 6.88105 16.5543 6.25667 16.7314 5.94442C16.4071 5.6998 15.9751 5.56567 15.4727 5.56567C14.2048 5.56567 13.2227 6.38842 13.2227 7.54442C13.2227 8.71517 14.1457 9.5188 15.4727 9.49455C15.8436 9.4808 16.3553 9.35117 16.6672 9.1518L16.1803 8.2553Z" fill="#71D472"/>
<path id="path66" d="M0 3.26514L1.82528 6.51201V8.49251L0.00213527 11.733L0 3.26514Z" fill="#71D472"/>
<path id="path68" d="M7.00781 5.33044L8.71816 4.28719L12.2185 4.28394L7.00781 7.46069V5.33044Z" fill="#5DC05E"/>
<path id="path70" d="M6.99859 3.24587L7.00826 7.54462L5.17871 6.42588V0L6.99859 3.24587Z" fill="#85E886"/>
<path id="path72" d="M12.2189 4.28387L8.71848 4.28712L6.99859 3.24587L5.17871 0L12.2189 4.28387Z" fill="#71D472"/>
<path id="path74" d="M7.00826 11.751V9.66537L5.17871 8.56787L5.17972 15.0001L7.00826 11.751Z" fill="#85E886"/>
<path id="path76" d="M8.7144 10.7173L1.82515 6.51201L0 3.26514L12.2116 10.713L8.7144 10.7173Z" fill="#71D472"/>
<path id="path78" d="M5.17969 15L7.00798 11.7509L8.71405 10.7171L12.2112 10.7129L5.17969 15Z" fill="#71D472"/>
<path id="path80" d="M0.00195312 11.7329L5.19354 8.56795L3.44815 7.5022L1.82509 8.49245L0.00195312 11.7329Z" fill="#5DC05E"/>
</g>
<defs>
<clipPath id="clip0_5964_128963">
<rect width="26" height="15" fill="white"/>
</clipPath>
</defs>
</svg>
