<svg width="26" height="20" viewBox="0 0 26 20" fill="none" xmlns="http://www.w3.org/2000/svg">
<g id="&#208;&#144;&#209;&#130;&#208;&#190;&#208;&#190;&#208;&#191;&#208;&#187;&#208;&#176;&#209;&#130;&#208;&#178;=on, &#208;&#146;&#209;&#128;&#209;&#131;&#209;&#135;&#208;&#189;&#209;&#131;&#209;&#142;=off, &#208;&#157;&#208;&#176;&#208;&#187;&#208;&#184;&#209;&#135;&#208;&#189;&#209;&#139;&#208;&#181;=off, &#208;&#160;&#208;&#181;&#209;&#132;. &#208;&#176;&#208;&#186;&#208;&#186;&#208;&#176;&#209;&#131;&#208;&#189;&#209;&#130;=off, &#208;&#167;&#208;&#181;&#209;&#128;&#208;&#189;&#208;&#190;&#208;&#178;&#208;&#184;&#208;&#186;=off, &#208;&#147;&#208;&#190;&#209;&#130;&#208;&#190;&#208;&#178; &#208;&#186; &#208;&#190;&#208;&#191;&#208;&#187;&#208;&#176;&#209;&#130;&#208;&#181;=on, &#208;&#178; &#208;&#190;&#208;&#191;&#208;&#187;&#208;&#176;&#209;&#130;&#208;&#181;=off, &#208;&#190;&#209;&#136;&#208;&#184;&#208;&#177;&#208;&#186;&#208;&#176;=off, &#208;&#190;&#208;&#191;&#208;&#187;&#208;&#176;&#209;&#135;&#208;&#181;&#208;&#189;&#208;&#190;=off">
<g id="Vector">
<path d="M16.3572 3.31738H2.97917C2.18904 3.31738 1.43128 3.63735 0.872578 4.20689C0.313876 4.77644 0 5.54891 0 6.35436V16.963C0 17.7684 0.313876 18.5409 0.872578 19.1104C1.43128 19.68 2.18904 20 2.97917 20H20.8542C21.6443 20 22.4021 19.68 22.9608 19.1104C23.5195 18.5409 23.8333 17.7684 23.8333 16.963V9.49625C23.1707 9.78968 22.4382 9.95215 21.6667 9.95215C21.6441 9.95215 21.6215 9.95201 21.599 9.95173V16.963C21.599 17.1643 21.5205 17.3575 21.3808 17.4998C21.2411 17.6422 21.0517 17.7222 20.8542 17.7222H2.97917C2.78164 17.7222 2.5922 17.6422 2.45252 17.4998C2.31284 17.3575 2.23438 17.1643 2.23438 16.963V9.13826H18.8262C17.9557 8.59286 17.2499 7.80302 16.7986 6.86053H2.23438V6.35436C2.23438 6.153 2.31284 5.95988 2.45252 5.8175C2.5922 5.67511 2.78164 5.59512 2.97917 5.59512H16.3706C16.2916 5.21767 16.25 4.82562 16.25 4.42318C16.25 4.04419 16.2869 3.67442 16.3572 3.31738Z" fill="#7A91A9"/>
<path d="M3.80291 14.7887C4.01242 14.5752 4.29659 14.4552 4.59288 14.4552H7.82031C8.11661 14.4552 8.40077 14.5752 8.61028 14.7887C8.8198 15.0023 8.9375 15.292 8.9375 15.594C8.9375 15.8961 8.8198 16.1858 8.61028 16.3993C8.40077 16.6129 8.11661 16.7329 7.82031 16.7329H4.59288C4.29659 16.7329 4.01242 16.6129 3.80291 16.3993C3.5934 16.1858 3.47569 15.8961 3.47569 15.594C3.47569 15.292 3.5934 15.0023 3.80291 14.7887Z" fill="#7A91A9"/>
<path d="M19.3622 10.1528C19.3622 9.87323 19.5845 9.64661 19.8587 9.64661C20.1329 9.64661 20.3552 9.87323 20.3552 10.1528V11.84C20.3552 12.1195 20.1329 12.3461 19.8587 12.3461H18.1375C17.8633 12.3461 17.641 12.1195 17.641 11.84C17.641 11.5604 17.8633 11.3338 18.1375 11.3338H18.6519C18.6059 11.3057 18.5588 11.2791 18.5105 11.2541C18.1357 11.0599 17.7113 10.9721 17.2861 11.002C16.861 11.0318 16.4545 11.178 16.1129 11.4217C15.7714 11.6654 15.5091 11.9961 15.3532 12.3745C15.247 12.6322 14.9559 12.7534 14.7031 12.6451C14.4503 12.5368 14.3314 12.2401 14.4377 11.9824C14.6677 11.4241 15.0518 10.9432 15.5435 10.5924C16.035 10.2417 16.6152 10.0344 17.2179 9.99205C17.8206 9.94972 18.4241 10.0738 18.9604 10.3516C19.1006 10.4242 19.2348 10.5067 19.3622 10.5981V10.1528Z" fill="#7A91A9"/>
<path d="M19.5448 14.0049C19.6511 13.7472 19.9422 13.6261 20.195 13.7344C20.4478 13.8428 20.5666 14.1395 20.4603 14.3972C20.2302 14.9553 19.8461 15.4362 19.3545 15.7869C18.863 16.1375 18.2829 16.3448 17.6803 16.3871C17.0777 16.4294 16.4742 16.3054 15.938 16.0277C15.7976 15.955 15.6633 15.8725 15.5358 15.781V16.2267C15.5358 16.5063 15.3135 16.7329 15.0393 16.7329C14.7651 16.7329 14.5428 16.5063 14.5428 16.2267V14.5395C14.5428 14.26 14.7651 14.0334 15.0393 14.0334H16.7605C17.0347 14.0334 17.257 14.26 17.257 14.5395C17.257 14.8191 17.0347 15.0457 16.7605 15.0457H16.2468C16.2927 15.0737 16.3397 15.1002 16.3878 15.1251C16.7626 15.3193 17.1869 15.407 17.612 15.3772C18.0371 15.3473 18.4435 15.2012 18.7851 14.9575C19.1266 14.7139 19.3889 14.3832 19.5448 14.0049Z" fill="#7A91A9"/>
<path d="M25.1359 3.94018C25.1676 4.12232 25.1848 4.30982 25.1848 4.47589C25.1848 4.69018 25.1676 4.87768 25.1359 5.05982L25.775 5.59018C25.9765 5.75893 26.06 6.00268 25.9535 6.25982C25.8873 6.37768 25.8153 6.54107 25.7347 6.675L25.6454 6.81964C25.5332 6.95357 25.4641 7.08214 25.3633 7.20804C25.1992 7.41161 24.9113 7.47857 24.6522 7.39821L23.8375 7.14911C23.5295 7.3875 23.1782 7.57768 22.7954 7.71161L22.5967 8.48839C22.565 8.7375 22.3578 8.93571 22.0872 8.96786C21.8943 8.98929 21.6985 9 21.4999 9C21.3012 9 21.1055 8.98929 20.9126 8.96786C20.642 8.93571 20.4088 8.7375 20.3771 8.48839L20.1785 7.71161C19.8215 7.57768 19.4702 7.3875 19.1608 7.14911L18.3483 7.39821C18.0895 7.47857 17.8011 7.41161 17.637 7.20804C17.5351 7.08214 17.4401 6.95089 17.3525 6.81696L17.2656 6.675C17.1853 6.54107 17.1122 6.40179 17.0469 6.25982C16.9403 6.00268 17.022 5.75893 17.2253 5.59018L17.8638 5.05982C17.8316 4.87768 17.789 4.69018 17.789 4.47589C17.789 4.30982 17.8316 4.12232 17.8638 3.94018L17.2253 3.40982C17.022 3.21696 16.9403 2.97321 17.0469 2.74018C17.1122 2.57411 17.1853 2.45866 17.2653 2.32393L17.3528 2.1833C17.4401 2.04804 17.5351 1.91732 17.637 1.7917C17.8011 1.58946 18.0895 1.52223 18.3483 1.60152L19.1608 1.85062C19.4702 1.61384 19.8215 1.42313 20.1785 1.28973L20.3771 0.511071C20.4088 0.2625 20.642 0.0634822 20.9126 0.0329733C21.1074 0.010982 21.3036 -2.91758e-05 21.4999 5.80567e-08C21.6985 5.80567e-08 21.8943 0.0111965 22.0872 0.0329465C22.3578 0.0634822 22.565 0.2625 22.5967 0.511071L22.7954 1.28973C23.1782 1.42313 23.5295 1.61384 23.8375 1.85062L24.6522 1.60152C24.9113 1.52223 25.1992 1.58946 25.3633 1.7917C25.4641 1.91679 25.5332 2.04696 25.6454 2.18143L25.7347 2.3258C25.8153 2.46 25.8873 2.59821 25.9535 2.74018C26.06 2.97321 25.9765 3.21696 25.775 3.40982L25.1359 3.94018ZM21.4999 3.19018C20.737 3.19018 20.118 3.79018 20.118 4.47589C20.118 5.20982 20.737 5.76161 21.4999 5.76161C22.2628 5.76161 22.8817 5.20982 22.8817 4.47589C22.8817 3.79018 22.2628 3.19018 21.4999 3.19018Z" fill="#7A91A9"/>
</g>
</g>
</svg>
