<svg width="26" height="20" viewBox="0 0 26 20" fill="none" xmlns="http://www.w3.org/2000/svg">
<g id="&#208;&#144;&#209;&#130;&#208;&#190;&#208;&#190;&#208;&#191;&#208;&#187;&#208;&#176;&#209;&#130;&#208;&#178;=on, &#208;&#146;&#209;&#128;&#209;&#131;&#209;&#135;&#208;&#189;&#209;&#131;&#209;&#142;=off, &#208;&#157;&#208;&#176;&#208;&#187;&#208;&#184;&#209;&#135;&#208;&#189;&#209;&#139;&#208;&#181;=off, &#208;&#160;&#208;&#181;&#209;&#132;. &#208;&#176;&#208;&#186;&#208;&#186;&#208;&#176;&#209;&#131;&#208;&#189;&#209;&#130;=on, &#208;&#167;&#208;&#181;&#209;&#128;&#208;&#189;&#208;&#190;&#208;&#178;&#208;&#184;&#208;&#186;=off, &#208;&#147;&#208;&#190;&#209;&#130;&#208;&#190;&#208;&#178; &#208;&#186; &#208;&#190;&#208;&#191;&#208;&#187;&#208;&#176;&#209;&#130;&#208;&#181;=off, &#208;&#178; &#208;&#190;&#208;&#191;&#208;&#187;&#208;&#176;&#209;&#130;&#208;&#181;=off, &#208;&#190;&#209;&#136;&#208;&#184;&#208;&#177;&#208;&#186;&#208;&#176;=off, &#208;&#190;&#208;&#191;&#208;&#187;&#208;&#176;&#209;&#135;&#208;&#181;&#208;&#189;&#208;&#190;=on">
<g id="Vector">
<path d="M16.3572 3.31743H2.97917C2.18904 3.31743 1.43128 3.6374 0.872578 4.20694C0.313876 4.77648 0 5.54895 0 6.35441V16.963C0 17.7685 0.313876 18.5409 0.872578 19.1105C1.43128 19.68 2.18904 20 2.97917 20H11.9167H20.8542C21.6443 20 22.4021 19.68 22.9608 19.1105C23.5195 18.5409 23.8333 17.7685 23.8333 16.963V9.4963C23.1707 9.78973 22.4382 9.9522 21.6667 9.9522C21.6441 9.9522 21.6215 9.95206 21.599 9.95178V16.963C21.599 17.1644 21.5205 17.3575 21.3808 17.4999C21.2411 17.6423 21.0517 17.7223 20.8542 17.7223H2.97917C2.78164 17.7223 2.5922 17.6423 2.45252 17.4999C2.31284 17.3575 2.23438 17.1644 2.23438 16.963V9.13831H18.8262C17.9557 8.59291 17.2499 7.80307 16.7986 6.86057H2.23438V6.35441C2.23438 6.15305 2.31284 5.95993 2.45252 5.81754C2.5922 5.67516 2.78164 5.59517 2.97917 5.59517H16.3706C16.2916 5.21771 16.25 4.82566 16.25 4.42322C16.25 4.04424 16.2869 3.67447 16.3572 3.31743Z" fill="#71D472"/>
<path d="M3.80291 14.7888C4.01242 14.5752 4.29659 14.4552 4.59288 14.4552H7.82031C8.11661 14.4552 8.40077 14.5752 8.61028 14.7888C8.8198 15.0024 8.9375 15.292 8.9375 15.5941C8.9375 15.8961 8.8198 16.1858 8.61028 16.3994C8.40077 16.613 8.11661 16.7329 7.82031 16.7329H4.59288C4.29659 16.7329 4.01242 16.613 3.80291 16.3994C3.5934 16.1858 3.47569 15.8961 3.47569 15.5941C3.47569 15.292 3.5934 15.0024 3.80291 14.7888Z" fill="#71D472"/>
<path fill-rule="evenodd" clip-rule="evenodd" d="M21.6667 0C19.2636 0 17.3333 1.97032 17.3333 4.42318C17.3333 6.87603 19.2636 8.84636 21.6667 8.84636C24.0697 8.84636 26 6.87603 26 4.42318C26 1.97032 24.0697 0 21.6667 0Z" fill="#71D472"/>
<path d="M21.4015 6.37344L24.3488 3.43088C24.5389 3.24103 24.5389 2.95627 24.3488 2.76643C24.1586 2.57658 23.8734 2.57658 23.6833 2.76643L21.0529 5.39258L20.1655 4.50665C19.9754 4.31681 19.6901 4.31681 19.5 4.50665C19.3099 4.69649 19.3099 4.98126 19.5 5.1711L20.7043 6.37344C20.7993 6.46836 20.9261 6.5 21.0529 6.5C21.1796 6.5 21.3064 6.46836 21.4015 6.37344Z" fill="#71D472"/>
<path d="M18.2597 10.6C17.6777 10.6 17.2078 11.0729 17.2078 11.6588C17.2078 12.2447 17.6777 12.7176 18.2597 12.7176C18.8418 12.7176 19.3117 12.2447 19.3117 11.6588C19.3117 11.0729 18.8418 10.6 18.2597 10.6Z" fill="#71D472"/>
<path d="M13 15.4403C13 15.4403 13 13.8269 15.4545 13.8269C17.9091 13.8269 17.9091 15.4403 17.9091 15.4403V16.6H13V15.4403Z" fill="#71D472"/>
<path d="M15.4545 10.9529C14.7755 10.9529 14.2273 11.4934 14.2273 12.163C14.2273 12.8326 14.7755 13.3731 15.4545 13.3731C16.1336 13.3731 16.6818 12.8326 16.6818 12.163C16.6818 11.4934 16.1336 10.9529 15.4545 10.9529Z" fill="#71D472"/>
<path d="M18.2717 15.1882C18.2662 15.1603 18.2598 15.1306 18.2521 15.0994C18.205 14.908 18.1113 14.6545 17.9245 14.4013C17.6511 14.0307 17.2069 13.6981 16.5065 13.5362C16.8671 13.273 17.4219 13.0706 18.2755 13.0706C20.7143 13.0706 20.7143 14.7234 20.7143 14.7234V15.1882H18.2717Z" fill="#71D472"/>
</g>
</g>
</svg>
