<svg width="26" height="20" viewBox="0 0 26 20" fill="none" xmlns="http://www.w3.org/2000/svg">
<g id="&#208;&#144;&#209;&#130;&#208;&#190;&#208;&#190;&#208;&#191;&#208;&#187;&#208;&#176;&#209;&#130;&#208;&#178;=on, &#208;&#146;&#209;&#128;&#209;&#131;&#209;&#135;&#208;&#189;&#209;&#131;&#209;&#142;=off, &#208;&#157;&#208;&#176;&#208;&#187;&#208;&#184;&#209;&#135;&#208;&#189;&#209;&#139;&#208;&#181;=off, &#208;&#160;&#208;&#181;&#209;&#132;. &#208;&#176;&#208;&#186;&#208;&#186;&#208;&#176;&#209;&#131;&#208;&#189;&#209;&#130;=on, &#208;&#167;&#208;&#181;&#209;&#128;&#208;&#189;&#208;&#190;&#208;&#178;&#208;&#184;&#208;&#186;=on, &#208;&#147;&#208;&#190;&#209;&#130;&#208;&#190;&#208;&#178; &#208;&#186; &#208;&#190;&#208;&#191;&#208;&#187;&#208;&#176;&#209;&#130;&#208;&#181;=on, &#208;&#178; &#208;&#190;&#208;&#191;&#208;&#187;&#208;&#176;&#209;&#130;&#208;&#181;=off, &#208;&#190;&#209;&#136;&#208;&#184;&#208;&#177;&#208;&#186;&#208;&#176;=off, &#208;&#190;&#208;&#191;&#208;&#187;&#208;&#176;&#209;&#135;&#208;&#181;&#208;&#189;&#208;&#190;=off">
<g id="Vector" opacity="0.4">
<path d="M16.3572 3.31743H2.97917C2.18904 3.31743 1.43128 3.6374 0.872578 4.20694C0.313876 4.77648 0 5.54895 0 6.35441V16.963C0 17.7685 0.313876 18.5409 0.872578 19.1105C1.43128 19.68 2.18904 20 2.97917 20H11.9167H20.8542C21.6443 20 22.4021 19.68 22.9608 19.1105C23.5195 18.5409 23.8333 17.7685 23.8333 16.963V9.4963C23.1707 9.78973 22.4382 9.9522 21.6667 9.9522C21.6441 9.9522 21.6215 9.95206 21.599 9.95178V16.963C21.599 17.1644 21.5205 17.3575 21.3808 17.4999C21.2411 17.6423 21.0517 17.7223 20.8542 17.7223H2.97917C2.78164 17.7223 2.5922 17.6423 2.45252 17.4999C2.31284 17.3575 2.23438 17.1644 2.23438 16.963V9.13831H18.8262C17.9557 8.59291 17.2499 7.80307 16.7986 6.86057H2.23438V6.35441C2.23438 6.15305 2.31284 5.95993 2.45252 5.81754C2.5922 5.67516 2.78164 5.59517 2.97917 5.59517H16.3706C16.2916 5.21771 16.25 4.82566 16.25 4.42322C16.25 4.04424 16.2869 3.67447 16.3572 3.31743Z" fill="#7A91A9"/>
<path d="M3.80291 14.7888C4.01242 14.5752 4.29659 14.4552 4.59288 14.4552H7.82031C8.11661 14.4552 8.40077 14.5752 8.61028 14.7888C8.8198 15.0024 8.9375 15.292 8.9375 15.5941C8.9375 15.8961 8.8198 16.1858 8.61028 16.3994C8.40077 16.613 8.11661 16.7329 7.82031 16.7329H4.59288C4.29659 16.7329 4.01242 16.613 3.80291 16.3994C3.5934 16.1858 3.47569 15.8961 3.47569 15.5941C3.47569 15.292 3.5934 15.0024 3.80291 14.7888Z" fill="#7A91A9"/>
<path fill-rule="evenodd" clip-rule="evenodd" d="M21.6667 0C19.2636 0 17.3333 1.97032 17.3333 4.42318C17.3333 6.87603 19.2636 8.84636 21.6667 8.84636C24.0697 8.84636 26 6.87603 26 4.42318C26 1.97032 24.0697 0 21.6667 0ZM23.5485 2.23219H22.5576C22.4525 2.23219 22.3516 2.27066 22.2773 2.33914C22.203 2.40762 22.1612 2.5005 22.1612 2.59735V6.249C22.1612 6.34585 22.203 6.43873 22.2773 6.50721C22.3516 6.5757 22.4525 6.61417 22.5576 6.61417H23.5485C23.6536 6.61417 23.7544 6.5757 23.8287 6.50721C23.9031 6.43873 23.9448 6.34585 23.9448 6.249V2.59735C23.9448 2.5005 23.9031 2.40762 23.8287 2.33914C23.7544 2.27066 23.6536 2.23219 23.5485 2.23219ZM20.7757 2.23219H19.7848C19.6797 2.23219 19.5789 2.27066 19.5046 2.33914C19.4302 2.40762 19.3885 2.5005 19.3885 2.59735V6.249C19.3885 6.34585 19.4302 6.43873 19.5046 6.50721C19.5789 6.5757 19.6797 6.61417 19.7848 6.61417H20.7757C20.8809 6.61417 20.9817 6.5757 21.056 6.50721C21.1303 6.43873 21.1721 6.34585 21.1721 6.249V2.59735C21.1721 2.5005 21.1303 2.40762 21.056 2.33914C20.9817 2.27066 20.8809 2.23219 20.7757 2.23219Z" fill="#7A91A9"/>
<path d="M18.2597 10.5C17.6777 10.5 17.2078 10.9729 17.2078 11.5588C17.2078 12.1447 17.6777 12.6176 18.2597 12.6176C18.8418 12.6176 19.3117 12.1447 19.3117 11.5588C19.3117 10.9729 18.8418 10.5 18.2597 10.5Z" fill="#7A91A9"/>
<path d="M13 15.3403C13 15.3403 13 13.7269 15.4545 13.7269C17.9091 13.7269 17.9091 15.3403 17.9091 15.3403V16.5H13V15.3403Z" fill="#7A91A9"/>
<path d="M15.4545 10.8529C14.7755 10.8529 14.2273 11.3934 14.2273 12.063C14.2273 12.7326 14.7755 13.2731 15.4545 13.2731C16.1336 13.2731 16.6818 12.7326 16.6818 12.063C16.6818 11.3934 16.1336 10.8529 15.4545 10.8529Z" fill="#7A91A9"/>
<path d="M18.2717 15.0882C18.2662 15.0603 18.2598 15.0307 18.2521 14.9995C18.205 14.808 18.1113 14.5545 17.9245 14.3013C17.6511 13.9307 17.2069 13.5982 16.5065 13.4362C16.8671 13.173 17.4219 12.9706 18.2755 12.9706C20.7143 12.9706 20.7143 14.6234 20.7143 14.6234V15.0882H18.2717Z" fill="#7A91A9"/>
</g>
</g>
</svg>
