<svg width="27" height="20" viewBox="0 0 27 20" fill="none" xmlns="http://www.w3.org/2000/svg">
<g id="&#208;&#144;&#209;&#130;&#208;&#190;&#208;&#190;&#208;&#191;&#208;&#187;&#208;&#176;&#209;&#130;&#208;&#178;=on, &#208;&#146;&#209;&#128;&#209;&#131;&#209;&#135;&#208;&#189;&#209;&#131;&#209;&#142;=off, &#208;&#157;&#208;&#176;&#208;&#187;&#208;&#184;&#209;&#135;&#208;&#189;&#209;&#139;&#208;&#181;=off, &#208;&#160;&#208;&#181;&#209;&#132;. &#208;&#176;&#208;&#186;&#208;&#186;&#208;&#176;&#209;&#131;&#208;&#189;&#209;&#130;=on, &#208;&#167;&#208;&#181;&#209;&#128;&#208;&#189;&#208;&#190;&#208;&#178;&#208;&#184;&#208;&#186;=off, &#208;&#147;&#208;&#190;&#209;&#130;&#208;&#190;&#208;&#178; &#208;&#186; &#208;&#190;&#208;&#191;&#208;&#187;&#208;&#176;&#209;&#130;&#208;&#181;=on, &#208;&#178; &#208;&#190;&#208;&#191;&#208;&#187;&#208;&#176;&#209;&#130;&#208;&#181;=off, &#208;&#190;&#209;&#136;&#208;&#184;&#208;&#177;&#208;&#186;&#208;&#176;=off, &#208;&#190;&#208;&#191;&#208;&#187;&#208;&#176;&#209;&#135;&#208;&#181;&#208;&#189;&#208;&#190;=off">
<g id="Vector">
<path d="M16.3572 3.31692H2.97917C2.18904 3.31692 1.43128 3.63689 0.872578 4.20643C0.313876 4.77598 0 5.54845 0 6.3539V16.9625C0 17.768 0.313876 18.5404 0.872578 19.11C1.43128 19.6795 2.18904 19.9995 2.97917 19.9995H11.9167H20.8542C21.6443 19.9995 22.4021 19.6795 22.9608 19.11C23.5195 18.5404 23.8333 17.768 23.8333 16.9625V9.49579C23.1707 9.78922 22.4382 9.95169 21.6667 9.95169C21.6441 9.95169 21.6215 9.95155 21.599 9.95127V16.9625C21.599 17.1639 21.5205 17.357 21.3808 17.4994C21.2411 17.6418 21.0517 17.7218 20.8542 17.7218H2.97917C2.78164 17.7218 2.5922 17.6418 2.45252 17.4994C2.31284 17.357 2.23438 17.1639 2.23438 16.9625V9.1378H18.8262C17.9557 8.5924 17.2499 7.80256 16.7986 6.86007H2.23438V6.3539C2.23438 6.15254 2.31284 5.95942 2.45252 5.81704C2.5922 5.67465 2.78164 5.59466 2.97917 5.59466H16.3706C16.2916 5.21721 16.25 4.82516 16.25 4.42272C16.25 4.04373 16.2869 3.67396 16.3572 3.31692Z" fill="#7A91A9"/>
<path d="M3.80291 14.7883C4.01242 14.5747 4.29659 14.4547 4.59288 14.4547H7.82031C8.11661 14.4547 8.40077 14.5747 8.61028 14.7883C8.8198 15.0018 8.9375 15.2915 8.9375 15.5936C8.9375 15.8956 8.8198 16.1853 8.61028 16.3989C8.40077 16.6125 8.11661 16.7324 7.82031 16.7324H4.59288C4.29659 16.7324 4.01242 16.6125 3.80291 16.3989C3.5934 16.1853 3.47569 15.8956 3.47569 15.5936C3.47569 15.2915 3.5934 15.0018 3.80291 14.7883Z" fill="#7A91A9"/>
<path d="M18.2597 10.5995C17.6777 10.5995 17.2078 11.0724 17.2078 11.6583C17.2078 12.2442 17.6777 12.7171 18.2597 12.7171C18.8418 12.7171 19.3117 12.2442 19.3117 11.6583C19.3117 11.0724 18.8418 10.5995 18.2597 10.5995Z" fill="#7A91A9"/>
<path d="M13 15.4398C13 15.4398 13 13.8264 15.4545 13.8264C17.9091 13.8264 17.9091 15.4398 17.9091 15.4398V16.5995H13V15.4398Z" fill="#7A91A9"/>
<path d="M15.4545 10.9524C14.7755 10.9524 14.2273 11.4929 14.2273 12.1625C14.2273 12.8321 14.7755 13.3726 15.4545 13.3726C16.1336 13.3726 16.6818 12.8321 16.6818 12.1625C16.6818 11.4929 16.1336 10.9524 15.4545 10.9524Z" fill="#7A91A9"/>
<path d="M18.2717 15.1877C18.2662 15.1598 18.2598 15.1301 18.2521 15.0989C18.205 14.9075 18.1113 14.6539 17.9245 14.4008C17.6511 14.0302 17.2069 13.6976 16.5065 13.5357C16.8671 13.2725 17.4219 13.0701 18.2755 13.0701C20.7143 13.0701 20.7143 14.7229 20.7143 14.7229V15.1877H18.2717Z" fill="#7A91A9"/>
<path d="M25.1824 3.94018C25.2141 4.12232 25.2313 4.30982 25.2313 4.47589C25.2313 4.69018 25.2141 4.87768 25.1824 5.05982L25.8215 5.59018C26.023 5.75893 26.1065 6.00268 26 6.25982C25.9338 6.37768 25.8618 6.54107 25.7812 6.675L25.692 6.81964C25.5797 6.95357 25.5106 7.08214 25.4098 7.20804C25.2457 7.41161 24.9578 7.47857 24.6987 7.39821L23.884 7.14911C23.576 7.3875 23.2248 7.57768 22.8419 7.71161L22.6432 8.48839C22.6116 8.7375 22.4043 8.93571 22.1337 8.96786C21.9408 8.98929 21.745 9 21.5464 9C21.3477 9 21.152 8.98929 20.9591 8.96786C20.6885 8.93571 20.4553 8.7375 20.4236 8.48839L20.225 7.71161C19.868 7.57768 19.5168 7.3875 19.2073 7.14911L18.3949 7.39821C18.136 7.47857 17.8476 7.41161 17.6835 7.20804C17.5816 7.08214 17.4866 6.95089 17.3991 6.81697L17.3121 6.675C17.2318 6.54107 17.1587 6.40179 17.0934 6.25982C16.9868 6.00268 17.0685 5.75893 17.2718 5.59018L17.9103 5.05982C17.8781 4.87768 17.8355 4.69018 17.8355 4.47589C17.8355 4.30982 17.8781 4.12232 17.9103 3.94018L17.2718 3.40982C17.0685 3.21696 16.9868 2.97321 17.0934 2.74018C17.1587 2.57411 17.2318 2.45866 17.3118 2.32393L17.3993 2.1833C17.4866 2.04804 17.5816 1.91732 17.6835 1.7917C17.8476 1.58946 18.136 1.52223 18.3949 1.60152L19.2073 1.85063C19.5168 1.61384 19.868 1.42313 20.225 1.28973L20.4236 0.511071C20.4553 0.2625 20.6885 0.0634822 20.9591 0.0329733C21.154 0.010982 21.3501 -2.92339e-05 21.5464 0C21.745 0 21.9408 0.0111966 22.1337 0.0329466C22.4043 0.0634823 22.6116 0.2625 22.6432 0.511071L22.8419 1.28973C23.2248 1.42313 23.576 1.61384 23.884 1.85063L24.6987 1.60152C24.9578 1.52223 25.2457 1.58946 25.4098 1.7917C25.5106 1.91679 25.5797 2.04696 25.692 2.18143L25.7812 2.3258C25.8618 2.46 25.9338 2.59821 26 2.74018C26.1065 2.97321 26.023 3.21696 25.8215 3.40982L25.1824 3.94018ZM21.5464 3.19018C20.7835 3.19018 20.1645 3.79018 20.1645 4.47589C20.1645 5.20982 20.7835 5.76161 21.5464 5.76161C22.3093 5.76161 22.9282 5.20982 22.9282 4.47589C22.9282 3.79018 22.3093 3.19018 21.5464 3.19018Z" fill="#7A91A9"/>
</g>
</g>
</svg>
