<svg width="25" height="24" viewBox="0 0 25 24" fill="none" xmlns="http://www.w3.org/2000/svg">
<g id="akar-icons:attach">
<path id="Vector" d="M6.5 7.91V16C6.5 17.5913 7.13214 19.1174 8.25736 20.2426C9.38258 21.3679 10.9087 22 12.5 22C14.0913 22 15.6174 21.3679 16.7426 20.2426C17.8679 19.1174 18.5 17.5913 18.5 16V6C18.5 4.93913 18.0786 3.92172 17.3284 3.17157C16.5783 2.42143 15.5609 2 14.5 2C13.4391 2 12.4217 2.42143 11.6716 3.17157C10.9214 3.92172 10.5 4.93913 10.5 6V15.182C10.5 15.4446 10.5517 15.7047 10.6522 15.9474C10.7528 16.19 10.9001 16.4105 11.0858 16.5962C11.2715 16.7819 11.492 16.9292 11.7346 17.0298C11.9773 17.1303 12.2374 17.182 12.5 17.182C13.0304 17.182 13.5391 16.9713 13.9142 16.5962C14.2893 16.2211 14.5 15.7124 14.5 15.182V8" stroke="black" stroke-width="2" stroke-linecap="round" stroke-linejoin="round"/>
</g>
</svg>
