<svg width="26" height="20" viewBox="0 0 26 20" fill="none" xmlns="http://www.w3.org/2000/svg">
<path d="M20.0436 11.5536V17.6363C20.0436 17.8533 19.8514 18.0369 19.6237 18.0369L2.47807 18.0371C2.25057 18.0371 2.05825 17.8535 2.05825 17.6365L2.05845 10.3549H17.1463C16.4401 9.8273 15.8565 9.15801 15.4413 8.39182H2.05824V7.04043C2.05824 6.82343 2.25036 6.63999 2.47807 6.63999H14.8309C14.7755 6.32056 14.7451 5.99286 14.7451 5.65836C14.7451 5.32408 14.7753 4.99637 14.8309 4.67693H2.47807C1.11181 4.67712 0 5.73747 0 7.04061V17.6361C0 18.9397 1.11186 19.9998 2.47807 19.9998L19.6242 20C20.9907 20 22.1023 18.9399 22.1023 17.6363L22.1025 11.5285C21.7442 11.5892 21.3757 11.623 20.9988 11.623C20.674 11.6226 20.3547 11.5994 20.0436 11.5536Z" fill="#7A91A9"/>
<path d="M4.19355 14.0347H7.67186V15.9978H4.19355V14.0347Z" fill="#7A91A9"/>
<path d="M25.0337 4.55307C25.0691 4.76355 25.0884 4.98021 25.0884 5.17212C25.0884 5.41973 25.0691 5.6364 25.0337 5.84687L25.7484 6.45973C25.9737 6.65473 26.0671 6.93639 25.948 7.23353C25.8739 7.36972 25.7935 7.55853 25.7033 7.71329L25.6035 7.88043C25.478 8.0352 25.4007 8.18377 25.288 8.32924C25.1045 8.56448 24.7826 8.64186 24.4928 8.549L23.5817 8.26115C23.2373 8.53662 22.8445 8.75638 22.4163 8.91114L22.1942 9.80876C22.1588 10.0966 21.927 10.3257 21.6243 10.3628C21.4086 10.3876 21.1897 10.3999 20.9676 10.3999C20.7454 10.3999 20.5265 10.3876 20.3108 10.3628C20.0082 10.3257 19.7474 10.0966 19.712 9.80876L19.4899 8.91114C19.0907 8.75638 18.6979 8.53662 18.3518 8.26115L17.4433 8.549C17.1539 8.64186 16.8313 8.56448 16.6478 8.32924C16.5338 8.18377 16.4276 8.0321 16.3297 7.87734L16.2325 7.71329C16.1427 7.55853 16.061 7.39758 15.988 7.23353C15.8687 6.93639 15.9601 6.65473 16.1874 6.45973L16.9015 5.84687C16.8654 5.6364 16.8178 5.41973 16.8178 5.17212C16.8178 4.98021 16.8654 4.76355 16.9015 4.55307L16.1874 3.94022C15.9601 3.71736 15.8687 3.4357 15.988 3.16641C16.061 2.97451 16.1427 2.8411 16.2322 2.68541L16.33 2.52292C16.4276 2.36661 16.5338 2.21556 16.6478 2.07039C16.8313 1.8367 17.1539 1.75901 17.4433 1.85063L18.3518 2.13849C18.6979 1.86487 19.0907 1.64449 19.4899 1.49035L19.712 0.590568C19.7474 0.303332 20.0082 0.0733568 20.3108 0.0381022C20.5287 0.0126902 20.7481 -3.37141e-05 20.9676 6.70872e-08C21.1897 6.70872e-08 21.4086 0.0129381 21.6243 0.0380713C21.927 0.0733568 22.1588 0.303332 22.1942 0.590568L22.4163 1.49035C22.8445 1.64449 23.2373 1.86487 23.5817 2.13849L24.4928 1.85063C24.7826 1.75901 25.1045 1.8367 25.288 2.07039C25.4007 2.21494 25.478 2.36537 25.6035 2.52075L25.7033 2.68758C25.7935 2.84265 25.8739 3.00237 25.948 3.16641C26.0671 3.4357 25.9737 3.71736 25.7484 3.94022L25.0337 4.55307ZM20.9676 3.68641C20.1144 3.68641 19.4223 4.37974 19.4223 5.17212C19.4223 6.02021 20.1144 6.65782 20.9676 6.65782C21.8207 6.65782 22.5129 6.02021 22.5129 5.17212C22.5129 4.37974 21.8207 3.68641 20.9676 3.68641Z" fill="#7A91A9"/>
</svg>
