<svg width="26" height="20" viewBox="0 0 26 20" fill="none" xmlns="http://www.w3.org/2000/svg">
<path fill-rule="evenodd" clip-rule="evenodd" d="M16.05 4.95C16.05 2.205 18.255 0 21 0C23.745 0 25.95 2.205 25.95 4.95C25.95 7.695 23.745 9.9 21 9.9C18.255 9.9 16.05 7.695 16.05 4.95ZM20.55 5.85H23.25C23.52 5.85 23.7 5.67 23.7 5.4C23.7 5.13 23.52 4.95 23.25 4.95H21V2.7C21 2.43 20.82 2.25 20.55 2.25C20.28 2.25 20.1 2.43 20.1 2.7V5.4C20.1 5.67 20.28 5.85 20.55 5.85Z" fill="#F4D150"/>
<path fill-rule="evenodd" clip-rule="evenodd" d="M21.4896 11.4146C21.2572 11.4271 21.0243 11.4271 20.792 11.4146C20.6176 11.4146 20.4556 11.4146 20.2937 11.3411C18.8794 11.0911 17.5904 10.3843 16.6311 9.3325C16.2362 8.9418 15.9081 8.49101 15.6594 7.99754H2.08044V6.5401C2.09211 6.43919 2.13985 6.34564 2.21514 6.27611C2.29043 6.20657 2.38838 6.16558 2.49155 6.16043H14.9493V6.08694C14.9288 5.76066 14.9288 5.43344 14.9493 5.10715C14.9525 4.76258 14.9817 4.41872 15.0365 4.07837H2.49155C1.83075 4.07837 1.19701 4.33644 0.729757 4.79581C0.262502 5.25517 0 5.87821 0 6.52785V17.5505C0 18.2002 0.262502 18.8232 0.729757 19.2826C1.19701 19.7419 1.83075 20 2.49155 20H19.8576C20.5184 20 21.1522 19.7419 21.6194 19.2826C22.0867 18.8232 22.3492 18.2002 22.3492 17.5505V11.3533C22.0643 11.3918 21.7772 11.4123 21.4896 11.4146ZM7.78609 15.8849H4.24809V13.8518H7.77363L7.78609 15.8849Z" fill="#F4D150"/>
</svg>
