<svg width="100" height="48" viewBox="0 0 100 48" fill="none" xmlns="http://www.w3.org/2000/svg">
<rect width="100" height="48" rx="8" fill="#F3FAFF"/>
<path d="M55.1775 14.5703H44.4004V33.4303H55.1775V14.5703Z" fill="#FF5A00"/>
<path d="M45.1393 24C45.1393 20.167 46.9782 16.765 49.8 14.567C47.7233 12.967 45.1036 12 42.2462 12C35.4771 12 30 17.367 30 24C30 30.633 35.4771 36 42.2462 36C45.1036 36 47.7233 35.033 49.8 33.433C46.9743 31.266 45.1393 27.833 45.1393 24Z" fill="#EB001B"/>
<path d="M69.6008 24C69.6008 30.633 64.1237 36 57.3546 36C54.4971 36 51.8775 35.033 49.8008 33.433C52.6582 31.2311 54.4615 27.833 54.4615 24C54.4615 20.167 52.6226 16.765 49.8008 14.567C51.8735 12.967 54.4932 12 57.3506 12C64.1237 12 69.6008 17.4019 69.6008 24Z" fill="#F79E1B"/>
</svg>
