<svg width="100" height="48" viewBox="0 0 100 48" fill="none" xmlns="http://www.w3.org/2000/svg">
<rect width="100" height="48" rx="8" fill="#F3FAFF"/>
<path fill-rule="evenodd" clip-rule="evenodd" d="M19.0947 13.0036C19.7802 12.9995 21.8172 12.8154 22.6801 15.7375C23.2613 17.706 24.1872 20.9303 25.4577 25.4106H25.9751C27.3376 20.6872 28.2735 17.4628 28.783 15.7375C29.6548 12.7849 31.8344 13.0036 32.7062 13.0036L39.4327 13.0036V34H32.5769V21.6265H32.1172L28.2954 34H23.1373L19.3155 21.6173H18.8558V34H12V13.0036L19.0947 13.0036ZM49.2775 13.0036V25.3863H49.8244L54.4733 15.2041C55.3757 13.1779 57.299 13.0036 57.299 13.0036H63.9334V34H56.9344V21.6173H56.3875L51.8298 31.7995C50.9274 33.8166 48.9129 34 48.9129 34H42.2785V13.0036H49.2775ZM88.125 22.9813C87.1487 25.7574 84.0828 27.7455 80.6884 27.7455H73.3486V34H66.693V22.9813H88.125Z" fill="#0F754E"/>
<path fill-rule="evenodd" clip-rule="evenodd" d="M81.4607 13H67.125C67.4662 17.7143 71.3877 21.75 75.4473 21.75H88.8684C89.6429 17.8319 86.9767 13 81.4607 13Z" fill="url(#paint0_linear_1699_121786)"/>
<defs>
<linearGradient id="paint0_linear_1699_121786" x1="2254.63" y1="563.413" x2="67.125" y2="563.413" gradientUnits="userSpaceOnUse">
<stop stop-color="#1F5CD7"/>
<stop offset="1" stop-color="#02AEFF"/>
</linearGradient>
</defs>
</svg>
