<svg width="26" height="20" viewBox="0 0 26 20" fill="none" xmlns="http://www.w3.org/2000/svg">
<path fill-rule="evenodd" clip-rule="evenodd" d="M18.1999 0.834225C19.014 0.290312 19.971 0 20.95 0C22.2609 0.00628732 23.5163 0.529822 24.4432 1.45677C25.3702 2.38371 25.8937 3.63912 25.9 4.95C25.9 5.92902 25.6097 6.88605 25.0658 7.70007C24.5219 8.51409 23.7488 9.14855 22.8443 9.5232C21.9398 9.89786 20.9445 9.99588 19.9843 9.80488C19.0241 9.61389 18.1421 9.14245 17.4498 8.45018C16.7576 7.75791 16.2861 6.8759 16.0951 5.9157C15.9041 4.95549 16.0021 3.96021 16.3768 3.05572C16.7515 2.15122 17.3859 1.37814 18.1999 0.834225ZM20.3761 6.99456L23.2457 4.125C23.2879 4.08019 23.3206 4.02725 23.3418 3.9694C23.363 3.91156 23.3722 3.85001 23.3688 3.7885C23.3655 3.72699 23.3496 3.66681 23.3223 3.61161C23.295 3.5564 23.2567 3.50734 23.2098 3.46739C23.1694 3.42159 23.1197 3.38491 23.0641 3.35978C23.0084 3.33466 22.948 3.32166 22.887 3.32166C22.8259 3.32166 22.7655 3.33466 22.7099 3.35978C22.6542 3.38491 22.6045 3.42159 22.5641 3.46739L19.9815 6.01413L19.1207 5.1413C19.0315 5.06457 18.9166 5.02438 18.7991 5.02878C18.6815 5.03318 18.57 5.08185 18.4868 5.16503C18.4036 5.24821 18.3549 5.35976 18.3505 5.47731C18.3461 5.59487 18.3863 5.70974 18.463 5.79891L19.6587 6.99456C19.7081 7.04089 19.7665 7.07649 19.8303 7.09912C19.894 7.12176 19.9618 7.13094 20.0293 7.12609C20.0931 7.12904 20.1567 7.1189 20.2164 7.09628C20.276 7.07365 20.3304 7.03904 20.3761 6.99456Z" fill="#71D472"/>
<path fill-rule="evenodd" clip-rule="evenodd" d="M21.4896 11.4146C21.2572 11.4271 21.0243 11.4271 20.792 11.4146C20.6176 11.4146 20.4556 11.4146 20.2937 11.3411C18.8794 11.0911 17.5904 10.3843 16.6311 9.3325C16.2362 8.9418 15.9081 8.49101 15.6594 7.99754H2.08044V6.5401C2.09211 6.43919 2.13985 6.34564 2.21514 6.27611C2.29043 6.20657 2.38838 6.16558 2.49155 6.16043H14.9493V6.08694C14.9288 5.76066 14.9288 5.43344 14.9493 5.10715C14.9525 4.76258 14.9817 4.41872 15.0365 4.07837H2.49155C1.83075 4.07837 1.19701 4.33644 0.729757 4.79581C0.262502 5.25517 0 5.87821 0 6.52785V17.5505C0 18.2002 0.262502 18.8232 0.729757 19.2826C1.19701 19.7419 1.83075 20 2.49155 20H19.8576C20.5184 20 21.1522 19.7419 21.6194 19.2826C22.0867 18.8232 22.3492 18.2002 22.3492 17.5505V11.3533C22.0643 11.3918 21.7772 11.4123 21.4896 11.4146ZM7.78609 15.8849H4.24809V13.8518H7.77363L7.78609 15.8849Z" fill="#71D472"/>
</svg>
