<svg width="103" height="48" viewBox="0 0 103 48" fill="none" xmlns="http://www.w3.org/2000/svg">
<rect x="0.126953" width="102.128" height="48" rx="8" fill="#F3FAFF"/>
<path d="M68 14.3226C69.1046 14.3226 70 15.218 70 16.3226V34C70 35.1046 69.1046 36 68 36H36.47C35.3654 36 34.47 35.1046 34.47 34V32.9032H34C32.8954 32.9032 32 32.0078 32 30.9032V14C32 12.8954 32.8954 12 34 12H64.58C65.6846 12 66.58 12.8954 66.58 14V14.3226H68ZM61.64 14.3226C61.64 14.6492 61.7043 14.9516 61.833 15.2298C61.9616 15.5081 62.1353 15.75 62.354 15.9556C62.5727 16.1613 62.8364 16.3306 63.1452 16.4637C63.4539 16.5968 63.7755 16.6573 64.11 16.6452V15.3226C64.11 14.7703 63.6623 14.3226 63.11 14.3226H61.64ZM34.47 16.6452C34.8173 16.6452 35.139 16.5847 35.4348 16.4637C35.7307 16.3427 35.988 16.1794 36.2067 15.9738C36.4254 15.7681 36.6055 15.5202 36.747 15.2298C36.8885 14.9395 36.9529 14.6371 36.94 14.3226H35.47C34.9177 14.3226 34.47 14.7703 34.47 15.3226V16.6452ZM34.47 25.9355C35.1518 25.9355 35.7886 26.0565 36.3804 26.2984C36.9722 26.5403 37.4996 26.873 37.9627 27.2964C38.4259 27.7198 38.7796 28.2097 39.0241 28.7661C39.2685 29.3226 39.3971 29.9274 39.41 30.5806H59.17C59.17 29.9395 59.2986 29.3407 59.5559 28.7843C59.8132 28.2278 60.167 27.7319 60.6173 27.2964C61.0675 26.8609 61.5885 26.5282 62.1803 26.2984C62.7721 26.0685 63.4153 25.9476 64.11 25.9355V18.9677C63.4282 18.9677 62.7914 18.8468 62.1996 18.6048C61.6078 18.3629 61.0804 18.0302 60.6173 17.6069C60.1541 17.1835 59.8004 16.6935 59.5559 16.1371C59.3115 15.5806 59.1829 14.9758 59.17 14.3226H39.41C39.41 14.9637 39.2814 15.5625 39.0241 16.119C38.7668 16.6754 38.413 17.1714 37.9627 17.6069C37.5125 18.0423 36.9915 18.375 36.3997 18.6048C35.8079 18.8347 35.1647 18.9556 34.47 18.9677V25.9355ZM64.11 28.2581C63.7627 28.2581 63.441 28.3185 63.1452 28.4395C62.8493 28.5605 62.592 28.7238 62.3733 28.9294C62.1546 29.1351 61.9745 29.3831 61.833 29.6734C61.6915 29.9637 61.6271 30.2661 61.64 30.5806H63.11C63.6623 30.5806 64.11 30.1329 64.11 29.5806V28.2581ZM34.47 29.5806C34.47 30.1329 34.9177 30.5806 35.47 30.5806H36.94C36.94 30.254 36.8757 29.9516 36.747 29.6734C36.6184 29.3952 36.4447 29.1532 36.226 28.9476C36.0073 28.7419 35.7436 28.5726 35.4348 28.4395C35.1261 28.3065 34.8045 28.246 34.47 28.2581V29.5806ZM67.53 17.5952C67.53 17.0705 67.1047 16.6452 66.58 16.6452V30.7366C66.58 31.9332 65.61 32.9032 64.4133 32.9032H36.94C36.94 33.3308 37.2866 33.6774 37.7142 33.6774H66.53C67.0823 33.6774 67.53 33.2297 67.53 32.6774V17.5952ZM40.645 23.6129C40.3105 23.6129 40.0211 23.498 39.7766 23.2681C39.5322 23.0383 39.41 22.7661 39.41 22.4516C39.41 22.1371 39.5322 21.8649 39.7766 21.6351C40.0211 21.4052 40.3105 21.2903 40.645 21.2903C40.9795 21.2903 41.2689 21.4052 41.5134 21.6351C41.7578 21.8649 41.88 22.1371 41.88 22.4516C41.88 22.7661 41.7578 23.0383 41.5134 23.2681C41.2689 23.498 40.9795 23.6129 40.645 23.6129ZM57.935 23.6129C57.6005 23.6129 57.3111 23.498 57.0666 23.2681C56.8222 23.0383 56.7 22.7661 56.7 22.4516C56.7 22.1371 56.8222 21.8649 57.0666 21.6351C57.3111 21.4052 57.6005 21.2903 57.935 21.2903C58.2695 21.2903 58.5589 21.4052 58.8034 21.6351C59.0478 21.8649 59.17 22.1371 59.17 22.4516C59.17 22.7661 59.0478 23.0383 58.8034 23.2681C58.5589 23.498 58.2695 23.6129 57.935 23.6129Z" fill="#0082DE"/>
<path d="M47.2749 26.7101V24.8598H45.9967V23.9054L47.2749 23.8202V22.8829H45.9967V21.9286L47.2749 21.8434V16.6455H50.0005C50.79 16.6455 51.5044 16.7535 52.1435 16.9693C52.7826 17.1738 53.2901 17.5033 53.6661 17.9578C54.042 18.4122 54.23 19.003 54.23 19.7301C54.23 20.4686 54.0358 21.0708 53.6473 21.5366C53.2588 22.0024 52.745 22.3433 52.1059 22.5591C51.4668 22.775 50.765 22.8829 50.0005 22.8829H49.3238V23.8032H51.76V24.8598H49.3238V26.7101H47.2749ZM49.3238 21.8263H49.869C50.6083 21.8263 51.1785 21.6559 51.5795 21.3151C51.9931 20.9628 52.1999 20.4686 52.1999 19.8324C52.1999 19.1394 51.9931 18.6451 51.5795 18.3497C51.1785 18.0543 50.6083 17.9066 49.869 17.9066H49.3238V21.8263Z" fill="#0082DE"/>
</svg>
