<svg width="25" height="16" viewBox="0 0 25 16" fill="none" xmlns="http://www.w3.org/2000/svg">
<path d="M23 1.54836C24.1046 1.54836 25 2.44379 25 3.54836V14C25 15.1045 24.1046 16 23 16H3.625C2.52043 16 1.625 15.1045 1.625 14V13.9355C0.727537 13.9355 0 13.2079 0 12.3105V1.99997C0 0.8954 0.895431 -3.05176e-05 2 -3.05176e-05H21.2016C22.0568 -3.05176e-05 22.75 0.693206 22.75 1.54836H23ZM19.5 1.54836C19.5 1.7661 19.5423 1.96771 19.627 2.15319C19.7116 2.33868 19.8258 2.49997 19.9697 2.63707C20.1136 2.77416 20.2871 2.88707 20.4902 2.97578C20.6934 3.06449 20.9049 3.10481 21.125 3.09674V2.54836C21.125 1.99607 20.6773 1.54836 20.125 1.54836H19.5ZM1.625 3.09674C1.85352 3.09674 2.0651 3.05642 2.25977 2.97578C2.45443 2.89513 2.6237 2.78626 2.76758 2.64916C2.91146 2.51207 3.02995 2.34674 3.12305 2.15319C3.21615 1.95965 3.25846 1.75803 3.25 1.54836H2.625C2.07272 1.54836 1.625 1.99607 1.625 2.54836V3.09674ZM1.625 9.29029C2.07357 9.29029 2.49251 9.37094 2.88184 9.53223C3.27116 9.69352 3.61816 9.91529 3.92285 10.1976C4.22754 10.4798 4.46029 10.8064 4.62109 11.1774C4.7819 11.5484 4.86654 11.9516 4.875 12.3871H17.875C17.875 11.9596 17.9596 11.5605 18.1289 11.1895C18.2982 10.8185 18.5309 10.4879 18.8271 10.1976C19.1234 9.90723 19.4661 9.68545 19.8555 9.53223C20.2448 9.379 20.668 9.29836 21.125 9.29029V4.64513C20.6764 4.64513 20.2575 4.56448 19.8682 4.40319C19.4788 4.2419 19.1318 4.02013 18.8271 3.73787C18.5225 3.45561 18.2897 3.129 18.1289 2.75803C17.9681 2.38707 17.8835 1.98384 17.875 1.54836H4.875C4.875 1.97578 4.79036 2.37497 4.62109 2.74594C4.45182 3.1169 4.21908 3.44755 3.92285 3.73787C3.62663 4.02819 3.28385 4.24997 2.89453 4.40319C2.50521 4.55642 2.08203 4.63706 1.625 4.64513V9.29029ZM21.125 10.8387C20.8965 10.8387 20.6849 10.879 20.4902 10.9596C20.2956 11.0403 20.1263 11.1492 19.9824 11.2863C19.8385 11.4234 19.7201 11.5887 19.627 11.7822C19.5339 11.9758 19.4915 12.1774 19.5 12.3871H20.125C20.6773 12.3871 21.125 11.9394 21.125 11.3871V10.8387ZM1.625 11.3871C1.625 11.9394 2.07272 12.3871 2.625 12.3871H3.25C3.25 12.1693 3.20768 11.9677 3.12305 11.7822C3.03841 11.5967 2.92415 11.4355 2.78027 11.2984C2.63639 11.1613 2.46289 11.0484 2.25977 10.9596C2.05664 10.8709 1.84505 10.8306 1.625 10.8387V11.3871ZM23.375 3.72174C23.375 3.37657 23.0952 3.09674 22.75 3.09674V11.7688C22.75 12.9654 21.7799 13.9355 20.5833 13.9355H3.25C3.25 14.2205 3.48108 14.4516 3.76613 14.4516H22.375C22.9273 14.4516 23.375 14.0039 23.375 13.4516V3.72174ZM5.6875 7.7419C5.46745 7.7419 5.27702 7.66529 5.11621 7.51207C4.9554 7.35884 4.875 7.17739 4.875 6.96771C4.875 6.75803 4.9554 6.57658 5.11621 6.42336C5.27702 6.27013 5.46745 6.19352 5.6875 6.19352C5.90755 6.19352 6.09798 6.27013 6.25879 6.42336C6.4196 6.57658 6.5 6.75803 6.5 6.96771C6.5 7.17739 6.4196 7.35884 6.25879 7.51207C6.09798 7.66529 5.90755 7.7419 5.6875 7.7419ZM17.0625 7.7419C16.8424 7.7419 16.652 7.66529 16.4912 7.51207C16.3304 7.35884 16.25 7.17739 16.25 6.96771C16.25 6.75803 16.3304 6.57658 16.4912 6.42336C16.652 6.27013 16.8424 6.19352 17.0625 6.19352C17.2826 6.19352 17.473 6.27013 17.6338 6.42336C17.7946 6.57658 17.875 6.75803 17.875 6.96771C17.875 7.17739 17.7946 7.35884 17.6338 7.51207C17.473 7.66529 17.2826 7.7419 17.0625 7.7419Z" fill="#7A91A9"/>
<path d="M10.0493 9.80668V8.57316H9.20833V7.93693L10.0493 7.88012V7.25525H9.20833V6.61901L10.0493 6.5622V3.097H11.8425C12.3619 3.097 12.8318 3.16895 13.2523 3.31286C13.6728 3.4492 14.0067 3.66885 14.254 3.97182C14.5013 4.27479 14.625 4.66865 14.625 5.1534C14.625 5.64572 14.4972 6.04716 14.2416 6.3577C13.986 6.66824 13.648 6.89547 13.2276 7.03938C12.8071 7.18329 12.3454 7.25525 11.8425 7.25525H11.3973V7.86876H13V8.57316H11.3973V9.80668H10.0493ZM11.3973 6.55084H11.7559C12.2423 6.55084 12.6175 6.43723 12.8813 6.21C13.1533 5.9752 13.2894 5.64572 13.2894 5.22157C13.2894 4.75954 13.1533 4.43006 12.8813 4.23313C12.6175 4.0362 12.2423 3.93774 11.7559 3.93774H11.3973V6.55084Z" fill="#7A91A9"/>
</svg>
