<svg width="100" height="48" viewBox="0 0 100 48" fill="none" xmlns="http://www.w3.org/2000/svg">
<rect width="100" height="48" rx="8" fill="#F3FAFF"/>
<path d="M45.0668 35.6535H39.0723L42.8217 12.4209H48.8159L45.0668 35.6535Z" fill="#00579F"/>
<path d="M66.7964 12.9891C65.614 12.519 63.7386 12 61.4198 12C55.5 12 51.3313 15.1634 51.3057 19.6862C51.2566 23.0231 54.2904 24.8764 56.5594 25.9891C58.8786 27.126 59.667 27.8681 59.667 28.8815C59.6434 30.4379 57.793 31.1553 56.0671 31.1553C53.6738 31.1553 52.3914 30.7854 50.4426 29.9195L49.6533 29.5483L48.8145 34.7635C50.2204 35.4054 52.8107 35.975 55.5 36C61.7898 36 65.8848 32.8855 65.9333 28.0658C65.9572 25.4211 64.3552 23.3946 60.9015 21.7386C58.8049 20.6756 57.5209 19.9588 57.5209 18.8712C57.5455 17.8824 58.6069 16.8696 60.9736 16.8696C62.9224 16.82 64.3542 17.2895 65.4389 17.7592L65.9811 18.0059L66.7964 12.9891Z" fill="#00579F"/>
<path d="M74.7647 27.424C75.2584 26.0893 77.158 20.9237 77.158 20.9237C77.1331 20.9733 77.6507 19.5644 77.9467 18.6995L78.3656 20.7013C78.3656 20.7013 79.5008 26.2624 79.7473 27.424C78.8105 27.424 75.9488 27.424 74.7647 27.424ZM82.1642 12.4219H77.5275C76.0976 12.4219 75.0112 12.8417 74.3943 14.3495L65.4902 35.6542H71.7801C71.7801 35.6542 72.8156 32.7867 73.0382 32.1692C73.7282 32.1692 79.847 32.1692 80.7347 32.1692C80.9068 32.9848 81.4499 35.6542 81.4499 35.6542H87.0003L82.1642 12.4219Z" fill="#00579F"/>
<path d="M34.0656 12.4219L28.195 28.2643L27.5534 25.0513C26.4681 21.3439 23.0642 17.3158 19.2656 15.313L24.6429 35.6299H30.9819L40.4043 12.4219H34.0656Z" fill="#00579F"/>
<path d="M22.7433 12.4209H13.0987L13 12.8903C20.5234 14.8183 25.506 19.4655 27.5531 25.0513L25.4565 14.3738C25.1113 12.89 24.0505 12.4698 22.7433 12.4209Z" fill="#FAA61A"/>
</svg>
