<svg width="26" height="20" viewBox="0 0 26 20" fill="none" xmlns="http://www.w3.org/2000/svg">
<path fill-rule="evenodd" clip-rule="evenodd" d="M18.0799 0.984736C18.9334 0.36336 19.9663 -0.00493602 21.0257 4.99852e-05C22.337 4.99852e-05 23.5946 0.515709 24.5218 1.43359C25.449 2.35147 25.9699 3.59638 25.9699 4.89446C25.9699 6.19253 25.449 7.43745 24.5218 8.35532C23.5946 9.2732 22.337 9.78886 21.0257 9.78886C20.8667 9.80101 20.707 9.80101 20.548 9.78886C19.7253 9.71773 18.9353 9.43667 18.255 8.97313C17.3751 8.38898 16.7086 7.5399 16.3542 6.55158C15.9997 5.56326 15.9762 4.48823 16.287 3.48562C16.5978 2.48301 17.2265 1.60611 18.0799 0.984736ZM20.9394 6.8481L23.1807 4.62938C22.8036 4.47353 22.4612 4.24582 22.1728 3.95921C21.8831 3.67368 21.653 3.33456 21.4955 2.96114L19.2541 5.17987C19.0793 5.35292 18.9917 5.43967 18.9165 5.53505C18.8277 5.64763 18.7516 5.76944 18.6895 5.89834C18.6374 6.00683 18.5985 6.12244 18.5213 6.35168L18.1071 7.58098C18.0881 7.63706 18.0852 7.69727 18.0989 7.75485C18.1126 7.81244 18.1422 7.8651 18.1845 7.90692C18.2267 7.94875 18.2799 7.97808 18.3381 7.99162C18.3963 8.00516 18.4571 8.00237 18.5138 7.98356L19.7511 7.57498C19.986 7.49758 20.1033 7.45888 20.2136 7.40698C20.3439 7.34549 20.4669 7.27019 20.5806 7.18229C20.6769 7.10789 20.7645 7.0212 20.9394 6.8481ZM23.8026 4.0138C24.0261 3.79258 24.1516 3.49254 24.1516 3.17968C24.1516 2.86683 24.0261 2.56679 23.8026 2.34556C23.5791 2.12434 23.276 2.00006 22.96 2.00006C22.6439 2.00006 22.3408 2.12434 22.1173 2.34556L21.8485 2.61165L21.86 2.64495C21.9925 3.02016 22.2093 3.3607 22.494 3.64092C22.7856 3.93122 23.1416 4.15003 23.5338 4.2799L23.8026 4.0138Z" fill="#7A91A9"/>
<path fill-rule="evenodd" clip-rule="evenodd" d="M20.792 11.4146C21.0243 11.4271 21.2572 11.4271 21.4896 11.4146C21.7772 11.4123 22.0643 11.3918 22.3492 11.3533V17.5505C22.3492 18.2002 22.0867 18.8232 21.6194 19.2826C21.1522 19.7419 20.5184 20 19.8576 20H2.49155C1.83075 20 1.19701 19.7419 0.729757 19.2826C0.262502 18.8232 0 18.2002 0 17.5505V6.52785C0 5.87821 0.262502 5.25517 0.729757 4.79581C1.19701 4.33644 1.83075 4.07837 2.49155 4.07837H15.0365C14.9817 4.41872 14.9525 4.76258 14.9493 5.10715C14.9288 5.43344 14.9288 5.76066 14.9493 6.08694V6.16043H2.49155C2.38838 6.16558 2.29043 6.20657 2.21514 6.27611C2.13985 6.34564 2.09211 6.43919 2.08044 6.5401V7.99754H15.6594C15.9081 8.49101 16.2362 8.9418 16.6311 9.3325C17.5904 10.3843 18.8794 11.0911 20.2937 11.3411C20.4556 11.4146 20.6176 11.4146 20.792 11.4146ZM4.24809 15.8849H7.78609L7.77363 13.8518H4.24809V15.8849Z" fill="#7A91A9"/>
</svg>
