<svg width="103" height="48" viewBox="0 0 103 48" fill="none" xmlns="http://www.w3.org/2000/svg">
<rect width="102.128" height="48" rx="8" fill="#F3FAFF"/>
<path d="M18.958 31.5V18.46H21.898V23.48H26.398V18.46H29.358V31.5H26.398V26.06H21.898V31.5H18.958ZM34.6945 31.74C33.7879 31.74 33.0679 31.4533 32.5345 30.88C32.0012 30.2933 31.7345 29.58 31.7345 28.74C31.7345 27.7 32.1745 26.8867 33.0545 26.3C33.9345 25.7133 35.3545 25.32 37.3145 25.12C37.2879 24.68 37.1545 24.3333 36.9145 24.08C36.6879 23.8133 36.3012 23.68 35.7545 23.68C35.3412 23.68 34.9212 23.76 34.4945 23.92C34.0679 24.08 33.6145 24.3 33.1345 24.58L32.0745 22.64C32.7012 22.2533 33.3679 21.94 34.0745 21.7C34.7945 21.46 35.5412 21.34 36.3145 21.34C37.5812 21.34 38.5545 21.7067 39.2345 22.44C39.9145 23.1733 40.2545 24.3 40.2545 25.82V31.5H37.8545L37.6545 30.48H37.5745C37.1612 30.8533 36.7145 31.16 36.2345 31.4C35.7679 31.6267 35.2545 31.74 34.6945 31.74ZM35.6945 29.46C36.0279 29.46 36.3145 29.3867 36.5545 29.24C36.8079 29.08 37.0612 28.8733 37.3145 28.62V26.88C36.2745 27.0133 35.5545 27.2267 35.1545 27.52C34.7545 27.8 34.5545 28.1333 34.5545 28.52C34.5545 28.84 34.6545 29.08 34.8545 29.24C35.0679 29.3867 35.3479 29.46 35.6945 29.46ZM51.0653 31.74C50.1453 31.74 49.312 31.54 48.5653 31.14C47.832 30.7267 47.2453 30.1333 46.8053 29.36C46.3786 28.5733 46.1653 27.6333 46.1653 26.54C46.1653 25.4333 46.4053 24.4933 46.8853 23.72C47.3653 22.9467 47.9986 22.36 48.7853 21.96C49.572 21.5467 50.4186 21.34 51.3253 21.34C51.9386 21.34 52.4786 21.44 52.9453 21.64C53.4253 21.84 53.852 22.0933 54.2253 22.4L52.8453 24.3C52.3786 23.9133 51.932 23.72 51.5053 23.72C50.7986 23.72 50.232 23.9733 49.8053 24.48C49.392 24.9867 49.1853 25.6733 49.1853 26.54C49.1853 27.3933 49.392 28.08 49.8053 28.6C50.232 29.1067 50.7653 29.36 51.4053 29.36C51.7253 29.36 52.0386 29.2933 52.3453 29.16C52.652 29.0133 52.932 28.84 53.1853 28.64L54.3453 30.56C53.852 30.9867 53.3186 31.2933 52.7453 31.48C52.172 31.6533 51.612 31.74 51.0653 31.74ZM61.3459 31.5V28.12C61.0793 28.1733 60.8259 28.2133 60.5859 28.24C60.3459 28.2667 60.0193 28.28 59.6059 28.28C58.8193 28.28 58.1193 28.1533 57.5059 27.9C56.8926 27.6333 56.4126 27.22 56.0659 26.66C55.7193 26.1 55.5459 25.36 55.5459 24.44V21.58H58.4859V24.44C58.4859 24.9467 58.6259 25.3333 58.9059 25.6C59.1859 25.8533 59.6326 25.98 60.2459 25.98C60.4593 25.98 60.6526 25.9733 60.8259 25.96C60.9993 25.9333 61.1726 25.9 61.3459 25.86V21.58H64.2859V31.5H61.3459ZM71.322 31.74C70.3754 31.74 69.522 31.5333 68.762 31.12C68.002 30.7067 67.402 30.1133 66.962 29.34C66.522 28.5667 66.302 27.6333 66.302 26.54C66.302 25.46 66.522 24.5333 66.962 23.76C67.4154 22.9867 68.002 22.3933 68.722 21.98C69.442 21.5533 70.1954 21.34 70.982 21.34C71.9287 21.34 72.7087 21.5533 73.322 21.98C73.9487 22.3933 74.4154 22.96 74.722 23.68C75.042 24.3867 75.202 25.1933 75.202 26.1C75.202 26.3533 75.1887 26.6067 75.162 26.86C75.1354 27.1 75.1087 27.28 75.082 27.4H69.142C69.2754 28.12 69.5754 28.6533 70.042 29C70.5087 29.3333 71.0687 29.5 71.722 29.5C72.4287 29.5 73.142 29.28 73.862 28.84L74.842 30.62C74.3354 30.9667 73.7687 31.24 73.142 31.44C72.5154 31.64 71.9087 31.74 71.322 31.74ZM69.122 25.46H72.702C72.702 24.9133 72.5687 24.4667 72.302 24.12C72.0487 23.76 71.6287 23.58 71.042 23.58C70.5887 23.58 70.182 23.74 69.822 24.06C69.462 24.3667 69.2287 24.8333 69.122 25.46ZM79.1783 31.5V23.88H76.2583V21.58H85.0583V23.88H82.1183V31.5H79.1783Z" fill="#0082DE"/>
</svg>
