<svg width="103" height="48" viewBox="0 0 103 48" fill="none" xmlns="http://www.w3.org/2000/svg">
<rect x="0.255859" width="102.128" height="48" rx="8" fill="#F3FAFF"/>
<path d="M56.3327 22.9997C64.3327 22.9997 64.3327 28.333 64.3327 28.333V30.9997H56.3327V28.333C56.3327 28.333 56.3327 26.0797 54.7994 24.0663C54.5727 23.7597 54.2927 23.4663 53.9993 23.1863C54.6927 23.0797 55.4527 22.9997 56.3327 22.9997ZM37.666 28.333C37.666 28.333 37.666 22.9997 45.666 22.9997C53.666 22.9997 53.666 28.333 53.666 28.333V30.9997H37.666V28.333ZM46.9993 33.6663V36.333H54.9993V33.6663L58.9993 37.6663L54.9993 41.6663V38.9997H46.9993V41.6663L42.9993 37.6663L46.9993 33.6663ZM45.666 12.333C43.4527 12.333 41.666 14.1197 41.666 16.333C41.666 18.5463 43.4527 20.333 45.666 20.333C47.8793 20.333 49.666 18.5463 49.666 16.333C49.666 14.1197 47.8793 12.333 45.666 12.333ZM56.3327 12.333C54.1194 12.333 52.3327 14.1197 52.3327 16.333C52.3327 18.5463 54.1194 20.333 56.3327 20.333C58.546 20.333 60.3327 18.5463 60.3327 16.333C60.3327 14.1197 58.546 12.333 56.3327 12.333Z" fill="#0082DE"/>
</svg>
