<svg width="25" height="16" viewBox="0 0 25 16" fill="none" xmlns="http://www.w3.org/2000/svg">
<path d="M23 1.54839C24.1046 1.54839 25 2.44382 25 3.54839V14C25 15.1046 24.1046 16 23 16H3.625C2.52043 16 1.625 15.1046 1.625 14V13.9355C0.727537 13.9355 0 13.2079 0 12.3105V2C0 0.89543 0.895431 0 2 0H21.2016C22.0568 0 22.75 0.693237 22.75 1.54839H23ZM19.5 1.54839C19.5 1.76613 19.5423 1.96774 19.627 2.15322C19.7116 2.33871 19.8258 2.5 19.9697 2.6371C20.1136 2.77419 20.2871 2.8871 20.4902 2.97581C20.6934 3.06452 20.9049 3.10484 21.125 3.09677V2.54839C21.125 1.9961 20.6773 1.54839 20.125 1.54839H19.5ZM1.625 3.09677C1.85352 3.09677 2.0651 3.05645 2.25977 2.97581C2.45443 2.89516 2.6237 2.78629 2.76758 2.64919C2.91146 2.5121 3.02995 2.34677 3.12305 2.15322C3.21615 1.95968 3.25846 1.75807 3.25 1.54839H2.625C2.07272 1.54839 1.625 1.9961 1.625 2.54839V3.09677ZM1.625 9.29032C2.07357 9.29032 2.49251 9.37097 2.88184 9.53226C3.27116 9.69355 3.61816 9.91532 3.92285 10.1976C4.22754 10.4798 4.46029 10.8065 4.62109 11.1774C4.7819 11.5484 4.86654 11.9516 4.875 12.3871H17.875C17.875 11.9597 17.9596 11.5605 18.1289 11.1895C18.2982 10.8185 18.5309 10.4879 18.8271 10.1976C19.1234 9.90726 19.4661 9.68548 19.8555 9.53226C20.2448 9.37903 20.668 9.29839 21.125 9.29032V4.64516C20.6764 4.64516 20.2575 4.56451 19.8682 4.40322C19.4788 4.24193 19.1318 4.02016 18.8271 3.7379C18.5225 3.45564 18.2897 3.12903 18.1289 2.75806C17.9681 2.3871 17.8835 1.98387 17.875 1.54839H4.875C4.875 1.97581 4.79036 2.375 4.62109 2.74597C4.45182 3.11693 4.21908 3.44758 3.92285 3.7379C3.62663 4.02823 3.28385 4.25 2.89453 4.40322C2.50521 4.55645 2.08203 4.63709 1.625 4.64516V9.29032ZM21.125 10.8387C20.8965 10.8387 20.6849 10.879 20.4902 10.9597C20.2956 11.0403 20.1263 11.1492 19.9824 11.2863C19.8385 11.4234 19.7201 11.5887 19.627 11.7823C19.5339 11.9758 19.4915 12.1774 19.5 12.3871H20.125C20.6773 12.3871 21.125 11.9394 21.125 11.3871V10.8387ZM1.625 11.3871C1.625 11.9394 2.07272 12.3871 2.625 12.3871H3.25C3.25 12.1694 3.20768 11.9677 3.12305 11.7823C3.03841 11.5968 2.92415 11.4355 2.78027 11.2984C2.63639 11.1613 2.46289 11.0484 2.25977 10.9597C2.05664 10.871 1.84505 10.8306 1.625 10.8387V11.3871ZM23.375 3.72177C23.375 3.3766 23.0952 3.09677 22.75 3.09677V11.7688C22.75 12.9654 21.7799 13.9355 20.5833 13.9355H3.25C3.25 14.2205 3.48108 14.4516 3.76613 14.4516H22.375C22.9273 14.4516 23.375 14.0039 23.375 13.4516V3.72177ZM5.6875 7.74193C5.46745 7.74193 5.27702 7.66532 5.11621 7.5121C4.9554 7.35887 4.875 7.17742 4.875 6.96774C4.875 6.75806 4.9554 6.57661 5.11621 6.42339C5.27702 6.27016 5.46745 6.19355 5.6875 6.19355C5.90755 6.19355 6.09798 6.27016 6.25879 6.42339C6.4196 6.57661 6.5 6.75806 6.5 6.96774C6.5 7.17742 6.4196 7.35887 6.25879 7.5121C6.09798 7.66532 5.90755 7.74193 5.6875 7.74193ZM17.0625 7.74193C16.8424 7.74193 16.652 7.66532 16.4912 7.5121C16.3304 7.35887 16.25 7.17742 16.25 6.96774C16.25 6.75806 16.3304 6.57661 16.4912 6.42339C16.652 6.27016 16.8424 6.19355 17.0625 6.19355C17.2826 6.19355 17.473 6.27016 17.6338 6.42339C17.7946 6.57661 17.875 6.75806 17.875 6.96774C17.875 7.17742 17.7946 7.35887 17.6338 7.5121C17.473 7.66532 17.2826 7.74193 17.0625 7.74193Z" fill="#71D472"/>
<path d="M10.0493 9.80671V8.57319H9.20833V7.93696L10.0493 7.88015V7.25528H9.20833V6.61904L10.0493 6.56224V3.09703H11.8425C12.3619 3.09703 12.8318 3.16898 13.2523 3.31289C13.6728 3.44923 14.0067 3.66888 14.254 3.97185C14.5013 4.27482 14.625 4.66868 14.625 5.15343C14.625 5.64575 14.4972 6.04719 14.2416 6.35773C13.986 6.66827 13.648 6.8955 13.2276 7.03941C12.8071 7.18332 12.3454 7.25528 11.8425 7.25528H11.3973V7.86879H13V8.57319H11.3973V9.80671H10.0493ZM11.3973 6.55087H11.7559C12.2423 6.55087 12.6175 6.43726 12.8813 6.21003C13.1533 5.97523 13.2894 5.64575 13.2894 5.2216C13.2894 4.75957 13.1533 4.43009 12.8813 4.23316C12.6175 4.03623 12.2423 3.93777 11.7559 3.93777H11.3973V6.55087Z" fill="#71D472"/>
</svg>
