<svg width="38" height="38" viewBox="0 0 38 38" fill="none" xmlns="http://www.w3.org/2000/svg">
<path d="M36 9.32258C37.1046 9.32258 38 10.218 38 11.3226V29C38 30.1046 37.1046 31 36 31H4.47C3.36543 31 2.47 30.1046 2.47 29V27.9032H2C0.89543 27.9032 0 27.0078 0 25.9032V9C0 7.89543 0.895431 7 2 7H32.58C33.6846 7 34.58 7.89543 34.58 9V9.32258H36ZM29.64 9.32258C29.64 9.64919 29.7043 9.95161 29.833 10.2298C29.9616 10.5081 30.1353 10.75 30.354 10.9556C30.5727 11.1613 30.8364 11.3306 31.1452 11.4637C31.4539 11.5968 31.7755 11.6573 32.11 11.6452V10.3226C32.11 9.7703 31.6623 9.32258 31.11 9.32258H29.64ZM2.47 11.6452C2.81734 11.6452 3.13896 11.5847 3.43484 11.4637C3.73073 11.3427 3.98802 11.1794 4.20672 10.9738C4.42542 10.7681 4.60552 10.5202 4.74703 10.2298C4.88854 9.93951 4.95286 9.6371 4.94 9.32258H3.47C2.91771 9.32258 2.47 9.7703 2.47 10.3226V11.6452ZM2.47 20.9355C3.15182 20.9355 3.78862 21.0565 4.38039 21.2984C4.97216 21.5403 5.49961 21.873 5.96273 22.2964C6.42586 22.7198 6.77964 23.2097 7.02406 23.7661C7.26849 24.3226 7.39714 24.9274 7.41 25.5806H27.17C27.17 24.9395 27.2986 24.3407 27.5559 23.7843C27.8132 23.2278 28.167 22.7319 28.6173 22.2964C29.0675 21.8609 29.5885 21.5282 30.1803 21.2984C30.7721 21.0685 31.4153 20.9476 32.11 20.9355V13.9677C31.4282 13.9677 30.7914 13.8468 30.1996 13.6048C29.6078 13.3629 29.0804 13.0302 28.6173 12.6069C28.1541 12.1835 27.8004 11.6935 27.5559 11.1371C27.3115 10.5806 27.1829 9.97581 27.17 9.32258H7.41C7.41 9.96371 7.28135 10.5625 7.02406 11.119C6.76677 11.6754 6.413 12.1714 5.96273 12.6069C5.51247 13.0423 4.99146 13.375 4.39969 13.6048C3.80792 13.8347 3.16469 13.9556 2.47 13.9677V20.9355ZM32.11 23.2581C31.7627 23.2581 31.441 23.3185 31.1452 23.4395C30.8493 23.5605 30.592 23.7238 30.3733 23.9294C30.1546 24.1351 29.9745 24.3831 29.833 24.6734C29.6915 24.9637 29.6271 25.2661 29.64 25.5806H31.11C31.6623 25.5806 32.11 25.1329 32.11 24.5806V23.2581ZM2.47 24.5806C2.47 25.1329 2.91772 25.5806 3.47 25.5806H4.94C4.94 25.254 4.87568 24.9516 4.74703 24.6734C4.61839 24.3952 4.44471 24.1532 4.22602 23.9476C4.00732 23.7419 3.74359 23.5726 3.43484 23.4395C3.12609 23.3065 2.80448 23.246 2.47 23.2581V24.5806ZM35.53 12.5952C35.53 12.0705 35.1047 11.6452 34.58 11.6452V11.6452V25.7366C34.58 26.9332 33.6099 27.9032 32.4133 27.9032H4.94V27.9032C4.94 28.3308 5.28662 28.6774 5.71419 28.6774H34.53C35.0823 28.6774 35.53 28.2297 35.53 27.6774V12.5952ZM8.645 18.6129C8.31052 18.6129 8.02107 18.498 7.77664 18.2681C7.53221 18.0383 7.41 17.7661 7.41 17.4516C7.41 17.1371 7.53221 16.8649 7.77664 16.6351C8.02107 16.4052 8.31052 16.2903 8.645 16.2903C8.97948 16.2903 9.26893 16.4052 9.51336 16.6351C9.75779 16.8649 9.88 17.1371 9.88 17.4516C9.88 17.7661 9.75779 18.0383 9.51336 18.2681C9.26893 18.498 8.97948 18.6129 8.645 18.6129ZM25.935 18.6129C25.6005 18.6129 25.3111 18.498 25.0666 18.2681C24.8222 18.0383 24.7 17.7661 24.7 17.4516C24.7 17.1371 24.8222 16.8649 25.0666 16.6351C25.3111 16.4052 25.6005 16.2903 25.935 16.2903C26.2695 16.2903 26.5589 16.4052 26.8034 16.6351C27.0478 16.8649 27.17 17.1371 27.17 17.4516C27.17 17.7661 27.0478 18.0383 26.8034 18.2681C26.5589 18.498 26.2695 18.6129 25.935 18.6129Z" fill="#0082DE"/>
<path d="M15.2749 21.7101V19.8598H13.9967V18.9054L15.2749 18.8202V17.8829H13.9967V16.9286L15.2749 16.8434V11.6455H18.0005C18.79 11.6455 19.5044 11.7535 20.1435 11.9693C20.7826 12.1738 21.2901 12.5033 21.6661 12.9578C22.042 13.4122 22.23 14.003 22.23 14.7301C22.23 15.4686 22.0358 16.0708 21.6473 16.5366C21.2588 17.0024 20.745 17.3433 20.1059 17.5591C19.4668 17.775 18.765 17.8829 18.0005 17.8829H17.3238V18.8032H19.76V19.8598H17.3238V21.7101H15.2749ZM17.3238 16.8263H17.869C18.6083 16.8263 19.1785 16.6559 19.5795 16.3151C19.9931 15.9628 20.1999 15.4686 20.1999 14.8324C20.1999 14.1394 19.9931 13.6451 19.5795 13.3497C19.1785 13.0543 18.6083 12.9066 17.869 12.9066H17.3238V16.8263Z" fill="#0082DE"/>
</svg>
