<svg width="21" height="24" viewBox="0 0 21 24" fill="none" xmlns="http://www.w3.org/2000/svg">
<path d="M16.9998 24H10.4498C9.36977 24 8.30977 23.55 7.55977 22.77L0.259766 15.16L2.32977 13.33C2.94977 12.78 3.85977 12.67 4.58977 13.06L6.99977 14.34V4.79001C6.99977 3.41001 8.11977 2.29001 9.49977 2.29001C9.66977 2.29001 9.83977 2.31001 10.0098 2.34001C10.0998 1.04001 11.1798 0.0100098 12.4998 0.0100098C13.3598 0.0100098 14.1098 0.44001 14.5598 1.10001C14.8498 0.98001 15.1698 0.92001 15.4998 0.92001C16.8798 0.92001 17.9998 2.04001 17.9998 3.42001V3.70001C18.1598 3.67001 18.3298 3.65001 18.4998 3.65001C19.8798 3.65001 20.9998 4.77001 20.9998 6.15001V20C20.9998 22.21 19.2098 24 16.9998 24ZM3.13977 15.28L8.99977 21.38C9.37977 21.77 9.89977 22 10.4398 22H16.9998C18.0998 22 18.9998 21.1 18.9998 20V6.15001C18.9998 5.87001 18.7798 5.65001 18.4998 5.65001C18.2198 5.65001 17.9998 5.87001 17.9998 6.15001V12H15.9998V3.42001C15.9998 3.14001 15.7798 2.92001 15.4998 2.92001C15.2198 2.92001 14.9998 3.14001 14.9998 3.42001V12H12.9998V2.51001C12.9998 2.23001 12.7798 2.01001 12.4998 2.01001C12.2198 2.01001 11.9998 2.23001 11.9998 2.51001V12H9.99977V4.79001C9.99977 4.51001 9.77977 4.29001 9.49977 4.29001C9.21977 4.29001 8.99977 4.52001 8.99977 4.79001V17.66L3.64977 14.83L3.13977 15.28Z" fill="#0082DE"/>
</svg>
