<svg width="16" height="16" viewBox="0 0 16 16" fill="none" xmlns="http://www.w3.org/2000/svg">
<path d="M8.075 9.80625C8.70284 9.27809 9.15308 8.56963 9.36468 7.77694C9.57628 6.98425 9.539 6.14566 9.25791 5.37486C8.97682 4.60407 8.4655 3.93836 7.79328 3.46798C7.12105 2.9976 6.32045 2.74531 5.5 2.74531C4.67955 2.74531 3.87894 2.9976 3.20672 3.46798C2.5345 3.93836 2.02318 4.60407 1.74209 5.37486C1.46099 6.14566 1.42372 6.98425 1.63532 7.77694C1.84692 8.56963 2.29716 9.27809 2.925 9.80625C1.90678 10.267 1.03057 10.9922 0.3875 11.9063C0.273365 12.0688 0.22835 12.2699 0.262328 12.4656C0.296307 12.6613 0.406504 12.8355 0.56875 12.95C0.694533 13.0399 0.845391 13.088 1 13.0875C1.12026 13.0878 1.2388 13.059 1.34548 13.0035C1.45216 12.948 1.54378 12.8674 1.6125 12.7687C2.0507 12.1446 2.63273 11.6352 3.30938 11.2835C3.98603 10.9318 4.73741 10.7482 5.5 10.7482C6.26259 10.7482 7.01397 10.9318 7.69062 11.2835C8.36727 11.6352 8.9493 12.1446 9.3875 12.7687C9.44183 12.8546 9.51303 12.9285 9.5968 12.986C9.68056 13.0436 9.77514 13.0834 9.87479 13.1033C9.97443 13.1231 10.0771 13.1225 10.1765 13.1015C10.2759 13.0805 10.37 13.0395 10.4531 12.981C10.5361 12.9225 10.6065 12.8477 10.6598 12.7612C10.7131 12.6747 10.7483 12.5783 10.7632 12.4778C10.7781 12.3773 10.7724 12.2748 10.7465 12.1766C10.7206 12.0783 10.675 11.9863 10.6125 11.9063C9.96943 10.9922 9.09322 10.267 8.075 9.80625ZM3 6.75C3 6.25555 3.14662 5.7722 3.42133 5.36107C3.69603 4.94995 4.08648 4.62952 4.54329 4.4403C5.00011 4.25108 5.50277 4.20157 5.98773 4.29804C6.47268 4.3945 6.91814 4.6326 7.26777 4.98223C7.6174 5.33186 7.8555 5.77732 7.95196 6.26227C8.04843 6.74723 7.99892 7.24989 7.8097 7.70671C7.62048 8.16352 7.30005 8.55397 6.88893 8.82867C6.4778 9.10338 5.99445 9.25 5.5 9.25C4.83696 9.25 4.20107 8.98661 3.73223 8.51777C3.26339 8.04893 3 7.41304 3 6.75ZM15.525 12.95C15.3992 13.0399 15.2484 13.088 15.0938 13.0875C14.9737 13.0868 14.8555 13.0575 14.749 13.0021C14.6425 12.9467 14.5507 12.8667 14.4812 12.7687C14.0421 12.1457 13.4598 11.6372 12.7834 11.2859C12.1069 10.9346 11.356 10.7508 10.5938 10.75C10.3948 10.75 10.2041 10.671 10.0634 10.5303C9.92277 10.3897 9.84375 10.1989 9.84375 10C9.84375 9.80109 9.92277 9.61032 10.0634 9.46967C10.2041 9.32902 10.3948 9.25 10.5938 9.25C11.2568 9.25 11.8927 8.98661 12.3615 8.51777C12.8304 8.04893 13.0938 7.41304 13.0938 6.75C13.0938 6.08696 12.8304 5.45107 12.3615 4.98223C11.8927 4.51339 11.2568 4.25 10.5938 4.25C10.3655 4.24957 10.1383 4.28113 9.91875 4.34375C9.82343 4.37218 9.7234 4.38137 9.62449 4.37078C9.52558 4.36018 9.42976 4.33002 9.34262 4.28204C9.25548 4.23406 9.17876 4.16922 9.11692 4.0913C9.05508 4.01339 9.00935 3.92395 8.98241 3.82819C8.95546 3.73244 8.94784 3.63227 8.95997 3.53354C8.97211 3.43481 9.00376 3.33948 9.0531 3.2531C9.10243 3.16672 9.16845 3.09101 9.24732 3.03039C9.32619 2.96977 9.41634 2.92545 9.5125 2.9C9.86417 2.79988 10.2281 2.74939 10.5938 2.75C11.4147 2.74762 12.2165 2.99831 12.8899 3.46796C13.5633 3.93761 14.0756 4.60338 14.3571 5.37463C14.6385 6.14588 14.6755 6.98513 14.4628 7.77812C14.2502 8.5711 13.7983 9.27929 13.1687 9.80625C14.187 10.267 15.0632 10.9922 15.7063 11.9063C15.7636 11.9864 15.8044 12.0772 15.8263 12.1733C15.8483 12.2694 15.8509 12.3689 15.834 12.466C15.8171 12.5632 15.7811 12.656 15.7281 12.739C15.675 12.8221 15.606 12.8938 15.525 12.95Z" fill="#F4D150"/>
</svg>
