<svg width="24" height="24" viewBox="0 0 24 24" fill="none" xmlns="http://www.w3.org/2000/svg">
<path fill-rule="evenodd" clip-rule="evenodd" d="M12 11C10.8954 11 10 11.8954 10 13C10 14.1046 10.8954 15 12 15C13.1046 15 14 14.1046 14 13C14 11.8954 13.1046 11 12 11ZM8 13C8 10.7909 9.79086 9 12 9C14.2091 9 16 10.7909 16 13C16 15.2091 14.2091 17 12 17C9.79086 17 8 15.2091 8 13Z" fill="#7A91A9"/>
<path fill-rule="evenodd" clip-rule="evenodd" d="M2 8C2 6.89543 2.89543 6 4 6H20C21.1046 6 22 6.89543 22 8V18C22 19.1046 21.1046 20 20 20H4C2.89543 20 2 19.1046 2 18V8ZM20 8H4V18H20V8Z" fill="#7A91A9"/>
<path fill-rule="evenodd" clip-rule="evenodd" d="M7.82339 4.36754C8.09562 3.55086 8.8599 3 9.72076 3H14.2792C15.1401 3 15.9044 3.55086 16.1766 4.36755L16.5099 5.36754C16.9416 6.66261 15.9777 8 14.6126 8H9.38743C8.02231 8 7.05837 6.66261 7.49006 5.36754L7.82339 4.36754ZM14.2792 5H9.72076L9.38743 6H14.6126L14.2792 5Z" fill="#7A91A9"/>
</svg>
