<svg width="24" height="24" viewBox="0 0 24 24" fill="none" xmlns="http://www.w3.org/2000/svg">
<path d="M19.2002 4.8H21.5522C22.2362 4.8 22.8002 5.364 22.8002 6.048V21.552C22.8002 22.236 22.2362 22.8 21.5522 22.8H6.04819C5.36419 22.8 4.8002 22.236 4.8002 21.552V19.2H2.4482C1.7642 19.2 1.2002 18.636 1.2002 17.952V2.448C1.2002 1.764 1.7642 1.2 2.4482 1.2H17.9522C18.6362 1.2 19.2002 1.764 19.2002 2.448V4.8ZM3.6002 16.8H16.8002V3.6H3.6002V16.8ZM9.60019 6.6C9.60019 5.604 8.7962 4.8 7.80019 4.8C6.80419 4.8 6.0002 5.604 6.0002 6.6C6.0002 7.596 6.80419 8.4 7.80019 8.4C8.7962 8.4 9.60019 7.596 9.60019 6.6ZM12.0002 12C12.0002 12 13.2002 6 15.6002 6V15.6H4.8002V8.4C7.20019 8.4 7.20019 12 7.20019 12C7.20019 12 7.5962 9.6 9.60019 9.6C11.6042 9.6 12.0002 12 12.0002 12ZM20.4002 20.4V7.2H19.2002V17.952C19.2002 18.636 18.6362 19.2 17.9522 19.2H7.20019V20.4H20.4002Z" fill="white"/>
</svg>
