<svg width="26" height="26" viewBox="0 0 26 26" fill="none" xmlns="http://www.w3.org/2000/svg">
<g id="&#208;&#159;&#208;&#187;&#209;&#142;&#209;&#129; &#208;&#178; &#208;&#186;&#209;&#128;&#209;&#131;&#208;&#179;&#208;&#181;" clip-path="url(#clip0_2993_135469)">
<path id="&#209;&#132;&#208;&#190;&#208;&#189; (Stroke)" fill-rule="evenodd" clip-rule="evenodd" d="M13 23.9375C19.0406 23.9375 23.9375 19.0406 23.9375 13C23.9375 6.95939 19.0406 2.0625 13 2.0625C6.95939 2.0625 2.0625 6.95939 2.0625 13C2.0625 19.0406 6.95939 23.9375 13 23.9375ZM13 25.5C19.9036 25.5 25.5 19.9036 25.5 13C25.5 6.09644 19.9036 0.5 13 0.5C6.09644 0.5 0.5 6.09644 0.5 13C0.5 19.9036 6.09644 25.5 13 25.5Z" fill="#0082DE"/>
<path id="Vector" d="M12.0715 12.0715L12.0666 8.42575C12.0704 8.18677 12.1679 7.95911 12.3382 7.7918C12.5084 7.6245 12.7378 7.53093 12.9768 7.53125C13.2158 7.53157 13.4454 7.62576 13.6161 7.79353C13.7868 7.9613 13.885 8.18923 13.8894 8.42822L13.8944 12.074L17.5401 12.0789C17.6611 12.0769 17.7814 12.0991 17.8939 12.1441C18.0064 12.1892 18.1088 12.2561 18.1953 12.3411C18.2817 12.426 18.3504 12.5273 18.3974 12.639C18.4443 12.7507 18.4686 12.8705 18.4688 12.9916C18.4689 13.1126 18.445 13.2324 18.3983 13.344C18.3517 13.4555 18.2832 13.5566 18.197 13.6414C18.1108 13.7261 18.0085 13.7928 17.8962 13.8375C17.7838 13.8822 17.6636 13.904 17.5426 13.9018L13.8968 13.8968L13.9018 17.5426C13.904 17.6636 13.8822 17.7838 13.8375 17.8962C13.7928 18.0085 13.7261 18.1108 13.6414 18.197C13.5566 18.2832 13.4555 18.3517 13.344 18.3983C13.2324 18.445 13.1126 18.4689 12.9916 18.4688C12.8705 18.4686 12.7507 18.4443 12.639 18.3974C12.5273 18.3504 12.426 18.2817 12.3411 18.1953C12.2561 18.1088 12.1892 18.0064 12.1441 17.8939C12.0991 17.7814 12.0769 17.6611 12.0789 17.5401L12.074 13.8944L8.42821 13.8894C8.18922 13.885 7.9613 13.7868 7.79353 13.6161C7.62576 13.4454 7.53157 13.2158 7.53125 12.9768C7.53093 12.7378 7.6245 12.5084 7.7918 12.3382C7.95911 12.1679 8.18677 12.0704 8.42575 12.0666L12.0715 12.0715Z" fill="#0082DE"/>
</g>
<defs>
<clipPath id="clip0_2993_135469">
<rect width="25" height="25" fill="white" transform="translate(0.5 0.5)"/>
</clipPath>
</defs>
</svg>
