<svg width="32" height="32" viewBox="0 0 32 32" fill="none" xmlns="http://www.w3.org/2000/svg">
<g clip-path="url(#clip0_18250_57861)">
<circle cx="16" cy="16" r="16" fill="#7A91A9"/>
<path d="M14.8115 14.8115L14.8052 10.145C14.8101 9.83907 14.935 9.54766 15.1529 9.33351C15.3708 9.11935 15.6643 8.99959 15.9703 9C16.2762 9.00041 16.5701 9.12098 16.7886 9.33572C17.0071 9.55047 17.1327 9.84221 17.1385 10.1481L17.1448 14.8147L21.8113 14.821C21.9662 14.8185 22.1202 14.8469 22.2642 14.9045C22.4081 14.9621 22.5393 15.0478 22.6499 15.1565C22.7606 15.2653 22.8485 15.3949 22.9086 15.5379C22.9687 15.6809 22.9998 15.8343 23 15.9892C23.0002 16.1442 22.9696 16.2975 22.9098 16.4403C22.8501 16.5831 22.7625 16.7125 22.6522 16.8209C22.5418 16.9294 22.4109 17.0147 22.2671 17.072C22.1233 17.1292 21.9694 17.1572 21.8145 17.1543L17.1479 17.1479L17.1543 21.8145C17.1572 21.9694 17.1292 22.1233 17.072 22.2671C17.0147 22.4109 16.9294 22.5418 16.8209 22.6522C16.7125 22.7625 16.5831 22.8501 16.4403 22.9098C16.2975 22.9696 16.1442 23.0002 15.9892 23C15.8343 22.9998 15.6809 22.9687 15.5379 22.9086C15.3949 22.8485 15.2653 22.7606 15.1565 22.6499C15.0478 22.5393 14.9621 22.4081 14.9045 22.2642C14.8469 22.1202 14.8185 21.9662 14.821 21.8113L14.8147 17.1448L10.1481 17.1385C9.84221 17.1327 9.55047 17.0071 9.33572 16.7886C9.12098 16.5701 9.00041 16.2762 9 15.9703C8.99959 15.6643 9.11936 15.3708 9.33351 15.1529C9.54766 14.935 9.83907 14.8101 10.145 14.8052L14.8115 14.8115Z" fill="white"/>
</g>
<defs>
<clipPath id="clip0_18250_57861">
<rect width="32" height="32" fill="white"/>
</clipPath>
</defs>
</svg>
