<svg width="364" height="430" viewBox="0 0 364 430" fill="none" xmlns="http://www.w3.org/2000/svg">
<g clip-path="url(#clip0_831_3618)">
<g filter="url(#filter0_diii_831_3618)">
<path d="M0 40C0 17.9086 17.9086 0 40 0H324C346.091 0 364 17.9086 364 40V430H0V40Z" fill="url(#paint0_linear_831_3618)"/>
</g>
<path d="M12 40C12 24.536 24.536 12 40 12H324C339.464 12 352 24.536 352 40V430H12V40Z" fill="white"/>
<path d="M12 40C12 24.536 24.536 12 40 12H324C339.464 12 352 24.536 352 40V76H12V40Z" fill="#80C0EF"/>
<path d="M194.958 50.6506C194.951 50.1153 195.052 49.584 195.255 49.0888C195.549 48.3356 196.065 47.6899 196.735 47.2382C197.405 46.7865 198.197 46.5502 199.005 46.5609C199.806 46.5767 200.586 46.8228 201.251 47.2699C201.916 47.717 202.438 48.3462 202.755 49.0822C202.958 49.5801 203.061 50.1129 203.059 50.6506C203.06 51.1839 202.955 51.7119 202.749 52.204C202.544 52.696 202.242 53.142 201.862 53.516C201.491 53.9104 201.04 54.2217 200.54 54.4292C200.047 54.6345 199.519 54.7403 198.985 54.7403C198.452 54.7403 197.924 54.6345 197.431 54.4292C196.931 54.2206 196.481 53.9095 196.109 53.516C195.724 53.1399 195.421 52.6896 195.216 52.1925C195.03 51.7003 194.942 51.1765 194.958 50.6506Z" fill="white"/>
<path d="M212.51 34.0934V39.1559C212.773 38.0314 213.22 36.9581 213.833 35.9794C214.262 35.2564 214.873 34.6586 215.605 34.2456C216.238 33.9347 216.925 33.7504 217.629 33.703C218.345 33.6491 219.064 33.7837 219.712 34.0934V39.9367C217.655 39.1294 215.942 39.05 214.567 39.6853C213.913 39.97 213.364 40.4509 212.996 41.0615C212.627 41.672 212.458 42.382 212.51 43.0933V54.3432H206.333V34.0868L212.51 34.0934Z" fill="white"/>
<path d="M221.842 45.7007V34.0934H228.012V45.7007C227.992 46.1516 228.064 46.6021 228.224 47.0242C228.392 47.432 228.642 47.8012 228.958 48.1094C229.297 48.4228 229.695 48.6655 230.128 48.8234C230.562 48.9814 231.023 49.0513 231.484 49.0293C232.397 49.0554 233.283 48.7255 233.957 48.1094C234.288 47.799 234.548 47.4207 234.72 47.0004C234.891 46.58 234.969 46.1276 234.95 45.6742V34.0934H241.12V45.7007C241.162 46.9205 240.941 48.1351 240.471 49.2612C240 50.3874 239.292 51.3986 238.395 52.2256C236.445 53.8488 233.988 54.7376 231.451 54.7376C228.914 54.7376 226.457 53.8488 224.507 52.2256C223.627 51.3888 222.937 50.3739 222.48 49.2487C222.024 48.1236 221.813 46.9139 221.861 45.7007" fill="white"/>
<path d="M149.291 30.8098C149.249 31.0222 149.292 31.2425 149.412 31.4234L150.981 33.818C151.987 35.3587 152.752 36.0191 154.677 36.0191C155.207 36.0191 157.85 35.8723 157.85 33.0909V27.5749C157.849 27.4207 157.789 27.2726 157.682 27.1613C157.574 27.055 157.428 26.9954 157.276 26.9954C157.124 26.9954 156.978 27.055 156.87 27.1613C156.763 27.2731 156.701 27.4203 156.696 27.5749V30.0961C156.696 30.1674 156.67 30.2361 156.622 30.2895C156.57 30.3402 156.5 30.3689 156.428 30.3696C156.391 30.3708 156.355 30.3643 156.322 30.3505C156.288 30.3367 156.258 30.3159 156.233 30.2895C156.207 30.2644 156.187 30.2342 156.173 30.201C156.159 30.1678 156.152 30.1321 156.153 30.0961V26.4943C156.152 26.3422 156.092 26.1963 155.985 26.0875C155.931 26.0343 155.867 25.9922 155.797 25.9635C155.727 25.9349 155.652 25.9204 155.576 25.9207C155.423 25.9215 155.276 25.9812 155.167 26.0875C155.113 26.141 155.071 26.2045 155.042 26.2743C155.013 26.3441 154.999 26.4189 154.999 26.4943V29.6626C154.999 29.7167 154.983 29.7696 154.953 29.8146C154.922 29.8595 154.88 29.8946 154.829 29.9153C154.779 29.936 154.724 29.9414 154.67 29.9309C154.617 29.9203 154.568 29.8943 154.529 29.856C154.48 29.8032 154.452 29.7346 154.449 29.6626V26.0941C154.451 26.0144 154.438 25.935 154.409 25.8606C154.38 25.7861 154.337 25.7181 154.281 25.6606C154.173 25.5543 154.027 25.4946 153.876 25.4946C153.724 25.4946 153.578 25.5543 153.47 25.6606C153.361 25.7712 153.298 25.9192 153.295 26.0741V29.6626C153.296 29.6985 153.289 29.7342 153.275 29.7675C153.261 29.8007 153.241 29.8308 153.215 29.856C153.191 29.8815 153.162 29.9018 153.129 29.9155C153.097 29.9293 153.062 29.9363 153.027 29.936C152.991 29.9372 152.955 29.9307 152.921 29.9169C152.888 29.9031 152.857 29.8823 152.833 29.856C152.807 29.8308 152.786 29.8007 152.772 29.7675C152.759 29.7342 152.752 29.6985 152.752 29.6626V26.9479C152.752 26.7937 152.692 26.6457 152.584 26.5343C152.475 26.4276 152.328 26.3678 152.175 26.3678C152.022 26.3678 151.875 26.4276 151.766 26.5343C151.659 26.6457 151.599 26.7937 151.598 26.9479V32.0104L150.626 30.6764C150.525 30.5047 150.36 30.3788 150.168 30.3253C149.975 30.2718 149.769 30.2948 149.593 30.3896C149.517 30.4395 149.451 30.5028 149.398 30.5763C149.346 30.6505 149.31 30.7345 149.291 30.8231" fill="white"/>
<path d="M175.497 39.8776V34.1997H181.647V64.4666H175.497V48.8971C175.046 50.5931 174.133 52.1269 172.86 53.3237C171.707 54.3923 170.193 54.9757 168.628 54.9545C167.471 54.9632 166.329 54.6922 165.297 54.1642C164.265 53.6361 163.373 52.8664 162.696 51.9192C161.08 49.7534 160.247 47.0942 160.336 44.384C160.244 41.6695 161.072 39.0045 162.682 36.829C163.356 35.8777 164.247 35.1049 165.28 34.5764C166.313 34.0479 167.457 33.7794 168.615 33.7936C170.193 33.7702 171.719 34.3587 172.88 35.4378C174.152 36.6345 175.066 38.1684 175.517 39.8643L175.497 39.8776ZM170.935 49.2566C171.547 49.276 172.157 49.1625 172.722 48.9238C173.287 48.6881 173.797 48.3342 174.218 47.8853C175.097 46.9448 175.571 45.6904 175.536 44.3974C175.558 43.7576 175.455 43.1198 175.233 42.5202C175.013 41.9224 174.676 41.3748 174.244 40.9094C173.824 40.456 173.312 40.099 172.744 39.8624C172.175 39.6259 171.563 39.5153 170.948 39.5381C170.384 39.53 169.824 39.653 169.314 39.8976C168.804 40.1392 168.354 40.4915 167.995 40.9293C167.163 41.885 166.722 43.1251 166.763 44.3974C166.723 45.6694 167.164 46.909 167.995 47.8654C168.354 48.3032 168.804 48.6556 169.314 48.8971C169.822 49.1336 170.375 49.2562 170.935 49.2566Z" fill="#0082DE"/>
<path d="M154.561 37.7875C153.489 37.7987 152.436 37.5033 151.523 36.9355V45.8751C151.538 46.3268 151.458 46.7767 151.288 47.1946C151.117 47.6125 150.86 47.9888 150.534 48.298C149.86 48.9188 148.973 49.2486 148.062 49.2166C147.603 49.239 147.144 49.1693 146.712 49.0116C146.28 48.854 145.883 48.6114 145.544 48.298C145.227 47.978 144.98 47.5949 144.819 47.1731C144.659 46.7485 144.587 46.2955 144.608 45.8418V34.193H138.451V45.8751C138.408 47.0986 138.624 48.3172 139.086 49.4493C139.547 50.5813 140.243 51.6005 141.127 52.4384C143.018 54.1703 145.512 55.075 148.062 54.9545C150.605 55.0517 153.085 54.1444 154.977 52.4251C155.87 51.5948 156.575 50.58 157.045 49.4497C157.515 48.3195 157.738 47.1003 157.699 45.8751V36.8889C156.771 37.488 155.689 37.8004 154.588 37.7875" fill="#0082DE"/>
<path d="M129.15 34.1997V39.2919C129.415 38.1618 129.861 37.0827 130.468 36.0968C130.895 35.3681 131.504 34.7664 132.235 34.3528C132.866 34.04 133.551 33.8546 134.252 33.8069C134.966 33.7528 135.682 33.8881 136.329 34.1997V40.0773C134.279 39.2652 132.571 39.1854 131.2 39.8244C130.55 40.1118 130.004 40.596 129.638 41.21C129.272 41.8241 129.104 42.5377 129.157 43.2524V54.5684H123V34.193L129.15 34.1997Z" fill="#0082DE"/>
<path d="M184.943 28.7081C184.942 28.2217 185.036 27.7398 185.22 27.2903C185.409 26.8396 185.69 26.4339 186.044 26.0987C186.371 25.7476 186.766 25.4669 187.204 25.2733C187.646 25.0865 188.122 24.9936 188.601 25.0004C189.081 24.9928 189.558 25.088 189.999 25.28C190.444 25.4671 190.846 25.7459 191.179 26.0987C191.525 26.4391 191.799 26.8473 191.984 27.2982C192.168 27.7492 192.26 28.2334 192.253 28.7214C192.254 29.2078 192.16 29.6897 191.976 30.1392C191.792 30.5862 191.521 30.9913 191.179 31.3307C190.849 31.6869 190.45 31.9701 190.006 32.1626C189.562 32.355 189.084 32.4526 188.601 32.449C188.121 32.4514 187.646 32.3533 187.206 32.1608C186.766 31.9683 186.37 31.6857 186.044 31.3307C185.7 30.9915 185.426 30.5865 185.239 30.1392C185.055 29.6897 184.961 29.2078 184.963 28.7214L184.943 28.7081ZM191.673 54.5884H185.536V34.1997H191.686L191.673 54.5884Z" fill="#0082DE"/>
<circle cx="316" cy="44" r="19.5" stroke="white"/>
<path fill-rule="evenodd" clip-rule="evenodd" d="M320.783 37.7101C322.006 38.3946 322.943 39.5027 322.943 41.0456V46.2305L325.558 49.1593C326.555 50.2753 325.756 52.0353 324.252 52.0353H308.748C307.244 52.0353 306.445 50.2753 307.442 49.1593L310.057 46.2305V41.0456C310.057 39.5027 310.994 38.3946 312.217 37.7101C313.426 37.0332 314.986 36.7176 316.5 36.7176C318.014 36.7176 319.574 37.0332 320.783 37.7101ZM312.952 39.0009C312.039 39.512 311.552 40.1973 311.552 41.0456V46.3246C311.552 46.627 311.441 46.9178 311.239 47.1432L308.561 50.1421C308.419 50.3015 308.533 50.5529 308.748 50.5529H324.252C324.467 50.5529 324.581 50.3015 324.439 50.1421L321.761 47.1432C321.559 46.9178 321.448 46.627 321.448 46.3246V41.0456C321.448 40.1974 320.961 39.512 320.048 39.0009C319.121 38.4823 317.833 38.2 316.5 38.2C315.167 38.2 313.879 38.4823 312.952 39.0009Z" fill="white"/>
<path d="M318.493 35.9765C318.493 37.068 317.601 37.9529 316.5 37.9529C315.399 37.9529 314.507 37.068 314.507 35.9765C314.507 34.8849 315.399 34 316.5 34C317.601 34 318.493 34.8849 318.493 35.9765Z" fill="white"/>
<path fill-rule="evenodd" clip-rule="evenodd" d="M312.264 50.5529H320.735V51.2941C320.735 52.3171 320.256 53.2702 319.453 53.9532C318.653 54.6332 317.589 55 316.5 55C315.415 55 314.325 54.6362 313.522 53.9532C312.706 53.2598 312.264 52.302 312.264 51.2941V50.5529ZM313.907 52.0353C314.028 52.3264 314.223 52.597 314.495 52.8277C314.999 53.2567 315.734 53.5176 316.5 53.5176C317.261 53.5176 317.971 53.2597 318.48 52.8277C318.755 52.5939 318.956 52.3227 319.082 52.0353H313.907Z" fill="white"/>
<circle cx="48" cy="44" r="20" fill="white"/>
<path d="M39 50H57V48H39V50ZM39 45H57V43H39V45ZM39 38V40H57V38H39Z" fill="#0082DE"/>
</g>
<defs>
<filter id="filter0_diii_831_3618" x="-10" y="-10" width="384" height="450" filterUnits="userSpaceOnUse" color-interpolation-filters="sRGB">
<feFlood flood-opacity="0" result="BackgroundImageFix"/>
<feColorMatrix in="SourceAlpha" type="matrix" values="0 0 0 0 0 0 0 0 0 0 0 0 0 0 0 0 0 0 127 0" result="hardAlpha"/>
<feOffset/>
<feGaussianBlur stdDeviation="5"/>
<feColorMatrix type="matrix" values="0 0 0 0 0.0784314 0 0 0 0 0.105882 0 0 0 0 0.160784 0 0 0 0.1 0"/>
<feBlend mode="normal" in2="BackgroundImageFix" result="effect1_dropShadow_831_3618"/>
<feBlend mode="normal" in="SourceGraphic" in2="effect1_dropShadow_831_3618" result="shape"/>
<feColorMatrix in="SourceAlpha" type="matrix" values="0 0 0 0 0 0 0 0 0 0 0 0 0 0 0 0 0 0 127 0" result="hardAlpha"/>
<feOffset dy="6"/>
<feGaussianBlur stdDeviation="4"/>
<feComposite in2="hardAlpha" operator="arithmetic" k2="-1" k3="1"/>
<feColorMatrix type="matrix" values="0 0 0 0 0.6125 0 0 0 0 0.6125 0 0 0 0 0.6125 0 0 0 0.06 0"/>
<feBlend mode="normal" in2="shape" result="effect2_innerShadow_831_3618"/>
<feColorMatrix in="SourceAlpha" type="matrix" values="0 0 0 0 0 0 0 0 0 0 0 0 0 0 0 0 0 0 127 0" result="hardAlpha"/>
<feOffset dy="-6"/>
<feGaussianBlur stdDeviation="5"/>
<feComposite in2="hardAlpha" operator="arithmetic" k2="-1" k3="1"/>
<feColorMatrix type="matrix" values="0 0 0 0 0.611765 0 0 0 0 0.611765 0 0 0 0 0.611765 0 0 0 0.06 0"/>
<feBlend mode="normal" in2="effect2_innerShadow_831_3618" result="effect3_innerShadow_831_3618"/>
<feColorMatrix in="SourceAlpha" type="matrix" values="0 0 0 0 0 0 0 0 0 0 0 0 0 0 0 0 0 0 127 0" result="hardAlpha"/>
<feOffset dx="1" dy="1"/>
<feGaussianBlur stdDeviation="3.5"/>
<feComposite in2="hardAlpha" operator="arithmetic" k2="-1" k3="1"/>
<feColorMatrix type="matrix" values="0 0 0 0 0.85 0 0 0 0 0.85 0 0 0 0 0.85 0 0 0 0.2 0"/>
<feBlend mode="normal" in2="effect3_innerShadow_831_3618" result="effect4_innerShadow_831_3618"/>
</filter>
<linearGradient id="paint0_linear_831_3618" x1="311.115" y1="25.1449" x2="209.332" y2="354.521" gradientUnits="userSpaceOnUse">
<stop stop-color="#B1DFFF"/>
<stop offset="1" stop-color="#D9EEFC"/>
</linearGradient>
<clipPath id="clip0_831_3618">
<rect width="364" height="430" fill="white"/>
</clipPath>
</defs>
</svg>
