<svg width="24" height="24" viewBox="0 0 24 24" fill="none" xmlns="http://www.w3.org/2000/svg">
<g id="&#208;&#173;&#208;&#187;&#208;&#181;&#208;&#186;&#209;&#130;&#209;&#128;&#208;&#190;&#208;&#189;&#208;&#189;&#209;&#139;&#208;&#185; &#209;&#135;&#208;&#181;&#208;&#186;">
<g id="electronic-receipt-icon">
<path d="M14.7012 6.6H9.30122V8.4H14.7012V6.6Z" fill="#7A91A9"/>
<path d="M14.7012 10.2H9.30122V12H14.7012V10.2Z" fill="#7A91A9"/>
<path fill-rule="evenodd" clip-rule="evenodd" d="M17.4098 3H10.2C9.24522 3 8.32955 3.37928 7.65442 4.05442C6.97928 4.72955 6.6 5.64522 6.6 6.6V15.6H3V17.4098C3.00259 18.3629 3.38301 19.276 4.05786 19.949C4.73271 20.6221 5.64691 21 6.6 21H13.8C14.2728 21.0013 14.7411 20.9094 15.1784 20.7297C15.6157 20.55 16.0133 20.2859 16.3484 19.9525C16.6836 19.6191 16.9499 19.223 17.132 18.7867C17.3141 18.3504 17.4085 17.8825 17.4098 17.4098V8.4H21V6.6C21 5.64691 20.6221 4.73271 19.949 4.05786C19.276 3.38301 18.3629 3.00259 17.4098 3ZM12 19.2H6.6C6.12449 19.1994 5.6685 19.0109 5.33135 18.6755C4.99421 18.3402 4.80322 17.8853 4.8 17.4098H12V19.2ZM15.6 17.4098C15.5994 17.887 15.4095 18.3444 15.0721 18.6819C14.7347 19.0193 14.2772 19.2091 13.8 19.2098V15.6H8.4V6.6C8.4 6.12261 8.58964 5.66477 8.92721 5.32721C9.26477 4.98964 9.72261 4.8 10.2 4.8H15.6V17.4098ZM17.4098 6.6V4.8C17.8872 4.8 18.345 4.98964 18.6826 5.32721C19.0201 5.66477 19.2098 6.12261 19.2098 6.6H17.4098Z" fill="#7A91A9"/>
</g>
</g>
</svg>
