<svg width="26" height="20" viewBox="0 0 26 20" fill="none" xmlns="http://www.w3.org/2000/svg">
<path d="M19.9976 10C17.2262 10 15 12.2273 15 15C15 17.7727 17.2262 20 19.9976 20C22.7689 20 24.9951 17.7727 24.9951 15C24.9951 12.2273 22.7689 10 19.9976 10ZM22.2692 15.9091H19.5432C19.2706 15.9091 19.0889 15.7273 19.0889 15.4545V12.7273C19.0889 12.4545 19.2706 12.2727 19.5432 12.2727C19.8158 12.2727 19.9976 12.4545 19.9976 12.7273V15H22.2692C22.5418 15 22.7235 15.1818 22.7235 15.4545C22.7235 15.7273 22.5418 15.9091 22.2692 15.9091Z" fill="#F4D150"/>
<path fill-rule="evenodd" clip-rule="evenodd" d="M13 3C13 1.34 14.34 0 16 0C17.66 0 19 1.34 19 3C19 4.66 17.66 6 16 6C14.34 6 13 4.66 13 3ZM8 9.14286C1 9.14286 1 13.7143 1 13.7143V17H14.3414C14.1203 16.3744 14 15.7013 14 15C14 14.0267 14.2317 13.1075 14.6431 12.2947C14.0375 10.9525 12.4043 9.14286 8 9.14286ZM22.1791 9.40795C21.5036 9.14455 20.7687 9 20 9C18.1207 9 16.4432 9.86399 15.3431 11.2164C15.2541 11.0688 15.1548 10.9196 15.0441 10.7705C14.2643 9.72042 12.9975 8.77815 11 8.31922C12.0285 7.57356 13.6107 7 16.0448 7C19.5883 7 21.3264 8.21548 22.1791 9.40795ZM8 1C6.06333 1 4.5 2.53143 4.5 4.42857C4.5 6.32571 6.06333 7.85714 8 7.85714C9.93667 7.85714 11.5 6.32571 11.5 4.42857C11.5 2.53143 9.93667 1 8 1Z" fill="#F4D150"/>
</svg>
