<svg width="26" height="20" viewBox="0 0 26 20" fill="none" xmlns="http://www.w3.org/2000/svg">
<path fill-rule="evenodd" clip-rule="evenodd" d="M17.2222 10.8427C18.0444 10.2932 19.0111 10 20 10C21.3241 10.0064 22.5922 10.5352 23.5285 11.4715C24.4648 12.4078 24.9937 13.6759 25 15C25 15.9889 24.7068 16.9556 24.1573 17.7778C23.6079 18.6001 22.827 19.241 21.9134 19.6194C20.9998 19.9978 19.9945 20.0969 19.0245 19.9039C18.0546 19.711 17.1637 19.2348 16.4645 18.5355C15.7652 17.8363 15.289 16.9454 15.0961 15.9755C14.9031 15.0055 15.0022 14.0002 15.3806 13.0866C15.759 12.173 16.3999 11.3921 17.2222 10.8427ZM19.4203 17.0652L22.3188 14.1667C22.3615 14.1214 22.3946 14.0679 22.416 14.0095C22.4374 13.9511 22.4466 13.8889 22.4432 13.8268C22.4399 13.7646 22.4239 13.7038 22.3963 13.6481C22.3686 13.5923 22.33 13.5428 22.2826 13.5024C22.2418 13.4562 22.1916 13.4191 22.1354 13.3937C22.0792 13.3683 22.0182 13.3552 21.9565 13.3552C21.8948 13.3552 21.8339 13.3683 21.7776 13.3937C21.7214 13.4191 21.6712 13.4562 21.6304 13.5024L19.0217 16.0749L18.1522 15.1932C18.0621 15.1157 17.9461 15.0751 17.8273 15.0796C17.7086 15.084 17.5959 15.1332 17.5119 15.2172C17.4279 15.3012 17.3787 15.4139 17.3743 15.5326C17.3698 15.6514 17.4104 15.7674 17.4879 15.8575L18.6957 17.0652C18.7455 17.112 18.8045 17.148 18.8689 17.1708C18.9334 17.1937 19.0019 17.203 19.07 17.1981C19.1344 17.2011 19.1987 17.1908 19.2589 17.168C19.3192 17.1451 19.3741 17.1101 19.4203 17.0652Z" fill="#71D472"/>
<path fill-rule="evenodd" clip-rule="evenodd" d="M13 3C13 1.34 14.34 0 16 0C17.66 0 19 1.34 19 3C19 4.66 17.66 6 16 6C14.34 6 13 4.66 13 3ZM8 9.14286C1 9.14286 1 13.7143 1 13.7143V17H14.3414C14.1203 16.3744 14 15.7013 14 15C14 14.0267 14.2317 13.1075 14.6431 12.2947C14.0375 10.9525 12.4043 9.14286 8 9.14286ZM22.1791 9.40795C21.5036 9.14455 20.7687 9 20 9C18.1207 9 16.4432 9.86399 15.3431 11.2164C15.2541 11.0688 15.1548 10.9196 15.0441 10.7705C14.2643 9.72042 12.9975 8.77815 11 8.31922C12.0285 7.57356 13.6107 7 16.0448 7C19.5883 7 21.3264 8.21548 22.1791 9.40795ZM8 1C6.06333 1 4.5 2.53143 4.5 4.42857C4.5 6.32571 6.06333 7.85714 8 7.85714C9.93667 7.85714 11.5 6.32571 11.5 4.42857C11.5 2.53143 9.93667 1 8 1Z" fill="#71D472"/>
</svg>
