<svg width="26" height="20" viewBox="0 0 26 20" fill="none" xmlns="http://www.w3.org/2000/svg">
<path fill-rule="evenodd" clip-rule="evenodd" d="M19.9976 10C17.2262 10 15 12.2273 15 15C15 17.7727 17.2262 20 19.9976 20C22.7689 20 24.9951 17.7727 24.9951 15C24.9951 12.2273 22.7689 10 19.9976 10ZM16.3863 15.7364C17.5854 15.7184 18.6679 15.2394 19.7277 14.2778L19.7361 14.2699C19.7825 14.2264 19.8282 14.1834 19.8733 14.1404C19.9533 14.0643 19.9535 13.9376 19.8755 13.8594L19.1995 13.1812C19.0737 13.055 19.1633 12.8398 19.3414 12.84L22.6194 12.8453C22.7298 12.8454 22.8192 12.9351 22.819 13.0456L22.8138 16.3235C22.8135 16.5017 22.598 16.5906 22.4722 16.4644L21.8057 15.7957C21.7354 15.7252 21.6235 15.718 21.5422 15.7754C19.6653 17.1015 17.7988 16.8984 16.263 16.1318C16.0702 16.0355 16.1709 15.7396 16.3863 15.7364Z" fill="#7A91A9"/>
<path fill-rule="evenodd" clip-rule="evenodd" d="M13 3C13 1.34 14.34 0 16 0C17.66 0 19 1.34 19 3C19 4.66 17.66 6 16 6C14.34 6 13 4.66 13 3ZM8 9.14286C1 9.14286 1 13.7143 1 13.7143V17H14.3414C14.1203 16.3744 14 15.7013 14 15C14 14.0267 14.2317 13.1075 14.6431 12.2947C14.0375 10.9525 12.4043 9.14286 8 9.14286ZM22.1791 9.40795C21.5036 9.14455 20.7687 9 20 9C18.1207 9 16.4432 9.86399 15.3431 11.2164C15.2541 11.0688 15.1548 10.9196 15.0441 10.7705C14.2643 9.72042 12.9975 8.77815 11 8.31922C12.0285 7.57356 13.6107 7 16.0448 7C19.5883 7 21.3264 8.21548 22.1791 9.40795ZM8 1C6.06333 1 4.5 2.53143 4.5 4.42857C4.5 6.32571 6.06333 7.85714 8 7.85714C9.93667 7.85714 11.5 6.32571 11.5 4.42857C11.5 2.53143 9.93667 1 8 1Z" fill="#7A91A9"/>
</svg>
