<svg width="16" height="16" viewBox="0 0 16 16" fill="none" xmlns="http://www.w3.org/2000/svg">
<g id="&#209;&#128;&#208;&#181;&#209;&#132;&#209;&#132;&#208;&#181;&#209;&#128;&#208;&#176;&#208;&#187;&#209;&#140;&#208;&#189;&#208;&#178;&#209;&#143; &#208;&#190;&#208;&#191;&#208;&#187;&#208;&#176;&#209;&#130;&#208;&#176;">
<g id="Union">
<path d="M10.6665 2.66602C9.55984 2.66602 8.6665 3.55935 8.6665 4.66602C8.6665 5.77268 9.55984 6.66602 10.6665 6.66602C11.7732 6.66602 12.6665 5.77268 12.6665 4.66602C12.6665 3.55935 11.7732 2.66602 10.6665 2.66602Z" fill="#7A91A9"/>
<path d="M0.666504 11.8089C0.666504 11.8089 0.666504 8.76125 5.33317 8.76125C9.99984 8.76125 9.99984 11.8089 9.99984 11.8089V13.9993H0.666504V11.8089Z" fill="#7A91A9"/>
<path d="M5.33317 3.33268C4.04206 3.33268 2.99984 4.35363 2.99984 5.6184C2.99984 6.88316 4.04206 7.90411 5.33317 7.90411C6.62428 7.90411 7.6665 6.88316 7.6665 5.6184C7.6665 4.35363 6.62428 3.33268 5.33317 3.33268Z" fill="#7A91A9"/>
<path d="M10.6892 11.3327C10.6788 11.28 10.6665 11.2239 10.6519 11.165C10.5624 10.8034 10.3843 10.3245 10.0292 9.84633C9.50937 9.14629 8.66485 8.51811 7.33317 8.21216C8.01884 7.71506 9.07366 7.33268 10.6964 7.33268C15.3332 7.33268 15.3332 10.4546 15.3332 10.4546V11.3327H10.6892Z" fill="#7A91A9"/>
</g>
</g>
</svg>
