<svg width="26" height="20" viewBox="0 0 26 20" fill="none" xmlns="http://www.w3.org/2000/svg">
<path fill-rule="evenodd" clip-rule="evenodd" d="M15 15.0001C15 12.2432 17.2429 10 20 10C22.7569 10 25 12.2432 25 15.0001C25 17.7568 22.7571 20 20 20C17.2431 20 15 17.7572 15 15.0001ZM17.5691 15.7844H22.4307L22.4309 14.2158H17.5691V15.7844Z" fill="#EB4D3D"/>
<path fill-rule="evenodd" clip-rule="evenodd" d="M13 3C13 1.34 14.34 0 16 0C17.66 0 19 1.34 19 3C19 4.66 17.66 6 16 6C14.34 6 13 4.66 13 3ZM8 9.14286C1 9.14286 1 13.7143 1 13.7143V17H14.3414C14.1203 16.3744 14 15.7013 14 15C14 14.0267 14.2317 13.1075 14.6431 12.2947C14.0375 10.9525 12.4043 9.14286 8 9.14286ZM22.1791 9.40795C21.5036 9.14455 20.7687 9 20 9C18.1207 9 16.4432 9.86399 15.3431 11.2164C15.2541 11.0688 15.1548 10.9196 15.0441 10.7705C14.2643 9.72042 12.9975 8.77815 11 8.31922C12.0285 7.57356 13.6107 7 16.0448 7C19.5883 7 21.3264 8.21548 22.1791 9.40795ZM8 1C6.06333 1 4.5 2.53143 4.5 4.42857C4.5 6.32571 6.06333 7.85714 8 7.85714C9.93667 7.85714 11.5 6.32571 11.5 4.42857C11.5 2.53143 9.93667 1 8 1Z" fill="#EB4D3D"/>
</svg>
