<svg width="20" height="16" viewBox="0 0 20 16" fill="none" xmlns="http://www.w3.org/2000/svg">
<path fill-rule="evenodd" clip-rule="evenodd" d="M17 7.25C16.5858 7.25 16.25 7.58579 16.25 8C16.25 9.24654 15.9033 10.4615 15.2587 11.4909C14.6143 12.5199 13.7033 13.3142 12.6467 13.7812C11.5909 14.2478 10.4322 14.369 9.31494 14.1318C8.1972 13.8946 7.16339 13.3077 6.34722 12.4369C6.06396 12.1346 5.58934 12.1193 5.28712 12.4025C4.98489 12.6858 4.96952 13.1604 5.25278 13.4626C6.2717 14.5498 7.57594 15.2962 9.00354 15.5992C10.4316 15.9022 11.9112 15.7462 13.2531 15.1531C14.5942 14.5605 15.7325 13.5604 16.5299 12.2871C17.3271 11.0142 17.75 9.52239 17.75 8C17.75 7.58579 17.4142 7.25 17 7.25Z" fill="#7A91A9"/>
<path fill-rule="evenodd" clip-rule="evenodd" d="M16.9996 7.96049L15.4299 9.53016C15.137 9.82305 14.6622 9.82305 14.3693 9.53016C14.0764 9.23726 14.0764 8.76239 14.3693 8.4695L16.1157 6.72305C16.6039 6.23489 17.3953 6.23489 17.8835 6.72305L19.6299 8.4695C19.9228 8.76239 19.9228 9.23726 19.6299 9.53016C19.337 9.82305 18.8622 9.82305 18.5693 9.53016L16.9996 7.96049Z" fill="#7A91A9"/>
<path fill-rule="evenodd" clip-rule="evenodd" d="M3 8.75C3.41421 8.75 3.75 8.41421 3.75 8C3.75 6.75346 4.09666 5.53849 4.74134 4.50908C5.38575 3.48009 6.29672 2.68577 7.35327 2.21884C8.4091 1.75222 9.56778 1.63105 10.6851 1.86817C11.8028 2.10538 12.8366 2.69233 13.6528 3.56314C13.936 3.86536 14.4107 3.88073 14.7129 3.59747C15.0151 3.31421 15.0305 2.83959 14.7472 2.53737C13.7283 1.45024 12.4241 0.703824 10.9965 0.400846C9.5684 0.097771 8.08876 0.253842 6.74693 0.846852C5.40581 1.43955 4.26747 2.43964 3.47006 3.71294C2.67291 4.98582 2.25 6.47761 2.25 8C2.25 8.41421 2.58579 8.75 3 8.75Z" fill="#7A91A9"/>
<path fill-rule="evenodd" clip-rule="evenodd" d="M2.99844 8.03951L4.56811 6.46984C4.861 6.17695 5.33587 6.17695 5.62877 6.46984C5.92166 6.76274 5.92166 7.23761 5.62877 7.5305L3.88232 9.27695C3.39417 9.76511 2.60271 9.76511 2.11455 9.27695L0.368108 7.5305C0.0752144 7.23761 0.0752143 6.76274 0.368107 6.46984C0.661001 6.17695 1.13587 6.17695 1.42877 6.46984L2.99844 8.03951Z" fill="#7A91A9"/>
</svg>
