<svg width="25" height="24" viewBox="0 0 25 24" fill="none" xmlns="http://www.w3.org/2000/svg">
<path d="M19.7129 8L15.7129 12H18.7129C18.7129 15.31 16.0229 18 12.7129 18C11.7029 18 10.7429 17.75 9.91289 17.3L8.45289 18.76C9.68289 19.54 11.1429 20 12.7129 20C17.1329 20 20.7129 16.42 20.7129 12H23.7129L19.7129 8ZM6.71289 12C6.71289 8.69 9.40289 6 12.7129 6C13.7229 6 14.6829 6.25 15.5129 6.7L16.9729 5.24C15.7429 4.46 14.2829 4 12.7129 4C8.29289 4 4.71289 7.58 4.71289 12H1.71289L5.71289 16L9.71289 12H6.71289Z" fill="black"/>
</svg>
