<svg width="16" height="16" viewBox="0 0 16 16" fill="none" xmlns="http://www.w3.org/2000/svg">
<path d="M8 0C3.6 0 0 3.6 0 8C0 12.4 3.6 16 8 16C12.4 16 16 12.4 16 8C16 3.6 12.4 0 8 0ZM12 10.8C12.3333 11.1333 12.3333 11.6667 12 12C11.8667 12.1333 11.6667 12.2667 11.4 12.2667C11.1333 12.2667 11 12.2 10.8 12L8 9.2L5.2 12C5.06667 12.1333 4.86667 12.2667 4.6 12.2667C4.33333 12.2667 4.2 12.2 4 12C3.66667 11.6667 3.66667 11.1333 4 10.8L6.8 8L4 5.2C3.66667 4.86667 3.66667 4.33333 4 4C4.13333 3.86667 4.33333 3.73333 4.6 3.73333C4.86667 3.73333 5 3.8 5.2 4L8 6.8L10.8 4C10.9333 3.86667 11.1333 3.73333 11.4 3.73333C11.6667 3.73333 11.8 3.8 12 4C12.3333 4.33333 12.3333 4.86667 12 5.2L9.2 8L12 10.8Z" fill="#EB4D3D"/>
</svg>
