<svg width="13" height="16" viewBox="0 0 13 16" fill="none" xmlns="http://www.w3.org/2000/svg">
<path d="M2.78632 16C3.29714 16 3.71509 15.6 3.71509 15.1111V13.3333H6.50141C7.01223 13.3333 7.43018 12.9333 7.43018 12.4444C7.43018 11.9556 7.01223 11.5556 6.50141 11.5556H3.71509V9.77778H7.89457C10.8852 9.77778 13.2722 7.32444 12.975 4.40889C12.7242 1.86667 10.3465 0 7.67166 0H2.78632C2.27549 0 1.85755 0.4 1.85755 0.888889V8H0.928773C0.417948 8 0 8.4 0 8.88889C0 9.37778 0.417948 9.77778 0.928773 9.77778H1.85755V11.5556H0.928773C0.417948 11.5556 0 11.9556 0 12.4444C0 12.9333 0.417948 13.3333 0.928773 13.3333H1.85755V15.1111C1.85755 15.6 2.27549 16 2.78632 16ZM7.89457 8H3.71509V1.77778H7.89457C9.6871 1.77778 11.1453 3.17333 11.1453 4.88889C11.1453 6.60444 9.6871 8 7.89457 8Z" fill="#0082DE"/>
</svg>
