<svg width="32" height="32" viewBox="0 0 32 32" fill="none" xmlns="http://www.w3.org/2000/svg">
<path fill-rule="evenodd" clip-rule="evenodd" d="M13.927 4.01438C14.7251 2.21721 17.2756 2.21722 18.0736 4.01438L19.4444 7.10155C19.5145 7.25933 19.6959 7.33449 19.857 7.27246L23.0093 6.05881C24.8444 5.35229 26.6479 7.15581 25.9414 8.99087L24.7277 12.1431C24.6657 12.3042 24.7408 12.4857 24.8986 12.5558L27.9858 13.9266C29.783 14.7246 29.7829 17.2751 27.9858 18.0731L24.8986 19.4439C24.7408 19.514 24.6657 19.6954 24.7277 19.8565L25.9414 23.0088C26.6479 24.8439 24.8444 26.6474 23.0093 25.9409L19.857 24.7272C19.6959 24.6652 19.5145 24.7403 19.4444 24.8981L18.0736 27.9853C17.2756 29.7825 14.725 29.7825 13.927 27.9853L12.5562 24.8981C12.4862 24.7403 12.3047 24.6652 12.1436 24.7272L8.99136 25.9409C7.15629 26.6474 5.35278 24.8439 6.0593 23.0088L7.27295 19.8565C7.33498 19.6954 7.25982 19.514 7.10204 19.4439L4.01487 18.0731C2.2177 17.2751 2.2177 14.7246 4.01487 13.9266L7.10204 12.5558C7.25982 12.4857 7.33498 12.3042 7.27295 12.1431L6.0593 8.99087C5.35278 7.15582 7.15629 5.35229 8.99136 6.05881L12.1436 7.27246C12.3047 7.33449 12.4862 7.25933 12.5562 7.10155L13.927 4.01438ZM16.2965 4.80347C16.1825 4.54673 15.8181 4.54673 15.7041 4.80347L14.3333 7.89064C13.8429 8.99511 12.5728 9.52123 11.445 9.08703L8.29273 7.87338C8.03059 7.77245 7.77294 8.03009 7.87387 8.29225L9.08752 11.4445C9.52172 12.5723 8.9956 13.8424 7.89113 14.3329L4.80396 15.7037C4.54722 15.8177 4.54722 16.182 4.80396 16.296L7.89113 17.6668C8.9956 18.1572 9.52172 19.4274 9.08752 20.5552L7.87387 23.7074C7.77293 23.9696 8.03058 24.2272 8.29273 24.1263L11.445 22.9126C12.5728 22.4784 13.8429 23.0046 14.3333 24.109L15.7041 27.1962C15.8181 27.4529 16.1825 27.4529 16.2965 27.1962L17.6673 24.109C18.1577 23.0046 19.4279 22.4784 20.5557 22.9126L23.7079 24.1263C23.9701 24.2272 24.2277 23.9696 24.1268 23.7074L22.9131 20.5552C22.4789 19.4274 23.0051 18.1573 24.1095 17.6668L27.1967 16.296C27.4534 16.182 27.4534 15.8177 27.1967 15.7037L24.1095 14.3329C23.0051 13.8424 22.4789 12.5723 22.9131 11.4445L24.1268 8.29225C24.2277 8.03009 23.9701 7.77245 23.7079 7.87338L20.5557 9.08703C19.4279 9.52123 18.1577 8.99511 17.6673 7.89064L16.2965 4.80347Z" fill="#7A91A9"/>
<path fill-rule="evenodd" clip-rule="evenodd" d="M16.0003 13.4073C14.5685 13.4073 13.4078 14.568 13.4078 15.9998C13.4078 17.4317 14.5685 18.5924 16.0003 18.5924C17.4322 18.5924 18.5929 17.4317 18.5929 15.9998C18.5929 14.568 17.4322 13.4073 16.0003 13.4073ZM11.4634 15.9998C11.4634 13.4941 13.4946 11.4629 16.0003 11.4629C18.506 11.4629 20.5373 13.4941 20.5373 15.9998C20.5373 18.5055 18.506 20.5368 16.0003 20.5368C13.4946 20.5368 11.4634 18.5055 11.4634 15.9998Z" fill="#7A91A9"/>
</svg>
