<svg width="20" height="20" viewBox="0 0 20 20" fill="none" xmlns="http://www.w3.org/2000/svg">
<path d="M20 10C20 15.5228 15.5228 20 10 20C4.47715 20 0 15.5228 0 10C0 4.47715 4.47715 0 10 0C15.5228 0 20 4.47715 20 10Z" fill="#004781"/>
<path d="M4.87616 12.3846C4.52637 12.3846 4.18718 12.3184 3.85858 12.1861C3.53529 12.0537 3.2491 11.8657 3 11.6222L3.54059 10.9948C3.72609 11.1695 3.93808 11.3125 4.17658 11.4236C4.41507 11.5295 4.65357 11.5825 4.89207 11.5825C5.18886 11.5825 5.41411 11.5216 5.5678 11.3998C5.7215 11.278 5.79835 11.1166 5.79835 10.9154C5.79835 10.8095 5.77715 10.7195 5.73475 10.6453C5.69765 10.5712 5.642 10.5077 5.5678 10.4547C5.4989 10.3965 5.41411 10.3435 5.31341 10.2959C5.21801 10.2482 5.11201 10.2006 4.99541 10.1529L4.27993 9.8432C4.15273 9.79026 4.02553 9.72408 3.89833 9.64466C3.77644 9.56524 3.66514 9.46993 3.56444 9.35875C3.46374 9.24756 3.38159 9.11784 3.31799 8.96959C3.2597 8.82135 3.23055 8.65192 3.23055 8.46131C3.23055 8.25482 3.27294 8.06422 3.35774 7.88949C3.44784 7.70948 3.56974 7.55329 3.72344 7.42092C3.87713 7.28856 4.05998 7.18531 4.27198 7.11119C4.48927 7.03706 4.72512 7 4.97951 7C5.28161 7 5.5731 7.06089 5.854 7.18266C6.13489 7.29915 6.37604 7.45798 6.57743 7.65918L6.10839 8.24688C5.9388 8.10922 5.7639 8.00068 5.5837 7.92126C5.40351 7.84184 5.20211 7.80213 4.97951 7.80213C4.73042 7.80213 4.53167 7.85773 4.38327 7.96891C4.23488 8.07481 4.16068 8.22305 4.16068 8.41366C4.16068 8.51426 4.18188 8.60162 4.22428 8.67574C4.27198 8.74457 4.33292 8.80811 4.40712 8.86635C4.48662 8.9193 4.57672 8.96959 4.67742 9.01725C4.77812 9.0596 4.88146 9.10196 4.98746 9.14432L5.695 9.43817C5.8487 9.5017 5.98914 9.57583 6.11634 9.66054C6.24354 9.74525 6.35219 9.8432 6.44229 9.95439C6.53768 10.0656 6.61188 10.1953 6.66488 10.3435C6.71788 10.4865 6.74438 10.6533 6.74438 10.8439C6.74438 11.0557 6.70198 11.2542 6.61718 11.4395C6.53238 11.6248 6.40784 11.789 6.24354 11.9319C6.08454 12.0696 5.88845 12.1808 5.65525 12.2655C5.42736 12.3449 5.16766 12.3846 4.87616 12.3846Z" fill="white"/>
<path d="M7.68979 12.2893V7.0953H8.73122L9.65341 9.63671C9.7117 9.80085 9.76735 9.97027 9.82035 10.145C9.87335 10.3144 9.929 10.4839 9.9873 10.6533H10.0191C10.0774 10.4839 10.1304 10.3144 10.1781 10.145C10.2311 9.97027 10.2867 9.80085 10.345 9.63671L11.2434 7.0953H12.2928V12.2893H11.4421V9.91468C11.4421 9.79291 11.4448 9.66054 11.4501 9.51759C11.4607 9.37463 11.4713 9.23168 11.4819 9.08872C11.4925 8.94047 11.5057 8.79752 11.5216 8.65986C11.5375 8.5169 11.5508 8.38454 11.5614 8.26276H11.5296L11.1082 9.46993L10.2576 11.8049H9.70905L8.85047 9.46993L8.43708 8.26276H8.40528C8.41588 8.38454 8.42648 8.5169 8.43708 8.65986C8.45298 8.79752 8.46623 8.94047 8.47683 9.08872C8.49273 9.23168 8.50333 9.37463 8.50863 9.51759C8.51923 9.66054 8.52453 9.79291 8.52453 9.91468V12.2893H7.68979Z" fill="white"/>
<path d="M15.1318 12.3846C14.782 12.3846 14.4428 12.3184 14.1142 12.1861C13.7909 12.0537 13.5047 11.8657 13.2556 11.6222L13.7962 10.9948C13.9817 11.1695 14.1937 11.3125 14.4322 11.4236C14.6707 11.5295 14.9092 11.5825 15.1477 11.5825C15.4445 11.5825 15.6697 11.5216 15.8234 11.3998C15.9771 11.278 16.054 11.1166 16.054 10.9154C16.054 10.8095 16.0328 10.7195 15.9904 10.6453C15.9533 10.5712 15.8976 10.5077 15.8234 10.4547C15.7545 10.3965 15.6697 10.3435 15.569 10.2959C15.4736 10.2482 15.3676 10.2006 15.251 10.1529L14.5355 9.8432C14.4083 9.79026 14.2812 9.72408 14.154 9.64466C14.0321 9.56524 13.9208 9.46993 13.8201 9.35875C13.7194 9.24756 13.6372 9.11784 13.5736 8.96959C13.5153 8.82135 13.4862 8.65192 13.4862 8.46131C13.4862 8.25482 13.5286 8.06422 13.6134 7.88949C13.7035 7.70948 13.8254 7.55329 13.9791 7.42092C14.1328 7.28856 14.3156 7.18531 14.5276 7.11119C14.7449 7.03706 14.9807 7 15.2351 7C15.5372 7 15.8287 7.06089 16.1096 7.18266C16.3905 7.29915 16.6317 7.45798 16.8331 7.65918L16.364 8.24688C16.1944 8.10922 16.0195 8.00068 15.8393 7.92126C15.6591 7.84184 15.4577 7.80213 15.2351 7.80213C14.986 7.80213 14.7873 7.85773 14.6389 7.96891C14.4905 8.07481 14.4163 8.22305 14.4163 8.41366C14.4163 8.51426 14.4375 8.60162 14.4799 8.67574C14.5276 8.74457 14.5885 8.80811 14.6627 8.86635C14.7422 8.9193 14.8323 8.96959 14.933 9.01725C15.0337 9.0596 15.1371 9.10196 15.2431 9.14432L15.9506 9.43817C16.1043 9.5017 16.2448 9.57583 16.372 9.66054C16.4992 9.74525 16.6078 9.8432 16.6979 9.95439C16.7933 10.0656 16.8675 10.1953 16.9205 10.3435C16.9735 10.4865 17 10.6533 17 10.8439C17 11.0557 16.9576 11.2542 16.8728 11.4395C16.788 11.6248 16.6635 11.789 16.4992 11.9319C16.3402 12.0696 16.1441 12.1808 15.9109 12.2655C15.683 12.3449 15.4233 12.3846 15.1318 12.3846Z" fill="white"/>
</svg>
