<svg width="20" height="20" viewBox="0 0 20 20" fill="none" xmlns="http://www.w3.org/2000/svg">
<g clip-path="url(#clip0_3822_64725)">
<path d="M10.1958 16.6699C8.79656 16.7103 7.41671 16.3349 6.23079 15.5911C5.04487 14.8474 4.10615 13.7686 3.53336 12.4913C2.96056 11.214 2.77942 9.79547 3.01284 8.41521C3.24625 7.03494 3.88375 5.75489 4.84469 4.73694C5.80564 3.719 7.04687 3.00888 8.41142 2.6964C9.77596 2.38393 11.2025 2.48312 12.5107 2.98144C13.8189 3.47977 14.9499 4.35483 15.7607 5.49597C16.5715 6.63712 17.0257 7.99308 17.0658 9.39237C17.0928 10.3214 16.9365 11.2466 16.6058 12.1151C16.2751 12.9837 15.7766 13.7786 15.1386 14.4544C14.5006 15.1302 13.7357 15.6737 12.8876 16.0539C12.0395 16.434 11.1249 16.6433 10.1958 16.6699ZM19.4958 9.32237C19.4403 7.44503 18.8295 5.62629 17.7406 4.09596C16.6517 2.56563 15.1337 1.3924 13.3783 0.724498C11.6229 0.0566007 9.70894 -0.0759852 7.87822 0.343494C6.0475 0.762973 4.3822 1.71569 3.09274 3.08127C1.80329 4.44684 0.947538 6.16399 0.633632 8.01574C0.319726 9.86749 0.561748 11.7707 1.32912 13.485C2.09649 15.1992 3.35477 16.6475 4.94496 17.6469C6.53516 18.6463 8.3859 19.1519 10.2633 19.0999C11.5119 19.0652 12.7414 18.7847 13.8815 18.2744C15.0215 17.7641 16.0497 17.0339 16.9073 16.1258C17.7648 15.2176 18.4348 14.1492 18.879 12.9818C19.3232 11.8144 19.5328 10.5709 19.4958 9.32237Z" fill="#0066B3"/>
<path d="M9.98338 16.5026C8.17886 16.4867 6.4522 15.7653 5.17277 14.4927C3.89333 13.2201 3.16273 11.4973 3.13725 9.69288C3.11177 7.88847 3.79344 6.14574 5.03643 4.8375C6.27943 3.52925 7.98503 2.75938 9.78838 2.69259H9.99088C11.8069 2.6901 13.5509 3.40317 14.8449 4.67734C16.139 5.95151 16.879 7.68419 16.9046 9.50007C16.9303 11.316 16.2395 13.0688 14.982 14.379C13.7244 15.6893 12.0013 16.4513 10.1859 16.5001H9.98338M9.98338 16.6701H10.1909C12.0521 16.6207 13.8189 15.8399 15.1084 14.4969C16.3979 13.1538 17.1063 11.3568 17.08 9.49507C17.0537 7.63338 16.2948 5.85704 14.9679 4.55098C13.6409 3.24492 11.8528 2.51435 9.99088 2.51759H9.78338C7.90631 2.54411 6.11666 3.31521 4.80812 4.66125C3.49959 6.00729 2.77936 7.81802 2.80588 9.69509C2.8324 11.5722 3.6035 13.3618 4.94955 14.6703C6.29559 15.9789 8.10631 16.6991 9.98338 16.6726" fill="white"/>
<path d="M10.037 2.84915H9.83948C8.05258 2.87368 6.34862 3.60705 5.10244 4.88792C3.85626 6.16879 3.16995 7.89225 3.19448 9.67914C3.21901 11.466 3.95238 13.17 5.23325 14.4162C6.51413 15.6624 8.23758 16.3487 10.0245 16.3241H10.222C11.9798 16.2583 13.6421 15.5074 14.8535 14.232C16.0649 12.9565 16.7292 11.2577 16.7043 9.49883C16.6795 7.73996 15.9676 6.0606 14.7207 4.81982C13.4738 3.57904 11.791 2.87533 10.032 2.85915L10.037 2.84915ZM10.0245 16.8241C8.61205 16.8182 7.23212 16.3997 6.05422 15.6203C4.87633 14.8408 3.95177 13.7342 3.39413 12.4365C2.83649 11.1388 2.67006 9.7065 2.91528 8.3155C3.1605 6.92451 3.8067 5.63543 4.77448 4.60665C5.42453 3.91341 6.20551 3.35587 7.0723 2.96625C7.93909 2.57662 8.8745 2.36263 9.82448 2.33665H10.037C11.9598 2.30979 13.8145 3.04788 15.1932 4.38853C16.5718 5.72918 17.3614 7.56258 17.3882 9.4854C17.4151 11.4082 16.677 13.2629 15.3363 14.6416C13.9957 16.0202 12.1623 16.8098 10.2395 16.8366H10.0245" fill="#0066B3"/>
<path d="M13.9008 15.573L13.8633 15.528C13.7889 15.456 13.6993 15.4015 13.6011 15.3686C13.5029 15.3357 13.3986 15.3253 13.2958 15.338C13.1472 15.3403 12.9995 15.3604 12.8558 15.398C12.7133 15.433 12.5358 15.4905 12.3233 15.563C12.3009 15.5155 12.2714 15.4717 12.2358 15.433C12.1262 15.3372 11.9977 15.2654 11.8586 15.2223C11.7195 15.1792 11.5729 15.1659 11.4283 15.183C10.7408 15.2198 10.0646 15.3728 9.42827 15.6355C8.98902 15.8172 8.52081 15.9188 8.04577 15.9355C7.57468 15.9247 7.1176 15.7732 6.73327 15.5005L6.56077 15.398L6.34327 15.268L6.30327 15.518L5.85327 18.158L6.01577 18.228L6.09327 17.7705L6.46077 15.5455L6.63327 15.648C6.92567 15.8415 7.25237 15.9773 7.59577 16.048C7.74592 16.0751 7.89821 16.0885 8.05077 16.088C8.54562 16.071 9.03337 15.9651 9.49077 15.7755C10.1083 15.5219 10.7641 15.374 11.4308 15.338C11.5406 15.3361 11.6503 15.3453 11.7583 15.3655C11.8925 15.3821 12.0173 15.4428 12.1133 15.538C12.1714 15.6019 12.2051 15.6842 12.2083 15.7705C12.4708 15.683 12.7083 15.598 12.8983 15.5555C13.0282 15.522 13.1616 15.5036 13.2958 15.5005H13.4133L13.4883 15.513C13.5444 15.5235 13.5984 15.5429 13.6483 15.5705C13.7008 15.598 13.8058 15.5005 13.8058 15.5005L13.3483 18.5005L13.5008 18.4355C13.5133 18.363 13.5233 18.288 13.5358 18.208C13.5858 17.9005 13.6258 17.678 13.6258 17.6755V17.618V17.548C13.6608 17.3355 13.6933 17.1255 13.7258 16.928C13.8183 16.338 13.8983 15.858 13.9083 15.788V15.7305V15.653L13.9008 15.573Z" fill="#0066B3"/>
<path d="M9.94212 16.5397C8.13761 16.5238 6.41094 15.8024 5.13151 14.5298C3.85207 13.2572 3.12147 11.5344 3.09599 9.72999C3.07051 7.92558 3.75218 6.18285 4.99517 4.87461C6.23817 3.56636 7.94377 2.79649 9.74712 2.7297H9.94962C11.7657 2.72721 13.5096 3.44028 14.8037 4.71445C16.0977 5.98862 16.8377 7.7213 16.8634 9.53718C16.889 11.3531 16.1983 13.106 14.9407 14.4162C13.6831 15.7264 11.96 16.4884 10.1446 16.5372H9.94212M9.94212 16.7072H10.1496C12.0108 16.6578 13.7776 15.877 15.0672 14.534C16.3567 13.1909 17.065 11.3939 17.0387 9.53218C17.0124 7.67049 16.2536 5.89415 14.9266 4.58809C13.5997 3.28203 11.8115 2.55146 9.94962 2.5547H9.74212C7.86505 2.58122 6.0754 3.35232 4.76686 4.69836C3.45833 6.0444 2.7381 7.85513 2.76462 9.7322C2.79115 11.6093 3.56224 13.3989 4.90829 14.7075C6.25433 16.016 8.06505 16.7362 9.94212 16.7097" fill="white"/>
<path d="M11.4308 15.3367C11.5512 15.322 11.6733 15.3319 11.7898 15.3658C11.9063 15.3998 12.0146 15.4571 12.1083 15.5342C12.1676 15.5993 12.2013 15.6837 12.2033 15.7717C12.4683 15.6817 12.7033 15.5967 12.8983 15.5542C13.0282 15.5207 13.1616 15.5022 13.2958 15.4992C13.6008 15.4992 13.6733 15.5617 13.6958 15.5842L13.8058 15.5042L13.1908 19.4142L13.0258 19.3217C12.9355 19.2751 12.8349 19.2519 12.7333 19.2542C12.3308 19.2995 11.9387 19.4119 11.5733 19.5867C11.3046 19.7134 11.0229 19.8106 10.7333 19.8767C10.6555 19.8888 10.577 19.8955 10.4983 19.8967C10.1358 19.8967 10.0783 19.7017 10.0708 19.6042L10.0933 19.4017L9.80327 19.5117C9.61077 19.5867 9.42827 19.6567 9.26827 19.7117C8.9456 19.8172 8.60773 19.8687 8.26827 19.8642C7.43742 19.8774 6.62076 19.648 5.91827 19.2042L5.85327 19.1567L6.45077 15.5442L6.62327 15.6467C7.04545 15.9345 7.54482 16.0879 8.05577 16.0867C8.55062 16.0696 9.03837 15.9638 9.49577 15.7742C10.1118 15.5213 10.7659 15.3734 11.4308 15.3367Z" fill="white"/>
<path d="M10.4035 18.1095L10.206 19.5295C10.1535 19.7795 10.456 19.7795 10.706 19.747C11.3535 19.6495 12.486 18.8745 13.081 19.207C13.1685 18.4995 13.331 17.5945 13.331 17.5945C13.331 17.5945 13.1835 17.3895 12.626 17.5245C12.0685 17.6595 10.8235 18.1945 10.406 18.1095" fill="#ED1C24"/>
<path d="M13.2657 18.0015C13.3282 17.6065 13.3932 17.184 13.4532 16.809C13.3401 16.7525 13.2168 16.7191 13.0905 16.711C12.9643 16.7028 12.8377 16.72 12.7182 16.7615C12.1757 16.894 10.9882 17.399 10.5407 17.3515L10.3757 18.409C10.4257 18.5815 10.6257 18.624 10.8907 18.6015C11.5382 18.549 12.6682 17.6915 13.2657 18.0015Z" fill="#0066B3"/>
<path d="M10.1909 19.6223C10.2309 19.3523 10.6034 19.3423 10.8484 19.3548C11.0934 19.3673 11.5484 19.3548 11.5859 19.1623C11.6309 18.8973 11.6509 18.5723 11.6509 18.5723L10.3559 18.5873L10.1909 19.6223Z" fill="#BE1E2D"/>
<path d="M6.00342 19.1008L6.30342 17.3058C6.82592 17.6158 7.64592 18.0558 9.32092 17.4133C10.6634 16.8983 11.9109 16.8058 11.8509 17.3383L11.5759 19.1758C11.6759 18.5458 10.0759 19.2983 9.22842 19.5933C8.31592 19.9108 6.80842 19.6808 6.00342 19.0933" fill="#ED1C24"/>
<path d="M9.38079 17.0394C7.76079 17.6594 6.91079 17.1069 6.38079 16.7894L6.18579 17.9519C6.65462 18.258 7.19078 18.4458 7.74819 18.4989C8.3056 18.552 8.86757 18.469 9.38579 18.2569C10.1358 17.9669 11.6033 17.4619 11.7658 17.9144C11.8233 17.5344 11.8808 17.1319 11.9308 16.7819C11.7233 16.4394 10.5658 16.5819 9.37579 17.0319" fill="#0066B3"/>
<path d="M13.1558 10.7283C13.1558 10.7133 13.1258 10.6558 13.0908 10.5783C13.1198 10.5953 13.1498 10.6103 13.1808 10.6233L13.2358 10.7208C13.2094 10.7239 13.1835 10.7298 13.1583 10.7383M12.5183 10.7383C12.5183 10.6058 12.4858 10.5208 12.4458 10.2383C12.514 10.4172 12.5716 10.6 12.6183 10.7858C12.5859 10.7715 12.5525 10.7598 12.5183 10.7508M12.2333 12.3633C12.2333 12.3633 12.2333 12.3633 12.2333 12.3833V12.3633ZM12.2333 12.5608C12.2343 12.5508 12.2343 12.5408 12.2333 12.5308C12.2319 12.5391 12.2319 12.5475 12.2333 12.5558M13.1283 13.4483L12.9833 13.7658L12.8158 13.6858L12.9283 13.4358C12.9988 13.4449 13.0703 13.4449 13.1408 13.4358M13.2958 13.3908L13.2558 13.4758L13.1633 13.4333C13.209 13.4244 13.2535 13.4101 13.2958 13.3908ZM8.2333 14.2158C8.2414 14.1846 8.25885 14.1567 8.2833 14.1358C8.28018 14.154 8.28018 14.1726 8.2833 14.1908L8.2333 14.2158ZM7.7433 12.5408C7.7447 12.5325 7.7447 12.5241 7.7433 12.5158C7.74464 12.5257 7.74464 12.5358 7.7433 12.5458M7.0608 11.3133L6.8708 11.2258C6.8607 11.1801 6.8407 11.1371 6.81219 11.1C6.78368 11.0628 6.74736 11.0324 6.7058 11.0108C6.72145 10.9802 6.72789 10.9457 6.72434 10.9116C6.72079 10.8774 6.7074 10.845 6.6858 10.8183C6.7858 10.6908 6.9558 10.3183 7.1458 10.0183C7.1033 10.3408 6.5533 10.7683 6.9883 11.0808C7.2733 11.0383 7.4258 10.6983 7.5383 10.2308C7.5933 10.3408 7.2508 10.8233 7.7158 10.9808C7.9208 10.9433 8.0708 10.5458 8.0183 10.2483C8.04115 10.2634 8.06287 10.2801 8.0833 10.2983C8.1458 10.2308 8.2708 10.2308 8.3158 10.1433L8.3583 10.1708C8.4983 10.4033 8.5083 10.8433 8.3158 11.0033C8.37296 11.0062 8.43008 10.9968 8.4833 10.9758C8.4833 10.9758 8.4833 10.9758 8.4583 11.0158L8.4408 11.0433C8.3333 11.1458 8.3033 11.1733 7.9908 11.1283C7.99476 11.1627 8.00583 11.1959 8.0233 11.2258C7.8683 11.2908 7.6158 11.2808 7.5458 11.7058C7.54199 11.7004 7.53682 11.6961 7.5308 11.6933H7.5183C7.5183 11.6933 7.4983 11.6933 7.4958 11.6758C7.4933 11.6583 7.4958 11.6558 7.4783 11.6508H7.4158L7.3683 11.6833C7.3283 11.7008 7.3333 11.6608 7.2633 11.7608C7.2633 11.7608 7.2633 11.7608 7.2633 11.8008H7.2458L7.1808 11.7683C7.16066 11.7624 7.14134 11.754 7.1233 11.7433L7.0458 11.7208L7.0833 11.7383L7.1708 11.7783L7.2233 11.8008L7.2333 11.8383L7.0233 11.7408H7.0108C6.9952 11.7311 6.97839 11.7235 6.9608 11.7183L6.8833 11.6958L7.0608 11.3133ZM13.6808 10.4158C13.6758 10.4295 13.6758 10.4445 13.6808 10.4583L13.6583 10.4258C13.6628 10.4009 13.6722 10.3771 13.6858 10.3558L13.7008 10.3733C13.6907 10.3856 13.6838 10.4002 13.6808 10.4158ZM13.0183 10.4158L13.0833 10.4408L13.1233 10.5158H13.0658L13.0183 10.4108M11.6608 11.1383C11.5897 11.1054 11.5323 11.0489 11.4983 10.9783C11.5515 10.9993 11.6086 11.0087 11.6658 11.0058C11.4733 10.8458 11.4833 10.4058 11.6233 10.1733L11.6658 10.1458C11.7108 10.2333 11.8358 10.2333 11.8983 10.3008C11.9187 10.2826 11.9405 10.2659 11.9633 10.2508C11.9653 10.428 11.9769 10.6049 11.9983 10.7808C11.8499 10.86 11.7314 10.9855 11.6608 11.1383ZM12.3458 13.7883L12.0158 13.6358L12.2333 13.1483C12.3286 13.2259 12.4327 13.2922 12.5433 13.3458L12.3458 13.7883ZM7.7533 12.4658V12.4933C7.75419 12.4866 7.75419 12.4799 7.7533 12.4733M13.5033 10.2008L13.5808 10.2233L13.6008 10.2483L13.5208 10.2258C13.5164 10.2165 13.5105 10.2081 13.5033 10.2008ZM12.9133 10.2008L12.9583 10.2258L13.0083 10.3158H12.9658C12.9491 10.2758 12.9316 10.2383 12.9133 10.2033M12.0008 12.4908C11.9996 12.5024 11.9996 12.5141 12.0008 12.5258C12.0022 12.5142 12.0022 12.5024 12.0008 12.4908ZM11.0833 14.0083L11.2333 14.0883C11.2333 14.0883 11.1883 14.1483 11.0333 14.1483C11.0322 14.1062 11.0271 14.0644 11.0183 14.0233H11.0733M9.5733 13.7083L9.7133 13.6383C9.68538 13.7595 9.66451 13.8822 9.6508 14.0058C9.60504 14.0096 9.55906 14.0096 9.5133 14.0058C9.52364 13.9041 9.54373 13.8036 9.5733 13.7058M8.7608 14.0883L8.8408 14.0483C8.83934 14.0774 8.83934 14.1066 8.8408 14.1358C8.82573 14.1334 8.81131 14.1279 8.79842 14.1197C8.78552 14.1116 8.77443 14.1009 8.7658 14.0883M9.7008 13.3558L9.7733 13.3883C9.77213 13.4008 9.77213 13.4133 9.7733 13.4258L9.6583 13.4833C9.6733 13.4408 9.6908 13.3983 9.7083 13.3558M11.1833 11.9408C10.9531 11.9156 10.7219 11.978 10.5358 12.1158C10.5604 12.0558 10.5986 12.0023 10.6472 11.9594C10.6959 11.9165 10.7538 11.8854 10.8164 11.8685C10.879 11.8516 10.9446 11.8493 11.0083 11.8618C11.0719 11.8744 11.1318 11.9014 11.1833 11.9408ZM10.7833 12.9083C10.6956 12.8689 10.6119 12.8212 10.5333 12.7658H10.5458H10.6033C10.6944 12.7719 10.7795 12.8131 10.8408 12.8808L10.7833 12.9083ZM9.6333 12.9083H9.6108C9.6358 12.8808 9.6608 12.8533 9.6833 12.8233C9.6658 12.8508 9.6508 12.8783 9.6333 12.9033M9.8658 12.9033C9.8658 12.8758 9.8833 12.8483 9.8883 12.8208C9.8883 12.8483 9.8883 12.8758 9.8883 12.9033M10.5858 13.1833L10.6733 13.1408C10.7761 13.2119 10.8693 13.2959 10.9508 13.3908C10.8342 13.3463 10.7221 13.2911 10.6158 13.2258L10.5858 13.1883M10.5233 13.0308V13.0383V13.0308ZM10.1058 12.8383C10.1165 12.8873 10.1298 12.9357 10.1458 12.9833H10.1258C10.1258 12.9383 10.1108 12.8933 10.1058 12.8458M10.8808 12.3208C10.9333 12.4958 11.0333 12.6558 11.4008 12.4908C11.4004 12.5252 11.4119 12.5588 11.4333 12.5858L10.8733 12.8633C10.8733 12.6883 10.7383 12.6133 10.6233 12.5333C10.6633 12.4783 10.6233 12.4533 10.8733 12.3083M10.8733 12.3083C10.9667 12.2834 11.0649 12.2834 11.1583 12.3083C11.1152 12.3341 11.066 12.3477 11.0158 12.3477C10.9656 12.3477 10.9164 12.3341 10.8733 12.3083ZM11.5258 12.4758L11.5608 12.5033H11.5758L11.4908 12.5458C11.5011 12.5242 11.5128 12.5033 11.5258 12.4833M11.4833 13.3233C11.3258 13.2008 11.1585 13.0913 10.9833 12.9958L11.6933 12.6408C11.7087 12.7629 11.698 12.887 11.6618 13.0046C11.6256 13.1223 11.5647 13.2309 11.4833 13.3233ZM9.3358 12.8008H9.3233L9.2983 12.7883L9.3583 12.7708C9.3833 12.7708 9.3808 12.7708 9.4783 12.7558C9.44891 12.7794 9.41801 12.8011 9.3858 12.8208H9.3608M9.0858 12.6933L9.0508 12.6758C9.0508 12.6758 9.0508 12.6758 9.0283 12.6758C9.0283 12.6758 9.0283 12.6758 9.0033 12.6758L8.9708 12.6583H8.9483L8.8558 12.5883H8.8433H8.8183C8.9483 12.5633 9.0083 12.5883 9.1133 12.3383C8.7833 12.5108 8.5358 11.8858 9.1933 11.9008C9.5033 12.0608 9.6308 12.4808 9.1533 12.7533H9.1283H9.1058H9.0833H9.0583M8.7333 13.9583C8.73185 13.9492 8.73185 13.9399 8.7333 13.9308L8.7508 13.9458L8.7333 13.9583ZM7.3983 11.8783C7.39773 11.8874 7.39773 11.8966 7.3983 11.9058C7.3983 11.9058 7.3983 11.9058 7.3833 11.9058V11.8908H7.3958M9.6458 14.4658C9.58962 14.4251 9.54975 14.3657 9.5333 14.2983H9.6383C9.6331 14.3532 9.6331 14.4084 9.6383 14.4633M10.3058 13.8608C10.3375 13.8085 10.3659 13.7542 10.3908 13.6983H10.4033C10.3833 13.8733 10.6183 14.0358 10.3358 14.4483C10.3504 14.247 10.3404 14.0446 10.3058 13.8458M12.5733 11.8833V11.8983C12.5733 11.8983 12.5733 11.9533 12.5733 11.9858L12.4008 12.0758C12.3982 12.0575 12.3982 12.039 12.4008 12.0208H12.4133C12.4224 12.0226 12.4317 12.0226 12.4408 12.0208C12.4683 12.0208 12.4558 12.0333 12.5458 11.9508C12.5586 11.9391 12.5666 11.9231 12.5683 11.9058M13.1833 9.78828C13.2108 9.81078 13.2933 9.90828 13.3933 10.0383L13.3383 10.0183C13.2823 9.94897 13.2305 9.87634 13.1833 9.80078M12.8258 10.0508C12.8374 10.0664 12.8475 10.0832 12.8558 10.1008C12.8476 10.0848 12.8409 10.068 12.8358 10.0508M6.3683 10.3558C6.34503 10.3534 6.32157 10.3534 6.2983 10.3558C6.4708 10.1483 6.7383 9.82328 6.7983 9.78078C6.7758 9.82828 6.5483 10.1283 6.3758 10.3658M5.9733 11.9258H5.8883C5.88516 11.9666 5.86801 12.005 5.83977 12.0347C5.81152 12.0643 5.77391 12.0832 5.7333 12.0883L5.7058 12.0733L5.6833 12.0533L5.6633 12.0283C5.64686 11.9959 5.63992 11.9595 5.6433 11.9233C5.64573 11.8868 5.66076 11.8524 5.6858 11.8258C5.66702 11.8078 5.64948 11.7886 5.6333 11.7683C5.61852 11.7475 5.60515 11.7258 5.5933 11.7033C5.53725 11.59 5.52479 11.4601 5.5583 11.3383C5.59877 11.2386 5.66785 11.1531 5.75683 11.0926C5.84581 11.0321 5.9507 10.9993 6.0583 10.9983C6.0783 10.9583 6.0583 10.9433 6.2483 10.8758C6.2483 10.9108 6.3458 10.9208 6.2683 11.1083C6.3251 11.1759 6.36296 11.2574 6.37804 11.3445C6.39312 11.4315 6.38487 11.521 6.35413 11.6038C6.32339 11.6866 6.27127 11.7598 6.20305 11.8159C6.13484 11.872 6.05298 11.9091 5.9658 11.9233M9.7833 5.33828C9.92151 5.34644 10.0601 5.34644 10.1983 5.33828C10.4425 5.55032 10.7368 5.6966 11.0533 5.76328C10.8535 5.77626 10.653 5.75426 10.4608 5.69828C10.4608 5.82328 10.7383 5.96828 10.9158 6.00578C10.7824 6.02297 10.6468 6.00398 10.5233 5.95078C10.5813 6.04409 10.6695 6.11469 10.7733 6.15078C10.6929 6.23287 10.5948 6.2954 10.4864 6.33354C10.378 6.37169 10.2624 6.38443 10.1483 6.37078C10.1809 6.4104 10.223 6.44123 10.2706 6.46044C10.3182 6.47965 10.3698 6.48665 10.4208 6.48078C10.1776 6.82151 10.0269 7.21945 9.9833 7.63578C9.93904 7.22196 9.79021 6.82621 9.5508 6.48578C9.60218 6.49185 9.65425 6.48496 9.70229 6.46575C9.75032 6.44654 9.79278 6.41561 9.8258 6.37578C9.71207 6.3902 9.59655 6.37781 9.48846 6.33961C9.38037 6.30141 9.28272 6.23846 9.2033 6.15578C9.3063 6.11832 9.39414 6.04805 9.4533 5.95578C9.32977 6.00898 9.1942 6.02797 9.0608 6.01078C9.2383 5.97328 9.5083 5.82828 9.5158 5.70328C9.32276 5.7594 9.12141 5.7814 8.9208 5.76828C9.24082 5.70244 9.53811 5.55422 9.7833 5.33828ZM12.2333 12.4233C12.2312 12.4092 12.2312 12.3949 12.2333 12.3808C12.2309 12.3859 12.2296 12.3914 12.2296 12.397C12.2296 12.4027 12.2309 12.4082 12.2333 12.4133M12.2333 12.4358C12.23 12.4419 12.2283 12.4488 12.2283 12.4558C12.2283 12.4628 12.23 12.4696 12.2333 12.4758C12.2308 12.4584 12.2308 12.4407 12.2333 12.4233V12.4358ZM15.3233 8.14828C15.1451 8.06383 14.9463 8.03259 14.7508 8.05828C14.8958 8.02226 15.028 7.94696 15.133 7.84067C15.238 7.73438 15.3116 7.6012 15.3458 7.45578C15.1702 7.41186 14.9864 7.41186 14.8108 7.45578C14.9336 7.38877 15.037 7.2912 15.111 7.17251C15.185 7.05382 15.2272 6.91803 15.2333 6.77828C15.0288 6.77329 14.8259 6.81609 14.6408 6.90328C15.0458 6.68078 15.1908 6.15328 14.9758 5.85328C14.8533 5.92578 14.2808 6.50828 14.1883 6.57328C14.5508 6.08828 15.0533 5.54078 14.4833 4.94578C14.2189 5.48374 13.905 5.99594 13.5458 6.47578C13.523 6.44441 13.4918 6.42013 13.4558 6.40578C13.3642 6.65398 13.208 6.8732 13.0033 7.04078C12.9884 7.00001 12.9682 6.96135 12.9433 6.92578C11.4833 7.81828 12.7333 9.33828 11.4983 8.75578C11.5571 8.74601 11.6122 8.72037 11.6575 8.68161C11.7028 8.64285 11.7367 8.59245 11.7555 8.53584C11.7743 8.47924 11.7772 8.41858 11.7641 8.36042C11.7509 8.30225 11.7221 8.24878 11.6808 8.20578C11.5683 8.27328 11.4933 8.49328 11.0883 8.18828C11.1316 8.21022 11.1802 8.21971 11.2285 8.21571C11.2769 8.2117 11.3233 8.19436 11.3624 8.1656C11.4015 8.13685 11.4319 8.09781 11.4501 8.05282C11.4684 8.00783 11.4738 7.95867 11.4658 7.91078C10.8908 8.20328 10.8183 7.20078 11.3483 6.78578C11.4058 6.90078 12.0308 6.55578 12.0833 7.09078C12.3158 6.95828 12.2308 6.74578 11.9333 6.66328C12.1833 6.70578 12.8433 7.27328 12.8908 6.54828C12.7808 6.81078 12.3508 6.60328 11.9058 6.54828C12.005 6.48626 12.1222 6.45966 12.2385 6.47283C12.3547 6.48599 12.463 6.53815 12.5458 6.62078C12.6091 6.56477 12.6527 6.48993 12.6703 6.40728C12.6879 6.32462 12.6785 6.2385 12.6436 6.16156C12.6086 6.08463 12.5499 6.02094 12.476 5.97985C12.4022 5.93876 12.3171 5.92244 12.2333 5.93328C12.2352 5.91868 12.2332 5.90384 12.2276 5.89023C12.222 5.87661 12.213 5.86469 12.2014 5.85561C12.1898 5.84654 12.176 5.84063 12.1615 5.83847C12.1469 5.83631 12.132 5.83797 12.1183 5.84328C12.119 5.83143 12.1169 5.81959 12.1121 5.80872C12.1073 5.79785 12.1 5.78828 12.0908 5.78078C12.5583 5.82328 12.9683 5.37328 12.7383 4.74078C12.8598 4.81472 12.9936 4.86637 13.1333 4.89328C13.3033 5.19078 12.8208 5.55078 13.1883 5.98328C13.1931 6.02201 13.188 6.06132 13.1736 6.09758C13.1592 6.13385 13.1359 6.1659 13.1058 6.19078C13.2633 6.15328 13.5108 6.05578 13.2708 5.61328C13.3108 5.88078 13.6758 5.46078 13.6983 5.86328C14.1983 5.46078 13.3533 5.59578 13.5508 5.31578C13.7108 5.09078 13.8383 4.87078 13.2658 4.74828C13.1383 4.29828 12.0958 4.24828 12.4308 5.07828C12.5258 5.27578 12.6308 5.61578 12.0483 5.72578V5.66828C12.1358 5.51078 12.3533 5.06578 11.8883 4.98328C11.8608 4.96828 11.8883 4.98328 11.7858 4.98328V5.02328H11.7558V4.96828C11.7558 4.94828 11.8208 4.93328 11.7558 4.81078H11.7908C11.7657 4.78643 11.7431 4.75963 11.7233 4.73078C11.7518 4.75014 11.7785 4.77189 11.8033 4.79578V4.54578C11.7782 4.57006 11.7515 4.59261 11.7233 4.61328C11.7424 4.58389 11.765 4.55701 11.7908 4.53328H11.5408C11.5658 4.5577 11.5884 4.58449 11.6083 4.61328C11.5796 4.59226 11.5521 4.56973 11.5258 4.54578V4.79578C11.5507 4.7703 11.5784 4.74766 11.6083 4.72828C11.5877 4.75646 11.5651 4.78319 11.5408 4.80828H11.5758C11.5758 4.83328 11.5108 4.84578 11.5758 4.96578V5.02078H11.5433V4.98078C11.4983 4.96828 11.5433 4.98078 11.4433 4.98078C11.2283 5.08078 11.0033 5.18328 11.2808 5.66578V5.70328C10.9902 5.59297 10.7261 5.4226 10.5058 5.20328V5.04078C10.6808 4.81078 10.9808 4.07578 10.3083 3.97828C10.2892 3.96496 10.2671 3.95661 10.244 3.95399C10.2208 3.95137 10.1974 3.95457 10.1758 3.96328V4.02578H10.1058V3.94828H10.0683C10.0683 3.92578 10.2208 3.87828 10.0933 3.68328H10.1483C10.108 3.64541 10.075 3.60051 10.0508 3.55078C10.1003 3.57426 10.1452 3.60644 10.1833 3.64578V3.33828C10.1469 3.37854 10.1027 3.41088 10.0533 3.43328C10.0763 3.38349 10.1085 3.33853 10.1483 3.30078H9.8333C9.87308 3.33853 9.90532 3.38349 9.9283 3.43328C9.87851 3.4103 9.83355 3.37806 9.7958 3.33828V3.65328C9.83488 3.61506 9.87956 3.58303 9.9283 3.55828C9.90594 3.60843 9.87362 3.65351 9.8333 3.69078H9.8883C9.8883 3.72578 9.7433 3.77328 9.9133 3.95578H9.8733V4.03328H9.8008V3.97078C9.77921 3.96207 9.75579 3.95887 9.73265 3.96149C9.70951 3.96411 9.6874 3.97246 9.6683 3.98578C9.2158 4.07828 9.0958 4.48578 9.4708 5.04828V5.21328C9.25446 5.43627 8.99032 5.60723 8.6983 5.71328V5.67578C8.7858 5.51828 9.0033 5.07328 8.5358 4.99078C8.5108 4.97578 8.5358 4.99078 8.4358 4.99078V5.03078H8.4058V4.97578C8.4058 4.95578 8.4683 4.94078 8.4058 4.81828H8.4408C8.41652 4.79317 8.39397 4.76644 8.3733 4.73828C8.40269 4.75837 8.43029 4.78095 8.4558 4.80578V4.55578C8.43012 4.58041 8.40253 4.60298 8.3733 4.62328C8.39236 4.59389 8.41503 4.56701 8.4408 4.54328H8.1908C8.21661 4.56697 8.23929 4.59386 8.2583 4.62328C8.22907 4.60298 8.20149 4.58041 8.1758 4.55578V4.80578L8.2583 4.74078C8.23854 4.76964 8.21592 4.79644 8.1908 4.82078H8.2333C8.2333 4.84578 8.1708 4.85828 8.2333 4.97828V5.03328H8.2033V4.99328C8.1558 4.98078 8.2033 4.99328 8.1008 4.99328C7.8858 5.09328 7.6583 5.19828 7.9383 5.67828V5.73578C7.0733 5.88078 8.1483 3.55828 6.7208 4.75828C6.0133 4.70078 6.6558 5.52828 6.3258 5.47828C6.2133 5.46328 6.0183 5.63328 6.2883 5.87328C6.2183 5.69328 6.4383 5.79078 6.7158 5.62328C6.6783 5.80078 6.4133 6.03578 6.8808 6.20078C6.85191 6.17496 6.82941 6.14277 6.8151 6.10675C6.80078 6.07074 6.79503 6.0319 6.7983 5.99328C7.0708 5.66828 6.8308 5.39578 6.8533 4.90328C6.9883 4.87117 7.11682 4.81621 7.2333 4.74078C7.3108 5.24078 6.8508 5.65328 7.8808 5.78078C7.8716 5.78828 7.86431 5.79785 7.85953 5.80872C7.85474 5.81959 7.85261 5.83143 7.8533 5.84328C7.83957 5.83797 7.8247 5.83631 7.81014 5.83847C7.79558 5.84063 7.78183 5.84654 7.77023 5.85561C7.75864 5.86469 7.7496 5.87661 7.74401 5.89023C7.73841 5.90384 7.73644 5.91868 7.7383 5.93328C7.5583 5.94578 7.0683 6.18328 7.4333 6.61328C7.51608 6.53065 7.62442 6.47849 7.74065 6.46533C7.85687 6.45216 7.97413 6.47876 8.0733 6.54078C7.8233 6.42828 7.4433 6.96328 7.0883 6.54078C7.0733 6.85828 7.4058 7.08078 8.0458 6.65578C7.7483 6.73828 7.6633 6.95078 7.8958 7.08328C7.9383 6.78828 7.9983 6.79078 8.6283 6.77828C8.8658 6.93828 9.4158 8.06328 8.5133 7.90328C8.50529 7.95117 8.51071 8.00033 8.52897 8.04532C8.54723 8.09031 8.57761 8.12935 8.61673 8.1581C8.65584 8.18686 8.70217 8.2042 8.75056 8.20821C8.79894 8.21221 8.84749 8.20272 8.8908 8.18078C8.8683 8.20078 8.5408 8.50078 8.2983 8.19828C8.25698 8.24128 8.22818 8.29475 8.21502 8.35292C8.20185 8.41108 8.20482 8.47174 8.22361 8.52834C8.24239 8.58495 8.27627 8.63535 8.32159 8.67411C8.36692 8.71287 8.42197 8.73851 8.4808 8.74828C7.5783 9.17828 7.8408 8.62078 7.8858 7.83828C7.7683 7.66828 7.3183 7.27328 7.0308 6.91828C7.00589 6.95385 6.98572 6.99251 6.9708 7.03328C6.76537 6.86638 6.609 6.64694 6.5183 6.39828C6.48267 6.4133 6.45163 6.43744 6.4283 6.46828C6.06906 5.98844 5.7552 5.47624 5.4908 4.93828C4.9908 5.36578 5.2708 5.93828 5.7958 6.56578C5.7058 6.50078 5.1333 5.91828 5.0083 5.84578C4.7958 6.14828 4.9408 6.67328 5.3433 6.89578C5.15918 6.80835 4.95706 6.76553 4.7533 6.77078C4.75699 6.91151 4.79718 7.04886 4.86993 7.16939C4.94268 7.28991 5.04549 7.38946 5.1683 7.45828C4.99267 7.41436 4.80893 7.41436 4.6333 7.45828C4.66805 7.60399 4.74253 7.73721 4.84845 7.84313C4.95437 7.94906 5.08759 8.02353 5.2333 8.05828C5.0386 8.03279 4.84068 8.06404 4.6633 8.14828C4.70272 8.28664 4.78439 8.40921 4.89691 8.49886C5.00942 8.58851 5.14714 8.64076 5.2908 8.64828C5.09318 8.66156 4.90848 8.75122 4.7758 8.89828C4.84017 8.98602 4.92517 9.05656 5.02328 9.10365C5.12138 9.15074 5.22958 9.17294 5.3383 9.16828C5.26006 9.1946 5.18812 9.23684 5.12702 9.29235C5.06592 9.34785 5.01699 9.41542 4.9833 9.49078C5.1358 9.61328 5.3283 9.69078 5.7708 9.53328C5.2708 9.74328 5.3633 9.84578 5.2858 10.0633C5.4808 10.1958 5.8683 10.1308 6.2558 9.76078C6.1758 9.91828 5.5583 10.0733 5.7408 10.5433H5.8133C5.80654 10.5504 5.80142 10.559 5.7983 10.5683C5.6958 10.5433 5.4458 10.5283 5.2983 10.8808C5.2608 10.8558 5.1683 10.8808 5.0283 11.0883C5.02758 11.1016 5.02758 11.115 5.0283 11.1283C5.0283 11.1433 5.0283 11.1283 5.0283 11.1683V11.2033L5.0458 11.2383L5.0658 11.2658L5.0933 11.2908C5.06912 11.3266 5.05135 11.3664 5.0408 11.4083C5.04123 11.4133 5.04123 11.4183 5.0408 11.4233C5.03805 11.4524 5.03805 11.4817 5.0408 11.5108C5.04169 11.5166 5.04169 11.5225 5.0408 11.5283C5.03858 11.539 5.03858 11.5501 5.0408 11.5608C5.0408 11.5608 5.0408 11.5808 5.0408 11.6108C5.0413 11.6166 5.0413 11.6225 5.0408 11.6283C5.0408 11.6408 5.0533 11.6583 5.0708 11.6883C5.07126 11.6933 5.07126 11.6983 5.0708 11.7033V11.7183L5.0933 11.7408C5.11269 11.7609 5.13453 11.7786 5.1583 11.7933H5.1733C5.15776 11.8268 5.15171 11.864 5.1558 11.9008V11.9158C5.1563 11.9216 5.1563 11.9275 5.1558 11.9333V11.9483C5.16686 11.9689 5.18216 11.9869 5.20069 12.0011C5.21922 12.0153 5.24056 12.0254 5.2633 12.0308C5.24811 12.062 5.2396 12.0961 5.2383 12.1308C5.2383 12.1308 5.2383 12.1308 5.2383 12.1683C5.24034 12.1878 5.24453 12.2071 5.2508 12.2258C5.2508 12.2258 5.2508 12.2258 5.2508 12.2458C5.27571 12.291 5.31543 12.3264 5.3633 12.3458H5.3758H5.3983H5.4208H5.6233H5.6358H5.7333H5.7533C5.7533 12.3458 5.7533 12.3458 5.7908 12.3158C5.80923 12.2999 5.82523 12.2813 5.8383 12.2608H5.8833H5.9108H5.9283C5.9283 12.2608 5.9283 12.2608 5.9608 12.2608C5.98838 12.2594 6.01511 12.2508 6.0383 12.2358H6.0508H6.0633H6.0758C6.083 12.2261 6.08967 12.2161 6.0958 12.2058C6.11159 12.2075 6.12751 12.2075 6.1433 12.2058H6.1633H6.1958H6.2283C6.25722 12.2033 6.28574 12.1974 6.3133 12.1883H6.3308L6.4833 12.3383H6.5758L6.7533 11.9633C6.7933 11.9883 6.7533 11.9633 6.8658 12.0158C6.86322 12.0273 6.86322 12.0393 6.8658 12.0508L7.4083 12.3008C7.40713 12.3082 7.40713 12.3158 7.4083 12.3233V12.3383C7.4083 12.3383 7.4083 12.3383 7.4083 12.3533C7.40413 12.3605 7.40194 12.3687 7.40194 12.377C7.40194 12.3854 7.40413 12.3936 7.4083 12.4008C7.40698 12.4031 7.40629 12.4056 7.40629 12.4083C7.40629 12.4109 7.40698 12.4135 7.4083 12.4158C7.4358 12.4658 7.4083 12.5158 7.5533 12.5133C7.5783 12.4933 7.5833 12.5133 7.6158 12.3733C7.6333 12.4183 7.6033 12.3958 7.5958 12.5433C7.60236 12.5531 7.61084 12.5615 7.62072 12.5679C7.6306 12.5743 7.64168 12.5787 7.6533 12.5808C7.6533 12.5808 7.6683 12.5808 7.7133 12.5808C7.7283 12.5808 7.7558 12.5808 7.7508 12.5408C7.7508 12.5408 7.7383 12.5808 7.7908 12.6233C7.7908 12.6233 7.8058 12.6233 7.8583 12.6233H7.8708C7.8958 12.6233 7.8858 12.6383 7.9308 12.5958C7.9758 12.5533 7.9308 12.5958 7.9458 12.5083L8.9608 12.9808C8.8708 12.9508 8.1333 13.7433 8.2858 13.0733C8.1783 13.0883 7.9833 13.2233 7.9833 13.5133C7.7333 13.5508 7.4183 14.3058 7.6458 14.3308C7.67632 14.1696 7.76536 14.0253 7.8958 13.9258C7.8958 14.0708 7.8608 14.0633 8.0358 14.3208C8.0208 14.3808 7.4683 14.5083 7.4658 14.6858C7.5483 14.7833 7.8258 14.5358 8.0508 14.4558V14.4933C8.1283 14.4683 8.1008 14.4933 8.2108 14.3833L8.3283 14.3233C8.35812 14.4002 8.41019 14.4665 8.47788 14.5137C8.54557 14.5609 8.62579 14.5869 8.7083 14.5883C8.60723 14.7061 8.46987 14.787 8.31781 14.8182C8.16575 14.8494 8.00762 14.8292 7.8683 14.7608C7.8683 15.0458 8.8383 15.2608 9.0433 14.5833C9.2033 14.6533 9.1708 14.9033 9.7133 14.7033C9.77391 14.8351 9.86677 14.9494 9.9833 15.0358C10.1038 14.9553 10.2005 14.8439 10.2633 14.7133C10.3408 14.7533 10.8383 14.9308 10.9933 14.4633C11.1308 14.5483 11.5183 14.7333 11.6733 14.2733L11.7658 14.3158C11.8058 14.3433 11.7133 14.3883 11.9408 14.4758C11.9265 14.4489 11.9196 14.4187 11.9208 14.3883L12.6433 14.7258C12.6758 14.7258 12.6433 14.7258 12.7683 14.7258H12.8008C12.8008 14.7258 12.8008 14.7258 12.8158 14.7258H12.8308C12.8308 14.7258 12.8308 14.7258 12.8558 14.7083L12.8783 14.6833L12.8958 14.6558C12.8947 14.6508 12.8947 14.6457 12.8958 14.6408C12.8954 14.6358 12.8954 14.6308 12.8958 14.6258C12.8948 14.6217 12.8948 14.6174 12.8958 14.6133C12.8958 14.6133 12.8958 14.5933 12.8958 14.5658C12.8958 14.5658 12.8958 14.5658 12.8958 14.5358C12.8929 14.5256 12.8878 14.5162 12.8808 14.5083C12.8741 14.4935 12.8638 14.4806 12.8508 14.4708C12.8508 14.4708 12.8508 14.4708 12.8233 14.4533L12.7658 14.4258L12.5883 14.3383L12.6658 14.1733L13.0333 14.3383L13.4408 13.4733V13.4333L13.3233 13.3783C13.6233 13.3108 13.8958 12.3983 13.3958 12.2808C13.317 12.3006 13.2337 12.2917 13.1608 12.2558C13.1608 12.3408 13.3233 12.4858 13.3233 12.4858C13.3558 12.5358 13.3633 12.6108 13.1108 12.4383C13.9008 13.2833 12.4908 13.2033 12.1933 12.6558C12.2183 12.6333 12.2208 12.6358 12.2308 12.5733C12.2308 12.6033 12.2558 12.6083 12.2708 12.6133C12.3008 12.6133 12.2708 12.6133 12.3308 12.6133C12.3908 12.6133 12.3308 12.6133 12.3958 12.5683C12.4108 12.5358 12.3833 12.5408 12.3733 12.4058V12.3708C12.3733 12.4483 12.3383 12.4108 12.4308 12.5358C12.4308 12.5358 12.5783 12.5583 12.5708 12.4233C12.575 12.4161 12.5772 12.4079 12.5772 12.3995C12.5772 12.3912 12.575 12.383 12.5708 12.3758C12.5708 12.3758 12.5708 12.3758 12.5708 12.3233C12.6099 12.2883 12.637 12.242 12.6483 12.1908H12.6683C12.6798 12.1933 12.6918 12.1933 12.7033 12.1908C12.7033 12.1908 12.7033 12.1908 12.7183 12.1733L12.7633 12.1508C12.7762 12.1548 12.7902 12.1537 12.8023 12.1476C12.8144 12.1415 12.8237 12.131 12.8283 12.1183L13.8558 11.6033L13.8708 11.6308L14.1783 11.4708L14.1658 11.4508L14.2908 11.3883C14.2509 11.3321 14.2189 11.2707 14.1958 11.2058L14.0733 11.2683L14.0608 11.2433L13.7483 11.3383L13.7658 11.3683L12.7658 11.8683C12.7635 11.867 12.7609 11.8663 12.7583 11.8663C12.7557 11.8663 12.7531 11.867 12.7508 11.8683C12.7508 11.8683 12.7508 11.8683 12.7508 11.8533C12.7508 11.8283 12.7508 11.8358 12.7333 11.7808C12.7338 11.7741 12.7338 11.7674 12.7333 11.7608C12.7333 11.7233 12.7333 11.7408 12.6258 11.6958L12.5783 11.6633C12.5783 11.6633 12.5783 11.6633 12.5633 11.6483C12.5483 11.6333 12.5633 11.6483 12.5208 11.6483H12.5008C12.4858 11.6483 12.4858 11.6483 12.4833 11.6733C12.4808 11.6983 12.4683 11.6733 12.4608 11.6908C12.4183 11.5008 12.3983 11.3483 12.0183 11.2233C12.1108 10.9733 12.6233 10.9508 12.6683 11.4883C12.6808 11.4108 12.7108 10.9883 12.8433 11.5533C12.8577 11.4736 12.9003 11.4017 12.9633 11.3508C12.9633 11.3508 13.0458 11.2408 12.9358 11.0258C12.9638 11.0316 12.9908 11.0417 13.0158 11.0558C13.0758 10.9433 13.2083 10.9033 13.1883 10.7633C13.338 10.8383 13.5012 10.8825 13.6683 10.8933L13.6458 10.8708C13.6469 10.8642 13.6469 10.8574 13.6458 10.8508C13.6588 10.8669 13.674 10.8812 13.6908 10.8933C13.7283 10.8933 13.5333 10.9733 13.7083 11.0858C13.7383 11.0683 13.6033 11.1958 13.7583 11.2158C13.7583 11.2158 13.7283 11.2758 13.7583 11.3133L14.0083 11.1833C13.9683 11.1633 13.5483 10.9033 14.0383 10.6658C14.0687 10.6322 14.0887 10.5905 14.0958 10.5458C14.1384 10.5352 14.1819 10.5285 14.2258 10.5258C14.3233 10.2758 14.0433 9.95078 13.7108 9.74328C13.9608 9.87328 14.2708 10.3208 14.6808 10.0458C14.6033 9.82828 14.7008 9.72578 14.1958 9.51578C14.6383 9.67328 14.8308 9.59578 14.9833 9.47328C14.9518 9.39776 14.9052 9.3295 14.8463 9.27273C14.7874 9.21597 14.7174 9.17191 14.6408 9.14328C14.7496 9.14816 14.8578 9.12606 14.956 9.07895C15.0541 9.03184 15.1391 8.96119 15.2033 8.87328C15.0706 8.72622 14.8859 8.63656 14.6883 8.62328C14.832 8.61576 14.9697 8.56351 15.0822 8.47386C15.1947 8.38421 15.2764 8.26164 15.3158 8.12328" fill="#808D9C"/>
<path d="M14.5259 10.6669C14.4765 10.6916 14.4331 10.7268 14.3985 10.7699C14.364 10.8131 14.3392 10.8632 14.3259 10.9169L14.3009 10.9344L14.2884 10.9694C14.2798 10.9657 14.2704 10.9637 14.2609 10.9637C14.2515 10.9637 14.2421 10.9657 14.2334 10.9694C14.1609 11.0019 14.2009 11.0844 14.2009 11.0844C14.2009 11.0844 14.2334 11.1744 14.2584 11.2269C14.2843 11.2763 14.3136 11.3239 14.3459 11.3694C14.3459 11.3694 14.4034 11.4319 14.4559 11.4044C14.4672 11.3982 14.4765 11.3892 14.4831 11.3782C14.4897 11.3672 14.4933 11.3547 14.4934 11.3419H14.5209H14.5709C14.6302 11.3628 14.6937 11.3687 14.7558 11.359C14.8179 11.3493 14.8766 11.3244 14.9267 11.2865C14.9768 11.2485 15.0168 11.1988 15.0429 11.1416C15.069 11.0845 15.0806 11.0218 15.0766 10.959C15.0725 10.8963 15.053 10.8356 15.0197 10.7823C14.9864 10.729 14.9405 10.6848 14.8859 10.6536C14.8314 10.6224 14.7699 10.6052 14.7071 10.6036C14.6443 10.602 14.582 10.616 14.5259 10.6444" fill="#808D9C"/>
<path d="M13.7333 11.338C13.6908 11.2705 13.7183 11.243 13.7183 11.243C13.7057 11.2423 13.6935 11.238 13.6833 11.2305L13.5458 11.3005C13.5208 11.3155 13.4733 11.3455 13.4658 11.378C13.5569 11.3955 13.6513 11.3814 13.7333 11.338Z" fill="#808D9C"/>
<path d="M13.6759 11.2241C13.6484 11.2016 13.6409 11.1841 13.6459 11.1591C13.6509 11.1341 13.6459 11.1141 13.6759 11.1016H13.6509C13.6509 11.1016 13.5759 11.1016 13.5634 11.1016C13.4798 11.1148 13.4013 11.1502 13.3359 11.2041C13.4134 11.2841 13.5859 11.2591 13.6759 11.2341" fill="#808D9C"/>
<path d="M13.6409 11.0876C13.6283 11.0783 13.6179 11.0663 13.6106 11.0525C13.6032 11.0386 13.5991 11.0233 13.5984 11.0076C13.597 10.9921 13.5995 10.9764 13.6056 10.962C13.6117 10.9476 13.6212 10.935 13.6334 10.9251C13.4818 10.9056 13.3277 10.9175 13.1809 10.9601C13.2231 11.0027 13.274 11.0357 13.3301 11.0568C13.3861 11.0779 13.4461 11.0868 13.5059 11.0826H13.6409" fill="#808D9C"/>
<path d="M14.5833 11.7401C14.4933 11.7401 14.4383 11.8126 14.3508 11.8126C14.3152 11.8133 14.28 11.805 14.2485 11.7883C14.217 11.7717 14.1902 11.7474 14.1708 11.7176C14.1293 11.6365 14.1203 11.5426 14.1458 11.4551L13.8958 11.5876C13.8958 11.6401 13.9708 11.6526 13.9708 11.6526C13.9626 11.6662 13.9583 11.6817 13.9583 11.6976C13.9583 11.7134 13.9626 11.729 13.9708 11.7426C13.9958 11.7851 14.0558 11.7676 14.0558 11.7676C14.0558 11.7676 14.0558 11.8576 14.0908 11.8926C14.107 11.9023 14.1256 11.9074 14.1445 11.9074C14.1634 11.9074 14.182 11.9023 14.1983 11.8926C14.1975 11.9163 14.2017 11.94 14.2108 11.962C14.2198 11.984 14.2335 12.0038 14.2508 12.0201C14.2669 12.03 14.2855 12.0353 14.3045 12.0353C14.3235 12.0353 14.3421 12.03 14.3583 12.0201C14.3583 12.0201 14.3783 12.0851 14.4108 12.1001C14.4301 12.1043 14.4503 12.1024 14.4686 12.0948C14.487 12.0872 14.5025 12.0742 14.5133 12.0576C14.5192 12.0843 14.5304 12.1096 14.5463 12.1319C14.5622 12.1543 14.5824 12.1732 14.6058 12.1876C14.6272 12.1957 14.6503 12.1984 14.673 12.1953C14.6957 12.1923 14.7173 12.1836 14.7358 12.1701C14.8058 12.1176 14.7633 12.1976 14.7558 12.2176C14.7258 12.3176 14.6908 12.4126 14.6583 12.5101C14.6415 12.547 14.6329 12.5871 14.6329 12.6276C14.6329 12.6681 14.6415 12.7082 14.6583 12.7451C14.6583 12.7451 14.6983 12.7901 14.7308 12.7826C14.7583 12.6726 14.7958 12.5651 14.8258 12.4551C14.8696 12.3329 14.8949 12.2048 14.9008 12.0751C14.9011 11.9854 14.8731 11.8979 14.8208 11.8251C14.7962 11.7914 14.7631 11.7648 14.7249 11.7481C14.6867 11.7314 14.6447 11.7252 14.6033 11.7301" fill="#808D9C"/>
<path d="M13.9333 11.6652C13.9333 11.6652 13.8983 11.6652 13.8658 11.5977C13.7823 11.6382 13.7152 11.7061 13.6758 11.7902C13.7137 11.7965 13.7526 11.7894 13.7858 11.7702C13.8329 11.7495 13.8788 11.7261 13.9233 11.7002C13.9216 11.6886 13.9216 11.6768 13.9233 11.6652" fill="#808D9C"/>
<path d="M14.0183 11.8121C14.017 11.8038 14.017 11.7954 14.0183 11.7871C13.9963 11.7942 13.9727 11.7942 13.9508 11.7871C13.9397 11.781 13.9305 11.7719 13.9243 11.7609C13.9181 11.7498 13.9152 11.7373 13.9158 11.7246C13.8383 11.7871 13.7208 11.9046 13.7408 12.0146C13.8233 11.995 13.8987 11.9525 13.9583 11.8921C13.9772 11.8699 13.9947 11.8465 14.0108 11.8221" fill="#808D9C"/>
<path d="M14.061 11.9131C14.0373 11.8909 14.023 11.8605 14.021 11.8281C14.021 11.8281 13.9535 11.9331 13.946 11.9406C13.9072 11.9854 13.8788 12.0382 13.8628 12.0953C13.8468 12.1523 13.8436 12.2122 13.8535 12.2706C13.9746 12.1782 14.075 12.0616 14.1485 11.9281C14.1338 11.9332 14.1181 11.9344 14.1028 11.9318C14.0875 11.9292 14.0731 11.9228 14.061 11.9131Z" fill="#808D9C"/>
<path d="M14.2808 12.0627C14.2656 12.063 14.2505 12.0594 14.237 12.0524C14.2235 12.0455 14.2119 12.0353 14.2033 12.0227C14.191 12.0103 14.1813 11.9954 14.1748 11.9791C14.1684 11.9627 14.1653 11.9453 14.1658 11.9277C14.1658 11.9277 14.1258 11.9927 14.1233 11.9927C14.0294 12.1209 13.9802 12.2764 13.9833 12.4352C14.0321 12.4045 14.0752 12.3656 14.1108 12.3202C14.1258 12.3202 14.2758 12.0702 14.2758 12.0702" fill="#808D9C"/>
<path d="M14.3259 12.3027L14.4284 12.1302C14.4148 12.1316 14.4011 12.1296 14.3884 12.1244C14.3757 12.1192 14.3646 12.1109 14.3559 12.1002C14.3446 12.0862 14.3361 12.0701 14.3309 12.0527C14.321 12.0547 14.3109 12.0547 14.3009 12.0527L14.2359 12.1577C14.1519 12.3116 14.104 12.4826 14.0959 12.6577C14.1267 12.6299 14.1543 12.5989 14.1784 12.5652C14.2209 12.5027 14.3259 12.3152 14.3259 12.3152" fill="#808D9C"/>
<path d="M14.5458 12.1904C14.517 12.1618 14.4955 12.1266 14.4833 12.0879C14.4739 12.1013 14.4609 12.1117 14.4458 12.1179C14.4283 12.1429 14.3233 12.3404 14.3233 12.3404C14.2408 12.4929 14.1208 12.8229 14.1758 12.9129C14.2705 12.8017 14.3449 12.6748 14.3958 12.5379L14.5458 12.1904Z" fill="#808D9C"/>
<path d="M14.5834 12.6105L14.7409 12.1855C14.7177 12.2073 14.6882 12.2209 14.6567 12.2245C14.6251 12.2281 14.5933 12.2215 14.5659 12.2055C14.5659 12.2055 14.4634 12.4555 14.4059 12.598C14.3312 12.7623 14.3036 12.944 14.3259 13.123C14.3626 13.0971 14.3926 13.0629 14.4134 13.023C14.4305 12.9942 14.4455 12.9641 14.4584 12.933L14.5834 12.6105Z" fill="#808D9C"/>
<path d="M14.5908 12.6641C14.5189 12.8238 14.4668 12.9917 14.4358 13.1641C14.4393 13.2696 14.4613 13.3737 14.5008 13.4716L14.7008 12.8241C14.7008 12.8241 14.6033 12.8241 14.5908 12.6741" fill="#808D9C"/>
<path d="M9.98345 8.38555H8.65845V11.1355C8.65845 11.4755 8.79845 11.6355 9.09095 11.6355H9.52845C9.63359 11.6414 9.73418 11.6804 9.81589 11.7468C9.89759 11.8133 9.95623 11.9038 9.98345 12.0055C10.0046 11.901 10.0601 11.8065 10.1412 11.7371C10.2223 11.6678 10.3243 11.6276 10.4309 11.623H10.8709C11.1609 11.623 11.3034 11.463 11.3034 11.123V8.37305L9.98345 8.38555Z" fill="white"/>
<path d="M9.98345 8.38555H8.65845V11.1355C8.65845 11.4755 8.79845 11.6355 9.09095 11.6355H9.52845C9.63359 11.6414 9.73418 11.6804 9.81589 11.7468C9.89759 11.8133 9.95623 11.9038 9.98345 12.0055C10.0046 11.901 10.0601 11.8065 10.1412 11.7371C10.2223 11.6678 10.3243 11.6276 10.4309 11.623H10.8709C11.1609 11.623 11.3034 11.463 11.3034 11.123V8.37305L9.98345 8.38555Z" stroke="white" stroke-width="0.03" stroke-miterlimit="10"/>
<path d="M9.44332 11.0173H9.37082C9.37082 10.9823 9.34332 10.9698 9.34082 10.9323C9.34082 10.7998 9.28832 10.8523 9.41582 10.6048C9.53582 10.5198 9.45082 10.5148 9.73832 10.3548C9.77332 10.3798 9.76582 10.4598 9.73832 10.4898C9.74481 10.5034 9.74984 10.5177 9.75332 10.5323C9.77441 10.5435 9.79723 10.5511 9.82082 10.5548C9.87582 10.6023 9.86082 10.5798 10.0158 10.8298C10.0158 10.8298 10.0158 10.8123 10.0158 10.8023L10.0433 10.8273H10.0208C10.0208 10.8448 10.0208 10.8698 10.0358 10.8698C10.0508 10.8698 9.97332 10.8698 9.95832 10.8923C9.93688 10.8939 9.9166 10.9027 9.90082 10.9173C9.87832 10.9173 9.86832 10.9173 9.85082 10.9348C9.96582 10.8873 9.51332 10.3523 9.43582 10.9873C9.43582 10.9873 9.43582 10.9873 9.41082 10.9873C9.38582 10.9873 9.44332 11.0023 9.44332 11.0223M10.0833 10.7398L9.96832 10.3273C9.98482 10.2965 9.99421 10.2623 9.99582 10.2273C10.0233 10.2273 10.0533 10.2273 10.0833 10.2273C10.1033 10.257 10.1146 10.2916 10.1158 10.3273C10.1383 10.3273 10.0883 10.3648 10.1158 10.4323C10.1608 10.4323 10.1283 10.4323 10.2083 10.4123C10.2758 10.4123 10.2458 10.4123 10.3333 10.5223C10.3571 10.5959 10.3925 10.6651 10.4383 10.7273C10.3933 10.7273 10.4383 10.7273 10.4033 10.7898C10.4033 10.7898 10.4033 10.7498 10.4433 10.7623C10.4433 10.7623 10.4433 10.7848 10.4433 10.7948C10.4433 10.8048 10.4433 10.7948 10.4133 10.8473C10.4133 10.8473 10.4133 10.8348 10.4133 10.8273C10.4133 10.8198 10.4133 10.8273 10.4483 10.8273C10.4512 10.8422 10.4512 10.8575 10.4483 10.8723C10.4483 10.8723 10.4258 10.8848 10.4208 10.8973C10.4097 10.8945 10.3982 10.8941 10.3869 10.8963C10.3757 10.8985 10.3651 10.9031 10.3558 10.9098C10.3558 10.9098 10.3558 10.9098 10.3883 10.9098C10.4208 10.9098 10.3883 10.9223 10.3883 10.9348C10.3883 10.9348 10.3633 10.9348 10.3533 10.9348C10.3433 10.9348 10.2958 10.8848 10.2508 10.8898C10.2058 10.8948 10.2508 10.8898 10.1983 10.8898C10.2158 10.8898 10.1983 10.8898 10.2383 10.8898C10.2783 10.8898 10.2633 10.8673 10.2833 10.8648C10.2851 10.8714 10.2851 10.8783 10.2833 10.8848C10.2833 10.9098 10.3558 10.8523 10.2658 10.8248C10.2162 10.8458 10.1711 10.8764 10.1333 10.9148C10.1333 10.8948 10.1508 10.8698 10.1333 10.8523C10.1633 10.8523 10.1633 10.8023 10.2008 10.7973C10.2383 10.7923 10.2008 10.8173 10.2008 10.8223C10.2358 10.8223 10.2008 10.8223 10.2233 10.7598C10.2083 10.7598 10.2233 10.7473 10.1733 10.7598C10.1233 10.7723 10.1483 10.7423 10.1133 10.8223C10.1008 10.8223 10.1383 10.7948 10.0908 10.7448C10.0908 10.7448 10.0708 10.7448 10.0583 10.7573M9.47582 8.67484C9.45082 8.71484 9.46082 8.67484 9.49082 8.80234C9.47332 8.83484 9.44582 8.82234 9.45582 8.92984C9.39582 8.96234 9.06582 8.90484 9.12082 9.11984C9.12082 9.11984 9.02082 9.22484 9.12082 9.28234C9.12082 9.31484 9.08082 9.32984 9.14582 9.37734C9.15101 9.38672 9.15861 9.39454 9.16785 9.39998C9.17708 9.40543 9.1876 9.4083 9.19832 9.4083C9.20904 9.4083 9.21956 9.40543 9.22879 9.39998C9.23802 9.39454 9.24563 9.38672 9.25082 9.37734C9.32832 9.34234 9.30082 9.58234 9.41332 9.43984C9.4413 9.44618 9.47034 9.44618 9.49832 9.43984L9.53082 9.46234C9.56082 9.43984 9.53082 9.43734 9.61582 9.46234C9.62254 9.45354 9.63126 9.44645 9.64126 9.44167C9.65125 9.43689 9.66224 9.43455 9.67332 9.43484L9.69832 9.52734H9.67832C9.67832 9.60484 9.72332 9.64234 9.73082 9.71484C9.61929 9.7125 9.50852 9.7338 9.40582 9.77734C9.31582 9.60734 8.94832 9.60234 8.97082 10.0273C8.96585 10.0321 8.96212 10.038 8.95994 10.0446C8.95777 10.0511 8.95721 10.058 8.95832 10.0648C8.97427 10.0594 8.98941 10.0519 9.00332 10.0423C8.99296 10.1161 8.99296 10.191 9.00332 10.2648C9.03607 10.2381 9.05895 10.2011 9.06832 10.1598C9.08157 10.2022 9.08157 10.2475 9.06832 10.2898C9.08582 10.2398 9.17582 10.2648 9.21582 10.1123C9.21582 10.1623 9.23332 10.2223 9.20082 10.2523C9.21207 10.2478 9.22227 10.241 9.23082 10.2323C9.38582 10.3423 9.13082 9.67484 9.38332 9.84484C9.28332 9.99234 9.55832 10.3098 9.31332 10.5798C9.30525 10.694 9.26445 10.8033 9.19582 10.8948C9.19582 10.8948 9.19582 10.8948 9.20832 10.8948C9.20832 10.8948 9.20832 10.8948 9.22082 10.8948C9.23332 10.8948 9.22082 10.8948 9.20832 10.9723C9.12332 11.0373 9.24582 10.7223 9.01082 10.7223C9.19082 10.7623 8.98082 11.2973 9.49582 11.1773V11.2098C9.47628 11.2282 9.45336 11.2427 9.42832 11.2523C9.60332 11.2123 9.98582 11.5848 10.2508 11.3098C10.2508 11.2698 10.3608 11.3498 10.3333 11.1998C10.3508 11.1998 10.3333 11.1723 10.4058 11.1673H10.4233C10.4233 11.1673 10.4433 11.1673 10.4808 11.1673C10.5183 11.1673 10.4808 11.2023 10.5933 11.2223C10.6031 11.21 10.6115 11.1966 10.6183 11.1823C10.7158 11.1423 10.9083 11.2273 10.9208 11.0373C10.9125 11.0521 10.9034 11.0663 10.8933 11.0798C10.8933 11.0798 10.8933 11.0798 10.9158 11.0573C10.9158 11.0773 10.8958 11.0998 10.8858 11.1023C10.8758 11.1048 10.9158 11.0373 10.8858 11.0048C10.8873 11.0231 10.8831 11.0413 10.8736 11.057C10.8642 11.0727 10.8501 11.0851 10.8333 11.0923C10.8333 11.0923 10.8458 11.0423 10.8333 11.0323C10.8336 11.0395 10.8322 11.0467 10.8291 11.0532C10.8261 11.0598 10.8215 11.0655 10.8158 11.0698C10.8158 11.0698 10.8158 11.0423 10.8158 11.0398C10.8135 11.0517 10.8081 11.0628 10.8003 11.072C10.7924 11.0812 10.7822 11.0882 10.7708 11.0923C10.7708 11.0923 10.7708 11.0923 10.7708 11.0698C10.7708 11.0473 10.7708 11.0848 10.7483 11.0848C10.7258 11.0848 10.7483 11.0623 10.7358 11.0573C10.7233 11.0523 10.7358 11.0748 10.7208 11.0798C10.7058 11.0848 10.7208 11.0598 10.7083 11.0548C10.6958 11.0498 10.7083 11.0548 10.7083 11.0698C10.7026 11.0467 10.6915 11.0253 10.6758 11.0073C10.6933 11.0073 10.6758 10.9823 10.6933 10.9748C10.7108 10.9673 10.6933 10.9748 10.7158 10.9748C10.7383 10.9748 10.7158 10.9573 10.7158 10.9523C10.7158 10.9473 10.7158 10.9523 10.7308 10.9523C10.7458 10.9523 10.7308 10.9373 10.7308 10.9298C10.7308 10.9223 10.7433 10.9298 10.7508 10.9148C10.7587 10.9175 10.7658 10.9221 10.7715 10.9282C10.7772 10.9343 10.7813 10.9418 10.7833 10.9498C10.7895 10.9278 10.7895 10.9044 10.7833 10.8823C10.7833 10.8823 10.7833 10.8823 10.8008 10.8823C10.8183 10.8823 10.8208 10.9173 10.8183 10.9273C10.8158 10.9373 10.8183 10.8923 10.8183 10.8748C10.8183 10.8573 10.8333 10.8973 10.8433 10.9098C10.8433 10.8273 10.7458 10.8498 10.6233 10.9473C10.6233 10.9248 10.5883 10.9148 10.5758 10.8898C10.5854 10.8736 10.5922 10.8559 10.5958 10.8373C10.5958 10.8373 10.5708 10.8373 10.5658 10.8148C10.5682 10.8067 10.5682 10.798 10.5658 10.7898C10.5658 10.7898 10.5433 10.7898 10.5333 10.7898C10.5059 10.6204 10.4658 10.4533 10.4133 10.2898C10.4133 10.2898 10.4133 10.3223 10.4133 10.2898L10.4733 10.3148C10.5158 10.3273 10.6458 10.1598 10.8208 10.1248C10.8558 10.1648 10.7808 10.2248 10.7433 10.3448C10.7283 10.3448 10.7433 10.3698 10.7283 10.3848C10.6583 10.3848 10.6658 10.3098 10.6333 10.4898C10.7033 10.4898 10.6333 10.4898 10.7733 10.4648C10.8808 10.3898 10.8858 10.2998 10.9383 10.0423C10.8358 9.91984 10.9208 9.96984 10.5658 10.0423C10.6008 9.95734 10.5508 9.98734 10.5008 9.67984C10.5358 9.69734 10.5358 9.70734 10.6033 9.63234C10.5908 9.63234 10.6333 9.69984 10.6833 9.65234C10.6833 9.65234 10.6833 9.65234 10.6983 9.65234C10.7133 9.65234 10.6983 9.65234 10.7333 9.65234C10.8258 9.61734 10.8558 9.60234 10.7683 9.28984C10.7683 9.28984 10.7858 9.28984 10.7833 9.28984H10.8258C10.8108 9.25984 10.8258 9.21734 10.8058 9.19234L10.8358 9.16234C10.8122 9.15158 10.7867 9.14563 10.7608 9.14484C10.7608 9.14484 10.7608 9.13234 10.6958 9.12234C10.6958 9.10484 10.7233 9.08734 10.7358 9.06734C10.7084 9.06452 10.6807 9.06452 10.6533 9.06734C10.6533 9.06734 10.6533 9.06734 10.5883 9.05234C10.5233 9.03734 10.5283 8.98984 10.3383 9.05234C10.3494 9.05179 10.3603 9.0543 10.37 9.0596C10.3798 9.06489 10.3878 9.07276 10.3933 9.08234C10.3183 9.08234 10.3433 9.04734 10.2233 9.12234C10.2131 9.12572 10.2038 9.1316 10.1964 9.13946C10.1889 9.14732 10.1836 9.1569 10.1808 9.16734H10.2108C10.1958 9.18734 10.1108 9.16734 10.1008 9.20984C10.1358 9.20984 10.1208 9.20984 10.1808 9.20984C10.1358 9.22734 10.1808 9.20984 10.0808 9.29734C10.0753 9.2594 10.0605 9.22338 10.0379 9.19244C10.0152 9.1615 9.98533 9.13658 9.95082 9.11984C9.95082 9.11984 9.93582 9.11984 9.95082 9.06984C9.96582 9.06984 9.97582 9.08484 10.0033 9.05484C10.1333 9.14984 10.1633 8.67484 9.86832 8.83984C9.97832 8.71734 10.2558 8.99984 10.0058 9.05234L10.0258 9.03484C10.0258 9.03484 10.0258 8.99234 10.0633 8.98484C10.0647 8.96987 10.0647 8.95481 10.0633 8.93984C10.0664 8.9332 10.0681 8.92594 10.0681 8.91859C10.0681 8.91125 10.0664 8.90399 10.0633 8.89734C10.0633 8.90984 10.0633 8.92984 10.0483 8.93734C10.0333 8.94484 10.0483 8.89734 10.0483 8.88984C10.0533 8.9027 10.0533 8.91698 10.0483 8.92984C10.0483 8.92984 10.0483 8.91734 10.0483 8.90734C10.0483 8.89734 10.0483 8.91984 10.0483 8.92484C10.0483 8.92984 10.0333 8.90734 10.0183 8.90734C9.96082 8.90734 9.91832 8.98234 9.90582 9.03234C9.90582 9.03234 9.85582 9.03234 9.87582 8.97984C9.85582 9.00234 9.82082 9.00984 9.87582 8.92484C9.84832 8.92484 9.83582 8.96484 9.82082 8.98984C9.82082 8.96984 9.78082 8.94984 9.85332 8.89984C9.82832 8.89984 9.85332 8.89984 9.80332 8.92984C9.77582 8.90484 9.81832 8.85984 9.92082 8.82734C9.92082 8.82734 9.92082 8.82734 9.86332 8.84734C9.83082 8.84734 9.73332 8.95984 9.83332 8.99234C9.83332 9.02484 9.86582 8.99234 9.82082 9.05484C9.74207 8.99327 9.65075 8.94974 9.55332 8.92734V8.90234C9.56582 8.87484 9.57582 8.87734 9.52832 8.82484C9.52832 8.82484 9.52832 8.82484 9.49332 8.82484C9.45832 8.82484 9.55582 8.74734 9.50082 8.65234L9.47582 8.67484Z" fill="#808D9C"/>
<path d="M13.4308 12.3876C13.3983 12.3876 13.3908 12.4576 13.4508 12.4301C13.4508 12.4101 13.4683 12.4101 13.4308 12.3876ZM13.4308 12.4601C13.4308 12.4601 13.3308 12.3976 13.4308 12.3626C13.4333 12.3376 13.5308 12.4376 13.4308 12.4601ZM12.8008 11.1826C12.8283 11.1826 12.8283 11.2076 12.8008 11.1826C12.7683 11.2851 12.7733 11.1576 12.8008 11.1826ZM12.8008 11.2576C12.7533 11.2851 12.7308 11.0801 12.8508 11.2051C12.8508 11.2326 12.8533 11.2076 12.8008 11.2576ZM14.6933 12.8026L14.4833 13.4551C14.4446 13.3219 14.4328 13.1823 14.4487 13.0445C14.4646 12.9067 14.5078 12.7735 14.5758 12.6526C14.5883 12.8126 14.6858 12.8026 14.6858 12.8026M14.4358 12.9226C14.4075 12.9969 14.3611 13.0631 14.3008 13.1151C14.2508 12.9201 14.3858 12.5476 14.5508 12.1926C14.579 12.208 14.6113 12.2141 14.6432 12.2101C14.6751 12.2061 14.7049 12.192 14.7283 12.1701C14.6783 12.3201 14.5608 12.6401 14.4483 12.9226H14.4358ZM14.3783 12.5376C14.3264 12.6745 14.2511 12.8014 14.1558 12.9126C14.165 12.624 14.2599 12.3446 14.4283 12.1101C14.4386 12.1112 14.4491 12.1097 14.4587 12.1058C14.4683 12.1019 14.4767 12.0956 14.4833 12.0876C14.4975 12.1218 14.5179 12.1531 14.5433 12.1801L14.3783 12.5376ZM14.1533 12.5501C14.128 12.5828 14.0995 12.613 14.0683 12.6401C14.0814 12.4264 14.1532 12.2205 14.2758 12.0451C14.2857 12.047 14.2959 12.047 14.3058 12.0451C14.3058 12.0451 14.2933 12.1076 14.4058 12.1226C14.3358 12.2376 14.3283 12.2551 14.1558 12.5576M14.0908 12.3076C14.0553 12.353 14.0121 12.3919 13.9633 12.4226C13.9578 12.2638 14.0063 12.1078 14.1008 11.9801L14.1408 11.9126C14.1408 11.8851 14.1408 12.0426 14.2583 12.0501C14.2583 12.0501 14.1058 12.3001 14.0908 12.3001M14.1233 11.9076C14.0491 12.042 13.9478 12.1594 13.8258 12.2526C13.8154 12.1932 13.8185 12.1322 13.8349 12.0742C13.8514 12.0162 13.8808 11.9626 13.9208 11.9176L13.9958 11.8051C13.9958 11.8051 13.9733 11.9101 14.1233 11.9076ZM13.7333 11.9901C13.7158 11.8801 13.8333 11.7601 13.9133 11.6976C13.9333 11.7201 13.8858 11.7501 14.0133 11.7701C14.0117 11.7792 14.0117 11.7885 14.0133 11.7976C13.9962 11.821 13.9778 11.8436 13.9583 11.8651C13.8978 11.9261 13.8217 11.9693 13.7383 11.9901M13.9158 11.6826C13.8435 11.7372 13.7563 11.7686 13.6658 11.7726C13.7065 11.6877 13.7754 11.6196 13.8608 11.5801C13.8908 11.6551 13.9283 11.6476 13.9283 11.6476C13.9218 11.6582 13.9175 11.6702 13.9158 11.6826ZM14.8058 11.8201C14.8733 11.8826 14.8708 11.9826 14.8883 12.0701C14.8633 12.2476 14.9283 12.0176 14.7133 12.7801C14.4008 12.6876 14.9833 12.3726 14.4958 12.0501C14.4958 12.0501 14.4033 12.1701 14.3383 12.0151C14.3583 11.9851 14.1833 12.0951 14.1783 11.8851C14.2008 11.8551 14.0183 11.9626 14.0333 11.7551C14.0658 11.7551 13.8783 11.7751 13.9558 11.6376C13.9558 11.6376 13.8883 11.6376 13.8783 11.5726L14.1433 11.4401C14.1433 11.4851 14.1008 11.9776 14.5833 11.7251C14.6256 11.7211 14.6683 11.7279 14.7072 11.745C14.7461 11.762 14.7801 11.7888 14.8058 11.8226M12.5783 9.70508L13.2283 9.92758C13.2283 9.92758 13.1633 10.0026 13.2858 10.1051C13.0208 9.96258 12.9558 10.1751 12.5783 9.70508ZM13.2333 10.2926C13.0539 10.2535 12.8882 10.1672 12.7533 10.0426C13.0033 10.0001 13.4183 10.1776 13.7733 10.2651C13.6708 10.3026 13.6633 10.3376 13.6508 10.3951L13.2333 10.2926ZM12.8308 10.2926C13.11 10.2957 13.3869 10.3438 13.6508 10.4351C13.6567 10.4709 13.6704 10.505 13.6908 10.5351C13.6763 10.5299 13.6604 10.5299 13.6458 10.5351C13.3569 10.5249 13.0757 10.4387 12.8308 10.2851M13.4833 10.6851C13.311 10.6622 13.1456 10.6025 12.9983 10.5101C13.2084 10.5022 13.4187 10.5165 13.6258 10.5526C13.6258 10.5526 13.5908 10.5976 13.6258 10.6751L13.6033 10.6976L13.4833 10.6851ZM13.5583 10.8801C13.3983 10.8777 13.2433 10.8243 13.1158 10.7276C13.1699 10.7056 13.2275 10.6937 13.2858 10.6926C13.3058 10.6926 13.5933 10.7126 13.5933 10.7126C13.5933 10.7126 13.5308 10.8026 13.6358 10.8851L13.5583 10.8801ZM13.4933 11.0551C13.4331 11.0594 13.3727 11.0507 13.3162 11.0295C13.2597 11.0084 13.2084 10.9753 13.1658 10.9326C13.3152 10.89 13.4717 10.8781 13.6258 10.8976C13.6083 10.9301 13.5483 10.9551 13.6258 11.0601C13.6258 11.0601 13.5008 11.0601 13.4883 11.0601M13.3158 11.1801C13.3597 11.1417 13.4109 11.1127 13.4663 11.0946C13.5218 11.0766 13.5803 11.0699 13.6383 11.0751C13.6383 11.0751 13.6533 11.0751 13.6608 11.0751C13.6683 11.0751 13.5958 11.1051 13.6608 11.1976C13.5658 11.2251 13.3958 11.2476 13.3158 11.1676M13.4508 11.3551C13.4858 11.3151 13.4258 11.3276 13.6708 11.2051C13.6815 11.2121 13.6933 11.2172 13.7058 11.2201C13.7058 11.2201 13.6808 11.2451 13.7233 11.3126C13.6402 11.358 13.5438 11.373 13.4508 11.3551ZM13.2333 10.0126C13.2333 10.0126 13.2333 9.95258 13.2333 9.93258C13.4673 10.007 13.6948 10.1006 13.9133 10.2126C13.9008 10.2876 14.1633 10.2826 14.0158 10.6601C14.0158 10.7451 13.4908 10.8626 13.9883 11.1801C13.8983 11.2276 13.7383 11.2976 13.7233 11.3126C13.6858 11.2751 13.7233 11.2126 13.7233 11.2126C13.7233 11.2126 13.5658 11.1926 13.6758 11.0826C13.7233 11.0976 13.5008 10.9851 13.6558 10.8901C13.7033 10.9101 13.4883 10.7776 13.6433 10.6851C13.6833 10.6851 13.5083 10.5826 13.7083 10.5351C13.6283 10.1826 13.9033 10.3601 13.2283 10.0126M13.0983 13.4276L12.9383 13.7601L12.7333 13.6626L12.8433 13.4351C12.9264 13.4448 13.0103 13.4448 13.0933 13.4351M13.2508 13.3851L13.2083 13.4726L13.1133 13.4301C13.1604 13.4192 13.2064 13.4042 13.2508 13.3851ZM11.9083 13.6076L12.1583 13.1076C12.2673 13.2069 12.3893 13.291 12.5208 13.3576L12.3108 13.8026L11.9083 13.6076ZM11.8208 14.0001L11.3208 13.7626C11.3708 13.7476 11.3558 13.7626 11.5483 13.6551L11.9183 13.8276L11.8208 14.0001ZM9.69581 13.9476C9.59882 13.983 9.49501 13.9958 9.39233 13.985C9.28964 13.9741 9.19078 13.94 9.10331 13.8851L9.90081 13.4901L10.0358 13.5526C9.97453 13.7214 9.85359 13.8619 9.69581 13.9476ZM9.73331 13.4026L9.07581 13.7351C9.09811 13.6363 9.14018 13.5431 9.19947 13.461C9.25876 13.379 9.33406 13.3098 9.42081 13.2576L9.73331 13.4026ZM10.7483 12.3376C10.8816 12.2863 11.0267 12.2741 11.1666 12.3024C11.3066 12.3308 11.4355 12.3985 11.5383 12.4976L10.4433 13.0551C10.4708 12.7801 10.5433 12.4276 10.7483 12.3376ZM10.4983 13.2076L11.6433 12.6401C11.6883 13.1401 11.2608 13.7701 10.4983 13.2076ZM5.96331 11.9176H5.88081C5.91581 12.0476 5.44831 12.1976 5.57331 11.7901C5.51222 11.7177 5.47293 11.6295 5.46003 11.5357C5.44712 11.4418 5.46113 11.3463 5.50042 11.2601C5.53971 11.1739 5.60266 11.1007 5.68195 11.0489C5.76125 10.9971 5.85362 10.9689 5.94831 10.9676C5.96581 10.8351 6.35081 10.7851 6.26331 11.1226C6.31512 11.1901 6.34884 11.2697 6.36129 11.3538C6.37374 11.438 6.36451 11.5239 6.33448 11.6035C6.30444 11.6831 6.25459 11.7538 6.18964 11.8087C6.12469 11.8637 6.04679 11.9011 5.96331 11.9176ZM15.0358 10.8126C14.9932 10.75 14.9341 10.7005 14.8649 10.6697C14.7958 10.6388 14.7194 10.6279 14.6444 10.638C14.5694 10.6481 14.4987 10.6789 14.4402 10.727C14.3817 10.7751 14.3378 10.8384 14.3133 10.9101C14.1958 11.0026 14.1683 11.0801 14.1758 11.1401L11.9258 12.2876C11.7033 12.0976 12.0683 10.0676 12.6133 11.4826C12.6133 11.4426 12.6508 10.9476 12.7908 11.5501C12.8065 11.4702 12.8499 11.3985 12.9133 11.3476C12.9133 10.2801 11.1758 10.5326 11.5458 12.0976C10.8583 11.6651 10.1433 12.1676 10.1033 12.9801C9.91146 12.9102 9.70495 12.8904 9.50331 12.9226L6.91581 11.7176L6.78331 11.6601L6.96331 11.2851C6.93831 11.2851 6.88831 11.2551 6.77081 11.1976C6.76061 11.1516 6.74028 11.1084 6.71131 11.0712C6.68233 11.034 6.64544 11.0037 6.60331 10.9826C6.62831 10.9076 6.63831 10.9501 6.49831 10.7326C6.57081 10.5951 6.37831 10.1801 6.06581 10.5301C5.94581 10.4701 6.06581 10.5026 5.81581 10.6076C5.71581 10.5826 5.46831 10.5676 5.32831 10.9126C5.32831 10.9126 4.94081 10.9126 5.14081 11.3126C5.03581 11.4751 4.97581 11.5876 5.21331 11.8776C5.18831 11.9501 5.17831 11.9126 5.32081 12.1276C5.24831 12.2626 5.43831 12.6751 5.75331 12.3276C5.87081 12.3876 5.75331 12.3551 6.00331 12.2501C6.04646 12.2699 6.09336 12.2801 6.14081 12.2801C6.18827 12.2801 6.23517 12.2699 6.27831 12.2501L6.46831 12.3401L6.63331 11.9926L9.08081 13.1251C8.92202 13.2836 8.82006 13.4901 8.79081 13.7126C8.50581 13.2726 7.15081 13.6101 7.54081 14.3501C7.59331 14.1001 7.96081 13.4801 8.67081 13.9601C6.14331 15.2101 7.90581 14.5676 8.75081 14.0726C8.71331 14.2801 8.69331 15.1351 7.76581 14.7901C7.94331 15.2576 9.11331 15.1826 9.01581 14.1776C9.73331 14.4451 9.96831 14.2726 10.3208 13.7026L12.6158 14.7651C12.6033 14.7651 13.0158 14.7876 12.7633 14.4551C12.7633 14.4551 12.6733 14.4101 12.5133 14.3376L12.5958 14.1651L12.9808 14.3426L13.4058 13.4426L13.2883 13.3876C13.6008 13.3226 13.8783 12.3876 13.3683 12.2801C13.2898 12.3009 13.2064 12.2929 13.1333 12.2576C13.1758 12.3751 13.4908 12.7076 13.0833 12.4401C13.9308 13.5451 12.1083 12.9726 11.9858 12.4776L14.2658 11.3476C14.3083 11.3901 14.3783 11.4051 14.5283 11.3626C14.7158 11.3976 15.1483 11.3626 15.0283 10.8376" fill="#FABC42"/>
</g>
<defs>
<clipPath id="clip0_3822_64725">
<rect width="20" height="20" fill="white"/>
</clipPath>
</defs>
</svg>
