<svg width="24" height="24" viewBox="0 0 24 24" fill="none" xmlns="http://www.w3.org/2000/svg">
<g id="Layer 1">
<path id="Vector" d="M12.235 20.0034C10.5559 20.052 8.90005 19.6015 7.47695 18.7089C6.05385 17.8164 4.92739 16.5219 4.24003 14.9891C3.55268 13.4563 3.33531 11.7541 3.61541 10.0978C3.89551 8.44148 4.6605 6.90542 5.81364 5.68389C6.96677 4.46236 8.45625 3.61022 10.0937 3.23525C11.7312 2.86027 13.443 2.97931 15.0128 3.57729C16.5826 4.17528 17.9398 5.22536 18.9128 6.59473C19.8858 7.9641 20.4308 9.59125 20.479 11.2704C20.5114 12.3852 20.3238 13.4954 19.927 14.5377C19.5302 15.58 18.9319 16.5339 18.1663 17.3449C17.4007 18.1559 16.4829 18.8081 15.4651 19.2642C14.4474 19.7204 13.3498 19.9716 12.235 20.0034ZM23.395 11.1864C23.3283 8.93359 22.5953 6.7511 21.2887 4.91471C19.9821 3.07832 18.1605 1.67044 16.054 0.868959C13.9475 0.0674814 11.6507 -0.0916217 9.45387 0.411754C7.25701 0.915129 5.25865 2.05839 3.7113 3.69708C2.16395 5.33577 1.13705 7.39635 0.760365 9.61845C0.383677 11.8405 0.674104 14.1244 1.59495 16.1815C2.51579 18.2386 4.02572 19.9766 5.93396 21.1759C7.84219 22.3751 10.0631 22.9819 12.316 22.9194C13.8143 22.8779 15.2897 22.5412 16.6578 21.9288C18.0258 21.3165 19.2597 20.4403 20.2887 19.3505C21.3178 18.2607 22.1218 16.9787 22.6548 15.5778C23.1879 14.1769 23.4394 12.6846 23.395 11.1864Z" fill="#F8DF85"/>
<path id="Vector_2" d="M11.98 19.8025C9.81461 19.7835 7.74261 18.9178 6.20729 17.3907C4.67197 15.8635 3.79524 13.7962 3.76467 11.6309C3.73409 9.46558 4.5521 7.3743 6.04369 5.80441C7.53528 4.23452 9.58201 3.31068 11.746 3.23052H11.989C14.1683 3.22754 16.261 4.08322 17.8139 5.61222C19.3668 7.14123 20.2548 9.22044 20.2855 11.3995C20.3163 13.5786 19.4874 15.682 17.9783 17.2543C16.4692 18.8265 14.4015 19.741 12.223 19.7995H11.98M11.98 20.0035H12.229C14.4625 19.9443 16.5827 19.0073 18.1301 17.3957C19.6775 15.784 20.5275 13.6275 20.4959 11.3935C20.4644 9.15947 19.5538 7.02786 17.9614 5.46059C16.3691 3.89332 14.2233 3.01664 11.989 3.02052H11.74C9.48755 3.05235 7.33996 3.97766 5.76972 5.59292C4.19948 7.20817 3.3352 9.38104 3.36703 11.6335C3.39886 13.886 4.32417 16.0336 5.93942 17.6038C7.55468 19.1741 9.72755 20.0383 11.98 20.0065" fill="white"/>
<path id="Vector_3" d="M12.0443 3.41956H11.8073C9.66307 3.449 7.61831 4.32904 6.1229 5.86609C4.62748 7.40314 3.80391 9.47128 3.83334 11.6156C3.86278 13.7598 4.74283 15.8046 6.27988 17.3C7.81692 18.7954 9.88507 19.619 12.0293 19.5896H12.2663C14.3757 19.5106 16.3705 18.6095 17.8242 17.0789C19.2778 15.5484 20.075 13.5098 20.0452 11.3992C20.0154 9.28854 19.161 7.27331 17.6648 5.78437C16.1685 4.29544 14.1491 3.45098 12.0383 3.43156L12.0443 3.41956ZM12.0293 20.1896C10.3344 20.1824 8.67851 19.6803 7.26504 18.7449C5.85156 17.8096 4.74209 16.4817 4.07293 14.9244C3.40376 13.3672 3.20404 11.6484 3.49831 9.97919C3.79257 8.30999 4.56801 6.7631 5.72934 5.52856C6.5094 4.69668 7.44658 4.02763 8.48673 3.56008C9.52688 3.09253 10.6494 2.83574 11.7893 2.80456H12.0443C14.3517 2.77234 16.5774 3.65804 18.2318 5.26682C19.8861 6.8756 20.8336 9.07568 20.8658 11.3831C20.8981 13.6904 20.0124 15.9161 18.4036 17.5705C16.7948 19.2248 14.5947 20.1723 12.2873 20.2046H12.0293" fill="#F8DF85"/>
<path id="Vector_4" d="M16.681 18.6864L16.636 18.6324C16.5468 18.5459 16.4393 18.4805 16.3214 18.4411C16.2036 18.4016 16.0784 18.3891 15.955 18.4044C15.7768 18.4071 15.5995 18.4313 15.427 18.4764C15.256 18.5184 15.043 18.5874 14.788 18.6744C14.7612 18.6174 14.7258 18.5648 14.683 18.5184C14.5515 18.4034 14.3973 18.3172 14.2304 18.2655C14.0635 18.2139 13.8875 18.1978 13.714 18.2184C12.8891 18.2625 12.0776 18.4461 11.314 18.7614C10.7869 18.9794 10.2251 19.1013 9.65502 19.1214C9.08971 19.1084 8.54121 18.9266 8.08002 18.5994L7.87302 18.4764L7.61202 18.3204L7.56402 18.6204L7.02402 21.7884L7.21902 21.8724L7.31202 21.3234L7.75302 18.6534L7.96002 18.7764C8.3109 19.0086 8.70294 19.1715 9.11502 19.2564C9.29519 19.2889 9.47794 19.305 9.66102 19.3044C10.2548 19.284 10.8401 19.1569 11.389 18.9294C12.1301 18.625 12.9171 18.4475 13.717 18.4044C13.8488 18.4021 13.9805 18.4131 14.11 18.4374C14.271 18.4573 14.4209 18.5301 14.536 18.6444C14.6058 18.721 14.6462 18.8199 14.65 18.9234C14.965 18.8184 15.25 18.7164 15.478 18.6654C15.634 18.6252 15.794 18.6031 15.955 18.5994H16.096L16.186 18.6144C16.2533 18.627 16.3181 18.6503 16.378 18.6834C16.441 18.7164 16.567 18.5994 16.567 18.5994L16.018 22.1994L16.201 22.1214C16.216 22.0344 16.228 21.9444 16.243 21.8484C16.303 21.4794 16.351 21.2124 16.351 21.2094V21.1404V21.0564C16.393 20.8014 16.432 20.5494 16.471 20.3124C16.582 19.6044 16.678 19.0284 16.69 18.9444V18.8754V18.7824L16.681 18.6864Z" fill="#F8DF85"/>
<path id="Vector_5" d="M11.9307 19.8465C9.76529 19.8274 7.69329 18.9618 6.15797 17.4346C4.62265 15.9075 3.74593 13.8401 3.71535 11.6748C3.68478 9.50953 4.50278 7.41825 5.99437 5.84836C7.48596 4.27846 9.53269 3.35462 11.6967 3.27447H11.9397C14.119 3.27148 16.2117 4.12717 17.7646 5.65617C19.3175 7.18517 20.2055 9.26439 20.2362 11.4434C20.267 13.6225 19.4381 15.726 17.929 17.2982C16.4199 18.8705 14.3522 19.7849 12.1737 19.8435H11.9307M11.9307 20.0475H12.1797C14.4132 19.9882 16.5333 19.0512 18.0808 17.4396C19.6282 15.828 20.4782 13.6715 20.4466 11.4374C20.4151 9.20341 19.5044 7.0718 17.9121 5.50453C16.3198 3.93726 14.174 3.06058 11.9397 3.06447H11.6907C9.43823 3.09629 7.29064 4.02161 5.7204 5.63686C4.15016 7.25211 3.28589 9.42498 3.31771 11.6775C3.34954 13.9299 4.27486 16.0775 5.89011 17.6478C7.50536 19.218 9.67823 20.0823 11.9307 20.0505" fill="white"/>
<path id="Vector_6" d="M13.717 18.4044C13.8615 18.3868 14.0081 18.3987 14.1479 18.4394C14.2876 18.4801 14.4176 18.5489 14.53 18.6414C14.6012 18.7196 14.6416 18.8208 14.644 18.9264C14.962 18.8184 15.244 18.7164 15.478 18.6654C15.634 18.6252 15.794 18.6031 15.955 18.5994C16.321 18.5994 16.408 18.6744 16.435 18.7014L16.567 18.6054L15.829 23.2974L15.631 23.1864C15.5226 23.1305 15.402 23.1026 15.28 23.1054C14.797 23.1598 14.3265 23.2947 13.888 23.5044C13.5656 23.6565 13.2276 23.7731 12.88 23.8524C12.7867 23.867 12.6925 23.875 12.598 23.8764C12.163 23.8764 12.094 23.6424 12.085 23.5254L12.112 23.2824L11.764 23.4144C11.533 23.5044 11.314 23.5884 11.122 23.6544C10.7348 23.781 10.3294 23.8429 9.92202 23.8374C8.925 23.8533 7.945 23.578 7.10202 23.0454L7.02402 22.9884L7.74102 18.6534L7.94802 18.7764C8.45463 19.1218 9.05387 19.3059 9.66702 19.3044C10.2608 19.2839 10.8461 19.1569 11.395 18.9294C12.1343 18.6259 12.9191 18.4485 13.717 18.4044Z" fill="white"/>
<path id="Vector_7" d="M12.484 21.7313L12.247 23.4353C12.184 23.7353 12.547 23.7353 12.847 23.6963C13.624 23.5793 14.983 22.6493 15.697 23.0483C15.802 22.1993 15.997 21.1133 15.997 21.1133C15.997 21.1133 15.82 20.8673 15.151 21.0293C14.482 21.1913 12.988 21.8333 12.487 21.7313" fill="#F5D460"/>
<path id="Vector_8" d="M15.919 21.6023C15.994 21.1283 16.072 20.6213 16.144 20.1713C16.0083 20.1034 15.8603 20.0634 15.7088 20.0536C15.5573 20.0438 15.4054 20.0645 15.262 20.1143C14.611 20.2733 13.186 20.8793 12.649 20.8223L12.451 22.0913C12.511 22.2983 12.751 22.3493 13.069 22.3223C13.846 22.2593 15.202 21.2303 15.919 21.6023Z" fill="#F8DF85"/>
<path id="Vector_9" d="M12.229 23.5464C12.277 23.2224 12.724 23.2104 13.018 23.2254C13.312 23.2404 13.858 23.2254 13.903 22.9944C13.957 22.6764 13.981 22.2864 13.981 22.2864L12.427 22.3044L12.229 23.5464Z" fill="#E4B922"/>
<path id="Vector_10" d="M7.20401 22.9194L7.56401 20.7654C8.19101 21.1374 9.17501 21.6654 11.185 20.8944C12.796 20.2764 14.293 20.1654 14.221 20.8044L13.891 23.0094C14.011 22.2534 12.091 23.1564 11.074 23.5104C9.97901 23.8914 8.17001 23.6154 7.20401 22.9104" fill="#F5D460"/>
<path id="Vector_11" d="M11.257 20.4475C9.313 21.1915 8.293 20.5285 7.657 20.1475L7.423 21.5425C7.98559 21.9099 8.62899 22.1351 9.29788 22.1989C9.96677 22.2627 10.6411 22.163 11.263 21.9085C12.163 21.5605 13.924 20.9545 14.119 21.4975C14.188 21.0415 14.257 20.5585 14.317 20.1385C14.068 19.7275 12.679 19.8985 11.251 20.4385" fill="#F8DF85"/>
<path id="Vector_12" d="M15.787 12.8725C15.787 12.8545 15.751 12.7855 15.709 12.6925C15.7438 12.7129 15.7799 12.7309 15.817 12.7465L15.883 12.8635C15.8514 12.8673 15.8202 12.8743 15.79 12.8845M15.022 12.8845C15.022 12.7255 14.983 12.6235 14.935 12.2845C15.0169 12.4992 15.086 12.7186 15.142 12.9415C15.1032 12.9244 15.0631 12.9103 15.022 12.8995M14.68 14.8345C14.68 14.8345 14.68 14.8345 14.68 14.8585V14.8345ZM14.68 15.0715C14.6812 15.0595 14.6812 15.0474 14.68 15.0355C14.6783 15.0454 14.6783 15.0555 14.68 15.0655M15.754 16.1365L15.58 16.5175L15.379 16.4215L15.514 16.1215C15.5987 16.1325 15.6844 16.1325 15.769 16.1215M15.955 16.0675L15.907 16.1695L15.796 16.1185C15.8509 16.1078 15.9042 16.0907 15.955 16.0675ZM9.88003 17.0575C9.88975 17.0201 9.91069 16.9866 9.94003 16.9615C9.93628 16.9833 9.93628 17.0056 9.94003 17.0275L9.88003 17.0575ZM9.29203 15.0475C9.29371 15.0375 9.29371 15.0274 9.29203 15.0175C9.29364 15.0294 9.29364 15.0415 9.29203 15.0535M8.47303 13.5745L8.24503 13.4695C8.23291 13.4146 8.2089 13.3631 8.17469 13.3185C8.14048 13.2739 8.0969 13.2374 8.04703 13.2115C8.06581 13.1748 8.07354 13.1334 8.06928 13.0924C8.06502 13.0514 8.04895 13.0125 8.02303 12.9805C8.14303 12.8275 8.34703 12.3805 8.57503 12.0205C8.52403 12.4075 7.86403 12.9205 8.38603 13.2955C8.72803 13.2445 8.91103 12.8365 9.04603 12.2755C9.11203 12.4075 8.70103 12.9865 9.25903 13.1755C9.50503 13.1305 9.68503 12.6535 9.62203 12.2965C9.64945 12.3146 9.67552 12.3346 9.70003 12.3565C9.77503 12.2755 9.92503 12.2755 9.97903 12.1705L10.03 12.2035C10.198 12.4825 10.21 13.0105 9.97903 13.2025C10.0476 13.206 10.1162 13.1947 10.18 13.1695C10.18 13.1695 10.18 13.1695 10.15 13.2175L10.129 13.2505C10 13.3735 9.96403 13.4065 9.58903 13.3525C9.59379 13.3938 9.60707 13.4336 9.62803 13.4695C9.44203 13.5475 9.13903 13.5355 9.05503 14.0455C9.05046 14.039 9.04425 14.0338 9.03703 14.0305H9.02203C9.02203 14.0305 8.99803 14.0305 8.99503 14.0095C8.99203 13.9885 8.99503 13.9855 8.97403 13.9795H8.89903L8.84203 14.0185C8.79403 14.0395 8.80003 13.9915 8.71603 14.1115C8.71603 14.1115 8.71603 14.1115 8.71603 14.1595H8.69503L8.61703 14.1205C8.59286 14.1134 8.56968 14.1033 8.54803 14.0905L8.45503 14.0635L8.50003 14.0845L8.60503 14.1325L8.66803 14.1595L8.68003 14.2045L8.42803 14.0875H8.41303C8.39431 14.0759 8.37413 14.0668 8.35303 14.0605L8.26003 14.0335L8.47303 13.5745ZM16.417 12.4975C16.4111 12.514 16.4111 12.532 16.417 12.5485L16.39 12.5095C16.3955 12.4796 16.4067 12.4511 16.423 12.4255L16.441 12.4465C16.4289 12.4612 16.4206 12.4787 16.417 12.4975ZM15.622 12.4975L15.7 12.5275L15.748 12.6175H15.679L15.622 12.4915M13.993 13.3645C13.9077 13.325 13.8388 13.2572 13.798 13.1725C13.8619 13.1977 13.9304 13.209 13.999 13.2055C13.768 13.0135 13.78 12.4855 13.948 12.2065L13.999 12.1735C14.053 12.2785 14.203 12.2785 14.278 12.3595C14.3025 12.3376 14.3286 12.3176 14.356 12.2995C14.3584 12.5121 14.3724 12.7244 14.398 12.9355C14.2199 13.0306 14.0777 13.1812 13.993 13.3645ZM14.815 16.5445L14.419 16.3615L14.68 15.7765C14.7944 15.8696 14.9193 15.9491 15.052 16.0135L14.815 16.5445ZM9.30403 14.9575V14.9905C9.3051 14.9825 9.3051 14.9744 9.30403 14.9665M16.204 12.2395L16.297 12.2665L16.321 12.2965L16.225 12.2695C16.2198 12.2584 16.2127 12.2482 16.204 12.2395ZM15.496 12.2395L15.55 12.2695L15.61 12.3775H15.559C15.539 12.3295 15.518 12.2845 15.496 12.2425M14.401 14.9875C14.3996 15.0014 14.3996 15.0155 14.401 15.0295C14.4027 15.0155 14.4027 15.0014 14.401 14.9875ZM13.3 16.8085L13.48 16.9045C13.48 16.9045 13.426 16.9765 13.24 16.9765C13.2387 16.926 13.2326 16.8758 13.222 16.8265H13.288M11.488 16.4485L11.656 16.3645C11.6225 16.5099 11.5975 16.6571 11.581 16.8055C11.5261 16.81 11.4709 16.81 11.416 16.8055C11.4284 16.6834 11.4525 16.5629 11.488 16.4455M10.513 16.9045L10.609 16.8565C10.6073 16.8915 10.6073 16.9265 10.609 16.9615C10.5909 16.9586 10.5736 16.952 10.5582 16.9422C10.5427 16.9324 10.5294 16.9196 10.519 16.9045M11.641 16.0255L11.728 16.0645C11.7266 16.0794 11.7266 16.0945 11.728 16.1095L11.59 16.1785C11.608 16.1275 11.629 16.0765 11.65 16.0255M13.42 14.3275C13.1438 14.2972 12.8664 14.3722 12.643 14.5375C12.6726 14.4655 12.7184 14.4013 12.7767 14.3498C12.8351 14.2984 12.9046 14.261 12.9797 14.2407C13.0548 14.2204 13.1336 14.2177 13.21 14.2327C13.2863 14.2478 13.3582 14.2802 13.42 14.3275ZM12.94 15.4885C12.8348 15.4412 12.7343 15.384 12.64 15.3175H12.655H12.724C12.8333 15.3248 12.9355 15.3743 13.009 15.4555L12.94 15.4885ZM11.56 15.4885H11.533C11.563 15.4555 11.593 15.4225 11.62 15.3865C11.599 15.4195 11.581 15.4525 11.56 15.4825M11.839 15.4825C11.839 15.4495 11.86 15.4165 11.866 15.3835C11.866 15.4165 11.866 15.4495 11.866 15.4825M12.703 15.8185L12.808 15.7675C12.9314 15.8529 13.0433 15.9537 13.141 16.0675C13.0011 16.0142 12.8666 15.9479 12.739 15.8695L12.703 15.8245M12.628 15.6355V15.6445V15.6355ZM12.127 15.4045C12.1398 15.4633 12.1559 15.5214 12.175 15.5785H12.151C12.151 15.5245 12.133 15.4705 12.127 15.4135M13.057 14.7835C13.12 14.9935 13.24 15.1855 13.681 14.9875C13.6805 15.0288 13.6943 15.0691 13.72 15.1015L13.048 15.4345C13.048 15.2245 12.886 15.1345 12.748 15.0385C12.796 14.9725 12.748 14.9425 13.048 14.7685M13.048 14.7685C13.1601 14.7386 13.278 14.7386 13.39 14.7685C13.3384 14.7994 13.2793 14.8157 13.219 14.8157C13.1588 14.8157 13.0997 14.7994 13.048 14.7685ZM13.831 14.9695L13.873 15.0025H13.891L13.789 15.0535C13.8014 15.0276 13.8154 15.0025 13.831 14.9785M13.78 15.9865C13.591 15.8395 13.3903 15.708 13.18 15.5935L14.032 15.1675C14.0505 15.3141 14.0377 15.4629 13.9942 15.6041C13.9508 15.7453 13.8777 15.8757 13.78 15.9865ZM11.203 15.3595H11.188L11.158 15.3445L11.23 15.3235C11.26 15.3235 11.257 15.3235 11.374 15.3055C11.3388 15.3339 11.3017 15.3599 11.263 15.3835H11.233M10.903 15.2305L10.861 15.2095C10.861 15.2095 10.861 15.2095 10.834 15.2095C10.834 15.2095 10.834 15.2095 10.804 15.2095L10.765 15.1885H10.738L10.627 15.1045H10.612H10.582C10.738 15.0745 10.81 15.1045 10.936 14.8045C10.54 15.0115 10.243 14.2615 11.032 14.2795C11.404 14.4715 11.557 14.9755 10.984 15.3025H10.954H10.927H10.9H10.87M10.48 16.7485C10.4783 16.7375 10.4783 16.7264 10.48 16.7155L10.501 16.7335L10.48 16.7485ZM8.87803 14.2525C8.87735 14.2635 8.87735 14.2745 8.87803 14.2855C8.87803 14.2855 8.87803 14.2855 8.86003 14.2855V14.2675H8.87503M11.575 17.3575C11.5076 17.3086 11.4598 17.2374 11.44 17.1565H11.566C11.5598 17.2223 11.5598 17.2886 11.566 17.3545M12.367 16.6315C12.4051 16.5687 12.4392 16.5036 12.469 16.4365H12.484C12.46 16.6465 12.742 16.8415 12.403 17.3365C12.4206 17.0949 12.4085 16.8521 12.367 16.6135M15.088 14.2585V14.2765C15.088 14.2765 15.088 14.3425 15.088 14.3815L14.881 14.4895C14.8779 14.4676 14.8779 14.4454 14.881 14.4235H14.896C14.9069 14.4257 14.9181 14.4257 14.929 14.4235C14.962 14.4235 14.947 14.4385 15.055 14.3395C15.0704 14.3254 15.08 14.3062 15.082 14.2855M15.82 11.7445C15.853 11.7715 15.952 11.8885 16.072 12.0445L16.006 12.0205C15.9388 11.9373 15.8767 11.8501 15.82 11.7595M15.391 12.0595C15.405 12.0782 15.4171 12.0983 15.427 12.1195C15.4172 12.1003 15.4091 12.0802 15.403 12.0595M7.64203 12.4255C7.6141 12.4226 7.58595 12.4226 7.55803 12.4255C7.76503 12.1765 8.08603 11.7865 8.15803 11.7355C8.13103 11.7925 7.85803 12.1525 7.65103 12.4375M7.16803 14.3095H7.06603C7.06226 14.3584 7.04168 14.4046 7.00779 14.4401C6.97389 14.4757 6.92876 14.4984 6.88003 14.5045L6.84703 14.4865L6.82003 14.4625L6.79603 14.4325C6.77629 14.3936 6.76797 14.3499 6.77203 14.3065C6.77495 14.2627 6.79298 14.2214 6.82303 14.1895C6.80049 14.1679 6.77944 14.1449 6.76003 14.1205C6.74229 14.0956 6.72625 14.0695 6.71203 14.0425C6.64477 13.9066 6.62982 13.7507 6.67003 13.6045C6.71859 13.4848 6.80148 13.3822 6.90826 13.3096C7.01503 13.237 7.14091 13.1977 7.27003 13.1965C7.29403 13.1485 7.27003 13.1305 7.49803 13.0495C7.49803 13.0915 7.61503 13.1035 7.52203 13.3285C7.59019 13.4097 7.63562 13.5074 7.65372 13.6119C7.67181 13.7163 7.66191 13.8237 7.62502 13.9231C7.58814 14.0224 7.52559 14.1103 7.44373 14.1776C7.36188 14.245 7.26365 14.2894 7.15903 14.3065M11.74 6.40447C11.9059 6.41426 12.0722 6.41426 12.238 6.40447C12.5311 6.65892 12.8842 6.83445 13.264 6.91447C13.0243 6.93005 12.7837 6.90365 12.553 6.83647C12.553 6.98647 12.886 7.16047 13.099 7.20547C12.939 7.2261 12.7763 7.20331 12.628 7.13947C12.6976 7.25145 12.8035 7.33616 12.928 7.37947C12.8316 7.47798 12.7138 7.55301 12.5838 7.59879C12.4537 7.64456 12.3149 7.65985 12.178 7.64347C12.2172 7.69102 12.2676 7.72801 12.3247 7.75106C12.3819 7.77412 12.4438 7.78251 12.505 7.77547C12.2132 8.18435 12.0323 8.66187 11.98 9.16147C11.9269 8.66489 11.7483 8.18999 11.461 7.78147C11.5227 7.78875 11.5852 7.78049 11.6428 7.75743C11.7005 7.73438 11.7514 7.69726 11.791 7.64947C11.6546 7.66677 11.5159 7.65191 11.3862 7.60607C11.2565 7.56023 11.1393 7.48468 11.044 7.38547C11.1676 7.34052 11.273 7.25619 11.344 7.14547C11.1958 7.20931 11.0331 7.2321 10.873 7.21147C11.086 7.16647 11.41 6.99247 11.419 6.84247C11.1874 6.90982 10.9458 6.93622 10.705 6.92047C11.089 6.84146 11.4458 6.6636 11.74 6.40447ZM14.68 14.9065C14.6776 14.8896 14.6776 14.8724 14.68 14.8555C14.6771 14.8616 14.6756 14.8682 14.6756 14.875C14.6756 14.8817 14.6771 14.8884 14.68 14.8945M14.68 14.9215C14.6761 14.9289 14.674 14.9371 14.674 14.9455C14.674 14.9538 14.6761 14.9621 14.68 14.9695C14.677 14.9486 14.677 14.9274 14.68 14.9065V14.9215ZM18.388 9.77647C18.1742 9.67514 17.9356 9.63764 17.701 9.66847C17.875 9.62525 18.0337 9.53489 18.1597 9.40734C18.2856 9.27979 18.374 9.11998 18.415 8.94547C18.2043 8.89276 17.9838 8.89276 17.773 8.94547C17.9204 8.86506 18.0445 8.74798 18.1333 8.60555C18.2221 8.46312 18.2727 8.30017 18.28 8.13247C18.0346 8.12648 17.7911 8.17784 17.569 8.28247C18.055 8.01547 18.229 7.38247 17.971 7.02247C17.824 7.10947 17.137 7.80847 17.026 7.88647C17.461 7.30447 18.064 6.64747 17.38 5.93347C17.0627 6.57902 16.6861 7.19366 16.255 7.76947C16.2277 7.73182 16.1902 7.7027 16.147 7.68547C16.0371 7.98331 15.8497 8.24637 15.604 8.44747C15.5861 8.39854 15.5619 8.35215 15.532 8.30947C13.78 9.38047 15.28 11.2045 13.798 10.5055C13.8686 10.4938 13.9347 10.463 13.9891 10.4165C14.0435 10.37 14.0841 10.3095 14.1067 10.2415C14.1292 10.1736 14.1328 10.1008 14.117 10.031C14.1012 9.96124 14.0666 9.89707 14.017 9.84547C13.882 9.92647 13.792 10.1905 13.306 9.82447C13.358 9.8508 13.4163 9.86219 13.4743 9.85738C13.5324 9.85258 13.588 9.83177 13.6349 9.79726C13.6819 9.76275 13.7183 9.7159 13.7402 9.66192C13.7621 9.60794 13.7686 9.54893 13.759 9.49147C13.069 9.84247 12.982 8.63947 13.618 8.14147C13.687 8.27947 14.437 7.86547 14.5 8.50747C14.779 8.34847 14.677 8.09347 14.32 7.99447C14.62 8.04547 15.412 8.72647 15.469 7.85647C15.337 8.17147 14.821 7.92247 14.287 7.85647C14.406 7.78205 14.5467 7.75013 14.6862 7.76593C14.8257 7.78173 14.9557 7.84431 15.055 7.94347C15.131 7.87625 15.1833 7.78645 15.2045 7.68727C15.2256 7.58808 15.2143 7.48473 15.1724 7.39241C15.1304 7.30009 15.0599 7.22366 14.9713 7.17435C14.8827 7.12505 14.7806 7.10546 14.68 7.11847C14.6823 7.10095 14.6799 7.08315 14.6732 7.06681C14.6665 7.05047 14.6556 7.03616 14.6417 7.02527C14.6278 7.01438 14.6113 7.0073 14.5938 7.0047C14.5764 7.00211 14.5585 7.0041 14.542 7.01047C14.5429 6.99625 14.5403 6.98204 14.5346 6.969C14.5288 6.95596 14.5201 6.94447 14.509 6.93547C15.07 6.98647 15.562 6.44647 15.286 5.68747C15.4319 5.7762 15.5924 5.83817 15.76 5.87047C15.964 6.22747 15.385 6.65947 15.826 7.17847C15.8317 7.22495 15.8257 7.27212 15.8084 7.31564C15.7911 7.35915 15.7631 7.39761 15.727 7.42747C15.916 7.38247 16.213 7.26547 15.925 6.73447C15.973 7.05547 16.411 6.55147 16.438 7.03447C17.038 6.55147 16.024 6.71347 16.261 6.37747C16.453 6.10747 16.606 5.84347 15.919 5.69647C15.766 5.15647 14.515 5.09647 14.917 6.09247C15.031 6.32947 15.157 6.73747 14.458 6.86947V6.80047C14.563 6.61147 14.824 6.07747 14.266 5.97847C14.233 5.96047 14.266 5.97847 14.143 5.97847V6.02647H14.107V5.96047C14.107 5.93647 14.185 5.91847 14.107 5.77147H14.149C14.1189 5.74225 14.0918 5.71009 14.068 5.67547C14.1022 5.69871 14.1343 5.7248 14.164 5.75347V5.45347C14.1339 5.48261 14.1018 5.50967 14.068 5.53447C14.0909 5.4992 14.1181 5.46695 14.149 5.43847H13.849C13.8791 5.46777 13.9062 5.49993 13.93 5.53447C13.8956 5.50925 13.8626 5.48221 13.831 5.45347V5.75347C13.8609 5.7229 13.8941 5.69573 13.93 5.67247C13.9053 5.70628 13.8782 5.73836 13.849 5.76847H13.891C13.891 5.79847 13.813 5.81347 13.891 5.95747V6.02347H13.852V5.97547C13.798 5.96047 13.852 5.97547 13.732 5.97547C13.474 6.09547 13.204 6.21847 13.537 6.79747V6.84247C13.1883 6.7101 12.8714 6.50565 12.607 6.24247V6.04747C12.817 5.77147 13.177 4.88947 12.37 4.77247C12.3471 4.75649 12.3206 4.74647 12.2928 4.74333C12.265 4.74018 12.2369 4.74401 12.211 4.75447V4.82947H12.127V4.73647H12.082C12.082 4.70947 12.265 4.65247 12.112 4.41847H12.178C12.1297 4.37302 12.09 4.31914 12.061 4.25947C12.1204 4.28765 12.1743 4.32626 12.22 4.37347V4.00447C12.1764 4.05278 12.1233 4.09159 12.064 4.11847C12.0916 4.05872 12.1303 4.00477 12.178 3.95947H11.8C11.8478 4.00477 11.8865 4.05872 11.914 4.11847C11.8543 4.0909 11.8003 4.05221 11.755 4.00447V4.38247C11.8019 4.33661 11.8555 4.29817 11.914 4.26847C11.8872 4.32865 11.8484 4.38275 11.8 4.42747H11.866C11.866 4.46947 11.692 4.52647 11.896 4.74547H11.848V4.83847H11.761V4.76347C11.7351 4.75301 11.707 4.74918 11.6792 4.75233C11.6515 4.75547 11.6249 4.76549 11.602 4.78147C11.059 4.89247 10.915 5.38147 11.365 6.05647V6.25447C11.1054 6.52205 10.7885 6.72721 10.438 6.85447V6.80947C10.543 6.62047 10.804 6.08647 10.243 5.98747C10.213 5.96947 10.243 5.98747 10.123 5.98747V6.03547H10.087V5.96947C10.087 5.94547 10.162 5.92747 10.087 5.78047H10.129C10.0999 5.75033 10.0728 5.71826 10.048 5.68447C10.0833 5.70858 10.1164 5.73568 10.147 5.76547V5.46547C10.1162 5.49503 10.0831 5.52211 10.048 5.54647C10.0709 5.5112 10.0981 5.47895 10.129 5.45047H9.82903C9.85999 5.4789 9.88721 5.51116 9.91003 5.54647C9.87495 5.52211 9.84185 5.49503 9.81103 5.46547V5.76547L9.91003 5.68747C9.88631 5.7221 9.85917 5.75426 9.82903 5.78347H9.88003C9.88003 5.81347 9.80503 5.82847 9.88003 5.97247V6.03847H9.84403V5.99047C9.78703 5.97547 9.84403 5.99047 9.72103 5.99047C9.46303 6.11047 9.19003 6.23647 9.52603 6.81247V6.88147C8.48803 7.05547 9.77803 4.26847 8.06503 5.70847C7.21603 5.63947 7.98703 6.63247 7.59103 6.57247C7.45603 6.55447 7.22203 6.75847 7.54603 7.04647C7.46203 6.83047 7.72603 6.94747 8.05903 6.74647C8.01403 6.95947 7.69603 7.24147 8.25703 7.43947C8.22236 7.40848 8.19536 7.36985 8.17818 7.32664C8.161 7.28343 8.1541 7.23681 8.15803 7.19047C8.48503 6.80047 8.19703 6.47347 8.22403 5.88247C8.38603 5.84393 8.54025 5.77798 8.68003 5.68747C8.77303 6.28747 8.22103 6.78247 9.45703 6.93547C9.44598 6.94447 9.43724 6.95596 9.4315 6.969C9.42576 6.98204 9.4232 6.99625 9.42403 7.01047C9.40755 7.0041 9.38971 7.00211 9.37223 7.0047C9.35476 7.0073 9.33826 7.01438 9.32435 7.02527C9.31044 7.03616 9.29959 7.05047 9.29287 7.06681C9.28616 7.08315 9.2838 7.10095 9.28603 7.11847C9.07003 7.13347 8.48203 7.41847 8.92003 7.93447C9.01937 7.83531 9.14937 7.77273 9.28884 7.75693C9.42831 7.74113 9.56902 7.77305 9.68803 7.84747C9.38803 7.71247 8.93203 8.35447 8.50603 7.84747C8.48803 8.22847 8.88703 8.49547 9.65503 7.98547C9.29803 8.08447 9.19603 8.33947 9.47503 8.49847C9.52603 8.14447 9.59803 8.14747 10.354 8.13247C10.639 8.32447 11.299 9.67447 10.216 9.48247C10.2064 9.53993 10.2129 9.59894 10.2348 9.65292C10.2567 9.7069 10.2932 9.75375 10.3401 9.78826C10.3871 9.82277 10.4427 9.84358 10.5007 9.84838C10.5588 9.85319 10.6171 9.84179 10.669 9.81547C10.642 9.83947 10.249 10.1995 9.95803 9.83647C9.90844 9.88807 9.87389 9.95224 9.85809 10.022C9.84229 10.0918 9.84586 10.1646 9.8684 10.2325C9.89093 10.3005 9.93159 10.361 9.98598 10.4075C10.0404 10.454 10.1064 10.4848 10.177 10.4965C9.09403 11.0125 9.40903 10.3435 9.46303 9.40447C9.32203 9.20047 8.78203 8.72647 8.43703 8.30047C8.40714 8.34315 8.38293 8.38954 8.36503 8.43847C8.11852 8.23819 7.93087 7.97486 7.82203 7.67647C7.77927 7.6945 7.74202 7.72347 7.71403 7.76047C7.28293 7.18466 6.90631 6.57002 6.58903 5.92447C5.98903 6.43747 6.32503 7.12447 6.95503 7.87747C6.84703 7.79947 6.16003 7.10047 6.01003 7.01347C5.75503 7.37647 5.92903 8.00647 6.41203 8.27347C6.19109 8.16856 5.94853 8.11717 5.70403 8.12347C5.70845 8.29235 5.75668 8.45717 5.84398 8.6018C5.93128 8.74642 6.05466 8.86588 6.20203 8.94847C5.99127 8.89576 5.77078 8.89576 5.56003 8.94847C5.60173 9.12332 5.6911 9.28319 5.8182 9.4103C5.94531 9.5374 6.10518 9.62677 6.28003 9.66847C6.04639 9.63788 5.80888 9.67538 5.59603 9.77647C5.64333 9.9425 5.74134 10.0896 5.87635 10.1972C6.01137 10.3048 6.17663 10.3674 6.34903 10.3765C6.11188 10.3924 5.89025 10.5 5.73103 10.6765C5.80828 10.7818 5.91027 10.8664 6.028 10.9229C6.14573 10.9794 6.27556 11.0061 6.40603 11.0005C6.31214 11.0321 6.22581 11.0827 6.15249 11.1494C6.07917 11.216 6.02045 11.297 5.98003 11.3875C6.16303 11.5345 6.39403 11.6275 6.92503 11.4385C6.32503 11.6905 6.43603 11.8135 6.34303 12.0745C6.57703 12.2335 7.04203 12.1555 7.50703 11.7115C7.41103 11.9005 6.67003 12.0865 6.88903 12.6505H6.97603C6.96791 12.659 6.96177 12.6693 6.95803 12.6805C6.83503 12.6505 6.53503 12.6325 6.35803 13.0555C6.31303 13.0255 6.20203 13.0555 6.03403 13.3045C6.03316 13.3205 6.03316 13.3365 6.03403 13.3525C6.03403 13.3705 6.03403 13.3525 6.03403 13.4005V13.4425L6.05503 13.4845L6.07903 13.5175L6.11203 13.5475C6.08301 13.5905 6.06169 13.6382 6.04903 13.6885C6.04954 13.6945 6.04954 13.7005 6.04903 13.7065C6.04573 13.7414 6.04573 13.7765 6.04903 13.8115C6.0501 13.8184 6.0501 13.8255 6.04903 13.8325C6.04636 13.8453 6.04636 13.8586 6.04903 13.8715C6.04903 13.8715 6.04903 13.8955 6.04903 13.9315C6.04963 13.9385 6.04963 13.9455 6.04903 13.9525C6.04903 13.9675 6.06403 13.9885 6.08503 14.0245C6.08557 14.0305 6.08557 14.0365 6.08503 14.0425V14.0605L6.11203 14.0875C6.1353 14.1116 6.1615 14.1328 6.19003 14.1505H6.20803C6.18938 14.1907 6.18212 14.2354 6.18703 14.2795V14.2975C6.18763 14.3045 6.18763 14.3115 6.18703 14.3185V14.3365C6.2003 14.3612 6.21866 14.3828 6.2409 14.3998C6.26313 14.4169 6.28874 14.429 6.31603 14.4355C6.2978 14.473 6.28758 14.5138 6.28603 14.5555C6.28603 14.5555 6.28603 14.5555 6.28603 14.6005C6.28848 14.624 6.29351 14.6471 6.30103 14.6695C6.30103 14.6695 6.30103 14.6695 6.30103 14.6935C6.33092 14.7478 6.37859 14.7902 6.43603 14.8135H6.45103H6.47803H6.50503H6.74803H6.76303H6.88003H6.90403C6.90403 14.8135 6.90403 14.8135 6.94903 14.7775C6.97114 14.7584 6.99034 14.7361 7.00603 14.7115H7.06003H7.09303H7.11403C7.11403 14.7115 7.11403 14.7115 7.15303 14.7115C7.18612 14.7098 7.21819 14.6995 7.24603 14.6815H7.26103H7.27603H7.29103C7.29966 14.6699 7.30768 14.6579 7.31503 14.6455C7.33397 14.6475 7.35308 14.6475 7.37203 14.6455H7.39603H7.43503H7.47403C7.50873 14.6424 7.54296 14.6354 7.57603 14.6245H7.59703L7.78003 14.8045H7.89103L8.10403 14.3545C8.15203 14.3845 8.10403 14.3545 8.23903 14.4175C8.23593 14.4313 8.23593 14.4456 8.23903 14.4595L8.89003 14.7595C8.88862 14.7684 8.88862 14.7775 8.89003 14.7865V14.8045C8.89003 14.8045 8.89003 14.8045 8.89003 14.8225C8.88503 14.8311 8.88239 14.841 8.88239 14.851C8.88239 14.861 8.88503 14.8708 8.89003 14.8795C8.88845 14.8822 8.88762 14.8853 8.88762 14.8885C8.88762 14.8916 8.88845 14.8947 8.89003 14.8975C8.92303 14.9575 8.89003 15.0175 9.06403 15.0145C9.09403 14.9905 9.10003 15.0145 9.13903 14.8465C9.16003 14.9005 9.12403 14.8735 9.11503 15.0505C9.1229 15.0622 9.13307 15.0723 9.14493 15.08C9.15679 15.0878 9.17009 15.093 9.18403 15.0955C9.18403 15.0955 9.20203 15.0955 9.25603 15.0955C9.27403 15.0955 9.30703 15.0955 9.30103 15.0475C9.30103 15.0475 9.28603 15.0955 9.34903 15.1465C9.34903 15.1465 9.36703 15.1465 9.43003 15.1465H9.44503C9.47503 15.1465 9.46303 15.1645 9.51703 15.1135C9.57103 15.0625 9.51703 15.1135 9.53503 15.0085L10.753 15.5755C10.645 15.5395 9.76003 16.4905 9.94303 15.6865C9.81403 15.7045 9.58003 15.8665 9.58003 16.2145C9.28003 16.2595 8.90203 17.1655 9.17503 17.1955C9.21165 17.002 9.31849 16.8289 9.47503 16.7095C9.47503 16.8835 9.43303 16.8745 9.64303 17.1835C9.62503 17.2555 8.96203 17.4085 8.95903 17.6215C9.05803 17.7385 9.39103 17.4415 9.66103 17.3455V17.3905C9.75403 17.3605 9.72103 17.3905 9.85303 17.2585L9.99403 17.1865C10.0298 17.2788 10.0923 17.3584 10.1735 17.415C10.2547 17.4717 10.351 17.5028 10.45 17.5045C10.3287 17.6459 10.1639 17.7429 9.98144 17.7804C9.79897 17.8179 9.60922 17.7936 9.44203 17.7115C9.44203 18.0535 10.606 18.3115 10.852 17.4985C11.044 17.5825 11.005 17.8825 11.656 17.6425C11.7288 17.8006 11.8402 17.9378 11.98 18.0415C12.1246 17.9449 12.2407 17.8112 12.316 17.6545C12.409 17.7025 13.006 17.9155 13.192 17.3545C13.357 17.4565 13.822 17.6785 14.008 17.1265L14.119 17.1775C14.167 17.2105 14.056 17.2645 14.329 17.3695C14.3119 17.3372 14.3036 17.301 14.305 17.2645L15.172 17.6695C15.211 17.6695 15.172 17.6695 15.322 17.6695H15.361C15.361 17.6695 15.361 17.6695 15.379 17.6695H15.397C15.397 17.6695 15.397 17.6695 15.427 17.6485L15.454 17.6185L15.475 17.5855C15.4737 17.5795 15.4737 17.5734 15.475 17.5675C15.4746 17.5615 15.4746 17.5555 15.475 17.5495C15.4739 17.5445 15.4739 17.5394 15.475 17.5345C15.475 17.5345 15.475 17.5105 15.475 17.4775C15.475 17.4775 15.475 17.4775 15.475 17.4415C15.4716 17.4293 15.4654 17.418 15.457 17.4085C15.449 17.3907 15.4366 17.3752 15.421 17.3635C15.421 17.3635 15.421 17.3635 15.388 17.3425L15.319 17.3095L15.106 17.2045L15.199 17.0065L15.64 17.2045L16.129 16.1665V16.1185L15.988 16.0525C16.348 15.9715 16.675 14.8765 16.075 14.7355C15.9804 14.7592 15.8805 14.7486 15.793 14.7055C15.793 14.8075 15.988 14.9815 15.988 14.9815C16.027 15.0415 16.036 15.1315 15.733 14.9245C16.681 15.9385 14.989 15.8425 14.632 15.1855C14.662 15.1585 14.665 15.1615 14.677 15.0865C14.677 15.1225 14.707 15.1285 14.725 15.1345C14.761 15.1345 14.725 15.1345 14.797 15.1345C14.869 15.1345 14.797 15.1345 14.875 15.0805C14.893 15.0415 14.86 15.0475 14.848 14.8855V14.8435C14.848 14.9365 14.806 14.8915 14.917 15.0415C14.917 15.0415 15.094 15.0685 15.085 14.9065C15.09 14.8978 15.0927 14.888 15.0927 14.878C15.0927 14.868 15.09 14.8581 15.085 14.8495C15.085 14.8495 15.085 14.8495 15.085 14.7865C15.1319 14.7445 15.1645 14.6889 15.178 14.6275H15.202C15.2159 14.6305 15.2302 14.6305 15.244 14.6275C15.244 14.6275 15.244 14.6275 15.262 14.6065L15.316 14.5795C15.3315 14.5843 15.3483 14.5829 15.3629 14.5756C15.3774 14.5684 15.3886 14.5558 15.394 14.5405L16.627 13.9225L16.645 13.9555L17.014 13.7635L16.999 13.7395L17.149 13.6645C17.1011 13.5971 17.0628 13.5234 17.035 13.4455L16.888 13.5205L16.873 13.4905L16.498 13.6045L16.519 13.6405L15.319 14.2405C15.3163 14.2389 15.3132 14.2381 15.31 14.2381C15.3069 14.2381 15.3038 14.2389 15.301 14.2405C15.301 14.2405 15.301 14.2405 15.301 14.2225C15.301 14.1925 15.301 14.2015 15.28 14.1355C15.2806 14.1275 15.2806 14.1195 15.28 14.1115C15.28 14.0665 15.28 14.0875 15.151 14.0335L15.094 13.9945C15.094 13.9945 15.094 13.9945 15.076 13.9765C15.058 13.9585 15.076 13.9765 15.025 13.9765H15.001C14.983 13.9765 14.983 13.9765 14.98 14.0065C14.977 14.0365 14.962 14.0065 14.953 14.0275C14.902 13.7995 14.878 13.6165 14.422 13.4665C14.533 13.1665 15.148 13.1395 15.202 13.7845C15.217 13.6915 15.253 13.1845 15.412 13.8625C15.4293 13.7668 15.4804 13.6806 15.556 13.6195C15.556 13.6195 15.655 13.4875 15.523 13.2295C15.5567 13.2365 15.5891 13.2486 15.619 13.2655C15.691 13.1305 15.85 13.0825 15.826 12.9145C16.0056 13.0045 16.2015 13.0576 16.402 13.0705L16.375 13.0435C16.3764 13.0355 16.3764 13.0274 16.375 13.0195C16.3906 13.0388 16.4088 13.056 16.429 13.0705C16.474 13.0705 16.24 13.1665 16.45 13.3015C16.486 13.2805 16.324 13.4335 16.51 13.4575C16.51 13.4575 16.474 13.5295 16.51 13.5745L16.81 13.4185C16.762 13.3945 16.258 13.0825 16.846 12.7975C16.8826 12.7572 16.9065 12.7072 16.915 12.6535C16.9662 12.6407 17.0184 12.6327 17.071 12.6295C17.188 12.3295 16.852 11.9395 16.453 11.6905C16.753 11.8465 17.125 12.3835 17.617 12.0535C17.524 11.7925 17.641 11.6695 17.035 11.4175C17.566 11.6065 17.797 11.5135 17.98 11.3665C17.9423 11.2758 17.8863 11.1939 17.8156 11.1258C17.7449 11.0577 17.661 11.0048 17.569 10.9705C17.6995 10.9763 17.8295 10.9498 17.9472 10.8933C18.065 10.8367 18.167 10.752 18.244 10.6465C18.0848 10.47 17.8632 10.3624 17.626 10.3465C17.7984 10.3374 17.9637 10.2748 18.0987 10.1672C18.2337 10.0596 18.3317 9.9125 18.379 9.74647" fill="#FBE9AA"/>
<path id="Vector_13" d="M17.431 12.8004C17.3717 12.8301 17.3195 12.8723 17.2781 12.9241C17.2367 12.9759 17.207 13.036 17.191 13.1004L17.161 13.1214L17.146 13.1634C17.1356 13.1589 17.1244 13.1566 17.113 13.1566C17.1017 13.1566 17.0904 13.1589 17.08 13.1634C16.993 13.2024 17.041 13.3014 17.041 13.3014C17.041 13.3014 17.08 13.4094 17.11 13.4724C17.1411 13.5317 17.1762 13.5889 17.215 13.6434C17.215 13.6434 17.284 13.7184 17.347 13.6854C17.3605 13.678 17.3717 13.6671 17.3796 13.654C17.3875 13.6408 17.3918 13.6258 17.392 13.6104H17.425H17.485C17.5561 13.6355 17.6323 13.6425 17.7069 13.6309C17.7814 13.6193 17.8518 13.5894 17.912 13.5439C17.9721 13.4984 18.02 13.4387 18.0514 13.3701C18.0827 13.3015 18.0966 13.2263 18.0918 13.151C18.0869 13.0758 18.0635 13.0029 18.0235 12.9389C17.9836 12.8749 17.9284 12.8219 17.863 12.7845C17.7975 12.747 17.7238 12.7264 17.6484 12.7245C17.573 12.7226 17.4983 12.7394 17.431 12.7734" fill="#F4D150"/>
<path id="Vector_14" d="M16.48 13.6043C16.429 13.5233 16.462 13.4903 16.462 13.4903C16.4469 13.4895 16.4323 13.4843 16.42 13.4753L16.255 13.5593C16.225 13.5773 16.168 13.6133 16.159 13.6523C16.2684 13.6734 16.3816 13.6564 16.48 13.6043Z" fill="#F4D150"/>
<path id="Vector_15" d="M16.411 13.4695C16.378 13.4425 16.369 13.4215 16.375 13.3915C16.381 13.3615 16.375 13.3375 16.411 13.3225H16.381C16.381 13.3225 16.291 13.3225 16.276 13.3225C16.1757 13.3384 16.0814 13.3809 16.003 13.4455C16.096 13.5415 16.303 13.5115 16.411 13.4815" fill="#F4D150"/>
<path id="Vector_16" d="M16.369 13.3043C16.3539 13.2932 16.3415 13.2787 16.3326 13.2621C16.3238 13.2455 16.3188 13.2271 16.318 13.2083C16.3163 13.1897 16.3193 13.1709 16.3266 13.1536C16.3339 13.1363 16.3454 13.1211 16.36 13.1093C16.1781 13.0859 15.9932 13.1002 15.817 13.1513C15.8677 13.2024 15.9287 13.242 15.996 13.2673C16.0633 13.2927 16.1353 13.3033 16.207 13.2983H16.369" fill="#F4D150"/>
<path id="Vector_17" d="M17.5 14.0874C17.392 14.0874 17.326 14.1744 17.221 14.1744C17.1783 14.1752 17.1361 14.1652 17.0983 14.1453C17.0605 14.1253 17.0284 14.0961 17.005 14.0604C16.9552 13.963 16.9445 13.8503 16.975 13.7454L16.675 13.9044C16.675 13.9674 16.765 13.9824 16.765 13.9824C16.7552 13.9987 16.7501 14.0173 16.7501 14.0364C16.7501 14.0554 16.7552 14.074 16.765 14.0904C16.795 14.1414 16.867 14.1204 16.867 14.1204C16.867 14.1204 16.867 14.2284 16.909 14.2704C16.9285 14.282 16.9508 14.2881 16.9735 14.2881C16.9962 14.2881 17.0185 14.282 17.038 14.2704C17.0371 14.2989 17.0422 14.3273 17.053 14.3536C17.0639 14.38 17.0803 14.4038 17.101 14.4234C17.1204 14.4353 17.1427 14.4416 17.1655 14.4416C17.1883 14.4416 17.2106 14.4353 17.23 14.4234C17.23 14.4234 17.254 14.5014 17.293 14.5194C17.3163 14.5244 17.3405 14.5222 17.3625 14.5131C17.3845 14.504 17.4031 14.4884 17.416 14.4684C17.4232 14.5005 17.4367 14.5308 17.4557 14.5576C17.4748 14.5844 17.499 14.6071 17.527 14.6244C17.5527 14.6341 17.5804 14.6373 17.6077 14.6337C17.6349 14.63 17.6608 14.6196 17.683 14.6034C17.767 14.5404 17.716 14.6364 17.707 14.6604C17.671 14.7804 17.629 14.8944 17.59 15.0114C17.57 15.0557 17.5596 15.1037 17.5596 15.1524C17.5596 15.201 17.57 15.2491 17.59 15.2934C17.59 15.2934 17.638 15.3474 17.677 15.3384C17.71 15.2064 17.755 15.0774 17.791 14.9454C17.8437 14.7987 17.874 14.645 17.881 14.4894C17.8815 14.3817 17.8479 14.2767 17.785 14.1894C17.7555 14.1489 17.7158 14.117 17.67 14.097C17.6241 14.077 17.5737 14.0695 17.524 14.0754" fill="#F4D150"/>
<path id="Vector_18" d="M16.72 13.9975C16.72 13.9975 16.678 13.9975 16.639 13.9165C16.5388 13.9651 16.4583 14.0467 16.411 14.1475C16.4565 14.1551 16.5031 14.1466 16.543 14.1235C16.5996 14.0987 16.6547 14.0706 16.708 14.0395C16.706 14.0256 16.706 14.0114 16.708 13.9975" fill="#F4D150"/>
<path id="Vector_19" d="M16.822 14.1743C16.8205 14.1644 16.8205 14.1543 16.822 14.1443C16.7957 14.1528 16.7673 14.1528 16.741 14.1443C16.7277 14.137 16.7167 14.1261 16.7092 14.1129C16.7018 14.0996 16.6983 14.0845 16.699 14.0693C16.606 14.1443 16.465 14.2853 16.489 14.4173C16.5881 14.3938 16.6785 14.3428 16.75 14.2703C16.7727 14.2436 16.7937 14.2156 16.813 14.1863" fill="#F4D150"/>
<path id="Vector_20" d="M16.873 14.2944C16.8446 14.2677 16.8275 14.2313 16.825 14.1924C16.825 14.1924 16.744 14.3184 16.735 14.3274C16.6885 14.3812 16.6545 14.4445 16.6353 14.513C16.6161 14.5814 16.6122 14.6533 16.624 14.7234C16.7693 14.6125 16.8899 14.4725 16.978 14.3124C16.9604 14.3184 16.9416 14.3199 16.9232 14.3168C16.9049 14.3137 16.8876 14.3059 16.873 14.2944Z" fill="#F4D150"/>
<path id="Vector_21" d="M17.137 14.4745C17.1188 14.4748 17.1007 14.4705 17.0845 14.4621C17.0683 14.4538 17.0544 14.4415 17.044 14.4265C17.0292 14.4115 17.0176 14.3937 17.0098 14.3741C17.0021 14.3545 16.9984 14.3336 16.999 14.3125C16.999 14.3125 16.951 14.3905 16.948 14.3905C16.8353 14.5443 16.7763 14.7309 16.78 14.9215C16.8386 14.8847 16.8903 14.838 16.933 14.7835C16.951 14.7835 17.131 14.4835 17.131 14.4835" fill="#F4D150"/>
<path id="Vector_22" d="M17.191 14.7624L17.314 14.5554C17.2977 14.5571 17.2811 14.5547 17.266 14.5484C17.2508 14.5421 17.2374 14.5322 17.227 14.5194C17.2134 14.5026 17.2032 14.4832 17.197 14.4624C17.1851 14.4647 17.1729 14.4647 17.161 14.4624L17.083 14.5884C16.9821 14.773 16.9246 14.9782 16.915 15.1884C16.9519 15.1551 16.9851 15.1178 17.014 15.0774C17.065 15.0024 17.191 14.7774 17.191 14.7774" fill="#F4D150"/>
<path id="Vector_23" d="M17.455 14.6274C17.4204 14.5931 17.3947 14.5509 17.38 14.5044C17.3688 14.5205 17.3532 14.533 17.335 14.5404C17.314 14.5704 17.188 14.8074 17.188 14.8074C17.089 14.9904 16.945 15.3864 17.011 15.4944C17.1246 15.361 17.214 15.2087 17.275 15.0444L17.455 14.6274Z" fill="#F4D150"/>
<path id="Vector_24" d="M17.5 15.1313L17.689 14.6213C17.6613 14.6474 17.6258 14.6638 17.588 14.6681C17.5502 14.6724 17.512 14.6645 17.479 14.6453C17.479 14.6453 17.356 14.9453 17.287 15.1163C17.1975 15.3135 17.1643 15.5315 17.191 15.7463C17.2351 15.7153 17.2711 15.6741 17.296 15.6263C17.3166 15.5917 17.3346 15.5556 17.35 15.5183L17.5 15.1313Z" fill="#F4D150"/>
<path id="Vector_25" d="M17.509 15.1975C17.4227 15.3891 17.3602 15.5907 17.323 15.7975C17.3272 15.9241 17.3536 16.049 17.401 16.1665L17.641 15.3895C17.641 15.3895 17.524 15.3895 17.509 15.2095" fill="#F4D150"/>
<path id="Vector_26" d="M11.98 10.0614H10.39V13.3614C10.39 13.7694 10.558 13.9614 10.909 13.9614H11.434C11.5602 13.9685 11.6809 14.0152 11.7789 14.0949C11.877 14.1747 11.9474 14.2833 11.98 14.4054C12.0054 14.2799 12.072 14.1665 12.1694 14.0833C12.2667 14.0001 12.3891 13.9519 12.517 13.9464H13.045C13.393 13.9464 13.564 13.7544 13.564 13.3464V10.0464L11.98 10.0614Z" fill="white"/>
<path id="Vector_27" d="M11.98 10.0614H10.39V13.3614C10.39 13.7694 10.558 13.9614 10.909 13.9614H11.434C11.5602 13.9685 11.6809 14.0152 11.7789 14.0949C11.877 14.1747 11.9474 14.2833 11.98 14.4054C12.0054 14.2799 12.072 14.1665 12.1694 14.0833C12.2667 14.0001 12.3891 13.9519 12.517 13.9464H13.045C13.393 13.9464 13.564 13.7544 13.564 13.3464V10.0464L11.98 10.0614Z" stroke="white" stroke-width="0.03" stroke-miterlimit="10"/>
<path id="Vector_28" d="M11.332 13.2203H11.245C11.245 13.1783 11.212 13.1633 11.209 13.1183C11.209 12.9593 11.146 13.0223 11.299 12.7253C11.443 12.6233 11.341 12.6173 11.686 12.4253C11.728 12.4553 11.719 12.5513 11.686 12.5873C11.6938 12.6036 11.6999 12.6207 11.704 12.6383C11.7293 12.6518 11.7567 12.6609 11.785 12.6653C11.851 12.7223 11.833 12.6953 12.019 12.9953C12.019 12.9953 12.019 12.9743 12.019 12.9623L12.052 12.9923H12.025C12.025 13.0133 12.025 13.0433 12.043 13.0433C12.061 13.0433 11.968 13.0433 11.95 13.0703C11.9243 13.0722 11.9 13.0828 11.881 13.1003C11.854 13.1003 11.842 13.1003 11.821 13.1213C11.959 13.0643 11.416 12.4223 11.323 13.1843C11.323 13.1843 11.323 13.1843 11.293 13.1843C11.263 13.1843 11.332 13.2023 11.332 13.2263M12.1 12.8873L11.962 12.3923C11.9818 12.3553 11.9931 12.3143 11.995 12.2723C12.028 12.2723 12.064 12.2723 12.1 12.2723C12.1241 12.3079 12.1376 12.3495 12.139 12.3923C12.166 12.3923 12.106 12.4373 12.139 12.5183C12.193 12.5183 12.154 12.5183 12.25 12.4943C12.331 12.4943 12.295 12.4943 12.4 12.6263C12.4285 12.7146 12.4711 12.7976 12.526 12.8723C12.472 12.8723 12.526 12.8723 12.484 12.9473C12.484 12.9473 12.484 12.8993 12.532 12.9143C12.532 12.9143 12.532 12.9413 12.532 12.9533C12.532 12.9653 12.532 12.9533 12.496 13.0163C12.496 13.0163 12.496 13.0013 12.496 12.9923C12.496 12.9833 12.496 12.9923 12.538 12.9923C12.5415 13.0102 12.5415 13.0285 12.538 13.0463C12.538 13.0463 12.511 13.0613 12.505 13.0763C12.4917 13.0729 12.4778 13.0725 12.4643 13.0751C12.4509 13.0777 12.4381 13.0832 12.427 13.0913C12.427 13.0913 12.427 13.0913 12.466 13.0913C12.505 13.0913 12.466 13.1063 12.466 13.1213C12.466 13.1213 12.436 13.1213 12.424 13.1213C12.412 13.1213 12.355 13.0613 12.301 13.0673C12.247 13.0733 12.301 13.0673 12.238 13.0673C12.259 13.0673 12.238 13.0673 12.286 13.0673C12.334 13.0673 12.316 13.0403 12.34 13.0373C12.3422 13.0452 12.3422 13.0535 12.34 13.0613C12.34 13.0913 12.427 13.0223 12.319 12.9893C12.2594 13.0145 12.2054 13.0512 12.16 13.0973C12.16 13.0733 12.181 13.0433 12.16 13.0223C12.196 13.0223 12.196 12.9623 12.241 12.9563C12.286 12.9503 12.241 12.9803 12.241 12.9863C12.283 12.9863 12.241 12.9863 12.268 12.9113C12.25 12.9113 12.268 12.8963 12.208 12.9113C12.148 12.9263 12.178 12.8903 12.136 12.9863C12.121 12.9863 12.166 12.9533 12.109 12.8933C12.109 12.8933 12.085 12.8933 12.07 12.9083M11.371 10.4093C11.341 10.4573 11.353 10.4093 11.389 10.5623C11.368 10.6013 11.335 10.5863 11.347 10.7153C11.275 10.7543 10.879 10.6853 10.945 10.9433C10.945 10.9433 10.825 11.0693 10.945 11.1383C10.945 11.1773 10.897 11.1953 10.975 11.2523C10.9813 11.2636 10.9904 11.273 11.0015 11.2795C11.0125 11.286 11.0252 11.2895 11.038 11.2895C11.0509 11.2895 11.0635 11.286 11.0746 11.2795C11.0857 11.273 11.0948 11.2636 11.101 11.2523C11.194 11.2103 11.161 11.4983 11.296 11.3273C11.3296 11.3349 11.3645 11.3349 11.398 11.3273L11.437 11.3543C11.473 11.3273 11.437 11.3243 11.539 11.3543C11.5471 11.3438 11.5576 11.3353 11.5696 11.3295C11.5815 11.3238 11.5947 11.321 11.608 11.3213L11.638 11.4323H11.614C11.614 11.5253 11.668 11.5703 11.677 11.6573C11.5432 11.6545 11.4103 11.6801 11.287 11.7323C11.179 11.5283 10.738 11.5223 10.765 12.0323C10.7591 12.038 10.7546 12.0451 10.752 12.053C10.7494 12.0608 10.7487 12.0692 10.75 12.0773C10.7692 12.0708 10.7873 12.0617 10.804 12.0503C10.7916 12.1389 10.7916 12.2288 10.804 12.3173C10.8433 12.2852 10.8708 12.2408 10.882 12.1913C10.8979 12.2421 10.8979 12.2965 10.882 12.3473C10.903 12.2873 11.011 12.3173 11.059 12.1343C11.059 12.1943 11.08 12.2663 11.041 12.3023C11.0545 12.2968 11.0668 12.2887 11.077 12.2783C11.263 12.4103 10.957 11.6093 11.26 11.8133C11.14 11.9903 11.47 12.3713 11.176 12.6953C11.1663 12.8323 11.1174 12.9635 11.035 13.0733C11.035 13.0733 11.035 13.0733 11.05 13.0733C11.05 13.0733 11.05 13.0733 11.065 13.0733C11.08 13.0733 11.065 13.0733 11.05 13.1663C10.948 13.2443 11.095 12.8663 10.813 12.8663C11.029 12.9143 10.777 13.5563 11.395 13.4123V13.4513C11.3716 13.4734 11.3441 13.4907 11.314 13.5023C11.524 13.4543 11.983 13.9013 12.301 13.5713C12.301 13.5233 12.433 13.6193 12.4 13.4393C12.421 13.4393 12.4 13.4063 12.487 13.4003H12.508C12.508 13.4003 12.532 13.4003 12.577 13.4003C12.622 13.4003 12.577 13.4423 12.712 13.4663C12.7238 13.4515 12.7338 13.4354 12.742 13.4183C12.859 13.3703 13.09 13.4723 13.105 13.2443C13.0951 13.262 13.0841 13.279 13.072 13.2953C13.072 13.2953 13.072 13.2953 13.099 13.2683C13.099 13.2923 13.075 13.3193 13.063 13.3223C13.051 13.3253 13.099 13.2443 13.063 13.2053C13.0648 13.2272 13.0597 13.2491 13.0484 13.268C13.0371 13.2868 13.0202 13.3016 13 13.3103C13 13.3103 13.015 13.2503 13 13.2383C13.0004 13.247 12.9987 13.2556 12.995 13.2634C12.9914 13.2712 12.9859 13.2781 12.979 13.2833C12.979 13.2833 12.979 13.2503 12.979 13.2473C12.9762 13.2616 12.9698 13.2749 12.9603 13.286C12.9509 13.297 12.9387 13.3054 12.925 13.3103C12.925 13.3103 12.925 13.3103 12.925 13.2833C12.925 13.2563 12.925 13.3013 12.898 13.3013C12.871 13.3013 12.898 13.2743 12.883 13.2683C12.868 13.2623 12.883 13.2893 12.865 13.2953C12.847 13.3013 12.865 13.2713 12.85 13.2653C12.835 13.2593 12.85 13.2653 12.85 13.2833C12.8432 13.2556 12.8298 13.2299 12.811 13.2083C12.832 13.2083 12.811 13.1783 12.832 13.1693C12.853 13.1603 12.832 13.1693 12.859 13.1693C12.886 13.1693 12.859 13.1483 12.859 13.1423C12.859 13.1363 12.859 13.1423 12.877 13.1423C12.895 13.1423 12.877 13.1243 12.877 13.1153C12.877 13.1063 12.892 13.1153 12.901 13.0973C12.9105 13.1005 12.9191 13.106 12.9259 13.1134C12.9327 13.1207 12.9375 13.1296 12.94 13.1393C12.9475 13.1128 12.9475 13.0848 12.94 13.0583C12.94 13.0583 12.94 13.0583 12.961 13.0583C12.982 13.0583 12.985 13.1003 12.982 13.1123C12.979 13.1243 12.982 13.0703 12.982 13.0493C12.982 13.0283 13 13.0763 13.012 13.0913C13.012 12.9923 12.895 13.0193 12.748 13.1363C12.748 13.1093 12.706 13.0973 12.691 13.0673C12.7026 13.0479 12.7107 13.0265 12.715 13.0043C12.715 13.0043 12.685 13.0043 12.679 12.9773C12.6819 12.9675 12.6819 12.9571 12.679 12.9473C12.679 12.9473 12.652 12.9473 12.64 12.9473C12.6071 12.744 12.559 12.5434 12.496 12.3473C12.496 12.3473 12.496 12.3863 12.496 12.3473L12.568 12.3773C12.619 12.3923 12.775 12.1913 12.985 12.1493C13.027 12.1973 12.937 12.2693 12.892 12.4133C12.874 12.4133 12.892 12.4433 12.874 12.4613C12.79 12.4613 12.799 12.3713 12.76 12.5873C12.844 12.5873 12.76 12.5873 12.928 12.5573C13.057 12.4673 13.063 12.3593 13.126 12.0503C13.003 11.9033 13.105 11.9633 12.679 12.0503C12.721 11.9483 12.661 11.9843 12.601 11.6153C12.643 11.6363 12.643 11.6483 12.724 11.5583C12.709 11.5583 12.76 11.6393 12.82 11.5823C12.82 11.5823 12.82 11.5823 12.838 11.5823C12.856 11.5823 12.838 11.5823 12.88 11.5823C12.991 11.5403 13.027 11.5223 12.922 11.1473C12.922 11.1473 12.943 11.1473 12.94 11.1473H12.991C12.973 11.1113 12.991 11.0603 12.967 11.0303L13.003 10.9943C12.9747 10.9814 12.9441 10.9743 12.913 10.9733C12.913 10.9733 12.913 10.9583 12.835 10.9463C12.835 10.9253 12.868 10.9043 12.883 10.8803C12.8501 10.8769 12.8169 10.8769 12.784 10.8803C12.784 10.8803 12.784 10.8803 12.706 10.8623C12.628 10.8443 12.634 10.7873 12.406 10.8623C12.4193 10.8617 12.4325 10.8647 12.4441 10.871C12.4557 10.8774 12.4654 10.8868 12.472 10.8983C12.382 10.8983 12.412 10.8563 12.268 10.9463C12.2557 10.9504 12.2446 10.9574 12.2357 10.9669C12.2268 10.9763 12.2204 10.9878 12.217 11.0003H12.253C12.235 11.0243 12.133 11.0003 12.121 11.0513C12.163 11.0513 12.145 11.0513 12.217 11.0513C12.163 11.0723 12.217 11.0513 12.097 11.1563C12.0904 11.1108 12.0727 11.0676 12.0455 11.0304C12.0183 10.9933 11.9824 10.9634 11.941 10.9433C11.941 10.9433 11.923 10.9433 11.941 10.8833C11.959 10.8833 11.971 10.9013 12.004 10.8653C12.16 10.9793 12.196 10.4093 11.842 10.6073C11.974 10.4603 12.307 10.7993 12.007 10.8623L12.031 10.8413C12.031 10.8413 12.031 10.7903 12.076 10.7813C12.0776 10.7634 12.0776 10.7453 12.076 10.7273C12.0798 10.7193 12.0817 10.7106 12.0817 10.7018C12.0817 10.693 12.0798 10.6843 12.076 10.6763C12.076 10.6913 12.076 10.7153 12.058 10.7243C12.04 10.7333 12.058 10.6763 12.058 10.6673C12.064 10.6828 12.064 10.6999 12.058 10.7153C12.058 10.7153 12.058 10.7003 12.058 10.6883C12.058 10.6763 12.058 10.7033 12.058 10.7093C12.058 10.7153 12.04 10.6883 12.022 10.6883C11.953 10.6883 11.902 10.7783 11.887 10.8383C11.887 10.8383 11.827 10.8383 11.851 10.7753C11.827 10.8023 11.785 10.8113 11.851 10.7093C11.818 10.7093 11.803 10.7573 11.785 10.7873C11.785 10.7633 11.737 10.7393 11.824 10.6793C11.794 10.6793 11.824 10.6793 11.764 10.7153C11.731 10.6853 11.782 10.6313 11.905 10.5923C11.905 10.5923 11.905 10.5923 11.836 10.6163C11.797 10.6163 11.68 10.7513 11.8 10.7903C11.8 10.8293 11.839 10.7903 11.785 10.8653C11.6905 10.7914 11.5809 10.7392 11.464 10.7123V10.6823C11.479 10.6493 11.491 10.6523 11.434 10.5893C11.434 10.5893 11.434 10.5893 11.392 10.5893C11.35 10.5893 11.467 10.4963 11.401 10.3823L11.371 10.4093Z" fill="#F8DF85"/>
<path id="Vector_29" d="M16.117 14.8645C16.078 14.8645 16.069 14.9485 16.141 14.9155C16.141 14.8915 16.162 14.8915 16.117 14.8645ZM16.117 14.9515C16.117 14.9515 15.997 14.8765 16.117 14.8345C16.12 14.8045 16.237 14.9245 16.117 14.9515ZM15.361 13.4185C15.394 13.4185 15.394 13.4485 15.361 13.4185C15.322 13.5415 15.328 13.3885 15.361 13.4185ZM15.361 13.5085C15.304 13.5415 15.277 13.2955 15.421 13.4455C15.421 13.4785 15.424 13.4485 15.361 13.5085ZM17.632 15.3625L17.38 16.1455C17.3335 15.9857 17.3194 15.8182 17.3385 15.6528C17.3575 15.4875 17.4094 15.3276 17.491 15.1825C17.506 15.3745 17.623 15.3625 17.623 15.3625M17.323 15.5065C17.289 15.5957 17.2333 15.6751 17.161 15.7375C17.101 15.5035 17.263 15.0565 17.461 14.6305C17.4948 14.649 17.5337 14.6564 17.5719 14.6515C17.6102 14.6467 17.6459 14.6299 17.674 14.6035C17.614 14.7835 17.473 15.1675 17.338 15.5065H17.323ZM17.254 15.0445C17.1917 15.2088 17.1014 15.3611 16.987 15.4945C16.9981 15.1482 17.1119 14.8129 17.314 14.5315C17.3264 14.5328 17.3389 14.5311 17.3504 14.5264C17.362 14.5216 17.3721 14.5141 17.38 14.5045C17.3971 14.5456 17.4215 14.5832 17.452 14.6155L17.254 15.0445ZM16.984 15.0595C16.9537 15.0988 16.9195 15.135 16.882 15.1675C16.8977 14.9111 16.9839 14.664 17.131 14.4535C17.1429 14.4559 17.1551 14.4559 17.167 14.4535C17.167 14.4535 17.152 14.5285 17.287 14.5465C17.203 14.6845 17.194 14.7055 16.987 15.0685M16.909 14.7685C16.8664 14.823 16.8146 14.8697 16.756 14.9065C16.7494 14.7159 16.8076 14.5288 16.921 14.3755L16.969 14.2945C16.969 14.2615 16.969 14.4505 17.11 14.4595C17.11 14.4595 16.927 14.7595 16.909 14.7595M16.948 14.2885C16.859 14.4498 16.7374 14.5907 16.591 14.7025C16.5785 14.6312 16.5822 14.5581 16.602 14.4885C16.6217 14.4188 16.657 14.3546 16.705 14.3005L16.795 14.1655C16.795 14.1655 16.768 14.2915 16.948 14.2885ZM16.48 14.3875C16.459 14.2555 16.6 14.1115 16.696 14.0365C16.72 14.0635 16.663 14.0995 16.816 14.1235C16.8141 14.1344 16.8141 14.1456 16.816 14.1565C16.7955 14.1846 16.7734 14.2117 16.75 14.2375C16.6774 14.3107 16.5861 14.3626 16.486 14.3875M16.699 14.0185C16.6123 14.084 16.5077 14.1217 16.399 14.1265C16.4478 14.0247 16.5306 13.943 16.633 13.8955C16.669 13.9855 16.714 13.9765 16.714 13.9765C16.7062 13.9893 16.701 14.0036 16.699 14.0185ZM17.767 14.1835C17.848 14.2585 17.845 14.3785 17.866 14.4835C17.836 14.6965 17.914 14.4205 17.656 15.3355C17.281 15.2245 17.98 14.8465 17.395 14.4595C17.395 14.4595 17.284 14.6035 17.206 14.4175C17.23 14.3815 17.02 14.5135 17.014 14.2615C17.041 14.2255 16.822 14.3545 16.84 14.1055C16.879 14.1055 16.654 14.1295 16.747 13.9645C16.747 13.9645 16.666 13.9645 16.654 13.8865L16.972 13.7275C16.972 13.7815 16.921 14.3725 17.5 14.0695C17.5508 14.0647 17.602 14.0729 17.6487 14.0934C17.6954 14.1139 17.7361 14.1459 17.767 14.1865M15.094 11.6455L15.874 11.9125C15.874 11.9125 15.796 12.0025 15.943 12.1255C15.625 11.9545 15.547 12.2095 15.094 11.6455ZM15.88 12.3505C15.6647 12.3036 15.4659 12.2001 15.304 12.0505C15.604 11.9995 16.102 12.2125 16.528 12.3175C16.405 12.3625 16.396 12.4045 16.381 12.4735L15.88 12.3505ZM15.397 12.3505C15.7321 12.3542 16.0644 12.4119 16.381 12.5215C16.3881 12.5645 16.4045 12.6055 16.429 12.6415C16.4116 12.6353 16.3925 12.6353 16.375 12.6415C16.0283 12.6293 15.6909 12.5258 15.397 12.3415M16.18 12.8215C15.9732 12.794 15.7747 12.7224 15.598 12.6115C15.8501 12.6021 16.1025 12.6192 16.351 12.6625C16.351 12.6625 16.309 12.7165 16.351 12.8095L16.324 12.8365L16.18 12.8215ZM16.27 13.0555C16.078 13.0527 15.892 12.9886 15.739 12.8725C15.8039 12.8461 15.873 12.8319 15.943 12.8305C15.967 12.8305 16.312 12.8545 16.312 12.8545C16.312 12.8545 16.237 12.9625 16.363 13.0615L16.27 13.0555ZM16.192 13.2655C16.1198 13.2707 16.0473 13.2602 15.9795 13.2348C15.9117 13.2095 15.8501 13.1698 15.799 13.1185C15.9783 13.0674 16.1661 13.0531 16.351 13.0765C16.33 13.1155 16.258 13.1455 16.351 13.2715C16.351 13.2715 16.201 13.2715 16.186 13.2715M15.979 13.4155C16.0317 13.3695 16.0932 13.3346 16.1597 13.313C16.2262 13.2913 16.2964 13.2834 16.366 13.2895C16.366 13.2895 16.384 13.2895 16.393 13.2895C16.402 13.2895 16.315 13.3255 16.393 13.4365C16.279 13.4695 16.075 13.4965 15.979 13.4005M16.141 13.6255C16.183 13.5775 16.111 13.5925 16.405 13.4455C16.4178 13.454 16.4321 13.4601 16.447 13.4635C16.447 13.4635 16.417 13.4935 16.468 13.5745C16.3683 13.629 16.2526 13.647 16.141 13.6255ZM15.88 12.0145C15.88 12.0145 15.88 11.9425 15.88 11.9185C16.1608 12.0078 16.4338 12.1201 16.696 12.2545C16.681 12.3445 16.996 12.3385 16.819 12.7915C16.819 12.8935 16.189 13.0345 16.786 13.4155C16.678 13.4725 16.486 13.5565 16.468 13.5745C16.423 13.5295 16.468 13.4545 16.468 13.4545C16.468 13.4545 16.279 13.4305 16.411 13.2985C16.468 13.3165 16.201 13.1815 16.387 13.0675C16.444 13.0915 16.186 12.9325 16.372 12.8215C16.42 12.8215 16.21 12.6985 16.45 12.6415C16.354 12.2185 16.684 12.4315 15.874 12.0145M15.718 16.1125L15.526 16.5115L15.28 16.3945L15.412 16.1215C15.5117 16.1331 15.6124 16.1331 15.712 16.1215M15.901 16.0615L15.85 16.1665L15.736 16.1155C15.7925 16.1025 15.8478 16.0844 15.901 16.0615ZM14.29 16.3285L14.59 15.7285C14.7208 15.8477 14.8672 15.9486 15.025 16.0285L14.773 16.5625L14.29 16.3285ZM14.185 16.7995L13.585 16.5145C13.645 16.4965 13.627 16.5145 13.858 16.3855L14.302 16.5925L14.185 16.7995ZM11.635 16.7365C11.5186 16.779 11.3941 16.7944 11.2708 16.7814C11.1476 16.7684 11.029 16.7274 10.924 16.6615L11.881 16.1875L12.043 16.2625C11.9695 16.465 11.8244 16.6336 11.635 16.7365ZM11.68 16.0825L10.891 16.4815C10.9178 16.363 10.9683 16.2511 11.0394 16.1527C11.1106 16.0542 11.2009 15.9711 11.305 15.9085L11.68 16.0825ZM12.898 14.8045C13.0579 14.743 13.2321 14.7283 13.4 14.7623C13.5679 14.7963 13.7227 14.8776 13.846 14.9965L12.532 15.6655C12.565 15.3355 12.652 14.9125 12.898 14.8045ZM12.598 15.8485L13.972 15.1675C14.026 15.7675 13.513 16.5235 12.598 15.8485ZM7.15603 14.3005H7.05703C7.09903 14.4565 6.53803 14.6365 6.68803 14.1475C6.61471 14.0607 6.56757 13.9548 6.55208 13.8422C6.5366 13.7296 6.5534 13.6149 6.60055 13.5115C6.6477 13.4081 6.72324 13.3202 6.81839 13.2581C6.91355 13.196 7.02439 13.1621 7.13803 13.1605C7.15903 13.0015 7.62103 12.9415 7.51603 13.3465C7.57819 13.4275 7.61865 13.523 7.6336 13.624C7.64854 13.725 7.63746 13.8281 7.60142 13.9237C7.56537 14.0192 7.50555 14.1039 7.42761 14.1699C7.34967 14.2358 7.2562 14.2808 7.15603 14.3005ZM18.043 12.9745C17.9919 12.8994 17.9209 12.84 17.838 12.803C17.755 12.766 17.6634 12.7529 17.5734 12.765C17.4833 12.7772 17.3985 12.8141 17.3283 12.8718C17.2581 12.9295 17.2054 13.0056 17.176 13.0915C17.035 13.2025 17.002 13.2955 17.011 13.3675L14.311 14.7445C14.044 14.5165 14.482 12.0805 15.136 13.7785C15.136 13.7305 15.181 13.1365 15.349 13.8595C15.3678 13.7637 15.4199 13.6776 15.496 13.6165C15.496 12.3355 13.411 12.6385 13.855 14.5165C13.03 13.9975 12.172 14.6005 12.124 15.5755C11.8938 15.4916 11.646 15.4679 11.404 15.5065L8.29903 14.0605L8.14003 13.9915L8.35603 13.5415C8.32603 13.5415 8.26603 13.5055 8.12503 13.4365C8.11278 13.3813 8.08839 13.3295 8.05362 13.2848C8.01885 13.2402 7.97458 13.2039 7.92403 13.1785C7.95403 13.0885 7.96603 13.1395 7.79803 12.8785C7.88503 12.7135 7.65403 12.2155 7.27903 12.6355C7.13503 12.5635 7.27903 12.6025 6.97903 12.7285C6.85903 12.6985 6.56203 12.6805 6.39403 13.0945C6.39403 13.0945 5.92903 13.0945 6.16903 13.5745C6.04303 13.7695 5.97103 13.9045 6.25603 14.2525C6.22603 14.3395 6.21403 14.2945 6.38503 14.5525C6.29803 14.7145 6.52603 15.2095 6.90403 14.7925C7.04503 14.8645 6.90403 14.8255 7.20403 14.6995C7.2558 14.7232 7.31208 14.7355 7.36903 14.7355C7.42598 14.7355 7.48226 14.7232 7.53403 14.6995L7.76203 14.8075L7.96003 14.3905L10.897 15.7495C10.7065 15.9397 10.5841 16.1876 10.549 16.4545C10.207 15.9265 8.58103 16.3315 9.04903 17.2195C9.11203 16.9195 9.55303 16.1755 10.405 16.7515C7.37203 18.2515 9.48703 17.4805 10.501 16.8865C10.456 17.1355 10.432 18.1615 9.31903 17.7475C9.53203 18.3085 10.936 18.2185 10.819 17.0125C11.68 17.3335 11.962 17.1265 12.385 16.4425L15.139 17.7175C15.124 17.7175 15.619 17.7445 15.316 17.3455C15.316 17.3455 15.208 17.2915 15.016 17.2045L15.115 16.9975L15.577 17.2105L16.087 16.1305L15.946 16.0645C16.321 15.9865 16.654 14.8645 16.042 14.7355C15.9478 14.7605 15.8478 14.7509 15.76 14.7085C15.811 14.8495 16.189 15.2485 15.7 14.9275C16.717 16.2535 14.53 15.5665 14.383 14.9725L17.119 13.6165C17.17 13.6675 17.254 13.6855 17.434 13.6345C17.659 13.6765 18.178 13.6345 18.034 13.0045" fill="#F8DF85"/>
</g>
</svg>
