<svg width="16" height="16" viewBox="0 0 16 16" fill="none" xmlns="http://www.w3.org/2000/svg">
<g id="&#208;&#161;&#209;&#130;&#208;&#176;&#209;&#130;&#209;&#131;&#209;&#129;&#209;&#139;">
<g id="Vector">
<path fill-rule="evenodd" clip-rule="evenodd" d="M7.99967 2.66732C5.05416 2.66732 2.66634 5.05513 2.66634 8.00065C2.66634 10.9462 5.05416 13.334 7.99967 13.334C10.9452 13.334 13.333 10.9462 13.333 8.00065C13.333 5.05513 10.9452 2.66732 7.99967 2.66732ZM1.33301 8.00065C1.33301 4.31875 4.31778 1.33398 7.99967 1.33398C11.6816 1.33398 14.6663 4.31875 14.6663 8.00065C14.6663 11.6826 11.6816 14.6673 7.99967 14.6673C4.31778 14.6673 1.33301 11.6826 1.33301 8.00065Z" fill="#71D472"/>
<path fill-rule="evenodd" clip-rule="evenodd" d="M10.4711 6.19591C10.7314 6.45626 10.7314 6.87837 10.4711 7.13872L7.80441 9.80539C7.54406 10.0657 7.12195 10.0657 6.8616 9.80539L5.52827 8.47206C5.26792 8.21171 5.26792 7.7896 5.52827 7.52925C5.78862 7.2689 6.21073 7.2689 6.47108 7.52925L7.33301 8.39118L9.52827 6.19591C9.78862 5.93556 10.2107 5.93556 10.4711 6.19591Z" fill="#71D472"/>
</g>
</g>
</svg>
