<svg width="16" height="16" viewBox="0 0 16 16" fill="none" xmlns="http://www.w3.org/2000/svg">
<g id="&#208;&#161;&#209;&#130;&#208;&#176;&#209;&#130;&#209;&#131;&#209;&#129;&#209;&#139;">
<g id="Vector">
<path fill-rule="evenodd" clip-rule="evenodd" d="M7.2998 10.3006C7.2998 9.93243 7.59828 9.63395 7.96647 9.63395H8.03314C8.40133 9.63395 8.69981 9.93243 8.69981 10.3006V10.3673C8.69981 10.7355 8.40133 11.034 8.03314 11.034H7.96647C7.59828 11.034 7.2998 10.7355 7.2998 10.3673V10.3006Z" fill="#F4D150"/>
<path fill-rule="evenodd" clip-rule="evenodd" d="M7.99967 4.30062C8.36786 4.30062 8.66634 4.5991 8.66634 4.96729V8.30062C8.66634 8.66881 8.36786 8.96729 7.99967 8.96729C7.63148 8.96729 7.33301 8.66881 7.33301 8.30062V4.96729C7.33301 4.5991 7.63148 4.30062 7.99967 4.30062Z" fill="#F4D150"/>
<path fill-rule="evenodd" clip-rule="evenodd" d="M7.99967 2.66732C5.05416 2.66732 2.66634 5.05513 2.66634 8.00065C2.66634 10.9462 5.05416 13.334 7.99967 13.334C10.9452 13.334 13.333 10.9462 13.333 8.00065C13.333 5.05513 10.9452 2.66732 7.99967 2.66732ZM1.33301 8.00065C1.33301 4.31875 4.31778 1.33398 7.99967 1.33398C11.6816 1.33398 14.6663 4.31875 14.6663 8.00065C14.6663 11.6826 11.6816 14.6673 7.99967 14.6673C4.31778 14.6673 1.33301 11.6826 1.33301 8.00065Z" fill="#F4D150"/>
</g>
</g>
</svg>
