<svg width="20" height="20" viewBox="0 0 20 20" fill="none" xmlns="http://www.w3.org/2000/svg">
<path d="M20 10C20 15.5228 15.5228 20 10 20C4.47715 20 0 15.5228 0 10C0 4.47715 4.47715 0 10 0C15.5228 0 20 4.47715 20 10Z" fill="#004781"/>
<path fill-rule="evenodd" clip-rule="evenodd" d="M12.8565 14.9179C13.5554 15.2216 13.8175 14.5852 13.8175 14.5852L15.6669 5.35851C15.6523 4.73665 14.8077 5.11266 14.8077 5.11266L4.45435 9.14755C4.45435 9.14755 3.95925 9.32109 4.00293 9.62479C4.04662 9.92849 4.43978 10.0731 4.43978 10.0731L7.04633 10.9408C7.04633 10.9408 7.83266 13.5006 7.99284 13.9923C8.13846 14.4695 8.26952 14.484 8.26952 14.484C8.41513 14.5419 8.54619 14.4406 8.54619 14.4406L10.2353 12.9221L12.8565 14.9179ZM13.3079 6.99269C13.3079 6.99269 13.6719 6.77576 13.6574 6.99269C13.6574 6.99269 13.7156 7.02161 13.5263 7.22408C13.3516 7.39762 9.23059 11.071 8.67725 11.5627C8.63356 11.5916 8.60444 11.635 8.60444 11.6928L8.44426 13.0523C8.41513 13.1969 8.22583 13.2113 8.18215 13.0812L7.49775 10.854C7.46862 10.7673 7.49775 10.666 7.58512 10.6082L13.3079 6.99269Z" fill="white"/>
</svg>
