<svg width="19" height="21" viewBox="0 0 19 21" fill="none" xmlns="http://www.w3.org/2000/svg">
<path fill-rule="evenodd" clip-rule="evenodd" d="M4.33466 2.5C4.33466 1.39543 5.23009 0.5 6.33466 0.5H12.3347C13.4392 0.5 14.3347 1.39543 14.3347 2.5V3.5H17.3347C17.8869 3.5 18.3347 3.94772 18.3347 4.5C18.3347 5.05228 17.8869 5.5 17.3347 5.5H16.3347V18.5C16.3347 19.6046 15.4392 20.5 14.3347 20.5H4.33466C3.23009 20.5 2.33466 19.6046 2.33466 18.5V5.5H1.33466C0.782371 5.5 0.334656 5.05228 0.334656 4.5C0.334656 3.94772 0.782371 3.5 1.33466 3.5H4.33466V2.5ZM6.33466 3.5H12.3347V2.5H6.33466V3.5ZM4.33466 5.5V18.5H14.3347V5.5H4.33466ZM7.33466 7.5C7.88694 7.5 8.33466 7.94772 8.33466 8.5V15.5C8.33466 16.0523 7.88694 16.5 7.33466 16.5C6.78237 16.5 6.33466 16.0523 6.33466 15.5V8.5C6.33466 7.94772 6.78237 7.5 7.33466 7.5ZM11.3347 7.5C11.8869 7.5 12.3347 7.94772 12.3347 8.5V15.5C12.3347 16.0523 11.8869 16.5 11.3347 16.5C10.7824 16.5 10.3347 16.0523 10.3347 15.5V8.5C10.3347 7.94772 10.7824 7.5 11.3347 7.5Z" fill="#7A91A9"/>
</svg>
