<svg width="46" height="46" viewBox="0 0 46 46" fill="none" xmlns="http://www.w3.org/2000/svg">
<path d="M9.64832 17.4742C7.83556 17.9304 6.25176 19.0328 5.19448 20.5743C4.1372 22.1159 3.67922 23.9904 3.90658 25.8458C4.13394 27.7012 5.031 29.4097 6.42922 30.6504C7.82743 31.891 9.63056 32.5784 11.4998 32.5833H13.4165M22.9998 23V40.25V23ZM22.9998 23L18.2082 26.8333L22.9998 23ZM22.9998 23L27.7915 26.8333L22.9998 23Z" stroke="#0082DE" stroke-width="2" stroke-linecap="round" stroke-linejoin="round"/>
<path d="M30.3406 13.6812C29.6855 11.0871 28.0686 8.83916 25.8175 7.39307C23.5665 5.94697 20.8498 5.41091 18.2182 5.89355C15.5866 6.3762 13.2369 7.84143 11.6456 9.99222C10.0542 12.143 9.34019 14.8184 9.64828 17.4762C9.64828 17.4762 9.94153 19.1667 10.5414 20.125" stroke="#0082DE" stroke-width="2" stroke-linecap="round" stroke-linejoin="round"/>
<path d="M32.5832 32.5833C33.9364 32.5824 35.2741 32.2949 36.5082 31.7397C37.7424 31.1845 38.8449 30.3743 39.7433 29.3623C40.6417 28.3503 41.3156 27.1595 41.7207 25.8683C42.1257 24.5771 42.2527 23.2148 42.0932 21.8709C41.9338 20.5271 41.4916 19.2323 40.7957 18.0717C40.0998 16.9111 39.166 15.9111 38.0557 15.1374C36.9454 14.3637 35.6839 13.8339 34.3542 13.5829C33.0244 13.3319 31.6566 13.3654 30.3407 13.6811L27.7915 14.375" stroke="#0082DE" stroke-width="2" stroke-linecap="round" stroke-linejoin="round"/>
</svg>
