<svg width="24" height="24" viewBox="0 0 24 24" fill="none" xmlns="http://www.w3.org/2000/svg">
<path fill-rule="evenodd" clip-rule="evenodd" d="M8.69786 3.75146C7.598 3.7514 6.6593 4.54647 6.47837 5.63135L6.16454 7.51318C6.0962 7.92301 5.7416 8.22336 5.32611 8.22336L5.00003 8.22335C3.75738 8.22334 2.75 9.2307 2.75 10.4734V19.0002C2.75 20.2429 3.75736 21.2502 5 21.2502H19C20.2426 21.2502 21.25 20.2429 21.25 19.0002V10.4735C21.25 9.23091 20.2427 8.22355 19 8.22353L18.6985 8.22353C18.2814 8.22353 17.9259 7.92083 17.8594 7.50903L17.5581 5.64319C17.3821 4.55317 16.4412 3.75193 15.337 3.75186L8.69786 3.75146ZM4.99881 5.3846C5.30034 3.57648 6.86486 2.25135 8.69795 2.25146L15.3371 2.25186C17.1774 2.25198 18.7456 3.58737 19.0389 5.40407L19.2534 6.73196C21.2063 6.86225 22.75 8.48762 22.75 10.4735V19.0002C22.75 21.0713 21.0711 22.7502 19 22.7502H5C2.92893 22.7502 1.25 21.0713 1.25 19.0002L1.25 10.4734C1.25 8.47802 2.80839 6.84667 4.77443 6.73003L4.99881 5.3846Z" fill="#0082DE"/>
<path fill-rule="evenodd" clip-rule="evenodd" d="M11.999 10.2885C12.4132 10.2885 12.749 10.6242 12.749 11.0385V16.8835C12.749 17.2977 12.4132 17.6335 11.999 17.6335C11.5848 17.6335 11.249 17.2977 11.249 16.8835V11.0385C11.249 10.6242 11.5848 10.2885 11.999 10.2885Z" fill="#0082DE"/>
<path fill-rule="evenodd" clip-rule="evenodd" d="M8.32617 13.9609C8.32617 13.5467 8.66196 13.2109 9.07617 13.2109H14.9213C15.3355 13.2109 15.6713 13.5467 15.6713 13.9609C15.6713 14.3752 15.3355 14.7109 14.9213 14.7109H9.07617C8.66196 14.7109 8.32617 14.3752 8.32617 13.9609Z" fill="#0082DE"/>
</svg>
