<svg width="24" height="24" viewBox="0 0 24 24" fill="none" xmlns="http://www.w3.org/2000/svg">
<g clip-path="url(#clip0_9_55)">
<path d="M14.4881 3.75813L14.6146 4.10526H14.9859H19.4118C20.2841 4.10526 21 4.81699 21 5.68421V20.4211C21 21.2883 20.2841 22 19.4118 22H4.58824C3.71591 22 3 21.2883 3 20.4211V5.68421C3 4.81699 3.71591 4.10526 4.58824 4.10526H9.01412H9.38548L9.5119 3.75813C9.88526 2.73299 10.8594 2 12 2C13.1406 2 14.1148 2.73299 14.4881 3.75813ZM12.9714 3.22196L12.9694 3.21983C12.7384 2.97376 12.4033 2.78947 12 2.78947C11.5967 2.78947 11.2616 2.97376 11.0306 3.21983L11.0286 3.22196C10.8207 3.44588 10.6765 3.75978 10.6765 4.10526C10.6765 4.53383 10.8867 4.91708 11.2094 5.15789H4.58824H4.05882V5.68421V20.4211V20.9474H4.58824H19.4118H19.9412V20.4211V5.68421V5.15789H19.4118H12.7906C13.1134 4.91708 13.3235 4.53383 13.3235 4.10526C13.3235 3.75978 13.1793 3.44588 12.9714 3.22196ZM7.75933 16.8545L7.23529 17.7579L8.09294 17.7895H15.9071H16.7647L16.2437 16.8568C15.8062 16.4987 15.1004 16.1793 14.3612 15.9501C13.6114 15.7178 12.7604 15.5579 12 15.5579C11.2394 15.5579 10.3909 15.7179 9.64249 15.9502C8.90363 16.1796 8.20024 16.4987 7.75933 16.8545ZM9.35294 9.89474C9.35294 8.44857 10.5453 7.26316 12 7.26316C13.4547 7.26316 14.6471 8.44857 14.6471 9.89474C14.6471 11.3409 13.4547 12.5263 12 12.5263C10.5453 12.5263 9.35294 11.3409 9.35294 9.89474ZM10.4118 9.89474C10.4118 10.7644 11.1253 11.4737 12 11.4737C12.8747 11.4737 13.5882 10.7644 13.5882 9.89474C13.5882 9.02512 12.8747 8.31579 12 8.31579C11.1253 8.31579 10.4118 9.02512 10.4118 9.89474ZM17.8235 17.7579V18.8421H6.17647V17.7579C6.17647 16.7577 6.97149 15.9486 8.24127 15.3599C9.48489 14.7833 10.9959 14.5158 12 14.5158C13.0034 14.5158 14.5144 14.7856 15.7583 15.3637C17.0291 15.9541 17.8235 16.7633 17.8235 17.7579Z" fill="#004781" stroke="#004781"/>
</g>
<defs>
<clipPath id="clip0_9_55">
<rect width="24" height="24" fill="white"/>
</clipPath>
</defs>
</svg>
