<svg width="48" height="48" viewBox="0 0 48 48" fill="none" xmlns="http://www.w3.org/2000/svg">
<rect width="48" height="48" rx="8" fill="#004781"/>
<path fill-rule="evenodd" clip-rule="evenodd" d="M18.1955 19.401C16.46 20.7465 15.0728 22.369 14.2486 23.4427L14.2443 23.4482C14.1213 23.6062 14.0547 23.8003 14.0547 24C14.0547 24.1997 14.1213 24.3938 14.2443 24.5518L14.2486 24.5573C15.0728 25.631 16.46 27.2535 18.1955 28.599C19.9425 29.9534 21.9381 30.9465 24.0002 30.9465C26.0624 30.9465 28.0579 29.9534 29.8049 28.599C31.5404 27.2536 32.9275 25.6312 33.7517 24.5575C34.0097 24.2213 34.0103 23.78 33.7512 23.4419C32.9269 22.3682 31.54 20.7461 29.8049 19.401C28.0579 18.0466 26.0624 17.0535 24.0002 17.0535C21.9381 17.0535 19.9425 18.0466 18.1955 19.401ZM34.5674 22.8173L35.382 22.1927C34.502 21.0464 32.9927 19.2734 31.0643 17.7784C29.1474 16.2924 26.7117 15 24.0002 15C21.2887 15 18.853 16.2924 16.9361 17.7784C15.0091 19.2724 13.5005 21.0439 12.6203 22.1902C12.2183 22.708 12 23.3446 12 24C12 24.6555 12.2183 25.2921 12.6204 25.8099C13.5006 26.9562 15.0092 28.7277 16.9361 30.2216C18.853 31.7076 21.2887 33 24.0002 33C26.7117 33 29.1474 31.7076 31.0643 30.2216C32.9927 28.7266 34.502 26.9536 35.382 25.8073C36.2062 24.7333 36.2056 23.2677 35.3826 22.1935L34.5674 22.8173Z" fill="white"/>
<path fill-rule="evenodd" clip-rule="evenodd" d="M24.0003 21.6096C22.6749 21.6096 21.6032 22.6813 21.6032 24C21.6032 25.3187 22.6749 26.3904 24.0003 26.3904C25.3257 26.3904 26.3974 25.3187 26.3974 24C26.3974 22.6813 25.3257 21.6096 24.0003 21.6096ZM19.5485 24C19.5485 21.5442 21.5432 19.5561 24.0003 19.5561C26.4574 19.5561 28.4521 21.5442 28.4521 24C28.4521 26.4558 26.4574 28.4438 24.0003 28.4438C21.5432 28.4438 19.5485 26.4558 19.5485 24Z" fill="white"/>
</svg>
