<svg width="14" height="14" viewBox="0 0 14 14" fill="none" xmlns="http://www.w3.org/2000/svg">
<path fill-rule="evenodd" clip-rule="evenodd" d="M6.30029 9.30001C6.30029 8.93182 6.59877 8.63334 6.96696 8.63334H7.03363C7.40182 8.63334 7.70029 8.93182 7.70029 9.30001V9.36668C7.70029 9.73487 7.40182 10.0333 7.03363 10.0333H6.96696C6.59877 10.0333 6.30029 9.73487 6.30029 9.36668V9.30001Z" fill="#EB4D3D"/>
<path fill-rule="evenodd" clip-rule="evenodd" d="M7.00016 3.30001C7.36835 3.30001 7.66683 3.59848 7.66683 3.96667V7.30001C7.66683 7.6682 7.36835 7.96667 7.00016 7.96667C6.63197 7.96667 6.3335 7.6682 6.3335 7.30001V3.96667C6.3335 3.59848 6.63197 3.30001 7.00016 3.30001Z" fill="#EB4D3D"/>
<path fill-rule="evenodd" clip-rule="evenodd" d="M7.00016 1.66671C4.05464 1.66671 1.66683 4.05452 1.66683 7.00004C1.66683 9.94556 4.05464 12.3334 7.00016 12.3334C9.94568 12.3334 12.3335 9.94556 12.3335 7.00004C12.3335 4.05452 9.94568 1.66671 7.00016 1.66671ZM0.333496 7.00004C0.333496 3.31814 3.31826 0.333374 7.00016 0.333374C10.6821 0.333374 13.6668 3.31814 13.6668 7.00004C13.6668 10.6819 10.6821 13.6667 7.00016 13.6667C3.31826 13.6667 0.333496 10.6819 0.333496 7.00004Z" fill="#EB4D3D"/>
</svg>
