<svg width="24" height="24" viewBox="0 0 24 24" fill="none" xmlns="http://www.w3.org/2000/svg">
<path d="M7.44652 9.67273L5.60465 12L7.44652 14.3273C7.60935 14.533 7.67926 14.7916 7.64088 15.0462C7.6025 15.3008 7.45897 15.5305 7.24186 15.6848C7.06611 15.8132 6.84977 15.8815 6.62791 15.8788C6.46905 15.8788 6.31238 15.8437 6.1703 15.7764C6.02821 15.7091 5.90462 15.6113 5.80931 15.4909L4.32559 13.6121L2.84186 15.4909C2.74655 15.6113 2.62296 15.7091 2.48087 15.7764C2.33879 15.8437 2.18212 15.8788 2.02326 15.8788C1.8014 15.8815 1.58506 15.8132 1.40931 15.6848C1.1922 15.5305 1.04867 15.3008 1.01029 15.0462C0.971909 14.7916 1.04182 14.533 1.20466 14.3273L3.04652 12L1.20466 9.67273C1.12403 9.57085 1.06537 9.45493 1.03202 9.33157C0.998669 9.20821 0.991285 9.07983 1.01029 8.95377C1.02929 8.82771 1.07431 8.70643 1.14277 8.59685C1.21124 8.48728 1.30181 8.39156 1.40931 8.31515C1.51681 8.23875 1.63914 8.18315 1.76931 8.15155C1.89948 8.11995 2.03494 8.11295 2.16797 8.13096C2.301 8.14897 2.42897 8.19163 2.5446 8.25651C2.66023 8.32139 2.76124 8.40722 2.84186 8.50909L4.32559 10.3879L5.80931 8.50909C5.97214 8.30335 6.21454 8.16733 6.4832 8.13096C6.75186 8.09459 7.02476 8.16084 7.24186 8.31515C7.45897 8.46946 7.6025 8.69918 7.64088 8.95377C7.67926 9.20837 7.60935 9.46698 7.44652 9.67273ZM14.3023 13.9394H11.7442V9.09091C11.7442 8.83373 11.6364 8.58708 11.4445 8.40523C11.2526 8.22338 10.9923 8.12121 10.7209 8.12121C10.4495 8.12121 10.1893 8.22338 9.99738 8.40523C9.80548 8.58708 9.69768 8.83373 9.69768 9.09091V14.9091C9.69768 15.1663 9.80548 15.4129 9.99738 15.5948C10.1893 15.7766 10.4495 15.8788 10.7209 15.8788H14.3023C14.5737 15.8788 14.834 15.7766 15.0259 15.5948C15.2178 15.4129 15.3256 15.1663 15.3256 14.9091C15.3256 14.6519 15.2178 14.4053 15.0259 14.2234C14.834 14.0416 14.5737 13.9394 14.3023 13.9394ZM20.1477 11.0061C19.7512 10.9091 19.0477 10.7273 18.907 10.5697V10.5455C18.907 10.1455 19.214 9.93939 19.8023 9.93939C20.2594 9.94822 20.7038 10.083 21.0814 10.3273H21.0686C21.2542 10.467 21.4839 10.5438 21.7209 10.5455C21.9923 10.5455 22.2526 10.4433 22.4445 10.2614C22.6364 10.0796 22.7442 9.83294 22.7442 9.57576C22.7467 9.43376 22.7145 9.29313 22.6502 9.16487C22.5858 9.0366 22.491 8.92417 22.3733 8.83636C21.6352 8.29976 20.7325 8.0061 19.8023 8C18.0756 8 16.8605 9.04242 16.8605 10.5455C16.8605 12.0485 18.5233 12.6061 19.6233 12.8848C20.0581 12.9939 20.5186 13.103 20.8 13.2606C21.0814 13.4182 20.9535 13.3818 20.9535 13.4545C20.9535 13.5273 20.9535 14.0606 19.8023 14.0606C19.3453 14.0518 18.9008 13.917 18.5233 13.6727H18.536C18.3504 13.533 18.1208 13.4562 17.8837 13.4545C17.6123 13.4545 17.3521 13.5567 17.1602 13.7386C16.9683 13.9204 16.8605 14.1671 16.8605 14.4242C16.858 14.5662 16.8901 14.7069 16.9545 14.8351C17.0188 14.9634 17.1136 15.0758 17.2314 15.1636C17.9694 15.7002 18.8721 15.9939 19.8023 16C21.8105 16 23 15.0424 23 13.4545C23 11.8667 21.2093 11.2727 20.1477 11.0061Z" fill="#7A91A9"/>
</svg>
