<svg width="40" height="40" viewBox="0 0 40 40" fill="none" xmlns="http://www.w3.org/2000/svg">
<path fill-rule="evenodd" clip-rule="evenodd" d="M20.0002 6.66671C12.6364 6.66671 6.66683 12.6362 6.66683 20C6.66683 27.3638 12.6364 33.3334 20.0002 33.3334C27.364 33.3334 33.3335 27.3638 33.3335 20C33.3335 12.6362 27.364 6.66671 20.0002 6.66671ZM3.3335 20C3.3335 10.7953 10.7954 3.33337 20.0002 3.33337C29.2049 3.33337 36.6668 10.7953 36.6668 20C36.6668 29.2048 29.2049 36.6667 20.0002 36.6667C10.7954 36.6667 3.3335 29.2048 3.3335 20Z" fill="#71D472"/>
<path fill-rule="evenodd" clip-rule="evenodd" d="M26.1787 15.4882C26.8295 16.1391 26.8295 17.1943 26.1787 17.8452L19.512 24.5119C18.8611 25.1628 17.8059 25.1628 17.155 24.5119L13.8217 21.1786C13.1708 20.5277 13.1708 19.4724 13.8217 18.8215C14.4725 18.1707 15.5278 18.1707 16.1787 18.8215L18.3335 20.9764L23.8217 15.4882C24.4725 14.8373 25.5278 14.8373 26.1787 15.4882Z" fill="#71D472"/>
</svg>
