<svg width="40" height="40" viewBox="0 0 40 40" fill="none" xmlns="http://www.w3.org/2000/svg">
<path fill-rule="evenodd" clip-rule="evenodd" d="M19.9997 6.66671C12.6359 6.66671 6.66634 12.6362 6.66634 20C6.66634 27.3638 12.6359 33.3334 19.9997 33.3334C27.3635 33.3334 33.333 27.3638 33.333 20C33.333 12.6362 27.3635 6.66671 19.9997 6.66671ZM3.33301 20C3.33301 10.7953 10.7949 3.33337 19.9997 3.33337C29.2044 3.33337 36.6663 10.7953 36.6663 20C36.6663 29.2048 29.2044 36.6667 19.9997 36.6667C10.7949 36.6667 3.33301 29.2048 3.33301 20Z" fill="#EB4D3D"/>
<path d="M17.6412 20L12.9642 15.3357C12.663 15.0246 12.4963 14.608 12.5001 14.1755C12.5038 13.7431 12.6778 13.3294 12.9844 13.0236C13.291 12.7178 13.7058 12.5444 14.1394 12.5406C14.5731 12.5368 14.9908 12.7031 15.3027 13.0035L19.9797 17.6678L24.6566 13.0035C24.8092 12.846 24.9917 12.7203 25.1935 12.6339C25.3952 12.5475 25.6122 12.502 25.8318 12.5001C26.0514 12.4982 26.2692 12.5399 26.4724 12.6228C26.6757 12.7058 26.8603 12.8282 27.0156 12.9831C27.1709 13.1379 27.2937 13.3221 27.3768 13.5248C27.46 13.7275 27.5018 13.9447 27.4999 14.1637C27.498 14.3827 27.4524 14.5991 27.3657 14.8003C27.2791 15.0015 27.1531 15.1835 26.9951 15.3357L22.3182 20L26.9951 24.6643C27.1531 24.8165 27.2791 24.9985 27.3657 25.1997C27.4524 25.4009 27.498 25.6173 27.4999 25.8363C27.5018 26.0553 27.46 26.2725 27.3768 26.4752C27.2937 26.6779 27.1709 26.8621 27.0156 27.0169C26.8603 27.1718 26.6757 27.2943 26.4724 27.3772C26.2692 27.4601 26.0514 27.5018 25.8318 27.4999C25.6122 27.498 25.3952 27.4525 25.1935 27.3661C24.9917 27.2797 24.8092 27.154 24.6566 26.9965L19.9797 22.3322L15.3027 26.9965C14.9908 27.2969 14.5731 27.4632 14.1394 27.4594C13.7058 27.4556 13.291 27.2822 12.9844 26.9764C12.6778 26.6706 12.5038 26.2569 12.5001 25.8245C12.4963 25.392 12.663 24.9754 12.9642 24.6643L17.6412 20Z" fill="#EB4D3D"/>
</svg>
