<svg width="40" height="40" viewBox="0 0 40 40" fill="none" xmlns="http://www.w3.org/2000/svg">
<mask id="path-1-inside-1_19516_78506" fill="white">
<path fill-rule="evenodd" clip-rule="evenodd" d="M18.25 25.75C18.25 24.8295 18.9962 24.0833 19.9167 24.0833H20.0833C21.0038 24.0833 21.75 24.8295 21.75 25.75V25.9166C21.75 26.8371 21.0038 27.5833 20.0833 27.5833H19.9167C18.9962 27.5833 18.25 26.8371 18.25 25.9166V25.75Z"/>
<path fill-rule="evenodd" clip-rule="evenodd" d="M19.9997 10.75C20.9202 10.75 21.6663 11.4962 21.6663 12.4166V20.75C21.6663 21.6704 20.9202 22.4166 19.9997 22.4166C19.0792 22.4166 18.333 21.6704 18.333 20.75V12.4166C18.333 11.4962 19.0792 10.75 19.9997 10.75Z"/>
<path fill-rule="evenodd" clip-rule="evenodd" d="M19.9997 6.66671C12.6359 6.66671 6.66634 12.6362 6.66634 20C6.66634 27.3638 12.6359 33.3334 19.9997 33.3334C27.3635 33.3334 33.333 27.3638 33.333 20C33.333 12.6362 27.3635 6.66671 19.9997 6.66671ZM3.33301 20C3.33301 10.7953 10.7949 3.33337 19.9997 3.33337C29.2044 3.33337 36.6663 10.7953 36.6663 20C36.6663 29.2048 29.2044 36.6667 19.9997 36.6667C10.7949 36.6667 3.33301 29.2048 3.33301 20Z"/>
</mask>
<path fill-rule="evenodd" clip-rule="evenodd" d="M18.25 25.75C18.25 24.8295 18.9962 24.0833 19.9167 24.0833H20.0833C21.0038 24.0833 21.75 24.8295 21.75 25.75V25.9166C21.75 26.8371 21.0038 27.5833 20.0833 27.5833H19.9167C18.9962 27.5833 18.25 26.8371 18.25 25.9166V25.75Z" fill="#F4D150"/>
<path fill-rule="evenodd" clip-rule="evenodd" d="M19.9997 10.75C20.9202 10.75 21.6663 11.4962 21.6663 12.4166V20.75C21.6663 21.6704 20.9202 22.4166 19.9997 22.4166C19.0792 22.4166 18.333 21.6704 18.333 20.75V12.4166C18.333 11.4962 19.0792 10.75 19.9997 10.75Z" fill="#F4D150"/>
<path fill-rule="evenodd" clip-rule="evenodd" d="M19.9997 6.66671C12.6359 6.66671 6.66634 12.6362 6.66634 20C6.66634 27.3638 12.6359 33.3334 19.9997 33.3334C27.3635 33.3334 33.333 27.3638 33.333 20C33.333 12.6362 27.3635 6.66671 19.9997 6.66671ZM3.33301 20C3.33301 10.7953 10.7949 3.33337 19.9997 3.33337C29.2044 3.33337 36.6663 10.7953 36.6663 20C36.6663 29.2048 29.2044 36.6667 19.9997 36.6667C10.7949 36.6667 3.33301 29.2048 3.33301 20Z" fill="#F4D150"/>
<path d="M19.9167 23.0833C18.4439 23.0833 17.25 24.2772 17.25 25.75H19.25C19.25 25.3818 19.5485 25.0833 19.9167 25.0833V23.0833ZM20.0833 23.0833H19.9167V25.0833H20.0833V23.0833ZM22.75 25.75C22.75 24.2772 21.5561 23.0833 20.0833 23.0833V25.0833C20.4515 25.0833 20.75 25.3818 20.75 25.75H22.75ZM22.75 25.9166V25.75H20.75V25.9166H22.75ZM20.0833 28.5833C21.5561 28.5833 22.75 27.3894 22.75 25.9166H20.75C20.75 26.2848 20.4515 26.5833 20.0833 26.5833V28.5833ZM19.9167 28.5833H20.0833V26.5833H19.9167V28.5833ZM17.25 25.9166C17.25 27.3894 18.4439 28.5833 19.9167 28.5833V26.5833C19.5485 26.5833 19.25 26.2848 19.25 25.9166H17.25ZM17.25 25.75V25.9166H19.25V25.75H17.25ZM22.6663 12.4166C22.6663 10.9439 21.4724 9.74996 19.9997 9.74996V11.75C20.3679 11.75 20.6663 12.0484 20.6663 12.4166H22.6663ZM22.6663 20.75V12.4166H20.6663V20.75H22.6663ZM19.9997 23.4166C21.4724 23.4166 22.6663 22.2227 22.6663 20.75H20.6663C20.6663 21.1182 20.3679 21.4166 19.9997 21.4166V23.4166ZM17.333 20.75C17.333 22.2227 18.5269 23.4166 19.9997 23.4166V21.4166C19.6315 21.4166 19.333 21.1182 19.333 20.75H17.333ZM17.333 12.4166V20.75H19.333V12.4166H17.333ZM19.9997 9.74996C18.5269 9.74996 17.333 10.9439 17.333 12.4166H19.333C19.333 12.0484 19.6315 11.75 19.9997 11.75V9.74996ZM19.9997 5.66671C12.0836 5.66671 5.66634 12.084 5.66634 20H7.66634C7.66634 13.1885 13.1882 7.66671 19.9997 7.66671V5.66671ZM5.66634 20C5.66634 27.9161 12.0836 34.3334 19.9997 34.3334V32.3334C13.1882 32.3334 7.66634 26.8116 7.66634 20H5.66634ZM19.9997 34.3334C27.9158 34.3334 34.333 27.9161 34.333 20H32.333C32.333 26.8116 26.8112 32.3334 19.9997 32.3334V34.3334ZM34.333 20C34.333 12.084 27.9158 5.66671 19.9997 5.66671V7.66671C26.8112 7.66671 32.333 13.1885 32.333 20H34.333ZM4.33301 20C4.33301 11.3476 11.3472 4.33337 19.9997 4.33337V2.33337C10.2426 2.33337 2.33301 10.243 2.33301 20H4.33301ZM19.9997 4.33337C28.6521 4.33337 35.6663 11.3476 35.6663 20H37.6663C37.6663 10.243 29.7567 2.33337 19.9997 2.33337V4.33337ZM35.6663 20C35.6663 28.6525 28.6521 35.6667 19.9997 35.6667V37.6667C29.7567 37.6667 37.6663 29.7571 37.6663 20H35.6663ZM19.9997 35.6667C11.3472 35.6667 4.33301 28.6525 4.33301 20H2.33301C2.33301 29.7571 10.2426 37.6667 19.9997 37.6667V35.6667Z" fill="#F4D150" mask="url(#path-1-inside-1_19516_78506)"/>
</svg>
