<svg width="40" height="40" viewBox="0 0 40 40" fill="none" xmlns="http://www.w3.org/2000/svg">
<path fill-rule="evenodd" clip-rule="evenodd" d="M20.0002 6.66671C12.6364 6.66671 6.66683 12.6362 6.66683 20C6.66683 27.3638 12.6364 33.3334 20.0002 33.3334C27.364 33.3334 33.3335 27.3638 33.3335 20C33.3335 12.6362 27.364 6.66671 20.0002 6.66671ZM3.3335 20C3.3335 10.7953 10.7954 3.33337 20.0002 3.33337C29.2049 3.33337 36.6668 10.7953 36.6668 20C36.6668 29.2048 29.2049 36.6667 20.0002 36.6667C10.7954 36.6667 3.3335 29.2048 3.3335 20Z" fill="#F4D150"/>
<path d="M16.6667 11.6667C15.75 11.6667 15 12.4167 15 13.3334L15.0083 15.9834C15.0083 16.425 15.1833 16.8417 15.4917 17.1584L18.3333 20L15.4917 22.8584C15.1833 23.1667 15.0083 23.5917 15.0083 24.0334L15 26.6667C15 27.5834 15.75 28.3334 16.6667 28.3334L23.3333 28.3334C24.25 28.3334 25 27.5834 25 26.6667L25 24.0334C25 23.5917 24.825 23.1667 24.5167 22.85L21.6667 20L24.5083 17.1667C24.825 16.85 25 16.425 25 15.9834L25 13.3334C25 12.4167 24.25 11.6667 23.3333 11.6667L16.6667 11.6667ZM23.3333 24.0917L23.3333 25.8334C23.3333 26.2917 22.9583 26.6667 22.5 26.6667L17.5 26.6667C17.0417 26.6667 16.6667 26.2917 16.6667 25.8334L16.6667 24.0917C16.6667 23.8667 16.7583 23.6584 16.9083 23.5L20 20.4167L23.0917 23.5084C23.2417 23.6584 23.3333 23.875 23.3333 24.0917Z" fill="#F4D150"/>
</svg>
