<svg width="18" height="29" viewBox="0 0 18 29" fill="none" xmlns="http://www.w3.org/2000/svg">
<path d="M9.00214 0C10.9103 0 11.5098 1.4155 12.0129 2.82878C12.2242 3.42893 17.1827 17.473 17.3318 17.8945C17.3715 18.0121 17.3447 18.2051 17.1698 18.275C16.9939 18.3438 14.4176 19.3799 14.2749 19.4354C14.1323 19.492 13.9725 19.4099 13.921 19.2623C13.8674 19.117 12.798 16.0553 12.6779 15.7136H5.32857C5.21273 16.0553 4.1305 19.1237 4.08223 19.2623C4.03289 19.4032 3.87951 19.4986 3.72721 19.4354C3.5749 19.3733 0.988917 18.3372 0.834465 18.275C0.68645 18.2151 0.618877 18.041 0.670361 17.8945C0.852699 17.3687 5.73615 3.54984 5.98498 2.82878C6.46979 1.43658 7.08974 0 9.00214 0ZM0.277797 25.1296C0.123346 25.1296 0 25.2627 0 25.4246V28.7071C0 28.8691 0.123346 29 0.277797 29H17.719C17.8767 29 18 28.8691 18 28.7071V25.4246C18 25.2627 17.8767 25.1296 17.719 25.1296H0.277797ZM8.98498 4.58596L6.50089 12.3013H11.5098L9.01716 4.58596H8.98498Z" fill="white"/>
</svg>
