<svg width="29" height="18" viewBox="0 0 29 18" fill="none" xmlns="http://www.w3.org/2000/svg">
<path d="M18.3113 2.18628H10.6641V15.8137H18.3113V2.18628Z" fill="#FF5F00"/>
<path d="M11.1503 8.99992C11.1491 7.6875 11.449 6.392 12.0273 5.21151C12.6056 4.03102 13.4472 2.99647 14.4883 2.18619C13.199 1.18125 11.6506 0.556293 10.0201 0.38275C8.38956 0.209206 6.74268 0.494072 5.26769 1.2048C3.7927 1.91553 2.54911 3.02344 1.67907 4.4019C0.809037 5.78035 0.347656 7.37373 0.347656 8.99992C0.347656 10.6261 0.809037 12.2195 1.67907 13.5979C2.54911 14.9764 3.7927 16.0843 5.26769 16.795C6.74268 17.5058 8.38956 17.7906 10.0201 17.6171C11.6506 17.4436 13.199 16.8186 14.4883 15.8137C13.4472 15.0034 12.6056 13.9688 12.0273 12.7883C11.449 11.6078 11.1491 10.3123 11.1503 8.99992Z" fill="#EB001B"/>
<path d="M28.6285 8.99992C28.6286 10.6261 28.1673 12.2195 27.2973 13.5979C26.4273 14.9764 25.1837 16.0843 23.7088 16.795C22.2338 17.5058 20.587 17.7906 18.9564 17.6171C17.3259 17.4436 15.7775 16.8186 14.4883 15.8137C15.5285 15.0026 16.3694 13.9678 16.9477 12.7875C17.5259 11.6072 17.8263 10.3121 17.8263 8.99992C17.8263 7.6877 17.5259 6.39261 16.9477 5.21231C16.3694 4.032 15.5285 2.99729 14.4883 2.18619C15.7775 1.18125 17.3259 0.556289 18.9564 0.382747C20.587 0.209206 22.2338 0.494085 23.7088 1.20482C25.1837 1.91556 26.4273 3.02347 27.2973 4.40192C28.1673 5.78038 28.6286 7.37375 28.6285 8.99992Z" fill="#F79E1B"/>
<path d="M27.7966 14.3703V14.0913H27.91V14.0345H27.6211V14.0913H27.7346V14.3703H27.7966ZM28.3575 14.3703V14.0339H28.2689L28.1671 14.2653L28.0652 14.0339H27.9766V14.3703H28.0391V14.1166L28.1346 14.3353H28.1995L28.295 14.116V14.3703H28.3575Z" fill="#F79E1B"/>
</svg>
