<svg width="46" height="14" viewBox="0 0 46 14" fill="none" xmlns="http://www.w3.org/2000/svg">
<path fill-rule="evenodd" clip-rule="evenodd" d="M4.26087 0.735522C4.66968 0.733014 5.88466 0.620781 6.3993 2.40222C6.74596 3.60222 7.29818 5.56788 8.05595 8.29919H8.36456C9.17721 5.41965 9.73545 3.454 10.0393 2.40222C10.5593 0.602224 11.8593 0.735557 12.3793 0.735557L16.3912 0.735562V13.5355H12.3022V5.9923H12.028L9.74851 13.5355H6.67201L4.39256 5.98671H4.11836V13.5355H0.0292969V0.735562L4.26087 0.735522ZM22.263 0.735562V8.28441H22.5892L25.362 2.07705C25.9002 0.841763 27.0474 0.735562 27.0474 0.735562H31.0044V13.5356H26.8299V5.98671H26.5037L23.7853 12.1941C23.2471 13.4238 22.0456 13.5356 22.0456 13.5356H18.0886V0.735562H22.263ZM45.4332 6.81821C44.8509 8.5106 43.0222 9.72264 40.9977 9.72264H36.6199V13.5356H32.6503V6.81821H45.4332Z" fill="white"/>
<path fill-rule="evenodd" clip-rule="evenodd" d="M41.1884 0.735535H32.4414C32.6496 3.58525 35.0423 6.02479 37.5193 6.02479H45.7083C46.1809 3.65634 44.554 0.735535 41.1884 0.735535Z" fill="white"/>
</svg>
