<svg width="67" height="32" viewBox="0 0 67 32" fill="none" xmlns="http://www.w3.org/2000/svg">
<path fill-rule="evenodd" clip-rule="evenodd" d="M12.7298 8.6684C13.1868 8.66566 14.5448 8.54293 15.12 10.491C15.5075 11.8033 16.1248 13.9529 16.9718 16.9397H17.3167C18.225 13.7908 18.849 11.6412 19.1886 10.491C19.7699 8.52264 21.2229 8.66844 21.8042 8.66844L26.2885 8.66845V22.666H21.7179V14.417H21.4115L18.8636 22.666H15.4249L12.877 14.4109H12.5705V22.666H8V8.66845L12.7298 8.6684ZM32.8517 8.66845V16.9236H33.2163L36.3155 10.1354C36.9171 8.78459 38.1994 8.66845 38.1994 8.66845H42.6223V22.666H37.9563V14.4109H37.5917L34.5532 21.199C33.9516 22.5438 32.6086 22.666 32.6086 22.666H28.1857V8.66845H32.8517ZM58.75 15.3202C58.0991 17.1709 56.0552 18.4964 53.7923 18.4964H48.8991V22.666H44.462V15.3202H58.75Z" fill="#0F754E"/>
<path fill-rule="evenodd" clip-rule="evenodd" d="M54.3071 8.66602H44.75C44.9775 11.8089 47.5918 14.4993 50.2982 14.4993H59.2456C59.7619 11.8873 57.9844 8.66602 54.3071 8.66602Z" fill="url(#paint0_linear_2059_132776)"/>
<defs>
<linearGradient id="paint0_linear_2059_132776" x1="1503.08" y1="375.608" x2="44.75" y2="375.608" gradientUnits="userSpaceOnUse">
<stop stop-color="#1F5CD7"/>
<stop offset="1" stop-color="#02AEFF"/>
</linearGradient>
</defs>
</svg>
