<svg width="32" height="32" viewBox="0 0 32 32" fill="none" xmlns="http://www.w3.org/2000/svg">
<path d="M28.6592 6.24121C29.4159 7.21855 30.0464 8.29052 30.5824 9.4255L16.0165 20.1764L9.90039 16.33V11.727L15.9853 15.5419L28.6592 6.24121Z" fill="white"/>
<path d="M3.68872 16.0113C3.68872 15.7906 3.68872 15.6014 3.72026 15.3807L0.0315338 15.1916C0.0315338 15.4438 0 15.7276 0 15.9798C0 20.3937 1.79707 24.3974 4.69758 27.2984L7.31433 24.6816C5.07586 22.4746 3.68867 19.4164 3.68867 16.0114L3.68872 16.0113Z" fill="white"/>
<path d="M15.9843 3.71677C16.205 3.71677 16.3942 3.71677 16.6149 3.7483L16.804 0.0595434C16.5518 0.0595434 16.2681 0.0280151 16.0158 0.0280151C11.602 0.0280151 7.59821 1.8251 4.69727 4.72563L7.31402 7.34241C9.52096 5.10392 12.6106 3.71671 15.9841 3.71671L15.9843 3.71677Z" fill="white"/>
<path d="M15.9838 28.3111C15.7631 28.3111 15.5739 28.3111 15.3532 28.2796L15.1641 31.9683C15.4163 31.9683 15.7 31.9999 15.9523 31.9999C20.3661 31.9999 24.3699 30.2028 27.2708 27.3023L24.6541 24.6854C22.4471 26.9554 19.389 28.3111 15.984 28.3111H15.9838Z" fill="white"/>
<path d="M22.9206 5.86418L26.0418 3.56264C23.2989 1.35574 19.7995 0 15.9844 0V3.68875C18.5696 3.72028 20.9657 4.5085 22.9206 5.86418H22.9206Z" fill="white"/>
<path d="M31.9999 16.0112C31.9999 15.0339 31.9053 14.088 31.7477 13.1422L28.3112 15.696V16.0113C28.3112 19.6369 26.7348 22.8842 24.2441 25.1229L26.7348 27.8658C29.9506 24.9653 31.9999 20.7093 31.9999 16.0111L31.9999 16.0112Z" fill="white"/>
<path d="M15.9853 28.3112C12.3596 28.3112 9.11241 26.7349 6.87373 24.2441L4.13086 26.7349C7.0629 29.9822 11.2873 32 15.9855 32L15.9853 28.3112Z" fill="white"/>
<path d="M7.75578 6.90225L5.26509 4.1593C2.01777 7.09136 0 11.3158 0 16.0134H3.68872C3.68872 12.4193 5.26509 9.14051 7.75578 6.90181V6.90225Z" fill="white"/>
</svg>
