<svg width="38" height="33" viewBox="0 0 38 33" fill="none" xmlns="http://www.w3.org/2000/svg">
<path fill-rule="evenodd" clip-rule="evenodd" d="M38 13.9001L36.3692 13.9504C36.2305 13.9504 35.229 13.9225 34.2567 13.2369C34.3295 13.2434 34.4018 13.2539 34.4761 13.2539C35.4762 13.2539 36.4455 12.6685 36.833 11.8297L37.5346 10.3159C36.6541 10.3273 35.85 10.2191 35.85 10.2191C35.8435 10.2186 35.209 10.1388 34.4756 9.41033C33.9499 8.88827 33.2986 8.61151 32.5941 8.61151C32.2853 8.61151 32.0098 8.66587 31.7719 8.73916C31.8094 8.6165 31.8437 8.49183 31.8642 8.36369C32.0889 6.94655 31.1519 5.8665 31.1514 5.8675L29.9236 4.38954L29.163 6.1258C29.1605 6.13079 28.9678 6.53818 28.6246 6.73613C28.5215 6.22602 28.2663 5.65209 27.7216 5.10459C26.6947 4.07139 25.4455 3.91681 24.7917 3.91681C24.4892 3.91681 24.2728 3.94873 24.22 3.95721L22.7387 4.23994C22.8243 3.91881 23.007 3.35784 23.3392 2.85323L24.1569 1.61558L22.0997 1.84296L21.4449 0.49016L20.1761 1.12594L19.0033 0L17.8335 1.12594L16.5622 0.49016L15.9083 1.84296L13.8518 1.61509L14.6708 2.85372C15.0036 3.35784 15.1852 3.91732 15.2698 4.23845L13.8564 3.96768L13.8077 3.95971C13.7374 3.94873 13.5225 3.91681 13.2179 3.91681C12.5646 3.91681 11.3148 4.07139 10.2906 5.10407C9.74548 5.65158 9.48957 6.22602 9.38549 6.73613C9.04443 6.53967 8.85315 6.13925 8.85315 6.13925L8.09108 4.39301L6.84488 5.87996C6.69206 6.07144 5.94177 7.08718 6.14536 8.36518C6.16638 8.49283 6.20075 8.6165 6.23766 8.73916C6.00124 8.66487 5.72534 8.61151 5.41711 8.61151C4.71196 8.61151 4.06118 8.88827 3.53397 9.41033C2.80267 10.1359 2.30506 10.1869 2.17803 10.2176C2.051 10.2484 1.51084 10.3343 0.478467 10.3159L1.17696 11.8297C1.56468 12.6685 2.53445 13.2539 3.53294 13.2539C3.60833 13.2539 3.68014 13.2434 3.75397 13.2369C2.7837 13.9225 1.78211 13.9504 1.66109 13.951L0 13.9001L0.503087 15.4349C0.756445 16.2258 1.60314 17.5357 3.22319 17.6768C3.04677 18.3948 2.656 19.2001 1.7975 19.5472L0.560008 20.0427L1.23491 21.1858C1.61545 21.802 2.51086 22.5231 3.78425 22.5231C4.05912 22.5221 4.32477 22.4952 4.5812 22.4422C4.64683 22.724 4.72837 23.0064 4.8253 23.2865C5.20429 24.3841 4.87762 25.1489 4.87402 25.1575L4.26272 26.402L5.62688 26.7515C5.6438 26.7566 6.05611 26.8666 6.57203 26.8666C6.8059 26.8666 7.03051 26.8432 7.23925 26.7945C7.39771 26.7586 7.55053 26.7107 7.6967 26.6528C7.87362 26.9605 8.088 27.2416 8.33775 27.4934C9.21214 28.3656 10.4512 28.8075 12.0199 28.8075H12.0251L13.1451 28.7934L10.8312 29.7293L12.5882 30.5551C13.2272 30.8574 13.9831 31.2148 14.7544 31.4886L14.5344 32.0726L15.1406 32.3407C15.1944 32.3647 16.3591 32.8709 18.2945 32.979C18.2945 32.979 18.7622 33 19.0197 33C19.2766 33 19.7382 32.9775 19.7382 32.9775C21.6619 32.8668 22.8173 32.3647 22.8711 32.3407L23.4784 32.0716L23.2567 31.4871C24.0491 31.2053 24.8342 30.8335 25.4465 30.5426L27.1701 29.7284L24.864 28.7934L25.9887 28.8075C27.5599 28.8075 28.799 28.3651 29.6719 27.4919C29.9206 27.2421 30.1346 26.962 30.3125 26.6528C30.4591 26.7107 30.6129 26.7586 30.7718 26.7955C30.9807 26.8432 31.2042 26.8666 31.4381 26.8666C31.9453 26.8666 32.3616 26.7581 32.3729 26.7544L33.7428 26.402L33.1458 25.1802C33.132 25.1489 32.8052 24.3841 33.1848 23.2855C33.2806 23.0052 33.3617 22.7231 33.428 22.4422C33.6855 22.4952 33.9542 22.5221 34.2314 22.5231C35.8537 22.5231 36.6311 21.4141 36.7812 21.1728L37.45 20.0418L36.2125 19.5482C35.3521 19.2001 34.9623 18.3953 34.7879 17.6778C36.3869 17.5422 37.2449 16.2312 37.5071 15.4354L38 13.9001Z" fill="#FEFEFE"/>
<path fill-rule="evenodd" clip-rule="evenodd" d="M21.706 3.73892C20.9597 3.33502 19.992 3.10514 19.0033 3.10514C18.0196 3.10514 17.0519 3.33502 16.3036 3.73892C16.2354 3.51701 16.1406 3.24726 16.0113 2.96503L16.2924 2.99744L16.5878 3.02785L16.715 2.76556L17.0873 1.99216L17.7776 2.33972L18.0453 2.47186L18.2581 2.26743L19.0033 1.54889L19.7499 2.26743L19.9638 2.47186L20.2315 2.33972L20.9182 1.99216L21.2956 2.76556L21.4203 3.02785L21.7163 2.99744L21.9982 2.96503C21.8689 3.24726 21.7731 3.51701 21.706 3.73892ZM19.0032 4.6999C17.6924 4.70139 16.7098 5.11876 16.496 5.60992L19.0032 6.57278L21.5111 5.60992C21.2992 5.11876 20.3161 4.70139 19.0032 4.6999ZM19.0298 30.1677H19.0272H19.0057H18.9811H18.979C18.1857 30.1726 17.0907 30.0139 16.5646 29.8648L15.9307 31.5324C16.3482 31.6769 17.7646 31.9548 19.0057 31.9548C20.2442 31.9548 21.6612 31.6769 22.0781 31.5324L21.4453 29.8648C20.9171 30.0139 19.8237 30.1726 19.0298 30.1677ZM21.689 29.3388C22.3015 29.1576 23.3551 28.7677 23.827 28.5081L23.512 29.5101L24.5796 29.8553C23.9341 30.1704 23.1517 30.4644 22.2034 30.7162L21.689 29.3388ZM14.1818 28.5081L14.4977 29.5101L13.429 29.8553C14.0741 30.1704 14.8597 30.4644 15.8043 30.7162L16.3196 29.3388C15.7084 29.1576 14.6536 28.7677 14.1818 28.5081ZM34.0879 12.051C34.2167 12.0943 34.3469 12.1133 34.4762 12.1133C35.0357 12.1133 35.5751 11.7617 35.7615 11.3598C35.7615 11.3598 34.7367 11.2995 33.634 10.212C33.2837 9.85944 32.9119 9.7542 32.5937 9.7542C32.0988 9.7542 31.7275 10.0075 31.7275 10.0075C32.446 10.3796 32.8559 10.873 33.2002 11.2874C33.4934 11.6406 33.7391 11.9365 34.0879 12.051ZM3.91723 12.051C3.7921 12.0943 3.66132 12.1133 3.53209 12.1133C2.97308 12.1133 2.43204 11.7617 2.24794 11.3603C2.24794 11.3603 3.27207 11.2995 4.37315 10.212C4.72546 9.85892 5.09624 9.7542 5.41676 9.7542C5.90858 9.7542 6.28091 10.008 6.28091 10.008C5.56425 10.3793 5.15409 10.8717 4.80921 11.2857C4.51437 11.6396 4.26726 11.9363 3.91723 12.051ZM33.6868 19.9888C32.6565 19.4952 32.0067 18.1847 31.8493 17.713C31.6782 20.3109 30.3738 22.1144 28.8486 23.8507C28.057 24.7508 27.781 25.6259 27.781 25.6259C27.781 25.6259 27.9338 24.6342 28.6179 23.8273C30.0411 22.1653 31.3934 20.0961 31.494 17.703C31.5626 16.0331 31.1217 14.6793 30.4324 13.5628C30.818 14.7252 30.7632 16.1483 29.4543 17.4772C29.4543 17.4772 32.0607 14.4409 28.4175 11.3279C27.3824 10.4868 26.2775 9.87413 25.4298 9.40411V9.40409C25.0835 9.21205 24.78 9.04382 24.5418 8.89356C27.5093 9.83499 28.9584 8.79882 28.9584 8.79882C28.0112 9.59715 26.7839 9.58368 26.0235 9.4685C26.2302 9.56623 26.4446 9.66845 26.6753 9.78911C29.1774 11.1105 31.4262 13.2851 31.8098 16.2964V16.2734C32.392 19.2305 33.6868 19.9888 33.6868 19.9888ZM34.4484 16.5437C34.472 16.5452 34.4915 16.5452 34.515 16.5452C35.9099 16.5452 36.3823 15.0927 36.3823 15.0927H36.3553C36.0993 15.0927 34.0253 15.0338 32.5596 13.2228C32.5186 13.1721 32.4778 13.1217 32.4375 13.0716V13.0716C31.5263 11.9431 30.7374 10.9658 29.2422 10.5715L29.0883 10.5455L29.0553 10.393C29.0117 10.1616 29.1759 9.9437 29.5467 9.70932C31.7022 8.33709 30.238 6.58635 30.238 6.58635C30.238 6.58635 29.6225 7.98653 28.2456 7.98653C28.2291 7.98653 28.2123 7.98604 28.1953 7.98555C28.1783 7.98504 28.1608 7.98455 28.1435 7.98455L28.113 7.98301C27.9674 7.97568 27.826 7.96856 27.6841 7.93967L27.4307 7.89129C27.4307 7.89129 27.823 6.85263 26.8752 5.89973C26.1614 5.18019 25.2932 5.05801 24.7915 5.05801C24.5393 5.05801 24.3787 5.08945 24.3787 5.08945C24.8548 5.69428 25.1989 6.69855 24.6497 7.31836C24.4655 7.52426 24.179 7.65438 23.8968 7.78249C23.4497 7.98543 23.0136 8.18338 23.0136 8.66968C23.0136 9.00625 23.3373 9.3982 23.9168 9.75022C25.661 10.8178 27.3922 12.2354 28.1127 14.1343C29.0117 16.5028 27.9984 18.075 26.5522 18.977C26.5522 18.977 27.0061 19.383 27.6636 19.4348C27.7975 19.4473 27.9281 19.4537 28.0502 19.4537C29.4391 19.4537 30.1574 18.82 30.1574 18.82C30.1574 18.82 30.0391 19.6952 29.3165 20.5075C28.6492 21.2574 27.7742 21.6996 26.4389 21.7175C26.4389 21.7175 26.3968 22.3205 26.9876 22.8419C27.3666 23.1712 28.2401 23.2778 28.2401 23.2778C28.2401 23.2778 26.604 23.6004 26.4236 25.9495C26.3255 27.2226 25.9908 27.6653 25.9908 27.6653H26.0198C29.8164 27.6653 29.7196 24.4995 29.7196 24.4995C29.7196 24.4995 29.983 25.4364 31.0426 25.6814C31.1703 25.7132 31.3069 25.7261 31.437 25.7261C31.7775 25.7261 32.074 25.6484 32.074 25.6484C32.074 25.6484 31.519 24.511 32.07 22.9199C32.5259 21.5994 32.4526 20.6216 32.4526 20.6216C32.4526 20.6216 32.9637 21.373 34.2315 21.3801H34.2448C35.3006 21.3801 35.7608 20.6016 35.7608 20.6016C33.2294 19.5798 33.4796 16.2829 33.4796 16.2829C33.4796 16.2829 33.8084 16.5213 34.4484 16.5437ZM6.15796 17.7126C6.33028 20.3109 7.63442 22.1144 9.1591 23.8502C9.95042 24.7508 10.2299 25.6254 10.2299 25.6254C10.2299 25.6254 10.075 24.6337 9.38783 23.828C7.96777 22.1653 6.61541 20.0956 6.51593 17.7031C6.44465 16.0326 6.88618 14.6788 7.57648 13.5629C7.19133 14.7257 7.24415 16.1483 8.55445 17.4777C8.55445 17.4777 5.94769 14.441 9.59295 11.328C10.6272 10.4872 11.7305 9.87496 12.5774 9.40497C12.9239 9.21266 13.2275 9.04419 13.4659 8.89361C10.4997 9.83504 9.05038 8.79835 9.05038 8.79835C9.99708 9.5972 11.2238 9.58373 11.9854 9.46855L11.9679 9.47681C11.767 9.57205 11.5563 9.6719 11.3335 9.78967C8.83038 11.1106 6.58311 13.2856 6.19797 16.2964V16.273C5.61692 19.23 4.32251 19.9888 4.32251 19.9888C5.35178 19.4952 6.00051 18.1843 6.15796 17.7126ZM11.0223 22.8417C10.6433 23.1712 9.7689 23.2778 9.7689 23.2778C9.7689 23.2778 11.4064 23.5999 11.5864 25.9495C11.6843 27.2226 12.0162 27.6648 12.0162 27.6648H11.9895C8.1919 27.6648 8.28936 24.499 8.28936 24.499C8.28936 24.499 8.02422 25.4364 6.96623 25.6814C6.83955 25.7132 6.70416 25.7261 6.57185 25.7261C6.23132 25.7261 5.93643 25.6484 5.93643 25.6484C5.93643 25.6484 6.48826 24.5115 5.93798 22.9199C5.48309 21.5994 5.55695 20.6211 5.55695 20.6211C5.55695 20.6211 5.04615 21.373 3.77739 21.3806H3.76458C2.70914 21.3806 2.24811 20.6016 2.24811 20.6016C4.77793 19.58 4.53023 16.283 4.53023 16.283C4.53023 16.283 4.20151 16.5213 3.55994 16.5437C3.53637 16.5452 3.51532 16.5452 3.49328 16.5452C2.09784 16.5452 1.625 15.0927 1.625 15.0927H1.6532C1.91066 15.0927 3.98253 15.0339 5.44771 13.2228C5.48902 13.1718 5.53 13.1211 5.57073 13.0707L5.57081 13.0706C6.48208 11.943 7.27145 10.9662 8.76372 10.5715L8.92065 10.5451L8.954 10.393C8.99759 10.1616 8.83398 9.94323 8.46373 9.70937C6.30826 8.33711 7.77188 6.58689 7.77188 6.58689C7.77188 6.58689 8.38371 7.98658 9.76479 7.98658C9.78121 7.98658 9.79722 7.98621 9.81351 7.98585H9.81353C9.83032 7.98545 9.84736 7.98509 9.8653 7.98509L9.90538 7.98294C10.047 7.97538 10.1865 7.96795 10.3248 7.93969L10.5792 7.89134C10.5792 7.89134 10.1848 6.85267 11.1346 5.89976C11.8479 5.18023 12.7167 5.05757 13.2172 5.05757C13.4711 5.05757 13.6296 5.08947 13.6296 5.08947C13.1547 5.69432 12.8105 6.69858 13.3598 7.3179C13.5436 7.52406 13.83 7.65431 14.112 7.78254C14.5584 7.98555 14.9937 8.1835 14.9937 8.6697C14.9937 9.00579 14.6706 9.39822 14.0911 9.75027C12.3469 10.8179 10.6161 12.236 9.89608 14.1343C8.99759 16.5033 10.0109 18.0756 11.4587 18.977C11.4587 18.977 11.0043 19.383 10.3453 19.4348C10.2115 19.4473 10.0822 19.4534 9.95763 19.4534C8.57039 19.4534 7.8519 18.82 7.8519 18.82C7.8519 18.82 7.9714 19.6952 8.68936 20.508C9.36066 21.2574 10.2351 21.6996 11.5705 21.7177C11.5705 21.7177 11.6126 22.3205 11.0223 22.8417ZM18.1465 11.6111H19.0423H19.9356V12.2079C19.7259 11.9576 19.3157 12.009 19.3157 12.009V12.869C19.3157 12.869 19.3316 13.2928 19.4839 13.4758H19.0423H18.5983C18.7531 13.2928 18.767 12.869 18.767 12.869V12.009C18.767 12.009 18.3583 11.9576 18.1465 12.2079V11.6111ZM16.1965 11.701C16.2586 11.7658 16.3196 11.8361 16.3791 11.9074L16.3872 11.9171V11.9171C16.3981 11.9298 16.4086 11.9422 16.4201 11.9578C16.4745 12.0281 16.5294 12.1029 16.5827 12.1797C16.5895 12.1883 16.5961 12.198 16.603 12.2079L16.6096 12.2175L16.6133 12.2228L16.6157 12.2261L16.6186 12.2301C16.6822 12.3233 16.7422 12.42 16.8017 12.5198C17.3494 13.4388 18.2253 13.9888 19.0033 13.9898C19.7818 13.9888 20.6572 13.4388 21.2064 12.5198C21.267 12.4176 21.3285 12.3183 21.3921 12.2256C21.4018 12.2126 21.4116 12.1991 21.4203 12.1852C21.4742 12.1059 21.5311 12.0291 21.5902 11.9543C21.5982 11.9441 21.6059 11.9345 21.6134 11.9253L21.6259 11.9099C21.687 11.8361 21.75 11.7653 21.8141 11.6985C21.8186 11.6943 21.8228 11.6902 21.8268 11.6861V11.6861C21.8329 11.6801 21.8386 11.6744 21.8449 11.6691C22.1238 11.3918 22.4561 11.1799 22.8917 11.0627L22.6978 10.953H22.6876L21.9167 10.5182L21.1249 10.0769L19.0094 11.1969L19.0033 11.1919L18.9992 11.1969L16.8832 10.0769L16.0919 10.5182L15.3196 10.953H15.3108L15.1155 11.0627C15.5514 11.1799 15.8827 11.3893 16.1627 11.6671C16.1675 11.6716 16.1718 11.6763 16.1761 11.681C16.1823 11.6879 16.1886 11.6948 16.1965 11.701ZM18.329 8.37762V7.81623L17.2886 7.39043C17.2886 7.39043 17.2978 7.71649 17.7659 8.0705C18.0194 8.2649 18.1766 8.31482 18.2111 8.32582C18.2153 8.32714 18.2177 8.3279 18.2182 8.32826L18.329 8.37762ZM18.8205 6.95673V10.4532L17.1353 9.59006L16.5317 6.20279L18.8205 6.95673ZM19.6791 7.81623L20.7195 7.39043C20.7195 7.39043 20.7108 7.71649 20.2411 8.0705C19.9873 8.26583 19.83 8.31531 19.7961 8.32596C19.7922 8.32719 19.7899 8.3279 19.7893 8.32826L19.6791 8.37762V7.81623ZM20.8727 9.59006L21.4743 6.20279L19.187 6.95673V10.4532L20.8727 9.59006ZM16.2153 18.6513C16.0774 18.6513 15.8066 18.6353 15.5841 18.5565C15.3384 18.4683 14.9723 18.03 15.0564 17.5474C15.1626 17.4841 15.4087 17.3495 15.6389 17.3495C15.8163 17.3495 15.9374 17.4302 16.0225 17.6042C16.0963 17.7553 16.2297 17.8555 16.323 17.9129C16.3199 18.0539 16.3061 18.2728 16.2671 18.4668C16.2584 18.5102 16.2471 18.5501 16.2353 18.5894C16.2307 18.6065 16.2254 18.6217 16.2209 18.6348L16.2183 18.6422C16.2173 18.6454 16.2162 18.6484 16.2153 18.6513ZM19.415 17.911L19.415 17.911L19.367 17.9566C19.3577 17.9654 19.3516 17.9713 19.349 17.9739L19.2982 18.0228L16.6694 17.9824C16.6678 18.2357 16.6253 18.4511 16.5843 18.6087C16.5776 18.6351 16.5704 18.6625 16.5632 18.6899L19.6905 19.2364C20.0157 19.0156 20.9111 18.3798 21.2588 18.1305C21.006 17.7719 20.9818 17.3456 21.0393 17.0454C20.8726 16.9427 20.7464 16.826 20.6459 16.7024C20.2844 17.0853 19.6275 17.7092 19.4154 17.9106L19.4151 17.9109L19.415 17.911ZM19.2968 14.4789C19.8158 14.4285 20.3964 14.2121 21.0025 13.6282H24.9559C24.7838 14.071 24.6412 14.5502 24.6412 15.0269L24.6427 18.104C23.9811 17.9958 23.9025 17.3037 23.9 17.2738L23.8883 17.1321L23.7462 17.1202C23.4579 17.0937 23.2683 16.9756 23.1071 16.8235C22.7831 16.5078 22.7826 15.9972 22.7831 15.9932C22.7831 15.9937 22.7829 15.9943 22.7826 15.995C22.7821 15.9961 22.7814 15.9975 22.7806 15.9992C22.7786 16.0033 22.7754 16.009 22.7711 16.0164C22.7123 16.1216 22.4696 16.555 22.8354 17.0234C23.0068 17.2438 23.2565 17.3795 23.579 17.4333C23.6548 17.8168 23.9483 18.3593 24.6427 18.4416V19.9484H22.6913C21.7918 19.4608 22.1734 18.6041 22.1904 18.5677L22.2667 18.4057L22.0943 18.3418C21.12 17.9908 21.3882 17.0459 21.401 17.0045L21.4405 16.8674L21.3082 16.8065C20.5035 16.4435 20.6123 15.4672 20.623 15.4263C20.3759 15.6213 20.2866 16.0192 20.4569 16.4091C20.3698 16.5065 20.2542 16.6227 20.1266 16.751L20.1265 16.7511L20.1263 16.7513L20.1056 16.7721C19.2722 16.5652 19.2461 15.8207 19.2461 15.7873L19.244 15.6726L19.1348 15.6312C18.8096 15.5141 18.586 15.3385 18.4763 15.1027C18.3527 14.8419 18.3963 14.5676 18.4301 14.436C18.5255 14.4569 18.6199 14.4709 18.7112 14.4789C18.805 14.4884 18.9004 14.4938 18.9979 14.4938H19.0035H19.0107C19.1076 14.4938 19.2019 14.4884 19.2968 14.4789ZM15.7505 15.0383L15.6972 16.9973L15.9269 17.0312L16.4868 15.1515L16.2028 14.5732L15.7505 15.0383ZM16.8545 22.1729C16.8504 22.2367 16.898 22.2904 16.9631 22.2919C17.0262 22.2975 17.0805 22.2501 17.0866 22.1878C17.0892 22.1279 17.0426 22.0722 16.977 22.0697C16.9129 22.0641 16.8601 22.1125 16.8545 22.1729ZM21.981 24.0333C21.9627 24.0284 21.9432 24.0267 21.9262 24.0267C21.8133 24.0267 21.764 24.1235 21.764 24.1235C21.8396 24.3206 21.8586 24.4621 21.8756 24.5902C21.8949 24.7329 21.9119 24.8596 22.0025 25.0287C22.1103 25.2304 22.2895 25.4008 22.3993 25.5049C22.4193 25.5242 22.4373 25.5411 22.4519 25.5557C22.4519 25.5557 22.4261 25.7356 22.3996 25.8708L22.1554 27.104C22 27.1248 21.8369 27.1358 21.6677 27.1434L21.9237 25.9571C21.961 25.7858 21.7488 25.6716 21.466 25.5196C21.1686 25.3597 20.793 25.1578 20.5466 24.8026C20.3118 25.0595 19.8702 25.1363 19.4261 25.1363C19.0209 25.1363 18.6163 25.073 18.3696 25.0255C18.3076 25.0167 18.2481 25.0092 18.1891 25.0092C18.0471 25.0092 17.9173 25.0519 17.8275 25.1981L17.7573 25.3142L16.4316 25.0101L16.1013 25.5423C16.0552 25.6278 16.0521 25.7002 16.127 25.7806L16.2162 25.8757C16.1547 26.0632 15.8788 26.3475 15.8788 26.3475L15.6818 26.1082C15.5259 25.9385 15.5516 25.6278 15.7131 25.3409L16.2393 24.4782L17.3624 24.6352L17.1886 24.2487C17.0246 23.8916 17.1495 23.4667 17.2528 23.1154L17.2528 23.1152C17.2975 22.9632 17.3381 22.825 17.3496 22.7119C17.3368 22.825 17.2296 22.851 17.105 22.851C17.0444 22.851 16.9799 22.8448 16.9201 22.8392C16.8684 22.8341 16.8203 22.8297 16.7814 22.8297C16.748 22.8297 16.7198 22.8331 16.705 22.8436L16.4003 23.0235L16.1608 22.8177C16.1316 22.7784 16.1224 22.6845 16.1926 22.6151L16.748 22.0093L16.0921 21.2638L17.0111 21.7126L17.2922 21.3821C17.3691 21.4549 17.3352 21.6473 17.3352 21.6473C17.6214 21.6544 18.4266 22.0861 18.4691 23.0964C18.4706 23.1272 18.4706 23.1616 18.4706 23.1956C18.4706 23.1956 18.4789 23.2076 18.4927 23.2286C18.5496 23.3044 18.7066 23.4987 18.905 23.5173L20.1758 23.6393H20.1805C20.2341 23.6393 20.3082 23.6158 20.3993 23.5867C20.5449 23.5405 20.7341 23.4804 20.9533 23.4804C21.1467 23.4804 21.362 23.5283 21.5924 23.6694C21.5924 23.6694 21.7083 23.5806 21.8954 23.5706C21.9097 23.5696 21.9262 23.5696 21.9389 23.5696C22.4178 23.5696 22.6613 23.9231 22.9085 24.2822C22.9553 24.3504 23.0026 24.4188 23.0514 24.4851C23.2805 24.8026 23.5888 25.2729 23.5888 25.2729C23.4749 25.4032 23.3699 25.4763 23.193 25.4763C23.1447 25.4763 23.0894 25.4729 23.0288 25.4604C22.6775 25.3978 22.4991 24.9671 22.3445 24.5941C22.2304 24.3186 22.1291 24.0744 21.981 24.0333ZM15.1529 25.1485C15.1529 25.1485 15.5929 24.9725 15.6319 24.8478L15.5729 24.7046C15.5314 24.6119 15.5375 24.5112 15.6175 24.4562L16.0919 24.1377L16.8841 24.2858C16.8841 24.2858 16.741 24.1113 16.7549 23.8779L15.998 23.7224L15.2852 24.1443C14.9791 24.367 14.957 24.7305 15.0581 24.9463L15.1529 25.1485ZM21.2303 27.1505C21.0585 27.1505 20.9011 27.1524 20.7596 27.1586L21.1319 26.0312C21.171 25.9266 21.0499 25.8012 20.9297 25.6765C20.8717 25.6164 20.814 25.5565 20.7745 25.4993C20.958 25.611 21.4324 25.8562 21.661 25.9544C21.6379 25.9908 21.2303 27.1505 21.2303 27.1505Z" fill="white"/>
<path fill-rule="evenodd" clip-rule="evenodd" d="M22.1362 19.9483H13.3661V15.0267C13.3661 14.55 13.2225 14.0708 13.0527 13.628H17.0052C17.3811 13.991 17.7488 14.2174 18.0991 14.3415C18.054 14.5166 17.9934 14.8781 18.1622 15.2391C18.3001 15.5298 18.5494 15.7537 18.9109 15.9033C18.9494 16.2623 19.1843 16.8028 19.8299 17.0417C19.5463 17.3194 19.2714 17.5812 19.1601 17.6864L16.5365 17.646C16.477 17.6171 16.3754 17.5518 16.3303 17.4601C16.3275 17.4531 16.3239 17.4478 16.3201 17.4424C16.3169 17.4378 16.3137 17.4331 16.3108 17.4271L16.739 17.4944C16.7483 17.4954 16.7575 17.4954 16.7667 17.4954C16.8493 17.4954 16.9216 17.4401 16.9349 17.3578C16.9488 17.2651 16.8857 17.1803 16.7934 17.1668L16.2662 17.0861L16.8508 15.1234L16.297 13.991L15.4103 14.9025L15.3564 16.943L14.7605 16.8512C14.6682 16.8338 14.5805 16.8986 14.5641 16.9893C14.5502 17.0791 14.6128 17.1643 14.7061 17.1803L14.9564 17.2172C14.8672 17.2666 14.8082 17.306 14.801 17.3115L14.7503 17.3458L14.7364 17.4067C14.5913 17.9791 14.919 18.5227 15.2739 18.7655L15.2605 18.8378C15.2462 18.9255 15.2672 19.0113 15.3215 19.0837C15.3733 19.157 15.4513 19.2008 15.541 19.2162C15.559 19.2199 15.5785 19.2213 15.5964 19.2213C15.7492 19.2213 15.8836 19.1179 15.9205 18.9664C16.0528 18.9825 16.1739 18.9849 16.2565 18.9849H16.3257L19.7679 19.5902L19.8268 19.5523C20.1002 19.3663 21.1464 18.6259 21.4889 18.3795C21.5827 18.4588 21.6883 18.5296 21.8162 18.589C21.7043 18.951 21.6976 19.5081 22.1362 19.9483ZM13.3661 20.2803H24.6413L24.6435 24.404C24.6435 25.771 23.8183 26.7253 22.5173 27.0365L22.7352 25.933L22.7379 25.9174C22.7492 25.8558 22.7615 25.7869 22.7705 25.7284C22.832 25.7534 22.8973 25.7744 22.9669 25.7869C23.0484 25.8018 23.1233 25.8093 23.1921 25.8093C23.5243 25.8093 23.7182 25.6392 23.8471 25.494L24.0142 25.3046L23.8776 25.0973C23.8654 25.0767 23.5624 24.6121 23.3304 24.2938C23.2849 24.2315 23.2414 24.1686 23.1973 24.1019C22.9326 23.7169 22.6013 23.2353 21.9383 23.2353L21.8782 23.2363C21.7694 23.2432 21.6756 23.2637 21.5993 23.2921C21.391 23.1979 21.1751 23.1481 20.952 23.1481C20.6776 23.1481 20.4463 23.2214 20.2925 23.2727C20.2789 23.2764 20.2657 23.2806 20.2531 23.2842C20.2248 23.2928 20.1992 23.3006 20.1776 23.304L18.9376 23.1855C18.9222 23.183 18.8709 23.1539 18.8094 23.0828V23.0767L19.0776 22.9721C19.0022 22.1028 18.1442 21.5682 17.6652 21.3873C17.6442 21.3001 17.6011 21.2133 17.5262 21.1424L17.2596 20.8967L17.0252 21.1693L16.9098 21.3091L15.1723 20.6149L16.3031 21.9948L15.8575 22.6514C15.6938 22.8205 15.8739 22.9889 15.8739 22.9889L16.3349 23.2982L16.8124 23.1246C16.824 23.1246 16.8345 23.1263 16.8451 23.128C16.8499 23.1288 16.8546 23.1295 16.8596 23.13C16.8463 23.1693 16.8312 23.2735 16.817 23.3713C16.8059 23.4478 16.7953 23.5204 16.7867 23.5543L15.9575 23.3959L15.0867 23.8741C14.6389 24.1941 14.5779 24.7228 14.7441 25.0848L14.8405 25.2901L14.9774 25.5803L15.2831 25.4578C15.2872 25.4573 15.2913 25.4551 15.2933 25.4532C15.1841 25.7932 15.2287 26.1169 15.4236 26.3288L15.6092 26.5547L15.8554 26.8568L16.1257 26.5752C16.2046 26.4984 16.4631 26.2171 16.5426 25.9773L16.6006 25.7932L16.4693 25.6517L16.4467 25.6267L16.5959 25.3884L17.678 25.6363L17.9211 25.691L18.0504 25.4833L18.1211 25.3701C18.1345 25.3456 18.1375 25.342 18.1878 25.342C18.2257 25.342 18.2642 25.3456 18.3057 25.3549C18.7145 25.4297 19.0909 25.4671 19.4248 25.4671C19.7494 25.4671 19.9433 25.4551 20.1735 25.3808C20.1735 25.3808 20.7546 26.0227 20.7746 26.0462L20.4192 27.1147L20.4028 27.1785C19.7294 27.2318 19.4012 27.3755 19.0048 27.7605C18.4293 27.2054 18.0206 27.1467 16.4734 27.1467C14.621 27.1467 13.3661 26.0905 13.3661 24.404V20.2803Z" fill="#FFDD2D"/>
<path fill-rule="evenodd" clip-rule="evenodd" d="M16.5883 3.02791L16.2929 2.99747L16.0118 2.96457C16.1411 3.24779 16.2359 3.51655 16.3042 3.73895C17.0524 3.33557 18.0201 3.10569 19.0037 3.10569C19.9925 3.10569 20.9607 3.33557 21.7064 3.73895C21.774 3.51655 21.8696 3.24779 21.9987 2.96457L21.7167 2.99747L21.4207 3.02791L21.2961 2.76611L20.9192 1.99222L20.232 2.33977L19.9643 2.47241L19.7504 2.26698L19.0037 1.54892L18.2586 2.26698L18.0458 2.47241L17.778 2.33977L17.0878 1.99222L16.7154 2.76611L16.5883 3.02791ZM21.9686 4.38876C21.3844 3.93499 20.3259 3.50866 19.0038 3.50866C17.6838 3.50866 16.6294 3.93499 16.0411 4.38876C16.0411 4.38876 15.8683 3.37253 15.2755 2.47647L16.3401 2.59414L16.8966 1.44327L17.9689 1.97983L19.0038 0.982544L20.0423 1.97983L21.1121 1.44327L21.6697 2.59414L22.7353 2.47647C22.1418 3.37253 21.9686 4.38876 21.9686 4.38876ZM16.9779 22.0695C16.9138 22.0636 16.8605 22.1125 16.8554 22.1731C16.8508 22.2364 16.899 22.2904 16.9641 22.2919C17.0271 22.2968 17.0814 22.2501 17.0876 22.1878C17.0902 22.1279 17.0435 22.0719 16.9779 22.0695ZM22.2046 30.7162L21.6897 29.3385C22.3019 29.1576 23.3558 28.7677 23.8274 28.5079L23.5132 29.5106L24.5803 29.855C23.9348 30.1701 23.1521 30.4639 22.2046 30.7162ZM19.0065 31.9546C17.7655 31.9546 16.349 31.6771 15.9315 31.5326L16.5654 29.8646C17.0911 30.0142 18.186 30.1723 18.9798 30.1674H18.9819H19.0065H19.0281H19.0306C19.824 30.1723 20.9174 30.0142 21.4461 29.8646L22.079 31.5326C21.6614 31.6771 20.245 31.9546 19.0065 31.9546ZM13.4298 29.855L14.4985 29.5104L14.1821 28.5079C14.6533 28.7675 15.7086 29.1574 16.3199 29.3385L15.8045 30.716C14.8605 30.4637 14.0744 30.1701 13.4298 29.855ZM24.6283 29.549L23.9785 29.3072L24.1579 28.6541L24.3554 27.943C24.3554 27.943 23.2047 28.5502 21.5826 29.0061C21.1225 29.1342 20.7743 29.1926 20.7743 29.1926V29.6771C20.7743 29.6771 19.9066 29.8237 19.0306 29.8237H19.0199H19.0065H18.9896H18.9799C18.1024 29.8237 17.2362 29.6771 17.2362 29.6771V29.1926C17.2362 29.1926 16.8875 29.1342 16.428 29.0061C14.8059 28.5502 13.6566 27.943 13.6566 27.943L13.851 28.6541L14.0335 29.3072L13.3822 29.549L12.6596 29.8118C12.7389 29.8492 12.8211 29.888 12.9059 29.9281C13.7064 30.3065 14.7362 30.7934 15.6859 31.046L15.4382 31.7043C15.4382 31.7043 16.7706 32.2946 18.9896 32.3V32.3009H18.9963H19.0065H19.0148H19.0199V32.3C21.242 32.2946 22.5729 31.7043 22.5729 31.7043L22.3242 31.046C23.2817 30.7912 24.3221 30.2984 25.1235 29.9186C25.201 29.8819 25.2766 29.8462 25.3494 29.8118L24.6283 29.549ZM35.7614 20.6018C35.7614 20.6018 35.3016 21.3806 34.2452 21.3806H34.2322C32.9639 21.3733 32.4532 20.6214 32.4532 20.6214C32.4532 20.6214 32.526 21.5996 32.0697 22.9194C31.52 24.5117 32.0747 25.6481 32.0747 25.6481C32.0747 25.6481 31.7779 25.7259 31.4374 25.7259C31.307 25.7259 31.1712 25.7134 31.0423 25.6814C29.9835 25.4362 29.7197 24.4988 29.7197 24.4988C29.7197 24.4988 29.8168 27.6651 26.0202 27.6651H25.9904C25.9904 27.6651 26.3252 27.2224 26.4238 25.9498C26.6042 23.6007 28.2403 23.2775 28.2403 23.2775C28.2403 23.2775 27.3668 23.1707 26.989 22.8412C26.3965 22.32 26.4386 21.7172 26.4386 21.7172C27.7747 21.6994 28.6501 21.2569 29.3167 20.5075C30.0393 19.6952 30.1574 18.8202 30.1574 18.8202C30.1574 18.8202 29.4393 19.4529 28.0504 19.4529C27.9285 19.4529 27.7982 19.4476 27.6638 19.4346C27.0068 19.383 26.5524 18.9768 26.5524 18.9768C27.9981 18.0757 29.0127 16.5025 28.1132 14.1339C27.3926 12.2361 25.6612 10.818 23.9175 9.74991C23.3375 9.39789 23.0145 9.00594 23.0145 8.66937C23.0145 8.18319 23.4501 7.98541 23.8967 7.78257C24.179 7.65441 24.4657 7.52424 24.6498 7.31806C25.199 6.69824 24.8545 5.69448 24.3791 5.08963C24.3791 5.08963 24.539 5.0577 24.792 5.0577C25.2939 5.0577 26.1623 5.17987 26.8757 5.89991C27.8232 6.85283 27.4304 7.89147 27.4304 7.89147L27.6843 7.93936C27.8289 7.9693 27.9733 7.97612 28.1219 7.98319L28.1437 7.98424C28.1607 7.98424 28.178 7.98473 28.195 7.98522C28.2123 7.98573 28.2295 7.98622 28.2463 7.98622C29.6229 7.98622 30.2382 6.58653 30.2382 6.58653C30.2382 6.58653 31.7019 8.33678 29.5469 9.70901C29.1761 9.94388 29.0127 10.1618 29.0557 10.3927L29.089 10.5452L29.2424 10.5717C30.7363 10.9656 31.5247 11.9415 32.4345 13.0675L32.435 13.0681L32.44 13.0742L32.443 13.0777L32.444 13.079L32.4467 13.0824L32.4495 13.086L32.4515 13.0883C32.4873 13.1328 32.5235 13.1775 32.5598 13.2224C34.026 15.034 36.099 15.0923 36.3549 15.0923H36.3832C36.3832 15.0923 35.9098 16.5449 34.5154 16.5449C34.4917 16.5449 34.4716 16.5449 34.4491 16.5434C33.8086 16.5209 33.4798 16.2831 33.4798 16.2831C33.4798 16.2831 33.2301 19.5796 35.7614 20.6018ZM34.5157 16.9897C36.2256 16.9897 36.7978 15.2983 36.8208 15.226L37.0122 14.6297L36.3712 14.6491H36.3689C36.143 14.6491 34.2557 14.6007 32.9186 12.9477L32.7925 12.7947L32.786 12.7865C31.9145 11.7089 31.0861 10.6847 29.6077 10.2172C29.6509 10.1798 29.712 10.1334 29.7961 10.0801C30.5827 9.57794 31.0401 8.96661 31.1549 8.25753C31.3233 7.19094 30.6227 6.33976 30.592 6.30537L30.1161 5.73342L29.8186 6.41207L29.8181 6.4129C29.7928 6.46739 29.2924 7.54199 28.2468 7.54199H28.1677C28.1492 7.54096 28.1309 7.53999 28.1127 7.53903C28.0606 7.5363 28.0093 7.53358 27.9596 7.52952C27.9963 7.04535 27.9058 6.29488 27.2052 5.59032C26.3635 4.74313 25.3317 4.61548 24.7922 4.61548C24.538 4.61548 24.3591 4.64264 24.3058 4.65075C24.2986 4.65183 24.2938 4.65258 24.291 4.65288L23.5722 4.7915L24.0163 5.35993C24.3634 5.79825 24.6794 6.60704 24.3051 7.02888C24.1922 7.15599 23.9665 7.26042 23.7436 7.36357L23.7041 7.38193C23.2204 7.59834 22.5584 7.90101 22.5584 8.66942C22.5584 9.16605 22.9552 9.68665 23.6748 10.1289C25.8035 11.4304 27.1174 12.7892 27.6846 14.2886C28.5625 16.5953 27.4169 17.9112 26.3057 18.6043L25.806 18.916L26.2424 19.306L26.2429 19.3063C26.3042 19.3586 26.8369 19.8142 27.6245 19.8797C27.7744 19.8888 27.917 19.8973 28.0509 19.8973C28.556 19.8973 28.9871 19.8201 29.3374 19.7157C29.2411 19.8797 29.122 20.0479 28.9739 20.2158C28.3379 20.9316 27.556 21.2572 26.4318 21.275L26.0137 21.2816L25.9819 21.6889C25.9779 21.7712 25.9462 22.5266 26.682 23.1695C26.7943 23.2692 26.9302 23.3508 27.0733 23.4171C26.5739 23.8539 26.067 24.6149 25.9692 25.9173C25.8861 27.0053 25.6199 27.4074 25.6164 27.4118L25.1543 28.0975L25.9892 28.1085C27.3683 28.1085 28.4237 27.7389 29.1555 27.0053C29.5884 26.5716 29.8356 26.0815 29.9817 25.6481C30.2212 25.8471 30.5309 26.0216 30.9355 26.1143C31.0889 26.1492 31.256 26.1676 31.4377 26.1676C31.8165 26.1676 32.1362 26.0916 32.186 26.0798L32.1895 26.0788L32.7222 25.9412L32.4868 25.4582L32.4858 25.4558C32.4572 25.3907 32.0324 24.4281 32.5033 23.0641C32.7094 22.4652 32.8145 21.9292 32.8658 21.5119C33.2018 21.6815 33.651 21.8221 34.2319 21.824C35.5315 21.824 36.1152 20.8937 36.1568 20.8277L36.1583 20.8252L36.4182 20.3855L35.9368 20.1924C34.3643 19.5578 34.0168 17.8534 33.947 16.9314C34.0891 16.9578 34.2515 16.9822 34.4346 16.9872L34.5157 16.9897ZM33.6352 10.2122C33.2839 9.85918 32.9126 9.75397 32.5941 9.75397C32.0992 9.75397 31.7284 10.0083 31.7284 10.0083C32.447 10.3801 32.8568 10.8733 33.2011 11.2876C33.4943 11.6406 33.74 11.9362 34.0886 12.0507C34.2172 12.0941 34.347 12.1131 34.4766 12.1131C35.0356 12.1131 35.5753 11.7615 35.7619 11.3606C35.7619 11.3606 34.7374 11.2998 33.6352 10.2122ZM32.8461 11.5666C32.5203 11.1741 32.1485 10.7314 31.511 10.4013L30.8562 10.0587L31.4644 9.64233L31.4722 9.63744C31.5515 9.58814 31.9986 9.31023 32.5941 9.31023C33.1013 9.31023 33.5727 9.51317 33.962 9.89863C34.9085 10.8386 35.7594 10.9143 35.7902 10.9153L36.4513 10.9533L36.1778 11.5426C35.9066 12.1305 35.1902 12.5549 34.4769 12.5549C34.2932 12.5549 34.1141 12.5279 33.946 12.4716C33.4761 12.3204 33.1741 11.9591 32.8578 11.5808L32.8461 11.5666ZM31.8105 16.2733V16.2958C31.4266 13.285 29.1786 11.1104 26.6758 9.78902C26.4451 9.66834 26.2306 9.56663 26.024 9.46887C26.7851 9.58357 28.0123 9.59704 28.9589 8.7987C28.9589 8.7987 27.5102 9.83488 24.5425 8.89345C24.7805 9.04374 25.0839 9.21196 25.4302 9.404C26.2779 9.87402 27.3828 10.4867 28.4179 11.3278C32.0612 14.4408 29.4548 17.477 29.4548 17.477C30.7636 16.1482 30.8179 14.7256 30.4328 13.5627C31.1226 14.6792 31.5638 16.033 31.4944 17.7029C31.3939 20.0958 30.042 22.1648 28.6183 23.8273C27.9343 24.6344 27.7819 25.6259 27.7819 25.6259C27.7819 25.6259 28.0584 24.7508 28.8498 23.8507C30.3743 22.1144 31.6791 20.3119 31.8492 17.7129C32.0074 18.1846 32.6572 19.495 33.6872 19.9888C33.6872 19.9888 32.3924 19.2302 31.8105 16.2733ZM8.28939 24.4988C8.28939 24.4988 8.19246 27.6651 11.9895 27.6651H12.0167C12.0167 27.6651 11.6844 27.2224 11.5869 25.9498C11.4064 23.6002 9.76945 23.2775 9.76945 23.2775C9.76945 23.2775 10.6433 23.1709 11.0223 22.8412C11.6131 22.32 11.5711 21.7172 11.5711 21.7172C10.2351 21.6994 9.36072 21.2569 8.68942 20.5075C7.97143 19.6954 7.85246 18.8202 7.85246 18.8202C7.85246 18.8202 8.57042 19.4529 9.95766 19.4529C10.0823 19.4529 10.2115 19.4476 10.3459 19.4346C11.0044 19.3833 11.4593 18.9768 11.4593 18.9768C10.0115 18.0757 8.99762 16.503 9.89611 14.134C10.6161 12.2362 12.347 10.818 14.0917 9.74994C14.6712 9.39789 14.9938 9.00597 14.9938 8.66937C14.9938 8.18327 14.5588 7.98546 14.1125 7.78252C13.8305 7.65429 13.5439 7.52397 13.3598 7.31757C12.8111 6.69824 13.1547 5.69399 13.6291 5.08965C13.6291 5.08965 13.4716 5.05773 13.2178 5.05773C12.7162 5.05773 11.8485 5.1799 11.1346 5.89993C10.1843 6.85283 10.5792 7.8915 10.5792 7.8915L10.3254 7.93936C10.1842 7.9686 10.0417 7.97581 9.89778 7.98309L9.86536 7.98475C9.84747 7.98475 9.83063 7.98512 9.81396 7.98551H9.81391C9.79765 7.98588 9.78156 7.98624 9.76482 7.98624C8.38427 7.98624 7.77194 6.58707 7.77194 6.58707C7.77194 6.58707 6.30879 8.33678 8.46376 9.70904C8.83454 9.94341 8.99762 10.1613 8.95404 10.3927L8.92121 10.5453L8.76428 10.5717C7.27106 10.9665 6.48164 11.9433 5.56999 13.0713C5.52951 13.1214 5.4888 13.1718 5.44774 13.2225C3.98309 15.034 1.91122 15.0924 1.65376 15.0924H1.62503C1.62503 15.0924 2.09839 16.5449 3.49384 16.5449C3.51588 16.5449 3.5369 16.5449 3.55999 16.5434C4.20154 16.521 4.53029 16.2831 4.53029 16.2831C4.53029 16.2831 4.77799 19.5796 2.24864 20.6018C2.24864 20.6018 2.7092 21.3801 3.76511 21.3801H3.77742C5.04671 21.3733 5.55698 20.6214 5.55698 20.6214C5.55698 20.6214 5.48314 21.5996 5.93801 22.9194C6.48829 24.5117 5.93649 25.6481 5.93649 25.6481C5.93649 25.6481 6.23085 25.7259 6.57241 25.7259C6.70422 25.7259 6.8396 25.7134 6.96626 25.6809C8.02477 25.4362 8.28939 24.4988 8.28939 24.4988ZM12.3923 27.4091C12.3931 27.4103 12.3935 27.4111 12.3935 27.4113L12.8556 28.0975L12.0207 28.1085C10.6417 28.1085 9.58728 27.7384 8.8534 27.0055C8.4221 26.5717 8.1739 26.0815 8.02875 25.6481C7.79081 25.8471 7.47798 26.0216 7.07335 26.1143C6.92155 26.1492 6.75383 26.1676 6.57281 26.1676C6.18609 26.1676 5.8584 26.0881 5.82139 26.0791L5.82099 26.0788L5.28711 25.9412L5.52353 25.4582L5.52515 25.4545C5.5584 25.378 5.97547 24.4191 5.50661 23.0641C5.30044 22.4647 5.19533 21.9292 5.14404 21.5119C4.80811 21.6815 4.3594 21.8221 3.78192 21.8236C2.47067 21.8236 1.8859 20.8805 1.85229 20.8265L1.85162 20.8252L1.59211 20.385L2.07212 20.1924C3.64449 19.5578 3.99322 17.8534 4.06451 16.9314C3.91989 16.9578 3.75733 16.9823 3.57681 16.9873L3.49424 16.9897C1.78339 16.9897 1.21262 15.2983 1.19005 15.2261L0.994141 14.6297L1.63827 14.6491C1.86443 14.6491 3.75475 14.6007 5.0907 12.9478L5.21685 12.7947L5.22583 12.7836C6.09642 11.7071 6.92355 10.6843 8.40261 10.2172C8.35955 10.1798 8.30058 10.1334 8.21493 10.0801C7.42821 9.57794 6.97026 8.96661 6.85642 8.25755C6.68936 7.21111 7.36151 6.37203 7.41265 6.30821L7.4149 6.30537L7.89594 5.73344L8.19236 6.41207C8.21133 6.45497 8.70981 7.54199 9.76522 7.54199H9.84266C9.8604 7.54101 9.87794 7.54008 9.89531 7.53916H9.89533H9.89536H9.89541C9.9479 7.53637 9.99902 7.53366 10.0499 7.52952C10.014 7.04486 10.1058 6.2954 10.8068 5.58983C11.6484 4.74313 12.6782 4.61548 13.2182 4.61548C13.4743 4.61548 13.652 4.64286 13.704 4.65085C13.7107 4.65188 13.7153 4.65258 13.7177 4.65288L14.4403 4.7915L13.9941 5.35996C13.6459 5.79776 13.33 6.60704 13.7049 7.0289C13.8165 7.15464 14.0385 7.25775 14.2591 7.3602L14.3059 7.38193C14.79 7.59834 15.4501 7.90103 15.4501 8.66942C15.4501 9.16608 15.0562 9.68665 14.3367 10.1289C12.2048 11.4304 10.893 12.7892 10.3258 14.2886C9.44932 16.5953 10.5904 17.9107 11.7058 18.6043L12.2048 18.916L11.7674 19.306C11.7084 19.3569 11.174 19.814 10.3842 19.8797C10.2355 19.8888 10.094 19.8973 9.95806 19.8973C9.45137 19.8973 9.02264 19.8201 8.67288 19.7157C8.77033 19.8797 8.88931 20.0474 9.03648 20.2158C9.6719 20.9311 10.456 21.2572 11.5766 21.275L11.9976 21.2816L12.0258 21.6889C12.031 21.7712 12.0628 22.5266 11.3273 23.1695C11.2145 23.2692 11.0807 23.3508 10.9355 23.4171C11.4361 23.8539 11.9428 24.6149 12.0422 25.9173C12.1242 26.9647 12.3724 27.3761 12.3923 27.4091ZM4.37391 10.2117C4.72622 9.85913 5.09703 9.75341 5.41704 9.75341C5.90937 9.75341 6.2822 10.0077 6.2822 10.0077C5.56563 10.3793 5.15552 10.8715 4.81077 11.2853C4.5157 11.6394 4.2685 11.9361 3.91801 12.0506C3.79286 12.094 3.6626 12.113 3.53285 12.113C2.97436 12.113 2.43332 11.7614 2.24872 11.3605C2.24872 11.3605 3.27336 11.2997 4.37391 10.2117ZM3.53264 12.5548C3.71622 12.5548 3.89469 12.5284 4.06393 12.472C4.53562 12.3202 4.83776 11.9581 5.15392 11.5792L5.16448 11.5665L5.17369 11.5555C5.49908 11.1663 5.86536 10.7282 6.49787 10.4012L7.15431 10.0586L6.54454 9.64226L6.53633 9.6372C6.45626 9.58733 6.0111 9.31018 5.41681 9.31018C4.90857 9.31018 4.43676 9.51263 4.04752 9.89858C3.10082 10.839 2.25207 10.9148 2.2213 10.9153L1.56075 10.9532L1.83205 11.5426C2.10438 12.1305 2.82081 12.5548 3.53264 12.5548ZM7.57703 13.5628C6.88674 14.6793 6.44571 16.0326 6.51699 17.703C6.61597 20.0961 7.9678 22.1653 9.38837 23.8273C10.0756 24.6337 10.23 25.6259 10.23 25.6259C10.23 25.6259 9.95095 24.7508 9.16015 23.8503C7.63548 22.1144 6.33134 20.3109 6.15902 17.713C6.00107 18.1847 5.35234 19.4952 4.32357 19.9888C4.32357 19.9888 5.61748 19.2305 6.1985 16.2729V16.2964C6.58364 13.2851 8.83143 11.1105 11.3346 9.78912C11.5404 9.68103 11.7355 9.58775 11.9213 9.49889L11.9859 9.46799C11.2254 9.58369 9.99814 9.59716 9.05094 8.79883C9.05094 8.79883 10.5002 9.835 13.467 8.89357C13.2292 9.04364 12.9264 9.21162 12.5808 9.40334L12.5808 9.40336C11.7334 9.87348 10.6288 10.4863 9.59351 11.3279C5.94875 14.4409 8.55603 17.4777 8.55603 17.4777C7.24418 16.1483 7.19189 14.7252 7.57703 13.5628ZM18.1475 11.6113V12.2081C18.3593 11.9578 18.768 12.0091 18.768 12.0091V12.8692C18.768 12.8692 18.7541 13.293 18.5993 13.476H19.0433H19.4848C19.3325 13.293 19.3167 12.8692 19.3167 12.8692V12.0091C19.3167 12.0091 19.7269 11.9578 19.9366 12.2081V11.6113H19.0433H18.1475ZM18.2123 8.32649C18.1785 8.31575 18.0211 8.26586 17.7668 8.07004C17.2981 7.71655 17.2889 7.39095 17.2889 7.39095L18.3299 7.81626V8.37816L18.2191 8.32881C18.2185 8.32844 18.2162 8.32773 18.2124 8.32649H18.2123ZM20.2419 8.07004C20.7121 7.71655 20.7213 7.39095 20.7213 7.39095L19.6798 7.81626V8.37816L19.7901 8.32881C19.7907 8.32844 19.7929 8.32773 19.7968 8.32649C19.8306 8.31575 19.988 8.26589 20.2419 8.07004ZM16.4966 5.60988L19.0039 6.57274L21.5118 5.60988C21.2999 5.11871 20.3167 4.70186 19.0039 4.70035C17.693 4.70186 16.7105 5.11871 16.4966 5.60988ZM19.188 10.4532L20.8737 9.59051L21.4747 6.20224L19.188 6.95718V10.4532ZM22.6882 10.9528L21.9174 10.518L21.1255 10.0767L19.01 11.1966L19.0039 11.1921L18.9998 11.1966L16.8843 10.0767L16.0925 10.518L15.3202 10.9528H15.3119L15.1166 11.063C15.5519 11.1797 15.8827 11.3891 16.1638 11.6673C16.1682 11.6715 16.1723 11.676 16.1764 11.6806C16.1827 11.6876 16.1891 11.6947 16.1971 11.7007C16.2591 11.7656 16.3207 11.8364 16.3797 11.9072C16.3822 11.9103 16.3848 11.9133 16.3874 11.9163C16.3985 11.9294 16.4094 11.9422 16.4207 11.958C16.475 12.0279 16.5299 12.1032 16.5833 12.1794C16.5899 12.1879 16.5964 12.1975 16.6032 12.2074C16.6083 12.2149 16.6136 12.2227 16.6192 12.2303C16.6828 12.3231 16.7428 12.4203 16.8022 12.52C17.35 13.439 18.2259 13.9885 19.0039 13.9895C19.7829 13.9885 20.6583 13.439 21.207 12.52C21.2675 12.4178 21.3291 12.3181 21.3927 12.2258C21.4019 12.2129 21.4122 12.1989 21.4209 12.1854C21.4747 12.1061 21.5315 12.0288 21.5906 11.9546C21.5971 11.9463 21.6036 11.9383 21.6099 11.9306C21.6156 11.9234 21.6214 11.9164 21.6266 11.9097C21.6877 11.8364 21.7507 11.7651 21.8148 11.6983C21.8198 11.6937 21.8245 11.6891 21.8293 11.6845C21.8345 11.6791 21.84 11.6739 21.8455 11.6693C22.125 11.3916 22.4568 11.1797 22.8922 11.063L22.6982 10.9528H22.6882ZM24.6416 15.0267C24.6416 14.55 24.784 14.0708 24.9563 13.628H21.0029C20.3978 14.2119 19.8167 14.4288 19.2972 14.4787C19.2034 14.4881 19.108 14.4941 19.0115 14.4941H19.0038H18.9982C18.9018 14.4941 18.8054 14.4881 18.7121 14.4787C18.6213 14.4712 18.5259 14.4572 18.4305 14.4358C18.3966 14.5674 18.3531 14.8412 18.4767 15.1025C18.5874 15.3383 18.81 15.5144 19.1357 15.631L19.2454 15.6724L19.2469 15.7871C19.2469 15.8215 19.2726 16.5655 20.1059 16.7719L20.111 16.7669C20.2449 16.6327 20.3666 16.5109 20.4572 16.4094C20.287 16.019 20.3762 15.6211 20.6239 15.4261C20.6131 15.4675 20.5044 16.4433 21.3086 16.8058L21.4414 16.8677L21.4019 17.0053C21.3891 17.0462 21.1209 17.9906 22.0947 18.3421L22.2671 18.405L22.1911 18.568C22.1738 18.6049 21.7923 19.4615 22.6917 19.9477H24.6431V18.4424C23.9498 18.3596 23.6553 17.8176 23.5795 17.4331C23.2575 17.3798 23.0075 17.2436 22.8359 17.0232C22.4703 16.5543 22.7128 16.1213 22.7716 16.0161C22.7786 16.0037 22.7831 15.9958 22.7836 15.993C22.7831 15.9975 22.7836 16.5087 23.1081 16.8238C23.2682 16.9754 23.4594 17.0935 23.7466 17.12L23.8887 17.1329L23.9015 17.2735C23.904 17.304 23.9815 17.9956 24.6431 18.1038L24.6416 15.0267ZM22.7368 25.9329L22.5188 27.0363C23.8199 26.7252 24.6451 25.7708 24.6451 24.4042L24.6431 20.2804H13.3672V24.4042C13.3672 26.0911 14.6227 27.1466 16.475 27.1466C18.0228 27.1466 18.4305 27.2055 19.0064 27.7604C19.4028 27.3756 19.7305 27.2319 20.4044 27.1786L20.4203 27.1143L20.7762 26.0471C20.7562 26.0221 20.1752 25.381 20.1752 25.381C19.9444 25.4553 19.7506 25.4677 19.4264 25.4677C19.0926 25.4677 18.7156 25.4298 18.3074 25.355C18.2664 25.346 18.2279 25.3426 18.1895 25.3426C18.1392 25.3426 18.1366 25.346 18.1228 25.37L18.0525 25.4831L17.9233 25.6912L17.6792 25.6362L16.5976 25.3885L16.4494 25.6269L16.4714 25.6523L16.6022 25.7933L16.5438 25.9769C16.4648 26.2172 16.2063 26.4983 16.1273 26.5751L15.8571 26.8579L15.6109 26.5548L15.4258 26.3289C15.2314 26.117 15.1863 25.7933 15.296 25.4528C15.2935 25.4553 15.2888 25.4567 15.2847 25.4577L14.9796 25.5804L14.8427 25.2908L14.7458 25.0852C14.5796 24.7227 14.6406 24.1942 15.0883 23.874L15.9591 23.3963L16.7884 23.555C16.7973 23.5202 16.8081 23.4457 16.8194 23.3675C16.8334 23.2712 16.8482 23.1692 16.8612 23.1301C16.8559 23.1294 16.8507 23.1286 16.8455 23.1277C16.8352 23.126 16.8248 23.124 16.8135 23.124L16.3366 23.2976L15.8755 22.9896C15.8755 22.9896 15.696 22.8199 15.8586 22.6515L16.3043 21.9947L15.1745 20.615L16.9115 21.309L17.0274 21.1694L17.2617 20.8966L17.5279 21.1425C17.6033 21.2134 17.6464 21.3 17.6674 21.3872C18.1454 21.5679 19.0038 22.103 19.0798 22.9724L18.811 23.0773V23.0827C18.8731 23.1541 18.9233 23.1829 18.9392 23.1858L20.1798 23.3046C20.2004 23.3007 20.2243 23.2934 20.2509 23.2856C20.2648 23.2814 20.2794 23.277 20.2947 23.2726C20.448 23.2223 20.6793 23.148 20.9542 23.148C21.1773 23.148 21.3926 23.1973 21.6008 23.2922C21.6774 23.2643 21.7712 23.2433 21.8803 23.2367L21.9399 23.2352C22.6032 23.2352 22.9334 23.7158 23.1979 24.1006L23.1989 24.102C23.2429 24.1692 23.2865 24.2311 23.3323 24.2939C23.5645 24.6119 23.8667 25.0764 23.8795 25.0972L24.0158 25.3047L23.8487 25.4941C23.7198 25.6393 23.5257 25.8092 23.1932 25.8092C23.1251 25.8092 23.0508 25.8019 22.9687 25.7867C22.8984 25.7738 22.8339 25.7535 22.7723 25.7286C22.7625 25.7919 22.7485 25.8677 22.7368 25.9329ZM15.6324 24.8473L15.574 24.7046C15.5319 24.6119 15.5376 24.5112 15.618 24.4565L16.0924 24.1382L16.8846 24.2858C16.8846 24.2858 16.7416 24.1113 16.7554 23.8781L15.9991 23.7224L15.2858 24.1443C14.9796 24.3673 14.9576 24.7305 15.0591 24.9466L15.1535 25.1485C15.1535 25.1485 15.594 24.9725 15.6324 24.8473ZM22.1563 27.1043L22.4 25.8706C22.427 25.7359 22.4528 25.5555 22.4528 25.5555C22.439 25.542 22.4228 25.5266 22.4045 25.5093C22.2952 25.4054 22.1128 25.2326 22.0029 25.0294C21.9123 24.86 21.8953 24.7332 21.8761 24.5899C21.8591 24.4616 21.84 24.3203 21.765 24.1233C21.765 24.1233 21.8138 24.0267 21.9266 24.0267C21.9439 24.0267 21.9634 24.0287 21.9819 24.0336C22.1298 24.0744 22.2309 24.3184 22.345 24.5936C22.4993 24.9666 22.678 25.3976 23.0298 25.4606C23.0901 25.4721 23.1451 25.4763 23.1932 25.4763C23.3708 25.4763 23.4759 25.4035 23.5892 25.2727C23.5892 25.2727 23.2815 24.8031 23.0523 24.4858C23.0037 24.4198 22.957 24.3519 22.9102 24.2839C22.6625 23.9238 22.4188 23.5694 21.9399 23.5694C21.9266 23.5694 21.9101 23.5694 21.8963 23.5713C21.7087 23.5799 21.5931 23.6691 21.5931 23.6691C21.363 23.5286 21.1475 23.4806 20.9542 23.4806C20.7348 23.4806 20.5453 23.5408 20.3996 23.5872C20.3087 23.6161 20.2348 23.6398 20.1814 23.6398H20.1762L18.9064 23.5171C18.7075 23.499 18.55 23.3046 18.4936 23.2279C18.4798 23.2074 18.4721 23.1949 18.4721 23.1949C18.4721 23.1619 18.4721 23.1272 18.47 23.0966C18.4269 22.0863 17.6223 21.6542 17.3356 21.6471C17.3356 21.6471 17.3695 21.4557 17.292 21.3818L17.0115 21.7123L16.0925 21.2638L16.7489 22.0091L16.1935 22.6156C16.1233 22.6847 16.132 22.7776 16.1612 22.817L16.4012 23.0233L16.7058 22.8444C16.7207 22.8329 16.7489 22.8299 16.7817 22.8299C16.8207 22.8299 16.8687 22.8343 16.9203 22.8392C16.9802 22.8448 17.045 22.851 17.1059 22.851C17.23 22.851 17.3372 22.8253 17.35 22.7121C17.3385 22.8253 17.2979 22.9634 17.2533 23.1154C17.1502 23.4667 17.0255 23.8913 17.1895 24.2484L17.3638 24.6354L16.2402 24.4775L15.7145 25.3411C15.552 25.6283 15.5268 25.939 15.6822 26.1084L15.8792 26.3477C15.8792 26.3477 16.1551 26.0637 16.2166 25.8762L16.1274 25.7809C16.052 25.7 16.0561 25.6283 16.1022 25.542L16.4315 25.0109L17.7577 25.3142L17.8285 25.1984C17.9182 25.0529 18.0474 25.0094 18.1895 25.0094C18.2485 25.0094 18.3085 25.016 18.3705 25.026C18.6167 25.0732 19.0213 25.136 19.4265 25.136C19.8706 25.136 20.3126 25.0588 20.5475 24.8031C20.7934 25.1575 21.1688 25.3594 21.4661 25.5193C21.7492 25.6716 21.9614 25.7858 21.9241 25.9574L21.6682 27.1427C21.8373 27.1361 22.0009 27.1251 22.1563 27.1043ZM20.7604 27.1583C20.9014 27.1529 21.0598 27.151 21.2306 27.151C21.2306 27.151 21.6389 25.9909 21.6619 25.9539C21.4331 25.8562 20.9588 25.6112 20.7752 25.499C20.8148 25.5567 20.8729 25.6171 20.9311 25.6775C21.0512 25.8019 21.1718 25.9268 21.1321 26.0317L20.7604 27.1583ZM15.7509 15.0386L15.6981 16.9971L15.9273 17.0314L16.4873 15.1513L16.2032 14.5734L15.7509 15.0386ZM16.3231 17.9127C16.2303 17.8554 16.097 17.7552 16.0226 17.6041C15.9385 17.4301 15.817 17.3493 15.6401 17.3493C15.4093 17.3493 15.1632 17.484 15.0571 17.5473C14.9729 18.0304 15.3391 18.4682 15.5847 18.5564C15.8072 18.6352 16.0775 18.6516 16.2159 18.6516C16.2178 18.6458 16.22 18.6393 16.2224 18.6323C16.2267 18.6198 16.2316 18.6055 16.236 18.5898C16.2477 18.5504 16.259 18.5101 16.2683 18.4672C16.3067 18.2727 16.3205 18.0539 16.3231 17.9127ZM19.6911 19.2361C20.0162 19.0154 20.9121 18.3795 21.2593 18.1307C21.0065 17.7717 20.9824 17.3454 21.0393 17.0462C20.8737 16.943 20.7475 16.8258 20.6465 16.7021C20.2626 17.1092 19.5455 17.7876 19.3819 17.9425C19.3645 17.9589 19.3534 17.9695 19.3495 17.9731L19.2987 18.023L16.6704 17.9821C16.6684 18.2359 16.6263 18.4508 16.5853 18.6089C16.5813 18.6247 16.577 18.6407 16.5726 18.657C16.5696 18.668 16.5667 18.6791 16.5638 18.6902L19.6911 19.2361ZM18.1003 14.341C17.751 14.2174 17.3828 13.991 17.0064 13.628H13.0539C13.2237 14.0708 13.3673 14.55 13.3673 15.0267V19.9477H22.1378C21.6994 19.5079 21.7064 18.9511 21.8168 18.59C21.6897 18.5301 21.5846 18.4588 21.4906 18.38C21.1475 18.6259 20.1024 19.3659 19.828 19.5524L19.7695 19.5898L16.3279 18.9858H16.2576C16.1751 18.9858 16.0545 18.9824 15.9222 18.967C15.8853 19.118 15.7509 19.2207 15.5976 19.2207C15.5802 19.2207 15.5607 19.2197 15.5427 19.2163C15.453 19.2014 15.375 19.1569 15.3227 19.0836C15.2689 19.0117 15.2478 18.926 15.2627 18.8383L15.275 18.7655C14.9206 18.5227 14.593 17.9796 14.7381 17.4067L14.7519 17.3458L14.8027 17.3115C14.8094 17.306 14.8689 17.2666 14.9576 17.2177L14.7078 17.1803C14.614 17.1644 14.5509 17.0791 14.5658 16.9898C14.5817 16.8991 14.6699 16.8333 14.7622 16.8507L15.3581 16.943L15.4125 14.903L16.2992 13.991L16.8525 15.1234L16.2684 17.0856L16.7946 17.1664C16.8874 17.1808 16.9505 17.2651 16.9366 17.3578C16.9228 17.4401 16.851 17.4955 16.7679 17.4955C16.7587 17.4955 16.7499 17.4955 16.7407 17.4944L16.313 17.4276C16.3156 17.4335 16.3189 17.4381 16.322 17.4427C16.3257 17.448 16.3293 17.4532 16.332 17.4601C16.3771 17.5523 16.4786 17.6171 16.5381 17.646L19.1613 17.6864L19.172 17.6763C19.2895 17.5647 19.5572 17.3104 19.8316 17.0412C19.1854 16.8033 18.951 16.2628 18.9116 15.9033C18.551 15.7537 18.3018 15.5298 18.1633 15.2391C17.9951 14.8786 18.0546 14.5171 18.1003 14.341ZM18.8213 6.95718L16.5325 6.20224L17.1356 9.59051L18.8213 10.4532V6.95718ZM19.0095 4.15983C20.6393 4.15983 22.1163 4.92724 22.1163 5.7804L22.0845 5.99033L21.4332 9.62341L22.0845 9.99242L23.7789 10.9528H23.7729C23.7729 10.9528 24.1537 11.1428 24.3276 11.26C24.9754 11.6943 25.1107 12.3295 24.7364 12.5918C24.6431 12.0742 24.223 11.5337 23.4358 11.5337C22.8681 11.5337 22.4363 11.8169 22.0845 12.2453C21.9969 12.353 21.9116 12.4682 21.831 12.5918C21.7327 12.7484 21.6351 12.8855 21.5378 13.0172H25.8964C25.5749 13.6434 25.2714 14.3062 25.2714 15.0267V24.4042C25.2714 26.6743 23.4784 27.757 21.5353 27.757C21.4221 27.757 21.3163 27.7565 21.2171 27.7562C19.9991 27.7518 19.7685 27.7511 19.0064 28.493C18.2411 27.7511 18.0102 27.7518 16.793 27.7562C16.6938 27.7565 16.5881 27.757 16.475 27.757C14.5334 27.757 12.738 26.6743 12.738 24.4042V15.0267C12.738 14.3062 12.4339 13.6434 12.1133 13.0172H16.4715C16.3735 12.8855 16.2751 12.7484 16.1771 12.5918C16.0981 12.4682 16.0125 12.353 15.9222 12.2453C15.574 11.8184 15.1412 11.5337 14.574 11.5337C13.7857 11.5337 13.3652 12.0742 13.2729 12.5918C12.899 12.3295 13.036 11.6943 13.6801 11.26C13.8565 11.1428 14.237 10.9528 14.237 10.9528H14.2309L15.9222 9.99242L16.5766 9.62341L15.9253 5.99033L15.893 5.7804C15.893 4.92724 17.37 4.15983 18.9998 4.15983H19.0039H19.008H19.0095Z" fill="#231F20"/>
</svg>
