<svg width="67" height="32" viewBox="0 0 67 32" fill="none" xmlns="http://www.w3.org/2000/svg">
<path d="M30.0452 23.7697H26.0488L28.5484 8.28125H32.5446L30.0452 23.7697Z" fill="#00579F"/>
<path d="M44.5309 8.6594C43.7427 8.34602 42.4924 8 40.9465 8C37 8 34.2209 10.109 34.2038 13.1241C34.1711 15.3487 36.1936 16.5843 37.7063 17.326C39.2524 18.084 39.778 18.5787 39.778 19.2543C39.7623 20.2919 38.5286 20.7702 37.3781 20.7702C35.7825 20.7702 34.9276 20.5236 33.6284 19.9464L33.1022 19.6989L32.543 23.1757C33.4803 23.6036 35.2071 23.9834 37 24C41.1932 24 43.9232 21.9237 43.9555 18.7105C43.9715 16.9474 42.9035 15.5964 40.601 14.4924C39.2033 13.7837 38.3473 13.3059 38.3473 12.5808C38.3636 11.9216 39.0713 11.2464 40.6491 11.2464C41.9483 11.2134 42.9028 11.5263 43.626 11.8395L43.9874 12.0039L44.5309 8.6594Z" fill="#00579F"/>
<path d="M49.8432 18.2827C50.1723 17.3929 51.4387 13.9491 51.4387 13.9491C51.4221 13.9822 51.7671 13.0429 51.9645 12.4663L52.2438 13.8009C52.2438 13.8009 53.0006 17.5083 53.1649 18.2827C52.5403 18.2827 50.6325 18.2827 49.8432 18.2827ZM54.7761 8.28125H51.685C50.7317 8.28125 50.0075 8.56113 49.5962 9.56633L43.6602 23.7695H47.8534C47.8534 23.7695 48.5438 21.8578 48.6921 21.4461C49.1522 21.4461 53.2313 21.4461 53.8231 21.4461C53.9378 21.9899 54.3 23.7695 54.3 23.7695H58.0002L54.7761 8.28125Z" fill="#00579F"/>
<path d="M22.7104 8.28125L18.7966 18.8429L18.369 16.7009C17.6454 14.2292 15.3761 11.5439 12.8438 10.2087L16.4286 23.7532H20.6546L26.9362 8.28125H22.7104Z" fill="#00579F"/>
<path d="M15.1625 8.28125H8.73277L8.66699 8.5942C13.6826 9.8795 17.0043 12.9777 18.3691 16.7015L16.9713 9.58319C16.7412 8.59398 16.034 8.31388 15.1625 8.28125Z" fill="#FAA61A"/>
</svg>
