<svg width="43" height="14" viewBox="0 0 43 14" fill="none" xmlns="http://www.w3.org/2000/svg">
<g clip-path="url(#clip0_9432_51989)">
<path d="M18.6337 13.798H15.1504L17.3291 0.245667H20.8122L18.6337 13.798Z" fill="white"/>
<path d="M31.2615 0.576978C30.5744 0.302765 29.4847 0 28.1372 0C24.6973 0 22.275 1.84533 22.2601 4.48361C22.2316 6.43012 23.9945 7.51126 25.313 8.16028C26.6606 8.82349 27.1187 9.25637 27.1187 9.84753C27.105 10.7554 26.0297 11.1739 25.0269 11.1739C23.6362 11.1739 22.891 10.9582 21.7586 10.4531L21.2999 10.2365L20.8125 13.2787C21.6295 13.6532 23.1346 13.9854 24.6973 14C28.3523 14 30.7317 12.1832 30.7599 9.37173C30.7738 7.82897 29.843 6.64684 27.8361 5.68087C26.6178 5.06078 25.8716 4.64265 25.8716 4.00819C25.8859 3.4314 26.5027 2.84063 27.878 2.84063C29.0104 2.81169 29.8424 3.08552 30.4727 3.35954L30.7877 3.50345L31.2615 0.576978Z" fill="white"/>
<path d="M35.8892 8.99691C36.1761 8.21835 37.2799 5.20507 37.2799 5.20507C37.2654 5.23401 37.5662 4.41213 37.7382 3.90759L37.9816 5.07534C37.9816 5.07534 38.6413 8.31933 38.7845 8.99691C38.2401 8.99691 36.5772 8.99691 35.8892 8.99691ZM40.1889 0.245667H37.4946C36.6637 0.245667 36.0325 0.490561 35.674 1.37011L30.5 13.7978H34.1549C34.1549 13.7978 34.7566 12.1252 34.886 11.7649C35.2869 11.7649 38.8424 11.7649 39.3582 11.7649C39.4582 12.2407 39.7739 13.7978 39.7739 13.7978H42.9991L40.1889 0.245667Z" fill="white"/>
<path d="M12.2406 0.245667L8.82929 9.48709L8.45652 7.61282C7.82584 5.45016 5.8479 3.10047 3.64062 1.93214L6.76525 13.7837H10.4487L15.9239 0.245667H12.2406Z" fill="white"/>
<path d="M5.66163 0.245667H0.0573341L0 0.519496C4.3717 1.64413 7.26699 4.35503 8.45653 7.61339L7.23823 1.38487C7.03765 0.519305 6.42126 0.274218 5.66163 0.245667Z" fill="white"/>
</g>
<defs>
<clipPath id="clip0_9432_51989">
<rect width="43" height="14" fill="white"/>
</clipPath>
</defs>
</svg>
