<svg width="22" height="29" viewBox="0 0 22 29" fill="none" xmlns="http://www.w3.org/2000/svg">
<g clip-path="url(#clip0_149_77)">
<path d="M21.75 0H0V29H21.75V0Z" fill="white"/>
<path d="M11.1714 18.1486V24.759C12.9823 24.759 14.4506 23.2789 14.4506 21.4538C14.4506 19.6286 12.9839 18.1486 11.1714 18.1486ZM1.22996 11.3219H1.22485V27.7381H11.1714V24.7591C9.36067 24.7591 7.89226 23.279 7.89226 21.4539C7.89226 19.6287 9.36067 18.1486 11.1714 18.1486V1.4801C5.74075 1.4801 1.32876 5.87046 1.22996 11.3219V11.3219Z" fill="#014D2F"/>
<path d="M11.1714 0H0V29H21.75V0H11.1714ZM21.2389 28.4849H0.511045V0.515098H11.1714V1.48004C16.6685 1.48004 21.1333 5.86868 21.2339 11.3202H21.2389V28.4849Z" fill="#014D2F"/>
</g>
<defs>
<clipPath id="clip0_149_77">
<rect width="22" height="29" fill="white"/>
</clipPath>
</defs>
</svg>
