<svg width="55" height="29" viewBox="0 0 55 29" fill="none" xmlns="http://www.w3.org/2000/svg">
<path d="M54.6765 12.9019C53.8911 10.8772 51.9518 9.77458 49.853 10.1604L45.54 10.9513C44.8239 11.0825 44.3487 11.7802 44.4763 12.5093C44.605 13.2385 45.2892 13.723 46.0042 13.5929L50.3172 12.8021C51.3435 12.6136 51.9771 13.2396 52.2279 13.8868C52.4798 14.5351 52.4358 15.4337 51.5613 16.0114L45.2309 20.1944C44.6424 20.5824 43.9263 20.6093 43.3136 20.2695C42.6998 19.9296 42.3324 19.3003 42.3324 18.588V5.03404C42.3324 4.2926 41.7439 3.69144 41.0168 3.69144C40.2897 3.69144 39.7012 4.2926 39.7012 5.03404V18.5902C39.7012 20.302 40.5812 21.8119 42.0563 22.6297C42.7416 23.0088 43.4797 23.1983 44.2145 23.1983C45.0626 23.1983 45.9074 22.9482 46.662 22.4491L52.9924 18.266C54.7854 17.0815 55.4619 14.9267 54.6765 12.9019V12.9019ZM32.4093 10.1615L28.0962 10.9524C27.3812 11.0836 26.906 11.7813 27.0336 12.5105C27.1623 13.2396 27.8465 13.7241 28.5615 13.5941L32.8746 12.8032C33.902 12.6148 34.5345 13.2407 34.7864 13.8879C35.0372 14.5363 34.9943 15.4348 34.1187 16.0126L27.7882 20.1955C27.2008 20.5836 26.4847 20.6104 25.8709 20.2707C25.2571 19.9307 24.8908 19.3014 24.8908 18.5891V8.29156C24.8908 6.57866 24.0108 5.0689 22.5357 4.25116C21.0606 3.43454 19.3391 3.50188 17.93 4.43176L2.00651 14.9525C0.214622 16.1359 -0.461873 18.2908 0.323522 20.3155C1.10782 22.339 3.04601 23.4407 5.147 23.0558L19.0498 20.5073C19.7648 20.3761 20.2411 19.6783 20.1124 18.9492C19.9837 18.2201 19.2995 17.7344 18.5845 17.8656L4.68171 20.4142C3.65431 20.6026 3.02181 19.9767 2.77101 19.3294C2.51911 18.6811 2.56201 17.7826 3.43761 17.2038L19.3578 6.68534C19.9441 6.29824 20.6613 6.27024 21.2751 6.61016C21.8889 6.9512 22.2552 7.5805 22.2552 8.29268V18.5902C22.2552 20.302 23.1352 21.8119 24.6103 22.6297C25.2956 23.0088 26.0348 23.1983 26.7696 23.1983C27.6177 23.1983 28.4614 22.9482 29.216 22.4491L35.5476 18.266C37.3384 17.0826 38.0149 14.9278 37.2306 12.903C36.4485 10.8772 34.5081 9.77682 32.4093 10.1615V10.1615Z" fill="white"/>
</svg>
