<svg width="29" height="29" viewBox="0 0 29 29" fill="none" xmlns="http://www.w3.org/2000/svg">
<g clip-path="url(#clip0_148_12)">
<circle cx="14.5" cy="14.5" r="14.5" fill="white"/>
<path d="M14.4999 2.78406C8.02103 2.78406 2.78394 8.02115 2.78394 14.5C2.78394 20.9789 8.02103 26.216 14.4999 26.216C20.9788 26.216 26.2159 20.9789 26.2159 14.5C26.2159 8.02115 20.9788 2.78406 14.4999 2.78406ZM12.8802 19.4672L12.0163 22.0047C8.7769 20.9249 6.61727 17.8474 6.61727 14.392C6.61727 10.9366 8.7769 7.91317 12.0703 6.77936L12.9342 9.31693C10.7745 10.0188 9.37079 12.0704 9.37079 14.3381C9.26281 16.7136 10.7206 18.7653 12.8802 19.4672V19.4672ZM16.8755 22.0587L16.0656 19.4672C18.2792 18.7653 19.737 16.7136 19.737 14.392C19.737 12.0704 18.2792 10.0728 16.1196 9.37092L16.9835 6.77936C20.2769 7.85918 22.4905 10.9366 22.4905 14.392C22.4905 17.9554 20.2229 21.0329 16.8755 22.0587V22.0587Z" fill="#00BEF0"/>
</g>
<defs>
<clipPath id="clip0_148_12">
<rect width="29" height="29" fill="white"/>
</clipPath>
</defs>
</svg>
