<svg width="29" height="29" viewBox="0 0 29 29" fill="none" xmlns="http://www.w3.org/2000/svg">
<g clip-path="url(#clip0_149_87)">
<path d="M23.8595 9.61507C23.6426 9.47049 22.4859 8.74755 22.1968 8.60296C21.9799 8.45837 21.763 8.31378 21.6184 8.0969C21.4738 7.88002 21.4015 7.59084 21.4015 7.37396C21.4738 6.65102 20.9678 5.63891 19.5942 4.40991V4.77138C19.1604 4.40991 18.6544 4.12073 18.076 4.04844C18.076 4.04844 18.2206 3.61467 18.2206 3.3255C18.2206 3.03632 18.076 2.74715 17.7145 2.96403C15.9795 3.68697 13.16 3.68697 10.196 6.57873C10.5574 5.63891 11.2081 4.77138 12.0033 4.12073C11.2804 4.26532 10.5574 4.5545 9.8345 4.84367C9.61762 4.91597 9.47303 5.13285 9.32844 5.27744C8.24403 6.9402 7.52109 8.81984 7.23191 10.7718C6.94274 9.39819 7.01503 7.95231 7.23191 6.50643C6.65356 7.01249 6.07521 7.66314 5.64145 8.31378C5.49686 8.53066 5.35227 8.74755 5.35227 9.03672C5.35227 11.1332 5.78603 13.1575 6.58127 15.0371C5.42457 14.0973 4.55704 12.1454 4.12327 11.061C3.8341 11.9285 3.61722 12.8683 3.54492 13.8081C3.54492 14.1696 3.68951 14.6034 3.90639 14.8925C5.0631 16.9168 6.79815 18.5795 8.82238 19.7362C7.59338 19.5916 5.13539 18.2181 3.90639 17.2059C4.12327 18.1458 4.48474 19.0133 4.91851 19.8085C5.13539 20.17 5.42457 20.4592 5.85833 20.6038C7.88256 21.6882 10.1237 22.2665 12.4371 22.1219C10.702 22.7726 8.82238 22.8449 7.01503 22.4111C7.30421 22.7003 7.66568 22.9895 8.02715 23.2786C8.82238 23.857 9.7622 24.2908 10.702 24.5076C13.0154 24.9414 15.9072 23.2786 15.1842 20.2423C15.0397 20.5315 14.8951 20.7483 14.6782 20.9652C14.4613 21.1821 14.1721 21.3267 13.883 21.399C15.0397 20.2423 14.8951 18.4349 12.9431 18.2181C12.0756 18.1458 11.2804 18.1458 10.4128 18.2181C10.196 18.2181 9.90679 18.2181 9.68991 18.1458C9.47303 18.0735 9.25615 17.9289 9.11156 17.7843L10.2683 17.6397C10.9189 17.3505 11.5696 17.2059 12.2925 17.2059C12.2202 17.0614 12.0033 16.7722 11.0635 17.0614C10.9189 17.1336 10.702 17.1336 10.5574 17.0614C10.4128 16.9891 10.2683 16.9168 10.1237 16.7722C11.0635 16.9891 11.3527 15.9769 12.2202 16.5553C12.3648 16.6999 12.654 16.6999 12.5817 16.4107C12.5094 16.2661 12.3648 16.1215 12.2925 16.0492C12.1479 15.9769 12.0033 15.9046 11.7864 15.9769C10.9189 15.8324 10.0514 15.9046 9.25614 16.1938C8.89468 16.3384 8.6055 16.6276 8.31632 16.8445C8.31632 16.4107 8.38862 15.1817 8.96697 14.6034C9.8345 14.0973 10.7743 13.7358 11.7864 13.6635C11.7141 13.5912 11.7141 13.4467 11.7141 13.3744C11.7141 13.3021 11.7141 13.1575 11.7864 13.0852C12.0756 12.7237 12.9431 12.1454 18.0037 12.1454L17.57 12.5791C18.6544 12.6514 19.7388 12.8683 20.7509 13.2298C20.8955 13.3021 21.1846 13.3744 21.4738 12.796C21.6184 12.6514 21.4738 12.6514 21.1846 12.4345C21.2569 12.3622 21.2569 12.2177 21.2569 12.1454C21.2569 12.0008 21.1124 12.0008 21.1124 12.0731C20.9678 12.2177 20.6063 12.2177 20.534 12.0008C20.4617 11.7839 20.3171 11.6393 20.1725 11.567C20.0279 11.4224 19.8111 11.3501 19.5942 11.3501C19.7388 11.2055 19.9557 11.061 20.1725 11.061C20.3894 10.9887 20.6063 10.9887 20.8232 11.061C20.8232 11.061 20.8955 11.2778 21.0401 11.2055C21.1846 11.1332 21.3292 10.9887 21.4738 11.1332C21.5461 11.2055 21.5461 11.3501 21.5461 11.4224C21.4738 11.567 21.5461 11.567 21.6907 11.4947L21.9799 11.2055C22.1968 11.2778 22.4136 11.2778 22.6305 11.2055C22.8474 11.1332 22.992 10.9887 23.1366 10.8441C23.2812 10.6995 23.3535 10.4826 23.4258 10.2657C23.7872 10.0488 24.0041 9.68737 23.8595 9.61507ZM14.1721 9.39819L14.8228 9.18131C15.0397 9.10902 15.2565 9.10902 15.0397 9.3259C14.5336 10.0488 14.5336 11.4947 15.2565 11.7839C14.8228 11.7839 14.3167 11.8562 13.883 11.9285C13.8107 11.2778 13.883 10.5549 14.0275 9.90425C13.7384 10.0488 13.3769 10.1934 13.2323 10.2657C13.16 8.89213 14.389 6.57873 15.9072 6.00038C14.9674 6.8679 14.3167 8.0969 14.1721 9.39819V9.39819ZM17.4254 3.75926C17.2808 4.04844 16.847 4.4822 16.9916 4.84367C16.7747 4.91597 16.4855 4.98826 16.2687 5.13285C16.1241 5.27744 16.0518 5.13285 16.1241 4.98826C16.341 4.4822 16.7747 4.04844 17.2808 3.68697C17.4977 3.54238 17.57 3.68697 17.4254 3.75926ZM20.6786 7.73543C20.6063 7.95231 20.6063 8.02461 20.3894 7.95231C20.3171 7.88002 20.1725 7.88002 20.0279 7.80772C19.8834 7.73543 19.8834 7.73543 19.8834 7.88002C20.0279 8.0969 20.1002 8.38608 20.0279 8.67525C19.7388 8.16919 19.4496 7.66314 19.0158 7.30167C19.3773 7.22937 19.8111 7.30167 20.1725 7.44625C20.3171 7.51855 20.534 7.51855 20.6063 6.79561C20.8232 7.08478 20.8232 7.44625 20.6786 7.73543V7.73543Z" fill="white"/>
<path d="M19.3775 18.3627C19.8112 18.5072 20.245 18.5072 20.6788 18.3627C18.9437 17.9289 17.9316 15.3986 13.8831 15.0371C13.7385 15.0371 13.3048 15.1094 13.5217 14.6757C14.1 14.0973 14.6784 13.5913 15.329 13.1575C15.0398 13.1575 13.6663 13.3021 13.3048 13.3021C12.9433 13.3021 12.7987 13.2298 12.7987 12.9406C12.7987 12.9406 12.0035 13.6636 12.365 14.0973C12.4373 14.1696 12.5818 14.1696 12.7987 14.0973C13.0156 14.025 13.3048 13.9527 13.5217 13.8804H13.594V13.9527L13.1602 14.6034C13.0879 14.8203 13.0156 14.9648 13.4494 15.0371C14.6061 15.3986 15.7628 15.9047 16.8472 16.5553C18.0039 17.2783 18.9437 18.2181 19.5944 19.4471C20.245 20.6038 20.5342 21.9774 20.5342 23.2787C21.0402 22.9172 21.6186 22.4834 22.0524 22.0497C22.1246 21.9774 22.1246 21.8328 22.1246 21.8328C21.5463 20.4592 20.6065 19.2302 19.3775 18.3627V18.3627Z" fill="white"/>
<path d="M17.6424 19.5917C18.8714 20.893 18.6545 23.2787 18.2931 24.3631C18.2931 24.4354 18.2931 24.4354 18.2208 24.5077C18.2208 24.58 18.1485 24.58 18.0762 24.58C17.4255 24.7969 16.558 25.0137 16.1965 25.086C18.0762 23.4233 18.3654 21.0376 17.6424 19.5917V19.5917ZM24.438 18.0735C22.9199 16.7722 21.0402 15.8324 19.0883 15.3986C21.1125 16.4108 22.703 18.0012 23.7151 20.0255C24.0766 19.4471 24.3658 18.8687 24.5826 18.2904V18.1458C24.5103 18.1458 24.5103 18.0735 24.438 18.0735V18.0735ZM25.2333 14.5311C25.2333 14.4588 25.2333 14.3865 25.161 14.3865C24.5826 14.1696 23.932 13.9528 23.3536 13.7359C23.4982 13.6636 23.6428 13.5913 23.7151 13.4467C23.7874 13.3021 23.8597 13.2298 23.932 13.0129C23.2813 13.3021 22.5584 13.4467 21.9078 13.4467C23.1368 13.9528 24.2935 14.6034 25.3056 15.3986C25.2333 15.1095 25.2333 14.8203 25.2333 14.5311V14.5311Z" fill="white"/>
<path d="M14.4615 0C11.5698 0 8.8226 0.867528 6.4369 2.45799C4.0512 4.04846 2.17155 6.28957 1.08714 8.96445C0.00273496 11.567 -0.286441 14.4588 0.291911 17.2783C0.870263 20.0977 2.24385 22.628 4.26808 24.6522C6.29231 26.6765 8.89489 28.0501 11.6421 28.6284C14.3892 29.2068 17.3533 28.9176 20.0282 27.8332C22.703 26.7488 24.9442 24.8691 26.5346 22.4834C28.0528 20.0977 28.9203 17.3506 28.9203 14.4588C28.9203 10.6272 27.4021 6.94022 24.655 4.26534C21.9801 1.51817 18.2931 0 14.4615 0ZM14.4615 27.3994C11.9312 27.3994 9.40095 26.6042 7.30443 25.2306C5.2079 23.7847 3.54514 21.7605 2.53302 19.4471C1.52091 17.1337 1.30403 14.4588 1.81008 12.0008C2.31614 9.39822 3.54514 7.1571 5.35249 5.34975C7.15984 3.5424 9.47324 2.31341 12.0035 1.80735C14.5338 1.30129 17.1364 1.59047 19.4498 2.53029C21.7632 3.47011 23.8597 5.20517 25.2333 7.30169C26.6792 9.39822 27.4022 11.9285 27.4022 14.5311C27.4022 17.9289 26.0286 21.2544 23.5706 23.6401C21.1849 26.0981 17.8593 27.3994 14.4615 27.3994V27.3994Z" fill="white"/>
</g>
<defs>
<clipPath id="clip0_149_87">
<rect width="29" height="29" fill="white"/>
</clipPath>
</defs>
</svg>
