<svg width="28" height="29" viewBox="0 0 28 29" fill="none" xmlns="http://www.w3.org/2000/svg">
<g clip-path="url(#clip0_149_97)">
<path d="M0 0.9425C0 0.7975 0 0.725 0.07 0.58C0.14 0.435 0.21 0.3625 0.28 0.29C0.35 0.2175 0.49 0.145 0.56 0.0725C0.63 0 0.77 0 0.84 0H27.09C27.3 0 27.58 0.0725 27.72 0.29C27.86 0.5075 28 0.6525 28 0.9425V28.0575C28 28.2025 28 28.275 27.93 28.42C27.86 28.565 27.79 28.6375 27.72 28.71C27.65 28.7825 27.51 28.855 27.44 28.9275C27.37 29 27.23 29 27.09 29H0.84C0.7 29 0.63 29 0.49 28.9275C0.35 28.855 0.28 28.7825 0.21 28.71C0.14 28.6375 0.07 28.4925 0 28.42V28.0575V0.9425H0Z" fill="#003870"/>
<path d="M13.8599 4.20497C13.9299 4.20497 13.9299 4.20497 13.9299 4.13247C13.9299 4.13247 13.9999 4.05997 13.9999 3.98747V3.62497C13.9999 3.55247 13.9999 3.55247 13.9299 3.47997C13.9299 3.47997 13.8599 3.40747 13.7899 3.40747H2.37992C2.30992 3.40747 2.30992 3.40747 2.23992 3.47997C2.23992 3.47997 2.16992 3.55247 2.16992 3.62497V4.05997C2.16992 4.13247 2.16992 4.13247 2.23992 4.20497C2.23992 4.20497 2.30992 4.27747 2.37992 4.27747L13.8599 4.20497V4.20497ZM8.95992 15.2975C8.88992 15.2975 8.81992 15.37 8.88992 15.4425L13.5799 25.52V25.5925H13.7199V25.52L17.9899 16.24C17.9899 16.1675 18.0599 16.1675 18.0599 16.1675C18.1299 16.1675 18.1299 16.095 18.1999 16.095H25.0599C25.1299 16.095 25.1299 16.095 25.1999 16.0225C25.1999 16.0225 25.2699 15.95 25.2699 15.8775V15.4425C25.2699 15.37 25.2699 15.37 25.1999 15.2975C25.1999 15.2975 25.1299 15.225 25.0599 15.225H8.95992V15.2975ZM25.1299 3.40747H19.1799C19.1099 3.40747 19.1099 3.40747 19.0399 3.47997C19.0399 3.47997 18.9699 3.55247 18.9699 3.62497V4.05997C18.9699 4.13247 18.9699 4.13247 19.0399 4.20497C19.0399 4.20497 19.1099 4.27747 19.1799 4.27747H20.0199C20.2299 4.27747 21.4899 4.27747 20.9999 5.79997L17.0799 14.5C17.0799 14.5725 17.0799 14.645 17.1499 14.645H18.4799C18.5499 14.645 18.5499 14.645 18.6199 14.5725C18.6899 14.5725 18.6899 14.5 18.6899 14.5L23.0999 5.21997C23.2399 4.85747 23.4499 4.56747 23.7999 4.34997C24.1499 4.20497 24.4999 4.13247 24.9199 4.13247H25.1999C25.2699 4.13247 25.2699 4.13247 25.3399 4.05997C25.3399 4.05997 25.4099 3.98747 25.4099 3.91497V3.55247C25.2699 3.47997 25.1999 3.40747 25.1299 3.40747V3.40747Z" fill="white"/>
<path d="M11.9701 5.65499C12.0401 5.65499 12.1101 5.58249 12.0401 5.50999L11.9001 5.07499C11.9001 5.00249 11.8301 5.00249 11.8301 5.00249C11.7601 5.00249 11.7601 4.92999 11.6901 4.92999H4.20007C4.13007 4.92999 4.06007 5.00249 4.13007 5.07499L4.34007 5.50999C4.34007 5.58249 4.41007 5.58249 4.41007 5.58249C4.41007 5.58249 4.48007 5.65499 4.55007 5.65499H11.9701ZM12.6001 6.52499C12.6001 6.45249 12.5301 6.45249 12.4601 6.37999C12.3901 6.30749 12.3901 6.30749 12.3201 6.30749H4.90007C4.83007 6.37999 4.76007 6.37999 4.83007 6.52499L5.04007 6.95999C5.04007 7.03249 5.11007 7.03249 5.11007 7.03249C5.18007 7.03249 5.18007 7.10499 5.25007 7.10499H12.6701C12.7401 7.10499 12.8101 7.03249 12.7401 6.95999L12.6001 6.52499ZM13.3001 7.97499C13.3001 7.90249 13.2301 7.90249 13.2301 7.90249C13.1601 7.90249 13.1601 7.82999 13.0901 7.82999H5.60007C5.53007 7.82999 5.46007 7.90249 5.53007 7.97499L5.74007 8.40999C5.74007 8.48249 5.81007 8.48249 5.81007 8.48249C5.81007 8.48249 5.88007 8.55499 5.95007 8.55499H13.3001C13.3701 8.55499 13.4401 8.48249 13.3701 8.40999L13.3001 7.97499ZM14.0001 9.42499C14.0001 9.35249 13.9301 9.35249 13.9301 9.35249C13.8601 9.35249 13.8601 9.27999 13.7901 9.27999H6.30007C6.23007 9.27999 6.16007 9.35249 6.23007 9.42499L6.44007 9.85999C6.44007 9.93249 6.51007 9.93249 6.51007 9.93249C6.51007 9.93249 6.58007 10.005 6.65007 10.005H14.0001C14.0701 10.005 14.1401 9.93249 14.0701 9.85999L14.0001 9.42499ZM14.7001 10.9475C14.7001 10.875 14.6301 10.875 14.6301 10.875C14.5601 10.875 14.5601 10.8025 14.4901 10.8025H7.00007C6.93007 10.8025 6.86007 10.875 6.93007 10.9475L7.14007 11.3825C7.14007 11.455 7.21007 11.455 7.21007 11.455C7.28007 11.455 7.28007 11.5275 7.35007 11.5275H14.7001C14.7701 11.5275 14.8401 11.455 14.7701 11.3825L14.7001 10.9475ZM15.4001 12.3975C15.4001 12.325 15.3301 12.325 15.3301 12.325C15.2601 12.325 15.2601 12.2525 15.1901 12.2525H7.70007C7.63007 12.2525 7.56007 12.325 7.63007 12.3975L7.84007 12.8325C7.84007 12.905 7.91007 12.905 7.91007 12.905C7.98007 12.905 7.98007 12.9775 8.05007 12.9775H15.4001C15.4701 12.9775 15.5401 12.905 15.4701 12.8325L15.4001 12.3975ZM16.1001 13.8475C16.1001 13.775 16.0301 13.775 16.0301 13.775C15.9601 13.775 15.9601 13.7025 15.8901 13.7025H8.33007C8.26007 13.7025 8.19007 13.775 8.26007 13.8475L8.47007 14.2825C8.47007 14.355 8.54007 14.355 8.54007 14.355C8.61007 14.355 8.61007 14.4275 8.68007 14.4275H16.1001C16.1701 14.4275 16.2401 14.355 16.1701 14.2825L16.1001 13.8475Z" fill="white"/>
<path d="M23.52 14.5725C23.87 14.5725 24.22 14.4275 24.5 14.2825C24.78 14.065 24.99 13.775 25.13 13.485C25.27 13.1225 25.27 12.76 25.2 12.3975C25.13 12.035 24.99 11.6725 24.71 11.455C24.43 11.165 24.15 11.02 23.8 10.9475C23.45 10.875 23.1 10.9475 22.75 11.02C22.4 11.165 22.12 11.3825 21.98 11.6725C21.77 11.9625 21.7 12.325 21.7 12.6875C21.7 13.195 21.91 13.63 22.26 13.9925C22.61 14.355 23.03 14.5725 23.52 14.5725Z" fill="#ED1B34"/>
</g>
<defs>
<clipPath id="clip0_149_97">
<rect width="28" height="29" fill="white"/>
</clipPath>
</defs>
</svg>
