<svg width="73" height="25" viewBox="0 0 73 25" fill="none" xmlns="http://www.w3.org/2000/svg">
<g clip-path="url(#clip0_135_32)">
<path d="M39.3677 8.41781V5.01025H55.7083L54.4842 8.41781H49.4593V25.2171H45.4007V8.41781H39.3677Z" fill="white"/>
<path fill-rule="evenodd" clip-rule="evenodd" d="M56.8828 5.01025V25.2171H65.9129C67.5485 25.024 70.847 23.5815 70.956 19.3561C71.0923 14.0744 66.867 13.0862 66.1514 12.9839C65.5789 12.9022 62.4371 12.9499 60.9378 12.9839V8.41781H68.7411L69.8656 5.01025H56.8828ZM60.9376 16.187V21.6731H64.6859C65.4015 21.5709 66.8326 20.9098 66.8326 19.0834C66.8326 17.2569 65.4015 16.3914 64.6859 16.187H60.9376Z" fill="white"/>
<path fill-rule="evenodd" clip-rule="evenodd" d="M25.3628 25.2171H34.461C36.0966 24.9878 39.3679 23.6855 39.3679 20.3102C39.7768 16.4665 37.3347 14.8695 36.0625 14.5514C36.8591 14.4494 38.5128 13.3865 38.7545 9.95122C38.6523 6.95256 36.3011 5.21471 33.8135 5.01025H25.3628V25.2171ZM29.4178 8.41781V13.0521H32.6891C33.3138 12.8817 34.5564 12.1457 34.5292 10.5646C34.5019 8.98347 33.1093 8.47461 32.4165 8.41781H29.4178ZM29.4178 16.596V21.7755H33.2684C33.8817 21.6619 35.0948 21.0053 35.0403 19.2879C34.9858 17.5705 33.8363 16.7777 33.2684 16.596H29.4178Z" fill="white"/>
<path d="M4.14754 3.20311L5.37425 0H22.0372L20.7764 3.20311H4.14754Z" fill="#00A8FF"/>
<path d="M2.40967 8.14407L3.56824 4.94096H20.2653L19.0386 8.14407H2.40967Z" fill="#00A8FF"/>
<path d="M0.56958 13.1873L1.76223 9.88192H18.4252L17.2666 13.1873H0.56958Z" fill="#00A8FF"/>
</g>
<defs>
<clipPath id="clip0_135_32">
<rect width="72" height="25" fill="white" transform="translate(0.56958)"/>
</clipPath>
</defs>
</svg>
