<svg width="29" height="29" viewBox="0 0 29 29" fill="none" xmlns="http://www.w3.org/2000/svg">
<g clip-path="url(#clip0_148_17)">
<path fill-rule="evenodd" clip-rule="evenodd" d="M0 14.5079C0 6.50345 6.50581 0 14.5098 0C22.4958 0 29 6.50345 29 14.5079C29 22.4958 22.4958 29 14.5098 29C6.50581 29 0 22.4958 0 14.5079ZM0.724921 14.5079C0.724921 22.0961 6.90858 28.2747 14.5098 28.2747C22.0957 28.2747 28.2751 22.0946 28.2751 14.5079C28.2751 6.90701 22.0981 0.725315 14.5098 0.725315C6.90622 0.725315 0.724921 6.90386 0.724921 14.5079ZM18.6241 5.39187C16.3294 4.36841 12.0534 4.26693 8.55077 5.8269C8.83082 5.6263 9.12307 5.44537 9.42634 5.28331C9.61121 5.18419 9.8004 5.09215 9.99274 5.00798C11.0957 4.49428 12.8743 3.99631 15.0912 3.99631C15.1958 3.99631 15.3004 3.9971 15.4055 3.99946C17.301 4.03328 19.5481 4.6878 20.9216 6.04639C21.1553 6.33116 21.2906 6.61515 21.3405 6.83464C22.4305 7.38846 23.0669 7.90766 23.4181 8.51183C23.5704 8.82964 23.6203 9.16398 23.5519 9.55024C23.9094 9.75084 24.2194 10.0262 24.4605 10.3582C24.6088 10.6091 24.7264 10.8915 24.761 11.1472C24.8102 11.48 24.8432 11.8654 24.4912 12.3193C24.8601 12.5042 25.1606 13.0218 25.1968 13.2421C25.3813 14.061 24.8432 14.8666 24.1568 15.4889C23.6431 15.9373 22.7349 16.4407 21.7701 16.8427C21.2217 17.0709 20.6549 17.2667 20.1322 17.4005C18.1179 17.9102 16.2602 18.2107 14.6341 18.4743C13.9623 18.5836 13.3298 18.6859 12.7422 18.7937C13.2779 18.9219 13.9257 19.0753 14.7793 19.1784C15.3669 19.2499 16.0521 19.2971 16.8659 19.2971C21.1384 19.2971 24.9109 17.2825 24.9109 17.2825C24.9109 17.2825 24.8279 17.5358 24.7425 17.771C22.0277 19.4136 17.7206 20.1003 15.8751 20.0162C14.0142 19.9312 12.4393 19.6472 10.8966 19.1768C10.4254 19.3097 9.96128 19.4663 9.50619 19.6472C11.8544 20.7202 13.6299 20.9562 15.6253 21.1057C17.6687 21.2583 21.0569 20.7698 23.9039 19.733C23.8402 19.7975 23.7914 19.8769 23.7438 19.9548C23.6915 20.0398 23.64 20.1239 23.5704 20.1853C22.1115 20.9562 19.0289 21.728 17.4693 21.7948C15.9258 21.8625 14.0488 21.7948 12.4055 21.492C10.9973 21.2088 9.83895 20.7698 8.63298 20.2357C8.41703 20.4009 8.31634 20.6046 8.26402 20.8398C12.9774 23.3045 17.3666 23.3532 22.3813 21.7948L21.927 22.2314C16.4116 24.479 12.1034 23.6058 8.76592 21.9954C8.65068 21.9451 8.51615 21.894 8.41703 21.8279C8.73603 22.3652 11.2817 24.2265 14.1318 24.4617C15.1624 24.5498 16.3125 24.4986 17.3784 24.3484C18.3429 24.2123 19.2389 23.9944 19.9155 23.7246L19.0777 24.1596C18.3897 24.4955 16.5631 25.2688 14.0134 25.0997C10.6115 24.8637 8.69984 23.354 7.84433 22.5674C7.44234 22.196 7.25944 21.7783 7.14105 21.2583C6.36932 20.8556 5.88355 20.4347 5.48313 19.7983C5.24791 19.4466 5.29629 19.0281 5.34625 18.6733L5.45087 18.3752C5.07956 18.1038 4.69449 17.819 4.54384 17.5358C4.20635 16.9316 4.41089 16.4108 4.64453 16.0081C4.57019 15.9223 4.49821 15.8366 4.43292 15.7508C4.32042 15.6021 4.22759 15.4535 4.17685 15.3048C4.07498 15.0365 4.05924 14.7651 4.08953 14.4646C4.15797 13.9627 4.42623 13.4946 4.77827 13.0903C5.51459 12.2344 6.69067 11.5641 8.68293 10.9104C10.202 10.403 11.0178 10.2276 11.9925 10.0183C12.2776 9.95695 12.5762 9.89323 12.9097 9.81692C14.6361 9.41729 16.6984 9.28434 18.4235 8.68018C13.6122 7.84237 8.61764 8.61252 4.54384 11.4107L4.81131 10.6233C8.46541 8.24278 12.5062 6.83464 19.3451 8.02566C19.7141 7.80697 19.9316 7.58827 20.0339 7.15324C18.3228 6.53334 16.4631 6.31543 14.0665 6.34768C11.9197 6.41612 8.04572 7.21775 5.97047 8.44653L6.60453 7.65671C8.04572 6.79845 11.8174 5.67665 14.653 5.6263C16.6461 5.57674 17.6687 5.69317 20.05 6.33116C19.8301 5.93075 19.3451 5.72778 18.6241 5.39187ZM22.2783 8.88156C22.213 8.41192 21.6764 7.95879 21.206 7.65671C21.1624 7.80933 21.0424 7.9824 20.9173 8.1358C20.8497 8.21918 20.7804 8.29628 20.721 8.36157C21.2406 8.49688 21.7771 8.69512 22.2783 8.88156ZM19.9839 9.03103C19.6464 9.30008 19.2629 9.53372 18.691 9.75399C19.6319 9.9184 20.336 10.1874 21.1384 10.4069C21.1466 10.4109 21.1561 10.4124 21.1651 10.4116C21.3397 10.4116 21.914 9.88064 22.0131 9.73511C21.7024 9.59901 21.3535 9.46213 20.9795 9.3339C20.6628 9.22534 20.3285 9.12229 19.9839 9.03103ZM23.5704 11.4965C23.7871 11.0772 23.6534 10.8089 23.2022 10.4227C23.0169 10.6429 22.8156 10.8254 22.598 10.993C22.7562 11.0685 22.908 11.1338 23.0547 11.203C23.2337 11.2872 23.4052 11.3769 23.5704 11.4965ZM16.0281 10.6091C13.8152 10.8774 11.3663 11.3446 9.27176 11.9661L9.16005 11.9999C8.12046 12.3162 4.18944 13.5088 5.38322 15.1529L5.39738 15.1372C5.51145 15.0082 6.34021 14.0665 8.95197 13.3074C10.7893 12.7677 12.6729 12.4248 14.5861 12.0763C16.3046 11.7632 18.0471 11.4453 19.8002 10.9773C18.7567 10.6996 18.0455 10.5336 17.1558 10.5328C16.8156 10.5328 16.4494 10.5572 16.0281 10.6091ZM18.4247 12.6379C17.2349 12.9392 14.3501 13.3585 11.2502 14.0288C10.2771 14.2467 7.61069 14.8666 6.30324 15.9742C6.51289 16.1473 6.67966 16.2433 6.85824 16.3369C6.99315 16.4077 7.13515 16.4777 7.30782 16.5784C7.84433 16.2252 8.58302 15.8901 9.67453 15.6037C11.3962 15.1466 12.7343 14.9264 14.2502 14.677L14.703 14.6023C16.3963 14.3458 19.5973 13.6756 21.3567 13.0384C21.7614 12.9015 22.1406 12.7316 22.4635 12.5341C22.6102 12.4444 22.7451 12.3492 22.8655 12.2493C22.7479 12.1172 21.608 11.5641 21.5742 11.6153C20.8725 11.9496 19.8663 12.2839 18.4247 12.6379ZM19.615 14.9185C16.0281 15.8901 13.4278 16.0222 10.4769 16.7475C10.1371 16.8333 9.79214 16.9324 9.45505 17.0457C9.20961 17.1275 8.9681 17.2172 8.73603 17.3155C9.2871 17.6011 9.89126 17.8536 10.4939 18.0888C11.7006 17.7364 12.2733 17.5853 14.0134 17.3006L14.9799 17.1267C15.9015 16.9584 17.1885 16.72 18.2045 16.5139C20.8725 15.9412 24.7779 14.6998 23.7387 13.0903C23.6868 13.1343 23.6349 13.1745 23.583 13.2146C23.5173 13.2665 23.452 13.3184 23.3867 13.3758C22.598 13.9761 21.3405 14.4646 19.615 14.9185ZM6.00194 17.6011C6.11797 17.4846 6.2702 17.3832 6.3878 17.2825C6.11797 17.1432 5.93311 17.0252 5.7211 16.8899L5.59916 16.812C5.46464 17.1173 5.73526 17.4485 6.00194 17.6011ZM9.11875 18.5742C8.63298 18.3563 8.11416 18.1399 7.61069 17.9047C7.37626 18.0558 7.15953 18.2052 6.99118 18.3563C7.39318 18.5915 7.77983 18.8078 8.1826 19.0289C8.47879 18.8464 8.79228 18.6938 9.11875 18.5742ZM7.15953 20.135C7.20791 19.9658 7.29327 19.8329 7.41088 19.6653C7.27832 19.5945 7.14616 19.5245 7.014 19.4513C6.8606 19.3656 6.70798 19.2767 6.55537 19.1768C6.53688 19.497 6.73984 19.7817 7.15953 20.135Z" fill="white"/>
</g>
<defs>
<clipPath id="clip0_148_17">
<rect width="29" height="29" fill="white"/>
</clipPath>
</defs>
</svg>
