<svg width="30" height="29" viewBox="0 0 30 29" fill="none" xmlns="http://www.w3.org/2000/svg">
<path d="M23.1008 18.2346C23.5824 18.4411 23.7889 19.1292 23.7889 19.4732C23.8577 20.0237 23.72 20.2989 23.5136 20.2989C23.3072 20.2989 23.032 20.0925 22.7567 19.6108C22.4815 19.1292 22.3439 18.6475 22.4815 18.3723C22.6879 18.2346 22.8943 18.1658 23.1008 18.2346Z" fill="white"/>
<path d="M20.2796 20.3676C20.5548 20.3676 20.8988 20.5052 21.2429 20.7804C21.7934 21.2621 21.9998 21.8126 21.7246 22.2254C21.5869 22.4318 21.2429 22.5695 20.9676 22.5695C20.6236 22.5695 20.2796 22.4318 20.0731 22.2254C19.5226 21.7437 19.385 21.0556 19.7291 20.6428C19.7979 20.5052 20.0043 20.3676 20.2796 20.3676Z" fill="white"/>
<path d="M13.7428 25.8036C6.58664 25.8036 0.806641 20.0236 0.806641 12.9362C0.806641 5.84881 6.58664 0 13.7428 0C20.899 0 26.679 5.78 26.679 12.9362C26.679 15.3445 25.9909 17.6152 24.89 19.5419C24.8211 19.6107 24.7523 19.6107 24.7523 19.4731C24.2707 16.3078 22.344 14.5876 19.5916 14.0371C19.3164 13.9683 19.3164 13.8307 19.6604 13.8307C20.555 13.7619 21.7247 13.7619 22.4128 13.8995C22.4816 13.5555 22.4816 13.2114 22.4816 12.9362C22.4816 8.25714 18.6283 4.40381 13.9493 4.40381C9.27021 4.40381 5.41688 8.25714 5.41688 12.9362C5.41688 17.6152 9.27021 21.4686 13.9493 21.4686H14.3621C14.2245 20.7117 14.1557 19.9547 14.2245 19.129C14.2245 18.5786 14.3621 18.5097 14.5685 18.9226C15.7383 20.9869 17.4585 22.7759 20.7614 23.5328C23.445 24.1521 26.1285 24.8402 29.0873 28.4871C29.3626 28.8312 28.9497 29.1752 28.6745 28.9C25.7157 26.2852 23.0321 25.3907 20.555 25.3907C17.4585 25.4595 15.6007 25.8036 13.7428 25.8036Z" fill="white"/>
</svg>
