<svg width="29" height="29" viewBox="0 0 29 29" fill="none" xmlns="http://www.w3.org/2000/svg">
<path d="M29 23.519C29 27.0425 27.0425 29 23.519 29H5.481C1.9575 29 0 27.0425 0 23.519V5.481C0 1.9575 1.9575 0 5.481 0H23.5263C27.0425 0 29 1.9575 29 5.481V23.519Z" fill="#FFE600"/>
<path d="M18.6467 13.0859V10.3164L19.6472 9.31593V11.7157L20.5172 12.5857L24.0189 9.08393L24.8817 9.94668C24.8744 9.29418 24.7439 7.40193 23.1417 5.82868C21.4162 4.16118 19.5457 4.91518 18.9077 5.55318L15.4132 9.04768L16.3049 9.93943L14.4997 11.7592L12.6944 9.95393L13.5862 9.06218L10.0917 5.56768C9.45368 4.92968 7.58318 4.17568 5.85768 5.84318C4.25543 7.41643 4.12493 9.30868 4.11768 9.96118L4.98043 9.09843L8.48218 12.6002L9.35218 11.7302V9.33043L10.3527 10.3309V13.1004L11.7592 14.4997L4.82818 21.4307L7.56868 24.1639L14.4997 17.2402L21.4307 24.1712L24.1712 21.4379L17.2402 14.4997L18.6467 13.0859Z" fill="#2B2D34"/>
</svg>
