<svg width="25" height="29" viewBox="0 0 25 29" fill="none" xmlns="http://www.w3.org/2000/svg">
<g clip-path="url(#clip0_149_107)">
<path d="M4.15425 29H0V11.1143C0.0171245 8.17184 1.19358 5.35484 3.27421 3.27421C5.35485 1.19358 8.17184 0.017124 11.1143 0H24.8458V11.02C24.8438 13.9684 23.6713 16.7953 21.5858 18.8795C19.5003 20.9635 16.6726 22.1343 13.7243 22.1343H6.76426L8.30851 17.98H13.63C14.5451 17.9839 15.4519 17.8065 16.298 17.458C17.1442 17.1097 17.913 16.5971 18.56 15.95C19.2071 15.303 19.7197 14.5342 20.068 13.688C20.4165 12.8419 20.5939 11.9351 20.59 11.02V4.15425H11.02C10.1049 4.15042 9.19816 4.32783 8.35201 4.67624C7.50586 5.02465 6.73707 5.53718 6.09 6.18423C5.44294 6.8313 4.9304 7.60011 4.58199 8.44626C4.23358 9.29241 4.05617 10.1992 4.06 11.1143V29H4.15425V29Z" fill="white"/>
</g>
<defs>
<clipPath id="clip0_149_107">
<rect width="25" height="29" fill="white"/>
</clipPath>
</defs>
</svg>
