<svg width="17" height="29" viewBox="0 0 17 29" fill="none" xmlns="http://www.w3.org/2000/svg">
<g clip-path="url(#clip0_148_27)">
<path d="M9.98236 9.40771C7.3476 9.40771 5.20618 10.9765 4.67526 11.6259V9.74344H0V29H4.64596V22.1508C5.19138 22.8144 7.318 24.3549 9.96755 24.3549C14.3643 24.3549 16.7857 22.0519 16.7857 16.8703C16.7857 11.6887 14.3676 9.40771 9.98236 9.40771ZM8.31798 20.6244C5.54976 20.6244 4.67852 19.6533 4.67852 16.8593C4.67852 14.0654 5.54325 13.0943 8.31798 13.0943C11.0927 13.0943 11.9412 14.0513 11.9412 16.8593C11.9412 19.6674 11.1057 20.6181 8.31798 20.6181V20.6244Z" fill="#00274F"/>
<path d="M16.1607 0L0 2.06177V6.73214L16.1607 5.32371V0Z" fill="#E4003A"/>
</g>
<defs>
<clipPath id="clip0_148_27">
<rect width="17" height="29" fill="white"/>
</clipPath>
</defs>
</svg>
