<svg width="37" height="29" viewBox="0 0 37 29" fill="none" xmlns="http://www.w3.org/2000/svg">
<g clip-path="url(#clip0_148_33)">
<path d="M36.8151 8.80736C35.4276 6.86486 33.6701 5.29236 31.5426 4.18236C29.4151 3.07236 27.1951 2.60986 24.8826 2.60986C22.5701 2.60986 20.1651 3.16486 18.1301 4.27486C16.0026 5.38486 14.2451 6.95736 12.8576 8.89986L12.6726 9.08486H16.1876C17.2976 7.88236 18.5926 6.95736 20.1651 6.30986C21.7376 5.66236 23.2176 5.29236 24.8826 5.29236C26.5476 5.29236 28.1201 5.66236 29.6001 6.30986C31.0801 6.95736 32.4676 7.88236 33.5776 9.08486H37.0001L36.8151 8.80736Z" fill="#FF0100"/>
<path d="M25.9 6.86487L22.94 8.43737V11.3974H20.35V14.1724H22.94V22.4974C22.94 24.7174 24.235 26.2899 26.27 26.3824C27.195 26.3824 28.12 26.1974 28.9525 25.7349L29.6925 22.8674L29.6 22.9599C28.9525 23.4224 28.12 23.6999 27.38 23.6999C26.3625 23.6999 25.9 23.2374 25.9 22.0349V14.1724H28.9525V11.3974H25.9V6.86487ZM7.6775 11.2124C5.735 11.2124 3.7925 11.8599 2.3125 13.1549C1.5725 13.8949 0.925 14.7274 0.555 15.7449C0.185 16.7624 0 17.7799 0 18.7974C0 19.8149 0.185 20.9249 0.555 21.8499C0.925 22.8674 1.5725 23.6999 2.3125 24.4399C3.7925 25.7349 5.735 26.4749 7.6775 26.3824C8.695 26.3824 9.7125 26.1974 10.545 25.7349C11.3775 25.2724 12.21 24.7174 12.8575 23.8849L12.95 23.7924L11.1925 21.6649L11.1 21.7574C10.6375 22.2199 10.0825 22.6824 9.435 22.9599C8.7875 23.2374 8.14 23.4224 7.4925 23.4224C6.845 23.4224 6.29 23.3299 5.6425 23.0524C5.0875 22.7749 4.5325 22.4974 4.07 22.0349C3.6075 21.5724 3.33 21.0174 3.0525 20.4624C2.8675 19.9074 2.775 19.2599 2.775 18.6124C2.775 17.9649 2.8675 17.4099 3.0525 16.7624C3.2375 16.2074 3.6075 15.6524 4.07 15.1899C4.5325 14.7274 4.995 14.3574 5.6425 14.1724C6.1975 13.8949 6.845 13.8024 7.4925 13.8949C8.14 13.8949 8.88 14.0799 9.435 14.3574C10.0825 14.6349 10.6375 15.0049 11.1 15.5599L11.1925 15.6524L12.95 13.6174V13.7099C12.3025 12.8774 11.5625 12.2299 10.6375 11.8599C9.7125 11.3974 8.695 11.2124 7.6775 11.2124V11.2124ZM14.7075 11.3974H17.6675V26.1049H14.7075V11.3974V11.3974ZM32.005 11.3974H35.0575V26.1049H32.0975C32.0975 26.1974 32.005 11.3974 32.005 11.3974V11.3974Z" fill="#020168"/>
</g>
<defs>
<clipPath id="clip0_148_33">
<rect width="37" height="29" fill="white"/>
</clipPath>
</defs>
</svg>
