<svg width="29" height="29" viewBox="0 0 29 29" fill="none" xmlns="http://www.w3.org/2000/svg">
<g clip-path="url(#clip0_148_42)">
<path d="M14.4747 23.4751C9.5132 23.4751 5.47117 19.435 5.47117 14.475C5.47117 9.51492 9.51202 5.4737 14.4724 5.4737H15.036V0H14.4735C6.49636 0 0 6.49622 0 14.4738C0 22.5038 6.49636 29 14.4747 29H15.0372V23.4774H14.4747V23.4751Z" fill="#FF4B5F"/>
<path d="M17.3894 0.30896V7.8277H14.4747C10.792 7.8277 7.82568 10.794 7.82568 14.4765C7.82568 18.1578 10.792 21.124 14.4735 21.124H17.3894V28.6428C24.0372 27.364 28.9999 21.534 28.9999 14.4753C28.9999 7.46898 24.0396 1.63895 17.3894 0.30896Z" fill="#003791"/>
</g>
<defs>
<clipPath id="clip0_148_42">
<rect width="29" height="29" fill="white"/>
</clipPath>
</defs>
</svg>
