<svg width="28" height="29" viewBox="0 0 28 29" fill="none" xmlns="http://www.w3.org/2000/svg">
<g clip-path="url(#clip0_148_56)">
<path fill-rule="evenodd" clip-rule="evenodd" d="M14.0089 0C14.3951 0 14.8059 0.015997 15.2607 0.0525616V2.8349C15.2607 15.0943 15.728 20.3939 17.5402 28.5661C15.2247 29.1454 12.7686 29.1454 10.457 28.5615C12.2812 20.3299 12.752 15.0303 12.752 2.8349V0.0525616C13.2113 0.015997 13.6221 0 14.0089 0ZM28 15.5377C28 10.7694 25.4028 6.57705 21.5006 4.18893L21.5532 7.42604C23.8728 9.41995 25.3422 12.32 25.3422 15.5377C25.3422 17.0071 25.028 18.4091 24.4767 19.69C22.7975 18.0949 21.6012 16.2187 20.8568 14.0031C19.9586 11.3213 19.749 8.38472 19.717 4.79682L19.721 3.25425L19.3919 3.11713L19.0902 3.00058C18.4801 2.77205 17.8516 2.58352 17.2123 2.44069L17.2163 4.79225C17.3009 17.1808 19.4473 22.2873 22.6404 26.1254C25.9061 23.6607 28 19.8351 28 15.5377ZM10.7964 4.79453L10.8004 2.44297C9.93881 2.63608 9.09725 2.91031 8.29169 3.25653L8.29569 4.7991C8.25969 8.38357 8.05402 11.3236 7.1559 14.0054C6.41547 16.221 5.21512 18.0938 3.53601 19.6923C2.98468 18.4114 2.67045 17.0094 2.67045 15.5399C2.67045 12.3177 4.13589 9.42224 6.45946 7.42832L6.51202 4.19122C2.60589 6.57477 0.00866699 10.7671 0.00866699 15.5399C0.00866699 19.8374 2.10656 23.663 5.36823 26.1277C8.56935 22.2941 10.7118 17.1831 10.7964 4.79453Z" fill="white"/>
</g>
<defs>
<clipPath id="clip0_148_56">
<rect width="28" height="29" fill="white"/>
</clipPath>
</defs>
</svg>
