<svg width="33" height="29" viewBox="0 0 33 29" fill="none" xmlns="http://www.w3.org/2000/svg">
<path d="M11.991 20.7605C12.3162 21.8988 13.0479 22.8744 14.0236 23.5249C14.9993 24.2566 16.1375 24.5819 17.2758 24.5819C18.4141 24.5819 19.6337 24.1753 20.528 23.5249C21.5037 22.7931 22.1542 21.8988 22.5607 20.7605H11.991Z" fill="white"/>
<path d="M16.2611 2.62939C7.23619 2.62939 0 9.54036 0 18.1587C0 21.0857 0.89436 23.9314 2.52047 26.3706H10.3258C8.69969 25.151 7.4801 23.3623 6.82966 21.411C6.26052 19.4596 6.26052 17.3457 6.91097 15.3944C7.56141 13.443 8.8623 11.7356 10.4884 10.516C12.1958 9.29644 14.1472 8.646 16.2611 8.646C18.2937 8.646 20.3264 9.29644 22.0338 10.516C23.7412 11.7356 24.9608 13.443 25.6112 15.3944C26.2617 17.3457 26.2617 19.4596 25.6925 21.411C25.1234 23.3623 23.9038 25.151 22.1964 26.3706H30.0017C31.6278 23.9314 32.4409 21.0857 32.5222 18.1587C32.5222 9.54036 25.286 2.62939 16.2611 2.62939Z" fill="white"/>
</svg>
