<svg width="30" height="29" viewBox="0 0 30 29" fill="none" xmlns="http://www.w3.org/2000/svg">
<g clip-path="url(#clip0_148_62)">
<path d="M15.2751 7.44986C15.4932 7.12276 15.4083 6.88049 15.2509 6.74724C15.1539 6.66244 12.913 5.30572 12.913 5.30572C12.7555 5.1967 12.6464 5.01499 12.6464 4.79695C12.6464 4.45776 12.8523 4.21549 13.3005 4.08224C14.7421 3.68249 19.8298 3.47656 21.55 3.47656C22.3616 3.47656 23.9848 3.47656 25.0387 3.53713C26.2258 3.60981 27.1343 3.8642 27.3645 4.43353C27.8005 5.5601 27.0737 6.26269 26.5529 6.73513C26.2743 6.98951 22.6038 10.454 18.2793 14.2335C14.4756 17.5647 10.2116 20.9444 7.75255 22.7977C4.28804 25.3901 3.60968 25.7656 3.60968 25.7656C3.51277 25.814 3.36741 25.8625 3.24626 25.8625C2.88286 25.8625 2.60425 25.5839 2.60425 25.2326C2.60425 25.0993 2.64059 24.9662 2.71327 24.8692C2.71327 24.8692 9.54533 15.0329 10.781 13.3613C12.0287 11.7017 15.0086 7.80112 15.0086 7.80112C15.0086 7.80112 15.0571 7.7648 15.2751 7.44986V7.44986Z" fill="#FEFEFE"/>
<path d="M15.2508 7.48621C15.2629 7.4741 15.2629 7.46199 15.275 7.44988C15.5052 7.12281 15.4083 6.88053 15.2508 6.74728C15.1539 6.66249 12.9129 5.30577 12.9129 5.30577C12.7554 5.19674 12.6464 5.01504 12.6464 4.79699C12.6464 4.46992 12.8402 4.21554 13.3005 4.08229C14.7421 3.68254 19.8297 3.47661 21.5499 3.47661C22.1434 3.47661 23.1852 3.47661 24.1059 3.50084L24.0695 3.46449C21.5378 1.30827 18.2429 0 14.6572 0C6.65012 0 0.157227 6.4929 0.157227 14.5C0.157227 18.0251 1.41704 21.2473 3.50059 23.7548C5.31762 21.1382 9.82387 14.6817 10.8051 13.3613C11.9438 11.835 14.5361 8.45531 14.9722 7.88597L14.9964 7.86175L15.2508 7.48621V7.48621ZM5.8143 25.9958C8.26128 27.8856 11.326 29 14.6572 29C22.6643 29 29.1572 22.5071 29.1572 14.5C29.1572 12.0773 28.5637 9.78786 27.5098 7.78911C28.0064 7.30452 28.5879 6.54138 28.2002 5.59652C28.0792 5.3179 27.5219 4.66377 27.3766 4.5063L27.4008 4.56686C27.752 5.63286 27.0616 6.29911 26.5528 6.74731C26.2742 7.00169 22.5916 10.4662 18.2792 14.2457C14.4755 17.5769 10.2115 20.9566 7.75247 22.81C4.28799 25.4023 3.60963 25.7778 3.60963 25.7778C3.51272 25.8262 3.36735 25.8747 3.25833 25.8747C3.0524 25.8747 2.85858 25.7778 2.74956 25.6324C2.72533 25.6809 2.72533 25.7173 2.73744 25.7415C3.11296 26.3472 3.73076 27.0376 4.08205 27.0376C4.19108 27.0376 4.34855 26.9891 4.44546 26.9407C4.43335 26.9286 4.71196 26.7832 5.8143 25.9958V25.9958Z" fill="#E2001A"/>
</g>
<defs>
<clipPath id="clip0_148_62">
<rect width="30" height="29" fill="white"/>
</clipPath>
</defs>
</svg>
