<svg width="99" height="20" viewBox="0 0 99 20" fill="none" xmlns="http://www.w3.org/2000/svg">
<path d="M0 12V8.87886L8 5V8.28253L0 12Z" fill="#3F38CE"/>
<path d="M19 9V12.1218L11 16V12.7168L19 9Z" fill="#3F38CE"/>
<path d="M1 12.4642L4.59719 11L9 12.8791V16L1 12.4642Z" fill="#00D392"/>
<path d="M19 8.53484L15.4014 10L11 8.12013V5L19 8.53484Z" fill="#00D392"/>
<path fill-rule="evenodd" clip-rule="evenodd" d="M57.0066 10.3868C57.0066 11.3171 57.2993 12.0651 57.8846 12.631C58.477 13.1789 59.2606 13.4753 60.069 13.4574C60.4666 13.4656 60.8617 13.3928 61.2301 13.2434C61.5984 13.094 61.9322 12.8712 62.2109 12.5888C62.5016 12.3015 62.7298 11.9578 62.8813 11.579C63.0328 11.2001 63.1043 10.7943 63.0915 10.3868C63.0915 9.49703 62.7989 8.77712 62.2135 8.22706C61.9329 7.94865 61.5983 7.73005 61.2301 7.58456C60.8618 7.43908 60.4677 7.36977 60.0716 7.38086C59.2783 7.37306 58.5122 7.66836 57.931 8.20594C57.3157 8.74367 57.0075 9.47063 57.0066 10.3868ZM56.9907 15.3795H54.8687V0.0660066H56.9907V6.89373C57.3027 6.36071 57.775 5.93866 58.3409 5.68713C58.9725 5.40176 59.6592 5.25757 60.3528 5.26469C61.7515 5.26469 62.9293 5.73729 63.8859 6.68251C64.8585 7.62772 65.3448 8.87657 65.3448 10.429C65.3448 11.9393 64.8523 13.174 63.8674 14.1333C63.4077 14.5997 62.8572 14.9678 62.2498 15.2152C61.6423 15.4626 60.9905 15.5841 60.3342 15.5723C59.6544 15.5766 58.982 15.4319 58.3647 15.1485C57.7907 14.893 57.3105 14.4663 56.9907 13.9274V15.3795ZM34.4443 15.3795V13.9828C34.13 14.4911 33.6485 14.8528 33.0013 15.1485C32.3969 15.4256 31.7397 15.5701 31.0743 15.5723C30.4086 15.5832 29.7475 15.4615 29.1299 15.2144C28.5122 14.9673 27.9503 14.5997 27.4775 14.1333C26.4916 13.174 25.9991 11.9322 26 10.4079C26.0009 8.88361 26.4934 7.64884 27.4775 6.70363C27.9503 6.23724 28.5122 5.86967 29.1299 5.62256C29.7475 5.37545 30.4086 5.25377 31.0743 5.26469C31.7396 5.26686 32.3967 5.4109 33.0013 5.68713C33.5943 5.92485 34.0985 6.34001 34.4443 6.87525V5.47855H36.5663V15.3795H34.4443ZM29.1472 8.22706C28.5619 8.77712 28.2692 9.49703 28.2692 10.3868C28.2562 10.7939 28.3275 11.1994 28.4785 11.5779C28.6295 11.9565 28.8572 12.3001 29.1472 12.5875C29.4344 12.8704 29.7757 13.0931 30.1509 13.2423C30.5261 13.3915 30.9276 13.4642 31.3316 13.4561C32.1401 13.4746 32.9239 13.1781 33.5159 12.6297C34.1154 12.0664 34.4151 11.3184 34.4151 10.3855C34.4151 9.46755 34.1012 8.74059 33.4735 8.20462C32.8923 7.66704 32.1262 7.37174 31.3329 7.37954C30.5203 7.36239 29.7341 7.66725 29.1472 8.22706ZM40.8103 5.47855V6.93069C41.1435 6.38938 41.6336 5.96132 42.2162 5.70297C42.831 5.41008 43.5041 5.25848 44.1857 5.25941C44.8389 5.24641 45.4879 5.36746 46.0921 5.61503C46.6963 5.86259 47.2428 6.23136 47.6976 6.69835C48.6702 7.65765 49.1565 8.89945 49.1565 10.4238C49.1565 11.9622 48.6702 13.204 47.6976 14.1492C47.2397 14.6106 46.6921 14.9743 46.0883 15.218C45.4845 15.4618 44.8371 15.5805 44.1857 15.567C43.4994 15.5723 42.8203 15.4276 42.1963 15.1432C41.6199 14.8891 41.136 14.4646 40.8103 13.9274V20H38.6883V5.47855H40.8103ZM40.8674 10.4713C40.8674 11.3892 41.1671 12.1228 41.7666 12.6719C42.3529 13.1989 43.1173 13.4864 43.9072 13.4772C44.3013 13.4888 44.6938 13.4216 45.0615 13.2796C45.4291 13.1377 45.7645 12.9239 46.0477 12.6508C46.6233 12.0876 46.9111 11.3611 46.9111 10.4713C46.9111 9.56832 46.6185 8.82728 46.0332 8.24819C45.7591 7.96524 45.4289 7.74205 45.0636 7.59275C44.6984 7.44345 44.3059 7.3713 43.9111 7.38086C43.1063 7.3665 42.3287 7.67087 41.7493 8.22706C41.1605 8.79208 40.8665 9.54015 40.8674 10.4713ZM52.7467 5.47855V15.3795H50.6247V5.47855H52.7467ZM74.4973 13.9657V15.3795H76.6194V5.47855H74.4973V6.86073C74.1671 6.33129 73.6761 5.92025 73.0955 5.68713C72.4909 5.41079 71.8337 5.26673 71.1684 5.26469C70.5028 5.25399 69.8418 5.37577 69.2241 5.62287C68.6065 5.86997 68.0447 6.23742 67.5716 6.70363C66.5867 7.64708 66.0942 8.88185 66.0942 10.4079C66.0942 11.934 66.5867 13.1758 67.5716 14.1333C68.0447 14.5995 68.6065 14.967 69.2241 15.2141C69.8418 15.4612 70.5028 15.583 71.1684 15.5723C71.8339 15.5704 72.4912 15.4259 73.0955 15.1485C73.6731 14.906 74.1624 14.4932 74.4973 13.9657ZM68.3634 10.3868C68.3634 9.49703 68.6561 8.77712 69.2414 8.22706C69.8281 7.66806 70.6137 7.36371 71.4257 7.38086C72.22 7.37211 72.9873 7.66749 73.569 8.20594C74.1976 8.74367 74.5119 9.47063 74.5119 10.3868C74.5119 11.3171 74.2122 12.0651 73.6127 12.631C73.0205 13.1791 72.2368 13.4756 71.4284 13.4574C71.0244 13.4655 70.6229 13.3928 70.2477 13.2436C69.8725 13.0944 69.5312 12.8717 69.244 12.5888C68.9533 12.3015 68.7251 11.9578 68.5736 11.579C68.4221 11.2001 68.3506 10.7943 68.3634 10.3868ZM80.8634 10.0581V15.3795H78.7414V5.47855H80.8634V6.9571C81.1287 6.42112 81.6393 6.00528 82.2241 5.70825C82.7726 5.42175 83.3819 5.26968 84.0013 5.26469C85.2153 5.26469 86.1503 5.63828 86.8064 6.38548C87.4775 7.13399 87.7599 8.17822 87.7599 9.57096V15.3795H85.6379V9.86007C85.6379 9.08383 85.4151 8.48185 85.0292 8.05809C84.6432 7.63432 84.1512 7.39802 83.5093 7.39802C82.8342 7.38007 82.177 7.61571 81.6684 8.05809C81.183 8.48185 80.8634 9.15512 80.8634 10.0581ZM91.8714 10.7512L96.1737 15.3611H99L93.7759 9.77294L98.0358 5.47855H95.0822L91.8714 8.73003V0.0660066H89.7493V15.3795H91.8714V10.7512ZM51.6857 2.83828C51.8729 2.84267 52.0592 2.81029 52.2339 2.74299C52.4085 2.6757 52.5682 2.5748 52.7036 2.44608C52.8391 2.31735 52.9478 2.16332 53.0234 1.99278C53.0991 1.82223 53.1403 1.63852 53.1446 1.45215C53.1446 1.06701 52.9909 0.697654 52.7173 0.425323C52.4437 0.152993 52.0726 0 51.6857 0C51.2988 0 50.9277 0.152993 50.6541 0.425323C50.3805 0.697654 50.2268 1.06701 50.2268 1.45215C50.2311 1.63852 50.2723 1.82223 50.3479 1.99278C50.4236 2.16332 50.5322 2.31735 50.6677 2.44608C50.8032 2.5748 50.9628 2.6757 51.1375 2.74299C51.3122 2.81029 51.4984 2.84267 51.6857 2.83828Z" fill="#262626"/>
</svg>
