<svg width="138" height="20" viewBox="0 0 138 20" fill="none" xmlns="http://www.w3.org/2000/svg">
<g clip-path="url(#clip0_2239_128226)">
<path d="M133.471 11.031L138.049 6.32227H135.156L130.995 10.7285V6.32227H128.657V16.2991H130.995V11.539L135.173 16.2991H138.093L133.471 11.031Z" fill="black"/>
<path d="M42.8438 3.51953H36.8496V16.2987H39.3417V12.1608H42.7011C45.4512 12.1722 47.2901 10.4314 47.2737 7.80589C47.2737 5.2318 45.5061 3.51953 42.8438 3.51953ZM42.3114 10.0946H39.3472V5.58567H42.3114C43.8429 5.58567 44.7376 6.40759 44.7376 7.80589C44.7376 9.24989 43.8429 10.0946 42.3114 10.0946Z" fill="black"/>
<path d="M53.2241 6.13867C50.1336 6.13867 48.1904 8.13627 48.1904 11.3211C48.1904 14.4945 50.1336 16.4807 53.2241 16.4807C56.3255 16.4807 58.2687 14.4945 58.2687 11.3211C58.2687 8.13627 56.3255 6.13867 53.2241 6.13867ZM53.2241 14.5459C51.5114 14.5459 50.5234 13.216 50.5234 11.3497C50.5234 9.36337 51.5279 8.09057 53.2241 8.09057C54.9861 8.09057 55.9577 9.32347 55.9577 11.2355C55.9577 13.3131 55.0355 14.5459 53.2241 14.5459Z" fill="black"/>
<path d="M101.622 9.70079C102.83 9.21569 103.631 8.17119 103.631 6.79569C103.631 4.83227 102.21 3.51953 99.7507 3.51953H93.4326V16.2987H99.9264C102.577 16.2987 104.087 14.9518 104.087 12.8C104.093 11.219 103.137 10.146 101.622 9.70079ZM95.8753 5.50005H99.3335C100.53 5.50005 101.211 6.12219 101.211 7.17809C101.211 8.23399 100.519 8.85609 99.3171 8.85609H95.8753V5.50005ZM99.5531 14.3296H95.8698V10.848H99.5531C100.81 10.848 101.546 11.4987 101.546 12.5945C101.551 13.6847 100.81 14.3296 99.5531 14.3296Z" fill="black"/>
<path d="M110.416 6.13867C107.326 6.13867 105.382 8.13627 105.382 11.3211C105.382 14.4945 107.326 16.4807 110.416 16.4807C113.517 16.4807 115.461 14.4945 115.461 11.3211C115.461 8.13627 113.517 6.13867 110.416 6.13867ZM110.416 14.5459C108.703 14.5459 107.715 13.216 107.715 11.3497C107.715 9.36337 108.72 8.09057 110.416 8.09057C112.178 8.09057 113.15 9.32347 113.15 11.2355C113.15 13.3131 112.228 14.5459 110.416 14.5459Z" fill="black"/>
<path d="M69.1698 6.32227H66.2769L62.1161 10.7285V6.32227H59.7832V16.2991H62.1161V11.539L66.2934 16.2991H69.2137L64.5972 11.031L69.1698 6.32227Z" fill="black"/>
<path d="M74.2975 6.14453C71.2894 6.14453 69.2803 8.17643 69.2803 11.2242C69.2803 14.4661 71.2894 16.5037 74.5006 16.5037C76.7127 16.5037 78.4309 15.562 79.1554 13.1705L76.8115 13.1591C76.4108 14.118 75.6753 14.5917 74.4621 14.5917C72.8648 14.5917 71.712 13.57 71.6462 11.9719H79.2433C79.4464 8.34763 77.6898 6.14453 74.2975 6.14453ZM71.6846 10.2597C71.7504 9.04403 72.8812 7.99383 74.3029 7.99383C76.0156 7.99383 76.8774 9.12393 76.9597 10.2597C76.9488 10.254 71.6846 10.2597 71.6846 10.2597Z" fill="black"/>
<path d="M79.8027 8.29137H83.1512V16.2991H85.4622V8.29137H88.8326V6.32227H79.8027V8.29137Z" fill="black"/>
<path d="M122.553 6.13867C121.164 6.13867 120.05 6.62377 119.21 7.55407L119.193 6.32127H116.992V19.9566H119.325C119.325 19.9566 119.325 15.1452 119.325 15.1623C120.083 16.007 121.219 16.4864 122.547 16.4864C125.265 16.4864 127.076 14.5173 127.076 11.3725C127.081 8.15337 125.27 6.13867 122.553 6.13867ZM121.971 14.5116C120.286 14.5116 119.287 13.3302 119.287 11.3211C119.287 9.30637 120.286 8.12487 121.971 8.12487C123.673 8.12487 124.683 9.33487 124.683 11.3896C124.677 13.353 123.673 14.5116 121.971 14.5116Z" fill="black"/>
<path d="M0 -0.126953V2.39008L14.4477 3.80555L27.1827 4.93565C27.2596 4.94136 27.2596 5.06121 27.1827 5.06692L14.4477 6.21981L0 7.66381V12.15L14.4477 13.594L27.1827 14.7469C27.2596 14.7526 27.2596 14.8725 27.1827 14.8782L14.4477 16.0083L0 17.4237V19.9408L28.8954 17.0585V12.5609L14.4477 11.1226L1.64677 9.96401C1.56992 9.95831 1.56992 9.83841 1.64677 9.83271L14.4477 8.67411L28.8954 7.23581V2.73824L0 -0.126953Z" fill="black"/>
</g>
<defs>
<clipPath id="clip0_2239_128226">
<rect width="138" height="20" fill="white"/>
</clipPath>
</defs>
</svg>
