<svg width="116" height="116" viewBox="0 0 116 116" fill="none" xmlns="http://www.w3.org/2000/svg">
<path d="M93.4948 74.2873C93.4948 72.7244 94.7797 71.4921 96.2987 71.1243C99.3685 70.381 102 68.3988 102 65.2316C102 59.0322 98.6998 56.7418 94.6289 56.7418L92.1905 56.7418C90.4095 56.7418 88.6867 54.8952 88.7556 53.1155C88.8217 51.4093 90.0796 50.884 91.6434 50.1983C93.7192 49.288 96.2945 47.5709 96.6267 44.5864C97.1937 39.4926 93.0297 36.3664 88.9588 36.3664L61.4084 36.3664C62.8325 34.5873 68.623 25.0035 73 17.5C76.5 11.5 78.2064 8.81005 75.2736 4.62916C72.3408 0.448282 66.5679 -0.567798 62.3794 2.35969C62.3794 2.35969 29.6559 34.2236 23.0187 40.8517C16.3814 47.4799 13.5464 55.816 13.5464 75.9852C13.5464 96.1544 29.7934 112.208 49.835 112.208L51.5247 112.208C51.5285 112.208 51.5323 112.208 51.5361 112.208L85.8417 112.208C89.9127 112.208 93.2129 108.914 93.2129 104.85C93.2129 101.805 92.3168 99.1959 90.1542 98.0796C88.8998 97.432 87.7711 95.8744 88.1658 94.519C88.7238 92.6029 90.5456 91.8327 92.5414 91.8327L93.4948 91.8327C97.5658 91.8327 100.866 88.4633 100.866 83.3695C100.866 79.5229 98.984 77.9204 96.3094 77.3663C94.779 77.0492 93.4948 75.8502 93.4948 74.2873Z" fill="white"/>
</svg>
