<svg width="116" height="116" viewBox="0 0 116 116" fill="none" xmlns="http://www.w3.org/2000/svg">
<path d="M63.1835 6.55652C63.1835 2.93545 60.2882 0 56.7167 0C53.1451 0 50.2498 2.93546 50.2498 6.55652V47.1212C50.2498 48.0489 49.7157 48.8911 48.9046 49.3416C47.3436 50.2086 45.2753 49.1474 45.2753 47.3618V15.6348C45.2753 12.0137 42.38 9.07826 38.8085 9.07826C35.2369 9.07826 32.3416 12.0137 32.3416 15.6348V71.638C30.7779 70.3713 29.3897 68.8773 28.2265 67.1931L20.7767 56.4062C18.2037 52.6806 13.1389 51.7752 9.4643 54.3838C5.78966 56.9925 4.89662 62.1275 7.46963 65.8531C7.46963 65.8531 30.4582 101.671 36.2838 107.575C42.1094 113.478 49.4362 116 67.1632 116C84.8901 116 99 101.549 99 83.7217V82.2188C99 82.2155 99 82.2121 99 82.2087V22.6957C99 19.0746 96.1047 16.1391 92.5331 16.1391C88.9616 16.1391 86.0663 19.0746 86.0663 22.6957V47.2334C86.0663 49.0719 83.9354 50.1656 82.3244 49.2794C81.5804 48.8701 81.0918 48.0987 81.0918 47.2496V10.5913C81.0918 6.97024 78.1965 4.03478 74.6249 4.03478C71.0534 4.03478 68.1581 6.97024 68.1581 10.5913V42.9195C68.1581 44.2932 67.0445 45.4068 65.6708 45.4068C64.2971 45.4068 63.1835 44.2932 63.1835 42.9195V6.55652Z" fill="white"/>
</svg>
