<svg width="116" height="116" viewBox="0 0 116 116" fill="none" xmlns="http://www.w3.org/2000/svg">
<path d="M64.9842 4.92846C64.0289 1.38238 60.3646 -0.722021 56.7996 0.22815C53.2347 1.17832 51.1191 4.82326 52.0743 8.36934L59.2696 35.0803C58.3299 34.8308 57.3748 34.6288 56.4077 34.4761C49.3531 33.3624 42.1538 34.9526 36.1982 38.9401C32.3207 41.5363 29.1491 45.029 26.9119 49.0933C24.8984 52.7512 27.4021 56.9453 31.4488 58.0355C35.5871 59.1504 39.7461 56.3887 42.8491 53.4459C43.3998 52.9237 43.9954 52.4463 44.6316 52.0204C47.4279 50.1481 50.8082 49.4015 54.1206 49.9244C57.433 50.4473 60.4429 52.2028 62.5698 54.8523C64.6968 57.5018 65.7901 60.8577 65.639 64.2728C65.5094 67.2007 64.9131 69.7743 62.6983 72.2607C60.1113 75.1651 58.003 76.9967 50.8585 77.4409C48.3394 77.5975 45.7238 77.0825 43.3072 76.2927C40.7524 74.8559 38.532 72.8624 36.8253 70.4379L30.2697 62.1478C27.6109 58.3706 22.3771 56.43 18.5799 59.0748C14.7826 61.7196 13.8598 66.9256 16.5187 70.7028C16.5187 70.7028 36 99 41 106C46 113 55.5 116 65.5 116C75.5 116 83.7575 111.981 87.8699 97.1522C91.9823 82.3237 88.8741 9.3878 88.8741 9.3878C88.8741 5.71662 85.8822 2.74054 82.1915 2.74054C78.5008 2.74054 75.5089 5.71662 75.5089 9.3878V43.9993L64.9842 4.92846Z" fill="white"/>
</svg>
