<svg width="116" height="116" viewBox="0 0 116 116" fill="none" xmlns="http://www.w3.org/2000/svg">
<path d="M65.6708 40.5C64.2971 40.5 63.2139 39.3709 62.8927 38.0353C62.2408 35.325 60.498 33 57.7116 33C52.2629 33 50.2498 35.9101 50.2498 39.5V42.6954C50.2498 43.6266 49.7113 44.4717 48.8957 44.9211C47.3347 45.7813 45.2753 44.7188 45.2753 42.9365V11.5C45.2753 7.91015 42.38 5 38.8085 5C35.2369 5 32.3416 7.91015 32.3416 11.5V67.0204C30.7779 65.7646 29.3897 64.2836 28.2265 62.6139L20.7767 51.9199C18.2037 48.2264 13.1389 47.3288 9.4643 49.915C5.78966 52.5012 4.89662 57.5919 7.46963 61.2854C7.46963 61.2854 30.4582 96.7943 36.2838 102.647C42.1094 108.5 49.4362 111 67.1632 111C84.8901 111 99 96.6731 99 79V77.5101C99 77.5067 99 77.5034 99 77.5V18.5C99 14.9102 96.1047 12 92.5331 12C88.9616 12 86.0663 14.9101 86.0663 18.5V42.8078C86.0663 44.6433 83.944 45.7385 82.3328 44.8591C81.5845 44.4508 81.0918 43.6765 81.0918 42.8241V40.5C81.0918 36.9101 78.1304 34 73.6533 34C70.2687 34 68.8609 35.6632 68.3754 38.026C68.0989 39.3716 67.0445 40.5 65.6708 40.5Z" fill="white"/>
</svg>
