<svg width="116" height="116" viewBox="0 0 116 116" fill="none" xmlns="http://www.w3.org/2000/svg">
<path d="M82.9485 71.2874C82.9485 69.7244 84.2333 68.4922 85.7524 68.1244C88.8221 67.381 91.4536 65.3989 91.4536 62.2316C91.4536 56.0323 88.1534 53.7419 84.0825 53.7419L81.6441 53.7419C79.8631 53.7419 78.1403 51.8953 78.2092 50.1156C78.2753 48.4093 79.5332 47.8841 81.097 47.1984C83.1728 46.2881 85.7481 44.571 86.0803 41.5865C86.6473 36.4926 82.4833 33.3665 78.4124 33.3665L50.862 33.3665C52.2861 31.5874 60.6369 23.133 66.596 16.8124C70.7073 12.4516 71.8024 8.12245 68.8696 3.94157C65.9368 -0.239317 60.1638 -1.2554 55.9754 1.67209C55.9754 1.67209 19.1096 31.2236 12.4723 37.8518C5.83506 44.4799 3.00001 52.8161 3 72.9853C3 93.1545 19.247 109.208 39.2887 109.208L40.9783 109.208C40.9821 109.208 40.9859 109.208 40.9897 109.208L105.629 116C109.7 116 113 112.706 113 108.642C113 104.579 109.7 101.284 105.629 101.284L79.8965 95.5229C77.7314 95.0381 76.7662 92.4764 77.8443 90.5372C78.4141 89.5124 79.4771 88.8328 80.6498 88.8328L82.9485 88.8328C87.0194 88.8328 90.3196 85.4634 90.3196 80.3696C90.3196 76.5229 88.4376 74.9205 85.763 74.3664C84.2326 74.0493 82.9485 72.8503 82.9485 71.2874Z" fill="white"/>
</svg>
