<svg width="116" height="116" viewBox="0 0 116 116" fill="none" xmlns="http://www.w3.org/2000/svg">
<path d="M49.9871 5.14207C49.2267 1.62479 45.7543 -0.611127 42.2313 0.147999C38.7082 0.907125 36.4686 4.37383 37.229 7.89111L45.9681 48.316C46.0622 48.7511 45.8457 49.1934 45.4505 49.3983C44.8696 49.6997 44.15 49.3783 44.0117 48.7386L37.152 17.0074C36.3916 13.4901 32.9192 11.2542 29.3961 12.0133C25.8731 12.7724 23.6335 16.2391 24.3939 19.7564L33.2103 60.539L33.2208 71.6233C33.2226 73.5511 30.7642 74.3653 29.615 72.8174L21.4839 61.8658C18.2299 58.7239 13.0408 58.8104 9.89367 62.059C6.74657 65.3076 6.8332 70.4882 10.0872 73.6302C10.0872 73.6302 30.8766 103.149 37.5272 108.816C44.1777 114.482 53.7411 116.272 63.2554 115.967C80.999 115.967 91.8926 101.41 91.8926 83.6956C91.8926 78.5073 91.9583 63.4531 91.9583 63.4531L100.428 25.9331C101.22 22.4229 99.0122 18.936 95.4962 18.1449C91.9802 17.3539 88.4876 19.5582 87.6953 23.0684L81.6253 49.9586C81.475 50.6244 80.7011 50.9311 80.1202 50.5727C79.7616 50.3515 79.5764 49.9286 79.6692 49.5176L88.143 11.9783C88.9354 8.46812 86.7275 4.98123 83.2115 4.19016C79.6955 3.39908 76.2029 5.6034 75.4105 9.11362L68.0084 41.905C67.4671 44.3032 65.3099 45.9872 62.852 45.9302C60.4661 45.8749 58.4289 44.1918 57.9246 41.8591L49.9871 5.14207Z" fill="white"/>
</svg>
