<svg width="116" height="116" viewBox="0 0 116 116" fill="none" xmlns="http://www.w3.org/2000/svg">
<path d="M69.4041 7.08658C69.6747 3.45902 67.0071 0.294868 63.4458 0.0192453C59.8845 -0.256377 56.7782 2.46091 56.5076 6.08847L53.4055 46.9179C53.3727 47.3491 53.0416 47.6979 52.6128 47.7532C52.1584 47.8117 51.7311 47.5239 51.6145 47.0808L42.6436 12.9777C41.7192 9.46363 38.1732 7.37823 34.7233 8.31982C31.2734 9.26141 29.2262 12.8734 30.1505 16.3875L38.9232 58.2992C38.9232 59.8361 38.9232 65.8478 38.9232 70.3399C38.9232 72.1701 36.6684 73.036 35.4403 71.679L21.3655 56.1273C18.7925 52.3843 13.7278 51.4746 10.0532 54.0955C6.37853 56.7164 5.48548 61.8754 8.05849 65.6184C8.05849 65.6184 30.5676 101.614 36.8727 107.535C43.1777 113.456 56.6777 116 67.752 116C85.335 116 99.5889 101.481 99.5889 83.5706L99.1147 50.6873C99.1147 47.0493 95.2245 44.1114 91.6529 44.1114C89.6584 44.1114 88.4969 45.3756 87.8601 46.492C87.3379 47.4074 86.4236 48.1509 85.3699 48.1311C84.1629 48.1085 83.1963 47.1236 83.1963 45.9164V43.5934C83.1963 39.9554 80.301 37.0062 76.7294 37.0062C73.1579 37.0062 70.2626 39.9554 70.2626 43.5934C70.2626 44.4059 69.6034 45.0643 68.7909 45.0633L68.4837 45.063C67.4511 45.0618 66.637 44.1837 66.7138 43.154L69.4041 7.08658Z" fill="white"/>
</svg>
