<svg width="16" height="16" viewBox="0 0 16 16" fill="none" xmlns="http://www.w3.org/2000/svg">
<path d="M10.668 2.66602C9.5613 2.66602 8.66797 3.55935 8.66797 4.66602C8.66797 5.77268 9.5613 6.66602 10.668 6.66602C11.7746 6.66602 12.668 5.77268 12.668 4.66602C12.668 3.55935 11.7746 2.66602 10.668 2.66602Z" fill="#0082DE"/>
<path d="M0.667969 11.8089C0.667969 11.8089 0.667969 8.76125 5.33464 8.76125C10.0013 8.76125 10.0013 11.8089 10.0013 11.8089V13.9993H0.667969V11.8089Z" fill="#0082DE"/>
<path d="M5.33464 3.33268C4.04352 3.33268 3.0013 4.35363 3.0013 5.6184C3.0013 6.88316 4.04352 7.90411 5.33464 7.90411C6.62575 7.90411 7.66797 6.88316 7.66797 5.6184C7.66797 4.35363 6.62575 3.33268 5.33464 3.33268Z" fill="#0082DE"/>
<path d="M10.6907 11.3327C10.6803 11.28 10.668 11.2239 10.6534 11.165C10.5639 10.8034 10.3858 10.3245 10.0307 9.84633C9.51083 9.14629 8.66631 8.51811 7.33463 8.21216C8.0203 7.71506 9.07513 7.33268 10.6979 7.33268C15.3346 7.33268 15.3346 10.4546 15.3346 10.4546V11.3327H10.6907Z" fill="#0082DE"/>
</svg>
